<?xml version="1.0" encoding="UTF-8" standalone="no"?>
<!-- Created with Inkscape (http://www.inkscape.org/) -->

<svg
   width="49.798786mm"
   height="74.890213mm"
   viewBox="0 0 49.798786 74.890213"
   version="1.1"
   id="svg5"
   inkscape:version="1.1 (1:1.1+202105261517+ce6663b3b7)"
   sodipodi:docname="shape_bee2.svg"
   xmlns:inkscape="http://www.inkscape.org/namespaces/inkscape"
   xmlns:sodipodi="http://sodipodi.sourceforge.net/DTD/sodipodi-0.dtd"
   xmlns="http://www.w3.org/2000/svg"
   xmlns:svg="http://www.w3.org/2000/svg">
  <sodipodi:namedview
     id="namedview7"
     pagecolor="#ffffff"
     bordercolor="#666666"
     borderopacity="1.0"
     inkscape:pageshadow="2"
     inkscape:pageopacity="0.0"
     inkscape:pagecheckerboard="0"
     inkscape:document-units="mm"
     showgrid="false"
     inkscape:zoom="2.0712039"
     inkscape:cx="85.216141"
     inkscape:cy="137.84254"
     inkscape:current-layer="layer1"
     fit-margin-top="0"
     fit-margin-left="0"
     fit-margin-right="0"
     fit-margin-bottom="0" />
  <defs
     id="defs2" />
  <g
     inkscape:label="Layer 1"
     inkscape:groupmode="layer"
     id="layer1"
     transform="translate(-57.162672,-0.80584378)">
    <path
       style="fill:none;fill-opacity:1;stroke:#000000;stroke-width:0.0764526;stroke-opacity:1"
       d="m 81.495433,75.659465 c -0.151483,-0.0566 -0.49552,-0.22615 -0.764526,-0.37667 -0.269007,-0.15051 -1.159975,-0.71818 -1.979929,-1.26149 -0.819955,-0.5433 -1.905579,-1.29809 -2.412499,-1.67731 -0.50692,-0.37922 -1.332608,-1.03405 -1.834862,-1.45516 -0.502255,-0.42112 -1.364576,-1.23085 -1.916271,-1.79941 -0.631414,-0.65071 -1.190351,-1.31504 -1.508499,-1.79293 -0.27798,-0.41756 -0.610485,-1.01399 -0.738899,-1.3254 -0.128415,-0.31141 -0.351569,-0.94558 -0.495898,-1.40926 -0.144328,-0.46369 -0.364402,-1.27312 -0.489052,-1.79873 -0.12465,-0.52562 -0.265192,-1.19738 -0.312315,-1.49282 -0.04712,-0.29544 -0.113205,-0.5817 -0.146851,-0.63614 -0.04941,-0.0799 -0.155206,-0.0813 -0.550261,-0.007 -0.272307,0.0512 -1.099048,0.0905 -1.865236,0.0886 -1.133305,-0.003 -1.484075,-0.0312 -1.987767,-0.16095 -0.336392,-0.0867 -1.024465,-0.3652 -1.529052,-0.61894 -0.504587,-0.25374 -1.211579,-0.68196 -1.571093,-0.95159 -0.359514,-0.26962 -0.985027,-0.83546 -1.390028,-1.25742 -0.405001,-0.42195 -0.871627,-0.96659 -1.036945,-1.2103 -0.165319,-0.24371 -0.413363,-0.66674 -0.551209,-0.94005 -0.137847,-0.27332 -0.349357,-0.78181 -0.470023,-1.12997 -0.120666,-0.34816 -0.302265,-0.95198 -0.403553,-1.34182 -0.101288,-0.38984 -0.225117,-1.0611 -0.275176,-1.49169 -0.061,-0.52469 -0.07862,-1.59502 -0.05344,-3.24533 0.0263,-1.72322 0.07394,-2.68466 0.158693,-3.20267 0.06661,-0.40713 0.210904,-1.0952 0.320645,-1.52905 0.109741,-0.43386 0.348917,-1.23608 0.531502,-1.78272 0.182585,-0.54663 0.526277,-1.423 0.763761,-1.94748 0.237484,-0.52447 0.624985,-1.31576 0.861114,-1.75841 0.236128,-0.44264 0.704126,-1.26926 1.039995,-1.83692 0.335868,-0.56766 0.919931,-1.49656 1.297917,-2.064221 0.377985,-0.56766 0.967832,-1.41055 1.310769,-1.873088 0.342938,-0.462539 0.89626,-1.167814 1.229603,-1.567279 0.333345,-0.399465 1.632611,-1.764128 2.887259,-3.032586 l 2.281178,-2.306286 -0.120683,-1.561592 c -0.06638,-0.858876 -0.120013,-2.177699 -0.119192,-2.930718 8.18e-4,-0.753018 0.05095,-1.740718 0.1114,-2.194887 0.06045,-0.45417 0.19991,-1.156129 0.309912,-1.55991 0.110003,-0.403781 0.328002,-1.029895 0.484444,-1.391363 0.156441,-0.361469 0.425959,-0.898575 0.598928,-1.193569 0.172969,-0.294994 0.511129,-0.81105 0.751467,-1.146789 0.240339,-0.33574 0.764283,-1.001555 1.164321,-1.479589 l 0.727342,-0.869154 -0.160107,-1.2715192 c -0.08806,-0.699336 -0.247226,-1.615556 -0.353704,-2.036046 -0.106479,-0.420489 -0.313253,-1.007919 -0.459497,-1.3054 -0.174365,-0.35468 -0.411957,-0.679008 -0.690175,-0.942137 -0.255627,-0.24176 -0.645876,-0.503647 -0.981763,-0.658837 -0.306619,-0.141666 -0.899481,-0.326178 -1.317472,-0.410027 -0.417991,-0.08385 -1.276038,-0.210029 -1.906772,-0.280401 -0.630734,-0.07037 -1.276366,-0.179735 -1.434736,-0.243029 -0.158371,-0.06329 -0.420987,-0.266222 -0.583591,-0.4509499 -0.173356,-0.196942 -0.331362,-0.477715 -0.381994,-0.678793 -0.04749,-0.188608 -0.06374,-0.484297 -0.03611,-0.657087 0.02763,-0.172791 0.157085,-0.472077 0.287677,-0.6650821 0.141325,-0.208865 0.376708,-0.425338 0.581478,-0.5347608 0.315188,-0.16842797 0.404938,-0.18030097 1.070336,-0.14158797 0.399465,0.02324 1.10474,0.09738 1.567278,0.16475977 0.462538,0.06738 1.236621,0.22609 1.720184,0.352697 0.483562,0.126606 1.193056,0.3784011 1.576652,0.5595451 0.383595,0.181143 0.90629,0.471174 1.161543,0.644513 0.255253,0.173339 0.689732,0.540797 0.965508,0.816574 0.275777,0.2757759 0.634337,0.6972709 0.796801,0.9366549 0.162464,0.239384 0.433558,0.710474 0.60243,1.046865 0.168872,0.336391 0.393088,0.88685 0.498257,1.223242 0.10517,0.336391 0.266896,0.947056 0.359393,1.357033 0.114192,0.506138 0.202397,0.745413 0.274784,0.745413 0.05864,0 0.442852,-0.126183 0.853816,-0.280407 0.410964,-0.154224 1.07185,-0.378091 1.468635,-0.497481 0.396785,-0.11939 0.797831,-0.267134 0.891213,-0.32832 0.09338,-0.06119 0.227707,-0.285635 0.298501,-0.498776 0.07079,-0.213141 0.215934,-0.491181 0.322533,-0.617866 0.106599,-0.126686 0.329456,-0.299536 0.495238,-0.384112 0.165782,-0.08458 0.469846,-0.173721 0.675696,-0.198101 0.309143,-0.03661 0.448383,-0.0081 0.800142,0.16403 0.318089,0.155627 0.492926,0.307933 0.690834,0.60181 0.145731,0.216398 0.264966,0.449477 0.264966,0.517954 0,0.06848 0.06923,0.212509 0.153837,0.320074 0.08461,0.107564 0.265229,0.219493 0.401376,0.248731 0.136146,0.02924 0.860129,0.259311 1.608849,0.511275 0.74872,0.251965 1.37517,0.444263 1.3921,0.427329 0.0169,-0.01693 0.15507,-0.521341 0.30697,-1.120908 0.1519,-0.599567 0.39121,-1.37545 0.5318,-1.724185 0.14059,-0.348735 0.40478,-0.886789 0.58707,-1.195675 0.1823,-0.308887 0.60668,-0.840608 0.94307,-1.1816029 0.33639,-0.340996 0.8764,-0.784104 1.20001,-0.984685 0.32361,-0.200581 0.87407,-0.485435 1.22324,-0.63301 0.34917,-0.147574 0.94449,-0.3519241 1.32293,-0.4541121 0.37844,-0.102188 1.07588,-0.25363 1.54987,-0.336538 0.47399,-0.08291 1.18698,-0.17360077 1.58441,-0.20153677 0.585,-0.04112 0.78735,-0.02607 1.0626,0.07905 0.192,0.07333 0.47459,0.27587377 0.64924,0.46534077 0.17009,0.184524 0.33147,0.4240381 0.35863,0.5322531 0.0272,0.108214 0.0363,0.428976 0.0202,0.712802 -0.0238,0.422162 -0.0685,0.567667 -0.24556,0.799761 -0.11954,0.1567369 -0.39261,0.3685089 -0.61013,0.4731819 -0.30443,0.14649 -0.65282,0.217273 -1.53586,0.312039 -0.62817,0.06741 -1.40743,0.1729 -1.73171,0.234413 -0.32427,0.06151 -0.77439,0.175427 -1.00027,0.25314 -0.22588,0.07771 -0.58927,0.231789 -0.80752,0.34239 -0.21826,0.1106 -0.52456,0.312968 -0.68065,0.449705 -0.1561,0.136737 -0.37977,0.399631 -0.49704,0.584209 -0.11728,0.184577 -0.29921,0.597422 -0.40429,0.917431 -0.10508,0.32001 -0.25985,0.925872 -0.34394,1.346362 -0.0841,0.420489 -0.20696,1.204516 -0.27305,1.7422822 -0.0661,0.537765 -0.0947,1.019417 -0.0637,1.070336 0.0311,0.05092 0.30018,0.385012 0.59807,0.742428 0.29788,0.357416 0.71689,0.890673 0.93112,1.185015 0.21424,0.294343 0.55117,0.78635 0.74875,1.093348 0.19757,0.306999 0.56171,0.97787 0.8092,1.490826 0.24748,0.512956 0.53583,1.259481 0.64076,1.658946 0.10494,0.399465 0.23045,1.035933 0.27892,1.414373 0.0485,0.37844 0.0897,1.358945 0.0916,2.178899 0.002,0.827872 -0.0562,2.165313 -0.13085,3.007586 l -0.13434,1.516761 2.24795,2.267643 c 1.23638,1.247204 2.57635,2.663286 2.97772,3.146849 0.40137,0.483563 0.9695,1.20604 1.26252,1.605505 0.29301,0.399464 0.82698,1.156345 1.1866,1.681957 0.35961,0.525612 0.95448,1.454512 1.32194,2.064222 0.36745,0.60971 0.98807,1.76223 1.37914,2.56116 0.39108,0.79893 0.86447,1.86544 1.05198,2.37003 0.1875,0.50459 0.44782,1.29587 0.57848,1.75841 0.13066,0.46254 0.3038,1.16782 0.38474,1.56728 0.0809,0.39946 0.19338,1.05313 0.24987,1.4526 0.0647,0.4576 0.10269,1.46169 0.10269,2.71407 0,1.22882 -0.0385,2.26507 -0.10093,2.71406 -0.0555,0.39947 -0.18718,1.11793 -0.29261,1.59658 -0.10542,0.47865 -0.31239,1.21833 -0.45994,1.64373 -0.14755,0.4254 -0.36895,0.96268 -0.492,1.19395 -0.12306,0.23126 -0.37841,0.62691 -0.56744,0.8792 -0.18903,0.25229 -0.66155,0.78007 -1.05003,1.17283 -0.38849,0.39277 -0.97807,0.91967 -1.31018,1.17089 -0.3321,0.25122 -0.93416,0.62209 -1.33792,0.82415 -0.40375,0.20206 -1.00357,0.45748 -1.33294,0.56762 -0.32937,0.11013 -0.90955,0.23801 -1.28931,0.28419 -0.49989,0.0608 -0.99927,0.061 -1.8094,6.9e-4 -0.61543,-0.0458 -1.24625,-0.10463 -1.40184,-0.13078 -0.25312,-0.0425 -0.2873,-0.0284 -0.32481,0.13388 -0.0231,0.0998 -0.12757,0.62865 -0.23224,1.17529 -0.10466,0.54663 -0.31015,1.4142 -0.45663,1.92792 -0.14649,0.51372 -0.39109,1.27061 -0.54356,1.68196 -0.15247,0.41135 -0.3977,0.96603 -0.54494,1.23261 -0.14724,0.26659 -0.53522,0.81705 -0.86216,1.22325 -0.32694,0.40619 -0.98885,1.12041 -1.4709,1.58714 -0.48205,0.46673 -1.28625,1.1892 -1.78712,1.6055 -0.50086,0.4163 -1.3063,1.04885 -1.78986,1.40567 -0.48357,0.35683 -1.51568,1.07237 -2.29358,1.59011 -0.777906,0.51774 -1.690204,1.07894 -2.02733,1.24713 -0.413417,0.20624 -0.749405,0.31742 -1.03211,0.34153 -0.251893,0.0215 -0.52906,-0.005 -0.694576,-0.0673 z m -13.259481,-18.3989 c 0.334856,-0.0864 0.988526,-0.3409 1.4526,-0.5656 0.464074,-0.22471 1.132999,-0.61686 1.4865,-0.87146 0.353501,-0.25459 0.94572,-0.74232 1.316041,-1.08384 0.370322,-0.34152 0.969127,-0.9724 1.330677,-1.40197 0.361552,-0.42956 0.978599,-1.26267 1.371218,-1.85135 0.392619,-0.58869 0.898164,-1.41438 1.123433,-1.83487 0.225269,-0.42048 0.576794,-1.12185 0.781167,-1.55859 0.204372,-0.43673 0.54192,-1.24522 0.750106,-1.79663 0.208186,-0.55142 0.527703,-1.51863 0.710037,-2.14936 0.182335,-0.63074 0.436256,-1.62844 0.56427,-2.21713 0.128014,-0.58868 0.319398,-1.55199 0.425296,-2.14067 0.105899,-0.58869 0.245448,-1.42388 0.31011,-1.85599 0.06466,-0.43211 0.16901,-1.32661 0.231883,-1.98777 0.06538,-0.68749 0.151792,-3.002228 0.201859,-5.407007 0.05871,-2.819804 0.06321,-4.633484 0.01368,-5.506021 -0.04063,-0.71562 -0.1067,-1.359799 -0.146831,-1.431508 -0.06438,-0.115035 -0.279702,-0.02158 -1.829442,0.793992 -0.966062,0.508405 -2.232227,1.196493 -2.813699,1.529084 -0.581473,0.332591 -1.446301,0.863828 -1.921842,1.180527 -0.475541,0.316699 -1.238323,0.874217 -1.695072,1.238931 -0.456748,0.364712 -1.435109,1.265815 -2.174134,2.002449 -0.739026,0.736634 -1.6976,1.752179 -2.130165,2.256766 -0.432565,0.504588 -1.121572,1.364679 -1.531125,1.911316 -0.409554,0.546641 -0.984833,1.355121 -1.278397,1.796641 -0.293564,0.44151 -0.763165,1.19035 -1.043557,1.66408 -0.280391,0.47373 -0.780717,1.40263 -1.111833,2.06422 -0.331117,0.66159 -0.722557,1.49532 -0.869866,1.85274 -0.147309,0.35741 -0.389743,1.02828 -0.538742,1.49082 -0.148999,0.46254 -0.341703,1.21942 -0.428231,1.68196 -0.08653,0.46254 -0.192371,1.19726 -0.235206,1.63272 -0.04283,0.43545 -0.07728,1.38155 -0.07656,2.10244 7.27e-4,0.72089 0.03519,1.63755 0.07658,2.03701 0.04139,0.39947 0.1307,1.00153 0.198466,1.33792 0.06777,0.33639 0.226241,0.89673 0.352168,1.2452 0.125926,0.34846 0.40195,0.89857 0.613387,1.22246 0.211436,0.32389 0.611962,0.81409 0.890059,1.08933 0.278096,0.27525 0.709613,0.63417 0.958925,0.7976 0.249312,0.16343 0.695776,0.39902 0.992142,0.52354 0.296366,0.12452 0.780457,0.27266 1.075757,0.32921 0.322236,0.0617 0.827308,0.0894 1.26321,0.0693 0.399465,-0.0184 1.000272,-0.10414 1.335127,-0.19052 z m 30.602098,0.0333 c 0.2843,-0.0688 0.79213,-0.26016 1.12852,-0.42518 0.33639,-0.16502 0.83435,-0.48115 1.10657,-0.7025 0.27222,-0.22136 0.67782,-0.62519 0.90133,-0.89741 0.22351,-0.27222 0.59339,-0.87338 0.82196,-1.33592 0.2441,-0.49397 0.47897,-1.10899 0.5692,-1.49049 0.0845,-0.35723 0.19301,-1.09491 0.24114,-1.6393 0.0526,-0.59533 0.0714,-1.70756 0.0471,-2.79086 -0.0256,-1.13929 -0.0845,-2.03984 -0.16048,-2.45091 -0.066,-0.35742 -0.22591,-1.02582 -0.35531,-1.48533 -0.12939,-0.45952 -0.42662,-1.31961 -0.66051,-1.91132 -0.23389,-0.59171 -0.67883,-1.58435 -0.98876,-2.20586 -0.30992,-0.62152 -0.80146,-1.53322 -1.09231,-2.026 -0.29084,-0.49278 -0.8355,-1.35152 -1.21035,-1.90832 -0.37485,-0.5568 -0.99736,-1.42066 -1.38334,-1.919679 -0.38599,-0.499017 -1.02411,-1.281985 -1.41805,-1.739925 -0.39394,-0.457941 -1.14145,-1.258682 -1.66114,-1.779425 -0.51968,-0.520743 -1.2728,-1.228532 -1.67358,-1.572865 -0.40079,-0.344332 -1.00493,-0.834326 -1.34255,-1.088876 -0.33761,-0.25455 -1.00848,-0.721465 -1.49082,-1.037589 -0.48234,-0.316124 -1.34144,-0.841395 -1.9091,-1.167268 -0.56766,-0.325873 -1.76508,-0.969805 -2.66093,-1.430959 -0.895852,-0.461154 -1.647074,-0.82021 -1.669382,-0.797902 -0.02231,0.02231 -0.07074,0.481999 -0.107634,1.021535 -0.03689,0.539535 -0.06732,1.823864 -0.06762,2.854063 -3.06e-4,1.030199 0.03093,3.08217 0.0694,4.559936 0.03847,1.477767 0.108281,3.129144 0.15514,3.669724 0.04686,0.54058 0.171022,1.55054 0.275917,2.24435 0.104896,0.6938 0.278013,1.74312 0.384704,2.3318 0.106692,0.58869 0.292715,1.50676 0.413385,2.04016 0.12067,0.53341 0.34206,1.40516 0.49199,1.93724 0.14992,0.53207 0.42807,1.39634 0.61811,1.9206 0.19003,0.52425 0.5144,1.32107 0.72082,1.77071 0.20642,0.44964 0.58728,1.21317 0.84636,1.69674 0.25908,0.48356 0.75504,1.30925 1.10213,1.83486 0.3471,0.52561 0.86745,1.24809 1.15634,1.6055 0.28888,0.35742 0.76526,0.90255 1.05861,1.2114 0.29335,0.30885 0.79251,0.77736 1.10925,1.04112 0.31674,0.26376 0.87333,0.67316 1.23687,0.90978 0.36354,0.23662 0.8913,0.53355 1.17278,0.65984 0.28149,0.1263 0.74093,0.29893 1.02097,0.38362 0.28005,0.0847 0.7156,0.18602 0.96789,0.22516 0.2523,0.0391 0.74217,0.0576 1.0886,0.041 0.34644,-0.0166 0.8625,-0.0864 1.14679,-0.15527 z M 74.413845,22.699674 c 0.682441,-0.379685 2.221307,-1.184125 3.419701,-1.787644 1.198395,-0.603519 2.505734,-1.22747 2.905199,-1.386557 0.608324,-0.242267 0.819439,-0.28974 1.299694,-0.292265 0.406776,-0.0021 0.728906,0.0494 1.108563,0.177378 0.294343,0.09922 1.653288,0.741185 3.019878,1.426598 1.36659,0.685413 3.0106,1.540195 3.65337,1.899516 0.64276,0.35932 1.19873,0.65331 1.23549,0.65331 0.0368,0 0.0915,-0.296027 0.12163,-0.657836 0.0301,-0.361811 0.0363,-1.316513 0.0137,-2.12156 -0.0311,-1.106768 -0.0787,-1.612879 -0.19522,-2.075345 -0.0848,-0.336391 -0.27569,-0.899709 -0.42425,-1.251818 -0.14857,-0.352109 -0.41376,-0.885366 -0.58932,-1.185015 -0.17556,-0.29965 -0.50978,-0.802846 -0.74271,-1.118213 -0.23293,-0.315367 -0.77015,-0.917431 -1.19383,-1.337921 -0.42368,-0.420489 -1.08994,-0.982386 -1.48058,-1.24866 -0.39064,-0.266273 -1.02916,-0.635198 -1.418922,-0.819831 -0.389764,-0.184633 -1.085056,-0.428688 -1.545091,-0.542344 -0.614484,-0.151815 -1.02915,-0.206491 -1.562728,-0.206055 -0.5296,4.59e-4 -0.943704,0.05524 -1.529052,0.20236 -0.510147,0.128223 -1.113056,0.355273 -1.654062,0.622907 -0.46822,0.231627 -1.139092,0.633799 -1.490826,0.893715 -0.351733,0.259917 -0.96635,0.803355 -1.365815,1.207641 -0.399465,0.404285 -0.881116,0.949056 -1.070336,1.210602 -0.189221,0.261545 -0.523179,0.770795 -0.742131,1.131666 -0.218952,0.36087 -0.506119,0.936244 -0.638148,1.278608 -0.132029,0.342364 -0.308233,0.881568 -0.391564,1.19823 -0.10286,0.390877 -0.165163,0.94398 -0.194033,1.722538 -0.02339,0.630734 -0.01722,1.585436 0.01372,2.12156 0.03093,0.536124 0.08788,0.974771 0.126547,0.974771 0.03867,0 0.628668,-0.310652 1.311109,-0.690336 z"
       id="path5905"
       sodipodi:nodetypes="csssssssssscsccssssssssssssssssssscsssssssscssssssssssssssssssssssssssssssscssssscsscsssssscccccccsscccscccccccccccccscccccsccscsscsssssccccssssssssssccccsssssssssssssscssssssssssssssssssssssssccccsssscccccsccscscccsssssssssssssssscssssscsccssscssssccccsssssscssssssssscsss" />
  </g>
</svg>
