<?xml version="1.0" encoding="UTF-8" standalone="no"?>
<!-- Created with Inkscape (http://www.inkscape.org/) -->

<svg
   width="49.798786mm"
   height="74.890213mm"
   viewBox="0 0 49.798786 74.890213"
   version="1.1"
   id="svg5"
   inkscape:version="1.1 (1:1.1+202105261517+ce6663b3b7)"
   sodipodi:docname="shape_bee3.svg"
   xmlns:inkscape="http://www.inkscape.org/namespaces/inkscape"
   xmlns:sodipodi="http://sodipodi.sourceforge.net/DTD/sodipodi-0.dtd"
   xmlns:xlink="http://www.w3.org/1999/xlink"
   xmlns="http://www.w3.org/2000/svg"
   xmlns:svg="http://www.w3.org/2000/svg">
  <sodipodi:namedview
     id="namedview7"
     pagecolor="#ffffff"
     bordercolor="#666666"
     borderopacity="1.0"
     inkscape:pageshadow="2"
     inkscape:pageopacity="0.0"
     inkscape:pagecheckerboard="0"
     inkscape:document-units="mm"
     showgrid="false"
     inkscape:zoom="32"
     inkscape:cx="37.390625"
     inkscape:cy="74.546875"
     inkscape:current-layer="layer1"
     fit-margin-top="0"
     fit-margin-left="0"
     fit-margin-right="0"
     fit-margin-bottom="0"
     showguides="true"
     inkscape:guide-bbox="true">
    <sodipodi:guide
       position="25,-0.10978699"
       orientation="-1,0"
       id="guide3816"
       inkscape:label=""
       inkscape:locked="true"
       inkscape:color="rgb(0,0,255)" />
    <sodipodi:guide
       position="15.88068,52.288462"
       orientation="0,-1"
       id="guide3951" />
    <sodipodi:guide
       position="16,52.890214"
       orientation="-1,0"
       id="guide3972"
       inkscape:label=""
       inkscape:locked="false"
       inkscape:color="rgb(0,0,255)" />
    <sodipodi:guide
       position="34,52.890214"
       orientation="-1,0"
       id="guide3974"
       inkscape:label=""
       inkscape:locked="false"
       inkscape:color="rgb(0,0,255)" />
    <sodipodi:guide
       position="23,51.890214"
       orientation="-1,0"
       id="guide4720"
       inkscape:label=""
       inkscape:locked="false"
       inkscape:color="rgb(0,0,255)" />
    <sodipodi:guide
       position="27,51.890214"
       orientation="-1,0"
       id="guide6836"
       inkscape:label=""
       inkscape:locked="false"
       inkscape:color="rgb(0,0,255)" />
  </sodipodi:namedview>
  <defs
     id="defs2" />
  <g
     inkscape:label="Layer 1"
     inkscape:groupmode="layer"
     id="layer1"
     transform="translate(-57.162672,-0.80584378)"
     style="display:inline">
    <path
       id="path2189-3"
       style="display:inline;fill:none;fill-opacity:1;stroke:#ff0000;stroke-width:0.100042;stroke-linecap:butt;stroke-linejoin:round;stroke-miterlimit:4;stroke-dasharray:none;stroke-opacity:1"
       d="m 82.162669,75.755823 c -2.266015,0 -12.463595,-5.457423 -13.19415,-15.101331 -13.419226,1.023395 -11.682191,-12.831785 -11.682191,-12.831785 0,0 -1.726934,-8.809031 12.666841,-22.33572 0,0 -1.908413,-9.404591 3.911125,-14.328126 C 73.435315,4.0996068 70.857896,4.727884 66.622329,4.0405005 65.738169,3.7789764 65.395751,2.9334076 65.578539,2.1403118 65.758645,1.3589048 66.359685,0.81144275 67.32384,0.85865261 67.767932,0.94225529 75.696045,0.52145054 77.01619,8.7519564 78.361905,8.2337615 79.316152,7.964917 80.305878,7.6308546 80.883017,6.121991 81.376849,5.9875517 82.162669,5.925341 m 0,69.830482 c 2.266014,0 12.463616,-5.457423 13.19415,-15.101331 13.419231,1.023395 11.682201,-12.831785 11.682201,-12.831785 0,0 1.72693,-8.809031 -12.666852,-22.33572 0,0 1.908415,-9.404591 -3.911124,-14.328126 0.428979,-7.0592542 3.006398,-6.430977 7.241965,-7.1183605 0.88416,-0.2615241 1.226588,-1.1070929 1.04379,-1.9001887 C 98.566703,1.3589048 97.965655,0.81144275 97.001508,0.85865261 96.557406,0.94225574 88.629303,0.52145054 87.309158,8.7519564 85.963433,8.2337615 85.009186,7.964917 84.019461,7.6308546 83.442321,6.121991 82.948489,5.9875517 82.162669,5.925341" />
    <path
       id="path3813"
       style="display:inline;fill:none;fill-opacity:1;stroke:#00ff00;stroke-width:0.9;stroke-linecap:butt;stroke-linejoin:round;stroke-miterlimit:4;stroke-dasharray:none;stroke-opacity:1"
       d="m 67.041016,1.3945312 c -1.14593,0.022995 -1.350342,1.974387 -0.196015,2.1436486 2.030042,0.3665014 4.465385,0.2527045 5.936007,1.9564497 1.275771,1.5677139 1.456591,3.6859291 1.61157,5.6245115 -0.273613,0.784741 -1.131901,1.168092 -1.564453,1.873047 -1.630198,2.098158 -2.349139,4.624279 -2.574219,7.228515 -0.125211,1.650018 -0.08593,3.480455 0.220703,5.175781 -0.245539,0.880059 -1.184244,1.318094 -1.738028,2.009286 -4.213648,4.252333 -8.122515,9.067767 -10.112207,14.789155 -0.627862,1.866929 -1.00949,3.780149 -0.81814,5.769971 -0.263049,3.439231 0.359553,7.26258 2.885172,9.798776 2.150867,2.118536 5.351369,2.60364 8.246094,2.363281 0.600631,0.278296 0.633071,0.851062 0.665366,1.434494 0.762503,5.212208 4.504894,9.527587 8.9069,12.174881 1.190466,0.645854 2.429724,1.426305 3.816406,1.478516 2.300969,-0.513674 4.302429,-1.902748 6.128906,-3.339844 3.417068,-2.784576 6.06327,-6.794761 6.376953,-11.277344 0.378808,-0.561872 0.968525,-0.467527 1.556104,-0.42474 2.965526,0.12254 6.213855,-0.803797 8.025435,-3.301501 1.9537,-2.615761 2.32858,-6.041069 2.11377,-9.205399 0.22402,-2.960329 -0.79958,-5.789004 -2.05671,-8.44521 C 101.94331,34.107673 98.115245,29.768618 94.005859,25.867188 93.706931,25.074095 94.130387,24.2193 94.089848,23.386003 94.311176,19.699115 93.765769,15.837192 91.41212,12.888377 90.99684,12.226606 90.181809,11.869088 89.933594,11.119141 90.109598,8.9514366 90.316995,6.4220537 92.123047,4.9394531 93.746518,3.7159069 95.901253,3.9231356 97.769531,3.4433594 98.753971,2.8954895 98.138183,1.1790229 97.017578,1.3886719 94.338381,1.4138005 91.269986,2.3143718 89.551407,4.6209946 88.596986,5.8366371 88.076474,7.3393199 87.828125,8.8515625 87.323539,9.3492458 86.767283,9.2014934 86.199219,8.90625 85.362973,8.5453367 84.368749,8.4622458 83.634875,7.9314472 83.264391,7.3633393 83.045921,6.3870634 82.162109,6.4570312 81.303249,6.3918479 81.052924,7.3230735 80.721391,7.9037103 80.048678,8.4509579 79.085518,8.4989248 78.295224,8.8492651 77.741939,9.005301 77.172556,9.4698426 76.676584,8.9533389 76.252296,8.644122 76.42381,7.904774 76.181641,7.4394531 75.507154,4.8785567 73.484826,2.7548889 70.951006,1.9796276 69.654248,1.5500962 68.353044,1.396463 67.041016,1.3945312 Z" />
    <path
       style="fill:none;stroke:#000000;stroke-width:1;stroke-linecap:butt;stroke-linejoin:round;stroke-opacity:1;stroke-miterlimit:4;stroke-dasharray:none"
       d="m 73.162672,23.407595 c 0,0 6.383852,-4.109431 8.999999,-4.109431 2.616147,0 9.000001,4.109431 9.000001,4.109431 0,0 1.10228,-12.500783 -9.000001,-12.500783 -10.102281,0 -8.999999,12.500783 -8.999999,12.500783 z"
       id="path3869"
       sodipodi:nodetypes="czczc" />
    <path
       style="fill:none;stroke:#000000;stroke-width:1;stroke-linecap:butt;stroke-linejoin:round;stroke-opacity:1;stroke-miterlimit:4;stroke-dasharray:none"
       d="m 60.57318,50.635767 c -1.132477,-9.138109 8.163401,-23.229997 19.589492,-27.228172 0,7.82831 0.101016,16.665021 -2.820823,24.309233 -4.179177,10.933701 -15.463808,13.448033 -16.768669,2.918939 z"
       id="path4965"
       sodipodi:nodetypes="scss" />
    <use
       x="0"
       y="0"
       xlink:href="#path4965"
       id="use6834"
       transform="matrix(-1,0,0,1,164.32534,3.9176589e-7)"
       width="100%"
       height="100%" />
  </g>
  <g
     inkscape:groupmode="layer"
     id="layer2"
     inkscape:label="Layer 2"
     sodipodi:insensitive="true"
     style="display:none" />
</svg>
