  0
SECTION
  2
HEADER
  9
$ACADVER
  1
AC1014
  9
$HANDSEED
  5
FFFF
  9
$MEASUREMENT
 70
     1
  0
ENDSEC
  0
SECTION
  2
TABLES
  0
TABLE
  2
VPORT
  5
8
330
0
100
AcDbSymbolTable
 70
     4
  0
VPORT
  5
2E
330
8
100
AcDbSymbolTableRecord
100
AcDbViewportTableRecord
  2
*ACTIVE
 70
     0
 10
0.0
 20
0.0
 11
1.0
 21
1.0
 12
210.0
 22
148.5
 13
0.0
 23
0.0
 14
10.0
 24
10.0
 15
10.0
 25
10.0
 16
0.0
 26
0.0
 36
1.0
 17
0.0
 27
0.0
 37
0.0
 40
341.0
 41
1.24
 42
50.0
 43
0.0
 44
0.0
 50
0.0
 51
0.0
 71
     0
 72
   100
 73
     1
 74
     3
 75
     0
 76
     0
 77
     0
 78
     0
  0
ENDTAB
  0
TABLE
  2
LTYPE
  5
5
330
0
100
AcDbSymbolTable
 70
     1
  0
LTYPE
  5
14
330
5
100
AcDbSymbolTableRecord
100
AcDbLinetypeTableRecord
  2
BYBLOCK
 70
     0
  3

 72
    65
 73
     0
 40
0.0
  0
LTYPE
  5
15
330
5
100
AcDbSymbolTableRecord
100
AcDbLinetypeTableRecord
  2
BYLAYER
 70
     0
  3

 72
    65
 73
     0
 40
0.0
  0
LTYPE
  5
16
330
5
100
AcDbSymbolTableRecord
100
AcDbLinetypeTableRecord
  2
CONTINUOUS
 70
     0
  3
Solid line
 72
    65
 73
     0
 40
0.0
  0
ENDTAB
  0
TABLE
  2
LAYER
  5
2
100
AcDbSymbolTable
 70
2
  0
LAYER
  5
50
100
AcDbSymbolTableRecord
100
AcDbLayerTableRecord
  2
0
 70
0
  6
CONTINUOUS
  0
LAYER
  5
51
100
AcDbSymbolTableRecord
100
AcDbLayerTableRecord
  2
Layer_1
 70
0
  6
CONTINUOUS
  0
ENDTAB
  0
TABLE
  2
STYLE
  5
3
330
0
100
AcDbSymbolTable
 70
     1
  0
STYLE
  5
11
330
3
100
AcDbSymbolTableRecord
100
AcDbTextStyleTableRecord
  2
STANDARD
 70
     0
 40
0.0
 41
1.0
 50
0.0
 71
     0
 42
2.5
  3
txt
  4

  0
ENDTAB
  0
TABLE
  2
VIEW
  5
6
330
0
100
AcDbSymbolTable
 70
     0
  0
ENDTAB
  0
TABLE
  2
UCS
  5
7
330
0
100
AcDbSymbolTable
 70
     0
  0
ENDTAB
  0
TABLE
  2
APPID
  5
9
330
0
100
AcDbSymbolTable
 70
     2
  0
APPID
  5
12
330
9
100
AcDbSymbolTableRecord
100
AcDbRegAppTableRecord
  2
ACAD
 70
     0
  0
ENDTAB
  0
TABLE
  2
DIMSTYLE
  5
A
330
0
100
AcDbSymbolTable
 70
     1
  0
DIMSTYLE
105
27
330
A
100
AcDbSymbolTableRecord
100
AcDbDimStyleTableRecord
  2
ISO-25
 70
     0
  3

  4

  5

  6

  7

 40
1.0
 41
2.5
 42
0.625
 43
3.75
 44
1.25
 45
0.0
 46
0.0
 47
0.0
 48
0.0
140
2.5
141
2.5
142
0.0
143
0.03937007874016
144
1.0
145
0.0
146
1.0
147
0.625
 71
     0
 72
     0
 73
     0
 74
     0
 75
     0
 76
     0
 77
     1
 78
     8
170
     0
171
     3
172
     1
173
     0
174
     0
175
     0
176
     0
177
     0
178
     0
270
     2
271
     2
272
     2
273
     2
274
     3
340
11
275
     0
280
     0
281
     0
282
     0
283
     0
284
     8
285
     0
286
     0
287
     3
288
     0
  0
ENDTAB
  0
TABLE
  2
BLOCK_RECORD
  5
1
330
0
100
AcDbSymbolTable
 70
     1
  0
BLOCK_RECORD
  5
1F
330
1
100
AcDbSymbolTableRecord
100
AcDbBlockTableRecord
  2
*MODEL_SPACE
  0
BLOCK_RECORD
  5
1B
330
1
100
AcDbSymbolTableRecord
100
AcDbBlockTableRecord
  2
*PAPER_SPACE
  0
ENDTAB
  0
ENDSEC
  0
SECTION
  2
BLOCKS
  0
BLOCK
  5
20
330
1F
100
AcDbEntity
  8
0
100
AcDbBlockBegin
  2
*MODEL_SPACE
 70
     0
 10
0.0
 20
0.0
 30
0.0
  3
*MODEL_SPACE
  1

  0
ENDBLK
  5
21
330
1F
100
AcDbEntity
  8
0
100
AcDbBlockEnd
  0
BLOCK
  5
1C
330
1B
100
AcDbEntity
 67
     1
  8
0
100
AcDbBlockBegin
  2
*PAPER_SPACE
  1

  0
ENDBLK
  5
1D
330
1B
100
AcDbEntity
 67
     1
  8
0
100
AcDbBlockEnd
  0
ENDSEC
  0
SECTION
  2
ENTITIES
  0
SPLINE
  5
100
100
AcDbEntity
  8
Layer_1
 62
7
100
AcDbSpline
 70
8
 71
3
 72
8
 73
4
 74
0
 40
0
 40
0
 40
0
 40
0
 40
1
 40
1
 40
1
 40
1
 10
39.335686
 20
74.370400
 30
0.0
 10
36.718185
 20
74.129880
 30
0.0
 10
33.798303
 20
73.458538
 30
0.0
 10
32.184898
 20
71.188091
 30
0.0
  0
SPLINE
  5
101
100
AcDbEntity
  8
Layer_1
 62
7
100
AcDbSpline
 70
8
 71
3
 72
8
 73
4
 74
0
 40
0
 40
0
 40
0
 40
0
 40
1
 40
1
 40
1
 40
1
 10
32.184898
 20
71.188091
 30
0.0
 10
31.167971
 20
69.800649
 30
0.0
 10
30.942988
 20
68.055979
 30
0.0
 10
30.431388
 20
66.456336
 30
0.0
  0
SPLINE
  5
102
100
AcDbEntity
  8
Layer_1
 62
7
100
AcDbSpline
 70
8
 71
3
 72
8
 73
4
 74
0
 40
0
 40
0
 40
0
 40
0
 40
1
 40
1
 40
1
 40
1
 10
30.431388
 20
66.456336
 30
0.0
 10
29.118291
 20
66.714765
 30
0.0
 10
27.856610
 20
67.208318
 30
0.0
 10
26.593497
 20
67.632117
 30
0.0
  0
SPLINE
  5
103
100
AcDbEntity
  8
Layer_1
 62
7
100
AcDbSpline
 70
8
 71
3
 72
8
 73
4
 74
0
 40
0
 40
0
 40
0
 40
0
 40
1
 40
1
 40
1
 40
1
 10
26.593497
 20
67.632117
 30
0.0
 10
25.890376
 20
68.006726
 30
0.0
 10
26.001953
 20
69.104571
 30
0.0
 10
25.132558
 20
69.302040
 30
0.0
  0
SPLINE
  5
104
100
AcDbEntity
  8
Layer_1
 62
7
100
AcDbSpline
 70
8
 71
3
 72
8
 73
4
 74
0
 40
0
 40
0
 40
0
 40
0
 40
1
 40
1
 40
1
 40
1
 10
25.132558
 20
69.302040
 30
0.0
 10
24.434592
 20
69.479690
 30
0.0
 10
23.799203
 20
68.916506
 30
0.0
 10
23.659902
 20
68.253211
 30
0.0
  0
SPLINE
  5
105
100
AcDbEntity
  8
Layer_1
 62
7
100
AcDbSpline
 70
8
 71
3
 72
8
 73
4
 74
0
 40
0
 40
0
 40
0
 40
0
 40
1
 40
1
 40
1
 40
1
 10
23.659902
 20
68.253211
 30
0.0
 10
23.236902
 20
67.330477
 30
0.0
 10
21.995105
 20
67.379618
 30
0.0
 10
21.228623
 20
66.996959
 30
0.0
  0
SPLINE
  5
106
100
AcDbEntity
  8
Layer_1
 62
7
100
AcDbSpline
 70
8
 71
3
 72
8
 73
4
 74
0
 40
0
 40
0
 40
0
 40
0
 40
1
 40
1
 40
1
 40
1
 10
21.228623
 20
66.996959
 30
0.0
 10
20.620168
 20
66.893252
 30
0.0
 10
19.902685
 20
66.249586
 30
0.0
 10
19.336517
 20
66.691693
 30
0.0
  0
SPLINE
  5
107
100
AcDbEntity
  8
Layer_1
 62
7
100
AcDbSpline
 70
8
 71
3
 72
8
 73
4
 74
0
 40
0
 40
0
 40
0
 40
0
 40
1
 40
1
 40
1
 40
1
 10
19.336517
 20
66.691693
 30
0.0
 10
18.768951
 20
67.642239
 30
0.0
 10
18.816480
 20
68.853722
 30
0.0
 10
18.273120
 20
69.833429
 30
0.0
  0
SPLINE
  5
108
100
AcDbEntity
  8
Layer_1
 62
7
100
AcDbSpline
 70
8
 71
3
 72
8
 73
4
 74
0
 40
0
 40
0
 40
0
 40
0
 40
1
 40
1
 40
1
 40
1
 10
18.273120
 20
69.833429
 30
0.0
 10
17.404038
 20
72.053266
 30
0.0
 10
15.258511
 20
73.523683
 30
0.0
 10
12.969112
 20
73.963157
 30
0.0
  0
SPLINE
  5
109
100
AcDbEntity
  8
Layer_1
 62
7
100
AcDbSpline
 70
8
 71
3
 72
8
 73
4
 74
0
 40
0
 40
0
 40
0
 40
0
 40
1
 40
1
 40
1
 40
1
 10
12.969112
 20
73.963157
 30
0.0
 10
11.820479
 20
74.184792
 30
0.0
 10
10.608286
 20
74.482032
 30
0.0
 10
9.448614
 20
74.315491
 30
0.0
  0
SPLINE
  5
10a
100
AcDbEntity
  8
Layer_1
 62
7
100
AcDbSpline
 70
8
 71
3
 72
8
 73
4
 74
0
 40
0
 40
0
 40
0
 40
0
 40
1
 40
1
 40
1
 40
1
 10
9.448614
 20
74.315491
 30
0.0
 10
8.607450
 20
73.942866
 30
0.0
 10
8.605717
 20
72.691640
 30
0.0
 10
9.429434
 20
72.292275
 30
0.0
  0
SPLINE
  5
10b
100
AcDbEntity
  8
Layer_1
 62
7
100
AcDbSpline
 70
8
 71
3
 72
8
 73
4
 74
0
 40
0
 40
0
 40
0
 40
0
 40
1
 40
1
 40
1
 40
1
 10
9.429434
 20
72.292275
 30
0.0
 10
11.386788
 20
71.815999
 30
0.0
 10
13.721376
 20
72.050376
 30
0.0
 10
15.300529
 20
70.548134
 30
0.0
  0
SPLINE
  5
10c
100
AcDbEntity
  8
Layer_1
 62
7
100
AcDbSpline
 70
8
 71
3
 72
8
 73
4
 74
0
 40
0
 40
0
 40
0
 40
0
 40
1
 40
1
 40
1
 40
1
 10
15.300529
 20
70.548134
 30
0.0
 10
16.766417
 20
69.056926
 30
0.0
 10
16.786772
 20
66.812375
 30
0.0
 10
17.088390
 20
64.870819
 30
0.0
  0
SPLINE
  5
10d
100
AcDbEntity
  8
Layer_1
 62
7
100
AcDbSpline
 70
8
 71
3
 72
8
 73
4
 74
0
 40
0
 40
0
 40
0
 40
0
 40
1
 40
1
 40
1
 40
1
 10
17.088390
 20
64.870819
 30
0.0
 10
17.288948
 20
64.213978
 30
0.0
 10
16.487422
 20
63.853533
 30
0.0
 10
16.202284
 20
63.337733
 30
0.0
  0
SPLINE
  5
10e
100
AcDbEntity
  8
Layer_1
 62
7
100
AcDbSpline
 70
8
 71
3
 72
8
 73
4
 74
0
 40
0
 40
0
 40
0
 40
0
 40
1
 40
1
 40
1
 40
1
 10
16.202284
 20
63.337733
 30
0.0
 10
14.512438
 20
61.430795
 30
0.0
 10
13.212314
 20
59.086365
 30
0.0
 10
13.032950
 20
56.503210
 30
0.0
  0
SPLINE
  5
10f
100
AcDbEntity
  8
Layer_1
 62
7
100
AcDbSpline
 70
8
 71
3
 72
8
 73
4
 74
0
 40
0
 40
0
 40
0
 40
0
 40
1
 40
1
 40
1
 40
1
 10
13.032950
 20
56.503210
 30
0.0
 10
12.877837
 20
54.445766
 30
0.0
 10
13.054930
 20
52.214598
 30
0.0
 10
13.224356
 20
50.098912
 30
0.0
  0
SPLINE
  5
110
100
AcDbEntity
  8
Layer_1
 62
7
100
AcDbSpline
 70
8
 71
3
 72
8
 73
4
 74
0
 40
0
 40
0
 40
0
 40
0
 40
1
 40
1
 40
1
 40
1
 10
13.224356
 20
50.098912
 30
0.0
 10
10.620661
 20
47.395645
 30
0.0
 10
7.769629
 20
44.876703
 30
0.0
 10
5.729797
 20
41.692612
 30
0.0
  0
SPLINE
  5
111
100
AcDbEntity
  8
Layer_1
 62
7
100
AcDbSpline
 70
8
 71
3
 72
8
 73
4
 74
0
 40
0
 40
0
 40
0
 40
0
 40
1
 40
1
 40
1
 40
1
 10
5.729797
 20
41.692612
 30
0.0
 10
3.316487
 20
38.091235
 30
0.0
 10
1.059113
 20
34.150000
 30
0.0
 10
0.603268
 20
29.760482
 30
0.0
  0
SPLINE
  5
112
100
AcDbEntity
  8
Layer_1
 62
7
100
AcDbSpline
 70
8
 71
3
 72
8
 73
4
 74
0
 40
0
 40
0
 40
0
 40
0
 40
1
 40
1
 40
1
 40
1
 10
0.603268
 20
29.760482
 30
0.0
 10
0.555198
 20
27.603681
 30
0.0
 10
0.341559
 20
25.411614
 30
0.0
 10
0.732900
 20
23.276360
 30
0.0
  0
SPLINE
  5
113
100
AcDbEntity
  8
Layer_1
 62
7
100
AcDbSpline
 70
8
 71
3
 72
8
 73
4
 74
0
 40
0
 40
0
 40
0
 40
0
 40
1
 40
1
 40
1
 40
1
 10
0.732900
 20
23.276360
 30
0.0
 10
1.108119
 20
21.377693
 30
0.0
 10
1.899718
 20
19.506090
 30
0.0
 10
3.372674
 20
18.197963
 30
0.0
  0
SPLINE
  5
114
100
AcDbEntity
  8
Layer_1
 62
7
100
AcDbSpline
 70
8
 71
3
 72
8
 73
4
 74
0
 40
0
 40
0
 40
0
 40
0
 40
1
 40
1
 40
1
 40
1
 10
3.372674
 20
18.197963
 30
0.0
 10
4.650094
 20
16.934829
 30
0.0
 10
6.273508
 20
15.886115
 30
0.0
 10
8.072011
 20
15.610625
 30
0.0
  0
SPLINE
  5
115
100
AcDbEntity
  8
Layer_1
 62
7
100
AcDbSpline
 70
8
 71
3
 72
8
 73
4
 74
0
 40
0
 40
0
 40
0
 40
0
 40
1
 40
1
 40
1
 40
1
 10
8.072011
 20
15.610625
 30
0.0
 10
9.286670
 20
15.509485
 30
0.0
 10
10.512317
 20
15.641725
 30
0.0
 10
11.714591
 20
15.696565
 30
0.0
  0
SPLINE
  5
116
100
AcDbEntity
  8
Layer_1
 62
7
100
AcDbSpline
 70
8
 71
3
 72
8
 73
4
 74
0
 40
0
 40
0
 40
0
 40
0
 40
1
 40
1
 40
1
 40
1
 10
11.714591
 20
15.696565
 30
0.0
 10
12.469258
 20
15.470126
 30
0.0
 10
12.263635
 20
14.442543
 30
0.0
 10
12.494071
 20
13.835267
 30
0.0
  0
SPLINE
  5
117
100
AcDbEntity
  8
Layer_1
 62
7
100
AcDbSpline
 70
8
 71
3
 72
8
 73
4
 74
0
 40
0
 40
0
 40
0
 40
0
 40
1
 40
1
 40
1
 40
1
 10
12.494071
 20
13.835267
 30
0.0
 10
12.987610
 20
11.608152
 30
0.0
 10
13.570723
 20
9.255694
 30
0.0
 10
15.240522
 20
7.591245
 30
0.0
  0
SPLINE
  5
118
100
AcDbEntity
  8
Layer_1
 62
7
100
AcDbSpline
 70
8
 71
3
 72
8
 73
4
 74
0
 40
0
 40
0
 40
0
 40
0
 40
1
 40
1
 40
1
 40
1
 10
15.240522
 20
7.591245
 30
0.0
 10
17.781315
 20
4.812540
 30
0.0
 10
20.926075
 20
2.660410
 30
0.0
 10
24.145651
 20
0.748349
 30
0.0
  0
SPLINE
  5
119
100
AcDbEntity
  8
Layer_1
 62
7
100
AcDbSpline
 70
8
 71
3
 72
8
 73
4
 74
0
 40
0
 40
0
 40
0
 40
0
 40
1
 40
1
 40
1
 40
1
 10
24.145651
 20
0.748349
 30
0.0
 10
25.196376
 20
0.174011
 30
0.0
 10
26.213843
 20
1.163527
 30
0.0
 10
27.085532
 20
1.648367
 30
0.0
  0
SPLINE
  5
11a
100
AcDbEntity
  8
Layer_1
 62
7
100
AcDbSpline
 70
8
 71
3
 72
8
 73
4
 74
0
 40
0
 40
0
 40
0
 40
0
 40
1
 40
1
 40
1
 40
1
 10
27.085532
 20
1.648367
 30
0.0
 10
30.156386
 20
3.650688
 30
0.0
 10
33.225000
 20
5.839246
 30
0.0
 10
35.448970
 20
8.796173
 30
0.0
  0
SPLINE
  5
11b
100
AcDbEntity
  8
Layer_1
 62
7
100
AcDbSpline
 70
8
 71
3
 72
8
 73
4
 74
0
 40
0
 40
0
 40
0
 40
0
 40
1
 40
1
 40
1
 40
1
 10
35.448970
 20
8.796173
 30
0.0
 10
36.486578
 20
10.387515
 30
0.0
 10
36.882622
 20
12.310836
 30
0.0
 10
37.282813
 20
14.091541
 30
0.0
  0
SPLINE
  5
11c
100
AcDbEntity
  8
Layer_1
 62
7
100
AcDbSpline
 70
8
 71
3
 72
8
 73
4
 74
0
 40
0
 40
0
 40
0
 40
0
 40
1
 40
1
 40
1
 40
1
 10
37.282813
 20
14.091541
 30
0.0
 10
37.454374
 20
14.687145
 30
0.0
 10
37.352713
 20
15.826350
 30
0.0
 10
38.259517
 20
15.733674
 30
0.0
  0
SPLINE
  5
11d
100
AcDbEntity
  8
Layer_1
 62
7
100
AcDbSpline
 70
8
 71
3
 72
8
 73
4
 74
0
 40
0
 40
0
 40
0
 40
0
 40
1
 40
1
 40
1
 40
1
 10
38.259517
 20
15.733674
 30
0.0
 10
40.059171
 20
15.495087
 30
0.0
 10
41.995716
 20
15.340568
 30
0.0
 10
43.648478
 20
16.252013
 30
0.0
  0
SPLINE
  5
11e
100
AcDbEntity
  8
Layer_1
 62
7
100
AcDbSpline
 70
8
 71
3
 72
8
 73
4
 74
0
 40
0
 40
0
 40
0
 40
0
 40
1
 40
1
 40
1
 40
1
 10
43.648478
 20
16.252013
 30
0.0
 10
45.422238
 20
17.075225
 30
0.0
 10
46.892488
 20
18.511997
 30
0.0
 10
47.933098
 20
20.149518
 30
0.0
  0
SPLINE
  5
11f
100
AcDbEntity
  8
Layer_1
 62
7
100
AcDbSpline
 70
8
 71
3
 72
8
 73
4
 74
0
 40
0
 40
0
 40
0
 40
0
 40
1
 40
1
 40
1
 40
1
 10
47.933098
 20
20.149518
 30
0.0
 10
49.086219
 20
22.520601
 30
0.0
 10
49.342909
 20
25.206421
 30
0.0
 10
49.247379
 20
27.810601
 30
0.0
  0
SPLINE
  5
120
100
AcDbEntity
  8
Layer_1
 62
7
100
AcDbSpline
 70
8
 71
3
 72
8
 73
4
 74
0
 40
0
 40
0
 40
0
 40
0
 40
1
 40
1
 40
1
 40
1
 10
49.247379
 20
27.810601
 30
0.0
 10
49.281679
 20
32.282594
 30
0.0
 10
47.321348
 20
36.483723
 30
0.0
 10
44.994098
 20
40.199189
 30
0.0
  0
SPLINE
  5
121
100
AcDbEntity
  8
Layer_1
 62
7
100
AcDbSpline
 70
8
 71
3
 72
8
 73
4
 74
0
 40
0
 40
0
 40
0
 40
0
 40
1
 40
1
 40
1
 40
1
 10
44.994098
 20
40.199189
 30
0.0
 10
43.398118
 20
42.754362
 30
0.0
 10
41.509669
 20
45.116775
 30
0.0
 10
39.345401
 20
47.213765
 30
0.0
  0
SPLINE
  5
122
100
AcDbEntity
  8
Layer_1
 62
7
100
AcDbSpline
 70
8
 71
3
 72
8
 73
4
 74
0
 40
0
 40
0
 40
0
 40
0
 40
1
 40
1
 40
1
 40
1
 10
39.345401
 20
47.213765
 30
0.0
 10
38.397769
 20
48.179597
 30
0.0
 10
37.440884
 20
49.136303
 30
0.0
 10
36.489985
 20
50.098914
 30
0.0
  0
SPLINE
  5
123
100
AcDbEntity
  8
Layer_1
 62
7
100
AcDbSpline
 70
8
 71
3
 72
8
 73
4
 74
0
 40
0
 40
0
 40
0
 40
0
 40
1
 40
1
 40
1
 40
1
 10
36.489985
 20
50.098914
 30
0.0
 10
36.703712
 20
52.594066
 30
0.0
 10
36.973886
 20
55.103132
 30
0.0
 10
36.573965
 20
57.610634
 30
0.0
  0
SPLINE
  5
124
100
AcDbEntity
  8
Layer_1
 62
7
100
AcDbSpline
 70
8
 71
3
 72
8
 73
4
 74
0
 40
0
 40
0
 40
0
 40
0
 40
1
 40
1
 40
1
 40
1
 10
36.573965
 20
57.610634
 30
0.0
 10
36.037290
 20
60.243800
 30
0.0
 10
34.368150
 20
62.360146
 30
0.0
 10
32.698965
 20
64.372354
 30
0.0
  0
SPLINE
  5
125
100
AcDbEntity
  8
Layer_1
 62
7
100
AcDbSpline
 70
8
 71
3
 72
8
 73
4
 74
0
 40
0
 40
0
 40
0
 40
0
 40
1
 40
1
 40
1
 40
1
 10
32.698965
 20
64.372354
 30
0.0
 10
32.637525
 20
65.874795
 30
0.0
 10
32.973764
 20
67.383444
 30
0.0
 10
33.360436
 20
68.830528
 30
0.0
  0
SPLINE
  5
126
100
AcDbEntity
  8
Layer_1
 62
7
100
AcDbSpline
 70
8
 71
3
 72
8
 73
4
 74
0
 40
0
 40
0
 40
0
 40
0
 40
1
 40
1
 40
1
 40
1
 10
33.360436
 20
68.830528
 30
0.0
 10
33.691408
 20
70.261086
 30
0.0
 10
34.942901
 20
71.254354
 30
0.0
 10
36.322849
 20
71.599388
 30
0.0
  0
SPLINE
  5
127
100
AcDbEntity
  8
Layer_1
 62
7
100
AcDbSpline
 70
8
 71
3
 72
8
 73
4
 74
0
 40
0
 40
0
 40
0
 40
0
 40
1
 40
1
 40
1
 40
1
 10
36.322849
 20
71.599388
 30
0.0
 10
37.652897
 20
72.061954
 30
0.0
 10
39.134966
 20
71.868708
 30
0.0
 10
40.437247
 20
72.384074
 30
0.0
  0
SPLINE
  5
128
100
AcDbEntity
  8
Layer_1
 62
7
100
AcDbSpline
 70
8
 71
3
 72
8
 73
4
 74
0
 40
0
 40
0
 40
0
 40
0
 40
1
 40
1
 40
1
 40
1
 10
40.437247
 20
72.384074
 30
0.0
 10
41.321593
 20
72.902816
 30
0.0
 10
40.829817
 20
74.430472
 30
0.0
 10
39.811875
 20
74.387968
 30
0.0
  0
SPLINE
  5
129
100
AcDbEntity
  8
Layer_1
 62
7
100
AcDbSpline
 70
8
 71
3
 72
8
 73
4
 74
0
 40
0
 40
0
 40
0
 40
0
 40
1
 40
1
 40
1
 40
1
 10
39.811875
 20
74.387968
 30
0.0
 10
39.652938
 20
74.396108
 30
0.0
 10
39.494419
 20
74.374947
 30
0.0
 10
39.335684
 20
74.370402
 30
0.0
  0
SPLINE
  5
12a
100
AcDbEntity
  8
Layer_1
 62
7
100
AcDbSpline
 70
8
 71
3
 72
8
 73
4
 74
0
 40
0
 40
0
 40
0
 40
0
 40
1
 40
1
 40
1
 40
1
 10
10.969038
 20
18.362662
 30
0.0
 10
11.303894
 20
18.449062
 30
0.0
 10
11.957564
 20
18.703562
 30
0.0
 10
12.421638
 20
18.928262
 30
0.0
  0
SPLINE
  5
12b
100
AcDbEntity
  8
Layer_1
 62
7
100
AcDbSpline
 70
8
 71
3
 72
8
 73
4
 74
0
 40
0
 40
0
 40
0
 40
0
 40
1
 40
1
 40
1
 40
1
 10
12.421638
 20
18.928262
 30
0.0
 10
12.885712
 20
19.152972
 30
0.0
 10
13.554637
 20
19.545122
 30
0.0
 10
13.908138
 20
19.799722
 30
0.0
  0
SPLINE
  5
12c
100
AcDbEntity
  8
Layer_1
 62
7
100
AcDbSpline
 70
8
 71
3
 72
8
 73
4
 74
0
 40
0
 40
0
 40
0
 40
0
 40
1
 40
1
 40
1
 40
1
 10
13.908138
 20
19.799722
 30
0.0
 10
14.261639
 20
20.054312
 30
0.0
 10
14.853859
 20
20.542043
 30
0.0
 10
15.224180
 20
20.883563
 30
0.0
  0
SPLINE
  5
12d
100
AcDbEntity
  8
Layer_1
 62
7
100
AcDbSpline
 70
8
 71
3
 72
8
 73
4
 74
0
 40
0
 40
0
 40
0
 40
0
 40
1
 40
1
 40
1
 40
1
 10
15.224180
 20
20.883563
 30
0.0
 10
15.594502
 20
21.225083
 30
0.0
 10
16.193307
 20
21.855963
 30
0.0
 10
16.554857
 20
22.285533
 30
0.0
  0
SPLINE
  5
12e
100
AcDbEntity
  8
Layer_1
 62
7
100
AcDbSpline
 70
8
 71
3
 72
8
 73
4
 74
0
 40
0
 40
0
 40
0
 40
0
 40
1
 40
1
 40
1
 40
1
 10
16.554857
 20
22.285533
 30
0.0
 10
16.916409
 20
22.715093
 30
0.0
 10
17.533456
 20
23.548203
 30
0.0
 10
17.926075
 20
24.136883
 30
0.0
  0
SPLINE
  5
12f
100
AcDbEntity
  8
Layer_1
 62
7
100
AcDbSpline
 70
8
 71
3
 72
8
 73
4
 74
0
 40
0
 40
0
 40
0
 40
0
 40
1
 40
1
 40
1
 40
1
 10
17.926075
 20
24.136883
 30
0.0
 10
18.318694
 20
24.725573
 30
0.0
 10
18.824239
 20
25.551263
 30
0.0
 10
19.049508
 20
25.971754
 30
0.0
  0
SPLINE
  5
130
100
AcDbEntity
  8
Layer_1
 62
7
100
AcDbSpline
 70
8
 71
3
 72
8
 73
4
 74
0
 40
0
 40
0
 40
0
 40
0
 40
1
 40
1
 40
1
 40
1
 10
19.049508
 20
25.971754
 30
0.0
 10
19.274777
 20
26.392234
 30
0.0
 10
19.626302
 20
27.093604
 30
0.0
 10
19.830675
 20
27.530344
 30
0.0
  0
SPLINE
  5
131
100
AcDbEntity
  8
Layer_1
 62
7
100
AcDbSpline
 70
8
 71
3
 72
8
 73
4
 74
0
 40
0
 40
0
 40
0
 40
0
 40
1
 40
1
 40
1
 40
1
 10
19.830675
 20
27.530344
 30
0.0
 10
20.035047
 20
27.967074
 30
0.0
 10
20.372596
 20
28.775564
 30
0.0
 10
20.580782
 20
29.326974
 30
0.0
  0
SPLINE
  5
132
100
AcDbEntity
  8
Layer_1
 62
7
100
AcDbSpline
 70
8
 71
3
 72
8
 73
4
 74
0
 40
0
 40
0
 40
0
 40
0
 40
1
 40
1
 40
1
 40
1
 10
20.580782
 20
29.326974
 30
0.0
 10
20.788968
 20
29.878394
 30
0.0
 10
21.108485
 20
30.845604
 30
0.0
 10
21.290819
 20
31.476334
 30
0.0
  0
SPLINE
  5
133
100
AcDbEntity
  8
Layer_1
 62
7
100
AcDbSpline
 70
8
 71
3
 72
8
 73
4
 74
0
 40
0
 40
0
 40
0
 40
0
 40
1
 40
1
 40
1
 40
1
 10
21.290819
 20
31.476334
 30
0.0
 10
21.473154
 20
32.107075
 30
0.0
 10
21.727075
 20
33.104775
 30
0.0
 10
21.855089
 20
33.693465
 30
0.0
  0
SPLINE
  5
134
100
AcDbEntity
  8
Layer_1
 62
7
100
AcDbSpline
 70
8
 71
3
 72
8
 73
4
 74
0
 40
0
 40
0
 40
0
 40
0
 40
1
 40
1
 40
1
 40
1
 10
21.855089
 20
33.693465
 30
0.0
 10
21.983103
 20
34.282145
 30
0.0
 10
22.174487
 20
35.245455
 30
0.0
 10
22.280385
 20
35.834135
 30
0.0
  0
SPLINE
  5
135
100
AcDbEntity
  8
Layer_1
 62
7
100
AcDbSpline
 70
8
 71
3
 72
8
 73
4
 74
0
 40
0
 40
0
 40
0
 40
0
 40
1
 40
1
 40
1
 40
1
 10
22.280385
 20
35.834135
 30
0.0
 10
22.386284
 20
36.422825
 30
0.0
 10
22.525833
 20
37.258015
 30
0.0
 10
22.590495
 20
37.690126
 30
0.0
  0
SPLINE
  5
136
100
AcDbEntity
  8
Layer_1
 62
7
100
AcDbSpline
 70
8
 71
3
 72
8
 73
4
 74
0
 40
0
 40
0
 40
0
 40
0
 40
1
 40
1
 40
1
 40
1
 10
22.590495
 20
37.690126
 30
0.0
 10
22.655155
 20
38.122236
 30
0.0
 10
22.759505
 20
39.016736
 30
0.0
 10
22.822378
 20
39.677896
 30
0.0
  0
SPLINE
  5
137
100
AcDbEntity
  8
Layer_1
 62
7
100
AcDbSpline
 70
8
 71
3
 72
8
 73
4
 74
0
 40
0
 40
0
 40
0
 40
0
 40
1
 40
1
 40
1
 40
1
 10
22.822378
 20
39.677896
 30
0.0
 10
22.887758
 20
40.365386
 30
0.0
 10
22.974170
 20
42.680124
 30
0.0
 10
23.024237
 20
45.084904
 30
0.0
  0
SPLINE
  5
138
100
AcDbEntity
  8
Layer_1
 62
7
100
AcDbSpline
 70
8
 71
3
 72
8
 73
4
 74
0
 40
0
 40
0
 40
0
 40
0
 40
1
 40
1
 40
1
 40
1
 10
23.024237
 20
45.084904
 30
0.0
 10
23.082947
 20
47.904708
 30
0.0
 10
23.087447
 20
49.718389
 30
0.0
 10
23.037917
 20
50.590926
 30
0.0
  0
SPLINE
  5
139
100
AcDbEntity
  8
Layer_1
 62
7
100
AcDbSpline
 70
8
 71
3
 72
8
 73
4
 74
0
 40
0
 40
0
 40
0
 40
0
 40
1
 40
1
 40
1
 40
1
 10
23.037917
 20
50.590926
 30
0.0
 10
22.997287
 20
51.306546
 30
0.0
 10
22.931217
 20
51.950725
 30
0.0
 10
22.891086
 20
52.022434
 30
0.0
  0
SPLINE
  5
13a
100
AcDbEntity
  8
Layer_1
 62
7
100
AcDbSpline
 70
8
 71
3
 72
8
 73
4
 74
0
 40
0
 40
0
 40
0
 40
0
 40
1
 40
1
 40
1
 40
1
 10
22.891086
 20
52.022434
 30
0.0
 10
22.826706
 20
52.137469
 30
0.0
 10
22.611384
 20
52.044014
 30
0.0
 10
21.061644
 20
51.228442
 30
0.0
  0
SPLINE
  5
13b
100
AcDbEntity
  8
Layer_1
 62
7
100
AcDbSpline
 70
8
 71
3
 72
8
 73
4
 74
0
 40
0
 40
0
 40
0
 40
0
 40
1
 40
1
 40
1
 40
1
 10
21.061644
 20
51.228442
 30
0.0
 10
20.095581
 20
50.720037
 30
0.0
 10
18.829416
 20
50.031949
 30
0.0
 10
18.247944
 20
49.699358
 30
0.0
  0
SPLINE
  5
13c
100
AcDbEntity
  8
Layer_1
 62
7
100
AcDbSpline
 70
8
 71
3
 72
8
 73
4
 74
0
 40
0
 40
0
 40
0
 40
0
 40
1
 40
1
 40
1
 40
1
 10
18.247944
 20
49.699358
 30
0.0
 10
17.666471
 20
49.366767
 30
0.0
 10
16.801643
 20
48.835529
 30
0.0
 10
16.326102
 20
48.518830
 30
0.0
  0
SPLINE
  5
13d
100
AcDbEntity
  8
Layer_1
 62
7
100
AcDbSpline
 70
8
 71
3
 72
8
 73
4
 74
0
 40
0
 40
0
 40
0
 40
0
 40
1
 40
1
 40
1
 40
1
 10
16.326102
 20
48.518830
 30
0.0
 10
15.850561
 20
48.202131
 30
0.0
 10
15.087779
 20
47.644613
 30
0.0
 10
14.631030
 20
47.279899
 30
0.0
  0
SPLINE
  5
13e
100
AcDbEntity
  8
Layer_1
 62
7
100
AcDbSpline
 70
8
 71
3
 72
8
 73
4
 74
0
 40
0
 40
0
 40
0
 40
0
 40
1
 40
1
 40
1
 40
1
 10
14.631030
 20
47.279899
 30
0.0
 10
14.174281
 20
46.915187
 30
0.0
 10
13.195920
 20
46.014084
 30
0.0
 10
12.456895
 20
45.277450
 30
0.0
  0
SPLINE
  5
13f
100
AcDbEntity
  8
Layer_1
 62
7
100
AcDbSpline
 70
8
 71
3
 72
8
 73
4
 74
0
 40
0
 40
0
 40
0
 40
0
 40
1
 40
1
 40
1
 40
1
 10
12.456895
 20
45.277450
 30
0.0
 10
11.717869
 20
44.540816
 30
0.0
 10
10.759295
 20
43.525271
 30
0.0
 10
10.326730
 20
43.020683
 30
0.0
  0
SPLINE
  5
140
100
AcDbEntity
  8
Layer_1
 62
7
100
AcDbSpline
 70
8
 71
3
 72
8
 73
4
 74
0
 40
0
 40
0
 40
0
 40
0
 40
1
 40
1
 40
1
 40
1
 10
10.326730
 20
43.020683
 30
0.0
 10
9.894165
 20
42.516095
 30
0.0
 10
9.205158
 20
41.656004
 30
0.0
 10
8.795605
 20
41.109367
 30
0.0
  0
SPLINE
  5
141
100
AcDbEntity
  8
Layer_1
 62
7
100
AcDbSpline
 70
8
 71
3
 72
8
 73
4
 74
0
 40
0
 40
0
 40
0
 40
0
 40
1
 40
1
 40
1
 40
1
 10
8.795605
 20
41.109367
 30
0.0
 10
8.386050
 20
40.562726
 30
0.0
 10
7.810771
 20
39.754246
 30
0.0
 10
7.517207
 20
39.312726
 30
0.0
  0
SPLINE
  5
142
100
AcDbEntity
  8
Layer_1
 62
7
100
AcDbSpline
 70
8
 71
3
 72
8
 73
4
 74
0
 40
0
 40
0
 40
0
 40
0
 40
1
 40
1
 40
1
 40
1
 10
7.517207
 20
39.312726
 30
0.0
 10
7.223643
 20
38.871216
 30
0.0
 10
6.754042
 20
38.122376
 30
0.0
 10
6.473650
 20
37.648646
 30
0.0
  0
SPLINE
  5
143
100
AcDbEntity
  8
Layer_1
 62
7
100
AcDbSpline
 70
8
 71
3
 72
8
 73
4
 74
0
 40
0
 40
0
 40
0
 40
0
 40
1
 40
1
 40
1
 40
1
 10
6.473650
 20
37.648646
 30
0.0
 10
6.193259
 20
37.174915
 30
0.0
 10
5.692933
 20
36.246015
 30
0.0
 10
5.361817
 20
35.584425
 30
0.0
  0
SPLINE
  5
144
100
AcDbEntity
  8
Layer_1
 62
7
100
AcDbSpline
 70
8
 71
3
 72
8
 73
4
 74
0
 40
0
 40
0
 40
0
 40
0
 40
1
 40
1
 40
1
 40
1
 10
5.361817
 20
35.584425
 30
0.0
 10
5.030700
 20
34.922835
 30
0.0
 10
4.639260
 20
34.089105
 30
0.0
 10
4.491951
 20
33.731685
 30
0.0
  0
SPLINE
  5
145
100
AcDbEntity
  8
Layer_1
 62
7
100
AcDbSpline
 70
8
 71
3
 72
8
 73
4
 74
0
 40
0
 40
0
 40
0
 40
0
 40
1
 40
1
 40
1
 40
1
 10
4.491951
 20
33.731685
 30
0.0
 10
4.344642
 20
33.374275
 30
0.0
 10
4.102208
 20
32.703405
 30
0.0
 10
3.953209
 20
32.240865
 30
0.0
  0
SPLINE
  5
146
100
AcDbEntity
  8
Layer_1
 62
7
100
AcDbSpline
 70
8
 71
3
 72
8
 73
4
 74
0
 40
0
 40
0
 40
0
 40
0
 40
1
 40
1
 40
1
 40
1
 10
3.953209
 20
32.240865
 30
0.0
 10
3.804210
 20
31.778325
 30
0.0
 10
3.611506
 20
31.021444
 30
0.0
 10
3.524978
 20
30.558904
 30
0.0
  0
SPLINE
  5
147
100
AcDbEntity
  8
Layer_1
 62
7
100
AcDbSpline
 70
8
 71
3
 72
8
 73
4
 74
0
 40
0
 40
0
 40
0
 40
0
 40
1
 40
1
 40
1
 40
1
 10
3.524978
 20
30.558904
 30
0.0
 10
3.438448
 20
30.096364
 30
0.0
 10
3.332607
 20
29.361644
 30
0.0
 10
3.289772
 20
28.926184
 30
0.0
  0
SPLINE
  5
148
100
AcDbEntity
  8
Layer_1
 62
7
100
AcDbSpline
 70
8
 71
3
 72
8
 73
4
 74
0
 40
0
 40
0
 40
0
 40
0
 40
1
 40
1
 40
1
 40
1
 10
3.289772
 20
28.926184
 30
0.0
 10
3.246942
 20
28.490734
 30
0.0
 10
3.212492
 20
27.544634
 30
0.0
 10
3.213212
 20
26.823744
 30
0.0
  0
SPLINE
  5
149
100
AcDbEntity
  8
Layer_1
 62
7
100
AcDbSpline
 70
8
 71
3
 72
8
 73
4
 74
0
 40
0
 40
0
 40
0
 40
0
 40
1
 40
1
 40
1
 40
1
 10
3.213212
 20
26.823744
 30
0.0
 10
3.213939
 20
26.102854
 30
0.0
 10
3.248402
 20
25.186193
 30
0.0
 10
3.289792
 20
24.786733
 30
0.0
  0
SPLINE
  5
14a
100
AcDbEntity
  8
Layer_1
 62
7
100
AcDbSpline
 70
8
 71
3
 72
8
 73
4
 74
0
 40
0
 40
0
 40
0
 40
0
 40
1
 40
1
 40
1
 40
1
 10
3.289792
 20
24.786733
 30
0.0
 10
3.331182
 20
24.387263
 30
0.0
 10
3.420492
 20
23.785203
 30
0.0
 10
3.488258
 20
23.448813
 30
0.0
  0
SPLINE
  5
14b
100
AcDbEntity
  8
Layer_1
 62
7
100
AcDbSpline
 70
8
 71
3
 72
8
 73
4
 74
0
 40
0
 40
0
 40
0
 40
0
 40
1
 40
1
 40
1
 40
1
 10
3.488258
 20
23.448813
 30
0.0
 10
3.556028
 20
23.112423
 30
0.0
 10
3.714499
 20
22.552083
 30
0.0
 10
3.840426
 20
22.203613
 30
0.0
  0
SPLINE
  5
14c
100
AcDbEntity
  8
Layer_1
 62
7
100
AcDbSpline
 70
8
 71
3
 72
8
 73
4
 74
0
 40
0
 40
0
 40
0
 40
0
 40
1
 40
1
 40
1
 40
1
 10
3.840426
 20
22.203613
 30
0.0
 10
3.966352
 20
21.855153
 30
0.0
 10
4.242376
 20
21.305043
 30
0.0
 10
4.453813
 20
20.981153
 30
0.0
  0
SPLINE
  5
14d
100
AcDbEntity
  8
Layer_1
 62
7
100
AcDbSpline
 70
8
 71
3
 72
8
 73
4
 74
0
 40
0
 40
0
 40
0
 40
0
 40
1
 40
1
 40
1
 40
1
 10
4.453813
 20
20.981153
 30
0.0
 10
4.665249
 20
20.657263
 30
0.0
 10
5.065775
 20
20.167063
 30
0.0
 10
5.343872
 20
19.891822
 30
0.0
  0
SPLINE
  5
14e
100
AcDbEntity
  8
Layer_1
 62
7
100
AcDbSpline
 70
8
 71
3
 72
8
 73
4
 74
0
 40
0
 40
0
 40
0
 40
0
 40
1
 40
1
 40
1
 40
1
 10
5.343872
 20
19.891822
 30
0.0
 10
5.621968
 20
19.616572
 30
0.0
 10
6.053485
 20
19.257652
 30
0.0
 10
6.302797
 20
19.094222
 30
0.0
  0
SPLINE
  5
14f
100
AcDbEntity
  8
Layer_1
 62
7
100
AcDbSpline
 70
8
 71
3
 72
8
 73
4
 74
0
 40
0
 40
0
 40
0
 40
0
 40
1
 40
1
 40
1
 40
1
 10
6.302797
 20
19.094222
 30
0.0
 10
6.552109
 20
18.930792
 30
0.0
 10
6.998573
 20
18.695202
 30
0.0
 10
7.294939
 20
18.570682
 30
0.0
  0
SPLINE
  5
150
100
AcDbEntity
  8
Layer_1
 62
7
100
AcDbSpline
 70
8
 71
3
 72
8
 73
4
 74
0
 40
0
 40
0
 40
0
 40
0
 40
1
 40
1
 40
1
 40
1
 10
7.294939
 20
18.570682
 30
0.0
 10
7.591305
 20
18.446162
 30
0.0
 10
8.075396
 20
18.298022
 30
0.0
 10
8.370696
 20
18.241472
 30
0.0
  0
SPLINE
  5
151
100
AcDbEntity
  8
Layer_1
 62
7
100
AcDbSpline
 70
8
 71
3
 72
8
 73
4
 74
0
 40
0
 40
0
 40
0
 40
0
 40
1
 40
1
 40
1
 40
1
 10
8.370696
 20
18.241472
 30
0.0
 10
8.692933
 20
18.179772
 30
0.0
 10
9.198005
 20
18.152072
 30
0.0
 10
9.633907
 20
18.172172
 30
0.0
  0
SPLINE
  5
152
100
AcDbEntity
  8
Layer_1
 62
7
100
AcDbSpline
 70
8
 71
3
 72
8
 73
4
 74
0
 40
0
 40
0
 40
0
 40
0
 40
1
 40
1
 40
1
 40
1
 10
9.633907
 20
18.172172
 30
0.0
 10
10.033372
 20
18.190572
 30
0.0
 10
10.634179
 20
18.276312
 30
0.0
 10
10.969034
 20
18.362692
 30
0.0
  0
LWPOLYLINE
  5
153
100
AcDbEntity
  8
Layer_1
 62
7
100
AcDbPolyline
 90
1
 70
1
 10
39.335684
 20
74.370402
 30
0.0
  0
SPLINE
  5
154
100
AcDbEntity
  8
Layer_1
 62
7
100
AcDbSpline
 70
8
 71
3
 72
8
 73
4
 74
0
 40
0
 40
0
 40
0
 40
0
 40
1
 40
1
 40
1
 40
1
 10
41.571136
 20
18.329362
 30
0.0
 10
41.855443
 20
18.398162
 30
0.0
 10
42.363270
 20
18.589522
 30
0.0
 10
42.699660
 20
18.754542
 30
0.0
  0
SPLINE
  5
155
100
AcDbEntity
  8
Layer_1
 62
7
100
AcDbSpline
 70
8
 71
3
 72
8
 73
4
 74
0
 40
0
 40
0
 40
0
 40
0
 40
1
 40
1
 40
1
 40
1
 10
42.699660
 20
18.754542
 30
0.0
 10
43.036047
 20
18.919562
 30
0.0
 10
43.534018
 20
19.235692
 30
0.0
 10
43.806238
 20
19.457042
 30
0.0
  0
SPLINE
  5
156
100
AcDbEntity
  8
Layer_1
 62
7
100
AcDbSpline
 70
8
 71
3
 72
8
 73
4
 74
0
 40
0
 40
0
 40
0
 40
0
 40
1
 40
1
 40
1
 40
1
 10
43.806238
 20
19.457042
 30
0.0
 10
44.078458
 20
19.678402
 30
0.0
 10
44.484058
 20
20.082232
 30
0.0
 10
44.707568
 20
20.354453
 30
0.0
  0
SPLINE
  5
157
100
AcDbEntity
  8
Layer_1
 62
7
100
AcDbSpline
 70
8
 71
3
 72
8
 73
4
 74
0
 40
0
 40
0
 40
0
 40
0
 40
1
 40
1
 40
1
 40
1
 10
44.707568
 20
20.354453
 30
0.0
 10
44.931078
 20
20.626673
 30
0.0
 10
45.300968
 20
21.227833
 30
0.0
 10
45.529538
 20
21.690373
 30
0.0
  0
SPLINE
  5
158
100
AcDbEntity
  8
Layer_1
 62
7
100
AcDbSpline
 70
8
 71
3
 72
8
 73
4
 74
0
 40
0
 40
0
 40
0
 40
0
 40
1
 40
1
 40
1
 40
1
 10
45.529538
 20
21.690373
 30
0.0
 10
45.773638
 20
22.184343
 30
0.0
 10
46.008508
 20
22.799363
 30
0.0
 10
46.098738
 20
23.180863
 30
0.0
  0
SPLINE
  5
159
100
AcDbEntity
  8
Layer_1
 62
7
100
AcDbSpline
 70
8
 71
3
 72
8
 73
4
 74
0
 40
0
 40
0
 40
0
 40
0
 40
1
 40
1
 40
1
 40
1
 10
46.098738
 20
23.180863
 30
0.0
 10
46.183238
 20
23.538093
 30
0.0
 10
46.291748
 20
24.275773
 30
0.0
 10
46.339878
 20
24.820163
 30
0.0
  0
SPLINE
  5
15a
100
AcDbEntity
  8
Layer_1
 62
7
100
AcDbSpline
 70
8
 71
3
 72
8
 73
4
 74
0
 40
0
 40
0
 40
0
 40
0
 40
1
 40
1
 40
1
 40
1
 10
46.339878
 20
24.820163
 30
0.0
 10
46.392478
 20
25.415493
 30
0.0
 10
46.411278
 20
26.527724
 30
0.0
 10
46.386978
 20
27.611024
 30
0.0
  0
SPLINE
  5
15b
100
AcDbEntity
  8
Layer_1
 62
7
100
AcDbSpline
 70
8
 71
3
 72
8
 73
4
 74
0
 40
0
 40
0
 40
0
 40
0
 40
1
 40
1
 40
1
 40
1
 10
46.386978
 20
27.611024
 30
0.0
 10
46.361378
 20
28.750314
 30
0.0
 10
46.302478
 20
29.650864
 30
0.0
 10
46.226498
 20
30.061934
 30
0.0
  0
SPLINE
  5
15c
100
AcDbEntity
  8
Layer_1
 62
7
100
AcDbSpline
 70
8
 71
3
 72
8
 73
4
 74
0
 40
0
 40
0
 40
0
 40
0
 40
1
 40
1
 40
1
 40
1
 10
46.226498
 20
30.061934
 30
0.0
 10
46.160498
 20
30.419354
 30
0.0
 10
46.000588
 20
31.087754
 30
0.0
 10
45.871188
 20
31.547264
 30
0.0
  0
SPLINE
  5
15d
100
AcDbEntity
  8
Layer_1
 62
7
100
AcDbSpline
 70
8
 71
3
 72
8
 73
4
 74
0
 40
0
 40
0
 40
0
 40
0
 40
1
 40
1
 40
1
 40
1
 10
45.871188
 20
31.547264
 30
0.0
 10
45.741798
 20
32.006785
 30
0.0
 10
45.444568
 20
32.866875
 30
0.0
 10
45.210678
 20
33.458585
 30
0.0
  0
SPLINE
  5
15e
100
AcDbEntity
  8
Layer_1
 62
7
100
AcDbSpline
 70
8
 71
3
 72
8
 73
4
 74
0
 40
0
 40
0
 40
0
 40
0
 40
1
 40
1
 40
1
 40
1
 10
45.210678
 20
33.458585
 30
0.0
 10
44.976788
 20
34.050295
 30
0.0
 10
44.531838
 20
35.042935
 30
0.0
 10
44.221908
 20
35.664445
 30
0.0
  0
SPLINE
  5
15f
100
AcDbEntity
  8
Layer_1
 62
7
100
AcDbSpline
 70
8
 71
3
 72
8
 73
4
 74
0
 40
0
 40
0
 40
0
 40
0
 40
1
 40
1
 40
1
 40
1
 10
44.221908
 20
35.664445
 30
0.0
 10
43.911988
 20
36.285965
 30
0.0
 10
43.420448
 20
37.197665
 30
0.0
 10
43.129587
 20
37.690446
 30
0.0
  0
SPLINE
  5
160
100
AcDbEntity
  8
Layer_1
 62
7
100
AcDbSpline
 70
8
 71
3
 72
8
 73
4
 74
0
 40
0
 40
0
 40
0
 40
0
 40
1
 40
1
 40
1
 40
1
 10
43.129587
 20
37.690446
 30
0.0
 10
42.838747
 20
38.183226
 30
0.0
 10
42.294093
 20
39.041966
 30
0.0
 10
41.919243
 20
39.598766
 30
0.0
  0
SPLINE
  5
161
100
AcDbEntity
  8
Layer_1
 62
7
100
AcDbSpline
 70
8
 71
3
 72
8
 73
4
 74
0
 40
0
 40
0
 40
0
 40
0
 40
1
 40
1
 40
1
 40
1
 10
41.919243
 20
39.598766
 30
0.0
 10
41.544386
 20
40.155566
 30
0.0
 10
40.921881
 20
41.019426
 30
0.0
 10
40.535901
 20
41.518445
 30
0.0
  0
SPLINE
  5
162
100
AcDbEntity
  8
Layer_1
 62
7
100
AcDbSpline
 70
8
 71
3
 72
8
 73
4
 74
0
 40
0
 40
0
 40
0
 40
0
 40
1
 40
1
 40
1
 40
1
 10
40.535901
 20
41.518445
 30
0.0
 10
40.149911
 20
42.017462
 30
0.0
 10
39.511791
 20
42.800430
 30
0.0
 10
39.117851
 20
43.258371
 30
0.0
  0
SPLINE
  5
163
100
AcDbEntity
  8
Layer_1
 62
7
100
AcDbSpline
 70
8
 71
3
 72
8
 73
4
 74
0
 40
0
 40
0
 40
0
 40
0
 40
1
 40
1
 40
1
 40
1
 10
39.117851
 20
43.258371
 30
0.0
 10
38.723911
 20
43.716312
 30
0.0
 10
37.976401
 20
44.517053
 30
0.0
 10
37.456711
 20
45.037796
 30
0.0
  0
SPLINE
  5
164
100
AcDbEntity
  8
Layer_1
 62
7
100
AcDbSpline
 70
8
 71
3
 72
8
 73
4
 74
0
 40
0
 40
0
 40
0
 40
0
 40
1
 40
1
 40
1
 40
1
 10
37.456711
 20
45.037796
 30
0.0
 10
36.937030
 20
45.558539
 30
0.0
 10
36.183910
 20
46.266328
 30
0.0
 10
35.783130
 20
46.610661
 30
0.0
  0
SPLINE
  5
165
100
AcDbEntity
  8
Layer_1
 62
7
100
AcDbSpline
 70
8
 71
3
 72
8
 73
4
 74
0
 40
0
 40
0
 40
0
 40
0
 40
1
 40
1
 40
1
 40
1
 10
35.783130
 20
46.610661
 30
0.0
 10
35.382340
 20
46.954993
 30
0.0
 10
34.778200
 20
47.444987
 30
0.0
 10
34.440580
 20
47.699537
 30
0.0
  0
SPLINE
  5
166
100
AcDbEntity
  8
Layer_1
 62
7
100
AcDbSpline
 70
8
 71
3
 72
8
 73
4
 74
0
 40
0
 40
0
 40
0
 40
0
 40
1
 40
1
 40
1
 40
1
 10
34.440580
 20
47.699537
 30
0.0
 10
34.102970
 20
47.954087
 30
0.0
 10
33.432100
 20
48.421002
 30
0.0
 10
32.949760
 20
48.737126
 30
0.0
  0
SPLINE
  5
167
100
AcDbEntity
  8
Layer_1
 62
7
100
AcDbSpline
 70
8
 71
3
 72
8
 73
4
 74
0
 40
0
 40
0
 40
0
 40
0
 40
1
 40
1
 40
1
 40
1
 10
32.949760
 20
48.737126
 30
0.0
 10
32.467420
 20
49.053251
 30
0.0
 10
31.608319
 20
49.578522
 30
0.0
 10
31.040659
 20
49.904395
 30
0.0
  0
SPLINE
  5
168
100
AcDbEntity
  8
Layer_1
 62
7
100
AcDbSpline
 70
8
 71
3
 72
8
 73
4
 74
0
 40
0
 40
0
 40
0
 40
0
 40
1
 40
1
 40
1
 40
1
 10
31.040659
 20
49.904395
 30
0.0
 10
30.472999
 20
50.230268
 30
0.0
 10
29.275579
 20
50.874200
 30
0.0
 10
28.379729
 20
51.335354
 30
0.0
  0
SPLINE
  5
169
100
AcDbEntity
  8
Layer_1
 62
7
100
AcDbSpline
 70
8
 71
3
 72
8
 73
4
 74
0
 40
0
 40
0
 40
0
 40
0
 40
1
 40
1
 40
1
 40
1
 10
28.379729
 20
51.335354
 30
0.0
 10
27.483877
 20
51.796508
 30
0.0
 10
26.732655
 20
52.155564
 30
0.0
 10
26.710347
 20
52.133256
 30
0.0
  0
SPLINE
  5
16a
100
AcDbEntity
  8
Layer_1
 62
7
100
AcDbSpline
 70
8
 71
3
 72
8
 73
4
 74
0
 40
0
 40
0
 40
0
 40
0
 40
1
 40
1
 40
1
 40
1
 10
26.710347
 20
52.133256
 30
0.0
 10
26.688037
 20
52.110946
 30
0.0
 10
26.639607
 20
51.651257
 30
0.0
 10
26.602713
 20
51.111721
 30
0.0
  0
SPLINE
  5
16b
100
AcDbEntity
  8
Layer_1
 62
7
100
AcDbSpline
 70
8
 71
3
 72
8
 73
4
 74
0
 40
0
 40
0
 40
0
 40
0
 40
1
 40
1
 40
1
 40
1
 10
26.602713
 20
51.111721
 30
0.0
 10
26.565823
 20
50.572186
 30
0.0
 10
26.535393
 20
49.287857
 30
0.0
 10
26.535093
 20
48.257657
 30
0.0
  0
SPLINE
  5
16c
100
AcDbEntity
  8
Layer_1
 62
7
100
AcDbSpline
 70
8
 71
3
 72
8
 73
4
 74
0
 40
0
 40
0
 40
0
 40
0
 40
1
 40
1
 40
1
 40
1
 10
26.535093
 20
48.257657
 30
0.0
 10
26.534787
 20
47.227458
 30
0.0
 10
26.566023
 20
45.175487
 30
0.0
 10
26.604493
 20
43.697721
 30
0.0
  0
SPLINE
  5
16d
100
AcDbEntity
  8
Layer_1
 62
7
100
AcDbSpline
 70
8
 71
3
 72
8
 73
4
 74
0
 40
0
 40
0
 40
0
 40
0
 40
1
 40
1
 40
1
 40
1
 10
26.604493
 20
43.697721
 30
0.0
 10
26.642963
 20
42.219953
 30
0.0
 10
26.712774
 20
40.568576
 30
0.0
 10
26.759633
 20
40.027996
 30
0.0
  0
SPLINE
  5
16e
100
AcDbEntity
  8
Layer_1
 62
7
100
AcDbSpline
 70
8
 71
3
 72
8
 73
4
 74
0
 40
0
 40
0
 40
0
 40
0
 40
1
 40
1
 40
1
 40
1
 10
26.759633
 20
40.027996
 30
0.0
 10
26.806493
 20
39.487416
 30
0.0
 10
26.930655
 20
38.477456
 30
0.0
 10
27.035550
 20
37.783646
 30
0.0
  0
SPLINE
  5
16f
100
AcDbEntity
  8
Layer_1
 62
7
100
AcDbSpline
 70
8
 71
3
 72
8
 73
4
 74
0
 40
0
 40
0
 40
0
 40
0
 40
1
 40
1
 40
1
 40
1
 10
27.035550
 20
37.783646
 30
0.0
 10
27.140446
 20
37.089845
 30
0.0
 10
27.313563
 20
36.040525
 30
0.0
 10
27.420254
 20
35.451845
 30
0.0
  0
SPLINE
  5
170
100
AcDbEntity
  8
Layer_1
 62
7
100
AcDbSpline
 70
8
 71
3
 72
8
 73
4
 74
0
 40
0
 40
0
 40
0
 40
0
 40
1
 40
1
 40
1
 40
1
 10
27.420254
 20
35.451845
 30
0.0
 10
27.526946
 20
34.863155
 30
0.0
 10
27.712969
 20
33.945085
 30
0.0
 10
27.833639
 20
33.411685
 30
0.0
  0
SPLINE
  5
171
100
AcDbEntity
  8
Layer_1
 62
7
100
AcDbSpline
 70
8
 71
3
 72
8
 73
4
 74
0
 40
0
 40
0
 40
0
 40
0
 40
1
 40
1
 40
1
 40
1
 10
27.833639
 20
33.411685
 30
0.0
 10
27.954309
 20
32.878275
 30
0.0
 10
28.175699
 20
32.006525
 30
0.0
 10
28.325629
 20
31.474444
 30
0.0
  0
SPLINE
  5
172
100
AcDbEntity
  8
Layer_1
 62
7
100
AcDbSpline
 70
8
 71
3
 72
8
 73
4
 74
0
 40
0
 40
0
 40
0
 40
0
 40
1
 40
1
 40
1
 40
1
 10
28.325629
 20
31.474444
 30
0.0
 10
28.475549
 20
30.942374
 30
0.0
 10
28.753699
 20
30.078104
 30
0.0
 10
28.943739
 20
29.553844
 30
0.0
  0
SPLINE
  5
173
100
AcDbEntity
  8
Layer_1
 62
7
100
AcDbSpline
 70
8
 71
3
 72
8
 73
4
 74
0
 40
0
 40
0
 40
0
 40
0
 40
1
 40
1
 40
1
 40
1
 10
28.943739
 20
29.553844
 30
0.0
 10
29.133769
 20
29.029594
 30
0.0
 10
29.458139
 20
28.232774
 30
0.0
 10
29.664559
 20
27.783134
 30
0.0
  0
SPLINE
  5
174
100
AcDbEntity
  8
Layer_1
 62
7
100
AcDbSpline
 70
8
 71
3
 72
8
 73
4
 74
0
 40
0
 40
0
 40
0
 40
0
 40
1
 40
1
 40
1
 40
1
 10
29.664559
 20
27.783134
 30
0.0
 10
29.870979
 20
27.333494
 30
0.0
 10
30.251839
 20
26.569964
 30
0.0
 10
30.510919
 20
26.086394
 30
0.0
  0
SPLINE
  5
175
100
AcDbEntity
  8
Layer_1
 62
7
100
AcDbSpline
 70
8
 71
3
 72
8
 73
4
 74
0
 40
0
 40
0
 40
0
 40
0
 40
1
 40
1
 40
1
 40
1
 10
30.510919
 20
26.086394
 30
0.0
 10
30.769999
 20
25.602833
 30
0.0
 10
31.265959
 20
24.777143
 30
0.0
 10
31.613049
 20
24.251533
 30
0.0
  0
SPLINE
  5
176
100
AcDbEntity
  8
Layer_1
 62
7
100
AcDbSpline
 70
8
 71
3
 72
8
 73
4
 74
0
 40
0
 40
0
 40
0
 40
0
 40
1
 40
1
 40
1
 40
1
 10
31.613049
 20
24.251533
 30
0.0
 10
31.960150
 20
23.725923
 30
0.0
 10
32.480500
 20
23.003443
 30
0.0
 10
32.769390
 20
22.646033
 30
0.0
  0
SPLINE
  5
177
100
AcDbEntity
  8
Layer_1
 62
7
100
AcDbSpline
 70
8
 71
3
 72
8
 73
4
 74
0
 40
0
 40
0
 40
0
 40
0
 40
1
 40
1
 40
1
 40
1
 10
32.769390
 20
22.646033
 30
0.0
 10
33.058270
 20
22.288613
 30
0.0
 10
33.534650
 20
21.743483
 30
0.0
 10
33.828000
 20
21.434633
 30
0.0
  0
SPLINE
  5
178
100
AcDbEntity
  8
Layer_1
 62
7
100
AcDbSpline
 70
8
 71
3
 72
8
 73
4
 74
0
 40
0
 40
0
 40
0
 40
0
 40
1
 40
1
 40
1
 40
1
 10
33.828000
 20
21.434633
 30
0.0
 10
34.121350
 20
21.125783
 30
0.0
 10
34.620510
 20
20.657273
 30
0.0
 10
34.937250
 20
20.393513
 30
0.0
  0
SPLINE
  5
179
100
AcDbEntity
  8
Layer_1
 62
7
100
AcDbSpline
 70
8
 71
3
 72
8
 73
4
 74
0
 40
0
 40
0
 40
0
 40
0
 40
1
 40
1
 40
1
 40
1
 10
34.937250
 20
20.393513
 30
0.0
 10
35.253990
 20
20.129752
 30
0.0
 10
35.810580
 20
19.720352
 30
0.0
 10
36.174120
 20
19.483732
 30
0.0
  0
SPLINE
  5
17a
100
AcDbEntity
  8
Layer_1
 62
7
100
AcDbSpline
 70
8
 71
3
 72
8
 73
4
 74
0
 40
0
 40
0
 40
0
 40
0
 40
1
 40
1
 40
1
 40
1
 10
36.174120
 20
19.483732
 30
0.0
 10
36.537660
 20
19.247112
 30
0.0
 10
37.065420
 20
18.950182
 30
0.0
 10
37.346900
 20
18.823892
 30
0.0
  0
SPLINE
  5
17b
100
AcDbEntity
  8
Layer_1
 62
7
100
AcDbSpline
 70
8
 71
3
 72
8
 73
4
 74
0
 40
0
 40
0
 40
0
 40
0
 40
1
 40
1
 40
1
 40
1
 10
37.346900
 20
18.823892
 30
0.0
 10
37.628391
 20
18.697592
 30
0.0
 10
38.087831
 20
18.524962
 30
0.0
 10
38.367871
 20
18.440272
 30
0.0
  0
SPLINE
  5
17c
100
AcDbEntity
  8
Layer_1
 62
7
100
AcDbSpline
 70
8
 71
3
 72
8
 73
4
 74
0
 40
0
 40
0
 40
0
 40
0
 40
1
 40
1
 40
1
 40
1
 10
38.367871
 20
18.440272
 30
0.0
 10
38.647921
 20
18.355572
 30
0.0
 10
39.083471
 20
18.254252
 30
0.0
 10
39.335761
 20
18.215112
 30
0.0
  0
SPLINE
  5
17d
100
AcDbEntity
  8
Layer_1
 62
7
100
AcDbSpline
 70
8
 71
3
 72
8
 73
4
 74
0
 40
0
 40
0
 40
0
 40
0
 40
1
 40
1
 40
1
 40
1
 10
39.335761
 20
18.215112
 30
0.0
 10
39.588061
 20
18.176012
 30
0.0
 10
40.077931
 20
18.157512
 30
0.0
 10
40.424361
 20
18.174112
 30
0.0
  0
SPLINE
  5
17e
100
AcDbEntity
  8
Layer_1
 62
7
100
AcDbSpline
 70
8
 71
3
 72
8
 73
4
 74
0
 40
0
 40
0
 40
0
 40
0
 40
1
 40
1
 40
1
 40
1
 10
40.424361
 20
18.174112
 30
0.0
 10
40.770801
 20
18.190712
 30
0.0
 10
41.286856
 20
18.260512
 30
0.0
 10
41.571146
 20
18.329382
 30
0.0
  0
LWPOLYLINE
  5
17f
100
AcDbEntity
  8
Layer_1
 62
7
100
AcDbPolyline
 90
1
 70
1
 10
10.969034
 20
18.362692
 30
0.0
  0
SPLINE
  5
180
100
AcDbEntity
  8
Layer_1
 62
7
100
AcDbSpline
 70
8
 71
3
 72
8
 73
4
 74
0
 40
0
 40
0
 40
0
 40
0
 40
1
 40
1
 40
1
 40
1
 10
17.146932
 20
52.923559
 30
0.0
 10
17.829373
 20
53.303244
 30
0.0
 10
19.368239
 20
54.107684
 30
0.0
 10
20.566634
 20
54.711203
 30
0.0
  0
SPLINE
  5
181
100
AcDbEntity
  8
Layer_1
 62
7
100
AcDbSpline
 70
8
 71
3
 72
8
 73
4
 74
0
 40
0
 40
0
 40
0
 40
0
 40
1
 40
1
 40
1
 40
1
 10
20.566634
 20
54.711203
 30
0.0
 10
21.765029
 20
55.314723
 30
0.0
 10
23.072368
 20
55.938674
 30
0.0
 10
23.471833
 20
56.097761
 30
0.0
  0
SPLINE
  5
182
100
AcDbEntity
  8
Layer_1
 62
7
100
AcDbSpline
 70
8
 71
3
 72
8
 73
4
 74
0
 40
0
 40
0
 40
0
 40
0
 40
1
 40
1
 40
1
 40
1
 10
23.471833
 20
56.097761
 30
0.0
 10
24.080157
 20
56.340028
 30
0.0
 10
24.291272
 20
56.387501
 30
0.0
 10
24.771527
 20
56.390026
 30
0.0
  0
SPLINE
  5
183
100
AcDbEntity
  8
Layer_1
 62
7
100
AcDbSpline
 70
8
 71
3
 72
8
 73
4
 74
0
 40
0
 40
0
 40
0
 40
0
 40
1
 40
1
 40
1
 40
1
 10
24.771527
 20
56.390026
 30
0.0
 10
25.178303
 20
56.392126
 30
0.0
 10
25.500433
 20
56.340626
 30
0.0
 10
25.880090
 20
56.212648
 30
0.0
  0
SPLINE
  5
184
100
AcDbEntity
  8
Layer_1
 62
7
100
AcDbSpline
 70
8
 71
3
 72
8
 73
4
 74
0
 40
0
 40
0
 40
0
 40
0
 40
1
 40
1
 40
1
 40
1
 10
25.880090
 20
56.212648
 30
0.0
 10
26.174434
 20
56.113428
 30
0.0
 10
27.533379
 20
55.471463
 30
0.0
 10
28.899969
 20
54.786050
 30
0.0
  0
SPLINE
  5
185
100
AcDbEntity
  8
Layer_1
 62
7
100
AcDbSpline
 70
8
 71
3
 72
8
 73
4
 74
0
 40
0
 40
0
 40
0
 40
0
 40
1
 40
1
 40
1
 40
1
 10
28.899969
 20
54.786050
 30
0.0
 10
30.266559
 20
54.100636
 30
0.0
 10
31.910570
 20
53.245854
 30
0.0
 10
32.553340
 20
52.886533
 30
0.0
  0
SPLINE
  5
186
100
AcDbEntity
  8
Layer_1
 62
7
100
AcDbSpline
 70
8
 71
3
 72
8
 73
4
 74
0
 40
0
 40
0
 40
0
 40
0
 40
1
 40
1
 40
1
 40
1
 10
32.553340
 20
52.886533
 30
0.0
 10
33.196100
 20
52.527213
 30
0.0
 10
33.752070
 20
52.233223
 30
0.0
 10
33.788830
 20
52.233223
 30
0.0
  0
SPLINE
  5
187
100
AcDbEntity
  8
Layer_1
 62
7
100
AcDbSpline
 70
8
 71
3
 72
8
 73
4
 74
0
 40
0
 40
0
 40
0
 40
0
 40
1
 40
1
 40
1
 40
1
 10
33.788830
 20
52.233223
 30
0.0
 10
33.825630
 20
52.233223
 30
0.0
 10
33.880330
 20
52.529250
 30
0.0
 10
33.910460
 20
52.891059
 30
0.0
  0
SPLINE
  5
188
100
AcDbEntity
  8
Layer_1
 62
7
100
AcDbSpline
 70
8
 71
3
 72
8
 73
4
 74
0
 40
0
 40
0
 40
0
 40
0
 40
1
 40
1
 40
1
 40
1
 10
33.910460
 20
52.891059
 30
0.0
 10
33.940560
 20
53.252870
 30
0.0
 10
33.946760
 20
54.207572
 30
0.0
 10
33.924160
 20
55.012620
 30
0.0
  0
SPLINE
  5
189
100
AcDbEntity
  8
Layer_1
 62
7
100
AcDbSpline
 70
8
 71
3
 72
8
 73
4
 74
0
 40
0
 40
0
 40
0
 40
0
 40
1
 40
1
 40
1
 40
1
 10
33.924160
 20
55.012620
 30
0.0
 10
33.893060
 20
56.119388
 30
0.0
 10
33.845460
 20
56.625499
 30
0.0
 10
33.728940
 20
57.087966
 30
0.0
  0
SPLINE
  5
18a
100
AcDbEntity
  8
Layer_1
 62
7
100
AcDbSpline
 70
8
 71
3
 72
8
 73
4
 74
0
 40
0
 40
0
 40
0
 40
0
 40
1
 40
1
 40
1
 40
1
 10
33.728940
 20
57.087966
 30
0.0
 10
33.644140
 20
57.424357
 30
0.0
 10
33.453250
 20
57.987675
 30
0.0
 10
33.304690
 20
58.339785
 30
0.0
  0
SPLINE
  5
18b
100
AcDbEntity
  8
Layer_1
 62
7
100
AcDbSpline
 70
8
 71
3
 72
8
 73
4
 74
0
 40
0
 40
0
 40
0
 40
0
 40
1
 40
1
 40
1
 40
1
 10
33.304690
 20
58.339785
 30
0.0
 10
33.156120
 20
58.691894
 30
0.0
 10
32.890930
 20
59.225151
 30
0.0
 10
32.715370
 20
59.524800
 30
0.0
  0
SPLINE
  5
18c
100
AcDbEntity
  8
Layer_1
 62
7
100
AcDbSpline
 70
8
 71
3
 72
8
 73
4
 74
0
 40
0
 40
0
 40
0
 40
0
 40
1
 40
1
 40
1
 40
1
 10
32.715370
 20
59.524800
 30
0.0
 10
32.539810
 20
59.824450
 30
0.0
 10
32.205590
 20
60.327647
 30
0.0
 10
31.972660
 20
60.643015
 30
0.0
  0
SPLINE
  5
18d
100
AcDbEntity
  8
Layer_1
 62
7
100
AcDbSpline
 70
8
 71
3
 72
8
 73
4
 74
0
 40
0
 40
0
 40
0
 40
0
 40
1
 40
1
 40
1
 40
1
 10
31.972660
 20
60.643015
 30
0.0
 10
31.739730
 20
60.958382
 30
0.0
 10
31.202509
 20
61.560446
 30
0.0
 10
30.778829
 20
61.980936
 30
0.0
  0
SPLINE
  5
18e
100
AcDbEntity
  8
Layer_1
 62
7
100
AcDbSpline
 70
8
 71
3
 72
8
 73
4
 74
0
 40
0
 40
0
 40
0
 40
0
 40
1
 40
1
 40
1
 40
1
 10
30.778829
 20
61.980936
 30
0.0
 10
30.355149
 20
62.401425
 30
0.0
 10
29.688889
 20
62.963323
 30
0.0
 10
29.298249
 20
63.229597
 30
0.0
  0
SPLINE
  5
18f
100
AcDbEntity
  8
Layer_1
 62
7
100
AcDbSpline
 70
8
 71
3
 72
8
 73
4
 74
0
 40
0
 40
0
 40
0
 40
0
 40
1
 40
1
 40
1
 40
1
 10
29.298249
 20
63.229597
 30
0.0
 10
28.907609
 20
63.495870
 30
0.0
 10
28.269089
 20
63.864795
 30
0.0
 10
27.879327
 20
64.049428
 30
0.0
  0
SPLINE
  5
190
100
AcDbEntity
  8
Layer_1
 62
7
100
AcDbSpline
 70
8
 71
3
 72
8
 73
4
 74
0
 40
0
 40
0
 40
0
 40
0
 40
1
 40
1
 40
1
 40
1
 10
27.879327
 20
64.049428
 30
0.0
 10
27.489563
 20
64.234062
 30
0.0
 10
26.794271
 20
64.478117
 30
0.0
 10
26.334236
 20
64.591773
 30
0.0
  0
SPLINE
  5
191
100
AcDbEntity
  8
Layer_1
 62
7
100
AcDbSpline
 70
8
 71
3
 72
8
 73
4
 74
0
 40
0
 40
0
 40
0
 40
0
 40
1
 40
1
 40
1
 40
1
 10
26.334236
 20
64.591773
 30
0.0
 10
25.719751
 20
64.743588
 30
0.0
 10
25.305085
 20
64.798264
 30
0.0
 10
24.771507
 20
64.797828
 30
0.0
  0
SPLINE
  5
192
100
AcDbEntity
  8
Layer_1
 62
7
100
AcDbSpline
 70
8
 71
3
 72
8
 73
4
 74
0
 40
0
 40
0
 40
0
 40
0
 40
1
 40
1
 40
1
 40
1
 10
24.771507
 20
64.797828
 30
0.0
 10
24.241907
 20
64.797369
 30
0.0
 10
23.827803
 20
64.742588
 30
0.0
 10
23.242455
 20
64.595468
 30
0.0
  0
SPLINE
  5
193
100
AcDbEntity
  8
Layer_1
 62
7
100
AcDbSpline
 70
8
 71
3
 72
8
 73
4
 74
0
 40
0
 40
0
 40
0
 40
0
 40
1
 40
1
 40
1
 40
1
 10
23.242455
 20
64.595468
 30
0.0
 10
22.732308
 20
64.467245
 30
0.0
 10
22.129399
 20
64.240195
 30
0.0
 10
21.588393
 20
63.972560
 30
0.0
  0
SPLINE
  5
194
100
AcDbEntity
  8
Layer_1
 62
7
100
AcDbSpline
 70
8
 71
3
 72
8
 73
4
 74
0
 40
0
 40
0
 40
0
 40
0
 40
1
 40
1
 40
1
 40
1
 10
21.588393
 20
63.972560
 30
0.0
 10
21.120173
 20
63.740933
 30
0.0
 10
20.449301
 20
63.338761
 30
0.0
 10
20.097566
 20
63.078845
 30
0.0
  0
SPLINE
  5
195
100
AcDbEntity
  8
Layer_1
 62
7
100
AcDbSpline
 70
8
 71
3
 72
8
 73
4
 74
0
 40
0
 40
0
 40
0
 40
0
 40
1
 40
1
 40
1
 40
1
 10
20.097566
 20
63.078845
 30
0.0
 10
19.745833
 20
62.818928
 30
0.0
 10
19.131216
 20
62.275490
 30
0.0
 10
18.731751
 20
61.871203
 30
0.0
  0
SPLINE
  5
196
100
AcDbEntity
  8
Layer_1
 62
7
100
AcDbSpline
 70
8
 71
3
 72
8
 73
4
 74
0
 40
0
 40
0
 40
0
 40
0
 40
1
 40
1
 40
1
 40
1
 10
18.731751
 20
61.871203
 30
0.0
 10
18.332286
 20
61.466918
 30
0.0
 10
17.850635
 20
60.922147
 30
0.0
 10
17.661415
 20
60.660601
 30
0.0
  0
SPLINE
  5
197
100
AcDbEntity
  8
Layer_1
 62
7
100
AcDbSpline
 70
8
 71
3
 72
8
 73
4
 74
0
 40
0
 40
0
 40
0
 40
0
 40
1
 40
1
 40
1
 40
1
 10
17.661415
 20
60.660601
 30
0.0
 10
17.472194
 20
60.399055
 30
0.0
 10
17.138236
 20
59.889805
 30
0.0
 10
16.919284
 20
59.528933
 30
0.0
  0
SPLINE
  5
198
100
AcDbEntity
  8
Layer_1
 62
7
100
AcDbSpline
 70
8
 71
3
 72
8
 73
4
 74
0
 40
0
 40
0
 40
0
 40
0
 40
1
 40
1
 40
1
 40
1
 10
16.919284
 20
59.528933
 30
0.0
 10
16.700332
 20
59.168063
 30
0.0
 10
16.413165
 20
58.592689
 30
0.0
 10
16.281136
 20
58.250324
 30
0.0
  0
SPLINE
  5
199
100
AcDbEntity
  8
Layer_1
 62
7
100
AcDbSpline
 70
8
 71
3
 72
8
 73
4
 74
0
 40
0
 40
0
 40
0
 40
0
 40
1
 40
1
 40
1
 40
1
 10
16.281136
 20
58.250324
 30
0.0
 10
16.149107
 20
57.907960
 30
0.0
 10
15.972903
 20
57.368756
 30
0.0
 10
15.889572
 20
57.052094
 30
0.0
  0
SPLINE
  5
19a
100
AcDbEntity
  8
Layer_1
 62
7
100
AcDbSpline
 70
8
 71
3
 72
8
 73
4
 74
0
 40
0
 40
0
 40
0
 40
0
 40
1
 40
1
 40
1
 40
1
 10
15.889572
 20
57.052094
 30
0.0
 10
15.786712
 20
56.661216
 30
0.0
 10
15.724409
 20
56.108113
 30
0.0
 10
15.695539
 20
55.329555
 30
0.0
  0
SPLINE
  5
19b
100
AcDbEntity
  8
Layer_1
 62
7
100
AcDbSpline
 70
8
 71
3
 72
8
 73
4
 74
0
 40
0
 40
0
 40
0
 40
0
 40
1
 40
1
 40
1
 40
1
 10
15.695539
 20
55.329555
 30
0.0
 10
15.672149
 20
54.698820
 30
0.0
 10
15.678319
 20
53.744118
 30
0.0
 10
15.709259
 20
53.207994
 30
0.0
  0
SPLINE
  5
19c
100
AcDbEntity
  8
Layer_1
 62
7
100
AcDbSpline
 70
8
 71
3
 72
8
 73
4
 74
0
 40
0
 40
0
 40
0
 40
0
 40
1
 40
1
 40
1
 40
1
 10
15.709259
 20
53.207994
 30
0.0
 10
15.740189
 20
52.671870
 30
0.0
 10
15.797139
 20
52.233223
 30
0.0
 10
15.835806
 20
52.233223
 30
0.0
  0
SPLINE
  5
19d
100
AcDbEntity
  8
Layer_1
 62
7
100
AcDbSpline
 70
8
 71
3
 72
8
 73
4
 74
0
 40
0
 40
0
 40
0
 40
0
 40
1
 40
1
 40
1
 40
1
 10
15.835806
 20
52.233223
 30
0.0
 10
15.874476
 20
52.233223
 30
0.0
 10
16.464474
 20
52.543875
 30
0.0
 10
17.146915
 20
52.923559
 30
0.0
  0
LWPOLYLINE
  5
19e
100
AcDbEntity
  8
Layer_1
 62
7
100
AcDbPolyline
 90
1
 70
1
 10
41.571146
 20
18.329382
 30
0.0
  0
LWPOLYLINE
  5
19f
100
AcDbEntity
  8
Layer_1
 62
7
100
AcDbPolyline
 90
1
 70
1
 10
17.146915
 20
52.923559
 30
0.0
  0
ENDSEC
  0
SECTION
  2
OBJECTS
  0
DICTIONARY
  5
C
330
0
100
AcDbDictionary
  3
ACAD_GROUP
350
D
  3
ACAD_MLINESTYLE
350
17
  0
DICTIONARY
  5
D
330
C
100
AcDbDictionary
  0
DICTIONARY
  5
1A
330
C
100
AcDbDictionary
  0
DICTIONARY
  5
17
330
C
100
AcDbDictionary
  3
STANDARD
350
18
  0
DICTIONARY
  5
19
330
C
100
AcDbDictionary
  0
ENDSEC
  0
EOF
