999
"DXF R12 Output" (www.mydxf.blogspot.com)
 0 
SECTION
 2 
HEADER
 9 
$ACADVER
 1 
AC1009
 9 
$EXTMIN
 10 
 0 
 20 
 0 
 9 
$EXTMAX
 10 
 8.5 
 20 
 11 
 0 
ENDSEC
 0 
SECTION
 2 
ENTITIES
0
LINE
8
Layer 1
10
23.188100
20
-0.244260
11
22.365472
21
0.038923
0
LINE
8
Layer 1
10
22.365472
20
0.038923
11
21.163758
21
0.866056
0
LINE
8
Layer 1
10
21.163758
20
0.866056
11
20.564599
21
1.473096
0
LINE
8
Layer 1
10
20.564599
20
1.473096
11
20.043295
21
2.203514
0
LINE
8
Layer 1
10
20.043295
20
2.203514
11
19.657388
21
3.053106
0
LINE
8
Layer 1
10
19.657388
20
3.053106
11
19.464420
21
4.017670
0
LINE
8
Layer 1
10
19.464420
20
4.017670
11
18.235413
21
4.090353
0
LINE
8
Layer 1
10
18.235413
20
4.090353
11
17.351543
21
4.461667
0
LINE
8
Layer 1
10
17.351543
20
4.461667
11
16.756941
21
5.036582
0
LINE
8
Layer 1
10
16.756941
20
5.036582
11
16.395735
21
5.720066
0
LINE
8
Layer 1
10
16.395735
20
5.720066
11
16.150027
21
7.032619
0
LINE
8
Layer 1
10
16.150027
20
7.032619
11
16.167450
21
7.639080
0
LINE
8
Layer 1
10
16.167450
20
7.639080
11
16.154770
21
8.087182
0
LINE
8
Layer 1
10
16.154770
20
8.087182
11
16.431540
21
9.359321
0
LINE
8
Layer 1
10
16.431540
20
9.359321
11
16.826038
21
10.270577
0
LINE
8
Layer 1
10
16.826038
20
10.270577
11
17.469981
21
11.347247
0
LINE
8
Layer 1
10
17.469981
20
11.347247
11
18.422396
21
12.575802
0
LINE
8
Layer 1
10
18.422396
20
12.575802
11
19.742310
21
13.942710
0
LINE
8
Layer 1
10
19.742310
20
13.942710
11
19.683817
21
14.379137
0
LINE
8
Layer 1
10
19.683817
20
14.379137
11
19.678313
21
15.443491
0
LINE
8
Layer 1
10
19.678313
20
15.443491
11
19.980760
21
16.768382
0
LINE
8
Layer 1
10
19.980760
20
16.768382
11
20.327141
21
17.413720
0
LINE
8
Layer 1
10
20.327141
20
17.413720
11
20.846120
21
17.986420
0
LINE
8
Layer 1
10
20.846120
20
17.986420
11
20.643821
21
19.113535
0
LINE
8
Layer 1
10
20.643821
20
19.113535
11
20.227102
21
19.665265
0
LINE
8
Layer 1
10
20.227102
20
19.665265
11
19.608938
21
19.879818
0
LINE
8
Layer 1
10
19.608938
20
19.879818
11
18.802300
21
19.995400
0
LINE
8
Layer 1
10
18.802300
20
19.995400
11
18.542088
21
20.207262
0
LINE
8
Layer 1
10
18.542088
20
20.207262
11
18.507700
21
20.531700
0
LINE
8
Layer 1
10
18.507700
20
20.531700
11
18.671012
21
20.800225
0
LINE
8
Layer 1
10
18.671012
20
20.800225
11
19.000300
21
20.893400
0
LINE
8
Layer 1
10
19.000300
20
20.893400
11
19.428170
21
20.862009
0
LINE
8
Layer 1
10
19.428170
20
20.862009
11
20.275262
21
20.641750
0
LINE
8
Layer 1
10
20.275262
20
20.641750
11
21.168723
21
19.990391
0
LINE
8
Layer 1
10
21.168723
20
19.990391
11
21.516326
21
19.427351
0
LINE
8
Layer 1
10
21.516326
20
19.427351
11
21.735700
21
18.665700
0
LINE
8
Layer 1
10
21.735700
20
18.665700
11
22.664100
21
18.982100
0
LINE
8
Layer 1
10
22.664100
20
18.982100
11
22.904013
21
19.375863
0
LINE
8
Layer 1
10
22.904013
20
19.375863
11
23.188100
21
19.463400
0
LINE
8
Layer 1
10
23.188100
20
-0.244300
11
24.010729
21
0.038883
0
LINE
8
Layer 1
10
24.010729
20
0.038883
11
25.212446
21
0.866016
0
LINE
8
Layer 1
10
25.212446
20
0.866016
11
25.811605
21
1.473056
0
LINE
8
Layer 1
10
25.811605
20
1.473056
11
26.332909
21
2.203474
0
LINE
8
Layer 1
10
26.332909
20
2.203474
11
26.718815
21
3.053066
0
LINE
8
Layer 1
10
26.718815
20
3.053066
11
26.911780
21
4.017630
0
LINE
8
Layer 1
10
26.911780
20
4.017630
11
28.140787
21
4.090313
0
LINE
8
Layer 1
10
28.140787
20
4.090313
11
29.024657
21
4.461627
0
LINE
8
Layer 1
10
29.024657
20
4.461627
11
29.619259
21
5.036542
0
LINE
8
Layer 1
10
29.619259
20
5.036542
11
29.980465
21
5.720026
0
LINE
8
Layer 1
10
29.980465
20
5.720026
11
30.226173
21
7.032579
0
LINE
8
Layer 1
10
30.226173
20
7.032579
11
30.208750
21
7.639040
0
LINE
8
Layer 1
10
30.208750
20
7.639040
11
30.221430
21
8.087142
0
LINE
8
Layer 1
10
30.221430
20
8.087142
11
29.944659
21
9.359281
0
LINE
8
Layer 1
10
29.944659
20
9.359281
11
29.550161
21
10.270537
0
LINE
8
Layer 1
10
29.550161
20
10.270537
11
28.906219
21
11.347207
0
LINE
8
Layer 1
10
28.906219
20
11.347207
11
27.953804
21
12.575762
0
LINE
8
Layer 1
10
27.953804
20
12.575762
11
26.633890
21
13.942670
0
LINE
8
Layer 1
10
26.633890
20
13.942670
11
26.692383
21
14.379097
0
LINE
8
Layer 1
10
26.692383
20
14.379097
11
26.697888
21
15.443451
0
LINE
8
Layer 1
10
26.697888
20
15.443451
11
26.395441
21
16.768342
0
LINE
8
Layer 1
10
26.395441
20
16.768342
11
26.049060
21
17.413680
0
LINE
8
Layer 1
10
26.049060
20
17.413680
11
25.530080
21
17.986380
0
LINE
8
Layer 1
10
25.530080
20
17.986380
11
25.732407
21
19.113492
0
LINE
8
Layer 1
10
25.732407
20
19.113492
11
26.149137
21
19.665215
0
LINE
8
Layer 1
10
26.149137
20
19.665215
11
26.767299
21
19.879761
0
LINE
8
Layer 1
10
26.767299
20
19.879761
11
27.573920
21
19.995340
0
LINE
8
Layer 1
10
27.573920
20
19.995340
11
27.834130
21
20.207220
0
LINE
8
Layer 1
10
27.834130
20
20.207220
11
27.868501
21
20.531615
0
LINE
8
Layer 1
10
27.868501
20
20.531615
11
27.705238
21
20.800214
0
LINE
8
Layer 1
10
27.705238
20
20.800214
11
27.376000
21
20.893400
0
LINE
8
Layer 1
10
27.376000
20
20.893400
11
26.948073
21
20.862009
0
LINE
8
Layer 1
10
26.948073
20
20.862009
11
26.100963
21
20.641750
0
LINE
8
Layer 1
10
26.100963
20
20.641750
11
25.207520
21
19.990391
0
LINE
8
Layer 1
10
25.207520
20
19.990391
11
24.859942
21
19.427351
0
LINE
8
Layer 1
10
24.859942
20
19.427351
11
24.640600
21
18.665700
0
LINE
8
Layer 1
10
24.640600
20
18.665700
11
23.712100
21
18.982100
0
LINE
8
Layer 1
10
23.712100
20
18.982100
11
23.472225
21
19.375863
0
LINE
8
Layer 1
10
23.472225
20
19.375863
11
23.188100
21
19.463400
0
LINE
8
Layer 1
10
18.920400
20
20.742100
11
18.729507
21
20.651551
0
LINE
8
Layer 1
10
18.729507
20
20.651551
11
18.649296
21
20.455088
0
LINE
8
Layer 1
10
18.649296
20
20.455088
11
18.690808
21
20.250884
0
LINE
8
Layer 1
10
18.690808
20
20.250884
11
18.865080
21
20.137115
0
LINE
8
Layer 1
10
18.865080
20
20.137115
11
19.761921
21
20.002563
0
LINE
8
Layer 1
10
19.761921
20
20.002563
11
20.184062
21
19.859542
0
LINE
8
Layer 1
10
20.184062
20
19.859542
11
20.540350
21
19.584962
0
LINE
8
Layer 1
10
20.540350
20
19.584962
11
20.886378
21
18.830532
0
LINE
8
Layer 1
10
20.886378
20
18.830532
11
20.995171
21
17.997602
0
LINE
8
Layer 1
10
20.995171
20
17.997602
11
20.553648
21
17.468987
0
LINE
8
Layer 1
10
20.553648
20
17.468987
11
20.041689
21
16.502525
0
LINE
8
Layer 1
10
20.041689
20
16.502525
11
19.827147
21
15.428937
0
LINE
8
Layer 1
10
19.827147
20
15.428937
11
19.889435
21
13.968217
0
LINE
8
Layer 1
10
19.889435
20
13.968217
11
19.676802
21
13.664696
0
LINE
8
Layer 1
10
19.676802
20
13.664696
11
19.398925
21
13.401152
0
LINE
8
Layer 1
10
19.398925
20
13.401152
11
17.736615
21
11.469717
0
LINE
8
Layer 1
10
17.736615
20
11.469717
11
17.060626
21
10.391929
0
LINE
8
Layer 1
10
17.060626
20
10.391929
11
16.545035
21
9.227332
0
LINE
8
Layer 1
10
16.545035
20
9.227332
11
16.342886
21
8.426133
0
LINE
8
Layer 1
10
16.342886
20
8.426133
11
16.314138
21
7.598922
0
LINE
8
Layer 1
10
16.314138
20
7.598922
11
16.426133
21
6.120636
0
LINE
8
Layer 1
10
16.426133
20
6.120636
11
16.690023
21
5.431061
0
LINE
8
Layer 1
10
16.690023
20
5.431061
11
17.128397
21
4.833492
0
LINE
8
Layer 1
10
17.128397
20
4.833492
11
17.633229
21
4.467501
0
LINE
8
Layer 1
10
17.633229
20
4.467501
11
18.213285
21
4.250358
0
LINE
8
Layer 1
10
18.213285
20
4.250358
11
19.455627
21
4.166522
0
LINE
8
Layer 1
10
19.455627
20
4.166522
11
19.609666
21
3.996393
0
LINE
8
Layer 1
10
19.609666
20
3.996393
11
19.643408
21
3.761676
0
LINE
8
Layer 1
10
19.643408
20
3.761676
11
19.952258
21
2.709285
0
LINE
8
Layer 1
10
19.952258
20
2.709285
11
20.515088
21
1.772215
0
LINE
8
Layer 1
10
20.515088
20
1.772215
11
21.270508
21
0.970870
0
LINE
8
Layer 1
10
21.270508
20
0.970870
11
22.157128
21
0.325656
0
LINE
8
Layer 1
10
22.157128
20
0.325656
11
22.674898
21
0.054194
0
LINE
8
Layer 1
10
22.674898
20
0.054194
11
23.234198
21
-0.091614
0
LINE
8
Layer 1
10
23.234198
20
-0.091614
11
24.149270
21
0.281946
0
LINE
8
Layer 1
10
24.149270
20
0.281946
11
24.963908
21
0.850963
0
LINE
8
Layer 1
10
24.963908
20
0.850963
11
25.639509
21
1.501898
0
LINE
8
Layer 1
10
25.639509
20
1.501898
11
26.192208
21
2.262614
0
LINE
8
Layer 1
10
26.192208
20
2.262614
11
26.580687
21
3.113182
0
LINE
8
Layer 1
10
26.580687
20
3.113182
11
26.763628
21
4.033673
0
LINE
8
Layer 1
10
26.763628
20
4.033673
11
26.961116
21
4.157602
0
LINE
8
Layer 1
10
26.961116
20
4.157602
11
27.202795
21
4.153544
0
LINE
8
Layer 1
10
27.202795
20
4.153544
11
28.457398
21
4.342113
0
LINE
8
Layer 1
10
28.457398
20
4.342113
11
29.015853
21
4.637467
0
LINE
8
Layer 1
10
29.015853
20
4.637467
11
29.467745
21
5.085300
0
LINE
8
Layer 1
10
29.467745
20
5.085300
11
29.802093
21
5.677086
0
LINE
8
Layer 1
10
29.802093
20
5.677086
11
29.995521
21
6.326226
0
LINE
8
Layer 1
10
29.995521
20
6.326226
11
30.064297
21
7.683270
0
LINE
8
Layer 1
10
30.064297
20
7.683270
11
29.930827
21
8.907166
0
LINE
8
Layer 1
10
29.930827
20
8.907166
11
29.483848
21
10.066690
0
LINE
8
Layer 1
10
29.483848
20
10.066690
11
28.174631
21
12.079299
0
LINE
8
Layer 1
10
28.174631
20
12.079299
11
26.530500
21
13.835400
0
LINE
8
Layer 1
10
26.530500
20
13.835400
11
26.554200
21
14.535700
0
LINE
8
Layer 1
10
26.554200
20
14.535700
11
26.448900
21
16.095112
0
LINE
8
Layer 1
10
26.448900
20
16.095112
11
26.205619
21
16.830630
0
LINE
8
Layer 1
10
26.205619
20
16.830630
11
25.798500
21
17.498300
0
LINE
8
Layer 1
10
25.798500
20
17.498300
11
25.381200
21
17.997600
0
LINE
8
Layer 1
10
25.381200
20
17.997600
11
25.517663
21
18.942175
0
LINE
8
Layer 1
10
25.517663
20
18.942175
11
25.694555
21
19.378706
0
LINE
8
Layer 1
10
25.694555
20
19.378706
11
25.999200
21
19.741700
0
LINE
8
Layer 1
10
25.999200
20
19.741700
11
26.770000
21
20.031512
0
LINE
8
Layer 1
10
26.770000
20
20.031512
11
27.592700
21
20.163900
0
LINE
8
Layer 1
10
27.592700
20
20.163900
11
27.721220
21
20.328056
0
LINE
8
Layer 1
10
27.721220
20
20.328056
11
27.709387
21
20.534025
0
LINE
8
Layer 1
10
27.709387
20
20.534025
11
27.586161
21
20.699906
0
LINE
8
Layer 1
10
27.586161
20
20.699906
11
27.380500
21
20.743800
0
LINE
8
Layer 1
10
27.380500
20
20.743800
11
26.225288
21
20.529125
0
LINE
8
Layer 1
10
26.225288
20
20.529125
11
25.700917
21
20.247731
0
LINE
8
Layer 1
10
25.700917
20
20.247731
11
25.273400
21
19.831600
0
LINE
8
Layer 1
10
25.273400
20
19.831600
11
24.955462
21
19.265987
0
LINE
8
Layer 1
10
24.955462
20
19.265987
11
24.787000
21
18.637600
0
LINE
8
Layer 1
10
24.787000
20
18.637600
11
24.563862
21
18.545938
0
LINE
8
Layer 1
10
24.563862
20
18.545938
11
24.327300
21
18.622200
0
LINE
8
Layer 1
10
24.327300
20
18.622200
11
23.603600
21
18.897300
0
LINE
8
Layer 1
10
23.603600
20
18.897300
11
23.450100
21
19.172850
0
LINE
8
Layer 1
10
23.450100
20
19.172850
11
23.188000
21
19.313400
0
LINE
8
Layer 1
10
23.188000
20
19.313400
11
22.928863
21
19.177613
0
LINE
8
Layer 1
10
22.928863
20
19.177613
11
22.781400
21
18.905100
0
LINE
8
Layer 1
10
22.781400
20
18.905100
11
22.096600
21
18.638200
0
LINE
8
Layer 1
10
22.096600
20
18.638200
11
21.862163
21
18.552375
0
LINE
8
Layer 1
10
21.862163
20
18.552375
11
21.639800
21
18.608900
0
LINE
8
Layer 1
10
21.639800
20
18.608900
11
21.500100
21
19.036100
0
LINE
8
Layer 1
10
21.500100
20
19.036100
11
20.958800
21
19.995550
0
LINE
8
Layer 1
10
20.958800
20
19.995550
11
20.023900
21
20.577000
0
LINE
8
Layer 1
10
20.023900
20
20.577000
11
18.920400
21
20.742100
0
LINE
8
Layer 1
10
18.920400
20
20.742100
11
18.920400
21
20.742100
0
LINE
8
Layer 1
10
20.648100
20
14.529600
11
21.641222
21
15.109485
0
LINE
8
Layer 1
10
21.641222
20
15.109485
11
22.479738
21
15.508156
0
LINE
8
Layer 1
10
22.479738
20
15.508156
11
23.188100
21
15.689370
0
LINE
8
Layer 1
10
23.188100
20
15.689370
11
23.896460
21
15.508156
0
LINE
8
Layer 1
10
23.896460
20
15.508156
11
24.734975
21
15.109485
0
LINE
8
Layer 1
10
24.734975
20
15.109485
11
25.728100
21
14.529600
0
LINE
8
Layer 1
10
25.728100
20
14.529600
11
25.732159
21
15.080850
0
LINE
8
Layer 1
10
25.732159
20
15.080850
11
25.527258
21
16.293600
0
LINE
8
Layer 1
10
25.527258
20
16.293600
11
25.244691
21
16.941319
0
LINE
8
Layer 1
10
25.244691
20
16.941319
11
24.787778
21
17.506350
0
LINE
8
Layer 1
10
24.787778
20
17.506350
11
24.115815
21
17.906006
0
LINE
8
Layer 1
10
24.115815
20
17.906006
11
23.188100
21
18.057600
0
LINE
8
Layer 1
10
23.188100
20
18.057600
11
22.260385
21
17.906006
0
LINE
8
Layer 1
10
22.260385
20
17.906006
11
21.588421
21
17.506350
0
LINE
8
Layer 1
10
21.588421
20
17.506350
11
21.131508
21
16.941319
0
LINE
8
Layer 1
10
21.131508
20
16.941319
11
20.848941
21
16.293600
0
LINE
8
Layer 1
10
20.848941
20
16.293600
11
20.644040
21
15.080850
0
LINE
8
Layer 1
10
20.644040
20
15.080850
11
20.648100
21
14.529600
0
LINE
8
Layer 1
10
20.648100
20
14.529600
11
20.648100
21
14.529600
0
LINE
8
Layer 1
10
17.095100
20
6.845170
11
17.108630
21
7.869527
0
LINE
8
Layer 1
10
17.108630
20
7.869527
11
17.370633
21
8.975186
0
LINE
8
Layer 1
10
17.370633
20
8.975186
11
17.853664
21
10.112380
0
LINE
8
Layer 1
10
17.853664
20
10.112380
11
18.530279
21
11.231344
0
LINE
8
Layer 1
10
18.530279
20
11.231344
11
19.373033
21
12.282310
0
LINE
8
Layer 1
10
19.373033
20
12.282310
11
20.354482
21
13.215512
0
LINE
8
Layer 1
10
20.354482
20
13.215512
11
21.447183
21
13.981184
0
LINE
8
Layer 1
10
21.447183
20
13.981184
11
22.623690
21
14.529560
0
LINE
8
Layer 1
10
22.623690
20
14.529560
11
22.534869
21
11.079775
0
LINE
8
Layer 1
10
22.534869
20
11.079775
11
22.299863
21
9.340379
0
LINE
8
Layer 1
10
22.299863
20
9.340379
11
21.827592
21
7.668960
0
LINE
8
Layer 1
10
21.827592
20
7.668960
11
21.300713
21
6.625741
0
LINE
8
Layer 1
10
21.300713
20
6.625741
11
20.642342
21
5.820578
0
LINE
8
Layer 1
10
20.642342
20
5.820578
11
19.908985
21
5.268763
0
LINE
8
Layer 1
10
19.908985
20
5.268763
11
19.157147
21
4.985589
0
LINE
8
Layer 1
10
19.157147
20
4.985589
11
18.443334
21
4.986350
0
LINE
8
Layer 1
10
18.443334
20
4.986350
11
17.824052
21
5.286338
0
LINE
8
Layer 1
10
17.824052
20
5.286338
11
17.355806
21
5.900848
0
LINE
8
Layer 1
10
17.355806
20
5.900848
11
17.095102
21
6.845171
0
LINE
8
Layer 1
10
17.095102
20
6.845171
11
17.095100
21
6.845170
 0 
ENDSEC
 0 
EOF