  0
SECTION
  2
HEADER
  9
$ANGBASE
  50
0.0
  9
$ANGDIR
  70
1
  9
$MEASUREMENT
  70
0
  0
ENDSEC
  0
SECTION
  2
TABLES
  0
TABLE
  2
LTYPE
  70
4
  0
LTYPE
  5
40F
  2
CONTINUOUS
  70
0
  3
Solid line
  72
65
  73
0
  40
0.0
  0
LTYPE
  5
410
  2
DASHDOT
 70
0
  3
Dash Dot ____ _ ____ _
 72
65
 73
4
 40
2.0
 49
1.25
 49
-0.25
 49
0.25
 49
-0.25
  0
LTYPE
  5
411
  2
DASHED
 70
0
  3
Dashed __ __ __ __ __
 72
65
 73
2
 40
0.75
 49
0.5
 49
-0.25
  0
LTYPE
  5
43B
  2
DOTTED
 70
0
  3
Dotted .  .  .  .
 72
65
 73
2
 40
0.2
 49
0.0
 49
-0.2
  0
ENDTAB
  0
TABLE
  2
STYLE
  70
4
  0
STYLE
  2
KICAD
  70
0
  40
0
  41
1
  42
1
  50
0
  71
0
  3
isocp.shx
  0
STYLE
  2
KICADB
  70
0
  40
0
  41
1
  42
1
  50
0
  71
0
  3
isocp.shx
  0
STYLE
  2
KICADI
  70
0
  40
0
  41
1
  42
1
  50
15
  71
0
  3
isocp.shx
  0
STYLE
  2
KICADBI
  70
0
  40
0
  41
1
  42
1
  50
15
  71
0
  3
isocp.shx
  0
ENDTAB
  0
TABLE
  2
LAYER
  70
1
  0
LAYER
  2
BLACK
  70
0
  62
7
  6
CONTINUOUS
  0
ENDTAB
  0
ENDSEC
  0
SECTION
  2
ENTITIES
0
LINE
8
BLACK
6
CONTINUOUS
10
6.43643
20
-2.66086
11
6.43653
21
-2.66086
0
LINE
8
BLACK
6
CONTINUOUS
10
6.43653
20
-2.66086
11
6.44314
21
-2.66131
0
LINE
8
BLACK
6
CONTINUOUS
10
6.44314
20
-2.66131
11
6.44318
21
-2.66131
0
LINE
8
BLACK
6
CONTINUOUS
10
6.44318
20
-2.66131
11
6.44328
21
-2.66133
0
LINE
8
BLACK
6
CONTINUOUS
10
6.44328
20
-2.66133
11
6.44338
21
-2.66133
0
LINE
8
BLACK
6
CONTINUOUS
10
6.44338
20
-2.66133
11
6.44965
21
-2.66229
0
LINE
8
BLACK
6
CONTINUOUS
10
6.44965
20
-2.66229
11
6.44969
21
-2.6623
0
LINE
8
BLACK
6
CONTINUOUS
10
6.44969
20
-2.6623
11
6.44979
21
-2.66233
0
LINE
8
BLACK
6
CONTINUOUS
10
6.44979
20
-2.66233
11
6.4499
21
-2.66234
0
LINE
8
BLACK
6
CONTINUOUS
10
6.4499
20
-2.66234
11
6.45582
21
-2.66379
0
LINE
8
BLACK
6
CONTINUOUS
10
6.45582
20
-2.66379
11
6.45586
21
-2.6638
0
LINE
8
BLACK
6
CONTINUOUS
10
6.45586
20
-2.6638
11
6.456
21
-2.66385
0
LINE
8
BLACK
6
CONTINUOUS
10
6.456
20
-2.66385
11
6.45614
21
-2.66388
0
LINE
8
BLACK
6
CONTINUOUS
10
6.45614
20
-2.66388
11
6.46437
21
-2.66692
0
LINE
8
BLACK
6
CONTINUOUS
10
6.46437
20
-2.66692
11
6.4644
21
-2.66693
0
LINE
8
BLACK
6
CONTINUOUS
10
6.4644
20
-2.66693
11
6.46457
21
-2.66701
0
LINE
8
BLACK
6
CONTINUOUS
10
6.46457
20
-2.66701
11
6.46475
21
-2.66709
0
LINE
8
BLACK
6
CONTINUOUS
10
6.46475
20
-2.66709
11
6.47218
21
-2.6711
0
LINE
8
BLACK
6
CONTINUOUS
10
6.47218
20
-2.6711
11
6.47221
21
-2.67112
0
LINE
8
BLACK
6
CONTINUOUS
10
6.47221
20
-2.67112
11
6.47237
21
-2.67123
0
LINE
8
BLACK
6
CONTINUOUS
10
6.47237
20
-2.67123
11
6.47253
21
-2.67132
0
LINE
8
BLACK
6
CONTINUOUS
10
6.47253
20
-2.67132
11
6.47916
21
-2.67624
0
LINE
8
BLACK
6
CONTINUOUS
10
6.47916
20
-2.67624
11
6.47919
21
-2.67626
0
LINE
8
BLACK
6
CONTINUOUS
10
6.47919
20
-2.67626
11
6.47933
21
-2.67639
0
LINE
8
BLACK
6
CONTINUOUS
10
6.47933
20
-2.67639
11
6.47948
21
-2.67651
0
LINE
8
BLACK
6
CONTINUOUS
10
6.47948
20
-2.67651
11
6.48529
21
-2.68227
0
LINE
8
BLACK
6
CONTINUOUS
10
6.48529
20
-2.68227
11
6.48531
21
-2.68229
0
LINE
8
BLACK
6
CONTINUOUS
10
6.48531
20
-2.68229
11
6.48543
21
-2.68244
0
LINE
8
BLACK
6
CONTINUOUS
10
6.48543
20
-2.68244
11
6.48555
21
-2.68257
0
LINE
8
BLACK
6
CONTINUOUS
10
6.48555
20
-2.68257
11
6.49053
21
-2.68909
0
LINE
8
BLACK
6
CONTINUOUS
10
6.49053
20
-2.68909
11
6.49056
21
-2.68912
0
LINE
8
BLACK
6
CONTINUOUS
10
6.49056
20
-2.68912
11
6.49065
21
-2.68927
0
LINE
8
BLACK
6
CONTINUOUS
10
6.49065
20
-2.68927
11
6.49075
21
-2.68941
0
LINE
8
BLACK
6
CONTINUOUS
10
6.49075
20
-2.68941
11
6.49489
21
-2.69663
0
LINE
8
BLACK
6
CONTINUOUS
10
6.49489
20
-2.69663
11
6.49491
21
-2.69666
0
LINE
8
BLACK
6
CONTINUOUS
10
6.49491
20
-2.69666
11
6.49497
21
-2.69681
0
LINE
8
BLACK
6
CONTINUOUS
10
6.49497
20
-2.69681
11
6.49505
21
-2.69696
0
LINE
8
BLACK
6
CONTINUOUS
10
6.49505
20
-2.69696
11
6.49834
21
-2.7048
0
LINE
8
BLACK
6
CONTINUOUS
10
6.49834
20
-2.7048
11
6.49835
21
-2.70484
0
LINE
8
BLACK
6
CONTINUOUS
10
6.49835
20
-2.70484
11
6.4984
21
-2.70498
0
LINE
8
BLACK
6
CONTINUOUS
10
6.4984
20
-2.70498
11
6.49845
21
-2.70512
0
LINE
8
BLACK
6
CONTINUOUS
10
6.49845
20
-2.70512
11
6.50088
21
-2.71352
0
LINE
8
BLACK
6
CONTINUOUS
10
6.50088
20
-2.71352
11
6.50089
21
-2.71356
0
LINE
8
BLACK
6
CONTINUOUS
10
6.50089
20
-2.71356
11
6.50091
21
-2.71365
0
LINE
8
BLACK
6
CONTINUOUS
10
6.50091
20
-2.71365
11
6.50093
21
-2.71373
0
LINE
8
BLACK
6
CONTINUOUS
10
6.50093
20
-2.71373
11
6.50155
21
-2.71667
0
LINE
8
BLACK
6
CONTINUOUS
10
6.50155
20
-2.71667
11
6.50156
21
-2.71671
0
LINE
8
BLACK
6
CONTINUOUS
10
6.50156
20
-2.71671
11
6.50156
21
-2.71677
0
LINE
8
BLACK
6
CONTINUOUS
10
6.50156
20
-2.71677
11
6.50158
21
-2.71684
0
LINE
8
BLACK
6
CONTINUOUS
10
6.50158
20
-2.71684
11
6.50244
21
-2.72272
0
LINE
8
BLACK
6
CONTINUOUS
10
6.50244
20
-2.72272
11
6.50245
21
-2.72276
0
LINE
8
BLACK
6
CONTINUOUS
10
6.50245
20
-2.72276
11
6.50245
21
-2.72289
0
LINE
8
BLACK
6
CONTINUOUS
10
6.50245
20
-2.72289
11
6.50247
21
-2.72302
0
LINE
8
BLACK
6
CONTINUOUS
10
6.50247
20
-2.72302
11
6.50285
21
-2.73182
0
LINE
8
BLACK
6
CONTINUOUS
10
6.50285
20
-2.73182
11
6.50286
21
-2.73187
0
LINE
8
BLACK
6
CONTINUOUS
10
6.50286
20
-2.73187
11
6.50285
21
-2.73203
0
LINE
8
BLACK
6
CONTINUOUS
10
6.50285
20
-2.73203
11
6.50285
21
-2.73219
0
LINE
8
BLACK
6
CONTINUOUS
10
6.50285
20
-2.73219
11
6.50214
21
-2.74086
0
LINE
8
BLACK
6
CONTINUOUS
10
6.50214
20
-2.74086
11
6.50213
21
-2.7409
0
LINE
8
BLACK
6
CONTINUOUS
10
6.50213
20
-2.7409
11
6.5021
21
-2.74107
0
LINE
8
BLACK
6
CONTINUOUS
10
6.5021
20
-2.74107
11
6.50208
21
-2.74124
0
LINE
8
BLACK
6
CONTINUOUS
10
6.50208
20
-2.74124
11
6.50027
21
-2.74964
0
LINE
8
BLACK
6
CONTINUOUS
10
6.50027
20
-2.74964
11
6.50026
21
-2.74968
0
LINE
8
BLACK
6
CONTINUOUS
10
6.50026
20
-2.74968
11
6.5002
21
-2.74985
0
LINE
8
BLACK
6
CONTINUOUS
10
6.5002
20
-2.74985
11
6.50016
21
-2.75002
0
LINE
8
BLACK
6
CONTINUOUS
10
6.50016
20
-2.75002
11
6.49724
21
-2.75803
0
LINE
8
BLACK
6
CONTINUOUS
10
6.49724
20
-2.75803
11
6.49723
21
-2.75807
0
LINE
8
BLACK
6
CONTINUOUS
10
6.49723
20
-2.75807
11
6.49715
21
-2.75824
0
LINE
8
BLACK
6
CONTINUOUS
10
6.49715
20
-2.75824
11
6.49707
21
-2.75842
0
LINE
8
BLACK
6
CONTINUOUS
10
6.49707
20
-2.75842
11
6.49305
21
-2.76592
0
LINE
8
BLACK
6
CONTINUOUS
10
6.49305
20
-2.76592
11
6.49303
21
-2.76596
0
LINE
8
BLACK
6
CONTINUOUS
10
6.49303
20
-2.76596
11
6.49292
21
-2.76612
0
LINE
8
BLACK
6
CONTINUOUS
10
6.49292
20
-2.76612
11
6.49282
21
-2.76629
0
LINE
8
BLACK
6
CONTINUOUS
10
6.49282
20
-2.76629
11
6.48769
21
-2.77316
0
LINE
8
BLACK
6
CONTINUOUS
10
6.48769
20
-2.77316
11
6.48766
21
-2.77319
0
LINE
8
BLACK
6
CONTINUOUS
10
6.48766
20
-2.77319
11
6.48752
21
-2.77335
0
LINE
8
BLACK
6
CONTINUOUS
10
6.48752
20
-2.77335
11
6.48739
21
-2.7735
0
LINE
8
BLACK
6
CONTINUOUS
10
6.48739
20
-2.7735
11
6.48115
21
-2.77961
0
LINE
8
BLACK
6
CONTINUOUS
10
6.48115
20
-2.77961
11
6.48112
21
-2.77964
0
LINE
8
BLACK
6
CONTINUOUS
10
6.48112
20
-2.77964
11
6.48098
21
-2.77975
0
LINE
8
BLACK
6
CONTINUOUS
10
6.48098
20
-2.77975
11
6.48086
21
-2.77986
0
LINE
8
BLACK
6
CONTINUOUS
10
6.48086
20
-2.77986
11
6.47608
21
-2.78345
0
LINE
8
BLACK
6
CONTINUOUS
10
6.47608
20
-2.78345
11
6.47604
21
-2.78348
0
LINE
8
BLACK
6
CONTINUOUS
10
6.47604
20
-2.78348
11
6.47593
21
-2.78355
0
LINE
8
BLACK
6
CONTINUOUS
10
6.47593
20
-2.78355
11
6.47582
21
-2.78363
0
LINE
8
BLACK
6
CONTINUOUS
10
6.47582
20
-2.78363
11
6.47055
21
-2.78679
0
LINE
8
BLACK
6
CONTINUOUS
10
6.47055
20
-2.78679
11
6.47051
21
-2.78681
0
LINE
8
BLACK
6
CONTINUOUS
10
6.47051
20
-2.78681
11
6.47039
21
-2.78686
0
LINE
8
BLACK
6
CONTINUOUS
10
6.47039
20
-2.78686
11
6.47028
21
-2.78693
0
LINE
8
BLACK
6
CONTINUOUS
10
6.47028
20
-2.78693
11
6.4645
21
-2.78963
0
LINE
8
BLACK
6
CONTINUOUS
10
6.4645
20
-2.78963
11
6.46447
21
-2.78964
0
LINE
8
BLACK
6
CONTINUOUS
10
6.46447
20
-2.78964
11
6.46435
21
-2.78968
0
LINE
8
BLACK
6
CONTINUOUS
10
6.46435
20
-2.78968
11
6.46423
21
-2.78974
0
LINE
8
BLACK
6
CONTINUOUS
10
6.46423
20
-2.78974
11
6.45796
21
-2.79193
0
LINE
8
BLACK
6
CONTINUOUS
10
6.45796
20
-2.79193
11
6.45792
21
-2.79195
0
LINE
8
BLACK
6
CONTINUOUS
10
6.45792
20
-2.79195
11
6.45768
21
-2.792
0
LINE
8
BLACK
6
CONTINUOUS
10
6.45768
20
-2.792
11
6.45744
21
-2.79206
0
LINE
8
BLACK
6
CONTINUOUS
10
6.45744
20
-2.79206
11
6.44201
21
-2.79446
0
LINE
8
BLACK
6
CONTINUOUS
10
6.44201
20
-2.79446
11
6.44197
21
-2.79446
0
LINE
8
BLACK
6
CONTINUOUS
10
6.44197
20
-2.79446
11
6.44197
21
-2.79446
0
LINE
8
BLACK
6
CONTINUOUS
10
6.44197
20
-2.79446
11
6.42693
21
-2.79662
0
LINE
8
BLACK
6
CONTINUOUS
10
6.42693
20
-2.79662
11
6.42691
21
-2.79662
0
LINE
8
BLACK
6
CONTINUOUS
10
6.42691
20
-2.79662
11
6.42691
21
-2.79662
0
LINE
8
BLACK
6
CONTINUOUS
10
6.42691
20
-2.79662
11
6.41225
21
-2.79861
0
LINE
8
BLACK
6
CONTINUOUS
10
6.41225
20
-2.79861
11
6.41224
21
-2.79861
0
LINE
8
BLACK
6
CONTINUOUS
10
6.41224
20
-2.79861
11
6.41224
21
-2.79861
0
LINE
8
BLACK
6
CONTINUOUS
10
6.41224
20
-2.79861
11
6.39798
21
-2.80049
0
LINE
8
BLACK
6
CONTINUOUS
10
6.39798
20
-2.80049
11
6.39798
21
-2.80049
0
LINE
8
BLACK
6
CONTINUOUS
10
6.39798
20
-2.80049
11
6.38413
21
-2.80231
0
LINE
8
BLACK
6
CONTINUOUS
10
6.38413
20
-2.80231
11
6.37069
21
-2.80416
0
LINE
8
BLACK
6
CONTINUOUS
10
6.37069
20
-2.80416
11
6.35766
21
-2.8061
0
LINE
8
BLACK
6
CONTINUOUS
10
6.35766
20
-2.8061
11
6.34506
21
-2.80818
0
LINE
8
BLACK
6
CONTINUOUS
10
6.34506
20
-2.80818
11
6.33289
21
-2.81047
0
LINE
8
BLACK
6
CONTINUOUS
10
6.33289
20
-2.81047
11
6.32116
21
-2.81303
0
LINE
8
BLACK
6
CONTINUOUS
10
6.32116
20
-2.81303
11
6.30986
21
-2.81593
0
LINE
8
BLACK
6
CONTINUOUS
10
6.30986
20
-2.81593
11
6.299
21
-2.81923
0
LINE
8
BLACK
6
CONTINUOUS
10
6.299
20
-2.81923
11
6.28859
21
-2.82299
0
LINE
8
BLACK
6
CONTINUOUS
10
6.28859
20
-2.82299
11
6.27862
21
-2.82728
0
LINE
8
BLACK
6
CONTINUOUS
10
6.27862
20
-2.82728
11
6.2691
21
-2.83214
0
LINE
8
BLACK
6
CONTINUOUS
10
6.2691
20
-2.83214
11
6.26002
21
-2.83766
0
LINE
8
BLACK
6
CONTINUOUS
10
6.26002
20
-2.83766
11
6.25138
21
-2.84389
0
LINE
8
BLACK
6
CONTINUOUS
10
6.25138
20
-2.84389
11
6.24317
21
-2.85089
0
LINE
8
BLACK
6
CONTINUOUS
10
6.24317
20
-2.85089
11
6.2354
21
-2.85875
0
LINE
8
BLACK
6
CONTINUOUS
10
6.2354
20
-2.85875
11
6.22806
21
-2.86752
0
LINE
8
BLACK
6
CONTINUOUS
10
6.22806
20
-2.86752
11
6.22115
21
-2.87729
0
LINE
8
BLACK
6
CONTINUOUS
10
6.22115
20
-2.87729
11
6.21468
21
-2.88812
0
LINE
8
BLACK
6
CONTINUOUS
10
6.21468
20
-2.88812
11
6.20864
21
-2.90007
0
LINE
8
BLACK
6
CONTINUOUS
10
6.20864
20
-2.90007
11
6.20305
21
-2.91323
0
LINE
8
BLACK
6
CONTINUOUS
10
6.20305
20
-2.91323
11
6.19791
21
-2.92766
0
LINE
8
BLACK
6
CONTINUOUS
10
6.19791
20
-2.92766
11
6.19323
21
-2.94342
0
LINE
8
BLACK
6
CONTINUOUS
10
6.19323
20
-2.94342
11
6.18901
21
-2.96057
0
LINE
8
BLACK
6
CONTINUOUS
10
6.18901
20
-2.96057
11
6.18526
21
-2.97919
0
LINE
8
BLACK
6
CONTINUOUS
10
6.18526
20
-2.97919
11
6.18198
21
-2.99933
0
LINE
8
BLACK
6
CONTINUOUS
10
6.18198
20
-2.99933
11
6.17918
21
-3.02107
0
LINE
8
BLACK
6
CONTINUOUS
10
6.17918
20
-3.02107
11
6.17687
21
-3.04446
0
LINE
8
BLACK
6
CONTINUOUS
10
6.17687
20
-3.04446
11
6.17515
21
-3.06816
0
LINE
8
BLACK
6
CONTINUOUS
10
6.17515
20
-3.06816
11
6.19467
21
-3.08587
0
LINE
8
BLACK
6
CONTINUOUS
10
6.19467
20
-3.08587
11
6.1947
21
-3.0859
0
LINE
8
BLACK
6
CONTINUOUS
10
6.1947
20
-3.0859
11
6.19475
21
-3.08596
0
LINE
8
BLACK
6
CONTINUOUS
10
6.19475
20
-3.08596
11
6.19481
21
-3.08601
0
LINE
8
BLACK
6
CONTINUOUS
10
6.19481
20
-3.08601
11
6.21368
21
-3.10561
0
LINE
8
BLACK
6
CONTINUOUS
10
6.21368
20
-3.10561
11
6.21371
21
-3.10564
0
LINE
8
BLACK
6
CONTINUOUS
10
6.21371
20
-3.10564
11
6.21375
21
-3.10571
0
LINE
8
BLACK
6
CONTINUOUS
10
6.21375
20
-3.10571
11
6.21381
21
-3.10576
0
LINE
8
BLACK
6
CONTINUOUS
10
6.21381
20
-3.10576
11
6.23104
21
-3.1262
0
LINE
8
BLACK
6
CONTINUOUS
10
6.23104
20
-3.1262
11
6.23107
21
-3.12623
0
LINE
8
BLACK
6
CONTINUOUS
10
6.23107
20
-3.12623
11
6.23111
21
-3.12629
0
LINE
8
BLACK
6
CONTINUOUS
10
6.23111
20
-3.12629
11
6.23116
21
-3.12635
0
LINE
8
BLACK
6
CONTINUOUS
10
6.23116
20
-3.12635
11
6.24681
21
-3.14752
0
LINE
8
BLACK
6
CONTINUOUS
10
6.24681
20
-3.14752
11
6.24684
21
-3.14755
0
LINE
8
BLACK
6
CONTINUOUS
10
6.24684
20
-3.14755
11
6.24687
21
-3.14761
0
LINE
8
BLACK
6
CONTINUOUS
10
6.24687
20
-3.14761
11
6.24691
21
-3.14767
0
LINE
8
BLACK
6
CONTINUOUS
10
6.24691
20
-3.14767
11
6.26107
21
-3.16947
0
LINE
8
BLACK
6
CONTINUOUS
10
6.26107
20
-3.16947
11
6.26109
21
-3.16951
0
LINE
8
BLACK
6
CONTINUOUS
10
6.26109
20
-3.16951
11
6.26112
21
-3.16957
0
LINE
8
BLACK
6
CONTINUOUS
10
6.26112
20
-3.16957
11
6.26115
21
-3.16962
0
LINE
8
BLACK
6
CONTINUOUS
10
6.26115
20
-3.16962
11
6.27387
21
-3.19196
0
LINE
8
BLACK
6
CONTINUOUS
10
6.27387
20
-3.19196
11
6.27389
21
-3.19199
0
LINE
8
BLACK
6
CONTINUOUS
10
6.27389
20
-3.19199
11
6.27392
21
-3.19205
0
LINE
8
BLACK
6
CONTINUOUS
10
6.27392
20
-3.19205
11
6.27395
21
-3.1921
0
LINE
8
BLACK
6
CONTINUOUS
10
6.27395
20
-3.1921
11
6.2853
21
-3.21487
0
LINE
8
BLACK
6
CONTINUOUS
10
6.2853
20
-3.21487
11
6.28532
21
-3.21491
0
LINE
8
BLACK
6
CONTINUOUS
10
6.28532
20
-3.21491
11
6.28534
21
-3.21496
0
LINE
8
BLACK
6
CONTINUOUS
10
6.28534
20
-3.21496
11
6.28537
21
-3.21501
0
LINE
8
BLACK
6
CONTINUOUS
10
6.28537
20
-3.21501
11
6.29542
21
-3.23812
0
LINE
8
BLACK
6
CONTINUOUS
10
6.29542
20
-3.23812
11
6.29544
21
-3.23815
0
LINE
8
BLACK
6
CONTINUOUS
10
6.29544
20
-3.23815
11
6.29546
21
-3.2382
0
LINE
8
BLACK
6
CONTINUOUS
10
6.29546
20
-3.2382
11
6.29548
21
-3.23825
0
LINE
8
BLACK
6
CONTINUOUS
10
6.29548
20
-3.23825
11
6.30431
21
-3.26159
0
LINE
8
BLACK
6
CONTINUOUS
10
6.30431
20
-3.26159
11
6.30433
21
-3.26163
0
LINE
8
BLACK
6
CONTINUOUS
10
6.30433
20
-3.26163
11
6.30434
21
-3.26167
0
LINE
8
BLACK
6
CONTINUOUS
10
6.30434
20
-3.26167
11
6.30436
21
-3.26172
0
LINE
8
BLACK
6
CONTINUOUS
10
6.30436
20
-3.26172
11
6.31203
21
-3.28519
0
LINE
8
BLACK
6
CONTINUOUS
10
6.31203
20
-3.28519
11
6.31204
21
-3.28522
0
LINE
8
BLACK
6
CONTINUOUS
10
6.31204
20
-3.28522
11
6.31205
21
-3.28527
0
LINE
8
BLACK
6
CONTINUOUS
10
6.31205
20
-3.28527
11
6.31207
21
-3.28531
0
LINE
8
BLACK
6
CONTINUOUS
10
6.31207
20
-3.28531
11
6.31866
21
-3.30881
0
LINE
8
BLACK
6
CONTINUOUS
10
6.31866
20
-3.30881
11
6.31867
21
-3.30885
0
LINE
8
BLACK
6
CONTINUOUS
10
6.31867
20
-3.30885
11
6.31867
21
-3.30889
0
LINE
8
BLACK
6
CONTINUOUS
10
6.31867
20
-3.30889
11
6.31869
21
-3.30892
0
LINE
8
BLACK
6
CONTINUOUS
10
6.31869
20
-3.30892
11
6.32426
21
-3.33236
0
LINE
8
BLACK
6
CONTINUOUS
10
6.32426
20
-3.33236
11
6.32426
21
-3.3324
0
LINE
8
BLACK
6
CONTINUOUS
10
6.32426
20
-3.3324
11
6.32427
21
-3.33243
0
LINE
8
BLACK
6
CONTINUOUS
10
6.32427
20
-3.33243
11
6.32428
21
-3.33247
0
LINE
8
BLACK
6
CONTINUOUS
10
6.32428
20
-3.33247
11
6.3289
21
-3.35574
0
LINE
8
BLACK
6
CONTINUOUS
10
6.3289
20
-3.35574
11
6.32891
21
-3.35578
0
LINE
8
BLACK
6
CONTINUOUS
10
6.32891
20
-3.35578
11
6.32891
21
-3.35581
0
LINE
8
BLACK
6
CONTINUOUS
10
6.32891
20
-3.35581
11
6.32892
21
-3.35584
0
LINE
8
BLACK
6
CONTINUOUS
10
6.32892
20
-3.35584
11
6.33266
21
-3.37884
0
LINE
8
BLACK
6
CONTINUOUS
10
6.33266
20
-3.37884
11
6.33267
21
-3.37888
0
LINE
8
BLACK
6
CONTINUOUS
10
6.33267
20
-3.37888
11
6.33267
21
-3.37891
0
LINE
8
BLACK
6
CONTINUOUS
10
6.33267
20
-3.37891
11
6.33268
21
-3.37893
0
LINE
8
BLACK
6
CONTINUOUS
10
6.33268
20
-3.37893
11
6.33561
21
-3.40157
0
LINE
8
BLACK
6
CONTINUOUS
10
6.33561
20
-3.40157
11
6.33561
21
-3.40161
0
LINE
8
BLACK
6
CONTINUOUS
10
6.33561
20
-3.40161
11
6.33561
21
-3.40163
0
LINE
8
BLACK
6
CONTINUOUS
10
6.33561
20
-3.40163
11
6.33562
21
-3.40165
0
LINE
8
BLACK
6
CONTINUOUS
10
6.33562
20
-3.40165
11
6.33781
21
-3.42382
0
LINE
8
BLACK
6
CONTINUOUS
10
6.33781
20
-3.42382
11
6.33782
21
-3.42386
0
LINE
8
BLACK
6
CONTINUOUS
10
6.33782
20
-3.42386
11
6.33782
21
-3.42388
0
LINE
8
BLACK
6
CONTINUOUS
10
6.33782
20
-3.42388
11
6.33782
21
-3.4239
0
LINE
8
BLACK
6
CONTINUOUS
10
6.33782
20
-3.4239
11
6.33934
21
-3.4455
0
LINE
8
BLACK
6
CONTINUOUS
10
6.33934
20
-3.4455
11
6.33935
21
-3.44554
0
LINE
8
BLACK
6
CONTINUOUS
10
6.33935
20
-3.44554
11
6.33934
21
-3.44556
0
LINE
8
BLACK
6
CONTINUOUS
10
6.33934
20
-3.44556
11
6.33935
21
-3.44558
0
LINE
8
BLACK
6
CONTINUOUS
10
6.33935
20
-3.44558
11
6.34027
21
-3.46651
0
LINE
8
BLACK
6
CONTINUOUS
10
6.34027
20
-3.46651
11
6.34027
21
-3.46655
0
LINE
8
BLACK
6
CONTINUOUS
10
6.34027
20
-3.46655
11
6.34027
21
-3.46657
0
LINE
8
BLACK
6
CONTINUOUS
10
6.34027
20
-3.46657
11
6.34027
21
-3.46658
0
LINE
8
BLACK
6
CONTINUOUS
10
6.34027
20
-3.46658
11
6.34066
21
-3.48674
0
LINE
8
BLACK
6
CONTINUOUS
10
6.34066
20
-3.48674
11
6.34066
21
-3.48678
0
LINE
8
BLACK
6
CONTINUOUS
10
6.34066
20
-3.48678
11
6.34066
21
-3.4868
0
LINE
8
BLACK
6
CONTINUOUS
10
6.34066
20
-3.4868
11
6.34066
21
-3.48681
0
LINE
8
BLACK
6
CONTINUOUS
10
6.34066
20
-3.48681
11
6.34059
21
-3.5061
0
LINE
8
BLACK
6
CONTINUOUS
10
6.34059
20
-3.5061
11
6.34059
21
-3.50615
0
LINE
8
BLACK
6
CONTINUOUS
10
6.34059
20
-3.50615
11
6.34059
21
-3.50616
0
LINE
8
BLACK
6
CONTINUOUS
10
6.34059
20
-3.50616
11
6.34059
21
-3.50617
0
LINE
8
BLACK
6
CONTINUOUS
10
6.34059
20
-3.50617
11
6.34012
21
-3.52449
0
LINE
8
BLACK
6
CONTINUOUS
10
6.34012
20
-3.52449
11
6.34012
21
-3.52453
0
LINE
8
BLACK
6
CONTINUOUS
10
6.34012
20
-3.52453
11
6.34012
21
-3.52454
0
LINE
8
BLACK
6
CONTINUOUS
10
6.34012
20
-3.52454
11
6.34012
21
-3.52455
0
LINE
8
BLACK
6
CONTINUOUS
10
6.34012
20
-3.52455
11
6.33933
21
-3.54181
0
LINE
8
BLACK
6
CONTINUOUS
10
6.33933
20
-3.54181
11
6.33933
21
-3.54185
0
LINE
8
BLACK
6
CONTINUOUS
10
6.33933
20
-3.54185
11
6.33933
21
-3.54186
0
LINE
8
BLACK
6
CONTINUOUS
10
6.33933
20
-3.54186
11
6.33933
21
-3.54187
0
LINE
8
BLACK
6
CONTINUOUS
10
6.33933
20
-3.54187
11
6.33828
21
-3.55795
0
LINE
8
BLACK
6
CONTINUOUS
10
6.33828
20
-3.55795
11
6.33828
21
-3.558
0
LINE
8
BLACK
6
CONTINUOUS
10
6.33828
20
-3.558
11
6.33828
21
-3.558
0
LINE
8
BLACK
6
CONTINUOUS
10
6.33828
20
-3.558
11
6.33828
21
-3.55801
0
LINE
8
BLACK
6
CONTINUOUS
10
6.33828
20
-3.55801
11
6.33705
21
-3.57283
0
LINE
8
BLACK
6
CONTINUOUS
10
6.33705
20
-3.57283
11
6.33705
21
-3.57287
0
LINE
8
BLACK
6
CONTINUOUS
10
6.33705
20
-3.57287
11
6.33705
21
-3.57287
0
LINE
8
BLACK
6
CONTINUOUS
10
6.33705
20
-3.57287
11
6.33705
21
-3.57288
0
LINE
8
BLACK
6
CONTINUOUS
10
6.33705
20
-3.57288
11
6.3357
21
-3.58633
0
LINE
8
BLACK
6
CONTINUOUS
10
6.3357
20
-3.58633
11
6.3357
21
-3.58637
0
LINE
8
BLACK
6
CONTINUOUS
10
6.3357
20
-3.58637
11
6.3357
21
-3.58637
0
LINE
8
BLACK
6
CONTINUOUS
10
6.3357
20
-3.58637
11
6.3357
21
-3.58637
0
LINE
8
BLACK
6
CONTINUOUS
10
6.3357
20
-3.58637
11
6.33431
21
-3.59836
0
LINE
8
BLACK
6
CONTINUOUS
10
6.33431
20
-3.59836
11
6.3343
21
-3.5984
0
LINE
8
BLACK
6
CONTINUOUS
10
6.3343
20
-3.5984
11
6.3343
21
-3.5984
0
LINE
8
BLACK
6
CONTINUOUS
10
6.3343
20
-3.5984
11
6.3343
21
-3.5984
0
LINE
8
BLACK
6
CONTINUOUS
10
6.3343
20
-3.5984
11
6.33293
21
-3.60881
0
LINE
8
BLACK
6
CONTINUOUS
10
6.33293
20
-3.60881
11
6.33293
21
-3.60886
0
LINE
8
BLACK
6
CONTINUOUS
10
6.33293
20
-3.60886
11
6.33293
21
-3.60886
0
LINE
8
BLACK
6
CONTINUOUS
10
6.33293
20
-3.60886
11
6.33293
21
-3.60886
0
LINE
8
BLACK
6
CONTINUOUS
10
6.33293
20
-3.60886
11
6.33165
21
-3.6176
0
LINE
8
BLACK
6
CONTINUOUS
10
6.33165
20
-3.6176
11
6.33165
21
-3.61764
0
LINE
8
BLACK
6
CONTINUOUS
10
6.33165
20
-3.61764
11
6.33165
21
-3.61764
0
LINE
8
BLACK
6
CONTINUOUS
10
6.33165
20
-3.61764
11
6.33054
21
-3.62462
0
LINE
8
BLACK
6
CONTINUOUS
10
6.33054
20
-3.62462
11
6.33053
21
-3.62466
0
LINE
8
BLACK
6
CONTINUOUS
10
6.33053
20
-3.62466
11
6.33053
21
-3.62466
0
LINE
8
BLACK
6
CONTINUOUS
10
6.33053
20
-3.62466
11
6.33053
21
-3.62467
0
LINE
8
BLACK
6
CONTINUOUS
10
6.33053
20
-3.62467
11
6.32914
21
-3.63243
0
LINE
8
BLACK
6
CONTINUOUS
10
6.32914
20
-3.63243
11
6.37925
21
-3.68071
0
LINE
8
BLACK
6
CONTINUOUS
10
6.37925
20
-3.68071
11
6.37928
21
-3.68074
0
LINE
8
BLACK
6
CONTINUOUS
10
6.37928
20
-3.68074
11
6.37929
21
-3.68075
0
LINE
8
BLACK
6
CONTINUOUS
10
6.37929
20
-3.68075
11
6.3793
21
-3.68076
0
LINE
8
BLACK
6
CONTINUOUS
10
6.3793
20
-3.68076
11
6.42696
21
-3.72902
0
LINE
8
BLACK
6
CONTINUOUS
10
6.42696
20
-3.72902
11
6.42699
21
-3.72905
0
LINE
8
BLACK
6
CONTINUOUS
10
6.42699
20
-3.72905
11
6.427
21
-3.72906
0
LINE
8
BLACK
6
CONTINUOUS
10
6.427
20
-3.72906
11
6.42701
21
-3.72907
0
LINE
8
BLACK
6
CONTINUOUS
10
6.42701
20
-3.72907
11
6.47122
21
-3.77619
0
LINE
8
BLACK
6
CONTINUOUS
10
6.47122
20
-3.77619
11
6.47124
21
-3.77622
0
LINE
8
BLACK
6
CONTINUOUS
10
6.47124
20
-3.77622
11
6.47125
21
-3.77623
0
LINE
8
BLACK
6
CONTINUOUS
10
6.47125
20
-3.77623
11
6.47127
21
-3.77624
0
LINE
8
BLACK
6
CONTINUOUS
10
6.47127
20
-3.77624
11
6.51214
21
-3.82218
0
LINE
8
BLACK
6
CONTINUOUS
10
6.51214
20
-3.82218
11
6.51217
21
-3.82221
0
LINE
8
BLACK
6
CONTINUOUS
10
6.51217
20
-3.82221
11
6.51218
21
-3.82222
0
LINE
8
BLACK
6
CONTINUOUS
10
6.51218
20
-3.82222
11
6.51219
21
-3.82224
0
LINE
8
BLACK
6
CONTINUOUS
10
6.51219
20
-3.82224
11
6.54986
21
-3.86696
0
LINE
8
BLACK
6
CONTINUOUS
10
6.54986
20
-3.86696
11
6.54989
21
-3.867
0
LINE
8
BLACK
6
CONTINUOUS
10
6.54989
20
-3.867
11
6.5499
21
-3.86701
0
LINE
8
BLACK
6
CONTINUOUS
10
6.5499
20
-3.86701
11
6.54991
21
-3.86703
0
LINE
8
BLACK
6
CONTINUOUS
10
6.54991
20
-3.86703
11
6.58451
21
-3.91052
0
LINE
8
BLACK
6
CONTINUOUS
10
6.58451
20
-3.91052
11
6.58454
21
-3.91055
0
LINE
8
BLACK
6
CONTINUOUS
10
6.58454
20
-3.91055
11
6.58455
21
-3.91057
0
LINE
8
BLACK
6
CONTINUOUS
10
6.58455
20
-3.91057
11
6.58456
21
-3.91059
0
LINE
8
BLACK
6
CONTINUOUS
10
6.58456
20
-3.91059
11
6.61621
21
-3.95281
0
LINE
8
BLACK
6
CONTINUOUS
10
6.61621
20
-3.95281
11
6.61624
21
-3.95285
0
LINE
8
BLACK
6
CONTINUOUS
10
6.61624
20
-3.95285
11
6.61625
21
-3.95287
0
LINE
8
BLACK
6
CONTINUOUS
10
6.61625
20
-3.95287
11
6.61626
21
-3.95288
0
LINE
8
BLACK
6
CONTINUOUS
10
6.61626
20
-3.95288
11
6.6451
21
-3.99382
0
LINE
8
BLACK
6
CONTINUOUS
10
6.6451
20
-3.99382
11
6.64512
21
-3.99385
0
LINE
8
BLACK
6
CONTINUOUS
10
6.64512
20
-3.99385
11
6.64514
21
-3.99387
0
LINE
8
BLACK
6
CONTINUOUS
10
6.64514
20
-3.99387
11
6.64515
21
-3.99389
0
LINE
8
BLACK
6
CONTINUOUS
10
6.64515
20
-3.99389
11
6.6713
21
-4.0335
0
LINE
8
BLACK
6
CONTINUOUS
10
6.6713
20
-4.0335
11
6.67132
21
-4.03353
0
LINE
8
BLACK
6
CONTINUOUS
10
6.67132
20
-4.03353
11
6.67133
21
-4.03355
0
LINE
8
BLACK
6
CONTINUOUS
10
6.67133
20
-4.03355
11
6.67135
21
-4.03357
0
LINE
8
BLACK
6
CONTINUOUS
10
6.67135
20
-4.03357
11
6.69494
21
-4.07183
0
LINE
8
BLACK
6
CONTINUOUS
10
6.69494
20
-4.07183
11
6.69496
21
-4.07186
0
LINE
8
BLACK
6
CONTINUOUS
10
6.69496
20
-4.07186
11
6.69497
21
-4.07189
0
LINE
8
BLACK
6
CONTINUOUS
10
6.69497
20
-4.07189
11
6.69499
21
-4.07191
0
LINE
8
BLACK
6
CONTINUOUS
10
6.69499
20
-4.07191
11
6.71615
21
-4.10878
0
LINE
8
BLACK
6
CONTINUOUS
10
6.71615
20
-4.10878
11
6.71617
21
-4.10881
0
LINE
8
BLACK
6
CONTINUOUS
10
6.71617
20
-4.10881
11
6.71618
21
-4.10884
0
LINE
8
BLACK
6
CONTINUOUS
10
6.71618
20
-4.10884
11
6.71619
21
-4.10886
0
LINE
8
BLACK
6
CONTINUOUS
10
6.71619
20
-4.10886
11
6.73505
21
-4.14432
0
LINE
8
BLACK
6
CONTINUOUS
10
6.73505
20
-4.14432
11
6.73507
21
-4.14436
0
LINE
8
BLACK
6
CONTINUOUS
10
6.73507
20
-4.14436
11
6.73508
21
-4.14438
0
LINE
8
BLACK
6
CONTINUOUS
10
6.73508
20
-4.14438
11
6.7351
21
-4.14441
0
LINE
8
BLACK
6
CONTINUOUS
10
6.7351
20
-4.14441
11
6.75178
21
-4.17842
0
LINE
8
BLACK
6
CONTINUOUS
10
6.75178
20
-4.17842
11
6.7518
21
-4.17846
0
LINE
8
BLACK
6
CONTINUOUS
10
6.7518
20
-4.17846
11
6.75181
21
-4.17849
0
LINE
8
BLACK
6
CONTINUOUS
10
6.75181
20
-4.17849
11
6.75182
21
-4.17851
0
LINE
8
BLACK
6
CONTINUOUS
10
6.75182
20
-4.17851
11
6.76646
21
-4.21106
0
LINE
8
BLACK
6
CONTINUOUS
10
6.76646
20
-4.21106
11
6.76648
21
-4.21109
0
LINE
8
BLACK
6
CONTINUOUS
10
6.76648
20
-4.21109
11
6.76649
21
-4.21112
0
LINE
8
BLACK
6
CONTINUOUS
10
6.76649
20
-4.21112
11
6.7665
21
-4.21115
0
LINE
8
BLACK
6
CONTINUOUS
10
6.7665
20
-4.21115
11
6.77923
21
-4.24219
0
LINE
8
BLACK
6
CONTINUOUS
10
6.77923
20
-4.24219
11
6.77924
21
-4.24223
0
LINE
8
BLACK
6
CONTINUOUS
10
6.77924
20
-4.24223
11
6.77925
21
-4.24226
0
LINE
8
BLACK
6
CONTINUOUS
10
6.77925
20
-4.24226
11
6.77926
21
-4.24228
0
LINE
8
BLACK
6
CONTINUOUS
10
6.77926
20
-4.24228
11
6.7902
21
-4.2718
0
LINE
8
BLACK
6
CONTINUOUS
10
6.7902
20
-4.2718
11
6.79021
21
-4.27184
0
LINE
8
BLACK
6
CONTINUOUS
10
6.79021
20
-4.27184
11
6.79022
21
-4.27186
0
LINE
8
BLACK
6
CONTINUOUS
10
6.79022
20
-4.27186
11
6.79023
21
-4.27189
0
LINE
8
BLACK
6
CONTINUOUS
10
6.79023
20
-4.27189
11
6.79951
21
-4.29984
0
LINE
8
BLACK
6
CONTINUOUS
10
6.79951
20
-4.29984
11
6.79953
21
-4.29988
0
LINE
8
BLACK
6
CONTINUOUS
10
6.79953
20
-4.29988
11
6.79953
21
-4.29991
0
LINE
8
BLACK
6
CONTINUOUS
10
6.79953
20
-4.29991
11
6.79954
21
-4.29994
0
LINE
8
BLACK
6
CONTINUOUS
10
6.79954
20
-4.29994
11
6.80729
21
-4.3263
0
LINE
8
BLACK
6
CONTINUOUS
10
6.80729
20
-4.3263
11
6.8073
21
-4.32634
0
LINE
8
BLACK
6
CONTINUOUS
10
6.8073
20
-4.32634
11
6.80731
21
-4.32637
0
LINE
8
BLACK
6
CONTINUOUS
10
6.80731
20
-4.32637
11
6.80732
21
-4.3264
0
LINE
8
BLACK
6
CONTINUOUS
10
6.80732
20
-4.3264
11
6.81367
21
-4.35115
0
LINE
8
BLACK
6
CONTINUOUS
10
6.81367
20
-4.35115
11
6.81368
21
-4.35119
0
LINE
8
BLACK
6
CONTINUOUS
10
6.81368
20
-4.35119
11
6.81368
21
-4.35122
0
LINE
8
BLACK
6
CONTINUOUS
10
6.81368
20
-4.35122
11
6.81369
21
-4.35125
0
LINE
8
BLACK
6
CONTINUOUS
10
6.81369
20
-4.35125
11
6.81876
21
-4.37434
0
LINE
8
BLACK
6
CONTINUOUS
10
6.81876
20
-4.37434
11
6.81877
21
-4.37438
0
LINE
8
BLACK
6
CONTINUOUS
10
6.81877
20
-4.37438
11
6.81877
21
-4.37441
0
LINE
8
BLACK
6
CONTINUOUS
10
6.81877
20
-4.37441
11
6.81878
21
-4.37444
0
LINE
8
BLACK
6
CONTINUOUS
10
6.81878
20
-4.37444
11
6.82271
21
-4.39586
0
LINE
8
BLACK
6
CONTINUOUS
10
6.82271
20
-4.39586
11
6.82272
21
-4.3959
0
LINE
8
BLACK
6
CONTINUOUS
10
6.82272
20
-4.3959
11
6.82272
21
-4.39593
0
LINE
8
BLACK
6
CONTINUOUS
10
6.82272
20
-4.39593
11
6.82273
21
-4.39596
0
LINE
8
BLACK
6
CONTINUOUS
10
6.82273
20
-4.39596
11
6.82564
21
-4.41567
0
LINE
8
BLACK
6
CONTINUOUS
10
6.82564
20
-4.41567
11
6.82565
21
-4.41571
0
LINE
8
BLACK
6
CONTINUOUS
10
6.82565
20
-4.41571
11
6.82565
21
-4.41574
0
LINE
8
BLACK
6
CONTINUOUS
10
6.82565
20
-4.41574
11
6.82565
21
-4.41577
0
LINE
8
BLACK
6
CONTINUOUS
10
6.82565
20
-4.41577
11
6.82768
21
-4.43374
0
LINE
8
BLACK
6
CONTINUOUS
10
6.82768
20
-4.43374
11
6.82768
21
-4.43378
0
LINE
8
BLACK
6
CONTINUOUS
10
6.82768
20
-4.43378
11
6.82768
21
-4.43381
0
LINE
8
BLACK
6
CONTINUOUS
10
6.82768
20
-4.43381
11
6.82769
21
-4.43384
0
LINE
8
BLACK
6
CONTINUOUS
10
6.82769
20
-4.43384
11
6.82895
21
-4.45005
0
LINE
8
BLACK
6
CONTINUOUS
10
6.82895
20
-4.45005
11
6.82896
21
-4.45009
0
LINE
8
BLACK
6
CONTINUOUS
10
6.82896
20
-4.45009
11
6.82896
21
-4.45012
0
LINE
8
BLACK
6
CONTINUOUS
10
6.82896
20
-4.45012
11
6.82896
21
-4.45015
0
LINE
8
BLACK
6
CONTINUOUS
10
6.82896
20
-4.45015
11
6.8296
21
-4.46456
0
LINE
8
BLACK
6
CONTINUOUS
10
6.8296
20
-4.46456
11
6.8296
21
-4.4646
0
LINE
8
BLACK
6
CONTINUOUS
10
6.8296
20
-4.4646
11
6.8296
21
-4.46463
0
LINE
8
BLACK
6
CONTINUOUS
10
6.8296
20
-4.46463
11
6.8296
21
-4.46466
0
LINE
8
BLACK
6
CONTINUOUS
10
6.8296
20
-4.46466
11
6.82973
21
-4.47724
0
LINE
8
BLACK
6
CONTINUOUS
10
6.82973
20
-4.47724
11
6.82973
21
-4.47728
0
LINE
8
BLACK
6
CONTINUOUS
10
6.82973
20
-4.47728
11
6.82973
21
-4.47731
0
LINE
8
BLACK
6
CONTINUOUS
10
6.82973
20
-4.47731
11
6.82973
21
-4.47734
0
LINE
8
BLACK
6
CONTINUOUS
10
6.82973
20
-4.47734
11
6.82949
21
-4.48807
0
LINE
8
BLACK
6
CONTINUOUS
10
6.82949
20
-4.48807
11
6.82949
21
-4.48811
0
LINE
8
BLACK
6
CONTINUOUS
10
6.82949
20
-4.48811
11
6.82949
21
-4.48814
0
LINE
8
BLACK
6
CONTINUOUS
10
6.82949
20
-4.48814
11
6.82949
21
-4.48816
0
LINE
8
BLACK
6
CONTINUOUS
10
6.82949
20
-4.48816
11
6.829
21
-4.49701
0
LINE
8
BLACK
6
CONTINUOUS
10
6.829
20
-4.49701
11
6.829
21
-4.49705
0
LINE
8
BLACK
6
CONTINUOUS
10
6.829
20
-4.49705
11
6.829
21
-4.49707
0
LINE
8
BLACK
6
CONTINUOUS
10
6.829
20
-4.49707
11
6.829
21
-4.4971
0
LINE
8
BLACK
6
CONTINUOUS
10
6.829
20
-4.4971
11
6.8284
21
-4.50403
0
LINE
8
BLACK
6
CONTINUOUS
10
6.8284
20
-4.50403
11
6.82839
21
-4.50407
0
LINE
8
BLACK
6
CONTINUOUS
10
6.82839
20
-4.50407
11
6.82838
21
-4.50412
0
LINE
8
BLACK
6
CONTINUOUS
10
6.82838
20
-4.50412
11
6.82838
21
-4.50417
0
LINE
8
BLACK
6
CONTINUOUS
10
6.82838
20
-4.50417
11
6.82722
21
-4.51283
0
LINE
8
BLACK
6
CONTINUOUS
10
6.82722
20
-4.51283
11
6.82782
21
-4.5186
0
LINE
8
BLACK
6
CONTINUOUS
10
6.82782
20
-4.5186
11
6.82782
21
-4.51864
0
LINE
8
BLACK
6
CONTINUOUS
10
6.82782
20
-4.51864
11
6.82782
21
-4.51865
0
LINE
8
BLACK
6
CONTINUOUS
10
6.82782
20
-4.51865
11
6.82782
21
-4.51866
0
LINE
8
BLACK
6
CONTINUOUS
10
6.82782
20
-4.51866
11
6.82844
21
-4.52599
0
LINE
8
BLACK
6
CONTINUOUS
10
6.82844
20
-4.52599
11
6.82844
21
-4.52603
0
LINE
8
BLACK
6
CONTINUOUS
10
6.82844
20
-4.52603
11
6.82844
21
-4.52604
0
LINE
8
BLACK
6
CONTINUOUS
10
6.82844
20
-4.52604
11
6.82844
21
-4.52604
0
LINE
8
BLACK
6
CONTINUOUS
10
6.82844
20
-4.52604
11
6.82909
21
-4.53595
0
LINE
8
BLACK
6
CONTINUOUS
10
6.82909
20
-4.53595
11
6.8291
21
-4.53599
0
LINE
8
BLACK
6
CONTINUOUS
10
6.8291
20
-4.53599
11
6.8291
21
-4.536
0
LINE
8
BLACK
6
CONTINUOUS
10
6.8291
20
-4.536
11
6.8291
21
-4.53601
0
LINE
8
BLACK
6
CONTINUOUS
10
6.8291
20
-4.53601
11
6.82966
21
-4.54829
0
LINE
8
BLACK
6
CONTINUOUS
10
6.82966
20
-4.54829
11
6.82966
21
-4.54833
0
LINE
8
BLACK
6
CONTINUOUS
10
6.82966
20
-4.54833
11
6.82966
21
-4.54834
0
LINE
8
BLACK
6
CONTINUOUS
10
6.82966
20
-4.54834
11
6.82966
21
-4.54835
0
LINE
8
BLACK
6
CONTINUOUS
10
6.82966
20
-4.54835
11
6.83002
21
-4.56279
0
LINE
8
BLACK
6
CONTINUOUS
10
6.83002
20
-4.56279
11
6.83002
21
-4.56283
0
LINE
8
BLACK
6
CONTINUOUS
10
6.83002
20
-4.56283
11
6.83002
21
-4.56284
0
LINE
8
BLACK
6
CONTINUOUS
10
6.83002
20
-4.56284
11
6.83002
21
-4.56285
0
LINE
8
BLACK
6
CONTINUOUS
10
6.83002
20
-4.56285
11
6.83005
21
-4.57925
0
LINE
8
BLACK
6
CONTINUOUS
10
6.83005
20
-4.57925
11
6.83005
21
-4.57929
0
LINE
8
BLACK
6
CONTINUOUS
10
6.83005
20
-4.57929
11
6.83005
21
-4.5793
0
LINE
8
BLACK
6
CONTINUOUS
10
6.83005
20
-4.5793
11
6.83005
21
-4.57932
0
LINE
8
BLACK
6
CONTINUOUS
10
6.83005
20
-4.57932
11
6.82962
21
-4.59746
0
LINE
8
BLACK
6
CONTINUOUS
10
6.82962
20
-4.59746
11
6.82962
21
-4.5975
0
LINE
8
BLACK
6
CONTINUOUS
10
6.82962
20
-4.5975
11
6.82962
21
-4.59752
0
LINE
8
BLACK
6
CONTINUOUS
10
6.82962
20
-4.59752
11
6.82962
21
-4.59754
0
LINE
8
BLACK
6
CONTINUOUS
10
6.82962
20
-4.59754
11
6.82862
21
-4.61721
0
LINE
8
BLACK
6
CONTINUOUS
10
6.82862
20
-4.61721
11
6.82862
21
-4.61725
0
LINE
8
BLACK
6
CONTINUOUS
10
6.82862
20
-4.61725
11
6.82862
21
-4.61728
0
LINE
8
BLACK
6
CONTINUOUS
10
6.82862
20
-4.61728
11
6.82862
21
-4.6173
0
LINE
8
BLACK
6
CONTINUOUS
10
6.82862
20
-4.6173
11
6.82692
21
-4.63831
0
LINE
8
BLACK
6
CONTINUOUS
10
6.82692
20
-4.63831
11
6.82692
21
-4.63835
0
LINE
8
BLACK
6
CONTINUOUS
10
6.82692
20
-4.63835
11
6.82692
21
-4.63837
0
LINE
8
BLACK
6
CONTINUOUS
10
6.82692
20
-4.63837
11
6.82692
21
-4.6384
0
LINE
8
BLACK
6
CONTINUOUS
10
6.82692
20
-4.6384
11
6.82441
21
-4.66053
0
LINE
8
BLACK
6
CONTINUOUS
10
6.82441
20
-4.66053
11
6.8244
21
-4.66057
0
LINE
8
BLACK
6
CONTINUOUS
10
6.8244
20
-4.66057
11
6.82439
21
-4.6606
0
LINE
8
BLACK
6
CONTINUOUS
10
6.82439
20
-4.6606
11
6.82439
21
-4.66064
0
LINE
8
BLACK
6
CONTINUOUS
10
6.82439
20
-4.66064
11
6.82095
21
-4.68369
0
LINE
8
BLACK
6
CONTINUOUS
10
6.82095
20
-4.68369
11
6.82094
21
-4.68373
0
LINE
8
BLACK
6
CONTINUOUS
10
6.82094
20
-4.68373
11
6.82093
21
-4.68376
0
LINE
8
BLACK
6
CONTINUOUS
10
6.82093
20
-4.68376
11
6.82093
21
-4.6838
0
LINE
8
BLACK
6
CONTINUOUS
10
6.82093
20
-4.6838
11
6.81642
21
-4.70756
0
LINE
8
BLACK
6
CONTINUOUS
10
6.81642
20
-4.70756
11
6.81641
21
-4.7076
0
LINE
8
BLACK
6
CONTINUOUS
10
6.81641
20
-4.7076
11
6.8164
21
-4.70764
0
LINE
8
BLACK
6
CONTINUOUS
10
6.8164
20
-4.70764
11
6.81639
21
-4.70768
0
LINE
8
BLACK
6
CONTINUOUS
10
6.81639
20
-4.70768
11
6.81071
21
-4.73195
0
LINE
8
BLACK
6
CONTINUOUS
10
6.81071
20
-4.73195
11
6.8107
21
-4.73199
0
LINE
8
BLACK
6
CONTINUOUS
10
6.8107
20
-4.73199
11
6.81068
21
-4.73203
0
LINE
8
BLACK
6
CONTINUOUS
10
6.81068
20
-4.73203
11
6.81067
21
-4.73208
0
LINE
8
BLACK
6
CONTINUOUS
10
6.81067
20
-4.73208
11
6.80368
21
-4.75664
0
LINE
8
BLACK
6
CONTINUOUS
10
6.80368
20
-4.75664
11
6.80367
21
-4.75668
0
LINE
8
BLACK
6
CONTINUOUS
10
6.80367
20
-4.75668
11
6.80365
21
-4.75673
0
LINE
8
BLACK
6
CONTINUOUS
10
6.80365
20
-4.75673
11
6.80363
21
-4.75679
0
LINE
8
BLACK
6
CONTINUOUS
10
6.80363
20
-4.75679
11
6.79522
21
-4.78143
0
LINE
8
BLACK
6
CONTINUOUS
10
6.79522
20
-4.78143
11
6.7952
21
-4.78147
0
LINE
8
BLACK
6
CONTINUOUS
10
6.7952
20
-4.78147
11
6.79518
21
-4.78153
0
LINE
8
BLACK
6
CONTINUOUS
10
6.79518
20
-4.78153
11
6.79516
21
-4.78159
0
LINE
8
BLACK
6
CONTINUOUS
10
6.79516
20
-4.78159
11
6.7852
21
-4.80612
0
LINE
8
BLACK
6
CONTINUOUS
10
6.7852
20
-4.80612
11
6.78518
21
-4.80616
0
LINE
8
BLACK
6
CONTINUOUS
10
6.78518
20
-4.80616
11
6.78515
21
-4.80622
0
LINE
8
BLACK
6
CONTINUOUS
10
6.78515
20
-4.80622
11
6.78512
21
-4.80629
0
LINE
8
BLACK
6
CONTINUOUS
10
6.78512
20
-4.80629
11
6.77349
21
-4.8305
0
LINE
8
BLACK
6
CONTINUOUS
10
6.77349
20
-4.8305
11
6.77347
21
-4.83053
0
LINE
8
BLACK
6
CONTINUOUS
10
6.77347
20
-4.83053
11
6.77343
21
-4.8306
0
LINE
8
BLACK
6
CONTINUOUS
10
6.77343
20
-4.8306
11
6.7734
21
-4.83067
0
LINE
8
BLACK
6
CONTINUOUS
10
6.7734
20
-4.83067
11
6.75998
21
-4.85435
0
LINE
8
BLACK
6
CONTINUOUS
10
6.75998
20
-4.85435
11
6.75996
21
-4.85438
0
LINE
8
BLACK
6
CONTINUOUS
10
6.75996
20
-4.85438
11
6.7599
21
-4.85445
0
LINE
8
BLACK
6
CONTINUOUS
10
6.7599
20
-4.85445
11
6.75986
21
-4.85453
0
LINE
8
BLACK
6
CONTINUOUS
10
6.75986
20
-4.85453
11
6.74453
21
-4.87746
0
LINE
8
BLACK
6
CONTINUOUS
10
6.74453
20
-4.87746
11
6.74451
21
-4.8775
0
LINE
8
BLACK
6
CONTINUOUS
10
6.74451
20
-4.8775
11
6.74444
21
-4.87757
0
LINE
8
BLACK
6
CONTINUOUS
10
6.74444
20
-4.87757
11
6.74439
21
-4.87765
0
LINE
8
BLACK
6
CONTINUOUS
10
6.74439
20
-4.87765
11
6.72703
21
-4.89964
0
LINE
8
BLACK
6
CONTINUOUS
10
6.72703
20
-4.89964
11
6.727
21
-4.89967
0
LINE
8
BLACK
6
CONTINUOUS
10
6.727
20
-4.89967
11
6.72693
21
-4.89975
0
LINE
8
BLACK
6
CONTINUOUS
10
6.72693
20
-4.89975
11
6.72686
21
-4.89983
0
LINE
8
BLACK
6
CONTINUOUS
10
6.72686
20
-4.89983
11
6.70734
21
-4.92066
0
LINE
8
BLACK
6
CONTINUOUS
10
6.70734
20
-4.92066
11
6.70732
21
-4.92069
0
LINE
8
BLACK
6
CONTINUOUS
10
6.70732
20
-4.92069
11
6.70723
21
-4.92076
0
LINE
8
BLACK
6
CONTINUOUS
10
6.70723
20
-4.92076
11
6.70716
21
-4.92085
0
LINE
8
BLACK
6
CONTINUOUS
10
6.70716
20
-4.92085
11
6.68536
21
-4.94032
0
LINE
8
BLACK
6
CONTINUOUS
10
6.68536
20
-4.94032
11
6.68533
21
-4.94035
0
LINE
8
BLACK
6
CONTINUOUS
10
6.68533
20
-4.94035
11
6.68523
21
-4.94041
0
LINE
8
BLACK
6
CONTINUOUS
10
6.68523
20
-4.94041
11
6.68515
21
-4.94049
0
LINE
8
BLACK
6
CONTINUOUS
10
6.68515
20
-4.94049
11
6.66095
21
-4.95839
0
LINE
8
BLACK
6
CONTINUOUS
10
6.66095
20
-4.95839
11
6.66092
21
-4.95842
0
LINE
8
BLACK
6
CONTINUOUS
10
6.66092
20
-4.95842
11
6.66082
21
-4.95848
0
LINE
8
BLACK
6
CONTINUOUS
10
6.66082
20
-4.95848
11
6.66072
21
-4.95855
0
LINE
8
BLACK
6
CONTINUOUS
10
6.66072
20
-4.95855
11
6.63401
21
-4.97468
0
LINE
8
BLACK
6
CONTINUOUS
10
6.63401
20
-4.97468
11
6.63397
21
-4.9747
0
LINE
8
BLACK
6
CONTINUOUS
10
6.63397
20
-4.9747
11
6.63386
21
-4.97475
0
LINE
8
BLACK
6
CONTINUOUS
10
6.63386
20
-4.97475
11
6.63376
21
-4.97481
0
LINE
8
BLACK
6
CONTINUOUS
10
6.63376
20
-4.97481
11
6.6044
21
-4.98896
0
LINE
8
BLACK
6
CONTINUOUS
10
6.6044
20
-4.98896
11
6.60437
21
-4.98898
0
LINE
8
BLACK
6
CONTINUOUS
10
6.60437
20
-4.98898
11
6.60426
21
-4.98901
0
LINE
8
BLACK
6
CONTINUOUS
10
6.60426
20
-4.98901
11
6.60415
21
-4.98907
0
LINE
8
BLACK
6
CONTINUOUS
10
6.60415
20
-4.98907
11
6.57203
21
-5.00102
0
LINE
8
BLACK
6
CONTINUOUS
10
6.57203
20
-5.00102
11
6.57199
21
-5.00104
0
LINE
8
BLACK
6
CONTINUOUS
10
6.57199
20
-5.00104
11
6.57188
21
-5.00106
0
LINE
8
BLACK
6
CONTINUOUS
10
6.57188
20
-5.00106
11
6.57178
21
-5.0011
0
LINE
8
BLACK
6
CONTINUOUS
10
6.57178
20
-5.0011
11
6.53677
21
-5.01067
0
LINE
8
BLACK
6
CONTINUOUS
10
6.53677
20
-5.01067
11
6.53673
21
-5.01068
0
LINE
8
BLACK
6
CONTINUOUS
10
6.53673
20
-5.01068
11
6.53663
21
-5.01069
0
LINE
8
BLACK
6
CONTINUOUS
10
6.53663
20
-5.01069
11
6.53653
21
-5.01072
0
LINE
8
BLACK
6
CONTINUOUS
10
6.53653
20
-5.01072
11
6.49851
21
-5.01768
0
LINE
8
BLACK
6
CONTINUOUS
10
6.49851
20
-5.01768
11
6.49847
21
-5.01769
0
LINE
8
BLACK
6
CONTINUOUS
10
6.49847
20
-5.01769
11
6.49838
21
-5.01769
0
LINE
8
BLACK
6
CONTINUOUS
10
6.49838
20
-5.01769
11
6.49828
21
-5.01771
0
LINE
8
BLACK
6
CONTINUOUS
10
6.49828
20
-5.01771
11
6.45714
21
-5.02186
0
LINE
8
BLACK
6
CONTINUOUS
10
6.45714
20
-5.02186
11
6.4571
21
-5.02186
0
LINE
8
BLACK
6
CONTINUOUS
10
6.4571
20
-5.02186
11
6.45701
21
-5.02186
0
LINE
8
BLACK
6
CONTINUOUS
10
6.45701
20
-5.02186
11
6.45692
21
-5.02187
0
LINE
8
BLACK
6
CONTINUOUS
10
6.45692
20
-5.02187
11
6.41253
21
-5.023
0
LINE
8
BLACK
6
CONTINUOUS
10
6.41253
20
-5.023
11
6.41249
21
-5.023
0
LINE
8
BLACK
6
CONTINUOUS
10
6.41249
20
-5.023
11
6.4124
21
-5.023
0
LINE
8
BLACK
6
CONTINUOUS
10
6.4124
20
-5.023
11
6.41232
21
-5.023
0
LINE
8
BLACK
6
CONTINUOUS
10
6.41232
20
-5.023
11
6.36733
21
-5.02103
0
LINE
8
BLACK
6
CONTINUOUS
10
6.36733
20
-5.02103
11
6.36386
21
-5.05338
0
LINE
8
BLACK
6
CONTINUOUS
10
6.36386
20
-5.05338
11
6.36386
21
-5.05342
0
LINE
8
BLACK
6
CONTINUOUS
10
6.36386
20
-5.05342
11
6.36384
21
-5.05349
0
LINE
8
BLACK
6
CONTINUOUS
10
6.36384
20
-5.05349
11
6.36383
21
-5.05356
0
LINE
8
BLACK
6
CONTINUOUS
10
6.36383
20
-5.05356
11
6.35801
21
-5.0877
0
LINE
8
BLACK
6
CONTINUOUS
10
6.35801
20
-5.0877
11
6.35801
21
-5.08774
0
LINE
8
BLACK
6
CONTINUOUS
10
6.35801
20
-5.08774
11
6.35799
21
-5.0878
0
LINE
8
BLACK
6
CONTINUOUS
10
6.35799
20
-5.0878
11
6.35798
21
-5.08787
0
LINE
8
BLACK
6
CONTINUOUS
10
6.35798
20
-5.08787
11
6.35023
21
-5.12102
0
LINE
8
BLACK
6
CONTINUOUS
10
6.35023
20
-5.12102
11
6.35022
21
-5.12106
0
LINE
8
BLACK
6
CONTINUOUS
10
6.35022
20
-5.12106
11
6.35019
21
-5.12113
0
LINE
8
BLACK
6
CONTINUOUS
10
6.35019
20
-5.12113
11
6.35018
21
-5.12119
0
LINE
8
BLACK
6
CONTINUOUS
10
6.35018
20
-5.12119
11
6.34062
21
-5.15335
0
LINE
8
BLACK
6
CONTINUOUS
10
6.34062
20
-5.15335
11
6.34061
21
-5.15339
0
LINE
8
BLACK
6
CONTINUOUS
10
6.34061
20
-5.15339
11
6.34058
21
-5.15345
0
LINE
8
BLACK
6
CONTINUOUS
10
6.34058
20
-5.15345
11
6.34057
21
-5.15351
0
LINE
8
BLACK
6
CONTINUOUS
10
6.34057
20
-5.15351
11
6.32933
21
-5.18467
0
LINE
8
BLACK
6
CONTINUOUS
10
6.32933
20
-5.18467
11
6.32932
21
-5.1847
0
LINE
8
BLACK
6
CONTINUOUS
10
6.32932
20
-5.1847
11
6.32929
21
-5.18476
0
LINE
8
BLACK
6
CONTINUOUS
10
6.32929
20
-5.18476
11
6.32927
21
-5.18482
0
LINE
8
BLACK
6
CONTINUOUS
10
6.32927
20
-5.18482
11
6.31647
21
-5.21496
0
LINE
8
BLACK
6
CONTINUOUS
10
6.31647
20
-5.21496
11
6.31646
21
-5.215
0
LINE
8
BLACK
6
CONTINUOUS
10
6.31646
20
-5.215
11
6.31643
21
-5.21505
0
LINE
8
BLACK
6
CONTINUOUS
10
6.31643
20
-5.21505
11
6.31641
21
-5.2151
0
LINE
8
BLACK
6
CONTINUOUS
10
6.31641
20
-5.2151
11
6.30218
21
-5.24423
0
LINE
8
BLACK
6
CONTINUOUS
10
6.30218
20
-5.24423
11
6.30217
21
-5.24426
0
LINE
8
BLACK
6
CONTINUOUS
10
6.30217
20
-5.24426
11
6.30214
21
-5.24431
0
LINE
8
BLACK
6
CONTINUOUS
10
6.30214
20
-5.24431
11
6.30212
21
-5.24436
0
LINE
8
BLACK
6
CONTINUOUS
10
6.30212
20
-5.24436
11
6.28659
21
-5.27245
0
LINE
8
BLACK
6
CONTINUOUS
10
6.28659
20
-5.27245
11
6.28657
21
-5.27249
0
LINE
8
BLACK
6
CONTINUOUS
10
6.28657
20
-5.27249
11
6.28654
21
-5.27253
0
LINE
8
BLACK
6
CONTINUOUS
10
6.28654
20
-5.27253
11
6.28651
21
-5.27257
0
LINE
8
BLACK
6
CONTINUOUS
10
6.28651
20
-5.27257
11
6.2698
21
-5.29963
0
LINE
8
BLACK
6
CONTINUOUS
10
6.2698
20
-5.29963
11
6.26978
21
-5.29966
0
LINE
8
BLACK
6
CONTINUOUS
10
6.26978
20
-5.29966
11
6.26975
21
-5.2997
0
LINE
8
BLACK
6
CONTINUOUS
10
6.26975
20
-5.2997
11
6.26973
21
-5.29974
0
LINE
8
BLACK
6
CONTINUOUS
10
6.26973
20
-5.29974
11
6.25197
21
-5.32575
0
LINE
8
BLACK
6
CONTINUOUS
10
6.25197
20
-5.32575
11
6.25194
21
-5.32578
0
LINE
8
BLACK
6
CONTINUOUS
10
6.25194
20
-5.32578
11
6.25191
21
-5.32581
0
LINE
8
BLACK
6
CONTINUOUS
10
6.25191
20
-5.32581
11
6.25189
21
-5.32585
0
LINE
8
BLACK
6
CONTINUOUS
10
6.25189
20
-5.32585
11
6.2332
21
-5.3508
0
LINE
8
BLACK
6
CONTINUOUS
10
6.2332
20
-5.3508
11
6.23317
21
-5.35083
0
LINE
8
BLACK
6
CONTINUOUS
10
6.23317
20
-5.35083
11
6.23314
21
-5.35086
0
LINE
8
BLACK
6
CONTINUOUS
10
6.23314
20
-5.35086
11
6.23312
21
-5.3509
0
LINE
8
BLACK
6
CONTINUOUS
10
6.23312
20
-5.3509
11
6.21363
21
-5.37478
0
LINE
8
BLACK
6
CONTINUOUS
10
6.21363
20
-5.37478
11
6.2136
21
-5.37481
0
LINE
8
BLACK
6
CONTINUOUS
10
6.2136
20
-5.37481
11
6.21357
21
-5.37484
0
LINE
8
BLACK
6
CONTINUOUS
10
6.21357
20
-5.37484
11
6.21355
21
-5.37487
0
LINE
8
BLACK
6
CONTINUOUS
10
6.21355
20
-5.37487
11
6.19338
21
-5.39767
0
LINE
8
BLACK
6
CONTINUOUS
10
6.19338
20
-5.39767
11
6.19335
21
-5.3977
0
LINE
8
BLACK
6
CONTINUOUS
10
6.19335
20
-5.3977
11
6.19332
21
-5.39773
0
LINE
8
BLACK
6
CONTINUOUS
10
6.19332
20
-5.39773
11
6.1933
21
-5.39776
0
LINE
8
BLACK
6
CONTINUOUS
10
6.1933
20
-5.39776
11
6.17257
21
-5.41948
0
LINE
8
BLACK
6
CONTINUOUS
10
6.17257
20
-5.41948
11
6.17254
21
-5.41951
0
LINE
8
BLACK
6
CONTINUOUS
10
6.17254
20
-5.41951
11
6.17252
21
-5.41953
0
LINE
8
BLACK
6
CONTINUOUS
10
6.17252
20
-5.41953
11
6.1725
21
-5.41955
0
LINE
8
BLACK
6
CONTINUOUS
10
6.1725
20
-5.41955
11
6.15134
21
-5.44018
0
LINE
8
BLACK
6
CONTINUOUS
10
6.15134
20
-5.44018
11
6.15131
21
-5.44021
0
LINE
8
BLACK
6
CONTINUOUS
10
6.15131
20
-5.44021
11
6.15129
21
-5.44023
0
LINE
8
BLACK
6
CONTINUOUS
10
6.15129
20
-5.44023
11
6.15127
21
-5.44025
0
LINE
8
BLACK
6
CONTINUOUS
10
6.15127
20
-5.44025
11
6.12981
21
-5.45977
0
LINE
8
BLACK
6
CONTINUOUS
10
6.12981
20
-5.45977
11
6.12978
21
-5.4598
0
LINE
8
BLACK
6
CONTINUOUS
10
6.12978
20
-5.4598
11
6.12976
21
-5.45982
0
LINE
8
BLACK
6
CONTINUOUS
10
6.12976
20
-5.45982
11
6.12974
21
-5.45984
0
LINE
8
BLACK
6
CONTINUOUS
10
6.12974
20
-5.45984
11
6.1081
21
-5.47825
0
LINE
8
BLACK
6
CONTINUOUS
10
6.1081
20
-5.47825
11
6.10807
21
-5.47828
0
LINE
8
BLACK
6
CONTINUOUS
10
6.10807
20
-5.47828
11
6.10805
21
-5.47829
0
LINE
8
BLACK
6
CONTINUOUS
10
6.10805
20
-5.47829
11
6.10803
21
-5.47831
0
LINE
8
BLACK
6
CONTINUOUS
10
6.10803
20
-5.47831
11
6.08634
21
-5.4956
0
LINE
8
BLACK
6
CONTINUOUS
10
6.08634
20
-5.4956
11
6.08631
21
-5.49563
0
LINE
8
BLACK
6
CONTINUOUS
10
6.08631
20
-5.49563
11
6.08629
21
-5.49564
0
LINE
8
BLACK
6
CONTINUOUS
10
6.08629
20
-5.49564
11
6.08627
21
-5.49566
0
LINE
8
BLACK
6
CONTINUOUS
10
6.08627
20
-5.49566
11
6.06466
21
-5.51182
0
LINE
8
BLACK
6
CONTINUOUS
10
6.06466
20
-5.51182
11
6.06463
21
-5.51184
0
LINE
8
BLACK
6
CONTINUOUS
10
6.06463
20
-5.51184
11
6.0646
21
-5.51185
0
LINE
8
BLACK
6
CONTINUOUS
10
6.0646
20
-5.51185
11
6.06459
21
-5.51187
0
LINE
8
BLACK
6
CONTINUOUS
10
6.06459
20
-5.51187
11
6.04317
21
-5.52689
0
LINE
8
BLACK
6
CONTINUOUS
10
6.04317
20
-5.52689
11
6.04314
21
-5.52691
0
LINE
8
BLACK
6
CONTINUOUS
10
6.04314
20
-5.52691
11
6.04312
21
-5.52692
0
LINE
8
BLACK
6
CONTINUOUS
10
6.04312
20
-5.52692
11
6.0431
21
-5.52694
0
LINE
8
BLACK
6
CONTINUOUS
10
6.0431
20
-5.52694
11
6.02201
21
-5.54081
0
LINE
8
BLACK
6
CONTINUOUS
10
6.02201
20
-5.54081
11
6.02198
21
-5.54083
0
LINE
8
BLACK
6
CONTINUOUS
10
6.02198
20
-5.54083
11
6.02196
21
-5.54084
0
LINE
8
BLACK
6
CONTINUOUS
10
6.02196
20
-5.54084
11
6.02194
21
-5.54086
0
LINE
8
BLACK
6
CONTINUOUS
10
6.02194
20
-5.54086
11
6.0013
21
-5.55357
0
LINE
8
BLACK
6
CONTINUOUS
10
6.0013
20
-5.55357
11
6.00126
21
-5.55359
0
LINE
8
BLACK
6
CONTINUOUS
10
6.00126
20
-5.55359
11
6.00124
21
-5.5536
0
LINE
8
BLACK
6
CONTINUOUS
10
6.00124
20
-5.5536
11
6.00122
21
-5.55362
0
LINE
8
BLACK
6
CONTINUOUS
10
6.00122
20
-5.55362
11
5.98116
21
-5.56516
0
LINE
8
BLACK
6
CONTINUOUS
10
5.98116
20
-5.56516
11
5.98112
21
-5.56518
0
LINE
8
BLACK
6
CONTINUOUS
10
5.98112
20
-5.56518
11
5.9811
21
-5.56519
0
LINE
8
BLACK
6
CONTINUOUS
10
5.9811
20
-5.56519
11
5.98108
21
-5.56521
0
LINE
8
BLACK
6
CONTINUOUS
10
5.98108
20
-5.56521
11
5.96171
21
-5.57557
0
LINE
8
BLACK
6
CONTINUOUS
10
5.96171
20
-5.57557
11
5.96168
21
-5.57559
0
LINE
8
BLACK
6
CONTINUOUS
10
5.96168
20
-5.57559
11
5.96165
21
-5.5756
0
LINE
8
BLACK
6
CONTINUOUS
10
5.96165
20
-5.5756
11
5.96163
21
-5.57562
0
LINE
8
BLACK
6
CONTINUOUS
10
5.96163
20
-5.57562
11
5.94309
21
-5.5848
0
LINE
8
BLACK
6
CONTINUOUS
10
5.94309
20
-5.5848
11
5.94306
21
-5.58482
0
LINE
8
BLACK
6
CONTINUOUS
10
5.94306
20
-5.58482
11
5.94303
21
-5.58483
0
LINE
8
BLACK
6
CONTINUOUS
10
5.94303
20
-5.58483
11
5.943
21
-5.58484
0
LINE
8
BLACK
6
CONTINUOUS
10
5.943
20
-5.58484
11
5.92542
21
-5.59283
0
LINE
8
BLACK
6
CONTINUOUS
10
5.92542
20
-5.59283
11
5.92538
21
-5.59285
0
LINE
8
BLACK
6
CONTINUOUS
10
5.92538
20
-5.59285
11
5.92535
21
-5.59286
0
LINE
8
BLACK
6
CONTINUOUS
10
5.92535
20
-5.59286
11
5.92532
21
-5.59288
0
LINE
8
BLACK
6
CONTINUOUS
10
5.92532
20
-5.59288
11
5.9088
21
-5.59966
0
LINE
8
BLACK
6
CONTINUOUS
10
5.9088
20
-5.59966
11
5.90877
21
-5.59968
0
LINE
8
BLACK
6
CONTINUOUS
10
5.90877
20
-5.59968
11
5.90873
21
-5.59969
0
LINE
8
BLACK
6
CONTINUOUS
10
5.90873
20
-5.59969
11
5.90869
21
-5.5997
0
LINE
8
BLACK
6
CONTINUOUS
10
5.90869
20
-5.5997
11
5.89338
21
-5.60528
0
LINE
8
BLACK
6
CONTINUOUS
10
5.89338
20
-5.60528
11
5.89334
21
-5.60529
0
LINE
8
BLACK
6
CONTINUOUS
10
5.89334
20
-5.60529
11
5.8933
21
-5.6053
0
LINE
8
BLACK
6
CONTINUOUS
10
5.8933
20
-5.6053
11
5.89325
21
-5.60532
0
LINE
8
BLACK
6
CONTINUOUS
10
5.89325
20
-5.60532
11
5.87927
21
-5.60967
0
LINE
8
BLACK
6
CONTINUOUS
10
5.87927
20
-5.60967
11
5.87923
21
-5.60968
0
LINE
8
BLACK
6
CONTINUOUS
10
5.87923
20
-5.60968
11
5.87916
21
-5.60969
0
LINE
8
BLACK
6
CONTINUOUS
10
5.87916
20
-5.60969
11
5.8791
21
-5.60972
0
LINE
8
BLACK
6
CONTINUOUS
10
5.8791
20
-5.60972
11
5.86657
21
-5.61283
0
LINE
8
BLACK
6
CONTINUOUS
10
5.86657
20
-5.61283
11
5.86653
21
-5.61284
0
LINE
8
BLACK
6
CONTINUOUS
10
5.86653
20
-5.61284
11
5.86644
21
-5.61286
0
LINE
8
BLACK
6
CONTINUOUS
10
5.86644
20
-5.61286
11
5.86636
21
-5.61288
0
LINE
8
BLACK
6
CONTINUOUS
10
5.86636
20
-5.61288
11
5.85541
21
-5.61476
0
LINE
8
BLACK
6
CONTINUOUS
10
5.85541
20
-5.61476
11
5.85536
21
-5.61476
0
LINE
8
BLACK
6
CONTINUOUS
10
5.85536
20
-5.61476
11
5.85523
21
-5.61477
0
LINE
8
BLACK
6
CONTINUOUS
10
5.85523
20
-5.61477
11
5.85511
21
-5.61479
0
LINE
8
BLACK
6
CONTINUOUS
10
5.85511
20
-5.61479
11
5.84586
21
-5.61542
0
LINE
8
BLACK
6
CONTINUOUS
10
5.84586
20
-5.61542
11
5.84582
21
-5.61542
0
LINE
8
BLACK
6
CONTINUOUS
10
5.84582
20
-5.61542
11
5.84564
21
-5.61542
0
LINE
8
BLACK
6
CONTINUOUS
10
5.84564
20
-5.61542
11
5.84546
21
-5.61542
0
LINE
8
BLACK
6
CONTINUOUS
10
5.84546
20
-5.61542
11
5.83621
21
-5.61479
0
LINE
8
BLACK
6
CONTINUOUS
10
5.83621
20
-5.61479
11
5.83617
21
-5.61479
0
LINE
8
BLACK
6
CONTINUOUS
10
5.83617
20
-5.61479
11
5.83604
21
-5.61477
0
LINE
8
BLACK
6
CONTINUOUS
10
5.83604
20
-5.61477
11
5.83591
21
-5.61476
0
LINE
8
BLACK
6
CONTINUOUS
10
5.83591
20
-5.61476
11
5.82495
21
-5.61288
0
LINE
8
BLACK
6
CONTINUOUS
10
5.82495
20
-5.61288
11
5.82491
21
-5.61287
0
LINE
8
BLACK
6
CONTINUOUS
10
5.82491
20
-5.61287
11
5.82483
21
-5.61285
0
LINE
8
BLACK
6
CONTINUOUS
10
5.82483
20
-5.61285
11
5.82474
21
-5.61283
0
LINE
8
BLACK
6
CONTINUOUS
10
5.82474
20
-5.61283
11
5.81221
21
-5.60972
0
LINE
8
BLACK
6
CONTINUOUS
10
5.81221
20
-5.60972
11
5.81217
21
-5.60971
0
LINE
8
BLACK
6
CONTINUOUS
10
5.81217
20
-5.60971
11
5.81211
21
-5.60968
0
LINE
8
BLACK
6
CONTINUOUS
10
5.81211
20
-5.60968
11
5.81205
21
-5.60967
0
LINE
8
BLACK
6
CONTINUOUS
10
5.81205
20
-5.60967
11
5.79806
21
-5.60532
0
LINE
8
BLACK
6
CONTINUOUS
10
5.79806
20
-5.60532
11
5.79802
21
-5.60531
0
LINE
8
BLACK
6
CONTINUOUS
10
5.79802
20
-5.60531
11
5.79798
21
-5.60529
0
LINE
8
BLACK
6
CONTINUOUS
10
5.79798
20
-5.60529
11
5.79793
21
-5.60528
0
LINE
8
BLACK
6
CONTINUOUS
10
5.79793
20
-5.60528
11
5.78262
21
-5.5997
0
LINE
8
BLACK
6
CONTINUOUS
10
5.78262
20
-5.5997
11
5.78258
21
-5.59969
0
LINE
8
BLACK
6
CONTINUOUS
10
5.78258
20
-5.59969
11
5.78255
21
-5.59967
0
LINE
8
BLACK
6
CONTINUOUS
10
5.78255
20
-5.59967
11
5.78251
21
-5.59966
0
LINE
8
BLACK
6
CONTINUOUS
10
5.78251
20
-5.59966
11
5.766
21
-5.59288
0
LINE
8
BLACK
6
CONTINUOUS
10
5.766
20
-5.59288
11
5.76596
21
-5.59286
0
LINE
8
BLACK
6
CONTINUOUS
10
5.76596
20
-5.59286
11
5.76593
21
-5.59284
0
LINE
8
BLACK
6
CONTINUOUS
10
5.76593
20
-5.59284
11
5.7659
21
-5.59283
0
LINE
8
BLACK
6
CONTINUOUS
10
5.7659
20
-5.59283
11
5.74831
21
-5.58484
0
LINE
8
BLACK
6
CONTINUOUS
10
5.74831
20
-5.58484
11
5.74827
21
-5.58483
0
LINE
8
BLACK
6
CONTINUOUS
10
5.74827
20
-5.58483
11
5.74825
21
-5.58481
0
LINE
8
BLACK
6
CONTINUOUS
10
5.74825
20
-5.58481
11
5.74822
21
-5.5848
0
LINE
8
BLACK
6
CONTINUOUS
10
5.74822
20
-5.5848
11
5.72968
21
-5.57562
0
LINE
8
BLACK
6
CONTINUOUS
10
5.72968
20
-5.57562
11
5.72965
21
-5.5756
0
LINE
8
BLACK
6
CONTINUOUS
10
5.72965
20
-5.5756
11
5.72962
21
-5.57558
0
LINE
8
BLACK
6
CONTINUOUS
10
5.72962
20
-5.57558
11
5.7296
21
-5.57557
0
LINE
8
BLACK
6
CONTINUOUS
10
5.7296
20
-5.57557
11
5.71023
21
-5.56521
0
LINE
8
BLACK
6
CONTINUOUS
10
5.71023
20
-5.56521
11
5.7102
21
-5.56519
0
LINE
8
BLACK
6
CONTINUOUS
10
5.7102
20
-5.56519
11
5.71018
21
-5.56517
0
LINE
8
BLACK
6
CONTINUOUS
10
5.71018
20
-5.56517
11
5.71016
21
-5.56516
0
LINE
8
BLACK
6
CONTINUOUS
10
5.71016
20
-5.56516
11
5.69009
21
-5.55362
0
LINE
8
BLACK
6
CONTINUOUS
10
5.69009
20
-5.55362
11
5.69006
21
-5.5536
0
LINE
8
BLACK
6
CONTINUOUS
10
5.69006
20
-5.5536
11
5.69004
21
-5.55358
0
LINE
8
BLACK
6
CONTINUOUS
10
5.69004
20
-5.55358
11
5.69002
21
-5.55357
0
LINE
8
BLACK
6
CONTINUOUS
10
5.69002
20
-5.55357
11
5.66938
21
-5.54086
0
LINE
8
BLACK
6
CONTINUOUS
10
5.66938
20
-5.54086
11
5.66934
21
-5.54084
0
LINE
8
BLACK
6
CONTINUOUS
10
5.66934
20
-5.54084
11
5.66932
21
-5.54082
0
LINE
8
BLACK
6
CONTINUOUS
10
5.66932
20
-5.54082
11
5.6693
21
-5.54081
0
LINE
8
BLACK
6
CONTINUOUS
10
5.6693
20
-5.54081
11
5.64821
21
-5.52694
0
LINE
8
BLACK
6
CONTINUOUS
10
5.64821
20
-5.52694
11
5.64818
21
-5.52692
0
LINE
8
BLACK
6
CONTINUOUS
10
5.64818
20
-5.52692
11
5.64816
21
-5.5269
0
LINE
8
BLACK
6
CONTINUOUS
10
5.64816
20
-5.5269
11
5.64814
21
-5.52689
0
LINE
8
BLACK
6
CONTINUOUS
10
5.64814
20
-5.52689
11
5.62673
21
-5.51187
0
LINE
8
BLACK
6
CONTINUOUS
10
5.62673
20
-5.51187
11
5.62669
21
-5.51185
0
LINE
8
BLACK
6
CONTINUOUS
10
5.62669
20
-5.51185
11
5.62667
21
-5.51183
0
LINE
8
BLACK
6
CONTINUOUS
10
5.62667
20
-5.51183
11
5.62665
21
-5.51182
0
LINE
8
BLACK
6
CONTINUOUS
10
5.62665
20
-5.51182
11
5.60504
21
-5.49566
0
LINE
8
BLACK
6
CONTINUOUS
10
5.60504
20
-5.49566
11
5.60501
21
-5.49563
0
LINE
8
BLACK
6
CONTINUOUS
10
5.60501
20
-5.49563
11
5.60499
21
-5.49562
0
LINE
8
BLACK
6
CONTINUOUS
10
5.60499
20
-5.49562
11
5.60497
21
-5.4956
0
LINE
8
BLACK
6
CONTINUOUS
10
5.60497
20
-5.4956
11
5.58328
21
-5.47831
0
LINE
8
BLACK
6
CONTINUOUS
10
5.58328
20
-5.47831
11
5.58325
21
-5.47829
0
LINE
8
BLACK
6
CONTINUOUS
10
5.58325
20
-5.47829
11
5.58323
21
-5.47827
0
LINE
8
BLACK
6
CONTINUOUS
10
5.58323
20
-5.47827
11
5.58321
21
-5.47825
0
LINE
8
BLACK
6
CONTINUOUS
10
5.58321
20
-5.47825
11
5.56158
21
-5.45984
0
LINE
8
BLACK
6
CONTINUOUS
10
5.56158
20
-5.45984
11
5.56154
21
-5.45981
0
LINE
8
BLACK
6
CONTINUOUS
10
5.56154
20
-5.45981
11
5.56152
21
-5.45979
0
LINE
8
BLACK
6
CONTINUOUS
10
5.56152
20
-5.45979
11
5.5615
21
-5.45977
0
LINE
8
BLACK
6
CONTINUOUS
10
5.5615
20
-5.45977
11
5.54004
21
-5.44025
0
LINE
8
BLACK
6
CONTINUOUS
10
5.54004
20
-5.44025
11
5.54001
21
-5.44022
0
LINE
8
BLACK
6
CONTINUOUS
10
5.54001
20
-5.44022
11
5.53999
21
-5.4402
0
LINE
8
BLACK
6
CONTINUOUS
10
5.53999
20
-5.4402
11
5.53997
21
-5.44018
0
LINE
8
BLACK
6
CONTINUOUS
10
5.53997
20
-5.44018
11
5.51882
21
-5.41955
0
LINE
8
BLACK
6
CONTINUOUS
10
5.51882
20
-5.41955
11
5.51879
21
-5.41952
0
LINE
8
BLACK
6
CONTINUOUS
10
5.51879
20
-5.41952
11
5.51877
21
-5.4195
0
LINE
8
BLACK
6
CONTINUOUS
10
5.51877
20
-5.4195
11
5.51874
21
-5.41948
0
LINE
8
BLACK
6
CONTINUOUS
10
5.51874
20
-5.41948
11
5.49801
21
-5.39776
0
LINE
8
BLACK
6
CONTINUOUS
10
5.49801
20
-5.39776
11
5.49798
21
-5.39773
0
LINE
8
BLACK
6
CONTINUOUS
10
5.49798
20
-5.39773
11
5.49796
21
-5.3977
0
LINE
8
BLACK
6
CONTINUOUS
10
5.49796
20
-5.3977
11
5.49794
21
-5.39767
0
LINE
8
BLACK
6
CONTINUOUS
10
5.49794
20
-5.39767
11
5.47776
21
-5.37487
0
LINE
8
BLACK
6
CONTINUOUS
10
5.47776
20
-5.37487
11
5.47774
21
-5.37484
0
LINE
8
BLACK
6
CONTINUOUS
10
5.47774
20
-5.37484
11
5.47771
21
-5.37481
0
LINE
8
BLACK
6
CONTINUOUS
10
5.47771
20
-5.37481
11
5.47769
21
-5.37478
0
LINE
8
BLACK
6
CONTINUOUS
10
5.47769
20
-5.37478
11
5.45819
21
-5.3509
0
LINE
8
BLACK
6
CONTINUOUS
10
5.45819
20
-5.3509
11
5.45816
21
-5.35086
0
LINE
8
BLACK
6
CONTINUOUS
10
5.45816
20
-5.35086
11
5.45814
21
-5.35083
0
LINE
8
BLACK
6
CONTINUOUS
10
5.45814
20
-5.35083
11
5.45812
21
-5.3508
0
LINE
8
BLACK
6
CONTINUOUS
10
5.45812
20
-5.3508
11
5.43942
21
-5.32585
0
LINE
8
BLACK
6
CONTINUOUS
10
5.43942
20
-5.32585
11
5.4394
21
-5.32582
0
LINE
8
BLACK
6
CONTINUOUS
10
5.4394
20
-5.32582
11
5.43938
21
-5.32578
0
LINE
8
BLACK
6
CONTINUOUS
10
5.43938
20
-5.32578
11
5.43935
21
-5.32575
0
LINE
8
BLACK
6
CONTINUOUS
10
5.43935
20
-5.32575
11
5.42158
21
-5.29974
0
LINE
8
BLACK
6
CONTINUOUS
10
5.42158
20
-5.29974
11
5.42156
21
-5.29971
0
LINE
8
BLACK
6
CONTINUOUS
10
5.42156
20
-5.29971
11
5.42154
21
-5.29967
0
LINE
8
BLACK
6
CONTINUOUS
10
5.42154
20
-5.29967
11
5.42151
21
-5.29963
0
LINE
8
BLACK
6
CONTINUOUS
10
5.42151
20
-5.29963
11
5.4048
21
-5.27257
0
LINE
8
BLACK
6
CONTINUOUS
10
5.4048
20
-5.27257
11
5.40478
21
-5.27254
0
LINE
8
BLACK
6
CONTINUOUS
10
5.40478
20
-5.27254
11
5.40476
21
-5.27249
0
LINE
8
BLACK
6
CONTINUOUS
10
5.40476
20
-5.27249
11
5.40473
21
-5.27245
0
LINE
8
BLACK
6
CONTINUOUS
10
5.40473
20
-5.27245
11
5.3892
21
-5.24436
0
LINE
8
BLACK
6
CONTINUOUS
10
5.3892
20
-5.24436
11
5.38918
21
-5.24432
0
LINE
8
BLACK
6
CONTINUOUS
10
5.38918
20
-5.24432
11
5.38916
21
-5.24427
0
LINE
8
BLACK
6
CONTINUOUS
10
5.38916
20
-5.24427
11
5.38913
21
-5.24423
0
LINE
8
BLACK
6
CONTINUOUS
10
5.38913
20
-5.24423
11
5.3749
21
-5.2151
0
LINE
8
BLACK
6
CONTINUOUS
10
5.3749
20
-5.2151
11
5.37489
21
-5.21507
0
LINE
8
BLACK
6
CONTINUOUS
10
5.37489
20
-5.21507
11
5.37487
21
-5.21501
0
LINE
8
BLACK
6
CONTINUOUS
10
5.37487
20
-5.21501
11
5.37484
21
-5.21496
0
LINE
8
BLACK
6
CONTINUOUS
10
5.37484
20
-5.21496
11
5.36204
21
-5.18482
0
LINE
8
BLACK
6
CONTINUOUS
10
5.36204
20
-5.18482
11
5.36203
21
-5.18478
0
LINE
8
BLACK
6
CONTINUOUS
10
5.36203
20
-5.18478
11
5.36201
21
-5.18472
0
LINE
8
BLACK
6
CONTINUOUS
10
5.36201
20
-5.18472
11
5.36198
21
-5.18467
0
LINE
8
BLACK
6
CONTINUOUS
10
5.36198
20
-5.18467
11
5.35074
21
-5.15351
0
LINE
8
BLACK
6
CONTINUOUS
10
5.35074
20
-5.15351
11
5.35073
21
-5.15347
0
LINE
8
BLACK
6
CONTINUOUS
10
5.35073
20
-5.15347
11
5.35072
21
-5.15341
0
LINE
8
BLACK
6
CONTINUOUS
10
5.35072
20
-5.15341
11
5.35069
21
-5.15335
0
LINE
8
BLACK
6
CONTINUOUS
10
5.35069
20
-5.15335
11
5.34113
21
-5.12119
0
LINE
8
BLACK
6
CONTINUOUS
10
5.34113
20
-5.12119
11
5.34112
21
-5.12115
0
LINE
8
BLACK
6
CONTINUOUS
10
5.34112
20
-5.12115
11
5.34111
21
-5.12109
0
LINE
8
BLACK
6
CONTINUOUS
10
5.34111
20
-5.12109
11
5.34109
21
-5.12102
0
LINE
8
BLACK
6
CONTINUOUS
10
5.34109
20
-5.12102
11
5.33333
21
-5.08787
0
LINE
8
BLACK
6
CONTINUOUS
10
5.33333
20
-5.08787
11
5.33333
21
-5.08783
0
LINE
8
BLACK
6
CONTINUOUS
10
5.33333
20
-5.08783
11
5.33332
21
-5.08776
0
LINE
8
BLACK
6
CONTINUOUS
10
5.33332
20
-5.08776
11
5.3333
21
-5.0877
0
LINE
8
BLACK
6
CONTINUOUS
10
5.3333
20
-5.0877
11
5.32748
21
-5.05356
0
LINE
8
BLACK
6
CONTINUOUS
10
5.32748
20
-5.05356
11
5.32747
21
-5.05352
0
LINE
8
BLACK
6
CONTINUOUS
10
5.32747
20
-5.05352
11
5.32747
21
-5.05345
0
LINE
8
BLACK
6
CONTINUOUS
10
5.32747
20
-5.05345
11
5.32745
21
-5.05338
0
LINE
8
BLACK
6
CONTINUOUS
10
5.32745
20
-5.05338
11
5.32398
21
-5.02103
0
LINE
8
BLACK
6
CONTINUOUS
10
5.32398
20
-5.02103
11
5.27899
21
-5.023
0
LINE
8
BLACK
6
CONTINUOUS
10
5.27899
20
-5.023
11
5.27895
21
-5.023
0
LINE
8
BLACK
6
CONTINUOUS
10
5.27895
20
-5.023
11
5.27887
21
-5.023
0
LINE
8
BLACK
6
CONTINUOUS
10
5.27887
20
-5.023
11
5.27879
21
-5.023
0
LINE
8
BLACK
6
CONTINUOUS
10
5.27879
20
-5.023
11
5.2344
21
-5.02187
0
LINE
8
BLACK
6
CONTINUOUS
10
5.2344
20
-5.02187
11
5.23435
21
-5.02187
0
LINE
8
BLACK
6
CONTINUOUS
10
5.23435
20
-5.02187
11
5.23426
21
-5.02186
0
LINE
8
BLACK
6
CONTINUOUS
10
5.23426
20
-5.02186
11
5.23417
21
-5.02186
0
LINE
8
BLACK
6
CONTINUOUS
10
5.23417
20
-5.02186
11
5.19303
21
-5.01771
0
LINE
8
BLACK
6
CONTINUOUS
10
5.19303
20
-5.01771
11
5.19299
21
-5.01771
0
LINE
8
BLACK
6
CONTINUOUS
10
5.19299
20
-5.01771
11
5.1929
21
-5.01769
0
LINE
8
BLACK
6
CONTINUOUS
10
5.1929
20
-5.01769
11
5.1928
21
-5.01768
0
LINE
8
BLACK
6
CONTINUOUS
10
5.1928
20
-5.01768
11
5.15479
21
-5.01072
0
LINE
8
BLACK
6
CONTINUOUS
10
5.15479
20
-5.01072
11
5.15474
21
-5.01071
0
LINE
8
BLACK
6
CONTINUOUS
10
5.15474
20
-5.01071
11
5.15464
21
-5.01068
0
LINE
8
BLACK
6
CONTINUOUS
10
5.15464
20
-5.01068
11
5.15454
21
-5.01067
0
LINE
8
BLACK
6
CONTINUOUS
10
5.15454
20
-5.01067
11
5.11953
21
-5.0011
0
LINE
8
BLACK
6
CONTINUOUS
10
5.11953
20
-5.0011
11
5.11949
21
-5.00109
0
LINE
8
BLACK
6
CONTINUOUS
10
5.11949
20
-5.00109
11
5.11939
21
-5.00105
0
LINE
8
BLACK
6
CONTINUOUS
10
5.11939
20
-5.00105
11
5.11928
21
-5.00102
0
LINE
8
BLACK
6
CONTINUOUS
10
5.11928
20
-5.00102
11
5.08716
21
-4.98907
0
LINE
8
BLACK
6
CONTINUOUS
10
5.08716
20
-4.98907
11
5.08712
21
-4.98905
0
LINE
8
BLACK
6
CONTINUOUS
10
5.08712
20
-4.98905
11
5.08702
21
-4.989
0
LINE
8
BLACK
6
CONTINUOUS
10
5.08702
20
-4.989
11
5.08691
21
-4.98896
0
LINE
8
BLACK
6
CONTINUOUS
10
5.08691
20
-4.98896
11
5.05755
21
-4.97481
0
LINE
8
BLACK
6
CONTINUOUS
10
5.05755
20
-4.97481
11
5.05751
21
-4.97479
0
LINE
8
BLACK
6
CONTINUOUS
10
5.05751
20
-4.97479
11
5.05741
21
-4.97473
0
LINE
8
BLACK
6
CONTINUOUS
10
5.05741
20
-4.97473
11
5.05731
21
-4.97468
0
LINE
8
BLACK
6
CONTINUOUS
10
5.05731
20
-4.97468
11
5.03059
21
-4.95855
0
LINE
8
BLACK
6
CONTINUOUS
10
5.03059
20
-4.95855
11
5.03056
21
-4.95853
0
LINE
8
BLACK
6
CONTINUOUS
10
5.03056
20
-4.95853
11
5.03046
21
-4.95846
0
LINE
8
BLACK
6
CONTINUOUS
10
5.03046
20
-4.95846
11
5.03036
21
-4.95839
0
LINE
8
BLACK
6
CONTINUOUS
10
5.03036
20
-4.95839
11
5.00616
21
-4.94049
0
LINE
8
BLACK
6
CONTINUOUS
10
5.00616
20
-4.94049
11
5.00613
21
-4.94047
0
LINE
8
BLACK
6
CONTINUOUS
10
5.00613
20
-4.94047
11
5.00605
21
-4.94039
0
LINE
8
BLACK
6
CONTINUOUS
10
5.00605
20
-4.94039
11
5.00595
21
-4.94032
0
LINE
8
BLACK
6
CONTINUOUS
10
5.00595
20
-4.94032
11
4.98416
21
-4.92085
0
LINE
8
BLACK
6
CONTINUOUS
10
4.98416
20
-4.92085
11
4.98413
21
-4.92082
0
LINE
8
BLACK
6
CONTINUOUS
10
4.98413
20
-4.92082
11
4.98405
21
-4.92074
0
LINE
8
BLACK
6
CONTINUOUS
10
4.98405
20
-4.92074
11
4.98397
21
-4.92066
0
LINE
8
BLACK
6
CONTINUOUS
10
4.98397
20
-4.92066
11
4.96445
21
-4.89983
0
LINE
8
BLACK
6
CONTINUOUS
10
4.96445
20
-4.89983
11
4.96442
21
-4.8998
0
LINE
8
BLACK
6
CONTINUOUS
10
4.96442
20
-4.8998
11
4.96436
21
-4.89972
0
LINE
8
BLACK
6
CONTINUOUS
10
4.96436
20
-4.89972
11
4.96429
21
-4.89964
0
LINE
8
BLACK
6
CONTINUOUS
10
4.96429
20
-4.89964
11
4.94692
21
-4.87765
0
LINE
8
BLACK
6
CONTINUOUS
10
4.94692
20
-4.87765
11
4.94689
21
-4.87762
0
LINE
8
BLACK
6
CONTINUOUS
10
4.94689
20
-4.87762
11
4.94684
21
-4.87754
0
LINE
8
BLACK
6
CONTINUOUS
10
4.94684
20
-4.87754
11
4.94678
21
-4.87746
0
LINE
8
BLACK
6
CONTINUOUS
10
4.94678
20
-4.87746
11
4.93145
21
-4.85453
0
LINE
8
BLACK
6
CONTINUOUS
10
4.93145
20
-4.85453
11
4.93143
21
-4.8545
0
LINE
8
BLACK
6
CONTINUOUS
10
4.93143
20
-4.8545
11
4.93139
21
-4.85442
0
LINE
8
BLACK
6
CONTINUOUS
10
4.93139
20
-4.85442
11
4.93134
21
-4.85435
0
LINE
8
BLACK
6
CONTINUOUS
10
4.93134
20
-4.85435
11
4.91792
21
-4.83067
0
LINE
8
BLACK
6
CONTINUOUS
10
4.91792
20
-4.83067
11
4.91789
21
-4.83064
0
LINE
8
BLACK
6
CONTINUOUS
10
4.91789
20
-4.83064
11
4.91786
21
-4.83056
0
LINE
8
BLACK
6
CONTINUOUS
10
4.91786
20
-4.83056
11
4.91782
21
-4.8305
0
LINE
8
BLACK
6
CONTINUOUS
10
4.91782
20
-4.8305
11
4.90619
21
-4.80629
0
LINE
8
BLACK
6
CONTINUOUS
10
4.90619
20
-4.80629
11
4.90617
21
-4.80625
0
LINE
8
BLACK
6
CONTINUOUS
10
4.90617
20
-4.80625
11
4.90615
21
-4.80619
0
LINE
8
BLACK
6
CONTINUOUS
10
4.90615
20
-4.80619
11
4.90612
21
-4.80612
0
LINE
8
BLACK
6
CONTINUOUS
10
4.90612
20
-4.80612
11
4.89615
21
-4.78159
0
LINE
8
BLACK
6
CONTINUOUS
10
4.89615
20
-4.78159
11
4.89614
21
-4.78155
0
LINE
8
BLACK
6
CONTINUOUS
10
4.89614
20
-4.78155
11
4.89612
21
-4.78149
0
LINE
8
BLACK
6
CONTINUOUS
10
4.89612
20
-4.78149
11
4.8961
21
-4.78143
0
LINE
8
BLACK
6
CONTINUOUS
10
4.8961
20
-4.78143
11
4.88768
21
-4.75679
0
LINE
8
BLACK
6
CONTINUOUS
10
4.88768
20
-4.75679
11
4.88767
21
-4.75675
0
LINE
8
BLACK
6
CONTINUOUS
10
4.88767
20
-4.75675
11
4.88765
21
-4.75669
0
LINE
8
BLACK
6
CONTINUOUS
10
4.88765
20
-4.75669
11
4.88763
21
-4.75664
0
LINE
8
BLACK
6
CONTINUOUS
10
4.88763
20
-4.75664
11
4.88064
21
-4.73208
0
LINE
8
BLACK
6
CONTINUOUS
10
4.88064
20
-4.73208
11
4.88063
21
-4.73204
0
LINE
8
BLACK
6
CONTINUOUS
10
4.88063
20
-4.73204
11
4.88062
21
-4.73199
0
LINE
8
BLACK
6
CONTINUOUS
10
4.88062
20
-4.73199
11
4.88061
21
-4.73195
0
LINE
8
BLACK
6
CONTINUOUS
10
4.88061
20
-4.73195
11
4.87492
21
-4.70768
0
LINE
8
BLACK
6
CONTINUOUS
10
4.87492
20
-4.70768
11
4.87491
21
-4.70764
0
LINE
8
BLACK
6
CONTINUOUS
10
4.87491
20
-4.70764
11
4.8749
21
-4.7076
0
LINE
8
BLACK
6
CONTINUOUS
10
4.8749
20
-4.7076
11
4.87489
21
-4.70756
0
LINE
8
BLACK
6
CONTINUOUS
10
4.87489
20
-4.70756
11
4.87039
21
-4.6838
0
LINE
8
BLACK
6
CONTINUOUS
10
4.87039
20
-4.6838
11
4.87038
21
-4.68376
0
LINE
8
BLACK
6
CONTINUOUS
10
4.87038
20
-4.68376
11
4.87038
21
-4.68372
0
LINE
8
BLACK
6
CONTINUOUS
10
4.87038
20
-4.68372
11
4.87037
21
-4.68369
0
LINE
8
BLACK
6
CONTINUOUS
10
4.87037
20
-4.68369
11
4.86692
21
-4.66064
0
LINE
8
BLACK
6
CONTINUOUS
10
4.86692
20
-4.66064
11
4.86691
21
-4.6606
0
LINE
8
BLACK
6
CONTINUOUS
10
4.86691
20
-4.6606
11
4.86691
21
-4.66056
0
LINE
8
BLACK
6
CONTINUOUS
10
4.86691
20
-4.66056
11
4.86691
21
-4.66053
0
LINE
8
BLACK
6
CONTINUOUS
10
4.86691
20
-4.66053
11
4.8644
21
-4.6384
0
LINE
8
BLACK
6
CONTINUOUS
10
4.8644
20
-4.6384
11
4.86439
21
-4.63836
0
LINE
8
BLACK
6
CONTINUOUS
10
4.86439
20
-4.63836
11
4.86439
21
-4.63833
0
LINE
8
BLACK
6
CONTINUOUS
10
4.86439
20
-4.63833
11
4.86439
21
-4.63831
0
LINE
8
BLACK
6
CONTINUOUS
10
4.86439
20
-4.63831
11
4.8627
21
-4.6173
0
LINE
8
BLACK
6
CONTINUOUS
10
4.8627
20
-4.6173
11
4.86269
21
-4.61726
0
LINE
8
BLACK
6
CONTINUOUS
10
4.86269
20
-4.61726
11
4.86269
21
-4.61723
0
LINE
8
BLACK
6
CONTINUOUS
10
4.86269
20
-4.61723
11
4.86269
21
-4.61721
0
LINE
8
BLACK
6
CONTINUOUS
10
4.86269
20
-4.61721
11
4.86169
21
-4.59754
0
LINE
8
BLACK
6
CONTINUOUS
10
4.86169
20
-4.59754
11
4.86169
21
-4.59749
0
LINE
8
BLACK
6
CONTINUOUS
10
4.86169
20
-4.59749
11
4.86169
21
-4.59747
0
LINE
8
BLACK
6
CONTINUOUS
10
4.86169
20
-4.59747
11
4.86169
21
-4.59746
0
LINE
8
BLACK
6
CONTINUOUS
10
4.86169
20
-4.59746
11
4.86126
21
-4.57932
0
LINE
8
BLACK
6
CONTINUOUS
10
4.86126
20
-4.57932
11
4.86126
21
-4.57928
0
LINE
8
BLACK
6
CONTINUOUS
10
4.86126
20
-4.57928
11
4.86127
21
-4.57926
0
LINE
8
BLACK
6
CONTINUOUS
10
4.86127
20
-4.57926
11
4.86126
21
-4.57925
0
LINE
8
BLACK
6
CONTINUOUS
10
4.86126
20
-4.57925
11
4.86129
21
-4.56285
0
LINE
8
BLACK
6
CONTINUOUS
10
4.86129
20
-4.56285
11
4.86129
21
-4.56281
0
LINE
8
BLACK
6
CONTINUOUS
10
4.86129
20
-4.56281
11
4.86129
21
-4.5628
0
LINE
8
BLACK
6
CONTINUOUS
10
4.86129
20
-4.5628
11
4.86129
21
-4.56279
0
LINE
8
BLACK
6
CONTINUOUS
10
4.86129
20
-4.56279
11
4.86165
21
-4.54835
0
LINE
8
BLACK
6
CONTINUOUS
10
4.86165
20
-4.54835
11
4.86165
21
-4.54831
0
LINE
8
BLACK
6
CONTINUOUS
10
4.86165
20
-4.54831
11
4.86165
21
-4.5483
0
LINE
8
BLACK
6
CONTINUOUS
10
4.86165
20
-4.5483
11
4.86165
21
-4.54829
0
LINE
8
BLACK
6
CONTINUOUS
10
4.86165
20
-4.54829
11
4.86222
21
-4.53601
0
LINE
8
BLACK
6
CONTINUOUS
10
4.86222
20
-4.53601
11
4.86222
21
-4.53597
0
LINE
8
BLACK
6
CONTINUOUS
10
4.86222
20
-4.53597
11
4.86222
21
-4.53596
0
LINE
8
BLACK
6
CONTINUOUS
10
4.86222
20
-4.53596
11
4.86222
21
-4.53595
0
LINE
8
BLACK
6
CONTINUOUS
10
4.86222
20
-4.53595
11
4.86287
21
-4.52604
0
LINE
8
BLACK
6
CONTINUOUS
10
4.86287
20
-4.52604
11
4.86287
21
-4.526
0
LINE
8
BLACK
6
CONTINUOUS
10
4.86287
20
-4.526
11
4.86287
21
-4.526
0
LINE
8
BLACK
6
CONTINUOUS
10
4.86287
20
-4.526
11
4.86287
21
-4.52599
0
LINE
8
BLACK
6
CONTINUOUS
10
4.86287
20
-4.52599
11
4.86349
21
-4.51866
0
LINE
8
BLACK
6
CONTINUOUS
10
4.86349
20
-4.51866
11
4.86349
21
-4.51862
0
LINE
8
BLACK
6
CONTINUOUS
10
4.86349
20
-4.51862
11
4.86349
21
-4.51861
0
LINE
8
BLACK
6
CONTINUOUS
10
4.86349
20
-4.51861
11
4.86349
21
-4.5186
0
LINE
8
BLACK
6
CONTINUOUS
10
4.86349
20
-4.5186
11
4.8641
21
-4.51283
0
LINE
8
BLACK
6
CONTINUOUS
10
4.8641
20
-4.51283
11
4.86293
21
-4.50417
0
LINE
8
BLACK
6
CONTINUOUS
10
4.86293
20
-4.50417
11
4.86293
21
-4.50413
0
LINE
8
BLACK
6
CONTINUOUS
10
4.86293
20
-4.50413
11
4.86292
21
-4.50408
0
LINE
8
BLACK
6
CONTINUOUS
10
4.86292
20
-4.50408
11
4.86292
21
-4.50403
0
LINE
8
BLACK
6
CONTINUOUS
10
4.86292
20
-4.50403
11
4.86231
21
-4.4971
0
LINE
8
BLACK
6
CONTINUOUS
10
4.86231
20
-4.4971
11
4.86231
21
-4.49706
0
LINE
8
BLACK
6
CONTINUOUS
10
4.86231
20
-4.49706
11
4.86231
21
-4.49703
0
LINE
8
BLACK
6
CONTINUOUS
10
4.86231
20
-4.49703
11
4.86231
21
-4.49701
0
LINE
8
BLACK
6
CONTINUOUS
10
4.86231
20
-4.49701
11
4.86182
21
-4.48816
0
LINE
8
BLACK
6
CONTINUOUS
10
4.86182
20
-4.48816
11
4.86182
21
-4.48812
0
LINE
8
BLACK
6
CONTINUOUS
10
4.86182
20
-4.48812
11
4.86182
21
-4.48809
0
LINE
8
BLACK
6
CONTINUOUS
10
4.86182
20
-4.48809
11
4.86182
21
-4.48807
0
LINE
8
BLACK
6
CONTINUOUS
10
4.86182
20
-4.48807
11
4.86158
21
-4.47734
0
LINE
8
BLACK
6
CONTINUOUS
10
4.86158
20
-4.47734
11
4.86158
21
-4.4773
0
LINE
8
BLACK
6
CONTINUOUS
10
4.86158
20
-4.4773
11
4.86158
21
-4.47727
0
LINE
8
BLACK
6
CONTINUOUS
10
4.86158
20
-4.47727
11
4.86158
21
-4.47724
0
LINE
8
BLACK
6
CONTINUOUS
10
4.86158
20
-4.47724
11
4.86171
21
-4.46466
0
LINE
8
BLACK
6
CONTINUOUS
10
4.86171
20
-4.46466
11
4.86171
21
-4.46462
0
LINE
8
BLACK
6
CONTINUOUS
10
4.86171
20
-4.46462
11
4.86172
21
-4.46459
0
LINE
8
BLACK
6
CONTINUOUS
10
4.86172
20
-4.46459
11
4.86172
21
-4.46456
0
LINE
8
BLACK
6
CONTINUOUS
10
4.86172
20
-4.46456
11
4.86235
21
-4.45015
0
LINE
8
BLACK
6
CONTINUOUS
10
4.86235
20
-4.45015
11
4.86235
21
-4.45011
0
LINE
8
BLACK
6
CONTINUOUS
10
4.86235
20
-4.45011
11
4.86236
21
-4.45008
0
LINE
8
BLACK
6
CONTINUOUS
10
4.86236
20
-4.45008
11
4.86236
21
-4.45005
0
LINE
8
BLACK
6
CONTINUOUS
10
4.86236
20
-4.45005
11
4.86362
21
-4.43384
0
LINE
8
BLACK
6
CONTINUOUS
10
4.86362
20
-4.43384
11
4.86363
21
-4.4338
0
LINE
8
BLACK
6
CONTINUOUS
10
4.86363
20
-4.4338
11
4.86363
21
-4.43377
0
LINE
8
BLACK
6
CONTINUOUS
10
4.86363
20
-4.43377
11
4.86363
21
-4.43374
0
LINE
8
BLACK
6
CONTINUOUS
10
4.86363
20
-4.43374
11
4.86566
21
-4.41577
0
LINE
8
BLACK
6
CONTINUOUS
10
4.86566
20
-4.41577
11
4.86566
21
-4.41573
0
LINE
8
BLACK
6
CONTINUOUS
10
4.86566
20
-4.41573
11
4.86567
21
-4.4157
0
LINE
8
BLACK
6
CONTINUOUS
10
4.86567
20
-4.4157
11
4.86567
21
-4.41567
0
LINE
8
BLACK
6
CONTINUOUS
10
4.86567
20
-4.41567
11
4.86858
21
-4.39596
0
LINE
8
BLACK
6
CONTINUOUS
10
4.86858
20
-4.39596
11
4.86859
21
-4.39592
0
LINE
8
BLACK
6
CONTINUOUS
10
4.86859
20
-4.39592
11
4.8686
21
-4.39589
0
LINE
8
BLACK
6
CONTINUOUS
10
4.8686
20
-4.39589
11
4.8686
21
-4.39586
0
LINE
8
BLACK
6
CONTINUOUS
10
4.8686
20
-4.39586
11
4.87253
21
-4.37444
0
LINE
8
BLACK
6
CONTINUOUS
10
4.87253
20
-4.37444
11
4.87254
21
-4.3744
0
LINE
8
BLACK
6
CONTINUOUS
10
4.87254
20
-4.3744
11
4.87255
21
-4.37437
0
LINE
8
BLACK
6
CONTINUOUS
10
4.87255
20
-4.37437
11
4.87255
21
-4.37434
0
LINE
8
BLACK
6
CONTINUOUS
10
4.87255
20
-4.37434
11
4.87762
21
-4.35125
0
LINE
8
BLACK
6
CONTINUOUS
10
4.87762
20
-4.35125
11
4.87763
21
-4.35121
0
LINE
8
BLACK
6
CONTINUOUS
10
4.87763
20
-4.35121
11
4.87764
21
-4.35118
0
LINE
8
BLACK
6
CONTINUOUS
10
4.87764
20
-4.35118
11
4.87765
21
-4.35115
0
LINE
8
BLACK
6
CONTINUOUS
10
4.87765
20
-4.35115
11
4.88399
21
-4.3264
0
LINE
8
BLACK
6
CONTINUOUS
10
4.88399
20
-4.3264
11
4.884
21
-4.32636
0
LINE
8
BLACK
6
CONTINUOUS
10
4.884
20
-4.32636
11
4.88402
21
-4.32634
0
LINE
8
BLACK
6
CONTINUOUS
10
4.88402
20
-4.32634
11
4.88402
21
-4.3263
0
LINE
8
BLACK
6
CONTINUOUS
10
4.88402
20
-4.3263
11
4.89177
21
-4.29994
0
LINE
8
BLACK
6
CONTINUOUS
10
4.89177
20
-4.29994
11
4.89178
21
-4.2999
0
LINE
8
BLACK
6
CONTINUOUS
10
4.89178
20
-4.2999
11
4.89179
21
-4.29987
0
LINE
8
BLACK
6
CONTINUOUS
10
4.89179
20
-4.29987
11
4.8918
21
-4.29984
0
LINE
8
BLACK
6
CONTINUOUS
10
4.8918
20
-4.29984
11
4.90108
21
-4.27189
0
LINE
8
BLACK
6
CONTINUOUS
10
4.90108
20
-4.27189
11
4.90109
21
-4.27185
0
LINE
8
BLACK
6
CONTINUOUS
10
4.90109
20
-4.27185
11
4.9011
21
-4.27183
0
LINE
8
BLACK
6
CONTINUOUS
10
4.9011
20
-4.27183
11
4.90111
21
-4.2718
0
LINE
8
BLACK
6
CONTINUOUS
10
4.90111
20
-4.2718
11
4.91205
21
-4.24228
0
LINE
8
BLACK
6
CONTINUOUS
10
4.91205
20
-4.24228
11
4.91206
21
-4.24225
0
LINE
8
BLACK
6
CONTINUOUS
10
4.91206
20
-4.24225
11
4.91208
21
-4.24222
0
LINE
8
BLACK
6
CONTINUOUS
10
4.91208
20
-4.24222
11
4.91209
21
-4.24219
0
LINE
8
BLACK
6
CONTINUOUS
10
4.91209
20
-4.24219
11
4.92481
21
-4.21115
0
LINE
8
BLACK
6
CONTINUOUS
10
4.92481
20
-4.21115
11
4.92483
21
-4.21111
0
LINE
8
BLACK
6
CONTINUOUS
10
4.92483
20
-4.21111
11
4.92484
21
-4.21108
0
LINE
8
BLACK
6
CONTINUOUS
10
4.92484
20
-4.21108
11
4.92485
21
-4.21106
0
LINE
8
BLACK
6
CONTINUOUS
10
4.92485
20
-4.21106
11
4.93949
21
-4.17851
0
LINE
8
BLACK
6
CONTINUOUS
10
4.93949
20
-4.17851
11
4.93951
21
-4.17847
0
LINE
8
BLACK
6
CONTINUOUS
10
4.93951
20
-4.17847
11
4.93952
21
-4.17845
0
LINE
8
BLACK
6
CONTINUOUS
10
4.93952
20
-4.17845
11
4.93953
21
-4.17842
0
LINE
8
BLACK
6
CONTINUOUS
10
4.93953
20
-4.17842
11
4.95622
21
-4.14441
0
LINE
8
BLACK
6
CONTINUOUS
10
4.95622
20
-4.14441
11
4.95624
21
-4.14437
0
LINE
8
BLACK
6
CONTINUOUS
10
4.95624
20
-4.14437
11
4.95625
21
-4.14435
0
LINE
8
BLACK
6
CONTINUOUS
10
4.95625
20
-4.14435
11
4.95626
21
-4.14432
0
LINE
8
BLACK
6
CONTINUOUS
10
4.95626
20
-4.14432
11
4.97512
21
-4.10886
0
LINE
8
BLACK
6
CONTINUOUS
10
4.97512
20
-4.10886
11
4.97514
21
-4.10883
0
LINE
8
BLACK
6
CONTINUOUS
10
4.97514
20
-4.10883
11
4.97515
21
-4.1088
0
LINE
8
BLACK
6
CONTINUOUS
10
4.97515
20
-4.1088
11
4.97517
21
-4.10878
0
LINE
8
BLACK
6
CONTINUOUS
10
4.97517
20
-4.10878
11
4.99633
21
-4.07191
0
LINE
8
BLACK
6
CONTINUOUS
10
4.99633
20
-4.07191
11
4.99635
21
-4.07187
0
LINE
8
BLACK
6
CONTINUOUS
10
4.99635
20
-4.07187
11
4.99636
21
-4.07185
0
LINE
8
BLACK
6
CONTINUOUS
10
4.99636
20
-4.07185
11
4.99637
21
-4.07183
0
LINE
8
BLACK
6
CONTINUOUS
10
4.99637
20
-4.07183
11
5.01996
21
-4.03357
0
LINE
8
BLACK
6
CONTINUOUS
10
5.01996
20
-4.03357
11
5.01999
21
-4.03354
0
LINE
8
BLACK
6
CONTINUOUS
10
5.01999
20
-4.03354
11
5.02
21
-4.03352
0
LINE
8
BLACK
6
CONTINUOUS
10
5.02
20
-4.03352
11
5.02001
21
-4.0335
0
LINE
8
BLACK
6
CONTINUOUS
10
5.02001
20
-4.0335
11
5.04616
21
-3.99389
0
LINE
8
BLACK
6
CONTINUOUS
10
5.04616
20
-3.99389
11
5.04618
21
-3.99386
0
LINE
8
BLACK
6
CONTINUOUS
10
5.04618
20
-3.99386
11
5.0462
21
-3.99384
0
LINE
8
BLACK
6
CONTINUOUS
10
5.0462
20
-3.99384
11
5.04621
21
-3.99382
0
LINE
8
BLACK
6
CONTINUOUS
10
5.04621
20
-3.99382
11
5.07505
21
-3.95288
0
LINE
8
BLACK
6
CONTINUOUS
10
5.07505
20
-3.95288
11
5.07507
21
-3.95285
0
LINE
8
BLACK
6
CONTINUOUS
10
5.07507
20
-3.95285
11
5.07509
21
-3.95283
0
LINE
8
BLACK
6
CONTINUOUS
10
5.07509
20
-3.95283
11
5.0751
21
-3.95281
0
LINE
8
BLACK
6
CONTINUOUS
10
5.0751
20
-3.95281
11
5.10675
21
-3.91059
0
LINE
8
BLACK
6
CONTINUOUS
10
5.10675
20
-3.91059
11
5.10678
21
-3.91055
0
LINE
8
BLACK
6
CONTINUOUS
10
5.10678
20
-3.91055
11
5.10679
21
-3.91054
0
LINE
8
BLACK
6
CONTINUOUS
10
5.10679
20
-3.91054
11
5.1068
21
-3.91052
0
LINE
8
BLACK
6
CONTINUOUS
10
5.1068
20
-3.91052
11
5.1414
21
-3.86703
0
LINE
8
BLACK
6
CONTINUOUS
10
5.1414
20
-3.86703
11
5.14143
21
-3.867
0
LINE
8
BLACK
6
CONTINUOUS
10
5.14143
20
-3.867
11
5.14144
21
-3.86698
0
LINE
8
BLACK
6
CONTINUOUS
10
5.14144
20
-3.86698
11
5.14145
21
-3.86696
0
LINE
8
BLACK
6
CONTINUOUS
10
5.14145
20
-3.86696
11
5.17912
21
-3.82224
0
LINE
8
BLACK
6
CONTINUOUS
10
5.17912
20
-3.82224
11
5.17915
21
-3.82221
0
LINE
8
BLACK
6
CONTINUOUS
10
5.17915
20
-3.82221
11
5.17916
21
-3.82219
0
LINE
8
BLACK
6
CONTINUOUS
10
5.17916
20
-3.82219
11
5.17917
21
-3.82218
0
LINE
8
BLACK
6
CONTINUOUS
10
5.17917
20
-3.82218
11
5.22004
21
-3.77624
0
LINE
8
BLACK
6
CONTINUOUS
10
5.22004
20
-3.77624
11
5.22007
21
-3.77621
0
LINE
8
BLACK
6
CONTINUOUS
10
5.22007
20
-3.77621
11
5.22009
21
-3.7762
0
LINE
8
BLACK
6
CONTINUOUS
10
5.22009
20
-3.7762
11
5.2201
21
-3.77619
0
LINE
8
BLACK
6
CONTINUOUS
10
5.2201
20
-3.77619
11
5.2643
21
-3.72907
0
LINE
8
BLACK
6
CONTINUOUS
10
5.2643
20
-3.72907
11
5.26433
21
-3.72905
0
LINE
8
BLACK
6
CONTINUOUS
10
5.26433
20
-3.72905
11
5.26434
21
-3.72903
0
LINE
8
BLACK
6
CONTINUOUS
10
5.26434
20
-3.72903
11
5.26435
21
-3.72902
0
LINE
8
BLACK
6
CONTINUOUS
10
5.26435
20
-3.72902
11
5.31201
21
-3.68076
0
LINE
8
BLACK
6
CONTINUOUS
10
5.31201
20
-3.68076
11
5.31204
21
-3.68073
0
LINE
8
BLACK
6
CONTINUOUS
10
5.31204
20
-3.68073
11
5.31205
21
-3.68072
0
LINE
8
BLACK
6
CONTINUOUS
10
5.31205
20
-3.68072
11
5.31206
21
-3.68071
0
LINE
8
BLACK
6
CONTINUOUS
10
5.31206
20
-3.68071
11
5.36217
21
-3.63243
0
LINE
8
BLACK
6
CONTINUOUS
10
5.36217
20
-3.63243
11
5.36078
21
-3.62467
0
LINE
8
BLACK
6
CONTINUOUS
10
5.36078
20
-3.62467
11
5.36078
21
-3.62463
0
LINE
8
BLACK
6
CONTINUOUS
10
5.36078
20
-3.62463
11
5.36078
21
-3.62462
0
LINE
8
BLACK
6
CONTINUOUS
10
5.36078
20
-3.62462
11
5.36078
21
-3.62462
0
LINE
8
BLACK
6
CONTINUOUS
10
5.36078
20
-3.62462
11
5.35966
21
-3.61764
0
LINE
8
BLACK
6
CONTINUOUS
10
5.35966
20
-3.61764
11
5.35966
21
-3.6176
0
LINE
8
BLACK
6
CONTINUOUS
10
5.35966
20
-3.6176
11
5.35966
21
-3.6176
0
LINE
8
BLACK
6
CONTINUOUS
10
5.35966
20
-3.6176
11
5.35838
21
-3.60886
0
LINE
8
BLACK
6
CONTINUOUS
10
5.35838
20
-3.60886
11
5.35838
21
-3.60882
0
LINE
8
BLACK
6
CONTINUOUS
10
5.35838
20
-3.60882
11
5.35838
21
-3.60881
0
LINE
8
BLACK
6
CONTINUOUS
10
5.35838
20
-3.60881
11
5.35838
21
-3.60881
0
LINE
8
BLACK
6
CONTINUOUS
10
5.35838
20
-3.60881
11
5.35701
21
-3.5984
0
LINE
8
BLACK
6
CONTINUOUS
10
5.35701
20
-3.5984
11
5.35701
21
-3.59836
0
LINE
8
BLACK
6
CONTINUOUS
10
5.35701
20
-3.59836
11
5.35701
21
-3.59836
0
LINE
8
BLACK
6
CONTINUOUS
10
5.35701
20
-3.59836
11
5.35701
21
-3.59836
0
LINE
8
BLACK
6
CONTINUOUS
10
5.35701
20
-3.59836
11
5.35562
21
-3.58637
0
LINE
8
BLACK
6
CONTINUOUS
10
5.35562
20
-3.58637
11
5.35561
21
-3.58633
0
LINE
8
BLACK
6
CONTINUOUS
10
5.35561
20
-3.58633
11
5.35561
21
-3.58633
0
LINE
8
BLACK
6
CONTINUOUS
10
5.35561
20
-3.58633
11
5.35561
21
-3.58633
0
LINE
8
BLACK
6
CONTINUOUS
10
5.35561
20
-3.58633
11
5.35427
21
-3.57288
0
LINE
8
BLACK
6
CONTINUOUS
10
5.35427
20
-3.57288
11
5.35426
21
-3.57284
0
LINE
8
BLACK
6
CONTINUOUS
10
5.35426
20
-3.57284
11
5.35426
21
-3.57283
0
LINE
8
BLACK
6
CONTINUOUS
10
5.35426
20
-3.57283
11
5.35426
21
-3.57283
0
LINE
8
BLACK
6
CONTINUOUS
10
5.35426
20
-3.57283
11
5.35303
21
-3.55801
0
LINE
8
BLACK
6
CONTINUOUS
10
5.35303
20
-3.55801
11
5.35303
21
-3.55797
0
LINE
8
BLACK
6
CONTINUOUS
10
5.35303
20
-3.55797
11
5.35303
21
-3.55796
0
LINE
8
BLACK
6
CONTINUOUS
10
5.35303
20
-3.55796
11
5.35303
21
-3.55795
0
LINE
8
BLACK
6
CONTINUOUS
10
5.35303
20
-3.55795
11
5.35199
21
-3.54187
0
LINE
8
BLACK
6
CONTINUOUS
10
5.35199
20
-3.54187
11
5.35198
21
-3.54182
0
LINE
8
BLACK
6
CONTINUOUS
10
5.35198
20
-3.54182
11
5.35198
21
-3.54182
0
LINE
8
BLACK
6
CONTINUOUS
10
5.35198
20
-3.54182
11
5.35198
21
-3.54181
0
LINE
8
BLACK
6
CONTINUOUS
10
5.35198
20
-3.54181
11
5.35119
21
-3.52455
0
LINE
8
BLACK
6
CONTINUOUS
10
5.35119
20
-3.52455
11
5.35119
21
-3.52451
0
LINE
8
BLACK
6
CONTINUOUS
10
5.35119
20
-3.52451
11
5.35119
21
-3.5245
0
LINE
8
BLACK
6
CONTINUOUS
10
5.35119
20
-3.5245
11
5.35119
21
-3.52449
0
LINE
8
BLACK
6
CONTINUOUS
10
5.35119
20
-3.52449
11
5.35073
21
-3.50617
0
LINE
8
BLACK
6
CONTINUOUS
10
5.35073
20
-3.50617
11
5.35072
21
-3.50613
0
LINE
8
BLACK
6
CONTINUOUS
10
5.35072
20
-3.50613
11
5.35073
21
-3.50612
0
LINE
8
BLACK
6
CONTINUOUS
10
5.35073
20
-3.50612
11
5.35072
21
-3.5061
0
LINE
8
BLACK
6
CONTINUOUS
10
5.35072
20
-3.5061
11
5.35065
21
-3.48681
0
LINE
8
BLACK
6
CONTINUOUS
10
5.35065
20
-3.48681
11
5.35065
21
-3.48677
0
LINE
8
BLACK
6
CONTINUOUS
10
5.35065
20
-3.48677
11
5.35065
21
-3.48676
0
LINE
8
BLACK
6
CONTINUOUS
10
5.35065
20
-3.48676
11
5.35065
21
-3.48674
0
LINE
8
BLACK
6
CONTINUOUS
10
5.35065
20
-3.48674
11
5.35104
21
-3.46658
0
LINE
8
BLACK
6
CONTINUOUS
10
5.35104
20
-3.46658
11
5.35104
21
-3.46654
0
LINE
8
BLACK
6
CONTINUOUS
10
5.35104
20
-3.46654
11
5.35105
21
-3.46652
0
LINE
8
BLACK
6
CONTINUOUS
10
5.35105
20
-3.46652
11
5.35104
21
-3.46651
0
LINE
8
BLACK
6
CONTINUOUS
10
5.35104
20
-3.46651
11
5.35197
21
-3.44558
0
LINE
8
BLACK
6
CONTINUOUS
10
5.35197
20
-3.44558
11
5.35197
21
-3.44554
0
LINE
8
BLACK
6
CONTINUOUS
10
5.35197
20
-3.44554
11
5.35197
21
-3.44552
0
LINE
8
BLACK
6
CONTINUOUS
10
5.35197
20
-3.44552
11
5.35197
21
-3.4455
0
LINE
8
BLACK
6
CONTINUOUS
10
5.35197
20
-3.4455
11
5.35349
21
-3.4239
0
LINE
8
BLACK
6
CONTINUOUS
10
5.35349
20
-3.4239
11
5.3535
21
-3.42386
0
LINE
8
BLACK
6
CONTINUOUS
10
5.3535
20
-3.42386
11
5.3535
21
-3.42384
0
LINE
8
BLACK
6
CONTINUOUS
10
5.3535
20
-3.42384
11
5.3535
21
-3.42382
0
LINE
8
BLACK
6
CONTINUOUS
10
5.3535
20
-3.42382
11
5.35569
21
-3.40165
0
LINE
8
BLACK
6
CONTINUOUS
10
5.35569
20
-3.40165
11
5.3557
21
-3.40161
0
LINE
8
BLACK
6
CONTINUOUS
10
5.3557
20
-3.40161
11
5.3557
21
-3.40159
0
LINE
8
BLACK
6
CONTINUOUS
10
5.3557
20
-3.40159
11
5.3557
21
-3.40157
0
LINE
8
BLACK
6
CONTINUOUS
10
5.3557
20
-3.40157
11
5.35864
21
-3.37893
0
LINE
8
BLACK
6
CONTINUOUS
10
5.35864
20
-3.37893
11
5.35864
21
-3.37889
0
LINE
8
BLACK
6
CONTINUOUS
10
5.35864
20
-3.37889
11
5.35865
21
-3.37887
0
LINE
8
BLACK
6
CONTINUOUS
10
5.35865
20
-3.37887
11
5.35865
21
-3.37884
0
LINE
8
BLACK
6
CONTINUOUS
10
5.35865
20
-3.37884
11
5.36239
21
-3.35584
0
LINE
8
BLACK
6
CONTINUOUS
10
5.36239
20
-3.35584
11
5.3624
21
-3.3558
0
LINE
8
BLACK
6
CONTINUOUS
10
5.3624
20
-3.3558
11
5.36241
21
-3.35577
0
LINE
8
BLACK
6
CONTINUOUS
10
5.36241
20
-3.35577
11
5.36241
21
-3.35574
0
LINE
8
BLACK
6
CONTINUOUS
10
5.36241
20
-3.35574
11
5.36703
21
-3.33247
0
LINE
8
BLACK
6
CONTINUOUS
10
5.36703
20
-3.33247
11
5.36704
21
-3.33243
0
LINE
8
BLACK
6
CONTINUOUS
10
5.36704
20
-3.33243
11
5.36705
21
-3.33239
0
LINE
8
BLACK
6
CONTINUOUS
10
5.36705
20
-3.33239
11
5.36706
21
-3.33236
0
LINE
8
BLACK
6
CONTINUOUS
10
5.36706
20
-3.33236
11
5.37263
21
-3.30892
0
LINE
8
BLACK
6
CONTINUOUS
10
5.37263
20
-3.30892
11
5.37264
21
-3.30888
0
LINE
8
BLACK
6
CONTINUOUS
10
5.37264
20
-3.30888
11
5.37265
21
-3.30885
0
LINE
8
BLACK
6
CONTINUOUS
10
5.37265
20
-3.30885
11
5.37266
21
-3.30881
0
LINE
8
BLACK
6
CONTINUOUS
10
5.37266
20
-3.30881
11
5.37925
21
-3.28531
0
LINE
8
BLACK
6
CONTINUOUS
10
5.37925
20
-3.28531
11
5.37926
21
-3.28527
0
LINE
8
BLACK
6
CONTINUOUS
10
5.37926
20
-3.28527
11
5.37927
21
-3.28523
0
LINE
8
BLACK
6
CONTINUOUS
10
5.37927
20
-3.28523
11
5.37928
21
-3.28519
0
LINE
8
BLACK
6
CONTINUOUS
10
5.37928
20
-3.28519
11
5.38696
21
-3.26172
0
LINE
8
BLACK
6
CONTINUOUS
10
5.38696
20
-3.26172
11
5.38697
21
-3.26168
0
LINE
8
BLACK
6
CONTINUOUS
10
5.38697
20
-3.26168
11
5.38699
21
-3.26163
0
LINE
8
BLACK
6
CONTINUOUS
10
5.38699
20
-3.26163
11
5.387
21
-3.26159
0
LINE
8
BLACK
6
CONTINUOUS
10
5.387
20
-3.26159
11
5.39583
21
-3.23825
0
LINE
8
BLACK
6
CONTINUOUS
10
5.39583
20
-3.23825
11
5.39585
21
-3.23821
0
LINE
8
BLACK
6
CONTINUOUS
10
5.39585
20
-3.23821
11
5.39587
21
-3.23817
0
LINE
8
BLACK
6
CONTINUOUS
10
5.39587
20
-3.23817
11
5.39589
21
-3.23812
0
LINE
8
BLACK
6
CONTINUOUS
10
5.39589
20
-3.23812
11
5.40595
21
-3.21501
0
LINE
8
BLACK
6
CONTINUOUS
10
5.40595
20
-3.21501
11
5.40596
21
-3.21497
0
LINE
8
BLACK
6
CONTINUOUS
10
5.40596
20
-3.21497
11
5.40599
21
-3.21493
0
LINE
8
BLACK
6
CONTINUOUS
10
5.40599
20
-3.21493
11
5.40601
21
-3.21487
0
LINE
8
BLACK
6
CONTINUOUS
10
5.40601
20
-3.21487
11
5.41736
21
-3.1921
0
LINE
8
BLACK
6
CONTINUOUS
10
5.41736
20
-3.1921
11
5.41738
21
-3.19206
0
LINE
8
BLACK
6
CONTINUOUS
10
5.41738
20
-3.19206
11
5.41742
21
-3.19201
0
LINE
8
BLACK
6
CONTINUOUS
10
5.41742
20
-3.19201
11
5.41744
21
-3.19196
0
LINE
8
BLACK
6
CONTINUOUS
10
5.41744
20
-3.19196
11
5.43016
21
-3.16962
0
LINE
8
BLACK
6
CONTINUOUS
10
5.43016
20
-3.16962
11
5.43018
21
-3.16958
0
LINE
8
BLACK
6
CONTINUOUS
10
5.43018
20
-3.16958
11
5.43022
21
-3.16953
0
LINE
8
BLACK
6
CONTINUOUS
10
5.43022
20
-3.16953
11
5.43025
21
-3.16947
0
LINE
8
BLACK
6
CONTINUOUS
10
5.43025
20
-3.16947
11
5.4444
21
-3.14767
0
LINE
8
BLACK
6
CONTINUOUS
10
5.4444
20
-3.14767
11
5.44442
21
-3.14763
0
LINE
8
BLACK
6
CONTINUOUS
10
5.44442
20
-3.14763
11
5.44447
21
-3.14758
0
LINE
8
BLACK
6
CONTINUOUS
10
5.44447
20
-3.14758
11
5.4445
21
-3.14752
0
LINE
8
BLACK
6
CONTINUOUS
10
5.4445
20
-3.14752
11
5.46016
21
-3.12635
0
LINE
8
BLACK
6
CONTINUOUS
10
5.46016
20
-3.12635
11
5.46018
21
-3.12631
0
LINE
8
BLACK
6
CONTINUOUS
10
5.46018
20
-3.12631
11
5.46023
21
-3.12626
0
LINE
8
BLACK
6
CONTINUOUS
10
5.46023
20
-3.12626
11
5.46027
21
-3.1262
0
LINE
8
BLACK
6
CONTINUOUS
10
5.46027
20
-3.1262
11
5.4775
21
-3.10576
0
LINE
8
BLACK
6
CONTINUOUS
10
5.4775
20
-3.10576
11
5.47753
21
-3.10573
0
LINE
8
BLACK
6
CONTINUOUS
10
5.47753
20
-3.10573
11
5.47759
21
-3.10567
0
LINE
8
BLACK
6
CONTINUOUS
10
5.47759
20
-3.10567
11
5.47763
21
-3.10561
0
LINE
8
BLACK
6
CONTINUOUS
10
5.47763
20
-3.10561
11
5.4965
21
-3.08601
0
LINE
8
BLACK
6
CONTINUOUS
10
5.4965
20
-3.08601
11
5.49653
21
-3.08598
0
LINE
8
BLACK
6
CONTINUOUS
10
5.49653
20
-3.08598
11
5.49659
21
-3.08593
0
LINE
8
BLACK
6
CONTINUOUS
10
5.49659
20
-3.08593
11
5.49665
21
-3.08587
0
LINE
8
BLACK
6
CONTINUOUS
10
5.49665
20
-3.08587
11
5.51617
21
-3.06816
0
LINE
8
BLACK
6
CONTINUOUS
10
5.51617
20
-3.06816
11
5.51444
21
-3.04446
0
LINE
8
BLACK
6
CONTINUOUS
10
5.51444
20
-3.04446
11
5.51213
21
-3.02107
0
LINE
8
BLACK
6
CONTINUOUS
10
5.51213
20
-3.02107
11
5.50933
21
-2.99933
0
LINE
8
BLACK
6
CONTINUOUS
10
5.50933
20
-2.99933
11
5.50606
21
-2.97919
0
LINE
8
BLACK
6
CONTINUOUS
10
5.50606
20
-2.97919
11
5.50231
21
-2.96057
0
LINE
8
BLACK
6
CONTINUOUS
10
5.50231
20
-2.96057
11
5.49809
21
-2.94342
0
LINE
8
BLACK
6
CONTINUOUS
10
5.49809
20
-2.94342
11
5.4934
21
-2.92766
0
LINE
8
BLACK
6
CONTINUOUS
10
5.4934
20
-2.92766
11
5.48826
21
-2.91323
0
LINE
8
BLACK
6
CONTINUOUS
10
5.48826
20
-2.91323
11
5.48267
21
-2.90007
0
LINE
8
BLACK
6
CONTINUOUS
10
5.48267
20
-2.90007
11
5.47663
21
-2.88812
0
LINE
8
BLACK
6
CONTINUOUS
10
5.47663
20
-2.88812
11
5.47016
21
-2.87729
0
LINE
8
BLACK
6
CONTINUOUS
10
5.47016
20
-2.87729
11
5.46325
21
-2.86752
0
LINE
8
BLACK
6
CONTINUOUS
10
5.46325
20
-2.86752
11
5.45591
21
-2.85875
0
LINE
8
BLACK
6
CONTINUOUS
10
5.45591
20
-2.85875
11
5.44814
21
-2.85089
0
LINE
8
BLACK
6
CONTINUOUS
10
5.44814
20
-2.85089
11
5.43993
21
-2.84389
0
LINE
8
BLACK
6
CONTINUOUS
10
5.43993
20
-2.84389
11
5.43129
21
-2.83766
0
LINE
8
BLACK
6
CONTINUOUS
10
5.43129
20
-2.83766
11
5.42221
21
-2.83214
0
LINE
8
BLACK
6
CONTINUOUS
10
5.42221
20
-2.83214
11
5.41269
21
-2.82728
0
LINE
8
BLACK
6
CONTINUOUS
10
5.41269
20
-2.82728
11
5.40272
21
-2.82299
0
LINE
8
BLACK
6
CONTINUOUS
10
5.40272
20
-2.82299
11
5.39231
21
-2.81923
0
LINE
8
BLACK
6
CONTINUOUS
10
5.39231
20
-2.81923
11
5.38145
21
-2.81593
0
LINE
8
BLACK
6
CONTINUOUS
10
5.38145
20
-2.81593
11
5.37015
21
-2.81303
0
LINE
8
BLACK
6
CONTINUOUS
10
5.37015
20
-2.81303
11
5.35842
21
-2.81047
0
LINE
8
BLACK
6
CONTINUOUS
10
5.35842
20
-2.81047
11
5.34625
21
-2.80818
0
LINE
8
BLACK
6
CONTINUOUS
10
5.34625
20
-2.80818
11
5.33365
21
-2.8061
0
LINE
8
BLACK
6
CONTINUOUS
10
5.33365
20
-2.8061
11
5.32063
21
-2.80416
0
LINE
8
BLACK
6
CONTINUOUS
10
5.32063
20
-2.80416
11
5.30719
21
-2.80231
0
LINE
8
BLACK
6
CONTINUOUS
10
5.30719
20
-2.80231
11
5.29333
21
-2.80049
0
LINE
8
BLACK
6
CONTINUOUS
10
5.29333
20
-2.80049
11
5.29333
21
-2.80049
0
LINE
8
BLACK
6
CONTINUOUS
10
5.29333
20
-2.80049
11
5.27907
21
-2.79861
0
LINE
8
BLACK
6
CONTINUOUS
10
5.27907
20
-2.79861
11
5.27906
21
-2.79861
0
LINE
8
BLACK
6
CONTINUOUS
10
5.27906
20
-2.79861
11
5.27906
21
-2.79861
0
LINE
8
BLACK
6
CONTINUOUS
10
5.27906
20
-2.79861
11
5.26441
21
-2.79662
0
LINE
8
BLACK
6
CONTINUOUS
10
5.26441
20
-2.79662
11
5.26438
21
-2.79662
0
LINE
8
BLACK
6
CONTINUOUS
10
5.26438
20
-2.79662
11
5.26438
21
-2.79662
0
LINE
8
BLACK
6
CONTINUOUS
10
5.26438
20
-2.79662
11
5.24934
21
-2.79446
0
LINE
8
BLACK
6
CONTINUOUS
10
5.24934
20
-2.79446
11
5.24931
21
-2.79446
0
LINE
8
BLACK
6
CONTINUOUS
10
5.24931
20
-2.79446
11
5.24931
21
-2.79446
0
LINE
8
BLACK
6
CONTINUOUS
10
5.24931
20
-2.79446
11
5.23388
21
-2.79206
0
LINE
8
BLACK
6
CONTINUOUS
10
5.23388
20
-2.79206
11
5.23384
21
-2.79206
0
LINE
8
BLACK
6
CONTINUOUS
10
5.23384
20
-2.79206
11
5.2336
21
-2.79199
0
LINE
8
BLACK
6
CONTINUOUS
10
5.2336
20
-2.79199
11
5.23336
21
-2.79193
0
LINE
8
BLACK
6
CONTINUOUS
10
5.23336
20
-2.79193
11
5.22708
21
-2.78974
0
LINE
8
BLACK
6
CONTINUOUS
10
5.22708
20
-2.78974
11
5.22704
21
-2.78972
0
LINE
8
BLACK
6
CONTINUOUS
10
5.22704
20
-2.78972
11
5.22693
21
-2.78967
0
LINE
8
BLACK
6
CONTINUOUS
10
5.22693
20
-2.78967
11
5.22681
21
-2.78963
0
LINE
8
BLACK
6
CONTINUOUS
10
5.22681
20
-2.78963
11
5.22104
21
-2.78693
0
LINE
8
BLACK
6
CONTINUOUS
10
5.22104
20
-2.78693
11
5.221
21
-2.78691
0
LINE
8
BLACK
6
CONTINUOUS
10
5.221
20
-2.78691
11
5.22089
21
-2.78684
0
LINE
8
BLACK
6
CONTINUOUS
10
5.22089
20
-2.78684
11
5.22077
21
-2.78679
0
LINE
8
BLACK
6
CONTINUOUS
10
5.22077
20
-2.78679
11
5.21549
21
-2.78363
0
LINE
8
BLACK
6
CONTINUOUS
10
5.21549
20
-2.78363
11
5.21546
21
-2.78361
0
LINE
8
BLACK
6
CONTINUOUS
10
5.21546
20
-2.78361
11
5.21535
21
-2.78352
0
LINE
8
BLACK
6
CONTINUOUS
10
5.21535
20
-2.78352
11
5.21524
21
-2.78345
0
LINE
8
BLACK
6
CONTINUOUS
10
5.21524
20
-2.78345
11
5.21046
21
-2.77986
0
LINE
8
BLACK
6
CONTINUOUS
10
5.21046
20
-2.77986
11
5.21042
21
-2.77984
0
LINE
8
BLACK
6
CONTINUOUS
10
5.21042
20
-2.77984
11
5.2103
21
-2.77972
0
LINE
8
BLACK
6
CONTINUOUS
10
5.2103
20
-2.77972
11
5.21016
21
-2.77961
0
LINE
8
BLACK
6
CONTINUOUS
10
5.21016
20
-2.77961
11
5.20392
21
-2.7735
0
LINE
8
BLACK
6
CONTINUOUS
10
5.20392
20
-2.7735
11
5.2039
21
-2.77348
0
LINE
8
BLACK
6
CONTINUOUS
10
5.2039
20
-2.77348
11
5.20376
21
-2.77331
0
LINE
8
BLACK
6
CONTINUOUS
10
5.20376
20
-2.77331
11
5.20362
21
-2.77316
0
LINE
8
BLACK
6
CONTINUOUS
10
5.20362
20
-2.77316
11
5.1985
21
-2.76629
0
LINE
8
BLACK
6
CONTINUOUS
10
5.1985
20
-2.76629
11
5.19847
21
-2.76626
0
LINE
8
BLACK
6
CONTINUOUS
10
5.19847
20
-2.76626
11
5.19837
21
-2.76609
0
LINE
8
BLACK
6
CONTINUOUS
10
5.19837
20
-2.76609
11
5.19826
21
-2.76592
0
LINE
8
BLACK
6
CONTINUOUS
10
5.19826
20
-2.76592
11
5.19424
21
-2.75842
0
LINE
8
BLACK
6
CONTINUOUS
10
5.19424
20
-2.75842
11
5.19422
21
-2.75838
0
LINE
8
BLACK
6
CONTINUOUS
10
5.19422
20
-2.75838
11
5.19415
21
-2.75821
0
LINE
8
BLACK
6
CONTINUOUS
10
5.19415
20
-2.75821
11
5.19407
21
-2.75803
0
LINE
8
BLACK
6
CONTINUOUS
10
5.19407
20
-2.75803
11
5.19116
21
-2.75002
0
LINE
8
BLACK
6
CONTINUOUS
10
5.19116
20
-2.75002
11
5.19114
21
-2.74998
0
LINE
8
BLACK
6
CONTINUOUS
10
5.19114
20
-2.74998
11
5.1911
21
-2.74981
0
LINE
8
BLACK
6
CONTINUOUS
10
5.1911
20
-2.74981
11
5.19104
21
-2.74964
0
LINE
8
BLACK
6
CONTINUOUS
10
5.19104
20
-2.74964
11
5.18923
21
-2.74124
0
LINE
8
BLACK
6
CONTINUOUS
10
5.18923
20
-2.74124
11
5.18922
21
-2.7412
0
LINE
8
BLACK
6
CONTINUOUS
10
5.18922
20
-2.7412
11
5.18921
21
-2.74103
0
LINE
8
BLACK
6
CONTINUOUS
10
5.18921
20
-2.74103
11
5.18918
21
-2.74086
0
LINE
8
BLACK
6
CONTINUOUS
10
5.18918
20
-2.74086
11
5.18846
21
-2.73219
0
LINE
8
BLACK
6
CONTINUOUS
10
5.18846
20
-2.73219
11
5.18846
21
-2.73215
0
LINE
8
BLACK
6
CONTINUOUS
10
5.18846
20
-2.73215
11
5.18847
21
-2.73199
0
LINE
8
BLACK
6
CONTINUOUS
10
5.18847
20
-2.73199
11
5.18846
21
-2.73182
0
LINE
8
BLACK
6
CONTINUOUS
10
5.18846
20
-2.73182
11
5.18884
21
-2.72302
0
LINE
8
BLACK
6
CONTINUOUS
10
5.18884
20
-2.72302
11
5.18884
21
-2.72298
0
LINE
8
BLACK
6
CONTINUOUS
10
5.18884
20
-2.72298
11
5.18886
21
-2.72285
0
LINE
8
BLACK
6
CONTINUOUS
10
5.18886
20
-2.72285
11
5.18887
21
-2.72272
0
LINE
8
BLACK
6
CONTINUOUS
10
5.18887
20
-2.72272
11
5.18973
21
-2.71684
0
LINE
8
BLACK
6
CONTINUOUS
10
5.18973
20
-2.71684
11
5.18974
21
-2.7168
0
LINE
8
BLACK
6
CONTINUOUS
10
5.18974
20
-2.7168
11
5.18976
21
-2.71673
0
LINE
8
BLACK
6
CONTINUOUS
10
5.18976
20
-2.71673
11
5.18977
21
-2.71667
0
LINE
8
BLACK
6
CONTINUOUS
10
5.18977
20
-2.71667
11
5.19038
21
-2.71373
0
LINE
8
BLACK
6
CONTINUOUS
10
5.19038
20
-2.71373
11
5.19039
21
-2.71369
0
LINE
8
BLACK
6
CONTINUOUS
10
5.19039
20
-2.71369
11
5.19042
21
-2.71361
0
LINE
8
BLACK
6
CONTINUOUS
10
5.19042
20
-2.71361
11
5.19043
21
-2.71352
0
LINE
8
BLACK
6
CONTINUOUS
10
5.19043
20
-2.71352
11
5.19286
21
-2.70512
0
LINE
8
BLACK
6
CONTINUOUS
10
5.19286
20
-2.70512
11
5.19287
21
-2.70508
0
LINE
8
BLACK
6
CONTINUOUS
10
5.19287
20
-2.70508
11
5.19293
21
-2.70494
0
LINE
8
BLACK
6
CONTINUOUS
10
5.19293
20
-2.70494
11
5.19297
21
-2.7048
0
LINE
8
BLACK
6
CONTINUOUS
10
5.19297
20
-2.7048
11
5.19626
21
-2.69696
0
LINE
8
BLACK
6
CONTINUOUS
10
5.19626
20
-2.69696
11
5.19628
21
-2.69692
0
LINE
8
BLACK
6
CONTINUOUS
10
5.19628
20
-2.69692
11
5.19636
21
-2.69678
0
LINE
8
BLACK
6
CONTINUOUS
10
5.19636
20
-2.69678
11
5.19642
21
-2.69663
0
LINE
8
BLACK
6
CONTINUOUS
10
5.19642
20
-2.69663
11
5.20056
21
-2.68941
0
LINE
8
BLACK
6
CONTINUOUS
10
5.20056
20
-2.68941
11
5.20059
21
-2.68938
0
LINE
8
BLACK
6
CONTINUOUS
10
5.20059
20
-2.68938
11
5.20069
21
-2.68924
0
LINE
8
BLACK
6
CONTINUOUS
10
5.20069
20
-2.68924
11
5.20078
21
-2.68909
0
LINE
8
BLACK
6
CONTINUOUS
10
5.20078
20
-2.68909
11
5.20576
21
-2.68257
0
LINE
8
BLACK
6
CONTINUOUS
10
5.20576
20
-2.68257
11
5.20578
21
-2.68254
0
LINE
8
BLACK
6
CONTINUOUS
10
5.20578
20
-2.68254
11
5.20591
21
-2.68241
0
LINE
8
BLACK
6
CONTINUOUS
10
5.20591
20
-2.68241
11
5.20603
21
-2.68227
0
LINE
8
BLACK
6
CONTINUOUS
10
5.20603
20
-2.68227
11
5.21184
21
-2.67651
0
LINE
8
BLACK
6
CONTINUOUS
10
5.21184
20
-2.67651
11
5.21186
21
-2.67648
0
LINE
8
BLACK
6
CONTINUOUS
10
5.21186
20
-2.67648
11
5.21201
21
-2.67637
0
LINE
8
BLACK
6
CONTINUOUS
10
5.21201
20
-2.67637
11
5.21215
21
-2.67624
0
LINE
8
BLACK
6
CONTINUOUS
10
5.21215
20
-2.67624
11
5.21878
21
-2.67132
0
LINE
8
BLACK
6
CONTINUOUS
10
5.21878
20
-2.67132
11
5.21881
21
-2.6713
0
LINE
8
BLACK
6
CONTINUOUS
10
5.21881
20
-2.6713
11
5.21898
21
-2.6712
0
LINE
8
BLACK
6
CONTINUOUS
10
5.21898
20
-2.6712
11
5.21914
21
-2.6711
0
LINE
8
BLACK
6
CONTINUOUS
10
5.21914
20
-2.6711
11
5.22657
21
-2.66709
0
LINE
8
BLACK
6
CONTINUOUS
10
5.22657
20
-2.66709
11
5.2266
21
-2.66707
0
LINE
8
BLACK
6
CONTINUOUS
10
5.2266
20
-2.66707
11
5.22678
21
-2.667
0
LINE
8
BLACK
6
CONTINUOUS
10
5.22678
20
-2.667
11
5.22695
21
-2.66692
0
LINE
8
BLACK
6
CONTINUOUS
10
5.22695
20
-2.66692
11
5.23517
21
-2.66388
0
LINE
8
BLACK
6
CONTINUOUS
10
5.23517
20
-2.66388
11
5.23521
21
-2.66387
0
LINE
8
BLACK
6
CONTINUOUS
10
5.23521
20
-2.66387
11
5.23535
21
-2.66383
0
LINE
8
BLACK
6
CONTINUOUS
10
5.23535
20
-2.66383
11
5.23549
21
-2.66379
0
LINE
8
BLACK
6
CONTINUOUS
10
5.23549
20
-2.66379
11
5.24141
21
-2.66234
0
LINE
8
BLACK
6
CONTINUOUS
10
5.24141
20
-2.66234
11
5.24145
21
-2.66233
0
LINE
8
BLACK
6
CONTINUOUS
10
5.24145
20
-2.66233
11
5.24156
21
-2.66232
0
LINE
8
BLACK
6
CONTINUOUS
10
5.24156
20
-2.66232
11
5.24167
21
-2.66229
0
LINE
8
BLACK
6
CONTINUOUS
10
5.24167
20
-2.66229
11
5.24793
21
-2.66133
0
LINE
8
BLACK
6
CONTINUOUS
10
5.24793
20
-2.66133
11
5.24797
21
-2.66133
0
LINE
8
BLACK
6
CONTINUOUS
10
5.24797
20
-2.66133
11
5.24807
21
-2.66132
0
LINE
8
BLACK
6
CONTINUOUS
10
5.24807
20
-2.66132
11
5.24818
21
-2.66131
0
LINE
8
BLACK
6
CONTINUOUS
10
5.24818
20
-2.66131
11
5.25478
21
-2.66086
0
LINE
8
BLACK
6
CONTINUOUS
10
5.25478
20
-2.66086
11
5.25482
21
-2.66085
0
LINE
8
BLACK
6
CONTINUOUS
10
5.25482
20
-2.66085
11
5.25492
21
-2.66086
0
LINE
8
BLACK
6
CONTINUOUS
10
5.25492
20
-2.66086
11
5.25502
21
-2.66085
0
LINE
8
BLACK
6
CONTINUOUS
10
5.25502
20
-2.66085
11
5.26196
21
-2.66093
0
LINE
8
BLACK
6
CONTINUOUS
10
5.26196
20
-2.66093
11
5.262
21
-2.66093
0
LINE
8
BLACK
6
CONTINUOUS
10
5.262
20
-2.66093
11
5.26207
21
-2.66094
0
LINE
8
BLACK
6
CONTINUOUS
10
5.26207
20
-2.66094
11
5.26214
21
-2.66094
0
LINE
8
BLACK
6
CONTINUOUS
10
5.26214
20
-2.66094
11
5.26868
21
-2.6614
0
LINE
8
BLACK
6
CONTINUOUS
10
5.26868
20
-2.6614
11
5.28132
21
-2.66194
0
LINE
8
BLACK
6
CONTINUOUS
10
5.28132
20
-2.66194
11
5.28135
21
-2.66194
0
LINE
8
BLACK
6
CONTINUOUS
10
5.28135
20
-2.66194
11
5.28136
21
-2.66194
0
LINE
8
BLACK
6
CONTINUOUS
10
5.28136
20
-2.66194
11
5.28972
21
-2.6624
0
LINE
8
BLACK
6
CONTINUOUS
10
5.28972
20
-2.6624
11
5.28976
21
-2.6624
0
LINE
8
BLACK
6
CONTINUOUS
10
5.28976
20
-2.6624
11
5.28977
21
-2.6624
0
LINE
8
BLACK
6
CONTINUOUS
10
5.28977
20
-2.6624
11
5.28977
21
-2.6624
0
LINE
8
BLACK
6
CONTINUOUS
10
5.28977
20
-2.6624
11
5.29935
21
-2.66307
0
LINE
8
BLACK
6
CONTINUOUS
10
5.29935
20
-2.66307
11
5.2994
21
-2.66307
0
LINE
8
BLACK
6
CONTINUOUS
10
5.2994
20
-2.66307
11
5.2994
21
-2.66307
0
LINE
8
BLACK
6
CONTINUOUS
10
5.2994
20
-2.66307
11
5.29941
21
-2.66307
0
LINE
8
BLACK
6
CONTINUOUS
10
5.29941
20
-2.66307
11
5.31011
21
-2.66402
0
LINE
8
BLACK
6
CONTINUOUS
10
5.31011
20
-2.66402
11
5.31015
21
-2.66403
0
LINE
8
BLACK
6
CONTINUOUS
10
5.31015
20
-2.66403
11
5.31016
21
-2.66403
0
LINE
8
BLACK
6
CONTINUOUS
10
5.31016
20
-2.66403
11
5.31018
21
-2.66403
0
LINE
8
BLACK
6
CONTINUOUS
10
5.31018
20
-2.66403
11
5.32189
21
-2.66532
0
LINE
8
BLACK
6
CONTINUOUS
10
5.32189
20
-2.66532
11
5.32193
21
-2.66533
0
LINE
8
BLACK
6
CONTINUOUS
10
5.32193
20
-2.66533
11
5.32195
21
-2.66533
0
LINE
8
BLACK
6
CONTINUOUS
10
5.32195
20
-2.66533
11
5.32196
21
-2.66533
0
LINE
8
BLACK
6
CONTINUOUS
10
5.32196
20
-2.66533
11
5.33459
21
-2.66704
0
LINE
8
BLACK
6
CONTINUOUS
10
5.33459
20
-2.66704
11
5.33463
21
-2.66704
0
LINE
8
BLACK
6
CONTINUOUS
10
5.33463
20
-2.66704
11
5.33465
21
-2.66705
0
LINE
8
BLACK
6
CONTINUOUS
10
5.33465
20
-2.66705
11
5.33467
21
-2.66705
0
LINE
8
BLACK
6
CONTINUOUS
10
5.33467
20
-2.66705
11
5.34811
21
-2.66923
0
LINE
8
BLACK
6
CONTINUOUS
10
5.34811
20
-2.66923
11
5.34815
21
-2.66924
0
LINE
8
BLACK
6
CONTINUOUS
10
5.34815
20
-2.66924
11
5.34817
21
-2.66925
0
LINE
8
BLACK
6
CONTINUOUS
10
5.34817
20
-2.66925
11
5.3482
21
-2.66925
0
LINE
8
BLACK
6
CONTINUOUS
10
5.3482
20
-2.66925
11
5.36235
21
-2.67198
0
LINE
8
BLACK
6
CONTINUOUS
10
5.36235
20
-2.67198
11
5.36239
21
-2.67198
0
LINE
8
BLACK
6
CONTINUOUS
10
5.36239
20
-2.67198
11
5.36241
21
-2.67199
0
LINE
8
BLACK
6
CONTINUOUS
10
5.36241
20
-2.67199
11
5.36244
21
-2.672
0
LINE
8
BLACK
6
CONTINUOUS
10
5.36244
20
-2.672
11
5.3772
21
-2.67533
0
LINE
8
BLACK
6
CONTINUOUS
10
5.3772
20
-2.67533
11
5.37724
21
-2.67534
0
LINE
8
BLACK
6
CONTINUOUS
10
5.37724
20
-2.67534
11
5.37727
21
-2.67535
0
LINE
8
BLACK
6
CONTINUOUS
10
5.37727
20
-2.67535
11
5.3773
21
-2.67536
0
LINE
8
BLACK
6
CONTINUOUS
10
5.3773
20
-2.67536
11
5.39257
21
-2.67937
0
LINE
8
BLACK
6
CONTINUOUS
10
5.39257
20
-2.67937
11
5.39261
21
-2.67938
0
LINE
8
BLACK
6
CONTINUOUS
10
5.39261
20
-2.67938
11
5.39264
21
-2.67939
0
LINE
8
BLACK
6
CONTINUOUS
10
5.39264
20
-2.67939
11
5.39267
21
-2.6794
0
LINE
8
BLACK
6
CONTINUOUS
10
5.39267
20
-2.6794
11
5.40834
21
-2.68416
0
LINE
8
BLACK
6
CONTINUOUS
10
5.40834
20
-2.68416
11
5.40838
21
-2.68417
0
LINE
8
BLACK
6
CONTINUOUS
10
5.40838
20
-2.68417
11
5.40842
21
-2.68418
0
LINE
8
BLACK
6
CONTINUOUS
10
5.40842
20
-2.68418
11
5.40846
21
-2.68419
0
LINE
8
BLACK
6
CONTINUOUS
10
5.40846
20
-2.68419
11
5.42443
21
-2.68976
0
LINE
8
BLACK
6
CONTINUOUS
10
5.42443
20
-2.68976
11
5.42447
21
-2.68977
0
LINE
8
BLACK
6
CONTINUOUS
10
5.42447
20
-2.68977
11
5.42451
21
-2.68979
0
LINE
8
BLACK
6
CONTINUOUS
10
5.42451
20
-2.68979
11
5.42455
21
-2.6898
0
LINE
8
BLACK
6
CONTINUOUS
10
5.42455
20
-2.6898
11
5.44073
21
-2.69624
0
LINE
8
BLACK
6
CONTINUOUS
10
5.44073
20
-2.69624
11
5.44077
21
-2.69625
0
LINE
8
BLACK
6
CONTINUOUS
10
5.44077
20
-2.69625
11
5.44081
21
-2.69627
0
LINE
8
BLACK
6
CONTINUOUS
10
5.44081
20
-2.69627
11
5.44086
21
-2.69629
0
LINE
8
BLACK
6
CONTINUOUS
10
5.44086
20
-2.69629
11
5.45714
21
-2.70367
0
LINE
8
BLACK
6
CONTINUOUS
10
5.45714
20
-2.70367
11
5.45718
21
-2.70368
0
LINE
8
BLACK
6
CONTINUOUS
10
5.45718
20
-2.70368
11
5.45722
21
-2.70371
0
LINE
8
BLACK
6
CONTINUOUS
10
5.45722
20
-2.70371
11
5.45727
21
-2.70373
0
LINE
8
BLACK
6
CONTINUOUS
10
5.45727
20
-2.70373
11
5.47355
21
-2.71211
0
LINE
8
BLACK
6
CONTINUOUS
10
5.47355
20
-2.71211
11
5.47359
21
-2.71213
0
LINE
8
BLACK
6
CONTINUOUS
10
5.47359
20
-2.71213
11
5.47364
21
-2.71216
0
LINE
8
BLACK
6
CONTINUOUS
10
5.47364
20
-2.71216
11
5.47369
21
-2.71219
0
LINE
8
BLACK
6
CONTINUOUS
10
5.47369
20
-2.71219
11
5.48987
21
-2.72164
0
LINE
8
BLACK
6
CONTINUOUS
10
5.48987
20
-2.72164
11
5.4899
21
-2.72166
0
LINE
8
BLACK
6
CONTINUOUS
10
5.4899
20
-2.72166
11
5.48995
21
-2.7217
0
LINE
8
BLACK
6
CONTINUOUS
10
5.48995
20
-2.7217
11
5.49001
21
-2.72173
0
LINE
8
BLACK
6
CONTINUOUS
10
5.49001
20
-2.72173
11
5.50598
21
-2.73232
0
LINE
8
BLACK
6
CONTINUOUS
10
5.50598
20
-2.73232
11
5.50602
21
-2.73234
0
LINE
8
BLACK
6
CONTINUOUS
10
5.50602
20
-2.73234
11
5.50607
21
-2.73239
0
LINE
8
BLACK
6
CONTINUOUS
10
5.50607
20
-2.73239
11
5.50613
21
-2.73242
0
LINE
8
BLACK
6
CONTINUOUS
10
5.50613
20
-2.73242
11
5.52179
21
-2.74422
0
LINE
8
BLACK
6
CONTINUOUS
10
5.52179
20
-2.74422
11
5.52183
21
-2.74424
0
LINE
8
BLACK
6
CONTINUOUS
10
5.52183
20
-2.74424
11
5.52188
21
-2.74429
0
LINE
8
BLACK
6
CONTINUOUS
10
5.52188
20
-2.74429
11
5.52194
21
-2.74433
0
LINE
8
BLACK
6
CONTINUOUS
10
5.52194
20
-2.74433
11
5.5372
21
-2.7574
0
LINE
8
BLACK
6
CONTINUOUS
10
5.5372
20
-2.7574
11
5.53723
21
-2.75742
0
LINE
8
BLACK
6
CONTINUOUS
10
5.53723
20
-2.75742
11
5.53728
21
-2.75748
0
LINE
8
BLACK
6
CONTINUOUS
10
5.53728
20
-2.75748
11
5.53734
21
-2.75753
0
LINE
8
BLACK
6
CONTINUOUS
10
5.53734
20
-2.75753
11
5.5521
21
-2.77193
0
LINE
8
BLACK
6
CONTINUOUS
10
5.5521
20
-2.77193
11
5.55212
21
-2.77195
0
LINE
8
BLACK
6
CONTINUOUS
10
5.55212
20
-2.77195
11
5.55217
21
-2.77202
0
LINE
8
BLACK
6
CONTINUOUS
10
5.55217
20
-2.77202
11
5.55223
21
-2.77207
0
LINE
8
BLACK
6
CONTINUOUS
10
5.55223
20
-2.77207
11
5.56638
21
-2.78787
0
LINE
8
BLACK
6
CONTINUOUS
10
5.56638
20
-2.78787
11
5.5664
21
-2.7879
0
LINE
8
BLACK
6
CONTINUOUS
10
5.5664
20
-2.7879
11
5.56645
21
-2.78797
0
LINE
8
BLACK
6
CONTINUOUS
10
5.56645
20
-2.78797
11
5.56651
21
-2.78803
0
LINE
8
BLACK
6
CONTINUOUS
10
5.56651
20
-2.78803
11
5.57994
21
-2.8053
0
LINE
8
BLACK
6
CONTINUOUS
10
5.57994
20
-2.8053
11
5.57997
21
-2.80533
0
LINE
8
BLACK
6
CONTINUOUS
10
5.57997
20
-2.80533
11
5.58001
21
-2.8054
0
LINE
8
BLACK
6
CONTINUOUS
10
5.58001
20
-2.8054
11
5.58006
21
-2.80546
0
LINE
8
BLACK
6
CONTINUOUS
10
5.58006
20
-2.80546
11
5.59268
21
-2.82427
0
LINE
8
BLACK
6
CONTINUOUS
10
5.59268
20
-2.82427
11
5.5927
21
-2.8243
0
LINE
8
BLACK
6
CONTINUOUS
10
5.5927
20
-2.8243
11
5.59274
21
-2.82437
0
LINE
8
BLACK
6
CONTINUOUS
10
5.59274
20
-2.82437
11
5.59279
21
-2.82444
0
LINE
8
BLACK
6
CONTINUOUS
10
5.59279
20
-2.82444
11
5.6045
21
-2.84484
0
LINE
8
BLACK
6
CONTINUOUS
10
5.6045
20
-2.84484
11
5.60452
21
-2.84488
0
LINE
8
BLACK
6
CONTINUOUS
10
5.60452
20
-2.84488
11
5.60455
21
-2.84496
0
LINE
8
BLACK
6
CONTINUOUS
10
5.60455
20
-2.84496
11
5.60459
21
-2.84503
0
LINE
8
BLACK
6
CONTINUOUS
10
5.60459
20
-2.84503
11
5.61528
21
-2.86709
0
LINE
8
BLACK
6
CONTINUOUS
10
5.61528
20
-2.86709
11
5.6153
21
-2.86713
0
LINE
8
BLACK
6
CONTINUOUS
10
5.6153
20
-2.86713
11
5.61533
21
-2.86721
0
LINE
8
BLACK
6
CONTINUOUS
10
5.61533
20
-2.86721
11
5.61537
21
-2.86728
0
LINE
8
BLACK
6
CONTINUOUS
10
5.61537
20
-2.86728
11
5.62494
21
-2.89108
0
LINE
8
BLACK
6
CONTINUOUS
10
5.62494
20
-2.89108
11
5.62496
21
-2.89112
0
LINE
8
BLACK
6
CONTINUOUS
10
5.62496
20
-2.89112
11
5.62498
21
-2.89119
0
LINE
8
BLACK
6
CONTINUOUS
10
5.62498
20
-2.89119
11
5.62501
21
-2.89126
0
LINE
8
BLACK
6
CONTINUOUS
10
5.62501
20
-2.89126
11
5.63336
21
-2.91686
0
LINE
8
BLACK
6
CONTINUOUS
10
5.63336
20
-2.91686
11
5.63338
21
-2.9169
0
LINE
8
BLACK
6
CONTINUOUS
10
5.63338
20
-2.9169
11
5.63339
21
-2.91697
0
LINE
8
BLACK
6
CONTINUOUS
10
5.63339
20
-2.91697
11
5.63342
21
-2.91704
0
LINE
8
BLACK
6
CONTINUOUS
10
5.63342
20
-2.91704
11
5.64045
21
-2.94451
0
LINE
8
BLACK
6
CONTINUOUS
10
5.64045
20
-2.94451
11
5.64046
21
-2.94455
0
LINE
8
BLACK
6
CONTINUOUS
10
5.64046
20
-2.94455
11
5.64047
21
-2.94462
0
LINE
8
BLACK
6
CONTINUOUS
10
5.64047
20
-2.94462
11
5.64049
21
-2.94468
0
LINE
8
BLACK
6
CONTINUOUS
10
5.64049
20
-2.94468
11
5.64544
21
-2.97062
0
LINE
8
BLACK
6
CONTINUOUS
10
5.64544
20
-2.97062
11
5.6519
21
-2.96816
0
LINE
8
BLACK
6
CONTINUOUS
10
5.6519
20
-2.96816
11
5.65192
21
-2.96815
0
LINE
8
BLACK
6
CONTINUOUS
10
5.65192
20
-2.96815
11
5.65192
21
-2.96815
0
LINE
8
BLACK
6
CONTINUOUS
10
5.65192
20
-2.96815
11
5.66134
21
-2.96465
0
LINE
8
BLACK
6
CONTINUOUS
10
5.66134
20
-2.96465
11
5.66136
21
-2.96464
0
LINE
8
BLACK
6
CONTINUOUS
10
5.66136
20
-2.96464
11
5.66136
21
-2.96464
0
LINE
8
BLACK
6
CONTINUOUS
10
5.66136
20
-2.96464
11
5.67046
21
-2.96133
0
LINE
8
BLACK
6
CONTINUOUS
10
5.67046
20
-2.96133
11
5.67048
21
-2.96132
0
LINE
8
BLACK
6
CONTINUOUS
10
5.67048
20
-2.96132
11
5.67048
21
-2.96132
0
LINE
8
BLACK
6
CONTINUOUS
10
5.67048
20
-2.96132
11
5.67929
21
-2.95819
0
LINE
8
BLACK
6
CONTINUOUS
10
5.67929
20
-2.95819
11
5.67931
21
-2.95819
0
LINE
8
BLACK
6
CONTINUOUS
10
5.67931
20
-2.95819
11
5.67931
21
-2.95819
0
LINE
8
BLACK
6
CONTINUOUS
10
5.67931
20
-2.95819
11
5.68786
21
-2.95521
0
LINE
8
BLACK
6
CONTINUOUS
10
5.68786
20
-2.95521
11
5.68788
21
-2.95521
0
LINE
8
BLACK
6
CONTINUOUS
10
5.68788
20
-2.95521
11
5.68788
21
-2.95521
0
LINE
8
BLACK
6
CONTINUOUS
10
5.68788
20
-2.95521
11
5.69619
21
-2.95237
0
LINE
8
BLACK
6
CONTINUOUS
10
5.69619
20
-2.95237
11
5.69621
21
-2.95237
0
LINE
8
BLACK
6
CONTINUOUS
10
5.69621
20
-2.95237
11
5.69621
21
-2.95237
0
LINE
8
BLACK
6
CONTINUOUS
10
5.69621
20
-2.95237
11
5.70431
21
-2.94965
0
LINE
8
BLACK
6
CONTINUOUS
10
5.70431
20
-2.94965
11
5.70432
21
-2.94965
0
LINE
8
BLACK
6
CONTINUOUS
10
5.70432
20
-2.94965
11
5.70432
21
-2.94965
0
LINE
8
BLACK
6
CONTINUOUS
10
5.70432
20
-2.94965
11
5.71224
21
-2.94704
0
LINE
8
BLACK
6
CONTINUOUS
10
5.71224
20
-2.94704
11
5.71224
21
-2.94703
0
LINE
8
BLACK
6
CONTINUOUS
10
5.71224
20
-2.94703
11
5.71225
21
-2.94703
0
LINE
8
BLACK
6
CONTINUOUS
10
5.71225
20
-2.94703
11
5.71999
21
-2.94451
0
LINE
8
BLACK
6
CONTINUOUS
10
5.71999
20
-2.94451
11
5.72
21
-2.94451
0
LINE
8
BLACK
6
CONTINUOUS
10
5.72
20
-2.94451
11
5.72
21
-2.94451
0
LINE
8
BLACK
6
CONTINUOUS
10
5.72
20
-2.94451
11
5.72761
21
-2.94205
0
LINE
8
BLACK
6
CONTINUOUS
10
5.72761
20
-2.94205
11
5.72761
21
-2.94205
0
LINE
8
BLACK
6
CONTINUOUS
10
5.72761
20
-2.94205
11
5.72761
21
-2.94205
0
LINE
8
BLACK
6
CONTINUOUS
10
5.72761
20
-2.94205
11
5.73511
21
-2.93964
0
LINE
8
BLACK
6
CONTINUOUS
10
5.73511
20
-2.93964
11
5.73511
21
-2.93964
0
LINE
8
BLACK
6
CONTINUOUS
10
5.73511
20
-2.93964
11
5.74251
21
-2.93726
0
LINE
8
BLACK
6
CONTINUOUS
10
5.74251
20
-2.93726
11
5.74251
21
-2.93726
0
LINE
8
BLACK
6
CONTINUOUS
10
5.74251
20
-2.93726
11
5.74984
21
-2.93489
0
LINE
8
BLACK
6
CONTINUOUS
10
5.74984
20
-2.93489
11
5.74984
21
-2.93489
0
LINE
8
BLACK
6
CONTINUOUS
10
5.74984
20
-2.93489
11
5.75713
21
-2.93252
0
LINE
8
BLACK
6
CONTINUOUS
10
5.75713
20
-2.93252
11
5.7644
21
-2.93013
0
LINE
8
BLACK
6
CONTINUOUS
10
5.7644
20
-2.93013
11
5.77038
21
-2.92813
0
LINE
8
BLACK
6
CONTINUOUS
10
5.77038
20
-2.92813
11
5.7741
21
-2.91888
0
LINE
8
BLACK
6
CONTINUOUS
10
5.7741
20
-2.91888
11
5.77411
21
-2.91884
0
LINE
8
BLACK
6
CONTINUOUS
10
5.77411
20
-2.91884
11
5.77413
21
-2.91881
0
LINE
8
BLACK
6
CONTINUOUS
10
5.77413
20
-2.91881
11
5.77414
21
-2.91877
0
LINE
8
BLACK
6
CONTINUOUS
10
5.77414
20
-2.91877
11
5.77831
21
-2.90945
0
LINE
8
BLACK
6
CONTINUOUS
10
5.77831
20
-2.90945
11
5.77832
21
-2.90941
0
LINE
8
BLACK
6
CONTINUOUS
10
5.77832
20
-2.90941
11
5.77835
21
-2.90937
0
LINE
8
BLACK
6
CONTINUOUS
10
5.77835
20
-2.90937
11
5.77837
21
-2.90932
0
LINE
8
BLACK
6
CONTINUOUS
10
5.77837
20
-2.90932
11
5.7825
21
-2.90112
0
LINE
8
BLACK
6
CONTINUOUS
10
5.7825
20
-2.90112
11
5.78252
21
-2.90108
0
LINE
8
BLACK
6
CONTINUOUS
10
5.78252
20
-2.90108
11
5.78255
21
-2.90103
0
LINE
8
BLACK
6
CONTINUOUS
10
5.78255
20
-2.90103
11
5.78258
21
-2.90097
0
LINE
8
BLACK
6
CONTINUOUS
10
5.78258
20
-2.90097
11
5.7867
21
-2.89381
0
LINE
8
BLACK
6
CONTINUOUS
10
5.7867
20
-2.89381
11
5.78672
21
-2.89378
0
LINE
8
BLACK
6
CONTINUOUS
10
5.78672
20
-2.89378
11
5.78676
21
-2.89371
0
LINE
8
BLACK
6
CONTINUOUS
10
5.78676
20
-2.89371
11
5.7868
21
-2.89365
0
LINE
8
BLACK
6
CONTINUOUS
10
5.7868
20
-2.89365
11
5.79093
21
-2.88745
0
LINE
8
BLACK
6
CONTINUOUS
10
5.79093
20
-2.88745
11
5.79096
21
-2.88742
0
LINE
8
BLACK
6
CONTINUOUS
10
5.79096
20
-2.88742
11
5.79102
21
-2.88735
0
LINE
8
BLACK
6
CONTINUOUS
10
5.79102
20
-2.88735
11
5.79107
21
-2.88727
0
LINE
8
BLACK
6
CONTINUOUS
10
5.79107
20
-2.88727
11
5.79523
21
-2.88197
0
LINE
8
BLACK
6
CONTINUOUS
10
5.79523
20
-2.88197
11
5.79525
21
-2.88193
0
LINE
8
BLACK
6
CONTINUOUS
10
5.79525
20
-2.88193
11
5.79533
21
-2.88185
0
LINE
8
BLACK
6
CONTINUOUS
10
5.79533
20
-2.88185
11
5.7954
21
-2.88177
0
LINE
8
BLACK
6
CONTINUOUS
10
5.7954
20
-2.88177
11
5.79962
21
-2.87728
0
LINE
8
BLACK
6
CONTINUOUS
10
5.79962
20
-2.87728
11
5.79964
21
-2.87725
0
LINE
8
BLACK
6
CONTINUOUS
10
5.79964
20
-2.87725
11
5.79977
21
-2.87715
0
LINE
8
BLACK
6
CONTINUOUS
10
5.79977
20
-2.87715
11
5.79988
21
-2.87703
0
LINE
8
BLACK
6
CONTINUOUS
10
5.79988
20
-2.87703
11
5.80635
21
-2.87167
0
LINE
8
BLACK
6
CONTINUOUS
10
5.80635
20
-2.87167
11
5.80638
21
-2.87165
0
LINE
8
BLACK
6
CONTINUOUS
10
5.80638
20
-2.87165
11
5.80657
21
-2.87153
0
LINE
8
BLACK
6
CONTINUOUS
10
5.80657
20
-2.87153
11
5.80674
21
-2.8714
0
LINE
8
BLACK
6
CONTINUOUS
10
5.80674
20
-2.8714
11
5.81345
21
-2.86746
0
LINE
8
BLACK
6
CONTINUOUS
10
5.81345
20
-2.86746
11
5.81349
21
-2.86744
0
LINE
8
BLACK
6
CONTINUOUS
10
5.81349
20
-2.86744
11
5.81368
21
-2.86736
0
LINE
8
BLACK
6
CONTINUOUS
10
5.81368
20
-2.86736
11
5.81386
21
-2.86726
0
LINE
8
BLACK
6
CONTINUOUS
10
5.81386
20
-2.86726
11
5.82089
21
-2.86448
0
LINE
8
BLACK
6
CONTINUOUS
10
5.82089
20
-2.86448
11
5.82092
21
-2.86447
0
LINE
8
BLACK
6
CONTINUOUS
10
5.82092
20
-2.86447
11
5.82109
21
-2.86442
0
LINE
8
BLACK
6
CONTINUOUS
10
5.82109
20
-2.86442
11
5.82125
21
-2.86437
0
LINE
8
BLACK
6
CONTINUOUS
10
5.82125
20
-2.86437
11
5.82866
21
-2.8625
0
LINE
8
BLACK
6
CONTINUOUS
10
5.82866
20
-2.8625
11
5.8287
21
-2.86249
0
LINE
8
BLACK
6
CONTINUOUS
10
5.8287
20
-2.86249
11
5.82882
21
-2.86247
0
LINE
8
BLACK
6
CONTINUOUS
10
5.82882
20
-2.86247
11
5.82893
21
-2.86245
0
LINE
8
BLACK
6
CONTINUOUS
10
5.82893
20
-2.86245
11
5.8368
21
-2.86124
0
LINE
8
BLACK
6
CONTINUOUS
10
5.8368
20
-2.86124
11
5.83685
21
-2.86123
0
LINE
8
BLACK
6
CONTINUOUS
10
5.83685
20
-2.86123
11
5.83691
21
-2.86123
0
LINE
8
BLACK
6
CONTINUOUS
10
5.83691
20
-2.86123
11
5.83697
21
-2.86122
0
LINE
8
BLACK
6
CONTINUOUS
10
5.83697
20
-2.86122
11
5.84536
21
-2.86041
0
LINE
8
BLACK
6
CONTINUOUS
10
5.84536
20
-2.86041
11
5.84536
21
-2.86041
0
LINE
8
BLACK
6
CONTINUOUS
10
5.84536
20
-2.86041
11
5.84536
21
-2.86041
0
LINE
8
BLACK
6
CONTINUOUS
10
5.84536
20
-2.86041
11
5.84537
21
-2.86041
0
LINE
8
BLACK
6
CONTINUOUS
10
5.84537
20
-2.86041
11
5.84542
21
-2.86041
0
LINE
8
BLACK
6
CONTINUOUS
10
5.84542
20
-2.86041
11
5.84568
21
-2.86041
0
LINE
8
BLACK
6
CONTINUOUS
10
5.84568
20
-2.86041
11
5.84594
21
-2.86041
0
LINE
8
BLACK
6
CONTINUOUS
10
5.84594
20
-2.86041
11
5.85434
21
-2.86122
0
LINE
8
BLACK
6
CONTINUOUS
10
5.85434
20
-2.86122
11
5.85438
21
-2.86122
0
LINE
8
BLACK
6
CONTINUOUS
10
5.85438
20
-2.86122
11
5.85444
21
-2.86123
0
LINE
8
BLACK
6
CONTINUOUS
10
5.85444
20
-2.86123
11
5.85451
21
-2.86124
0
LINE
8
BLACK
6
CONTINUOUS
10
5.85451
20
-2.86124
11
5.86238
21
-2.86245
0
LINE
8
BLACK
6
CONTINUOUS
10
5.86238
20
-2.86245
11
5.86242
21
-2.86245
0
LINE
8
BLACK
6
CONTINUOUS
10
5.86242
20
-2.86245
11
5.86253
21
-2.86248
0
LINE
8
BLACK
6
CONTINUOUS
10
5.86253
20
-2.86248
11
5.86265
21
-2.8625
0
LINE
8
BLACK
6
CONTINUOUS
10
5.86265
20
-2.8625
11
5.87006
21
-2.86437
0
LINE
8
BLACK
6
CONTINUOUS
10
5.87006
20
-2.86437
11
5.8701
21
-2.86438
0
LINE
8
BLACK
6
CONTINUOUS
10
5.8701
20
-2.86438
11
5.87026
21
-2.86444
0
LINE
8
BLACK
6
CONTINUOUS
10
5.87026
20
-2.86444
11
5.87043
21
-2.86448
0
LINE
8
BLACK
6
CONTINUOUS
10
5.87043
20
-2.86448
11
5.87745
21
-2.86726
0
LINE
8
BLACK
6
CONTINUOUS
10
5.87745
20
-2.86726
11
5.87749
21
-2.86728
0
LINE
8
BLACK
6
CONTINUOUS
10
5.87749
20
-2.86728
11
5.87767
21
-2.86737
0
LINE
8
BLACK
6
CONTINUOUS
10
5.87767
20
-2.86737
11
5.87786
21
-2.86746
0
LINE
8
BLACK
6
CONTINUOUS
10
5.87786
20
-2.86746
11
5.88457
21
-2.8714
0
LINE
8
BLACK
6
CONTINUOUS
10
5.88457
20
-2.8714
11
5.88461
21
-2.87142
0
LINE
8
BLACK
6
CONTINUOUS
10
5.88461
20
-2.87142
11
5.88478
21
-2.87155
0
LINE
8
BLACK
6
CONTINUOUS
10
5.88478
20
-2.87155
11
5.88496
21
-2.87167
0
LINE
8
BLACK
6
CONTINUOUS
10
5.88496
20
-2.87167
11
5.89143
21
-2.87703
0
LINE
8
BLACK
6
CONTINUOUS
10
5.89143
20
-2.87703
11
5.89146
21
-2.87706
0
LINE
8
BLACK
6
CONTINUOUS
10
5.89146
20
-2.87706
11
5.89157
21
-2.87717
0
LINE
8
BLACK
6
CONTINUOUS
10
5.89157
20
-2.87717
11
5.8917
21
-2.87728
0
LINE
8
BLACK
6
CONTINUOUS
10
5.8917
20
-2.87728
11
5.89591
21
-2.88177
0
LINE
8
BLACK
6
CONTINUOUS
10
5.89591
20
-2.88177
11
5.89594
21
-2.8818
0
LINE
8
BLACK
6
CONTINUOUS
10
5.89594
20
-2.8818
11
5.89601
21
-2.88189
0
LINE
8
BLACK
6
CONTINUOUS
10
5.89601
20
-2.88189
11
5.89608
21
-2.88197
0
LINE
8
BLACK
6
CONTINUOUS
10
5.89608
20
-2.88197
11
5.90025
21
-2.88727
0
LINE
8
BLACK
6
CONTINUOUS
10
5.90025
20
-2.88727
11
5.90027
21
-2.8873
0
LINE
8
BLACK
6
CONTINUOUS
10
5.90027
20
-2.8873
11
5.90032
21
-2.88738
0
LINE
8
BLACK
6
CONTINUOUS
10
5.90032
20
-2.88738
11
5.90038
21
-2.88745
0
LINE
8
BLACK
6
CONTINUOUS
10
5.90038
20
-2.88745
11
5.90451
21
-2.89365
0
LINE
8
BLACK
6
CONTINUOUS
10
5.90451
20
-2.89365
11
5.90453
21
-2.89368
0
LINE
8
BLACK
6
CONTINUOUS
10
5.90453
20
-2.89368
11
5.90457
21
-2.89375
0
LINE
8
BLACK
6
CONTINUOUS
10
5.90457
20
-2.89375
11
5.90461
21
-2.89381
0
LINE
8
BLACK
6
CONTINUOUS
10
5.90461
20
-2.89381
11
5.90874
21
-2.90097
0
LINE
8
BLACK
6
CONTINUOUS
10
5.90874
20
-2.90097
11
5.90876
21
-2.90101
0
LINE
8
BLACK
6
CONTINUOUS
10
5.90876
20
-2.90101
11
5.90878
21
-2.90107
0
LINE
8
BLACK
6
CONTINUOUS
10
5.90878
20
-2.90107
11
5.90881
21
-2.90112
0
LINE
8
BLACK
6
CONTINUOUS
10
5.90881
20
-2.90112
11
5.91295
21
-2.90932
0
LINE
8
BLACK
6
CONTINUOUS
10
5.91295
20
-2.90932
11
5.91297
21
-2.90936
0
LINE
8
BLACK
6
CONTINUOUS
10
5.91297
20
-2.90936
11
5.91298
21
-2.90941
0
LINE
8
BLACK
6
CONTINUOUS
10
5.91298
20
-2.90941
11
5.91301
21
-2.90945
0
LINE
8
BLACK
6
CONTINUOUS
10
5.91301
20
-2.90945
11
5.91717
21
-2.91877
0
LINE
8
BLACK
6
CONTINUOUS
10
5.91717
20
-2.91877
11
5.91719
21
-2.91881
0
LINE
8
BLACK
6
CONTINUOUS
10
5.91719
20
-2.91881
11
5.9172
21
-2.91884
0
LINE
8
BLACK
6
CONTINUOUS
10
5.9172
20
-2.91884
11
5.91722
21
-2.91888
0
LINE
8
BLACK
6
CONTINUOUS
10
5.91722
20
-2.91888
11
5.92093
21
-2.92813
0
LINE
8
BLACK
6
CONTINUOUS
10
5.92093
20
-2.92813
11
5.92692
21
-2.93013
0
LINE
8
BLACK
6
CONTINUOUS
10
5.92692
20
-2.93013
11
5.93419
21
-2.93252
0
LINE
8
BLACK
6
CONTINUOUS
10
5.93419
20
-2.93252
11
5.94148
21
-2.93489
0
LINE
8
BLACK
6
CONTINUOUS
10
5.94148
20
-2.93489
11
5.94148
21
-2.93489
0
LINE
8
BLACK
6
CONTINUOUS
10
5.94148
20
-2.93489
11
5.9488
21
-2.93726
0
LINE
8
BLACK
6
CONTINUOUS
10
5.9488
20
-2.93726
11
5.9488
21
-2.93726
0
LINE
8
BLACK
6
CONTINUOUS
10
5.9488
20
-2.93726
11
5.95621
21
-2.93964
0
LINE
8
BLACK
6
CONTINUOUS
10
5.95621
20
-2.93964
11
5.95621
21
-2.93964
0
LINE
8
BLACK
6
CONTINUOUS
10
5.95621
20
-2.93964
11
5.95621
21
-2.93964
0
LINE
8
BLACK
6
CONTINUOUS
10
5.95621
20
-2.93964
11
5.9637
21
-2.94205
0
LINE
8
BLACK
6
CONTINUOUS
10
5.9637
20
-2.94205
11
5.9637
21
-2.94205
0
LINE
8
BLACK
6
CONTINUOUS
10
5.9637
20
-2.94205
11
5.9637
21
-2.94205
0
LINE
8
BLACK
6
CONTINUOUS
10
5.9637
20
-2.94205
11
5.97131
21
-2.94451
0
LINE
8
BLACK
6
CONTINUOUS
10
5.97131
20
-2.94451
11
5.97132
21
-2.94451
0
LINE
8
BLACK
6
CONTINUOUS
10
5.97132
20
-2.94451
11
5.97132
21
-2.94451
0
LINE
8
BLACK
6
CONTINUOUS
10
5.97132
20
-2.94451
11
5.97907
21
-2.94703
0
LINE
8
BLACK
6
CONTINUOUS
10
5.97907
20
-2.94703
11
5.97908
21
-2.94704
0
LINE
8
BLACK
6
CONTINUOUS
10
5.97908
20
-2.94704
11
5.97908
21
-2.94704
0
LINE
8
BLACK
6
CONTINUOUS
10
5.97908
20
-2.94704
11
5.98699
21
-2.94965
0
LINE
8
BLACK
6
CONTINUOUS
10
5.98699
20
-2.94965
11
5.987
21
-2.94965
0
LINE
8
BLACK
6
CONTINUOUS
10
5.987
20
-2.94965
11
5.987
21
-2.94965
0
LINE
8
BLACK
6
CONTINUOUS
10
5.987
20
-2.94965
11
5.9951
21
-2.95237
0
LINE
8
BLACK
6
CONTINUOUS
10
5.9951
20
-2.95237
11
5.99512
21
-2.95237
0
LINE
8
BLACK
6
CONTINUOUS
10
5.99512
20
-2.95237
11
5.99512
21
-2.95237
0
LINE
8
BLACK
6
CONTINUOUS
10
5.99512
20
-2.95237
11
6.00343
21
-2.95521
0
LINE
8
BLACK
6
CONTINUOUS
10
6.00343
20
-2.95521
11
6.00345
21
-2.95521
0
LINE
8
BLACK
6
CONTINUOUS
10
6.00345
20
-2.95521
11
6.00345
21
-2.95521
0
LINE
8
BLACK
6
CONTINUOUS
10
6.00345
20
-2.95521
11
6.012
21
-2.95819
0
LINE
8
BLACK
6
CONTINUOUS
10
6.012
20
-2.95819
11
6.01202
21
-2.95819
0
LINE
8
BLACK
6
CONTINUOUS
10
6.01202
20
-2.95819
11
6.01202
21
-2.95819
0
LINE
8
BLACK
6
CONTINUOUS
10
6.01202
20
-2.95819
11
6.02083
21
-2.96132
0
LINE
8
BLACK
6
CONTINUOUS
10
6.02083
20
-2.96132
11
6.02085
21
-2.96133
0
LINE
8
BLACK
6
CONTINUOUS
10
6.02085
20
-2.96133
11
6.02085
21
-2.96133
0
LINE
8
BLACK
6
CONTINUOUS
10
6.02085
20
-2.96133
11
6.02995
21
-2.96464
0
LINE
8
BLACK
6
CONTINUOUS
10
6.02995
20
-2.96464
11
6.02997
21
-2.96465
0
LINE
8
BLACK
6
CONTINUOUS
10
6.02997
20
-2.96465
11
6.02998
21
-2.96465
0
LINE
8
BLACK
6
CONTINUOUS
10
6.02998
20
-2.96465
11
6.03939
21
-2.96815
0
LINE
8
BLACK
6
CONTINUOUS
10
6.03939
20
-2.96815
11
6.03941
21
-2.96816
0
LINE
8
BLACK
6
CONTINUOUS
10
6.03941
20
-2.96816
11
6.03941
21
-2.96816
0
LINE
8
BLACK
6
CONTINUOUS
10
6.03941
20
-2.96816
11
6.04587
21
-2.97062
0
LINE
8
BLACK
6
CONTINUOUS
10
6.04587
20
-2.97062
11
6.05082
21
-2.94468
0
LINE
8
BLACK
6
CONTINUOUS
10
6.05082
20
-2.94468
11
6.05083
21
-2.94464
0
LINE
8
BLACK
6
CONTINUOUS
10
6.05083
20
-2.94464
11
6.05085
21
-2.94458
0
LINE
8
BLACK
6
CONTINUOUS
10
6.05085
20
-2.94458
11
6.05086
21
-2.94451
0
LINE
8
BLACK
6
CONTINUOUS
10
6.05086
20
-2.94451
11
6.0579
21
-2.91704
0
LINE
8
BLACK
6
CONTINUOUS
10
6.0579
20
-2.91704
11
6.05791
21
-2.917
0
LINE
8
BLACK
6
CONTINUOUS
10
6.05791
20
-2.917
11
6.05793
21
-2.91693
0
LINE
8
BLACK
6
CONTINUOUS
10
6.05793
20
-2.91693
11
6.05795
21
-2.91686
0
LINE
8
BLACK
6
CONTINUOUS
10
6.05795
20
-2.91686
11
6.0663
21
-2.89126
0
LINE
8
BLACK
6
CONTINUOUS
10
6.0663
20
-2.89126
11
6.06632
21
-2.89122
0
LINE
8
BLACK
6
CONTINUOUS
10
6.06632
20
-2.89122
11
6.06635
21
-2.89115
0
LINE
8
BLACK
6
CONTINUOUS
10
6.06635
20
-2.89115
11
6.06637
21
-2.89108
0
LINE
8
BLACK
6
CONTINUOUS
10
6.06637
20
-2.89108
11
6.07595
21
-2.86728
0
LINE
8
BLACK
6
CONTINUOUS
10
6.07595
20
-2.86728
11
6.07596
21
-2.86724
0
LINE
8
BLACK
6
CONTINUOUS
10
6.07596
20
-2.86724
11
6.076
21
-2.86717
0
LINE
8
BLACK
6
CONTINUOUS
10
6.076
20
-2.86717
11
6.07603
21
-2.86709
0
LINE
8
BLACK
6
CONTINUOUS
10
6.07603
20
-2.86709
11
6.08672
21
-2.84503
0
LINE
8
BLACK
6
CONTINUOUS
10
6.08672
20
-2.84503
11
6.08674
21
-2.84499
0
LINE
8
BLACK
6
CONTINUOUS
10
6.08674
20
-2.84499
11
6.08678
21
-2.84492
0
LINE
8
BLACK
6
CONTINUOUS
10
6.08678
20
-2.84492
11
6.08682
21
-2.84484
0
LINE
8
BLACK
6
CONTINUOUS
10
6.08682
20
-2.84484
11
6.09852
21
-2.82444
0
LINE
8
BLACK
6
CONTINUOUS
10
6.09852
20
-2.82444
11
6.09854
21
-2.82441
0
LINE
8
BLACK
6
CONTINUOUS
10
6.09854
20
-2.82441
11
6.09859
21
-2.82434
0
LINE
8
BLACK
6
CONTINUOUS
10
6.09859
20
-2.82434
11
6.09863
21
-2.82427
0
LINE
8
BLACK
6
CONTINUOUS
10
6.09863
20
-2.82427
11
6.11125
21
-2.80546
0
LINE
8
BLACK
6
CONTINUOUS
10
6.11125
20
-2.80546
11
6.11127
21
-2.80543
0
LINE
8
BLACK
6
CONTINUOUS
10
6.11127
20
-2.80543
11
6.11133
21
-2.80537
0
LINE
8
BLACK
6
CONTINUOUS
10
6.11133
20
-2.80537
11
6.11137
21
-2.8053
0
LINE
8
BLACK
6
CONTINUOUS
10
6.11137
20
-2.8053
11
6.1248
21
-2.78803
0
LINE
8
BLACK
6
CONTINUOUS
10
6.1248
20
-2.78803
11
6.12483
21
-2.78799
0
LINE
8
BLACK
6
CONTINUOUS
10
6.12483
20
-2.78799
11
6.12489
21
-2.78794
0
LINE
8
BLACK
6
CONTINUOUS
10
6.12489
20
-2.78794
11
6.12494
21
-2.78787
0
LINE
8
BLACK
6
CONTINUOUS
10
6.12494
20
-2.78787
11
6.13908
21
-2.77207
0
LINE
8
BLACK
6
CONTINUOUS
10
6.13908
20
-2.77207
11
6.13911
21
-2.77204
0
LINE
8
BLACK
6
CONTINUOUS
10
6.13911
20
-2.77204
11
6.13917
21
-2.77199
0
LINE
8
BLACK
6
CONTINUOUS
10
6.13917
20
-2.77199
11
6.13922
21
-2.77193
0
LINE
8
BLACK
6
CONTINUOUS
10
6.13922
20
-2.77193
11
6.15397
21
-2.75753
0
LINE
8
BLACK
6
CONTINUOUS
10
6.15397
20
-2.75753
11
6.154
21
-2.7575
0
LINE
8
BLACK
6
CONTINUOUS
10
6.154
20
-2.7575
11
6.15406
21
-2.75745
0
LINE
8
BLACK
6
CONTINUOUS
10
6.15406
20
-2.75745
11
6.15411
21
-2.7574
0
LINE
8
BLACK
6
CONTINUOUS
10
6.15411
20
-2.7574
11
6.16937
21
-2.74433
0
LINE
8
BLACK
6
CONTINUOUS
10
6.16937
20
-2.74433
11
6.16941
21
-2.74431
0
LINE
8
BLACK
6
CONTINUOUS
10
6.16941
20
-2.74431
11
6.16947
21
-2.74426
0
LINE
8
BLACK
6
CONTINUOUS
10
6.16947
20
-2.74426
11
6.16952
21
-2.74422
0
LINE
8
BLACK
6
CONTINUOUS
10
6.16952
20
-2.74422
11
6.18519
21
-2.73242
0
LINE
8
BLACK
6
CONTINUOUS
10
6.18519
20
-2.73242
11
6.18522
21
-2.7324
0
LINE
8
BLACK
6
CONTINUOUS
10
6.18522
20
-2.7324
11
6.18528
21
-2.73236
0
LINE
8
BLACK
6
CONTINUOUS
10
6.18528
20
-2.73236
11
6.18533
21
-2.73232
0
LINE
8
BLACK
6
CONTINUOUS
10
6.18533
20
-2.73232
11
6.2013
21
-2.72173
0
LINE
8
BLACK
6
CONTINUOUS
10
6.2013
20
-2.72173
11
6.20134
21
-2.72171
0
LINE
8
BLACK
6
CONTINUOUS
10
6.20134
20
-2.72171
11
6.2014
21
-2.72168
0
LINE
8
BLACK
6
CONTINUOUS
10
6.2014
20
-2.72168
11
6.20145
21
-2.72164
0
LINE
8
BLACK
6
CONTINUOUS
10
6.20145
20
-2.72164
11
6.21762
21
-2.71219
0
LINE
8
BLACK
6
CONTINUOUS
10
6.21762
20
-2.71219
11
6.21766
21
-2.71217
0
LINE
8
BLACK
6
CONTINUOUS
10
6.21766
20
-2.71217
11
6.21771
21
-2.71214
0
LINE
8
BLACK
6
CONTINUOUS
10
6.21771
20
-2.71214
11
6.21776
21
-2.71211
0
LINE
8
BLACK
6
CONTINUOUS
10
6.21776
20
-2.71211
11
6.23404
21
-2.70373
0
LINE
8
BLACK
6
CONTINUOUS
10
6.23404
20
-2.70373
11
6.23408
21
-2.70371
0
LINE
8
BLACK
6
CONTINUOUS
10
6.23408
20
-2.70371
11
6.23413
21
-2.70369
0
LINE
8
BLACK
6
CONTINUOUS
10
6.23413
20
-2.70369
11
6.23417
21
-2.70367
0
LINE
8
BLACK
6
CONTINUOUS
10
6.23417
20
-2.70367
11
6.25045
21
-2.69629
0
LINE
8
BLACK
6
CONTINUOUS
10
6.25045
20
-2.69629
11
6.25049
21
-2.69627
0
LINE
8
BLACK
6
CONTINUOUS
10
6.25049
20
-2.69627
11
6.25054
21
-2.69626
0
LINE
8
BLACK
6
CONTINUOUS
10
6.25054
20
-2.69626
11
6.25058
21
-2.69624
0
LINE
8
BLACK
6
CONTINUOUS
10
6.25058
20
-2.69624
11
6.26676
21
-2.6898
0
LINE
8
BLACK
6
CONTINUOUS
10
6.26676
20
-2.6898
11
6.2668
21
-2.68979
0
LINE
8
BLACK
6
CONTINUOUS
10
6.2668
20
-2.68979
11
6.26684
21
-2.68977
0
LINE
8
BLACK
6
CONTINUOUS
10
6.26684
20
-2.68977
11
6.26688
21
-2.68976
0
LINE
8
BLACK
6
CONTINUOUS
10
6.26688
20
-2.68976
11
6.28285
21
-2.68419
0
LINE
8
BLACK
6
CONTINUOUS
10
6.28285
20
-2.68419
11
6.28289
21
-2.68418
0
LINE
8
BLACK
6
CONTINUOUS
10
6.28289
20
-2.68418
11
6.28293
21
-2.68417
0
LINE
8
BLACK
6
CONTINUOUS
10
6.28293
20
-2.68417
11
6.28297
21
-2.68416
0
LINE
8
BLACK
6
CONTINUOUS
10
6.28297
20
-2.68416
11
6.29864
21
-2.6794
0
LINE
8
BLACK
6
CONTINUOUS
10
6.29864
20
-2.6794
11
6.29868
21
-2.67939
0
LINE
8
BLACK
6
CONTINUOUS
10
6.29868
20
-2.67939
11
6.29871
21
-2.67938
0
LINE
8
BLACK
6
CONTINUOUS
10
6.29871
20
-2.67938
11
6.29875
21
-2.67937
0
LINE
8
BLACK
6
CONTINUOUS
10
6.29875
20
-2.67937
11
6.31401
21
-2.67536
0
LINE
8
BLACK
6
CONTINUOUS
10
6.31401
20
-2.67536
11
6.31405
21
-2.67535
0
LINE
8
BLACK
6
CONTINUOUS
10
6.31405
20
-2.67535
11
6.31408
21
-2.67534
0
LINE
8
BLACK
6
CONTINUOUS
10
6.31408
20
-2.67534
11
6.31411
21
-2.67533
0
LINE
8
BLACK
6
CONTINUOUS
10
6.31411
20
-2.67533
11
6.32887
21
-2.672
0
LINE
8
BLACK
6
CONTINUOUS
10
6.32887
20
-2.672
11
6.32891
21
-2.67199
0
LINE
8
BLACK
6
CONTINUOUS
10
6.32891
20
-2.67199
11
6.32894
21
-2.67198
0
LINE
8
BLACK
6
CONTINUOUS
10
6.32894
20
-2.67198
11
6.32896
21
-2.67198
0
LINE
8
BLACK
6
CONTINUOUS
10
6.32896
20
-2.67198
11
6.34312
21
-2.66925
0
LINE
8
BLACK
6
CONTINUOUS
10
6.34312
20
-2.66925
11
6.34316
21
-2.66924
0
LINE
8
BLACK
6
CONTINUOUS
10
6.34316
20
-2.66924
11
6.34318
21
-2.66924
0
LINE
8
BLACK
6
CONTINUOUS
10
6.34318
20
-2.66924
11
6.3432
21
-2.66923
0
LINE
8
BLACK
6
CONTINUOUS
10
6.3432
20
-2.66923
11
6.35664
21
-2.66705
0
LINE
8
BLACK
6
CONTINUOUS
10
6.35664
20
-2.66705
11
6.35668
21
-2.66704
0
LINE
8
BLACK
6
CONTINUOUS
10
6.35668
20
-2.66704
11
6.3567
21
-2.66704
0
LINE
8
BLACK
6
CONTINUOUS
10
6.3567
20
-2.66704
11
6.35672
21
-2.66704
0
LINE
8
BLACK
6
CONTINUOUS
10
6.35672
20
-2.66704
11
6.36935
21
-2.66533
0
LINE
8
BLACK
6
CONTINUOUS
10
6.36935
20
-2.66533
11
6.36939
21
-2.66533
0
LINE
8
BLACK
6
CONTINUOUS
10
6.36939
20
-2.66533
11
6.36941
21
-2.66533
0
LINE
8
BLACK
6
CONTINUOUS
10
6.36941
20
-2.66533
11
6.36942
21
-2.66532
0
LINE
8
BLACK
6
CONTINUOUS
10
6.36942
20
-2.66532
11
6.38114
21
-2.66403
0
LINE
8
BLACK
6
CONTINUOUS
10
6.38114
20
-2.66403
11
6.38118
21
-2.66402
0
LINE
8
BLACK
6
CONTINUOUS
10
6.38118
20
-2.66402
11
6.38119
21
-2.66402
0
LINE
8
BLACK
6
CONTINUOUS
10
6.38119
20
-2.66402
11
6.3812
21
-2.66402
0
LINE
8
BLACK
6
CONTINUOUS
10
6.3812
20
-2.66402
11
6.3919
21
-2.66307
0
LINE
8
BLACK
6
CONTINUOUS
10
6.3919
20
-2.66307
11
6.39194
21
-2.66307
0
LINE
8
BLACK
6
CONTINUOUS
10
6.39194
20
-2.66307
11
6.39195
21
-2.66307
0
LINE
8
BLACK
6
CONTINUOUS
10
6.39195
20
-2.66307
11
6.39196
21
-2.66307
0
LINE
8
BLACK
6
CONTINUOUS
10
6.39196
20
-2.66307
11
6.40154
21
-2.6624
0
LINE
8
BLACK
6
CONTINUOUS
10
6.40154
20
-2.6624
11
6.40159
21
-2.6624
0
LINE
8
BLACK
6
CONTINUOUS
10
6.40159
20
-2.6624
11
6.40159
21
-2.6624
0
LINE
8
BLACK
6
CONTINUOUS
10
6.40159
20
-2.6624
11
6.40159
21
-2.6624
0
LINE
8
BLACK
6
CONTINUOUS
10
6.40159
20
-2.6624
11
6.40996
21
-2.66194
0
LINE
8
BLACK
6
CONTINUOUS
10
6.40996
20
-2.66194
11
6.40999
21
-2.66194
0
LINE
8
BLACK
6
CONTINUOUS
10
6.40999
20
-2.66194
11
6.40999
21
-2.66194
0
LINE
8
BLACK
6
CONTINUOUS
10
6.40999
20
-2.66194
11
6.40999
21
-2.66194
0
LINE
8
BLACK
6
CONTINUOUS
10
6.40999
20
-2.66194
11
6.41
21
-2.66194
0
LINE
8
BLACK
6
CONTINUOUS
10
6.41
20
-2.66194
11
6.41
21
-2.66194
0
LINE
8
BLACK
6
CONTINUOUS
10
6.41
20
-2.66194
11
6.42263
21
-2.6614
0
LINE
8
BLACK
6
CONTINUOUS
10
6.42263
20
-2.6614
11
6.42918
21
-2.66094
0
LINE
8
BLACK
6
CONTINUOUS
10
6.42918
20
-2.66094
11
6.42922
21
-2.66093
0
LINE
8
BLACK
6
CONTINUOUS
10
6.42922
20
-2.66093
11
6.42929
21
-2.66094
0
LINE
8
BLACK
6
CONTINUOUS
10
6.42929
20
-2.66094
11
6.42935
21
-2.66093
0
LINE
8
BLACK
6
CONTINUOUS
10
6.42935
20
-2.66093
11
6.4363
21
-2.66085
0
LINE
8
BLACK
6
CONTINUOUS
10
6.4363
20
-2.66085
11
6.43634
21
-2.66085
0
LINE
8
BLACK
6
CONTINUOUS
10
6.43634
20
-2.66085
11
6.43643
21
-2.66086
0
LINE
8
BLACK
6
CONTINUOUS
10
6.42951
20
-2.66683
11
6.42301
21
-2.6673
0
LINE
8
BLACK
6
CONTINUOUS
10
6.42301
20
-2.6673
11
6.42297
21
-2.6673
0
LINE
8
BLACK
6
CONTINUOUS
10
6.42297
20
-2.6673
11
6.42294
21
-2.6673
0
LINE
8
BLACK
6
CONTINUOUS
10
6.42294
20
-2.6673
11
6.42292
21
-2.6673
0
LINE
8
BLACK
6
CONTINUOUS
10
6.42292
20
-2.6673
11
6.41026
21
-2.66784
0
LINE
8
BLACK
6
CONTINUOUS
10
6.41026
20
-2.66784
11
6.40193
21
-2.66829
0
LINE
8
BLACK
6
CONTINUOUS
10
6.40193
20
-2.66829
11
6.3924
21
-2.66896
0
LINE
8
BLACK
6
CONTINUOUS
10
6.3924
20
-2.66896
11
6.38175
21
-2.6699
0
LINE
8
BLACK
6
CONTINUOUS
10
6.38175
20
-2.6699
11
6.37011
21
-2.67119
0
LINE
8
BLACK
6
CONTINUOUS
10
6.37011
20
-2.67119
11
6.35755
21
-2.67288
0
LINE
8
BLACK
6
CONTINUOUS
10
6.35755
20
-2.67288
11
6.34419
21
-2.67506
0
LINE
8
BLACK
6
CONTINUOUS
10
6.34419
20
-2.67506
11
6.33013
21
-2.67777
0
LINE
8
BLACK
6
CONTINUOUS
10
6.33013
20
-2.67777
11
6.31547
21
-2.68108
0
LINE
8
BLACK
6
CONTINUOUS
10
6.31547
20
-2.68108
11
6.3003
21
-2.68507
0
LINE
8
BLACK
6
CONTINUOUS
10
6.3003
20
-2.68507
11
6.28474
21
-2.68979
0
LINE
8
BLACK
6
CONTINUOUS
10
6.28474
20
-2.68979
11
6.26888
21
-2.69531
0
LINE
8
BLACK
6
CONTINUOUS
10
6.26888
20
-2.69531
11
6.25283
21
-2.7017
0
LINE
8
BLACK
6
CONTINUOUS
10
6.25283
20
-2.7017
11
6.23668
21
-2.70901
0
LINE
8
BLACK
6
CONTINUOUS
10
6.23668
20
-2.70901
11
6.22053
21
-2.71733
0
LINE
8
BLACK
6
CONTINUOUS
10
6.22053
20
-2.71733
11
6.2045
21
-2.7267
0
LINE
8
BLACK
6
CONTINUOUS
10
6.2045
20
-2.7267
11
6.18867
21
-2.73719
0
LINE
8
BLACK
6
CONTINUOUS
10
6.18867
20
-2.73719
11
6.17314
21
-2.74888
0
LINE
8
BLACK
6
CONTINUOUS
10
6.17314
20
-2.74888
11
6.15803
21
-2.76182
0
LINE
8
BLACK
6
CONTINUOUS
10
6.15803
20
-2.76182
11
6.14341
21
-2.77608
0
LINE
8
BLACK
6
CONTINUOUS
10
6.14341
20
-2.77608
11
6.1294
21
-2.79173
0
LINE
8
BLACK
6
CONTINUOUS
10
6.1294
20
-2.79173
11
6.1161
21
-2.80884
0
LINE
8
BLACK
6
CONTINUOUS
10
6.1161
20
-2.80884
11
6.10359
21
-2.82747
0
LINE
8
BLACK
6
CONTINUOUS
10
6.10359
20
-2.82747
11
6.09199
21
-2.84769
0
LINE
8
BLACK
6
CONTINUOUS
10
6.09199
20
-2.84769
11
6.08139
21
-2.86958
0
LINE
8
BLACK
6
CONTINUOUS
10
6.08139
20
-2.86958
11
6.07189
21
-2.89319
0
LINE
8
BLACK
6
CONTINUOUS
10
6.07189
20
-2.89319
11
6.06359
21
-2.9186
0
LINE
8
BLACK
6
CONTINUOUS
10
6.06359
20
-2.9186
11
6.05661
21
-2.94588
0
LINE
8
BLACK
6
CONTINUOUS
10
6.05661
20
-2.94588
11
6.05101
21
-2.97518
0
LINE
8
BLACK
6
CONTINUOUS
10
6.05101
20
-2.97518
11
6.051
21
-2.97522
0
LINE
8
BLACK
6
CONTINUOUS
10
6.051
20
-2.97522
11
6.05093
21
-2.97546
0
LINE
8
BLACK
6
CONTINUOUS
10
6.05093
20
-2.97546
11
6.05086
21
-2.9757
0
LINE
8
BLACK
6
CONTINUOUS
10
6.05086
20
-2.9757
11
6.05084
21
-2.97573
0
LINE
8
BLACK
6
CONTINUOUS
10
6.05084
20
-2.97573
11
6.05083
21
-2.97577
0
LINE
8
BLACK
6
CONTINUOUS
10
6.05083
20
-2.97577
11
6.05071
21
-2.97599
0
LINE
8
BLACK
6
CONTINUOUS
10
6.05071
20
-2.97599
11
6.0506
21
-2.97621
0
LINE
8
BLACK
6
CONTINUOUS
10
6.0506
20
-2.97621
11
6.05058
21
-2.97624
0
LINE
8
BLACK
6
CONTINUOUS
10
6.05058
20
-2.97624
11
6.05056
21
-2.97628
0
LINE
8
BLACK
6
CONTINUOUS
10
6.05056
20
-2.97628
11
6.0504
21
-2.97647
0
LINE
8
BLACK
6
CONTINUOUS
10
6.0504
20
-2.97647
11
6.05025
21
-2.97667
0
LINE
8
BLACK
6
CONTINUOUS
10
6.05025
20
-2.97667
11
6.05021
21
-2.97669
0
LINE
8
BLACK
6
CONTINUOUS
10
6.05021
20
-2.97669
11
6.05019
21
-2.97672
0
LINE
8
BLACK
6
CONTINUOUS
10
6.05019
20
-2.97672
11
6.05
21
-2.97688
0
LINE
8
BLACK
6
CONTINUOUS
10
6.05
20
-2.97688
11
6.04981
21
-2.97704
0
LINE
8
BLACK
6
CONTINUOUS
10
6.04981
20
-2.97704
11
6.04977
21
-2.97706
0
LINE
8
BLACK
6
CONTINUOUS
10
6.04977
20
-2.97706
11
6.04974
21
-2.97709
0
LINE
8
BLACK
6
CONTINUOUS
10
6.04974
20
-2.97709
11
6.04952
21
-2.9772
0
LINE
8
BLACK
6
CONTINUOUS
10
6.04952
20
-2.9772
11
6.04931
21
-2.97733
0
LINE
8
BLACK
6
CONTINUOUS
10
6.04931
20
-2.97733
11
6.04927
21
-2.97734
0
LINE
8
BLACK
6
CONTINUOUS
10
6.04927
20
-2.97734
11
6.04923
21
-2.97736
0
LINE
8
BLACK
6
CONTINUOUS
10
6.04923
20
-2.97736
11
6.049
21
-2.97743
0
LINE
8
BLACK
6
CONTINUOUS
10
6.049
20
-2.97743
11
6.04876
21
-2.97751
0
LINE
8
BLACK
6
CONTINUOUS
10
6.04876
20
-2.97751
11
6.04872
21
-2.97751
0
LINE
8
BLACK
6
CONTINUOUS
10
6.04872
20
-2.97751
11
6.04868
21
-2.97753
0
LINE
8
BLACK
6
CONTINUOUS
10
6.04868
20
-2.97753
11
6.04843
21
-2.97755
0
LINE
8
BLACK
6
CONTINUOUS
10
6.04843
20
-2.97755
11
6.04819
21
-2.97758
0
LINE
8
BLACK
6
CONTINUOUS
10
6.04819
20
-2.97758
11
6.04815
21
-2.97758
0
LINE
8
BLACK
6
CONTINUOUS
10
6.04815
20
-2.97758
11
6.04811
21
-2.97758
0
LINE
8
BLACK
6
CONTINUOUS
10
6.04811
20
-2.97758
11
6.04786
21
-2.97756
0
LINE
8
BLACK
6
CONTINUOUS
10
6.04786
20
-2.97756
11
6.04761
21
-2.97754
0
LINE
8
BLACK
6
CONTINUOUS
10
6.04761
20
-2.97754
11
6.04757
21
-2.97753
0
LINE
8
BLACK
6
CONTINUOUS
10
6.04757
20
-2.97753
11
6.04753
21
-2.97752
0
LINE
8
BLACK
6
CONTINUOUS
10
6.04753
20
-2.97752
11
6.0473
21
-2.97745
0
LINE
8
BLACK
6
CONTINUOUS
10
6.0473
20
-2.97745
11
6.04706
21
-2.97739
0
LINE
8
BLACK
6
CONTINUOUS
10
6.04706
20
-2.97739
11
6.03732
21
-2.97368
0
LINE
8
BLACK
6
CONTINUOUS
10
6.03732
20
-2.97368
11
6.02793
21
-2.97019
0
LINE
8
BLACK
6
CONTINUOUS
10
6.02793
20
-2.97019
11
6.01885
21
-2.96689
0
LINE
8
BLACK
6
CONTINUOUS
10
6.01885
20
-2.96689
11
6.01005
21
-2.96376
0
LINE
8
BLACK
6
CONTINUOUS
10
6.01005
20
-2.96376
11
6.00152
21
-2.96079
0
LINE
8
BLACK
6
CONTINUOUS
10
6.00152
20
-2.96079
11
5.99322
21
-2.95796
0
LINE
8
BLACK
6
CONTINUOUS
10
5.99322
20
-2.95796
11
5.98513
21
-2.95525
0
LINE
8
BLACK
6
CONTINUOUS
10
5.98513
20
-2.95525
11
5.97723
21
-2.95265
0
LINE
8
BLACK
6
CONTINUOUS
10
5.97723
20
-2.95265
11
5.9695
21
-2.95013
0
LINE
8
BLACK
6
CONTINUOUS
10
5.9695
20
-2.95013
11
5.96189
21
-2.94767
0
LINE
8
BLACK
6
CONTINUOUS
10
5.96189
20
-2.94767
11
5.9544
21
-2.94526
0
LINE
8
BLACK
6
CONTINUOUS
10
5.9544
20
-2.94526
11
5.9544
21
-2.94526
0
LINE
8
BLACK
6
CONTINUOUS
10
5.9544
20
-2.94526
11
5.947
21
-2.94288
0
LINE
8
BLACK
6
CONTINUOUS
10
5.947
20
-2.94288
11
5.94699
21
-2.94288
0
LINE
8
BLACK
6
CONTINUOUS
10
5.94699
20
-2.94288
11
5.94699
21
-2.94288
0
LINE
8
BLACK
6
CONTINUOUS
10
5.94699
20
-2.94288
11
5.93966
21
-2.94051
0
LINE
8
BLACK
6
CONTINUOUS
10
5.93966
20
-2.94051
11
5.93965
21
-2.94051
0
LINE
8
BLACK
6
CONTINUOUS
10
5.93965
20
-2.94051
11
5.93965
21
-2.94051
0
LINE
8
BLACK
6
CONTINUOUS
10
5.93965
20
-2.94051
11
5.93235
21
-2.93814
0
LINE
8
BLACK
6
CONTINUOUS
10
5.93235
20
-2.93814
11
5.93234
21
-2.93813
0
LINE
8
BLACK
6
CONTINUOUS
10
5.93234
20
-2.93813
11
5.93234
21
-2.93813
0
LINE
8
BLACK
6
CONTINUOUS
10
5.93234
20
-2.93813
11
5.92506
21
-2.93574
0
LINE
8
BLACK
6
CONTINUOUS
10
5.92506
20
-2.93574
11
5.92505
21
-2.93573
0
LINE
8
BLACK
6
CONTINUOUS
10
5.92505
20
-2.93573
11
5.92505
21
-2.93573
0
LINE
8
BLACK
6
CONTINUOUS
10
5.92505
20
-2.93573
11
5.91776
21
-2.93329
0
LINE
8
BLACK
6
CONTINUOUS
10
5.91776
20
-2.93329
11
5.91772
21
-2.93328
0
LINE
8
BLACK
6
CONTINUOUS
10
5.91772
20
-2.93328
11
5.91763
21
-2.93324
0
LINE
8
BLACK
6
CONTINUOUS
10
5.91763
20
-2.93324
11
5.91753
21
-2.9332
0
LINE
8
BLACK
6
CONTINUOUS
10
5.91753
20
-2.9332
11
5.91737
21
-2.93311
0
LINE
8
BLACK
6
CONTINUOUS
10
5.91737
20
-2.93311
11
5.9172
21
-2.93304
0
LINE
8
BLACK
6
CONTINUOUS
10
5.9172
20
-2.93304
11
5.91712
21
-2.93298
0
LINE
8
BLACK
6
CONTINUOUS
10
5.91712
20
-2.93298
11
5.91703
21
-2.93292
0
LINE
8
BLACK
6
CONTINUOUS
10
5.91703
20
-2.93292
11
5.91688
21
-2.93281
0
LINE
8
BLACK
6
CONTINUOUS
10
5.91688
20
-2.93281
11
5.91673
21
-2.9327
0
LINE
8
BLACK
6
CONTINUOUS
10
5.91673
20
-2.9327
11
5.91666
21
-2.93262
0
LINE
8
BLACK
6
CONTINUOUS
10
5.91666
20
-2.93262
11
5.91658
21
-2.93255
0
LINE
8
BLACK
6
CONTINUOUS
10
5.91658
20
-2.93255
11
5.91647
21
-2.93241
0
LINE
8
BLACK
6
CONTINUOUS
10
5.91647
20
-2.93241
11
5.91634
21
-2.93227
0
LINE
8
BLACK
6
CONTINUOUS
10
5.91634
20
-2.93227
11
5.91629
21
-2.93218
0
LINE
8
BLACK
6
CONTINUOUS
10
5.91629
20
-2.93218
11
5.91622
21
-2.9321
0
LINE
8
BLACK
6
CONTINUOUS
10
5.91622
20
-2.9321
11
5.91614
21
-2.93194
0
LINE
8
BLACK
6
CONTINUOUS
10
5.91614
20
-2.93194
11
5.91604
21
-2.93178
0
LINE
8
BLACK
6
CONTINUOUS
10
5.91604
20
-2.93178
11
5.91601
21
-2.93168
0
LINE
8
BLACK
6
CONTINUOUS
10
5.91601
20
-2.93168
11
5.91596
21
-2.93159
0
LINE
8
BLACK
6
CONTINUOUS
10
5.91596
20
-2.93159
11
5.91176
21
-2.92113
0
LINE
8
BLACK
6
CONTINUOUS
10
5.91176
20
-2.92113
11
5.90764
21
-2.91192
0
LINE
8
BLACK
6
CONTINUOUS
10
5.90764
20
-2.91192
11
5.90358
21
-2.90385
0
LINE
8
BLACK
6
CONTINUOUS
10
5.90358
20
-2.90385
11
5.89954
21
-2.89684
0
LINE
8
BLACK
6
CONTINUOUS
10
5.89954
20
-2.89684
11
5.89553
21
-2.89082
0
LINE
8
BLACK
6
CONTINUOUS
10
5.89553
20
-2.89082
11
5.89152
21
-2.88572
0
LINE
8
BLACK
6
CONTINUOUS
10
5.89152
20
-2.88572
11
5.88752
21
-2.88146
0
LINE
8
BLACK
6
CONTINUOUS
10
5.88752
20
-2.88146
11
5.88138
21
-2.87637
0
LINE
8
BLACK
6
CONTINUOUS
10
5.88138
20
-2.87637
11
5.87507
21
-2.87267
0
LINE
8
BLACK
6
CONTINUOUS
10
5.87507
20
-2.87267
11
5.86843
21
-2.87005
0
LINE
8
BLACK
6
CONTINUOUS
10
5.86843
20
-2.87005
11
5.86134
21
-2.86826
0
LINE
8
BLACK
6
CONTINUOUS
10
5.86134
20
-2.86826
11
5.85369
21
-2.86709
0
LINE
8
BLACK
6
CONTINUOUS
10
5.85369
20
-2.86709
11
5.84566
21
-2.86631
0
LINE
8
BLACK
6
CONTINUOUS
10
5.84566
20
-2.86631
11
5.83762
21
-2.86709
0
LINE
8
BLACK
6
CONTINUOUS
10
5.83762
20
-2.86709
11
5.82997
21
-2.86826
0
LINE
8
BLACK
6
CONTINUOUS
10
5.82997
20
-2.86826
11
5.82288
21
-2.87005
0
LINE
8
BLACK
6
CONTINUOUS
10
5.82288
20
-2.87005
11
5.81624
21
-2.87267
0
LINE
8
BLACK
6
CONTINUOUS
10
5.81624
20
-2.87267
11
5.80994
21
-2.87637
0
LINE
8
BLACK
6
CONTINUOUS
10
5.80994
20
-2.87637
11
5.80379
21
-2.88146
0
LINE
8
BLACK
6
CONTINUOUS
10
5.80379
20
-2.88146
11
5.79979
21
-2.88572
0
LINE
8
BLACK
6
CONTINUOUS
10
5.79979
20
-2.88572
11
5.79578
21
-2.89082
0
LINE
8
BLACK
6
CONTINUOUS
10
5.79578
20
-2.89082
11
5.79177
21
-2.89684
0
LINE
8
BLACK
6
CONTINUOUS
10
5.79177
20
-2.89684
11
5.78774
21
-2.90385
0
LINE
8
BLACK
6
CONTINUOUS
10
5.78774
20
-2.90385
11
5.78367
21
-2.91192
0
LINE
8
BLACK
6
CONTINUOUS
10
5.78367
20
-2.91192
11
5.77955
21
-2.92113
0
LINE
8
BLACK
6
CONTINUOUS
10
5.77955
20
-2.92113
11
5.77535
21
-2.93159
0
LINE
8
BLACK
6
CONTINUOUS
10
5.77535
20
-2.93159
11
5.77534
21
-2.93163
0
LINE
8
BLACK
6
CONTINUOUS
10
5.77534
20
-2.93163
11
5.77529
21
-2.93172
0
LINE
8
BLACK
6
CONTINUOUS
10
5.77529
20
-2.93172
11
5.77525
21
-2.93182
0
LINE
8
BLACK
6
CONTINUOUS
10
5.77525
20
-2.93182
11
5.77515
21
-2.93198
0
LINE
8
BLACK
6
CONTINUOUS
10
5.77515
20
-2.93198
11
5.77507
21
-2.93214
0
LINE
8
BLACK
6
CONTINUOUS
10
5.77507
20
-2.93214
11
5.775
21
-2.93222
0
LINE
8
BLACK
6
CONTINUOUS
10
5.775
20
-2.93222
11
5.77494
21
-2.93231
0
LINE
8
BLACK
6
CONTINUOUS
10
5.77494
20
-2.93231
11
5.77482
21
-2.93244
0
LINE
8
BLACK
6
CONTINUOUS
10
5.77482
20
-2.93244
11
5.7747
21
-2.93258
0
LINE
8
BLACK
6
CONTINUOUS
10
5.7747
20
-2.93258
11
5.77462
21
-2.93265
0
LINE
8
BLACK
6
CONTINUOUS
10
5.77462
20
-2.93265
11
5.77455
21
-2.93272
0
LINE
8
BLACK
6
CONTINUOUS
10
5.77455
20
-2.93272
11
5.7744
21
-2.93283
0
LINE
8
BLACK
6
CONTINUOUS
10
5.7744
20
-2.93283
11
5.77425
21
-2.93295
0
LINE
8
BLACK
6
CONTINUOUS
10
5.77425
20
-2.93295
11
5.77416
21
-2.933
0
LINE
8
BLACK
6
CONTINUOUS
10
5.77416
20
-2.933
11
5.77408
21
-2.93306
0
LINE
8
BLACK
6
CONTINUOUS
10
5.77408
20
-2.93306
11
5.77391
21
-2.93313
0
LINE
8
BLACK
6
CONTINUOUS
10
5.77391
20
-2.93313
11
5.77374
21
-2.93322
0
LINE
8
BLACK
6
CONTINUOUS
10
5.77374
20
-2.93322
11
5.77365
21
-2.93325
0
LINE
8
BLACK
6
CONTINUOUS
10
5.77365
20
-2.93325
11
5.77355
21
-2.93329
0
LINE
8
BLACK
6
CONTINUOUS
10
5.77355
20
-2.93329
11
5.76626
21
-2.93573
0
LINE
8
BLACK
6
CONTINUOUS
10
5.76626
20
-2.93573
11
5.76625
21
-2.93574
0
LINE
8
BLACK
6
CONTINUOUS
10
5.76625
20
-2.93574
11
5.76625
21
-2.93574
0
LINE
8
BLACK
6
CONTINUOUS
10
5.76625
20
-2.93574
11
5.75897
21
-2.93813
0
LINE
8
BLACK
6
CONTINUOUS
10
5.75897
20
-2.93813
11
5.75896
21
-2.93814
0
LINE
8
BLACK
6
CONTINUOUS
10
5.75896
20
-2.93814
11
5.75896
21
-2.93814
0
LINE
8
BLACK
6
CONTINUOUS
10
5.75896
20
-2.93814
11
5.75166
21
-2.94051
0
LINE
8
BLACK
6
CONTINUOUS
10
5.75166
20
-2.94051
11
5.75166
21
-2.94051
0
LINE
8
BLACK
6
CONTINUOUS
10
5.75166
20
-2.94051
11
5.75166
21
-2.94051
0
LINE
8
BLACK
6
CONTINUOUS
10
5.75166
20
-2.94051
11
5.74432
21
-2.94288
0
LINE
8
BLACK
6
CONTINUOUS
10
5.74432
20
-2.94288
11
5.74432
21
-2.94288
0
LINE
8
BLACK
6
CONTINUOUS
10
5.74432
20
-2.94288
11
5.74432
21
-2.94288
0
LINE
8
BLACK
6
CONTINUOUS
10
5.74432
20
-2.94288
11
5.73691
21
-2.94526
0
LINE
8
BLACK
6
CONTINUOUS
10
5.73691
20
-2.94526
11
5.73691
21
-2.94526
0
LINE
8
BLACK
6
CONTINUOUS
10
5.73691
20
-2.94526
11
5.72942
21
-2.94767
0
LINE
8
BLACK
6
CONTINUOUS
10
5.72942
20
-2.94767
11
5.72182
21
-2.95012
0
LINE
8
BLACK
6
CONTINUOUS
10
5.72182
20
-2.95012
11
5.71408
21
-2.95265
0
LINE
8
BLACK
6
CONTINUOUS
10
5.71408
20
-2.95265
11
5.70618
21
-2.95525
0
LINE
8
BLACK
6
CONTINUOUS
10
5.70618
20
-2.95525
11
5.69809
21
-2.95796
0
LINE
8
BLACK
6
CONTINUOUS
10
5.69809
20
-2.95796
11
5.68979
21
-2.96079
0
LINE
8
BLACK
6
CONTINUOUS
10
5.68979
20
-2.96079
11
5.68126
21
-2.96376
0
LINE
8
BLACK
6
CONTINUOUS
10
5.68126
20
-2.96376
11
5.67247
21
-2.96689
0
LINE
8
BLACK
6
CONTINUOUS
10
5.67247
20
-2.96689
11
5.66339
21
-2.97019
0
LINE
8
BLACK
6
CONTINUOUS
10
5.66339
20
-2.97019
11
5.65399
21
-2.97368
0
LINE
8
BLACK
6
CONTINUOUS
10
5.65399
20
-2.97368
11
5.64425
21
-2.97739
0
LINE
8
BLACK
6
CONTINUOUS
10
5.64425
20
-2.97739
11
5.64422
21
-2.9774
0
LINE
8
BLACK
6
CONTINUOUS
10
5.64422
20
-2.9774
11
5.64397
21
-2.97746
0
LINE
8
BLACK
6
CONTINUOUS
10
5.64397
20
-2.97746
11
5.64374
21
-2.97753
0
LINE
8
BLACK
6
CONTINUOUS
10
5.64374
20
-2.97753
11
5.6437
21
-2.97754
0
LINE
8
BLACK
6
CONTINUOUS
10
5.6437
20
-2.97754
11
5.64366
21
-2.97755
0
LINE
8
BLACK
6
CONTINUOUS
10
5.64366
20
-2.97755
11
5.64341
21
-2.97756
0
LINE
8
BLACK
6
CONTINUOUS
10
5.64341
20
-2.97756
11
5.64316
21
-2.97758
0
LINE
8
BLACK
6
CONTINUOUS
10
5.64316
20
-2.97758
11
5.64312
21
-2.97758
0
LINE
8
BLACK
6
CONTINUOUS
10
5.64312
20
-2.97758
11
5.64308
21
-2.97758
0
LINE
8
BLACK
6
CONTINUOUS
10
5.64308
20
-2.97758
11
5.64284
21
-2.97754
0
LINE
8
BLACK
6
CONTINUOUS
10
5.64284
20
-2.97754
11
5.64259
21
-2.97752
0
LINE
8
BLACK
6
CONTINUOUS
10
5.64259
20
-2.97752
11
5.64255
21
-2.9775
0
LINE
8
BLACK
6
CONTINUOUS
10
5.64255
20
-2.9775
11
5.64251
21
-2.9775
0
LINE
8
BLACK
6
CONTINUOUS
10
5.64251
20
-2.9775
11
5.64228
21
-2.97742
0
LINE
8
BLACK
6
CONTINUOUS
10
5.64228
20
-2.97742
11
5.64204
21
-2.97734
0
LINE
8
BLACK
6
CONTINUOUS
10
5.64204
20
-2.97734
11
5.64201
21
-2.97732
0
LINE
8
BLACK
6
CONTINUOUS
10
5.64201
20
-2.97732
11
5.64197
21
-2.97731
0
LINE
8
BLACK
6
CONTINUOUS
10
5.64197
20
-2.97731
11
5.64175
21
-2.97718
0
LINE
8
BLACK
6
CONTINUOUS
10
5.64175
20
-2.97718
11
5.64154
21
-2.97707
0
LINE
8
BLACK
6
CONTINUOUS
10
5.64154
20
-2.97707
11
5.6415
21
-2.97704
0
LINE
8
BLACK
6
CONTINUOUS
10
5.6415
20
-2.97704
11
5.64147
21
-2.97702
0
LINE
8
BLACK
6
CONTINUOUS
10
5.64147
20
-2.97702
11
5.64128
21
-2.97685
0
LINE
8
BLACK
6
CONTINUOUS
10
5.64128
20
-2.97685
11
5.64109
21
-2.97669
0
LINE
8
BLACK
6
CONTINUOUS
10
5.64109
20
-2.97669
11
5.64107
21
-2.97666
0
LINE
8
BLACK
6
CONTINUOUS
10
5.64107
20
-2.97666
11
5.64104
21
-2.97664
0
LINE
8
BLACK
6
CONTINUOUS
10
5.64104
20
-2.97664
11
5.64089
21
-2.97644
0
LINE
8
BLACK
6
CONTINUOUS
10
5.64089
20
-2.97644
11
5.64073
21
-2.97625
0
LINE
8
BLACK
6
CONTINUOUS
10
5.64073
20
-2.97625
11
5.64071
21
-2.97621
0
LINE
8
BLACK
6
CONTINUOUS
10
5.64071
20
-2.97621
11
5.64069
21
-2.97618
0
LINE
8
BLACK
6
CONTINUOUS
10
5.64069
20
-2.97618
11
5.64058
21
-2.97595
0
LINE
8
BLACK
6
CONTINUOUS
10
5.64058
20
-2.97595
11
5.64047
21
-2.97574
0
LINE
8
BLACK
6
CONTINUOUS
10
5.64047
20
-2.97574
11
5.64045
21
-2.9757
0
LINE
8
BLACK
6
CONTINUOUS
10
5.64045
20
-2.9757
11
5.64044
21
-2.97566
0
LINE
8
BLACK
6
CONTINUOUS
10
5.64044
20
-2.97566
11
5.64037
21
-2.97542
0
LINE
8
BLACK
6
CONTINUOUS
10
5.64037
20
-2.97542
11
5.6403
21
-2.97518
0
LINE
8
BLACK
6
CONTINUOUS
10
5.6403
20
-2.97518
11
5.63471
21
-2.94588
0
LINE
8
BLACK
6
CONTINUOUS
10
5.63471
20
-2.94588
11
5.62772
21
-2.9186
0
LINE
8
BLACK
6
CONTINUOUS
10
5.62772
20
-2.9186
11
5.61942
21
-2.89319
0
LINE
8
BLACK
6
CONTINUOUS
10
5.61942
20
-2.89319
11
5.60993
21
-2.86958
0
LINE
8
BLACK
6
CONTINUOUS
10
5.60993
20
-2.86958
11
5.59932
21
-2.84769
0
LINE
8
BLACK
6
CONTINUOUS
10
5.59932
20
-2.84769
11
5.58772
21
-2.82747
0
LINE
8
BLACK
6
CONTINUOUS
10
5.58772
20
-2.82747
11
5.57522
21
-2.80884
0
LINE
8
BLACK
6
CONTINUOUS
10
5.57522
20
-2.80884
11
5.56191
21
-2.79173
0
LINE
8
BLACK
6
CONTINUOUS
10
5.56191
20
-2.79173
11
5.5479
21
-2.77608
0
LINE
8
BLACK
6
CONTINUOUS
10
5.5479
20
-2.77608
11
5.53329
21
-2.76182
0
LINE
8
BLACK
6
CONTINUOUS
10
5.53329
20
-2.76182
11
5.51817
21
-2.74888
0
LINE
8
BLACK
6
CONTINUOUS
10
5.51817
20
-2.74888
11
5.50264
21
-2.73719
0
LINE
8
BLACK
6
CONTINUOUS
10
5.50264
20
-2.73719
11
5.48681
21
-2.7267
0
LINE
8
BLACK
6
CONTINUOUS
10
5.48681
20
-2.7267
11
5.47078
21
-2.71733
0
LINE
8
BLACK
6
CONTINUOUS
10
5.47078
20
-2.71733
11
5.45463
21
-2.70901
0
LINE
8
BLACK
6
CONTINUOUS
10
5.45463
20
-2.70901
11
5.43849
21
-2.7017
0
LINE
8
BLACK
6
CONTINUOUS
10
5.43849
20
-2.7017
11
5.42243
21
-2.69531
0
LINE
8
BLACK
6
CONTINUOUS
10
5.42243
20
-2.69531
11
5.40657
21
-2.68979
0
LINE
8
BLACK
6
CONTINUOUS
10
5.40657
20
-2.68979
11
5.39101
21
-2.68507
0
LINE
8
BLACK
6
CONTINUOUS
10
5.39101
20
-2.68507
11
5.37585
21
-2.68108
0
LINE
8
BLACK
6
CONTINUOUS
10
5.37585
20
-2.68108
11
5.36118
21
-2.67777
0
LINE
8
BLACK
6
CONTINUOUS
10
5.36118
20
-2.67777
11
5.34712
21
-2.67506
0
LINE
8
BLACK
6
CONTINUOUS
10
5.34712
20
-2.67506
11
5.33376
21
-2.67288
0
LINE
8
BLACK
6
CONTINUOUS
10
5.33376
20
-2.67288
11
5.32121
21
-2.67119
0
LINE
8
BLACK
6
CONTINUOUS
10
5.32121
20
-2.67119
11
5.30956
21
-2.6699
0
LINE
8
BLACK
6
CONTINUOUS
10
5.30956
20
-2.6699
11
5.29892
21
-2.66896
0
LINE
8
BLACK
6
CONTINUOUS
10
5.29892
20
-2.66896
11
5.28938
21
-2.66829
0
LINE
8
BLACK
6
CONTINUOUS
10
5.28938
20
-2.66829
11
5.28105
21
-2.66784
0
LINE
8
BLACK
6
CONTINUOUS
10
5.28105
20
-2.66784
11
5.26839
21
-2.6673
0
LINE
8
BLACK
6
CONTINUOUS
10
5.26839
20
-2.6673
11
5.26835
21
-2.6673
0
LINE
8
BLACK
6
CONTINUOUS
10
5.26835
20
-2.6673
11
5.26833
21
-2.6673
0
LINE
8
BLACK
6
CONTINUOUS
10
5.26833
20
-2.6673
11
5.2683
21
-2.6673
0
LINE
8
BLACK
6
CONTINUOUS
10
5.2683
20
-2.6673
11
5.2618
21
-2.66683
0
LINE
8
BLACK
6
CONTINUOUS
10
5.2618
20
-2.66683
11
5.25507
21
-2.66676
0
LINE
8
BLACK
6
CONTINUOUS
10
5.25507
20
-2.66676
11
5.2487
21
-2.66719
0
LINE
8
BLACK
6
CONTINUOUS
10
5.2487
20
-2.66719
11
5.24269
21
-2.66811
0
LINE
8
BLACK
6
CONTINUOUS
10
5.24269
20
-2.66811
11
5.23706
21
-2.66948
0
LINE
8
BLACK
6
CONTINUOUS
10
5.23706
20
-2.66948
11
5.22919
21
-2.67238
0
LINE
8
BLACK
6
CONTINUOUS
10
5.22919
20
-2.67238
11
5.22213
21
-2.67619
0
LINE
8
BLACK
6
CONTINUOUS
10
5.22213
20
-2.67619
11
5.21584
21
-2.68086
0
LINE
8
BLACK
6
CONTINUOUS
10
5.21584
20
-2.68086
11
5.21033
21
-2.68632
0
LINE
8
BLACK
6
CONTINUOUS
10
5.21033
20
-2.68632
11
5.20559
21
-2.69252
0
LINE
8
BLACK
6
CONTINUOUS
10
5.20559
20
-2.69252
11
5.20164
21
-2.69941
0
LINE
8
BLACK
6
CONTINUOUS
10
5.20164
20
-2.69941
11
5.19849
21
-2.70692
0
LINE
8
BLACK
6
CONTINUOUS
10
5.19849
20
-2.70692
11
5.19614
21
-2.71505
0
LINE
8
BLACK
6
CONTINUOUS
10
5.19614
20
-2.71505
11
5.19556
21
-2.71779
0
LINE
8
BLACK
6
CONTINUOUS
10
5.19556
20
-2.71779
11
5.19474
21
-2.72343
0
LINE
8
BLACK
6
CONTINUOUS
10
5.19474
20
-2.72343
11
5.19437
21
-2.7319
0
LINE
8
BLACK
6
CONTINUOUS
10
5.19437
20
-2.7319
11
5.19505
21
-2.74018
0
LINE
8
BLACK
6
CONTINUOUS
10
5.19505
20
-2.74018
11
5.19677
21
-2.74819
0
LINE
8
BLACK
6
CONTINUOUS
10
5.19677
20
-2.74819
11
5.19955
21
-2.75582
0
LINE
8
BLACK
6
CONTINUOUS
10
5.19955
20
-2.75582
11
5.20336
21
-2.76294
0
LINE
8
BLACK
6
CONTINUOUS
10
5.20336
20
-2.76294
11
5.20822
21
-2.76944
0
LINE
8
BLACK
6
CONTINUOUS
10
5.20822
20
-2.76944
11
5.21416
21
-2.77526
0
LINE
8
BLACK
6
CONTINUOUS
10
5.21416
20
-2.77526
11
5.21866
21
-2.77864
0
LINE
8
BLACK
6
CONTINUOUS
10
5.21866
20
-2.77864
11
5.22367
21
-2.78164
0
LINE
8
BLACK
6
CONTINUOUS
10
5.22367
20
-2.78164
11
5.22917
21
-2.78421
0
LINE
8
BLACK
6
CONTINUOUS
10
5.22917
20
-2.78421
11
5.23505
21
-2.78627
0
LINE
8
BLACK
6
CONTINUOUS
10
5.23505
20
-2.78627
11
5.2502
21
-2.78862
0
LINE
8
BLACK
6
CONTINUOUS
10
5.2502
20
-2.78862
11
5.26521
21
-2.79077
0
LINE
8
BLACK
6
CONTINUOUS
10
5.26521
20
-2.79077
11
5.27985
21
-2.79276
0
LINE
8
BLACK
6
CONTINUOUS
10
5.27985
20
-2.79276
11
5.2941
21
-2.79463
0
LINE
8
BLACK
6
CONTINUOUS
10
5.2941
20
-2.79463
11
5.2941
21
-2.79463
0
LINE
8
BLACK
6
CONTINUOUS
10
5.2941
20
-2.79463
11
5.2941
21
-2.79463
0
LINE
8
BLACK
6
CONTINUOUS
10
5.2941
20
-2.79463
11
5.30797
21
-2.79646
0
LINE
8
BLACK
6
CONTINUOUS
10
5.30797
20
-2.79646
11
5.30798
21
-2.79646
0
LINE
8
BLACK
6
CONTINUOUS
10
5.30798
20
-2.79646
11
5.30798
21
-2.79646
0
LINE
8
BLACK
6
CONTINUOUS
10
5.30798
20
-2.79646
11
5.32145
21
-2.79832
0
LINE
8
BLACK
6
CONTINUOUS
10
5.32145
20
-2.79832
11
5.32148
21
-2.79832
0
LINE
8
BLACK
6
CONTINUOUS
10
5.32148
20
-2.79832
11
5.32148
21
-2.79832
0
LINE
8
BLACK
6
CONTINUOUS
10
5.32148
20
-2.79832
11
5.33454
21
-2.80026
0
LINE
8
BLACK
6
CONTINUOUS
10
5.33454
20
-2.80026
11
5.33458
21
-2.80026
0
LINE
8
BLACK
6
CONTINUOUS
10
5.33458
20
-2.80026
11
5.33459
21
-2.80027
0
LINE
8
BLACK
6
CONTINUOUS
10
5.33459
20
-2.80027
11
5.33459
21
-2.80027
0
LINE
8
BLACK
6
CONTINUOUS
10
5.33459
20
-2.80027
11
5.34724
21
-2.80235
0
LINE
8
BLACK
6
CONTINUOUS
10
5.34724
20
-2.80235
11
5.34728
21
-2.80236
0
LINE
8
BLACK
6
CONTINUOUS
10
5.34728
20
-2.80236
11
5.3473
21
-2.80236
0
LINE
8
BLACK
6
CONTINUOUS
10
5.3473
20
-2.80236
11
5.34731
21
-2.80237
0
LINE
8
BLACK
6
CONTINUOUS
10
5.34731
20
-2.80237
11
5.35955
21
-2.80467
0
LINE
8
BLACK
6
CONTINUOUS
10
5.35955
20
-2.80467
11
5.35959
21
-2.80468
0
LINE
8
BLACK
6
CONTINUOUS
10
5.35959
20
-2.80468
11
5.35961
21
-2.80468
0
LINE
8
BLACK
6
CONTINUOUS
10
5.35961
20
-2.80468
11
5.35964
21
-2.80469
0
LINE
8
BLACK
6
CONTINUOUS
10
5.35964
20
-2.80469
11
5.37147
21
-2.80727
0
LINE
8
BLACK
6
CONTINUOUS
10
5.37147
20
-2.80727
11
5.37151
21
-2.80728
0
LINE
8
BLACK
6
CONTINUOUS
10
5.37151
20
-2.80728
11
5.37154
21
-2.80729
0
LINE
8
BLACK
6
CONTINUOUS
10
5.37154
20
-2.80729
11
5.37157
21
-2.8073
0
LINE
8
BLACK
6
CONTINUOUS
10
5.37157
20
-2.8073
11
5.38298
21
-2.81023
0
LINE
8
BLACK
6
CONTINUOUS
10
5.38298
20
-2.81023
11
5.38302
21
-2.81024
0
LINE
8
BLACK
6
CONTINUOUS
10
5.38302
20
-2.81024
11
5.38306
21
-2.81025
0
LINE
8
BLACK
6
CONTINUOUS
10
5.38306
20
-2.81025
11
5.38311
21
-2.81026
0
LINE
8
BLACK
6
CONTINUOUS
10
5.38311
20
-2.81026
11
5.3941
21
-2.8136
0
LINE
8
BLACK
6
CONTINUOUS
10
5.3941
20
-2.8136
11
5.39414
21
-2.81362
0
LINE
8
BLACK
6
CONTINUOUS
10
5.39414
20
-2.81362
11
5.39419
21
-2.81364
0
LINE
8
BLACK
6
CONTINUOUS
10
5.39419
20
-2.81364
11
5.39424
21
-2.81365
0
LINE
8
BLACK
6
CONTINUOUS
10
5.39424
20
-2.81365
11
5.40481
21
-2.81747
0
LINE
8
BLACK
6
CONTINUOUS
10
5.40481
20
-2.81747
11
5.40485
21
-2.81748
0
LINE
8
BLACK
6
CONTINUOUS
10
5.40485
20
-2.81748
11
5.40491
21
-2.81751
0
LINE
8
BLACK
6
CONTINUOUS
10
5.40491
20
-2.81751
11
5.40497
21
-2.81753
0
LINE
8
BLACK
6
CONTINUOUS
10
5.40497
20
-2.81753
11
5.41511
21
-2.82189
0
LINE
8
BLACK
6
CONTINUOUS
10
5.41511
20
-2.82189
11
5.41515
21
-2.82191
0
LINE
8
BLACK
6
CONTINUOUS
10
5.41515
20
-2.82191
11
5.41522
21
-2.82194
0
LINE
8
BLACK
6
CONTINUOUS
10
5.41522
20
-2.82194
11
5.41529
21
-2.82197
0
LINE
8
BLACK
6
CONTINUOUS
10
5.41529
20
-2.82197
11
5.425
21
-2.82693
0
LINE
8
BLACK
6
CONTINUOUS
10
5.425
20
-2.82693
11
5.42503
21
-2.82695
0
LINE
8
BLACK
6
CONTINUOUS
10
5.42503
20
-2.82695
11
5.42511
21
-2.827
0
LINE
8
BLACK
6
CONTINUOUS
10
5.42511
20
-2.827
11
5.42519
21
-2.82704
0
LINE
8
BLACK
6
CONTINUOUS
10
5.42519
20
-2.82704
11
5.43446
21
-2.83267
0
LINE
8
BLACK
6
CONTINUOUS
10
5.43446
20
-2.83267
11
5.43449
21
-2.83269
0
LINE
8
BLACK
6
CONTINUOUS
10
5.43449
20
-2.83269
11
5.43457
21
-2.83275
0
LINE
8
BLACK
6
CONTINUOUS
10
5.43457
20
-2.83275
11
5.43465
21
-2.8328
0
LINE
8
BLACK
6
CONTINUOUS
10
5.43465
20
-2.8328
11
5.44349
21
-2.83917
0
LINE
8
BLACK
6
CONTINUOUS
10
5.44349
20
-2.83917
11
5.44352
21
-2.83919
0
LINE
8
BLACK
6
CONTINUOUS
10
5.44352
20
-2.83919
11
5.44359
21
-2.83926
0
LINE
8
BLACK
6
CONTINUOUS
10
5.44359
20
-2.83926
11
5.44368
21
-2.83932
0
LINE
8
BLACK
6
CONTINUOUS
10
5.44368
20
-2.83932
11
5.45207
21
-2.84648
0
LINE
8
BLACK
6
CONTINUOUS
10
5.45207
20
-2.84648
11
5.4521
21
-2.84651
0
LINE
8
BLACK
6
CONTINUOUS
10
5.4521
20
-2.84651
11
5.45217
21
-2.84659
0
LINE
8
BLACK
6
CONTINUOUS
10
5.45217
20
-2.84659
11
5.45225
21
-2.84665
0
LINE
8
BLACK
6
CONTINUOUS
10
5.45225
20
-2.84665
11
5.4602
21
-2.85468
0
LINE
8
BLACK
6
CONTINUOUS
10
5.4602
20
-2.85468
11
5.46022
21
-2.85471
0
LINE
8
BLACK
6
CONTINUOUS
10
5.46022
20
-2.85471
11
5.46029
21
-2.85479
0
LINE
8
BLACK
6
CONTINUOUS
10
5.46029
20
-2.85479
11
5.46036
21
-2.85487
0
LINE
8
BLACK
6
CONTINUOUS
10
5.46036
20
-2.85487
11
5.46786
21
-2.86383
0
LINE
8
BLACK
6
CONTINUOUS
10
5.46786
20
-2.86383
11
5.46788
21
-2.86386
0
LINE
8
BLACK
6
CONTINUOUS
10
5.46788
20
-2.86386
11
5.46794
21
-2.86394
0
LINE
8
BLACK
6
CONTINUOUS
10
5.46794
20
-2.86394
11
5.468
21
-2.86402
0
LINE
8
BLACK
6
CONTINUOUS
10
5.468
20
-2.86402
11
5.47505
21
-2.87397
0
LINE
8
BLACK
6
CONTINUOUS
10
5.47505
20
-2.87397
11
5.47507
21
-2.874
0
LINE
8
BLACK
6
CONTINUOUS
10
5.47507
20
-2.874
11
5.47511
21
-2.87409
0
LINE
8
BLACK
6
CONTINUOUS
10
5.47511
20
-2.87409
11
5.47517
21
-2.87416
0
LINE
8
BLACK
6
CONTINUOUS
10
5.47517
20
-2.87416
11
5.48176
21
-2.88518
0
LINE
8
BLACK
6
CONTINUOUS
10
5.48176
20
-2.88518
11
5.48178
21
-2.88521
0
LINE
8
BLACK
6
CONTINUOUS
10
5.48178
20
-2.88521
11
5.48181
21
-2.88529
0
LINE
8
BLACK
6
CONTINUOUS
10
5.48181
20
-2.88529
11
5.48186
21
-2.88536
0
LINE
8
BLACK
6
CONTINUOUS
10
5.48186
20
-2.88536
11
5.48799
21
-2.8975
0
LINE
8
BLACK
6
CONTINUOUS
10
5.48799
20
-2.8975
11
5.488
21
-2.89754
0
LINE
8
BLACK
6
CONTINUOUS
10
5.488
20
-2.89754
11
5.48803
21
-2.89761
0
LINE
8
BLACK
6
CONTINUOUS
10
5.48803
20
-2.89761
11
5.48807
21
-2.89768
0
LINE
8
BLACK
6
CONTINUOUS
10
5.48807
20
-2.89768
11
5.49373
21
-2.911
0
LINE
8
BLACK
6
CONTINUOUS
10
5.49373
20
-2.911
11
5.49375
21
-2.91104
0
LINE
8
BLACK
6
CONTINUOUS
10
5.49375
20
-2.91104
11
5.49377
21
-2.91111
0
LINE
8
BLACK
6
CONTINUOUS
10
5.49377
20
-2.91111
11
5.49379
21
-2.91117
0
LINE
8
BLACK
6
CONTINUOUS
10
5.49379
20
-2.91117
11
5.49899
21
-2.92575
0
LINE
8
BLACK
6
CONTINUOUS
10
5.49899
20
-2.92575
11
5.499
21
-2.92579
0
LINE
8
BLACK
6
CONTINUOUS
10
5.499
20
-2.92579
11
5.49902
21
-2.92585
0
LINE
8
BLACK
6
CONTINUOUS
10
5.49902
20
-2.92585
11
5.49904
21
-2.9259
0
LINE
8
BLACK
6
CONTINUOUS
10
5.49904
20
-2.9259
11
5.50377
21
-2.9418
0
LINE
8
BLACK
6
CONTINUOUS
10
5.50377
20
-2.9418
11
5.50378
21
-2.94184
0
LINE
8
BLACK
6
CONTINUOUS
10
5.50378
20
-2.94184
11
5.50379
21
-2.94189
0
LINE
8
BLACK
6
CONTINUOUS
10
5.50379
20
-2.94189
11
5.5038
21
-2.94194
0
LINE
8
BLACK
6
CONTINUOUS
10
5.5038
20
-2.94194
11
5.50806
21
-2.95922
0
LINE
8
BLACK
6
CONTINUOUS
10
5.50806
20
-2.95922
11
5.50806
21
-2.95926
0
LINE
8
BLACK
6
CONTINUOUS
10
5.50806
20
-2.95926
11
5.50807
21
-2.9593
0
LINE
8
BLACK
6
CONTINUOUS
10
5.50807
20
-2.9593
11
5.50808
21
-2.95934
0
LINE
8
BLACK
6
CONTINUOUS
10
5.50808
20
-2.95934
11
5.51186
21
-2.97808
0
LINE
8
BLACK
6
CONTINUOUS
10
5.51186
20
-2.97808
11
5.51186
21
-2.97812
0
LINE
8
BLACK
6
CONTINUOUS
10
5.51186
20
-2.97812
11
5.51187
21
-2.97815
0
LINE
8
BLACK
6
CONTINUOUS
10
5.51187
20
-2.97815
11
5.51188
21
-2.97819
0
LINE
8
BLACK
6
CONTINUOUS
10
5.51188
20
-2.97819
11
5.51517
21
-2.99844
0
LINE
8
BLACK
6
CONTINUOUS
10
5.51517
20
-2.99844
11
5.51518
21
-2.99848
0
LINE
8
BLACK
6
CONTINUOUS
10
5.51518
20
-2.99848
11
5.51518
21
-2.9985
0
LINE
8
BLACK
6
CONTINUOUS
10
5.51518
20
-2.9985
11
5.51518
21
-2.99853
0
LINE
8
BLACK
6
CONTINUOUS
10
5.51518
20
-2.99853
11
5.51799
21
-3.02036
0
LINE
8
BLACK
6
CONTINUOUS
10
5.51799
20
-3.02036
11
5.518
21
-3.0204
0
LINE
8
BLACK
6
CONTINUOUS
10
5.518
20
-3.0204
11
5.518
21
-3.02042
0
LINE
8
BLACK
6
CONTINUOUS
10
5.518
20
-3.02042
11
5.518
21
-3.02045
0
LINE
8
BLACK
6
CONTINUOUS
10
5.518
20
-3.02045
11
5.52032
21
-3.04392
0
LINE
8
BLACK
6
CONTINUOUS
10
5.52032
20
-3.04392
11
5.52033
21
-3.04396
0
LINE
8
BLACK
6
CONTINUOUS
10
5.52033
20
-3.04396
11
5.52033
21
-3.04397
0
LINE
8
BLACK
6
CONTINUOUS
10
5.52033
20
-3.04397
11
5.52033
21
-3.04399
0
LINE
8
BLACK
6
CONTINUOUS
10
5.52033
20
-3.04399
11
5.52216
21
-3.06917
0
LINE
8
BLACK
6
CONTINUOUS
10
5.52216
20
-3.06917
11
5.52216
21
-3.06921
0
LINE
8
BLACK
6
CONTINUOUS
10
5.52216
20
-3.06921
11
5.52216
21
-3.06938
0
LINE
8
BLACK
6
CONTINUOUS
10
5.52216
20
-3.06938
11
5.52216
21
-3.06954
0
LINE
8
BLACK
6
CONTINUOUS
10
5.52216
20
-3.06954
11
5.52214
21
-3.06966
0
LINE
8
BLACK
6
CONTINUOUS
10
5.52214
20
-3.06966
11
5.52214
21
-3.06979
0
LINE
8
BLACK
6
CONTINUOUS
10
5.52214
20
-3.06979
11
5.5221
21
-3.06995
0
LINE
8
BLACK
6
CONTINUOUS
10
5.5221
20
-3.06995
11
5.52208
21
-3.07011
0
LINE
8
BLACK
6
CONTINUOUS
10
5.52208
20
-3.07011
11
5.52203
21
-3.07023
0
LINE
8
BLACK
6
CONTINUOUS
10
5.52203
20
-3.07023
11
5.52201
21
-3.07035
0
LINE
8
BLACK
6
CONTINUOUS
10
5.52201
20
-3.07035
11
5.52194
21
-3.0705
0
LINE
8
BLACK
6
CONTINUOUS
10
5.52194
20
-3.0705
11
5.52188
21
-3.07065
0
LINE
8
BLACK
6
CONTINUOUS
10
5.52188
20
-3.07065
11
5.52182
21
-3.07076
0
LINE
8
BLACK
6
CONTINUOUS
10
5.52182
20
-3.07076
11
5.52177
21
-3.07087
0
LINE
8
BLACK
6
CONTINUOUS
10
5.52177
20
-3.07087
11
5.52167
21
-3.071
0
LINE
8
BLACK
6
CONTINUOUS
10
5.52167
20
-3.071
11
5.52159
21
-3.07114
0
LINE
8
BLACK
6
CONTINUOUS
10
5.52159
20
-3.07114
11
5.5215
21
-3.07124
0
LINE
8
BLACK
6
CONTINUOUS
10
5.5215
20
-3.07124
11
5.52143
21
-3.07134
0
LINE
8
BLACK
6
CONTINUOUS
10
5.52143
20
-3.07134
11
5.52131
21
-3.07145
0
LINE
8
BLACK
6
CONTINUOUS
10
5.52131
20
-3.07145
11
5.5212
21
-3.07157
0
LINE
8
BLACK
6
CONTINUOUS
10
5.5212
20
-3.07157
11
5.50069
21
-3.09018
0
LINE
8
BLACK
6
CONTINUOUS
10
5.50069
20
-3.09018
11
5.48196
21
-3.10964
0
LINE
8
BLACK
6
CONTINUOUS
10
5.48196
20
-3.10964
11
5.46485
21
-3.12993
0
LINE
8
BLACK
6
CONTINUOUS
10
5.46485
20
-3.12993
11
5.4493
21
-3.15096
0
LINE
8
BLACK
6
CONTINUOUS
10
5.4493
20
-3.15096
11
5.43525
21
-3.17261
0
LINE
8
BLACK
6
CONTINUOUS
10
5.43525
20
-3.17261
11
5.42261
21
-3.19481
0
LINE
8
BLACK
6
CONTINUOUS
10
5.42261
20
-3.19481
11
5.41133
21
-3.21744
0
LINE
8
BLACK
6
CONTINUOUS
10
5.41133
20
-3.21744
11
5.40133
21
-3.24041
0
LINE
8
BLACK
6
CONTINUOUS
10
5.40133
20
-3.24041
11
5.39255
21
-3.26361
0
LINE
8
BLACK
6
CONTINUOUS
10
5.39255
20
-3.26361
11
5.38491
21
-3.28696
0
LINE
8
BLACK
6
CONTINUOUS
10
5.38491
20
-3.28696
11
5.37836
21
-3.31035
0
LINE
8
BLACK
6
CONTINUOUS
10
5.37836
20
-3.31035
11
5.37282
21
-3.33367
0
LINE
8
BLACK
6
CONTINUOUS
10
5.37282
20
-3.33367
11
5.36821
21
-3.35684
0
LINE
8
BLACK
6
CONTINUOUS
10
5.36821
20
-3.35684
11
5.36449
21
-3.37974
0
LINE
8
BLACK
6
CONTINUOUS
10
5.36449
20
-3.37974
11
5.36157
21
-3.40228
0
LINE
8
BLACK
6
CONTINUOUS
10
5.36157
20
-3.40228
11
5.35938
21
-3.42436
0
LINE
8
BLACK
6
CONTINUOUS
10
5.35938
20
-3.42436
11
5.35786
21
-3.44588
0
LINE
8
BLACK
6
CONTINUOUS
10
5.35786
20
-3.44588
11
5.35695
21
-3.46673
0
LINE
8
BLACK
6
CONTINUOUS
10
5.35695
20
-3.46673
11
5.35656
21
-3.48682
0
LINE
8
BLACK
6
CONTINUOUS
10
5.35656
20
-3.48682
11
5.35663
21
-3.50605
0
LINE
8
BLACK
6
CONTINUOUS
10
5.35663
20
-3.50605
11
5.35709
21
-3.52431
0
LINE
8
BLACK
6
CONTINUOUS
10
5.35709
20
-3.52431
11
5.35788
21
-3.54151
0
LINE
8
BLACK
6
CONTINUOUS
10
5.35788
20
-3.54151
11
5.35892
21
-3.55755
0
LINE
8
BLACK
6
CONTINUOUS
10
5.35892
20
-3.55755
11
5.36015
21
-3.57232
0
LINE
8
BLACK
6
CONTINUOUS
10
5.36015
20
-3.57232
11
5.36149
21
-3.58572
0
LINE
8
BLACK
6
CONTINUOUS
10
5.36149
20
-3.58572
11
5.36287
21
-3.59765
0
LINE
8
BLACK
6
CONTINUOUS
10
5.36287
20
-3.59765
11
5.36423
21
-3.60802
0
LINE
8
BLACK
6
CONTINUOUS
10
5.36423
20
-3.60802
11
5.3655
21
-3.61673
0
LINE
8
BLACK
6
CONTINUOUS
10
5.3655
20
-3.61673
11
5.3666
21
-3.62366
0
LINE
8
BLACK
6
CONTINUOUS
10
5.3666
20
-3.62366
11
5.36827
21
-3.63294
0
LINE
8
BLACK
6
CONTINUOUS
10
5.36827
20
-3.63294
11
5.36827
21
-3.63295
0
LINE
8
BLACK
6
CONTINUOUS
10
5.36827
20
-3.63295
11
5.36827
21
-3.63295
0
LINE
8
BLACK
6
CONTINUOUS
10
5.36827
20
-3.63295
11
5.36827
21
-3.63295
0
LINE
8
BLACK
6
CONTINUOUS
10
5.36827
20
-3.63295
11
5.36827
21
-3.63298
0
LINE
8
BLACK
6
CONTINUOUS
10
5.36827
20
-3.63298
11
5.36829
21
-3.63326
0
LINE
8
BLACK
6
CONTINUOUS
10
5.36829
20
-3.63326
11
5.36831
21
-3.63353
0
LINE
8
BLACK
6
CONTINUOUS
10
5.36831
20
-3.63353
11
5.36831
21
-3.63354
0
LINE
8
BLACK
6
CONTINUOUS
10
5.36831
20
-3.63354
11
5.36831
21
-3.63356
0
LINE
8
BLACK
6
CONTINUOUS
10
5.36831
20
-3.63356
11
5.36827
21
-3.63383
0
LINE
8
BLACK
6
CONTINUOUS
10
5.36827
20
-3.63383
11
5.36824
21
-3.6341
0
LINE
8
BLACK
6
CONTINUOUS
10
5.36824
20
-3.6341
11
5.36824
21
-3.63411
0
LINE
8
BLACK
6
CONTINUOUS
10
5.36824
20
-3.63411
11
5.36824
21
-3.63413
0
LINE
8
BLACK
6
CONTINUOUS
10
5.36824
20
-3.63413
11
5.36815
21
-3.63439
0
LINE
8
BLACK
6
CONTINUOUS
10
5.36815
20
-3.63439
11
5.36806
21
-3.63465
0
LINE
8
BLACK
6
CONTINUOUS
10
5.36806
20
-3.63465
11
5.36806
21
-3.63466
0
LINE
8
BLACK
6
CONTINUOUS
10
5.36806
20
-3.63466
11
5.36805
21
-3.63468
0
LINE
8
BLACK
6
CONTINUOUS
10
5.36805
20
-3.63468
11
5.36791
21
-3.63491
0
LINE
8
BLACK
6
CONTINUOUS
10
5.36791
20
-3.63491
11
5.36778
21
-3.63515
0
LINE
8
BLACK
6
CONTINUOUS
10
5.36778
20
-3.63515
11
5.36777
21
-3.63516
0
LINE
8
BLACK
6
CONTINUOUS
10
5.36777
20
-3.63516
11
5.36776
21
-3.63518
0
LINE
8
BLACK
6
CONTINUOUS
10
5.36776
20
-3.63518
11
5.36758
21
-3.63538
0
LINE
8
BLACK
6
CONTINUOUS
10
5.36758
20
-3.63538
11
5.36741
21
-3.63559
0
LINE
8
BLACK
6
CONTINUOUS
10
5.36741
20
-3.63559
11
5.31619
21
-3.68494
0
LINE
8
BLACK
6
CONTINUOUS
10
5.31619
20
-3.68494
11
5.26858
21
-3.73314
0
LINE
8
BLACK
6
CONTINUOUS
10
5.26858
20
-3.73314
11
5.22443
21
-3.7802
0
LINE
8
BLACK
6
CONTINUOUS
10
5.22443
20
-3.7802
11
5.18361
21
-3.82607
0
LINE
8
BLACK
6
CONTINUOUS
10
5.18361
20
-3.82607
11
5.146
21
-3.87074
0
LINE
8
BLACK
6
CONTINUOUS
10
5.146
20
-3.87074
11
5.11145
21
-3.91416
0
LINE
8
BLACK
6
CONTINUOUS
10
5.11145
20
-3.91416
11
5.07985
21
-3.95632
0
LINE
8
BLACK
6
CONTINUOUS
10
5.07985
20
-3.95632
11
5.05106
21
-3.99718
0
LINE
8
BLACK
6
CONTINUOUS
10
5.05106
20
-3.99718
11
5.02497
21
-4.03671
0
LINE
8
BLACK
6
CONTINUOUS
10
5.02497
20
-4.03671
11
5.00142
21
-4.07489
0
LINE
8
BLACK
6
CONTINUOUS
10
5.00142
20
-4.07489
11
4.98031
21
-4.11168
0
LINE
8
BLACK
6
CONTINUOUS
10
4.98031
20
-4.11168
11
4.9615
21
-4.14705
0
LINE
8
BLACK
6
CONTINUOUS
10
4.9615
20
-4.14705
11
4.94486
21
-4.18098
0
LINE
8
BLACK
6
CONTINUOUS
10
4.94486
20
-4.18098
11
4.93026
21
-4.21343
0
LINE
8
BLACK
6
CONTINUOUS
10
4.93026
20
-4.21343
11
4.91757
21
-4.24438
0
LINE
8
BLACK
6
CONTINUOUS
10
4.91757
20
-4.24438
11
4.90667
21
-4.2738
0
LINE
8
BLACK
6
CONTINUOUS
10
4.90667
20
-4.2738
11
4.89742
21
-4.30166
0
LINE
8
BLACK
6
CONTINUOUS
10
4.89742
20
-4.30166
11
4.8897
21
-4.32792
0
LINE
8
BLACK
6
CONTINUOUS
10
4.8897
20
-4.32792
11
4.88338
21
-4.35256
0
LINE
8
BLACK
6
CONTINUOUS
10
4.88338
20
-4.35256
11
4.87833
21
-4.37556
0
LINE
8
BLACK
6
CONTINUOUS
10
4.87833
20
-4.37556
11
4.87442
21
-4.39688
0
LINE
8
BLACK
6
CONTINUOUS
10
4.87442
20
-4.39688
11
4.87152
21
-4.41648
0
LINE
8
BLACK
6
CONTINUOUS
10
4.87152
20
-4.41648
11
4.86951
21
-4.43435
0
LINE
8
BLACK
6
CONTINUOUS
10
4.86951
20
-4.43435
11
4.86825
21
-4.45046
0
LINE
8
BLACK
6
CONTINUOUS
10
4.86825
20
-4.45046
11
4.86762
21
-4.46477
0
LINE
8
BLACK
6
CONTINUOUS
10
4.86762
20
-4.46477
11
4.86749
21
-4.47726
0
LINE
8
BLACK
6
CONTINUOUS
10
4.86749
20
-4.47726
11
4.86772
21
-4.48789
0
LINE
8
BLACK
6
CONTINUOUS
10
4.86772
20
-4.48789
11
4.8682
21
-4.49664
0
LINE
8
BLACK
6
CONTINUOUS
10
4.8682
20
-4.49664
11
4.86879
21
-4.50345
0
LINE
8
BLACK
6
CONTINUOUS
10
4.86879
20
-4.50345
11
4.87
21
-4.51239
0
LINE
8
BLACK
6
CONTINUOUS
10
4.87
20
-4.51239
11
4.87
21
-4.51243
0
LINE
8
BLACK
6
CONTINUOUS
10
4.87
20
-4.51243
11
4.87
21
-4.51248
0
LINE
8
BLACK
6
CONTINUOUS
10
4.87
20
-4.51248
11
4.87001
21
-4.51252
0
LINE
8
BLACK
6
CONTINUOUS
10
4.87001
20
-4.51252
11
4.87001
21
-4.51276
0
LINE
8
BLACK
6
CONTINUOUS
10
4.87001
20
-4.51276
11
4.87001
21
-4.51301
0
LINE
8
BLACK
6
CONTINUOUS
10
4.87001
20
-4.51301
11
4.87001
21
-4.51305
0
LINE
8
BLACK
6
CONTINUOUS
10
4.87001
20
-4.51305
11
4.87001
21
-4.51309
0
LINE
8
BLACK
6
CONTINUOUS
10
4.87001
20
-4.51309
11
4.86937
21
-4.51918
0
LINE
8
BLACK
6
CONTINUOUS
10
4.86937
20
-4.51918
11
4.86876
21
-4.52646
0
LINE
8
BLACK
6
CONTINUOUS
10
4.86876
20
-4.52646
11
4.86811
21
-4.53631
0
LINE
8
BLACK
6
CONTINUOUS
10
4.86811
20
-4.53631
11
4.86755
21
-4.54853
0
LINE
8
BLACK
6
CONTINUOUS
10
4.86755
20
-4.54853
11
4.8672
21
-4.5629
0
LINE
8
BLACK
6
CONTINUOUS
10
4.8672
20
-4.5629
11
4.86717
21
-4.57922
0
LINE
8
BLACK
6
CONTINUOUS
10
4.86717
20
-4.57922
11
4.86759
21
-4.59728
0
LINE
8
BLACK
6
CONTINUOUS
10
4.86759
20
-4.59728
11
4.86859
21
-4.61687
0
LINE
8
BLACK
6
CONTINUOUS
10
4.86859
20
-4.61687
11
4.87027
21
-4.63778
0
LINE
8
BLACK
6
CONTINUOUS
10
4.87027
20
-4.63778
11
4.87277
21
-4.65982
0
LINE
8
BLACK
6
CONTINUOUS
10
4.87277
20
-4.65982
11
4.8762
21
-4.68276
0
LINE
8
BLACK
6
CONTINUOUS
10
4.8762
20
-4.68276
11
4.88068
21
-4.7064
0
LINE
8
BLACK
6
CONTINUOUS
10
4.88068
20
-4.7064
11
4.88634
21
-4.73053
0
LINE
8
BLACK
6
CONTINUOUS
10
4.88634
20
-4.73053
11
4.89329
21
-4.75495
0
LINE
8
BLACK
6
CONTINUOUS
10
4.89329
20
-4.75495
11
4.90166
21
-4.77945
0
LINE
8
BLACK
6
CONTINUOUS
10
4.90166
20
-4.77945
11
4.91155
21
-4.80382
0
LINE
8
BLACK
6
CONTINUOUS
10
4.91155
20
-4.80382
11
4.9231
21
-4.82785
0
LINE
8
BLACK
6
CONTINUOUS
10
4.9231
20
-4.82785
11
4.93642
21
-4.85134
0
LINE
8
BLACK
6
CONTINUOUS
10
4.93642
20
-4.85134
11
4.95163
21
-4.87409
0
LINE
8
BLACK
6
CONTINUOUS
10
4.95163
20
-4.87409
11
4.96884
21
-4.89588
0
LINE
8
BLACK
6
CONTINUOUS
10
4.96884
20
-4.89588
11
4.98819
21
-4.91653
0
LINE
8
BLACK
6
CONTINUOUS
10
4.98819
20
-4.91653
11
5.00979
21
-4.93582
0
LINE
8
BLACK
6
CONTINUOUS
10
5.00979
20
-4.93582
11
5.03376
21
-4.95357
0
LINE
8
BLACK
6
CONTINUOUS
10
5.03376
20
-4.95357
11
5.06024
21
-4.96955
0
LINE
8
BLACK
6
CONTINUOUS
10
5.06024
20
-4.96955
11
5.08935
21
-4.98358
0
LINE
8
BLACK
6
CONTINUOUS
10
5.08935
20
-4.98358
11
5.12122
21
-4.99544
0
LINE
8
BLACK
6
CONTINUOUS
10
5.12122
20
-4.99544
11
5.15597
21
-5.00494
0
LINE
8
BLACK
6
CONTINUOUS
10
5.15597
20
-5.00494
11
5.19374
21
-5.01185
0
LINE
8
BLACK
6
CONTINUOUS
10
5.19374
20
-5.01185
11
5.23466
21
-5.01597
0
LINE
8
BLACK
6
CONTINUOUS
10
5.23466
20
-5.01597
11
5.27883
21
-5.0171
0
LINE
8
BLACK
6
CONTINUOUS
10
5.27883
20
-5.0171
11
5.3265
21
-5.01501
0
LINE
8
BLACK
6
CONTINUOUS
10
5.3265
20
-5.01501
11
5.32654
21
-5.01501
0
LINE
8
BLACK
6
CONTINUOUS
10
5.32654
20
-5.01501
11
5.32672
21
-5.01502
0
LINE
8
BLACK
6
CONTINUOUS
10
5.32672
20
-5.01502
11
5.32691
21
-5.01502
0
LINE
8
BLACK
6
CONTINUOUS
10
5.32691
20
-5.01502
11
5.32701
21
-5.01504
0
LINE
8
BLACK
6
CONTINUOUS
10
5.32701
20
-5.01504
11
5.32711
21
-5.01504
0
LINE
8
BLACK
6
CONTINUOUS
10
5.32711
20
-5.01504
11
5.32729
21
-5.01509
0
LINE
8
BLACK
6
CONTINUOUS
10
5.32729
20
-5.01509
11
5.32747
21
-5.01513
0
LINE
8
BLACK
6
CONTINUOUS
10
5.32747
20
-5.01513
11
5.32757
21
-5.01517
0
LINE
8
BLACK
6
CONTINUOUS
10
5.32757
20
-5.01517
11
5.32767
21
-5.01519
0
LINE
8
BLACK
6
CONTINUOUS
10
5.32767
20
-5.01519
11
5.32783
21
-5.01528
0
LINE
8
BLACK
6
CONTINUOUS
10
5.32783
20
-5.01528
11
5.32801
21
-5.01535
0
LINE
8
BLACK
6
CONTINUOUS
10
5.32801
20
-5.01535
11
5.32809
21
-5.0154
0
LINE
8
BLACK
6
CONTINUOUS
10
5.32809
20
-5.0154
11
5.32818
21
-5.01545
0
LINE
8
BLACK
6
CONTINUOUS
10
5.32818
20
-5.01545
11
5.32833
21
-5.01556
0
LINE
8
BLACK
6
CONTINUOUS
10
5.32833
20
-5.01556
11
5.32849
21
-5.01566
0
LINE
8
BLACK
6
CONTINUOUS
10
5.32849
20
-5.01566
11
5.32856
21
-5.01574
0
LINE
8
BLACK
6
CONTINUOUS
10
5.32856
20
-5.01574
11
5.32864
21
-5.0158
0
LINE
8
BLACK
6
CONTINUOUS
10
5.32864
20
-5.0158
11
5.32876
21
-5.01594
0
LINE
8
BLACK
6
CONTINUOUS
10
5.32876
20
-5.01594
11
5.3289
21
-5.01607
0
LINE
8
BLACK
6
CONTINUOUS
10
5.3289
20
-5.01607
11
5.32895
21
-5.01616
0
LINE
8
BLACK
6
CONTINUOUS
10
5.32895
20
-5.01616
11
5.32902
21
-5.01623
0
LINE
8
BLACK
6
CONTINUOUS
10
5.32902
20
-5.01623
11
5.32911
21
-5.01639
0
LINE
8
BLACK
6
CONTINUOUS
10
5.32911
20
-5.01639
11
5.32922
21
-5.01655
0
LINE
8
BLACK
6
CONTINUOUS
10
5.32922
20
-5.01655
11
5.32926
21
-5.01664
0
LINE
8
BLACK
6
CONTINUOUS
10
5.32926
20
-5.01664
11
5.32931
21
-5.01673
0
LINE
8
BLACK
6
CONTINUOUS
10
5.32931
20
-5.01673
11
5.32937
21
-5.01691
0
LINE
8
BLACK
6
CONTINUOUS
10
5.32937
20
-5.01691
11
5.32944
21
-5.01708
0
LINE
8
BLACK
6
CONTINUOUS
10
5.32944
20
-5.01708
11
5.32946
21
-5.01718
0
LINE
8
BLACK
6
CONTINUOUS
10
5.32946
20
-5.01718
11
5.3295
21
-5.01728
0
LINE
8
BLACK
6
CONTINUOUS
10
5.3295
20
-5.01728
11
5.32952
21
-5.01746
0
LINE
8
BLACK
6
CONTINUOUS
10
5.32952
20
-5.01746
11
5.32956
21
-5.01764
0
LINE
8
BLACK
6
CONTINUOUS
10
5.32956
20
-5.01764
11
5.33331
21
-5.05266
0
LINE
8
BLACK
6
CONTINUOUS
10
5.33331
20
-5.05266
11
5.33911
21
-5.08662
0
LINE
8
BLACK
6
CONTINUOUS
10
5.33911
20
-5.08662
11
5.34682
21
-5.11959
0
LINE
8
BLACK
6
CONTINUOUS
10
5.34682
20
-5.11959
11
5.35633
21
-5.15159
0
LINE
8
BLACK
6
CONTINUOUS
10
5.35633
20
-5.15159
11
5.36751
21
-5.18258
0
LINE
8
BLACK
6
CONTINUOUS
10
5.36751
20
-5.18258
11
5.38024
21
-5.21258
0
LINE
8
BLACK
6
CONTINUOUS
10
5.38024
20
-5.21258
11
5.3944
21
-5.24157
0
LINE
8
BLACK
6
CONTINUOUS
10
5.3944
20
-5.24157
11
5.40986
21
-5.26953
0
LINE
8
BLACK
6
CONTINUOUS
10
5.40986
20
-5.26953
11
5.4265
21
-5.29647
0
LINE
8
BLACK
6
CONTINUOUS
10
5.4265
20
-5.29647
11
5.44419
21
-5.32236
0
LINE
8
BLACK
6
CONTINUOUS
10
5.44419
20
-5.32236
11
5.4628
21
-5.34721
0
LINE
8
BLACK
6
CONTINUOUS
10
5.4628
20
-5.34721
11
5.48222
21
-5.371
0
LINE
8
BLACK
6
CONTINUOUS
10
5.48222
20
-5.371
11
5.50232
21
-5.39372
0
LINE
8
BLACK
6
CONTINUOUS
10
5.50232
20
-5.39372
11
5.52298
21
-5.41536
0
LINE
8
BLACK
6
CONTINUOUS
10
5.52298
20
-5.41536
11
5.54406
21
-5.43592
0
LINE
8
BLACK
6
CONTINUOUS
10
5.54406
20
-5.43592
11
5.56544
21
-5.45537
0
LINE
8
BLACK
6
CONTINUOUS
10
5.56544
20
-5.45537
11
5.587
21
-5.47372
0
LINE
8
BLACK
6
CONTINUOUS
10
5.587
20
-5.47372
11
5.60861
21
-5.49096
0
LINE
8
BLACK
6
CONTINUOUS
10
5.60861
20
-5.49096
11
5.63015
21
-5.50706
0
LINE
8
BLACK
6
CONTINUOUS
10
5.63015
20
-5.50706
11
5.6515
21
-5.52203
0
LINE
8
BLACK
6
CONTINUOUS
10
5.6515
20
-5.52203
11
5.67251
21
-5.53585
0
LINE
8
BLACK
6
CONTINUOUS
10
5.67251
20
-5.53585
11
5.69308
21
-5.54852
0
LINE
8
BLACK
6
CONTINUOUS
10
5.69308
20
-5.54852
11
5.71306
21
-5.56002
0
LINE
8
BLACK
6
CONTINUOUS
10
5.71306
20
-5.56002
11
5.73234
21
-5.57035
0
LINE
8
BLACK
6
CONTINUOUS
10
5.73234
20
-5.57035
11
5.7508
21
-5.57949
0
LINE
8
BLACK
6
CONTINUOUS
10
5.7508
20
-5.57949
11
5.76829
21
-5.58743
0
LINE
8
BLACK
6
CONTINUOUS
10
5.76829
20
-5.58743
11
5.7847
21
-5.59417
0
LINE
8
BLACK
6
CONTINUOUS
10
5.7847
20
-5.59417
11
5.79988
21
-5.5997
0
LINE
8
BLACK
6
CONTINUOUS
10
5.79988
20
-5.5997
11
5.81372
21
-5.60401
0
LINE
8
BLACK
6
CONTINUOUS
10
5.81372
20
-5.60401
11
5.82606
21
-5.60708
0
LINE
8
BLACK
6
CONTINUOUS
10
5.82606
20
-5.60708
11
5.83676
21
-5.60891
0
LINE
8
BLACK
6
CONTINUOUS
10
5.83676
20
-5.60891
11
5.84566
21
-5.60951
0
LINE
8
BLACK
6
CONTINUOUS
10
5.84566
20
-5.60951
11
5.85456
21
-5.60891
0
LINE
8
BLACK
6
CONTINUOUS
10
5.85456
20
-5.60891
11
5.86525
21
-5.60708
0
LINE
8
BLACK
6
CONTINUOUS
10
5.86525
20
-5.60708
11
5.87759
21
-5.60401
0
LINE
8
BLACK
6
CONTINUOUS
10
5.87759
20
-5.60401
11
5.89143
21
-5.5997
0
LINE
8
BLACK
6
CONTINUOUS
10
5.89143
20
-5.5997
11
5.90662
21
-5.59418
0
LINE
8
BLACK
6
CONTINUOUS
10
5.90662
20
-5.59418
11
5.92302
21
-5.58743
0
LINE
8
BLACK
6
CONTINUOUS
10
5.92302
20
-5.58743
11
5.94052
21
-5.57949
0
LINE
8
BLACK
6
CONTINUOUS
10
5.94052
20
-5.57949
11
5.95897
21
-5.57035
0
LINE
8
BLACK
6
CONTINUOUS
10
5.95897
20
-5.57035
11
5.97825
21
-5.56002
0
LINE
8
BLACK
6
CONTINUOUS
10
5.97825
20
-5.56002
11
5.99824
21
-5.54852
0
LINE
8
BLACK
6
CONTINUOUS
10
5.99824
20
-5.54852
11
6.0188
21
-5.53585
0
LINE
8
BLACK
6
CONTINUOUS
10
6.0188
20
-5.53585
11
6.03982
21
-5.52203
0
LINE
8
BLACK
6
CONTINUOUS
10
6.03982
20
-5.52203
11
6.06116
21
-5.50706
0
LINE
8
BLACK
6
CONTINUOUS
10
6.06116
20
-5.50706
11
6.0827
21
-5.49096
0
LINE
8
BLACK
6
CONTINUOUS
10
6.0827
20
-5.49096
11
6.10431
21
-5.47372
0
LINE
8
BLACK
6
CONTINUOUS
10
6.10431
20
-5.47372
11
6.12587
21
-5.45537
0
LINE
8
BLACK
6
CONTINUOUS
10
6.12587
20
-5.45537
11
6.14726
21
-5.43592
0
LINE
8
BLACK
6
CONTINUOUS
10
6.14726
20
-5.43592
11
6.16834
21
-5.41536
0
LINE
8
BLACK
6
CONTINUOUS
10
6.16834
20
-5.41536
11
6.18899
21
-5.39372
0
LINE
8
BLACK
6
CONTINUOUS
10
6.18899
20
-5.39372
11
6.20909
21
-5.371
0
LINE
8
BLACK
6
CONTINUOUS
10
6.20909
20
-5.371
11
6.22851
21
-5.34721
0
LINE
8
BLACK
6
CONTINUOUS
10
6.22851
20
-5.34721
11
6.24713
21
-5.32236
0
LINE
8
BLACK
6
CONTINUOUS
10
6.24713
20
-5.32236
11
6.26481
21
-5.29647
0
LINE
8
BLACK
6
CONTINUOUS
10
6.26481
20
-5.29647
11
6.28145
21
-5.26953
0
LINE
8
BLACK
6
CONTINUOUS
10
6.28145
20
-5.26953
11
6.29691
21
-5.24157
0
LINE
8
BLACK
6
CONTINUOUS
10
6.29691
20
-5.24157
11
6.31107
21
-5.21258
0
LINE
8
BLACK
6
CONTINUOUS
10
6.31107
20
-5.21258
11
6.3238
21
-5.18258
0
LINE
8
BLACK
6
CONTINUOUS
10
6.3238
20
-5.18258
11
6.33499
21
-5.15159
0
LINE
8
BLACK
6
CONTINUOUS
10
6.33499
20
-5.15159
11
6.34449
21
-5.11959
0
LINE
8
BLACK
6
CONTINUOUS
10
6.34449
20
-5.11959
11
6.35221
21
-5.08662
0
LINE
8
BLACK
6
CONTINUOUS
10
6.35221
20
-5.08662
11
6.358
21
-5.05266
0
LINE
8
BLACK
6
CONTINUOUS
10
6.358
20
-5.05266
11
6.36175
21
-5.01764
0
LINE
8
BLACK
6
CONTINUOUS
10
6.36175
20
-5.01764
11
6.36176
21
-5.0176
0
LINE
8
BLACK
6
CONTINUOUS
10
6.36176
20
-5.0176
11
6.3618
21
-5.01742
0
LINE
8
BLACK
6
CONTINUOUS
10
6.3618
20
-5.01742
11
6.36182
21
-5.01724
0
LINE
8
BLACK
6
CONTINUOUS
10
6.36182
20
-5.01724
11
6.36186
21
-5.01714
0
LINE
8
BLACK
6
CONTINUOUS
10
6.36186
20
-5.01714
11
6.36188
21
-5.01704
0
LINE
8
BLACK
6
CONTINUOUS
10
6.36188
20
-5.01704
11
6.36196
21
-5.01687
0
LINE
8
BLACK
6
CONTINUOUS
10
6.36196
20
-5.01687
11
6.36202
21
-5.01669
0
LINE
8
BLACK
6
CONTINUOUS
10
6.36202
20
-5.01669
11
6.36207
21
-5.01661
0
LINE
8
BLACK
6
CONTINUOUS
10
6.36207
20
-5.01661
11
6.36211
21
-5.01651
0
LINE
8
BLACK
6
CONTINUOUS
10
6.36211
20
-5.01651
11
6.36222
21
-5.01636
0
LINE
8
BLACK
6
CONTINUOUS
10
6.36222
20
-5.01636
11
6.36232
21
-5.0162
0
LINE
8
BLACK
6
CONTINUOUS
10
6.36232
20
-5.0162
11
6.36238
21
-5.01612
0
LINE
8
BLACK
6
CONTINUOUS
10
6.36238
20
-5.01612
11
6.36244
21
-5.01604
0
LINE
8
BLACK
6
CONTINUOUS
10
6.36244
20
-5.01604
11
6.36258
21
-5.01591
0
LINE
8
BLACK
6
CONTINUOUS
10
6.36258
20
-5.01591
11
6.3627
21
-5.01577
0
LINE
8
BLACK
6
CONTINUOUS
10
6.3627
20
-5.01577
11
6.36278
21
-5.01571
0
LINE
8
BLACK
6
CONTINUOUS
10
6.36278
20
-5.01571
11
6.36286
21
-5.01564
0
LINE
8
BLACK
6
CONTINUOUS
10
6.36286
20
-5.01564
11
6.36301
21
-5.01554
0
LINE
8
BLACK
6
CONTINUOUS
10
6.36301
20
-5.01554
11
6.36316
21
-5.01543
0
LINE
8
BLACK
6
CONTINUOUS
10
6.36316
20
-5.01543
11
6.36326
21
-5.01538
0
LINE
8
BLACK
6
CONTINUOUS
10
6.36326
20
-5.01538
11
6.36334
21
-5.01533
0
LINE
8
BLACK
6
CONTINUOUS
10
6.36334
20
-5.01533
11
6.36352
21
-5.01526
0
LINE
8
BLACK
6
CONTINUOUS
10
6.36352
20
-5.01526
11
6.36368
21
-5.01518
0
LINE
8
BLACK
6
CONTINUOUS
10
6.36368
20
-5.01518
11
6.36378
21
-5.01515
0
LINE
8
BLACK
6
CONTINUOUS
10
6.36378
20
-5.01515
11
6.36388
21
-5.01512
0
LINE
8
BLACK
6
CONTINUOUS
10
6.36388
20
-5.01512
11
6.36406
21
-5.01508
0
LINE
8
BLACK
6
CONTINUOUS
10
6.36406
20
-5.01508
11
6.36424
21
-5.01504
0
LINE
8
BLACK
6
CONTINUOUS
10
6.36424
20
-5.01504
11
6.36435
21
-5.01503
0
LINE
8
BLACK
6
CONTINUOUS
10
6.36435
20
-5.01503
11
6.36445
21
-5.01501
0
LINE
8
BLACK
6
CONTINUOUS
10
6.36445
20
-5.01501
11
6.36463
21
-5.01502
0
LINE
8
BLACK
6
CONTINUOUS
10
6.36463
20
-5.01502
11
6.36482
21
-5.01501
0
LINE
8
BLACK
6
CONTINUOUS
10
6.36482
20
-5.01501
11
6.41248
21
-5.0171
0
LINE
8
BLACK
6
CONTINUOUS
10
6.41248
20
-5.0171
11
6.45666
21
-5.01597
0
LINE
8
BLACK
6
CONTINUOUS
10
6.45666
20
-5.01597
11
6.49757
21
-5.01185
0
LINE
8
BLACK
6
CONTINUOUS
10
6.49757
20
-5.01185
11
6.53534
21
-5.00494
0
LINE
8
BLACK
6
CONTINUOUS
10
6.53534
20
-5.00494
11
6.5701
21
-4.99544
0
LINE
8
BLACK
6
CONTINUOUS
10
6.5701
20
-4.99544
11
6.60196
21
-4.98358
0
LINE
8
BLACK
6
CONTINUOUS
10
6.60196
20
-4.98358
11
6.63107
21
-4.96955
0
LINE
8
BLACK
6
CONTINUOUS
10
6.63107
20
-4.96955
11
6.65755
21
-4.95357
0
LINE
8
BLACK
6
CONTINUOUS
10
6.65755
20
-4.95357
11
6.68153
21
-4.93582
0
LINE
8
BLACK
6
CONTINUOUS
10
6.68153
20
-4.93582
11
6.70312
21
-4.91653
0
LINE
8
BLACK
6
CONTINUOUS
10
6.70312
20
-4.91653
11
6.72247
21
-4.89588
0
LINE
8
BLACK
6
CONTINUOUS
10
6.72247
20
-4.89588
11
6.73969
21
-4.87409
0
LINE
8
BLACK
6
CONTINUOUS
10
6.73969
20
-4.87409
11
6.75489
21
-4.85134
0
LINE
8
BLACK
6
CONTINUOUS
10
6.75489
20
-4.85134
11
6.76821
21
-4.82785
0
LINE
8
BLACK
6
CONTINUOUS
10
6.76821
20
-4.82785
11
6.77976
21
-4.80382
0
LINE
8
BLACK
6
CONTINUOUS
10
6.77976
20
-4.80382
11
6.78966
21
-4.77945
0
LINE
8
BLACK
6
CONTINUOUS
10
6.78966
20
-4.77945
11
6.79802
21
-4.75495
0
LINE
8
BLACK
6
CONTINUOUS
10
6.79802
20
-4.75495
11
6.80497
21
-4.73053
0
LINE
8
BLACK
6
CONTINUOUS
10
6.80497
20
-4.73053
11
6.81063
21
-4.7064
0
LINE
8
BLACK
6
CONTINUOUS
10
6.81063
20
-4.7064
11
6.81511
21
-4.68276
0
LINE
8
BLACK
6
CONTINUOUS
10
6.81511
20
-4.68276
11
6.81854
21
-4.65982
0
LINE
8
BLACK
6
CONTINUOUS
10
6.81854
20
-4.65982
11
6.82104
21
-4.63778
0
LINE
8
BLACK
6
CONTINUOUS
10
6.82104
20
-4.63778
11
6.82273
21
-4.61687
0
LINE
8
BLACK
6
CONTINUOUS
10
6.82273
20
-4.61687
11
6.82372
21
-4.59728
0
LINE
8
BLACK
6
CONTINUOUS
10
6.82372
20
-4.59728
11
6.82414
21
-4.57922
0
LINE
8
BLACK
6
CONTINUOUS
10
6.82414
20
-4.57922
11
6.82412
21
-4.5629
0
LINE
8
BLACK
6
CONTINUOUS
10
6.82412
20
-4.5629
11
6.82376
21
-4.54853
0
LINE
8
BLACK
6
CONTINUOUS
10
6.82376
20
-4.54853
11
6.8232
21
-4.53631
0
LINE
8
BLACK
6
CONTINUOUS
10
6.8232
20
-4.53631
11
6.82255
21
-4.52646
0
LINE
8
BLACK
6
CONTINUOUS
10
6.82255
20
-4.52646
11
6.82194
21
-4.51918
0
LINE
8
BLACK
6
CONTINUOUS
10
6.82194
20
-4.51918
11
6.82131
21
-4.51309
0
LINE
8
BLACK
6
CONTINUOUS
10
6.82131
20
-4.51309
11
6.8213
21
-4.51305
0
LINE
8
BLACK
6
CONTINUOUS
10
6.8213
20
-4.51305
11
6.8213
21
-4.51301
0
LINE
8
BLACK
6
CONTINUOUS
10
6.8213
20
-4.51301
11
6.8213
21
-4.51297
0
LINE
8
BLACK
6
CONTINUOUS
10
6.8213
20
-4.51297
11
6.8213
21
-4.51272
0
LINE
8
BLACK
6
CONTINUOUS
10
6.8213
20
-4.51272
11
6.82131
21
-4.51248
0
LINE
8
BLACK
6
CONTINUOUS
10
6.82131
20
-4.51248
11
6.82132
21
-4.51244
0
LINE
8
BLACK
6
CONTINUOUS
10
6.82132
20
-4.51244
11
6.82132
21
-4.51239
0
LINE
8
BLACK
6
CONTINUOUS
10
6.82132
20
-4.51239
11
6.82252
21
-4.50345
0
LINE
8
BLACK
6
CONTINUOUS
10
6.82252
20
-4.50345
11
6.82311
21
-4.49664
0
LINE
8
BLACK
6
CONTINUOUS
10
6.82311
20
-4.49664
11
6.82359
21
-4.48789
0
LINE
8
BLACK
6
CONTINUOUS
10
6.82359
20
-4.48789
11
6.82383
21
-4.47726
0
LINE
8
BLACK
6
CONTINUOUS
10
6.82383
20
-4.47726
11
6.82369
21
-4.46477
0
LINE
8
BLACK
6
CONTINUOUS
10
6.82369
20
-4.46477
11
6.82306
21
-4.45046
0
LINE
8
BLACK
6
CONTINUOUS
10
6.82306
20
-4.45046
11
6.8218
21
-4.43435
0
LINE
8
BLACK
6
CONTINUOUS
10
6.8218
20
-4.43435
11
6.81979
21
-4.41648
0
LINE
8
BLACK
6
CONTINUOUS
10
6.81979
20
-4.41648
11
6.81689
21
-4.39688
0
LINE
8
BLACK
6
CONTINUOUS
10
6.81689
20
-4.39688
11
6.81298
21
-4.37556
0
LINE
8
BLACK
6
CONTINUOUS
10
6.81298
20
-4.37556
11
6.80793
21
-4.35257
0
LINE
8
BLACK
6
CONTINUOUS
10
6.80793
20
-4.35257
11
6.80161
21
-4.32792
0
LINE
8
BLACK
6
CONTINUOUS
10
6.80161
20
-4.32792
11
6.79389
21
-4.30166
0
LINE
8
BLACK
6
CONTINUOUS
10
6.79389
20
-4.30166
11
6.78465
21
-4.2738
0
LINE
8
BLACK
6
CONTINUOUS
10
6.78465
20
-4.2738
11
6.77374
21
-4.24438
0
LINE
8
BLACK
6
CONTINUOUS
10
6.77374
20
-4.24438
11
6.76106
21
-4.21343
0
LINE
8
BLACK
6
CONTINUOUS
10
6.76106
20
-4.21343
11
6.74646
21
-4.18098
0
LINE
8
BLACK
6
CONTINUOUS
10
6.74646
20
-4.18098
11
6.72981
21
-4.14705
0
LINE
8
BLACK
6
CONTINUOUS
10
6.72981
20
-4.14705
11
6.711
21
-4.11168
0
LINE
8
BLACK
6
CONTINUOUS
10
6.711
20
-4.11168
11
6.68989
21
-4.07489
0
LINE
8
BLACK
6
CONTINUOUS
10
6.68989
20
-4.07489
11
6.66635
21
-4.03671
0
LINE
8
BLACK
6
CONTINUOUS
10
6.66635
20
-4.03671
11
6.64025
21
-3.99718
0
LINE
8
BLACK
6
CONTINUOUS
10
6.64025
20
-3.99718
11
6.61146
21
-3.95632
0
LINE
8
BLACK
6
CONTINUOUS
10
6.61146
20
-3.95632
11
6.57986
21
-3.91416
0
LINE
8
BLACK
6
CONTINUOUS
10
6.57986
20
-3.91416
11
6.54532
21
-3.87074
0
LINE
8
BLACK
6
CONTINUOUS
10
6.54532
20
-3.87074
11
6.5077
21
-3.82607
0
LINE
8
BLACK
6
CONTINUOUS
10
6.5077
20
-3.82607
11
6.46688
21
-3.7802
0
LINE
8
BLACK
6
CONTINUOUS
10
6.46688
20
-3.7802
11
6.42273
21
-3.73314
0
LINE
8
BLACK
6
CONTINUOUS
10
6.42273
20
-3.73314
11
6.37513
21
-3.68494
0
LINE
8
BLACK
6
CONTINUOUS
10
6.37513
20
-3.68494
11
6.32391
21
-3.63559
0
LINE
8
BLACK
6
CONTINUOUS
10
6.32391
20
-3.63559
11
6.3239
21
-3.63558
0
LINE
8
BLACK
6
CONTINUOUS
10
6.3239
20
-3.63558
11
6.3239
21
-3.63558
0
LINE
8
BLACK
6
CONTINUOUS
10
6.3239
20
-3.63558
11
6.3239
21
-3.63558
0
LINE
8
BLACK
6
CONTINUOUS
10
6.3239
20
-3.63558
11
6.32388
21
-3.63556
0
LINE
8
BLACK
6
CONTINUOUS
10
6.32388
20
-3.63556
11
6.3237
21
-3.63535
0
LINE
8
BLACK
6
CONTINUOUS
10
6.3237
20
-3.63535
11
6.32353
21
-3.63514
0
LINE
8
BLACK
6
CONTINUOUS
10
6.32353
20
-3.63514
11
6.32352
21
-3.63513
0
LINE
8
BLACK
6
CONTINUOUS
10
6.32352
20
-3.63513
11
6.32351
21
-3.63512
0
LINE
8
BLACK
6
CONTINUOUS
10
6.32351
20
-3.63512
11
6.32338
21
-3.63488
0
LINE
8
BLACK
6
CONTINUOUS
10
6.32338
20
-3.63488
11
6.32325
21
-3.63464
0
LINE
8
BLACK
6
CONTINUOUS
10
6.32325
20
-3.63464
11
6.32324
21
-3.63462
0
LINE
8
BLACK
6
CONTINUOUS
10
6.32324
20
-3.63462
11
6.32323
21
-3.63461
0
LINE
8
BLACK
6
CONTINUOUS
10
6.32323
20
-3.63461
11
6.32315
21
-3.63435
0
LINE
8
BLACK
6
CONTINUOUS
10
6.32315
20
-3.63435
11
6.32307
21
-3.63409
0
LINE
8
BLACK
6
CONTINUOUS
10
6.32307
20
-3.63409
11
6.32307
21
-3.63407
0
LINE
8
BLACK
6
CONTINUOUS
10
6.32307
20
-3.63407
11
6.32306
21
-3.63406
0
LINE
8
BLACK
6
CONTINUOUS
10
6.32306
20
-3.63406
11
6.32303
21
-3.63379
0
LINE
8
BLACK
6
CONTINUOUS
10
6.32303
20
-3.63379
11
6.323
21
-3.63352
0
LINE
8
BLACK
6
CONTINUOUS
10
6.323
20
-3.63352
11
6.323
21
-3.6335
0
LINE
8
BLACK
6
CONTINUOUS
10
6.323
20
-3.6335
11
6.323
21
-3.63349
0
LINE
8
BLACK
6
CONTINUOUS
10
6.323
20
-3.63349
11
6.32303
21
-3.63322
0
LINE
8
BLACK
6
CONTINUOUS
10
6.32303
20
-3.63322
11
6.32305
21
-3.63294
0
LINE
8
BLACK
6
CONTINUOUS
10
6.32305
20
-3.63294
11
6.32471
21
-3.62366
0
LINE
8
BLACK
6
CONTINUOUS
10
6.32471
20
-3.62366
11
6.32581
21
-3.61673
0
LINE
8
BLACK
6
CONTINUOUS
10
6.32581
20
-3.61673
11
6.32708
21
-3.60802
0
LINE
8
BLACK
6
CONTINUOUS
10
6.32708
20
-3.60802
11
6.32844
21
-3.59765
0
LINE
8
BLACK
6
CONTINUOUS
10
6.32844
20
-3.59765
11
6.32983
21
-3.58572
0
LINE
8
BLACK
6
CONTINUOUS
10
6.32983
20
-3.58572
11
6.33117
21
-3.57232
0
LINE
8
BLACK
6
CONTINUOUS
10
6.33117
20
-3.57232
11
6.33239
21
-3.55755
0
LINE
8
BLACK
6
CONTINUOUS
10
6.33239
20
-3.55755
11
6.33343
21
-3.54151
0
LINE
8
BLACK
6
CONTINUOUS
10
6.33343
20
-3.54151
11
6.33422
21
-3.52431
0
LINE
8
BLACK
6
CONTINUOUS
10
6.33422
20
-3.52431
11
6.33468
21
-3.50605
0
LINE
8
BLACK
6
CONTINUOUS
10
6.33468
20
-3.50605
11
6.33476
21
-3.48682
0
LINE
8
BLACK
6
CONTINUOUS
10
6.33476
20
-3.48682
11
6.33437
21
-3.46673
0
LINE
8
BLACK
6
CONTINUOUS
10
6.33437
20
-3.46673
11
6.33345
21
-3.44588
0
LINE
8
BLACK
6
CONTINUOUS
10
6.33345
20
-3.44588
11
6.33193
21
-3.42436
0
LINE
8
BLACK
6
CONTINUOUS
10
6.33193
20
-3.42436
11
6.32975
21
-3.40228
0
LINE
8
BLACK
6
CONTINUOUS
10
6.32975
20
-3.40228
11
6.32683
21
-3.37974
0
LINE
8
BLACK
6
CONTINUOUS
10
6.32683
20
-3.37974
11
6.3231
21
-3.35684
0
LINE
8
BLACK
6
CONTINUOUS
10
6.3231
20
-3.35684
11
6.3185
21
-3.33367
0
LINE
8
BLACK
6
CONTINUOUS
10
6.3185
20
-3.33367
11
6.31295
21
-3.31035
0
LINE
8
BLACK
6
CONTINUOUS
10
6.31295
20
-3.31035
11
6.3064
21
-3.28696
0
LINE
8
BLACK
6
CONTINUOUS
10
6.3064
20
-3.28696
11
6.29876
21
-3.26361
0
LINE
8
BLACK
6
CONTINUOUS
10
6.29876
20
-3.26361
11
6.28998
21
-3.24041
0
LINE
8
BLACK
6
CONTINUOUS
10
6.28998
20
-3.24041
11
6.27998
21
-3.21744
0
LINE
8
BLACK
6
CONTINUOUS
10
6.27998
20
-3.21744
11
6.2687
21
-3.19481
0
LINE
8
BLACK
6
CONTINUOUS
10
6.2687
20
-3.19481
11
6.25607
21
-3.17261
0
LINE
8
BLACK
6
CONTINUOUS
10
6.25607
20
-3.17261
11
6.24201
21
-3.15096
0
LINE
8
BLACK
6
CONTINUOUS
10
6.24201
20
-3.15096
11
6.22646
21
-3.12993
0
LINE
8
BLACK
6
CONTINUOUS
10
6.22646
20
-3.12993
11
6.20936
21
-3.10964
0
LINE
8
BLACK
6
CONTINUOUS
10
6.20936
20
-3.10964
11
6.19062
21
-3.09018
0
LINE
8
BLACK
6
CONTINUOUS
10
6.19062
20
-3.09018
11
6.17011
21
-3.07157
0
LINE
8
BLACK
6
CONTINUOUS
10
6.17011
20
-3.07157
11
6.17008
21
-3.07154
0
LINE
8
BLACK
6
CONTINUOUS
10
6.17008
20
-3.07154
11
6.16998
21
-3.07142
0
LINE
8
BLACK
6
CONTINUOUS
10
6.16998
20
-3.07142
11
6.16986
21
-3.07131
0
LINE
8
BLACK
6
CONTINUOUS
10
6.16986
20
-3.07131
11
6.16979
21
-3.07121
0
LINE
8
BLACK
6
CONTINUOUS
10
6.16979
20
-3.07121
11
6.1697
21
-3.07111
0
LINE
8
BLACK
6
CONTINUOUS
10
6.1697
20
-3.07111
11
6.16962
21
-3.07097
0
LINE
8
BLACK
6
CONTINUOUS
10
6.16962
20
-3.07097
11
6.16953
21
-3.07084
0
LINE
8
BLACK
6
CONTINUOUS
10
6.16953
20
-3.07084
11
6.16948
21
-3.07072
0
LINE
8
BLACK
6
CONTINUOUS
10
6.16948
20
-3.07072
11
6.16941
21
-3.07061
0
LINE
8
BLACK
6
CONTINUOUS
10
6.16941
20
-3.07061
11
6.16936
21
-3.07046
0
LINE
8
BLACK
6
CONTINUOUS
10
6.16936
20
-3.07046
11
6.16929
21
-3.07031
0
LINE
8
BLACK
6
CONTINUOUS
10
6.16929
20
-3.07031
11
6.16927
21
-3.07019
0
LINE
8
BLACK
6
CONTINUOUS
10
6.16927
20
-3.07019
11
6.16923
21
-3.07007
0
LINE
8
BLACK
6
CONTINUOUS
10
6.16923
20
-3.07007
11
6.1692
21
-3.06991
0
LINE
8
BLACK
6
CONTINUOUS
10
6.1692
20
-3.06991
11
6.16917
21
-3.06975
0
LINE
8
BLACK
6
CONTINUOUS
10
6.16917
20
-3.06975
11
6.16916
21
-3.06962
0
LINE
8
BLACK
6
CONTINUOUS
10
6.16916
20
-3.06962
11
6.16915
21
-3.0695
0
LINE
8
BLACK
6
CONTINUOUS
10
6.16915
20
-3.0695
11
6.16916
21
-3.06933
0
LINE
8
BLACK
6
CONTINUOUS
10
6.16916
20
-3.06933
11
6.16915
21
-3.06917
0
LINE
8
BLACK
6
CONTINUOUS
10
6.16915
20
-3.06917
11
6.17098
21
-3.04399
0
LINE
8
BLACK
6
CONTINUOUS
10
6.17098
20
-3.04399
11
6.17099
21
-3.04395
0
LINE
8
BLACK
6
CONTINUOUS
10
6.17099
20
-3.04395
11
6.17099
21
-3.04393
0
LINE
8
BLACK
6
CONTINUOUS
10
6.17099
20
-3.04393
11
6.17099
21
-3.04392
0
LINE
8
BLACK
6
CONTINUOUS
10
6.17099
20
-3.04392
11
6.17331
21
-3.02045
0
LINE
8
BLACK
6
CONTINUOUS
10
6.17331
20
-3.02045
11
6.17331
21
-3.0204
0
LINE
8
BLACK
6
CONTINUOUS
10
6.17331
20
-3.0204
11
6.17332
21
-3.02038
0
LINE
8
BLACK
6
CONTINUOUS
10
6.17332
20
-3.02038
11
6.17332
21
-3.02036
0
LINE
8
BLACK
6
CONTINUOUS
10
6.17332
20
-3.02036
11
6.17613
21
-2.99853
0
LINE
8
BLACK
6
CONTINUOUS
10
6.17613
20
-2.99853
11
6.17613
21
-2.99849
0
LINE
8
BLACK
6
CONTINUOUS
10
6.17613
20
-2.99849
11
6.17614
21
-2.99846
0
LINE
8
BLACK
6
CONTINUOUS
10
6.17614
20
-2.99846
11
6.17614
21
-2.99844
0
LINE
8
BLACK
6
CONTINUOUS
10
6.17614
20
-2.99844
11
6.17944
21
-2.97819
0
LINE
8
BLACK
6
CONTINUOUS
10
6.17944
20
-2.97819
11
6.17944
21
-2.97815
0
LINE
8
BLACK
6
CONTINUOUS
10
6.17944
20
-2.97815
11
6.17945
21
-2.97811
0
LINE
8
BLACK
6
CONTINUOUS
10
6.17945
20
-2.97811
11
6.17946
21
-2.97808
0
LINE
8
BLACK
6
CONTINUOUS
10
6.17946
20
-2.97808
11
6.18323
21
-2.95934
0
LINE
8
BLACK
6
CONTINUOUS
10
6.18323
20
-2.95934
11
6.18324
21
-2.9593
0
LINE
8
BLACK
6
CONTINUOUS
10
6.18324
20
-2.9593
11
6.18325
21
-2.95926
0
LINE
8
BLACK
6
CONTINUOUS
10
6.18325
20
-2.95926
11
6.18326
21
-2.95922
0
LINE
8
BLACK
6
CONTINUOUS
10
6.18326
20
-2.95922
11
6.18751
21
-2.94194
0
LINE
8
BLACK
6
CONTINUOUS
10
6.18751
20
-2.94194
11
6.18752
21
-2.9419
0
LINE
8
BLACK
6
CONTINUOUS
10
6.18752
20
-2.9419
11
6.18754
21
-2.94185
0
LINE
8
BLACK
6
CONTINUOUS
10
6.18754
20
-2.94185
11
6.18755
21
-2.9418
0
LINE
8
BLACK
6
CONTINUOUS
10
6.18755
20
-2.9418
11
6.19227
21
-2.9259
0
LINE
8
BLACK
6
CONTINUOUS
10
6.19227
20
-2.9259
11
6.19228
21
-2.92586
0
LINE
8
BLACK
6
CONTINUOUS
10
6.19228
20
-2.92586
11
6.19231
21
-2.92581
0
LINE
8
BLACK
6
CONTINUOUS
10
6.19231
20
-2.92581
11
6.19232
21
-2.92575
0
LINE
8
BLACK
6
CONTINUOUS
10
6.19232
20
-2.92575
11
6.19752
21
-2.91117
0
LINE
8
BLACK
6
CONTINUOUS
10
6.19752
20
-2.91117
11
6.19753
21
-2.91113
0
LINE
8
BLACK
6
CONTINUOUS
10
6.19753
20
-2.91113
11
6.19756
21
-2.91107
0
LINE
8
BLACK
6
CONTINUOUS
10
6.19756
20
-2.91107
11
6.19758
21
-2.911
0
LINE
8
BLACK
6
CONTINUOUS
10
6.19758
20
-2.911
11
6.20325
21
-2.89768
0
LINE
8
BLACK
6
CONTINUOUS
10
6.20325
20
-2.89768
11
6.20326
21
-2.89764
0
LINE
8
BLACK
6
CONTINUOUS
10
6.20326
20
-2.89764
11
6.2033
21
-2.89757
0
LINE
8
BLACK
6
CONTINUOUS
10
6.2033
20
-2.89757
11
6.20333
21
-2.8975
0
LINE
8
BLACK
6
CONTINUOUS
10
6.20333
20
-2.8975
11
6.20945
21
-2.88536
0
LINE
8
BLACK
6
CONTINUOUS
10
6.20945
20
-2.88536
11
6.20947
21
-2.88532
0
LINE
8
BLACK
6
CONTINUOUS
10
6.20947
20
-2.88532
11
6.20952
21
-2.88525
0
LINE
8
BLACK
6
CONTINUOUS
10
6.20952
20
-2.88525
11
6.20956
21
-2.88518
0
LINE
8
BLACK
6
CONTINUOUS
10
6.20956
20
-2.88518
11
6.21614
21
-2.87416
0
LINE
8
BLACK
6
CONTINUOUS
10
6.21614
20
-2.87416
11
6.21616
21
-2.87413
0
LINE
8
BLACK
6
CONTINUOUS
10
6.21616
20
-2.87413
11
6.21622
21
-2.87405
0
LINE
8
BLACK
6
CONTINUOUS
10
6.21622
20
-2.87405
11
6.21627
21
-2.87397
0
LINE
8
BLACK
6
CONTINUOUS
10
6.21627
20
-2.87397
11
6.22331
21
-2.86402
0
LINE
8
BLACK
6
CONTINUOUS
10
6.22331
20
-2.86402
11
6.22333
21
-2.86398
0
LINE
8
BLACK
6
CONTINUOUS
10
6.22333
20
-2.86398
11
6.2234
21
-2.86391
0
LINE
8
BLACK
6
CONTINUOUS
10
6.2234
20
-2.86391
11
6.22346
21
-2.86383
0
LINE
8
BLACK
6
CONTINUOUS
10
6.22346
20
-2.86383
11
6.23095
21
-2.85487
0
LINE
8
BLACK
6
CONTINUOUS
10
6.23095
20
-2.85487
11
6.23098
21
-2.85483
0
LINE
8
BLACK
6
CONTINUOUS
10
6.23098
20
-2.85483
11
6.23105
21
-2.85476
0
LINE
8
BLACK
6
CONTINUOUS
10
6.23105
20
-2.85476
11
6.23112
21
-2.85468
0
LINE
8
BLACK
6
CONTINUOUS
10
6.23112
20
-2.85468
11
6.23906
21
-2.84665
0
LINE
8
BLACK
6
CONTINUOUS
10
6.23906
20
-2.84665
11
6.23909
21
-2.84662
0
LINE
8
BLACK
6
CONTINUOUS
10
6.23909
20
-2.84662
11
6.23917
21
-2.84656
0
LINE
8
BLACK
6
CONTINUOUS
10
6.23917
20
-2.84656
11
6.23924
21
-2.84648
0
LINE
8
BLACK
6
CONTINUOUS
10
6.23924
20
-2.84648
11
6.24764
21
-2.83932
0
LINE
8
BLACK
6
CONTINUOUS
10
6.24764
20
-2.83932
11
6.24767
21
-2.83929
0
LINE
8
BLACK
6
CONTINUOUS
10
6.24767
20
-2.83929
11
6.24775
21
-2.83923
0
LINE
8
BLACK
6
CONTINUOUS
10
6.24775
20
-2.83923
11
6.24783
21
-2.83917
0
LINE
8
BLACK
6
CONTINUOUS
10
6.24783
20
-2.83917
11
6.25666
21
-2.8328
0
LINE
8
BLACK
6
CONTINUOUS
10
6.25666
20
-2.8328
11
6.25669
21
-2.83278
0
LINE
8
BLACK
6
CONTINUOUS
10
6.25669
20
-2.83278
11
6.25678
21
-2.83273
0
LINE
8
BLACK
6
CONTINUOUS
10
6.25678
20
-2.83273
11
6.25685
21
-2.83267
0
LINE
8
BLACK
6
CONTINUOUS
10
6.25685
20
-2.83267
11
6.26613
21
-2.82704
0
LINE
8
BLACK
6
CONTINUOUS
10
6.26613
20
-2.82704
11
6.26616
21
-2.82702
0
LINE
8
BLACK
6
CONTINUOUS
10
6.26616
20
-2.82702
11
6.26624
21
-2.82698
0
LINE
8
BLACK
6
CONTINUOUS
10
6.26624
20
-2.82698
11
6.26631
21
-2.82693
0
LINE
8
BLACK
6
CONTINUOUS
10
6.26631
20
-2.82693
11
6.27602
21
-2.82197
0
LINE
8
BLACK
6
CONTINUOUS
10
6.27602
20
-2.82197
11
6.27606
21
-2.82195
0
LINE
8
BLACK
6
CONTINUOUS
10
6.27606
20
-2.82195
11
6.27613
21
-2.82193
0
LINE
8
BLACK
6
CONTINUOUS
10
6.27613
20
-2.82193
11
6.2762
21
-2.82189
0
LINE
8
BLACK
6
CONTINUOUS
10
6.2762
20
-2.82189
11
6.28634
21
-2.81753
0
LINE
8
BLACK
6
CONTINUOUS
10
6.28634
20
-2.81753
11
6.28638
21
-2.81752
0
LINE
8
BLACK
6
CONTINUOUS
10
6.28638
20
-2.81752
11
6.28644
21
-2.8175
0
LINE
8
BLACK
6
CONTINUOUS
10
6.28644
20
-2.8175
11
6.2865
21
-2.81747
0
LINE
8
BLACK
6
CONTINUOUS
10
6.2865
20
-2.81747
11
6.29707
21
-2.81365
0
LINE
8
BLACK
6
CONTINUOUS
10
6.29707
20
-2.81365
11
6.29711
21
-2.81364
0
LINE
8
BLACK
6
CONTINUOUS
10
6.29711
20
-2.81364
11
6.29716
21
-2.81363
0
LINE
8
BLACK
6
CONTINUOUS
10
6.29716
20
-2.81363
11
6.29721
21
-2.8136
0
LINE
8
BLACK
6
CONTINUOUS
10
6.29721
20
-2.8136
11
6.3082
21
-2.81026
0
LINE
8
BLACK
6
CONTINUOUS
10
6.3082
20
-2.81026
11
6.30824
21
-2.81025
0
LINE
8
BLACK
6
CONTINUOUS
10
6.30824
20
-2.81025
11
6.30829
21
-2.81024
0
LINE
8
BLACK
6
CONTINUOUS
10
6.30829
20
-2.81024
11
6.30833
21
-2.81023
0
LINE
8
BLACK
6
CONTINUOUS
10
6.30833
20
-2.81023
11
6.31974
21
-2.8073
0
LINE
8
BLACK
6
CONTINUOUS
10
6.31974
20
-2.8073
11
6.31978
21
-2.80729
0
LINE
8
BLACK
6
CONTINUOUS
10
6.31978
20
-2.80729
11
6.31981
21
-2.80728
0
LINE
8
BLACK
6
CONTINUOUS
10
6.31981
20
-2.80728
11
6.31985
21
-2.80727
0
LINE
8
BLACK
6
CONTINUOUS
10
6.31985
20
-2.80727
11
6.33168
21
-2.80469
0
LINE
8
BLACK
6
CONTINUOUS
10
6.33168
20
-2.80469
11
6.33172
21
-2.80468
0
LINE
8
BLACK
6
CONTINUOUS
10
6.33172
20
-2.80468
11
6.33174
21
-2.80468
0
LINE
8
BLACK
6
CONTINUOUS
10
6.33174
20
-2.80468
11
6.33176
21
-2.80467
0
LINE
8
BLACK
6
CONTINUOUS
10
6.33176
20
-2.80467
11
6.344
21
-2.80237
0
LINE
8
BLACK
6
CONTINUOUS
10
6.344
20
-2.80237
11
6.34404
21
-2.80236
0
LINE
8
BLACK
6
CONTINUOUS
10
6.34404
20
-2.80236
11
6.34406
21
-2.80236
0
LINE
8
BLACK
6
CONTINUOUS
10
6.34406
20
-2.80236
11
6.34407
21
-2.80235
0
LINE
8
BLACK
6
CONTINUOUS
10
6.34407
20
-2.80235
11
6.35672
21
-2.80027
0
LINE
8
BLACK
6
CONTINUOUS
10
6.35672
20
-2.80027
11
6.35676
21
-2.80026
0
LINE
8
BLACK
6
CONTINUOUS
10
6.35676
20
-2.80026
11
6.35677
21
-2.80026
0
LINE
8
BLACK
6
CONTINUOUS
10
6.35677
20
-2.80026
11
6.35677
21
-2.80026
0
LINE
8
BLACK
6
CONTINUOUS
10
6.35677
20
-2.80026
11
6.36983
21
-2.79832
0
LINE
8
BLACK
6
CONTINUOUS
10
6.36983
20
-2.79832
11
6.36986
21
-2.79832
0
LINE
8
BLACK
6
CONTINUOUS
10
6.36986
20
-2.79832
11
6.36986
21
-2.79832
0
LINE
8
BLACK
6
CONTINUOUS
10
6.36986
20
-2.79832
11
6.36987
21
-2.79832
0
LINE
8
BLACK
6
CONTINUOUS
10
6.36987
20
-2.79832
11
6.36987
21
-2.79831
0
LINE
8
BLACK
6
CONTINUOUS
10
6.36987
20
-2.79831
11
6.36987
21
-2.79831
0
LINE
8
BLACK
6
CONTINUOUS
10
6.36987
20
-2.79831
11
6.38333
21
-2.79646
0
LINE
8
BLACK
6
CONTINUOUS
10
6.38333
20
-2.79646
11
6.38334
21
-2.79646
0
LINE
8
BLACK
6
CONTINUOUS
10
6.38334
20
-2.79646
11
6.38334
21
-2.79646
0
LINE
8
BLACK
6
CONTINUOUS
10
6.38334
20
-2.79646
11
6.39721
21
-2.79463
0
LINE
8
BLACK
6
CONTINUOUS
10
6.39721
20
-2.79463
11
6.39721
21
-2.79463
0
LINE
8
BLACK
6
CONTINUOUS
10
6.39721
20
-2.79463
11
6.39721
21
-2.79463
0
LINE
8
BLACK
6
CONTINUOUS
10
6.39721
20
-2.79463
11
6.41147
21
-2.79276
0
LINE
8
BLACK
6
CONTINUOUS
10
6.41147
20
-2.79276
11
6.4261
21
-2.79077
0
LINE
8
BLACK
6
CONTINUOUS
10
6.4261
20
-2.79077
11
6.44112
21
-2.78862
0
LINE
8
BLACK
6
CONTINUOUS
10
6.44112
20
-2.78862
11
6.45626
21
-2.78627
0
LINE
8
BLACK
6
CONTINUOUS
10
6.45626
20
-2.78627
11
6.46214
21
-2.78421
0
LINE
8
BLACK
6
CONTINUOUS
10
6.46214
20
-2.78421
11
6.46764
21
-2.78164
0
LINE
8
BLACK
6
CONTINUOUS
10
6.46764
20
-2.78164
11
6.47265
21
-2.77864
0
LINE
8
BLACK
6
CONTINUOUS
10
6.47265
20
-2.77864
11
6.47716
21
-2.77526
0
LINE
8
BLACK
6
CONTINUOUS
10
6.47716
20
-2.77526
11
6.48309
21
-2.76944
0
LINE
8
BLACK
6
CONTINUOUS
10
6.48309
20
-2.76944
11
6.48795
21
-2.76294
0
LINE
8
BLACK
6
CONTINUOUS
10
6.48795
20
-2.76294
11
6.49177
21
-2.75582
0
LINE
8
BLACK
6
CONTINUOUS
10
6.49177
20
-2.75582
11
6.49454
21
-2.74819
0
LINE
8
BLACK
6
CONTINUOUS
10
6.49454
20
-2.74819
11
6.49627
21
-2.74018
0
LINE
8
BLACK
6
CONTINUOUS
10
6.49627
20
-2.74018
11
6.49695
21
-2.7319
0
LINE
8
BLACK
6
CONTINUOUS
10
6.49695
20
-2.7319
11
6.49658
21
-2.72343
0
LINE
8
BLACK
6
CONTINUOUS
10
6.49658
20
-2.72343
11
6.49575
21
-2.71779
0
LINE
8
BLACK
6
CONTINUOUS
10
6.49575
20
-2.71779
11
6.49518
21
-2.71505
0
LINE
8
BLACK
6
CONTINUOUS
10
6.49518
20
-2.71505
11
6.49283
21
-2.70692
0
LINE
8
BLACK
6
CONTINUOUS
10
6.49283
20
-2.70692
11
6.48967
21
-2.69941
0
LINE
8
BLACK
6
CONTINUOUS
10
6.48967
20
-2.69941
11
6.48572
21
-2.69252
0
LINE
8
BLACK
6
CONTINUOUS
10
6.48572
20
-2.69252
11
6.48098
21
-2.68632
0
LINE
8
BLACK
6
CONTINUOUS
10
6.48098
20
-2.68632
11
6.47547
21
-2.68086
0
LINE
8
BLACK
6
CONTINUOUS
10
6.47547
20
-2.68086
11
6.46919
21
-2.67619
0
LINE
8
BLACK
6
CONTINUOUS
10
6.46919
20
-2.67619
11
6.46213
21
-2.67238
0
LINE
8
BLACK
6
CONTINUOUS
10
6.46213
20
-2.67238
11
6.45426
21
-2.66948
0
LINE
8
BLACK
6
CONTINUOUS
10
6.45426
20
-2.66948
11
6.44863
21
-2.66811
0
LINE
8
BLACK
6
CONTINUOUS
10
6.44863
20
-2.66811
11
6.44261
21
-2.66719
0
LINE
8
BLACK
6
CONTINUOUS
10
6.44261
20
-2.66719
11
6.43625
21
-2.66676
0
LINE
8
BLACK
6
CONTINUOUS
10
6.43625
20
-2.66676
11
6.42951
21
-2.66683
  0
ENDSEC
  0
EOF
