  0
SECTION
  2
HEADER
  9
$ANGBASE
  50
0.0
  9
$ANGDIR
  70
1
  9
$MEASUREMENT
  70
0
  0
ENDSEC
  0
SECTION
  2
TABLES
  0
TABLE
  2
LTYPE
  70
4
  0
LTYPE
  5
40F
  2
CONTINUOUS
  70
0
  3
Solid line
  72
65
  73
0
  40
0.0
  0
LTYPE
  5
410
  2
DASHDOT
 70
0
  3
Dash Dot ____ _ ____ _
 72
65
 73
4
 40
2.0
 49
1.25
 49
-0.25
 49
0.25
 49
-0.25
  0
LTYPE
  5
411
  2
DASHED
 70
0
  3
Dashed __ __ __ __ __
 72
65
 73
2
 40
0.75
 49
0.5
 49
-0.25
  0
LTYPE
  5
43B
  2
DOTTED
 70
0
  3
Dotted .  .  .  .
 72
65
 73
2
 40
0.2
 49
0.0
 49
-0.2
  0
ENDTAB
  0
TABLE
  2
STYLE
  70
4
  0
STYLE
  2
KICAD
  70
0
  40
0
  41
1
  42
1
  50
0
  71
0
  3
isocp.shx
  0
STYLE
  2
KICADB
  70
0
  40
0
  41
1
  42
1
  50
0
  71
0
  3
isocp.shx
  0
STYLE
  2
KICADI
  70
0
  40
0
  41
1
  42
1
  50
15
  71
0
  3
isocp.shx
  0
STYLE
  2
KICADBI
  70
0
  40
0
  41
1
  42
1
  50
15
  71
0
  3
isocp.shx
  0
ENDTAB
  0
TABLE
  2
LAYER
  70
1
  0
LAYER
  2
BLACK
  70
0
  62
7
  6
CONTINUOUS
  0
ENDTAB
  0
ENDSEC
  0
SECTION
  2
ENTITIES
0
LINE
8
BLACK
6
CONTINUOUS
10
5.8545
20
-5.54437
11
5.85951
21
-5.54644
0
LINE
8
BLACK
6
CONTINUOUS
10
5.85951
20
-5.54644
11
5.86402
21
-5.54946
0
LINE
8
BLACK
6
CONTINUOUS
10
5.86402
20
-5.54946
11
5.86786
21
-5.5533
0
LINE
8
BLACK
6
CONTINUOUS
10
5.86786
20
-5.5533
11
5.87088
21
-5.55781
0
LINE
8
BLACK
6
CONTINUOUS
10
5.87088
20
-5.55781
11
5.87296
21
-5.56283
0
LINE
8
BLACK
6
CONTINUOUS
10
5.87296
20
-5.56283
11
5.87402
21
-5.56815
0
LINE
8
BLACK
6
CONTINUOUS
10
5.87402
20
-5.56815
11
5.87402
21
-5.57358
0
LINE
8
BLACK
6
CONTINUOUS
10
5.87402
20
-5.57358
11
5.87296
21
-5.5789
0
LINE
8
BLACK
6
CONTINUOUS
10
5.87296
20
-5.5789
11
5.87088
21
-5.58392
0
LINE
8
BLACK
6
CONTINUOUS
10
5.87088
20
-5.58392
11
5.86786
21
-5.58843
0
LINE
8
BLACK
6
CONTINUOUS
10
5.86786
20
-5.58843
11
5.86402
21
-5.59227
0
LINE
8
BLACK
6
CONTINUOUS
10
5.86402
20
-5.59227
11
5.85951
21
-5.59529
0
LINE
8
BLACK
6
CONTINUOUS
10
5.85951
20
-5.59529
11
5.8545
21
-5.59737
0
LINE
8
BLACK
6
CONTINUOUS
10
5.8545
20
-5.59737
11
5.84917
21
-5.59843
0
LINE
8
BLACK
6
CONTINUOUS
10
5.84917
20
-5.59843
11
5.84374
21
-5.59843
0
LINE
8
BLACK
6
CONTINUOUS
10
5.84374
20
-5.59843
11
5.83842
21
-5.59737
0
LINE
8
BLACK
6
CONTINUOUS
10
5.83842
20
-5.59737
11
5.8334
21
-5.59529
0
LINE
8
BLACK
6
CONTINUOUS
10
5.8334
20
-5.59529
11
5.82889
21
-5.59227
0
LINE
8
BLACK
6
CONTINUOUS
10
5.82889
20
-5.59227
11
5.82505
21
-5.58843
0
LINE
8
BLACK
6
CONTINUOUS
10
5.82505
20
-5.58843
11
5.82203
21
-5.58392
0
LINE
8
BLACK
6
CONTINUOUS
10
5.82203
20
-5.58392
11
5.81996
21
-5.5789
0
LINE
8
BLACK
6
CONTINUOUS
10
5.81996
20
-5.5789
11
5.8189
21
-5.57358
0
LINE
8
BLACK
6
CONTINUOUS
10
5.8189
20
-5.57358
11
5.8189
21
-5.56815
0
LINE
8
BLACK
6
CONTINUOUS
10
5.8189
20
-5.56815
11
5.81996
21
-5.56283
0
LINE
8
BLACK
6
CONTINUOUS
10
5.81996
20
-5.56283
11
5.82203
21
-5.55781
0
LINE
8
BLACK
6
CONTINUOUS
10
5.82203
20
-5.55781
11
5.82505
21
-5.5533
0
LINE
8
BLACK
6
CONTINUOUS
10
5.82505
20
-5.5533
11
5.82889
21
-5.54946
0
LINE
8
BLACK
6
CONTINUOUS
10
5.82889
20
-5.54946
11
5.8334
21
-5.54644
0
LINE
8
BLACK
6
CONTINUOUS
10
5.8334
20
-5.54644
11
5.83842
21
-5.54437
0
LINE
8
BLACK
6
CONTINUOUS
10
5.83842
20
-5.54437
11
5.84374
21
-5.54331
0
LINE
8
BLACK
6
CONTINUOUS
10
5.84374
20
-5.54331
11
5.84917
21
-5.54331
0
LINE
8
BLACK
6
CONTINUOUS
10
5.84917
20
-5.54331
11
5.8545
21
-5.54437
0
LINE
8
BLACK
6
CONTINUOUS
10
6.00679
20
-5.43837
11
6.01324
21
-5.44104
0
LINE
8
BLACK
6
CONTINUOUS
10
6.01324
20
-5.44104
11
6.01904
21
-5.44492
0
LINE
8
BLACK
6
CONTINUOUS
10
6.01904
20
-5.44492
11
6.02398
21
-5.44985
0
LINE
8
BLACK
6
CONTINUOUS
10
6.02398
20
-5.44985
11
6.02786
21
-5.45566
0
LINE
8
BLACK
6
CONTINUOUS
10
6.02786
20
-5.45566
11
6.03053
21
-5.46211
0
LINE
8
BLACK
6
CONTINUOUS
10
6.03053
20
-5.46211
11
6.03189
21
-5.46895
0
LINE
8
BLACK
6
CONTINUOUS
10
6.03189
20
-5.46895
11
6.03189
21
-5.47593
0
LINE
8
BLACK
6
CONTINUOUS
10
6.03189
20
-5.47593
11
6.03053
21
-5.48278
0
LINE
8
BLACK
6
CONTINUOUS
10
6.03053
20
-5.48278
11
6.02786
21
-5.48922
0
LINE
8
BLACK
6
CONTINUOUS
10
6.02786
20
-5.48922
11
6.02398
21
-5.49503
0
LINE
8
BLACK
6
CONTINUOUS
10
6.02398
20
-5.49503
11
6.01904
21
-5.49996
0
LINE
8
BLACK
6
CONTINUOUS
10
6.01904
20
-5.49996
11
6.01324
21
-5.50384
0
LINE
8
BLACK
6
CONTINUOUS
10
6.01324
20
-5.50384
11
6.00679
21
-5.50651
0
LINE
8
BLACK
6
CONTINUOUS
10
6.00679
20
-5.50651
11
5.99995
21
-5.50787
0
LINE
8
BLACK
6
CONTINUOUS
10
5.99995
20
-5.50787
11
5.99297
21
-5.50787
0
LINE
8
BLACK
6
CONTINUOUS
10
5.99297
20
-5.50787
11
5.98612
21
-5.50651
0
LINE
8
BLACK
6
CONTINUOUS
10
5.98612
20
-5.50651
11
5.97967
21
-5.50384
0
LINE
8
BLACK
6
CONTINUOUS
10
5.97967
20
-5.50384
11
5.97387
21
-5.49996
0
LINE
8
BLACK
6
CONTINUOUS
10
5.97387
20
-5.49996
11
5.96893
21
-5.49503
0
LINE
8
BLACK
6
CONTINUOUS
10
5.96893
20
-5.49503
11
5.96506
21
-5.48922
0
LINE
8
BLACK
6
CONTINUOUS
10
5.96506
20
-5.48922
11
5.96239
21
-5.48278
0
LINE
8
BLACK
6
CONTINUOUS
10
5.96239
20
-5.48278
11
5.96102
21
-5.47593
0
LINE
8
BLACK
6
CONTINUOUS
10
5.96102
20
-5.47593
11
5.96102
21
-5.46895
0
LINE
8
BLACK
6
CONTINUOUS
10
5.96102
20
-5.46895
11
5.96239
21
-5.46211
0
LINE
8
BLACK
6
CONTINUOUS
10
5.96239
20
-5.46211
11
5.96506
21
-5.45566
0
LINE
8
BLACK
6
CONTINUOUS
10
5.96506
20
-5.45566
11
5.96893
21
-5.44985
0
LINE
8
BLACK
6
CONTINUOUS
10
5.96893
20
-5.44985
11
5.97387
21
-5.44492
0
LINE
8
BLACK
6
CONTINUOUS
10
5.97387
20
-5.44492
11
5.97967
21
-5.44104
0
LINE
8
BLACK
6
CONTINUOUS
10
5.97967
20
-5.44104
11
5.98612
21
-5.43837
0
LINE
8
BLACK
6
CONTINUOUS
10
5.98612
20
-5.43837
11
5.99297
21
-5.43701
0
LINE
8
BLACK
6
CONTINUOUS
10
5.99297
20
-5.43701
11
5.99995
21
-5.43701
0
LINE
8
BLACK
6
CONTINUOUS
10
5.99995
20
-5.43701
11
6.00679
21
-5.43837
0
LINE
8
BLACK
6
CONTINUOUS
10
5.70679
20
-5.43837
11
5.71324
21
-5.44104
0
LINE
8
BLACK
6
CONTINUOUS
10
5.71324
20
-5.44104
11
5.71904
21
-5.44492
0
LINE
8
BLACK
6
CONTINUOUS
10
5.71904
20
-5.44492
11
5.72398
21
-5.44985
0
LINE
8
BLACK
6
CONTINUOUS
10
5.72398
20
-5.44985
11
5.72786
21
-5.45566
0
LINE
8
BLACK
6
CONTINUOUS
10
5.72786
20
-5.45566
11
5.73053
21
-5.46211
0
LINE
8
BLACK
6
CONTINUOUS
10
5.73053
20
-5.46211
11
5.73189
21
-5.46895
0
LINE
8
BLACK
6
CONTINUOUS
10
5.73189
20
-5.46895
11
5.73189
21
-5.47593
0
LINE
8
BLACK
6
CONTINUOUS
10
5.73189
20
-5.47593
11
5.73053
21
-5.48278
0
LINE
8
BLACK
6
CONTINUOUS
10
5.73053
20
-5.48278
11
5.72786
21
-5.48922
0
LINE
8
BLACK
6
CONTINUOUS
10
5.72786
20
-5.48922
11
5.72398
21
-5.49503
0
LINE
8
BLACK
6
CONTINUOUS
10
5.72398
20
-5.49503
11
5.71904
21
-5.49996
0
LINE
8
BLACK
6
CONTINUOUS
10
5.71904
20
-5.49996
11
5.71324
21
-5.50384
0
LINE
8
BLACK
6
CONTINUOUS
10
5.71324
20
-5.50384
11
5.70679
21
-5.50651
0
LINE
8
BLACK
6
CONTINUOUS
10
5.70679
20
-5.50651
11
5.69995
21
-5.50787
0
LINE
8
BLACK
6
CONTINUOUS
10
5.69995
20
-5.50787
11
5.69297
21
-5.50787
0
LINE
8
BLACK
6
CONTINUOUS
10
5.69297
20
-5.50787
11
5.68612
21
-5.50651
0
LINE
8
BLACK
6
CONTINUOUS
10
5.68612
20
-5.50651
11
5.67967
21
-5.50384
0
LINE
8
BLACK
6
CONTINUOUS
10
5.67967
20
-5.50384
11
5.67387
21
-5.49996
0
LINE
8
BLACK
6
CONTINUOUS
10
5.67387
20
-5.49996
11
5.66893
21
-5.49503
0
LINE
8
BLACK
6
CONTINUOUS
10
5.66893
20
-5.49503
11
5.66506
21
-5.48922
0
LINE
8
BLACK
6
CONTINUOUS
10
5.66506
20
-5.48922
11
5.66239
21
-5.48278
0
LINE
8
BLACK
6
CONTINUOUS
10
5.66239
20
-5.48278
11
5.66102
21
-5.47593
0
LINE
8
BLACK
6
CONTINUOUS
10
5.66102
20
-5.47593
11
5.66102
21
-5.46895
0
LINE
8
BLACK
6
CONTINUOUS
10
5.66102
20
-5.46895
11
5.66239
21
-5.46211
0
LINE
8
BLACK
6
CONTINUOUS
10
5.66239
20
-5.46211
11
5.66506
21
-5.45566
0
LINE
8
BLACK
6
CONTINUOUS
10
5.66506
20
-5.45566
11
5.66893
21
-5.44985
0
LINE
8
BLACK
6
CONTINUOUS
10
5.66893
20
-5.44985
11
5.67387
21
-5.44492
0
LINE
8
BLACK
6
CONTINUOUS
10
5.67387
20
-5.44492
11
5.67967
21
-5.44104
0
LINE
8
BLACK
6
CONTINUOUS
10
5.67967
20
-5.44104
11
5.68612
21
-5.43837
0
LINE
8
BLACK
6
CONTINUOUS
10
5.68612
20
-5.43837
11
5.69297
21
-5.43701
0
LINE
8
BLACK
6
CONTINUOUS
10
5.69297
20
-5.43701
11
5.69995
21
-5.43701
0
LINE
8
BLACK
6
CONTINUOUS
10
5.69995
20
-5.43701
11
5.70679
21
-5.43837
0
LINE
8
BLACK
6
CONTINUOUS
10
5.82874
20
-5.50098
11
5.78937
21
-5.50098
0
LINE
8
BLACK
6
CONTINUOUS
10
5.78937
20
-5.50098
11
5.78937
21
-5.4439
0
LINE
8
BLACK
6
CONTINUOUS
10
5.78937
20
-5.4439
11
5.82874
21
-5.4439
0
LINE
8
BLACK
6
CONTINUOUS
10
5.82874
20
-5.4439
11
5.82874
21
-5.50098
0
LINE
8
BLACK
6
CONTINUOUS
10
5.90354
20
-5.50098
11
5.86417
21
-5.50098
0
LINE
8
BLACK
6
CONTINUOUS
10
5.86417
20
-5.50098
11
5.86417
21
-5.4439
0
LINE
8
BLACK
6
CONTINUOUS
10
5.86417
20
-5.4439
11
5.90354
21
-5.4439
0
LINE
8
BLACK
6
CONTINUOUS
10
5.90354
20
-5.4439
11
5.90354
21
-5.50098
0
LINE
8
BLACK
6
CONTINUOUS
10
6.00679
20
-5.32026
11
6.01324
21
-5.32293
0
LINE
8
BLACK
6
CONTINUOUS
10
6.01324
20
-5.32293
11
6.01904
21
-5.32681
0
LINE
8
BLACK
6
CONTINUOUS
10
6.01904
20
-5.32681
11
6.02398
21
-5.33174
0
LINE
8
BLACK
6
CONTINUOUS
10
6.02398
20
-5.33174
11
6.02786
21
-5.33755
0
LINE
8
BLACK
6
CONTINUOUS
10
6.02786
20
-5.33755
11
6.03053
21
-5.344
0
LINE
8
BLACK
6
CONTINUOUS
10
6.03053
20
-5.344
11
6.03189
21
-5.35084
0
LINE
8
BLACK
6
CONTINUOUS
10
6.03189
20
-5.35084
11
6.03189
21
-5.35782
0
LINE
8
BLACK
6
CONTINUOUS
10
6.03189
20
-5.35782
11
6.03053
21
-5.36467
0
LINE
8
BLACK
6
CONTINUOUS
10
6.03053
20
-5.36467
11
6.02786
21
-5.37111
0
LINE
8
BLACK
6
CONTINUOUS
10
6.02786
20
-5.37111
11
6.02398
21
-5.37692
0
LINE
8
BLACK
6
CONTINUOUS
10
6.02398
20
-5.37692
11
6.01904
21
-5.38185
0
LINE
8
BLACK
6
CONTINUOUS
10
6.01904
20
-5.38185
11
6.01324
21
-5.38573
0
LINE
8
BLACK
6
CONTINUOUS
10
6.01324
20
-5.38573
11
6.00679
21
-5.3884
0
LINE
8
BLACK
6
CONTINUOUS
10
6.00679
20
-5.3884
11
5.99995
21
-5.38976
0
LINE
8
BLACK
6
CONTINUOUS
10
5.99995
20
-5.38976
11
5.99297
21
-5.38976
0
LINE
8
BLACK
6
CONTINUOUS
10
5.99297
20
-5.38976
11
5.98612
21
-5.3884
0
LINE
8
BLACK
6
CONTINUOUS
10
5.98612
20
-5.3884
11
5.97967
21
-5.38573
0
LINE
8
BLACK
6
CONTINUOUS
10
5.97967
20
-5.38573
11
5.97387
21
-5.38185
0
LINE
8
BLACK
6
CONTINUOUS
10
5.97387
20
-5.38185
11
5.96893
21
-5.37692
0
LINE
8
BLACK
6
CONTINUOUS
10
5.96893
20
-5.37692
11
5.96506
21
-5.37111
0
LINE
8
BLACK
6
CONTINUOUS
10
5.96506
20
-5.37111
11
5.96239
21
-5.36467
0
LINE
8
BLACK
6
CONTINUOUS
10
5.96239
20
-5.36467
11
5.96102
21
-5.35782
0
LINE
8
BLACK
6
CONTINUOUS
10
5.96102
20
-5.35782
11
5.96102
21
-5.35084
0
LINE
8
BLACK
6
CONTINUOUS
10
5.96102
20
-5.35084
11
5.96239
21
-5.344
0
LINE
8
BLACK
6
CONTINUOUS
10
5.96239
20
-5.344
11
5.96506
21
-5.33755
0
LINE
8
BLACK
6
CONTINUOUS
10
5.96506
20
-5.33755
11
5.96893
21
-5.33174
0
LINE
8
BLACK
6
CONTINUOUS
10
5.96893
20
-5.33174
11
5.97387
21
-5.32681
0
LINE
8
BLACK
6
CONTINUOUS
10
5.97387
20
-5.32681
11
5.97967
21
-5.32293
0
LINE
8
BLACK
6
CONTINUOUS
10
5.97967
20
-5.32293
11
5.98612
21
-5.32026
0
LINE
8
BLACK
6
CONTINUOUS
10
5.98612
20
-5.32026
11
5.99297
21
-5.3189
0
LINE
8
BLACK
6
CONTINUOUS
10
5.99297
20
-5.3189
11
5.99995
21
-5.3189
0
LINE
8
BLACK
6
CONTINUOUS
10
5.99995
20
-5.3189
11
6.00679
21
-5.32026
0
LINE
8
BLACK
6
CONTINUOUS
10
5.70679
20
-5.32026
11
5.71324
21
-5.32293
0
LINE
8
BLACK
6
CONTINUOUS
10
5.71324
20
-5.32293
11
5.71904
21
-5.32681
0
LINE
8
BLACK
6
CONTINUOUS
10
5.71904
20
-5.32681
11
5.72398
21
-5.33174
0
LINE
8
BLACK
6
CONTINUOUS
10
5.72398
20
-5.33174
11
5.72786
21
-5.33755
0
LINE
8
BLACK
6
CONTINUOUS
10
5.72786
20
-5.33755
11
5.73053
21
-5.344
0
LINE
8
BLACK
6
CONTINUOUS
10
5.73053
20
-5.344
11
5.73189
21
-5.35084
0
LINE
8
BLACK
6
CONTINUOUS
10
5.73189
20
-5.35084
11
5.73189
21
-5.35782
0
LINE
8
BLACK
6
CONTINUOUS
10
5.73189
20
-5.35782
11
5.73053
21
-5.36467
0
LINE
8
BLACK
6
CONTINUOUS
10
5.73053
20
-5.36467
11
5.72786
21
-5.37111
0
LINE
8
BLACK
6
CONTINUOUS
10
5.72786
20
-5.37111
11
5.72398
21
-5.37692
0
LINE
8
BLACK
6
CONTINUOUS
10
5.72398
20
-5.37692
11
5.71904
21
-5.38185
0
LINE
8
BLACK
6
CONTINUOUS
10
5.71904
20
-5.38185
11
5.71324
21
-5.38573
0
LINE
8
BLACK
6
CONTINUOUS
10
5.71324
20
-5.38573
11
5.70679
21
-5.3884
0
LINE
8
BLACK
6
CONTINUOUS
10
5.70679
20
-5.3884
11
5.69995
21
-5.38976
0
LINE
8
BLACK
6
CONTINUOUS
10
5.69995
20
-5.38976
11
5.69297
21
-5.38976
0
LINE
8
BLACK
6
CONTINUOUS
10
5.69297
20
-5.38976
11
5.68612
21
-5.3884
0
LINE
8
BLACK
6
CONTINUOUS
10
5.68612
20
-5.3884
11
5.67967
21
-5.38573
0
LINE
8
BLACK
6
CONTINUOUS
10
5.67967
20
-5.38573
11
5.67387
21
-5.38185
0
LINE
8
BLACK
6
CONTINUOUS
10
5.67387
20
-5.38185
11
5.66893
21
-5.37692
0
LINE
8
BLACK
6
CONTINUOUS
10
5.66893
20
-5.37692
11
5.66506
21
-5.37111
0
LINE
8
BLACK
6
CONTINUOUS
10
5.66506
20
-5.37111
11
5.66239
21
-5.36467
0
LINE
8
BLACK
6
CONTINUOUS
10
5.66239
20
-5.36467
11
5.66102
21
-5.35782
0
LINE
8
BLACK
6
CONTINUOUS
10
5.66102
20
-5.35782
11
5.66102
21
-5.35084
0
LINE
8
BLACK
6
CONTINUOUS
10
5.66102
20
-5.35084
11
5.66239
21
-5.344
0
LINE
8
BLACK
6
CONTINUOUS
10
5.66239
20
-5.344
11
5.66506
21
-5.33755
0
LINE
8
BLACK
6
CONTINUOUS
10
5.66506
20
-5.33755
11
5.66893
21
-5.33174
0
LINE
8
BLACK
6
CONTINUOUS
10
5.66893
20
-5.33174
11
5.67387
21
-5.32681
0
LINE
8
BLACK
6
CONTINUOUS
10
5.67387
20
-5.32681
11
5.67967
21
-5.32293
0
LINE
8
BLACK
6
CONTINUOUS
10
5.67967
20
-5.32293
11
5.68612
21
-5.32026
0
LINE
8
BLACK
6
CONTINUOUS
10
5.68612
20
-5.32026
11
5.69297
21
-5.3189
0
LINE
8
BLACK
6
CONTINUOUS
10
5.69297
20
-5.3189
11
5.69995
21
-5.3189
0
LINE
8
BLACK
6
CONTINUOUS
10
5.69995
20
-5.3189
11
5.70679
21
-5.32026
0
LINE
8
BLACK
6
CONTINUOUS
10
5.90354
20
-5.38287
11
5.86417
21
-5.38287
0
LINE
8
BLACK
6
CONTINUOUS
10
5.86417
20
-5.38287
11
5.86417
21
-5.32579
0
LINE
8
BLACK
6
CONTINUOUS
10
5.86417
20
-5.32579
11
5.90354
21
-5.32579
0
LINE
8
BLACK
6
CONTINUOUS
10
5.90354
20
-5.32579
11
5.90354
21
-5.38287
0
LINE
8
BLACK
6
CONTINUOUS
10
5.82874
20
-5.38287
11
5.78937
21
-5.38287
0
LINE
8
BLACK
6
CONTINUOUS
10
5.78937
20
-5.38287
11
5.78937
21
-5.32579
0
LINE
8
BLACK
6
CONTINUOUS
10
5.78937
20
-5.32579
11
5.82874
21
-5.32579
0
LINE
8
BLACK
6
CONTINUOUS
10
5.82874
20
-5.32579
11
5.82874
21
-5.38287
0
LINE
8
BLACK
6
CONTINUOUS
10
5.59912
20
-5.19798
11
5.60357
21
-5.19933
0
LINE
8
BLACK
6
CONTINUOUS
10
5.60357
20
-5.19933
11
5.60768
21
-5.20152
0
LINE
8
BLACK
6
CONTINUOUS
10
5.60768
20
-5.20152
11
5.61127
21
-5.20448
0
LINE
8
BLACK
6
CONTINUOUS
10
5.61127
20
-5.20448
11
5.61422
21
-5.20807
0
LINE
8
BLACK
6
CONTINUOUS
10
5.61422
20
-5.20807
11
5.61642
21
-5.21218
0
LINE
8
BLACK
6
CONTINUOUS
10
5.61642
20
-5.21218
11
5.61777
21
-5.21663
0
LINE
8
BLACK
6
CONTINUOUS
10
5.61777
20
-5.21663
11
5.61822
21
-5.22126
0
LINE
8
BLACK
6
CONTINUOUS
10
5.61822
20
-5.22126
11
5.61777
21
-5.22589
0
LINE
8
BLACK
6
CONTINUOUS
10
5.61777
20
-5.22589
11
5.61642
21
-5.23034
0
LINE
8
BLACK
6
CONTINUOUS
10
5.61642
20
-5.23034
11
5.61422
21
-5.23445
0
LINE
8
BLACK
6
CONTINUOUS
10
5.61422
20
-5.23445
11
5.61127
21
-5.23804
0
LINE
8
BLACK
6
CONTINUOUS
10
5.61127
20
-5.23804
11
5.60768
21
-5.241
0
LINE
8
BLACK
6
CONTINUOUS
10
5.60768
20
-5.241
11
5.60357
21
-5.24319
0
LINE
8
BLACK
6
CONTINUOUS
10
5.60357
20
-5.24319
11
5.59912
21
-5.24454
0
LINE
8
BLACK
6
CONTINUOUS
10
5.59912
20
-5.24454
11
5.59565
21
-5.24488
0
LINE
8
BLACK
6
CONTINUOUS
10
5.59565
20
-5.24488
11
5.54608
21
-5.24488
0
LINE
8
BLACK
6
CONTINUOUS
10
5.54608
20
-5.24488
11
5.54261
21
-5.24454
0
LINE
8
BLACK
6
CONTINUOUS
10
5.54261
20
-5.24454
11
5.53816
21
-5.24319
0
LINE
8
BLACK
6
CONTINUOUS
10
5.53816
20
-5.24319
11
5.53406
21
-5.241
0
LINE
8
BLACK
6
CONTINUOUS
10
5.53406
20
-5.241
11
5.53046
21
-5.23804
0
LINE
8
BLACK
6
CONTINUOUS
10
5.53046
20
-5.23804
11
5.52751
21
-5.23445
0
LINE
8
BLACK
6
CONTINUOUS
10
5.52751
20
-5.23445
11
5.52531
21
-5.23034
0
LINE
8
BLACK
6
CONTINUOUS
10
5.52531
20
-5.23034
11
5.52396
21
-5.22589
0
LINE
8
BLACK
6
CONTINUOUS
10
5.52396
20
-5.22589
11
5.52351
21
-5.22126
0
LINE
8
BLACK
6
CONTINUOUS
10
5.52351
20
-5.22126
11
5.52396
21
-5.21663
0
LINE
8
BLACK
6
CONTINUOUS
10
5.52396
20
-5.21663
11
5.52531
21
-5.21218
0
LINE
8
BLACK
6
CONTINUOUS
10
5.52531
20
-5.21218
11
5.52751
21
-5.20807
0
LINE
8
BLACK
6
CONTINUOUS
10
5.52751
20
-5.20807
11
5.53046
21
-5.20448
0
LINE
8
BLACK
6
CONTINUOUS
10
5.53046
20
-5.20448
11
5.53406
21
-5.20152
0
LINE
8
BLACK
6
CONTINUOUS
10
5.53406
20
-5.20152
11
5.53816
21
-5.19933
0
LINE
8
BLACK
6
CONTINUOUS
10
5.53816
20
-5.19933
11
5.54261
21
-5.19798
0
LINE
8
BLACK
6
CONTINUOUS
10
5.54261
20
-5.19798
11
5.54608
21
-5.19764
0
LINE
8
BLACK
6
CONTINUOUS
10
5.54608
20
-5.19764
11
5.59565
21
-5.19764
0
LINE
8
BLACK
6
CONTINUOUS
10
5.59565
20
-5.19764
11
5.59912
21
-5.19798
0
LINE
8
BLACK
6
CONTINUOUS
10
5.72471
20
-5.19798
11
5.72916
21
-5.19933
0
LINE
8
BLACK
6
CONTINUOUS
10
5.72916
20
-5.19933
11
5.73327
21
-5.20152
0
LINE
8
BLACK
6
CONTINUOUS
10
5.73327
20
-5.20152
11
5.73686
21
-5.20448
0
LINE
8
BLACK
6
CONTINUOUS
10
5.73686
20
-5.20448
11
5.73981
21
-5.20807
0
LINE
8
BLACK
6
CONTINUOUS
10
5.73981
20
-5.20807
11
5.74201
21
-5.21218
0
LINE
8
BLACK
6
CONTINUOUS
10
5.74201
20
-5.21218
11
5.74336
21
-5.21663
0
LINE
8
BLACK
6
CONTINUOUS
10
5.74336
20
-5.21663
11
5.74382
21
-5.22126
0
LINE
8
BLACK
6
CONTINUOUS
10
5.74382
20
-5.22126
11
5.74336
21
-5.22589
0
LINE
8
BLACK
6
CONTINUOUS
10
5.74336
20
-5.22589
11
5.74201
21
-5.23034
0
LINE
8
BLACK
6
CONTINUOUS
10
5.74201
20
-5.23034
11
5.73981
21
-5.23445
0
LINE
8
BLACK
6
CONTINUOUS
10
5.73981
20
-5.23445
11
5.73686
21
-5.23804
0
LINE
8
BLACK
6
CONTINUOUS
10
5.73686
20
-5.23804
11
5.73327
21
-5.241
0
LINE
8
BLACK
6
CONTINUOUS
10
5.73327
20
-5.241
11
5.72916
21
-5.24319
0
LINE
8
BLACK
6
CONTINUOUS
10
5.72916
20
-5.24319
11
5.72471
21
-5.24454
0
LINE
8
BLACK
6
CONTINUOUS
10
5.72471
20
-5.24454
11
5.72124
21
-5.24488
0
LINE
8
BLACK
6
CONTINUOUS
10
5.72124
20
-5.24488
11
5.67167
21
-5.24488
0
LINE
8
BLACK
6
CONTINUOUS
10
5.67167
20
-5.24488
11
5.6682
21
-5.24454
0
LINE
8
BLACK
6
CONTINUOUS
10
5.6682
20
-5.24454
11
5.66375
21
-5.24319
0
LINE
8
BLACK
6
CONTINUOUS
10
5.66375
20
-5.24319
11
5.65965
21
-5.241
0
LINE
8
BLACK
6
CONTINUOUS
10
5.65965
20
-5.241
11
5.65605
21
-5.23804
0
LINE
8
BLACK
6
CONTINUOUS
10
5.65605
20
-5.23804
11
5.6531
21
-5.23445
0
LINE
8
BLACK
6
CONTINUOUS
10
5.6531
20
-5.23445
11
5.65091
21
-5.23034
0
LINE
8
BLACK
6
CONTINUOUS
10
5.65091
20
-5.23034
11
5.64955
21
-5.22589
0
LINE
8
BLACK
6
CONTINUOUS
10
5.64955
20
-5.22589
11
5.6491
21
-5.22126
0
LINE
8
BLACK
6
CONTINUOUS
10
5.6491
20
-5.22126
11
5.64955
21
-5.21663
0
LINE
8
BLACK
6
CONTINUOUS
10
5.64955
20
-5.21663
11
5.65091
21
-5.21218
0
LINE
8
BLACK
6
CONTINUOUS
10
5.65091
20
-5.21218
11
5.6531
21
-5.20807
0
LINE
8
BLACK
6
CONTINUOUS
10
5.6531
20
-5.20807
11
5.65605
21
-5.20448
0
LINE
8
BLACK
6
CONTINUOUS
10
5.65605
20
-5.20448
11
5.65965
21
-5.20152
0
LINE
8
BLACK
6
CONTINUOUS
10
5.65965
20
-5.20152
11
5.66375
21
-5.19933
0
LINE
8
BLACK
6
CONTINUOUS
10
5.66375
20
-5.19933
11
5.6682
21
-5.19798
0
LINE
8
BLACK
6
CONTINUOUS
10
5.6682
20
-5.19798
11
5.67167
21
-5.19764
0
LINE
8
BLACK
6
CONTINUOUS
10
5.67167
20
-5.19764
11
5.72124
21
-5.19764
0
LINE
8
BLACK
6
CONTINUOUS
10
5.72124
20
-5.19764
11
5.72471
21
-5.19798
0
LINE
8
BLACK
6
CONTINUOUS
10
6.02471
20
-5.19798
11
6.02916
21
-5.19933
0
LINE
8
BLACK
6
CONTINUOUS
10
6.02916
20
-5.19933
11
6.03327
21
-5.20152
0
LINE
8
BLACK
6
CONTINUOUS
10
6.03327
20
-5.20152
11
6.03686
21
-5.20448
0
LINE
8
BLACK
6
CONTINUOUS
10
6.03686
20
-5.20448
11
6.03981
21
-5.20807
0
LINE
8
BLACK
6
CONTINUOUS
10
6.03981
20
-5.20807
11
6.04201
21
-5.21218
0
LINE
8
BLACK
6
CONTINUOUS
10
6.04201
20
-5.21218
11
6.04336
21
-5.21663
0
LINE
8
BLACK
6
CONTINUOUS
10
6.04336
20
-5.21663
11
6.04382
21
-5.22126
0
LINE
8
BLACK
6
CONTINUOUS
10
6.04382
20
-5.22126
11
6.04336
21
-5.22589
0
LINE
8
BLACK
6
CONTINUOUS
10
6.04336
20
-5.22589
11
6.04201
21
-5.23034
0
LINE
8
BLACK
6
CONTINUOUS
10
6.04201
20
-5.23034
11
6.03981
21
-5.23445
0
LINE
8
BLACK
6
CONTINUOUS
10
6.03981
20
-5.23445
11
6.03686
21
-5.23804
0
LINE
8
BLACK
6
CONTINUOUS
10
6.03686
20
-5.23804
11
6.03327
21
-5.241
0
LINE
8
BLACK
6
CONTINUOUS
10
6.03327
20
-5.241
11
6.02916
21
-5.24319
0
LINE
8
BLACK
6
CONTINUOUS
10
6.02916
20
-5.24319
11
6.02471
21
-5.24454
0
LINE
8
BLACK
6
CONTINUOUS
10
6.02471
20
-5.24454
11
6.02124
21
-5.24488
0
LINE
8
BLACK
6
CONTINUOUS
10
6.02124
20
-5.24488
11
5.97167
21
-5.24488
0
LINE
8
BLACK
6
CONTINUOUS
10
5.97167
20
-5.24488
11
5.9682
21
-5.24454
0
LINE
8
BLACK
6
CONTINUOUS
10
5.9682
20
-5.24454
11
5.96375
21
-5.24319
0
LINE
8
BLACK
6
CONTINUOUS
10
5.96375
20
-5.24319
11
5.95965
21
-5.241
0
LINE
8
BLACK
6
CONTINUOUS
10
5.95965
20
-5.241
11
5.95605
21
-5.23804
0
LINE
8
BLACK
6
CONTINUOUS
10
5.95605
20
-5.23804
11
5.9531
21
-5.23445
0
LINE
8
BLACK
6
CONTINUOUS
10
5.9531
20
-5.23445
11
5.95091
21
-5.23034
0
LINE
8
BLACK
6
CONTINUOUS
10
5.95091
20
-5.23034
11
5.94955
21
-5.22589
0
LINE
8
BLACK
6
CONTINUOUS
10
5.94955
20
-5.22589
11
5.9491
21
-5.22126
0
LINE
8
BLACK
6
CONTINUOUS
10
5.9491
20
-5.22126
11
5.94955
21
-5.21663
0
LINE
8
BLACK
6
CONTINUOUS
10
5.94955
20
-5.21663
11
5.95091
21
-5.21218
0
LINE
8
BLACK
6
CONTINUOUS
10
5.95091
20
-5.21218
11
5.9531
21
-5.20807
0
LINE
8
BLACK
6
CONTINUOUS
10
5.9531
20
-5.20807
11
5.95605
21
-5.20448
0
LINE
8
BLACK
6
CONTINUOUS
10
5.95605
20
-5.20448
11
5.95965
21
-5.20152
0
LINE
8
BLACK
6
CONTINUOUS
10
5.95965
20
-5.20152
11
5.96375
21
-5.19933
0
LINE
8
BLACK
6
CONTINUOUS
10
5.96375
20
-5.19933
11
5.9682
21
-5.19798
0
LINE
8
BLACK
6
CONTINUOUS
10
5.9682
20
-5.19798
11
5.97167
21
-5.19764
0
LINE
8
BLACK
6
CONTINUOUS
10
5.97167
20
-5.19764
11
6.02124
21
-5.19764
0
LINE
8
BLACK
6
CONTINUOUS
10
6.02124
20
-5.19764
11
6.02471
21
-5.19798
0
LINE
8
BLACK
6
CONTINUOUS
10
6.14636
20
-5.07121
11
6.15082
21
-5.07256
0
LINE
8
BLACK
6
CONTINUOUS
10
6.15082
20
-5.07256
11
6.15492
21
-5.07475
0
LINE
8
BLACK
6
CONTINUOUS
10
6.15492
20
-5.07475
11
6.15852
21
-5.0777
0
LINE
8
BLACK
6
CONTINUOUS
10
6.15852
20
-5.0777
11
6.16147
21
-5.0813
0
LINE
8
BLACK
6
CONTINUOUS
10
6.16147
20
-5.0813
11
6.16366
21
-5.0854
0
LINE
8
BLACK
6
CONTINUOUS
10
6.16366
20
-5.0854
11
6.16501
21
-5.08986
0
LINE
8
BLACK
6
CONTINUOUS
10
6.16501
20
-5.08986
11
6.16535
21
-5.09333
0
LINE
8
BLACK
6
CONTINUOUS
10
6.16535
20
-5.09333
11
6.16535
21
-5.14289
0
LINE
8
BLACK
6
CONTINUOUS
10
6.16535
20
-5.14289
11
6.16501
21
-5.14636
0
LINE
8
BLACK
6
CONTINUOUS
10
6.16501
20
-5.14636
11
6.16366
21
-5.15082
0
LINE
8
BLACK
6
CONTINUOUS
10
6.16366
20
-5.15082
11
6.16147
21
-5.15492
0
LINE
8
BLACK
6
CONTINUOUS
10
6.16147
20
-5.15492
11
6.15852
21
-5.15852
0
LINE
8
BLACK
6
CONTINUOUS
10
6.15852
20
-5.15852
11
6.15492
21
-5.16147
0
LINE
8
BLACK
6
CONTINUOUS
10
6.15492
20
-5.16147
11
6.15082
21
-5.16366
0
LINE
8
BLACK
6
CONTINUOUS
10
6.15082
20
-5.16366
11
6.14636
21
-5.16501
0
LINE
8
BLACK
6
CONTINUOUS
10
6.14636
20
-5.16501
11
6.14173
21
-5.16547
0
LINE
8
BLACK
6
CONTINUOUS
10
6.14173
20
-5.16547
11
6.1371
21
-5.16501
0
LINE
8
BLACK
6
CONTINUOUS
10
6.1371
20
-5.16501
11
6.13265
21
-5.16366
0
LINE
8
BLACK
6
CONTINUOUS
10
6.13265
20
-5.16366
11
6.12855
21
-5.16147
0
LINE
8
BLACK
6
CONTINUOUS
10
6.12855
20
-5.16147
11
6.12495
21
-5.15852
0
LINE
8
BLACK
6
CONTINUOUS
10
6.12495
20
-5.15852
11
6.122
21
-5.15492
0
LINE
8
BLACK
6
CONTINUOUS
10
6.122
20
-5.15492
11
6.1198
21
-5.15082
0
LINE
8
BLACK
6
CONTINUOUS
10
6.1198
20
-5.15082
11
6.11845
21
-5.14636
0
LINE
8
BLACK
6
CONTINUOUS
10
6.11845
20
-5.14636
11
6.11811
21
-5.14289
0
LINE
8
BLACK
6
CONTINUOUS
10
6.11811
20
-5.14289
11
6.11811
21
-5.09333
0
LINE
8
BLACK
6
CONTINUOUS
10
6.11811
20
-5.09333
11
6.11845
21
-5.08986
0
LINE
8
BLACK
6
CONTINUOUS
10
6.11845
20
-5.08986
11
6.1198
21
-5.0854
0
LINE
8
BLACK
6
CONTINUOUS
10
6.1198
20
-5.0854
11
6.122
21
-5.0813
0
LINE
8
BLACK
6
CONTINUOUS
10
6.122
20
-5.0813
11
6.12495
21
-5.0777
0
LINE
8
BLACK
6
CONTINUOUS
10
6.12495
20
-5.0777
11
6.12855
21
-5.07475
0
LINE
8
BLACK
6
CONTINUOUS
10
6.12855
20
-5.07475
11
6.13265
21
-5.07256
0
LINE
8
BLACK
6
CONTINUOUS
10
6.13265
20
-5.07256
11
6.1371
21
-5.07121
0
LINE
8
BLACK
6
CONTINUOUS
10
6.1371
20
-5.07121
11
6.14173
21
-5.07075
0
LINE
8
BLACK
6
CONTINUOUS
10
6.14173
20
-5.07075
11
6.14636
21
-5.07121
0
LINE
8
BLACK
6
CONTINUOUS
10
6.25427
20
-5.07109
11
6.25649
21
-5.07177
0
LINE
8
BLACK
6
CONTINUOUS
10
6.25649
20
-5.07177
11
6.25853
21
-5.07286
0
LINE
8
BLACK
6
CONTINUOUS
10
6.25853
20
-5.07286
11
6.26032
21
-5.07433
0
LINE
8
BLACK
6
CONTINUOUS
10
6.26032
20
-5.07433
11
6.26179
21
-5.07612
0
LINE
8
BLACK
6
CONTINUOUS
10
6.26179
20
-5.07612
11
6.26288
21
-5.07816
0
LINE
8
BLACK
6
CONTINUOUS
10
6.26288
20
-5.07816
11
6.26355
21
-5.08037
0
LINE
8
BLACK
6
CONTINUOUS
10
6.26355
20
-5.08037
11
6.26378
21
-5.08268
0
LINE
8
BLACK
6
CONTINUOUS
10
6.26378
20
-5.08268
11
6.26378
21
-5.15354
0
LINE
8
BLACK
6
CONTINUOUS
10
6.26378
20
-5.15354
11
6.26355
21
-5.15585
0
LINE
8
BLACK
6
CONTINUOUS
10
6.26355
20
-5.15585
11
6.26288
21
-5.15806
0
LINE
8
BLACK
6
CONTINUOUS
10
6.26288
20
-5.15806
11
6.26179
21
-5.16011
0
LINE
8
BLACK
6
CONTINUOUS
10
6.26179
20
-5.16011
11
6.26032
21
-5.16189
0
LINE
8
BLACK
6
CONTINUOUS
10
6.26032
20
-5.16189
11
6.25853
21
-5.16336
0
LINE
8
BLACK
6
CONTINUOUS
10
6.25853
20
-5.16336
11
6.25649
21
-5.16446
0
LINE
8
BLACK
6
CONTINUOUS
10
6.25649
20
-5.16446
11
6.25427
21
-5.16513
0
LINE
8
BLACK
6
CONTINUOUS
10
6.25427
20
-5.16513
11
6.25197
21
-5.16535
0
LINE
8
BLACK
6
CONTINUOUS
10
6.25197
20
-5.16535
11
6.22835
21
-5.16535
0
LINE
8
BLACK
6
CONTINUOUS
10
6.22835
20
-5.16535
11
6.22604
21
-5.16513
0
LINE
8
BLACK
6
CONTINUOUS
10
6.22604
20
-5.16513
11
6.22383
21
-5.16446
0
LINE
8
BLACK
6
CONTINUOUS
10
6.22383
20
-5.16446
11
6.22178
21
-5.16336
0
LINE
8
BLACK
6
CONTINUOUS
10
6.22178
20
-5.16336
11
6.21999
21
-5.16189
0
LINE
8
BLACK
6
CONTINUOUS
10
6.21999
20
-5.16189
11
6.21853
21
-5.16011
0
LINE
8
BLACK
6
CONTINUOUS
10
6.21853
20
-5.16011
11
6.21743
21
-5.15806
0
LINE
8
BLACK
6
CONTINUOUS
10
6.21743
20
-5.15806
11
6.21676
21
-5.15585
0
LINE
8
BLACK
6
CONTINUOUS
10
6.21676
20
-5.15585
11
6.21654
21
-5.15354
0
LINE
8
BLACK
6
CONTINUOUS
10
6.21654
20
-5.15354
11
6.21654
21
-5.08268
0
LINE
8
BLACK
6
CONTINUOUS
10
6.21654
20
-5.08268
11
6.21676
21
-5.08037
0
LINE
8
BLACK
6
CONTINUOUS
10
6.21676
20
-5.08037
11
6.21743
21
-5.07816
0
LINE
8
BLACK
6
CONTINUOUS
10
6.21743
20
-5.07816
11
6.21853
21
-5.07612
0
LINE
8
BLACK
6
CONTINUOUS
10
6.21853
20
-5.07612
11
6.21999
21
-5.07433
0
LINE
8
BLACK
6
CONTINUOUS
10
6.21999
20
-5.07433
11
6.22178
21
-5.07286
0
LINE
8
BLACK
6
CONTINUOUS
10
6.22178
20
-5.07286
11
6.22383
21
-5.07177
0
LINE
8
BLACK
6
CONTINUOUS
10
6.22383
20
-5.07177
11
6.22604
21
-5.07109
0
LINE
8
BLACK
6
CONTINUOUS
10
6.22604
20
-5.07109
11
6.22835
21
-5.07087
0
LINE
8
BLACK
6
CONTINUOUS
10
6.22835
20
-5.07087
11
6.25197
21
-5.07087
0
LINE
8
BLACK
6
CONTINUOUS
10
6.25197
20
-5.07087
11
6.25427
21
-5.07109
0
LINE
8
BLACK
6
CONTINUOUS
10
5.6086
20
-5.09944
11
5.61082
21
-5.10011
0
LINE
8
BLACK
6
CONTINUOUS
10
5.61082
20
-5.10011
11
5.61286
21
-5.1012
0
LINE
8
BLACK
6
CONTINUOUS
10
5.61286
20
-5.1012
11
5.61465
21
-5.10267
0
LINE
8
BLACK
6
CONTINUOUS
10
5.61465
20
-5.10267
11
5.61612
21
-5.10446
0
LINE
8
BLACK
6
CONTINUOUS
10
5.61612
20
-5.10446
11
5.61721
21
-5.1065
0
LINE
8
BLACK
6
CONTINUOUS
10
5.61721
20
-5.1065
11
5.61788
21
-5.10872
0
LINE
8
BLACK
6
CONTINUOUS
10
5.61788
20
-5.10872
11
5.61811
21
-5.11102
0
LINE
8
BLACK
6
CONTINUOUS
10
5.61811
20
-5.11102
11
5.61811
21
-5.13465
0
LINE
8
BLACK
6
CONTINUOUS
10
5.61811
20
-5.13465
11
5.61788
21
-5.13695
0
LINE
8
BLACK
6
CONTINUOUS
10
5.61788
20
-5.13695
11
5.61721
21
-5.13917
0
LINE
8
BLACK
6
CONTINUOUS
10
5.61721
20
-5.13917
11
5.61612
21
-5.14121
0
LINE
8
BLACK
6
CONTINUOUS
10
5.61612
20
-5.14121
11
5.61465
21
-5.143
0
LINE
8
BLACK
6
CONTINUOUS
10
5.61465
20
-5.143
11
5.61286
21
-5.14447
0
LINE
8
BLACK
6
CONTINUOUS
10
5.61286
20
-5.14447
11
5.61082
21
-5.14556
0
LINE
8
BLACK
6
CONTINUOUS
10
5.61082
20
-5.14556
11
5.6086
21
-5.14623
0
LINE
8
BLACK
6
CONTINUOUS
10
5.6086
20
-5.14623
11
5.6063
21
-5.14646
0
LINE
8
BLACK
6
CONTINUOUS
10
5.6063
20
-5.14646
11
5.53543
21
-5.14646
0
LINE
8
BLACK
6
CONTINUOUS
10
5.53543
20
-5.14646
11
5.53313
21
-5.14623
0
LINE
8
BLACK
6
CONTINUOUS
10
5.53313
20
-5.14623
11
5.53091
21
-5.14556
0
LINE
8
BLACK
6
CONTINUOUS
10
5.53091
20
-5.14556
11
5.52887
21
-5.14447
0
LINE
8
BLACK
6
CONTINUOUS
10
5.52887
20
-5.14447
11
5.52708
21
-5.143
0
LINE
8
BLACK
6
CONTINUOUS
10
5.52708
20
-5.143
11
5.52561
21
-5.14121
0
LINE
8
BLACK
6
CONTINUOUS
10
5.52561
20
-5.14121
11
5.52452
21
-5.13917
0
LINE
8
BLACK
6
CONTINUOUS
10
5.52452
20
-5.13917
11
5.52385
21
-5.13695
0
LINE
8
BLACK
6
CONTINUOUS
10
5.52385
20
-5.13695
11
5.52362
21
-5.13465
0
LINE
8
BLACK
6
CONTINUOUS
10
5.52362
20
-5.13465
11
5.52362
21
-5.11102
0
LINE
8
BLACK
6
CONTINUOUS
10
5.52362
20
-5.11102
11
5.52385
21
-5.10872
0
LINE
8
BLACK
6
CONTINUOUS
10
5.52385
20
-5.10872
11
5.52452
21
-5.1065
0
LINE
8
BLACK
6
CONTINUOUS
10
5.52452
20
-5.1065
11
5.52561
21
-5.10446
0
LINE
8
BLACK
6
CONTINUOUS
10
5.52561
20
-5.10446
11
5.52708
21
-5.10267
0
LINE
8
BLACK
6
CONTINUOUS
10
5.52708
20
-5.10267
11
5.52887
21
-5.1012
0
LINE
8
BLACK
6
CONTINUOUS
10
5.52887
20
-5.1012
11
5.53091
21
-5.10011
0
LINE
8
BLACK
6
CONTINUOUS
10
5.53091
20
-5.10011
11
5.53313
21
-5.09944
0
LINE
8
BLACK
6
CONTINUOUS
10
5.53313
20
-5.09944
11
5.53543
21
-5.09921
0
LINE
8
BLACK
6
CONTINUOUS
10
5.53543
20
-5.09921
11
5.6063
21
-5.09921
0
LINE
8
BLACK
6
CONTINUOUS
10
5.6063
20
-5.09921
11
5.6086
21
-5.09944
0
LINE
8
BLACK
6
CONTINUOUS
10
5.72471
20
-5.09798
11
5.72916
21
-5.09933
0
LINE
8
BLACK
6
CONTINUOUS
10
5.72916
20
-5.09933
11
5.73327
21
-5.10152
0
LINE
8
BLACK
6
CONTINUOUS
10
5.73327
20
-5.10152
11
5.73686
21
-5.10448
0
LINE
8
BLACK
6
CONTINUOUS
10
5.73686
20
-5.10448
11
5.73981
21
-5.10807
0
LINE
8
BLACK
6
CONTINUOUS
10
5.73981
20
-5.10807
11
5.74201
21
-5.11218
0
LINE
8
BLACK
6
CONTINUOUS
10
5.74201
20
-5.11218
11
5.74336
21
-5.11663
0
LINE
8
BLACK
6
CONTINUOUS
10
5.74336
20
-5.11663
11
5.74382
21
-5.12126
0
LINE
8
BLACK
6
CONTINUOUS
10
5.74382
20
-5.12126
11
5.74336
21
-5.12589
0
LINE
8
BLACK
6
CONTINUOUS
10
5.74336
20
-5.12589
11
5.74201
21
-5.13034
0
LINE
8
BLACK
6
CONTINUOUS
10
5.74201
20
-5.13034
11
5.73981
21
-5.13445
0
LINE
8
BLACK
6
CONTINUOUS
10
5.73981
20
-5.13445
11
5.73686
21
-5.13804
0
LINE
8
BLACK
6
CONTINUOUS
10
5.73686
20
-5.13804
11
5.73327
21
-5.141
0
LINE
8
BLACK
6
CONTINUOUS
10
5.73327
20
-5.141
11
5.72916
21
-5.14319
0
LINE
8
BLACK
6
CONTINUOUS
10
5.72916
20
-5.14319
11
5.72471
21
-5.14454
0
LINE
8
BLACK
6
CONTINUOUS
10
5.72471
20
-5.14454
11
5.72124
21
-5.14488
0
LINE
8
BLACK
6
CONTINUOUS
10
5.72124
20
-5.14488
11
5.67167
21
-5.14488
0
LINE
8
BLACK
6
CONTINUOUS
10
5.67167
20
-5.14488
11
5.6682
21
-5.14454
0
LINE
8
BLACK
6
CONTINUOUS
10
5.6682
20
-5.14454
11
5.66375
21
-5.14319
0
LINE
8
BLACK
6
CONTINUOUS
10
5.66375
20
-5.14319
11
5.65965
21
-5.141
0
LINE
8
BLACK
6
CONTINUOUS
10
5.65965
20
-5.141
11
5.65605
21
-5.13804
0
LINE
8
BLACK
6
CONTINUOUS
10
5.65605
20
-5.13804
11
5.6531
21
-5.13445
0
LINE
8
BLACK
6
CONTINUOUS
10
5.6531
20
-5.13445
11
5.65091
21
-5.13034
0
LINE
8
BLACK
6
CONTINUOUS
10
5.65091
20
-5.13034
11
5.64955
21
-5.12589
0
LINE
8
BLACK
6
CONTINUOUS
10
5.64955
20
-5.12589
11
5.6491
21
-5.12126
0
LINE
8
BLACK
6
CONTINUOUS
10
5.6491
20
-5.12126
11
5.64955
21
-5.11663
0
LINE
8
BLACK
6
CONTINUOUS
10
5.64955
20
-5.11663
11
5.65091
21
-5.11218
0
LINE
8
BLACK
6
CONTINUOUS
10
5.65091
20
-5.11218
11
5.6531
21
-5.10807
0
LINE
8
BLACK
6
CONTINUOUS
10
5.6531
20
-5.10807
11
5.65605
21
-5.10448
0
LINE
8
BLACK
6
CONTINUOUS
10
5.65605
20
-5.10448
11
5.65965
21
-5.10152
0
LINE
8
BLACK
6
CONTINUOUS
10
5.65965
20
-5.10152
11
5.66375
21
-5.09933
0
LINE
8
BLACK
6
CONTINUOUS
10
5.66375
20
-5.09933
11
5.6682
21
-5.09798
0
LINE
8
BLACK
6
CONTINUOUS
10
5.6682
20
-5.09798
11
5.67167
21
-5.09764
0
LINE
8
BLACK
6
CONTINUOUS
10
5.67167
20
-5.09764
11
5.72124
21
-5.09764
0
LINE
8
BLACK
6
CONTINUOUS
10
5.72124
20
-5.09764
11
5.72471
21
-5.09798
0
LINE
8
BLACK
6
CONTINUOUS
10
6.02471
20
-5.09798
11
6.02916
21
-5.09933
0
LINE
8
BLACK
6
CONTINUOUS
10
6.02916
20
-5.09933
11
6.03327
21
-5.10152
0
LINE
8
BLACK
6
CONTINUOUS
10
6.03327
20
-5.10152
11
6.03686
21
-5.10448
0
LINE
8
BLACK
6
CONTINUOUS
10
6.03686
20
-5.10448
11
6.03981
21
-5.10807
0
LINE
8
BLACK
6
CONTINUOUS
10
6.03981
20
-5.10807
11
6.04201
21
-5.11218
0
LINE
8
BLACK
6
CONTINUOUS
10
6.04201
20
-5.11218
11
6.04336
21
-5.11663
0
LINE
8
BLACK
6
CONTINUOUS
10
6.04336
20
-5.11663
11
6.04382
21
-5.12126
0
LINE
8
BLACK
6
CONTINUOUS
10
6.04382
20
-5.12126
11
6.04336
21
-5.12589
0
LINE
8
BLACK
6
CONTINUOUS
10
6.04336
20
-5.12589
11
6.04201
21
-5.13034
0
LINE
8
BLACK
6
CONTINUOUS
10
6.04201
20
-5.13034
11
6.03981
21
-5.13445
0
LINE
8
BLACK
6
CONTINUOUS
10
6.03981
20
-5.13445
11
6.03686
21
-5.13804
0
LINE
8
BLACK
6
CONTINUOUS
10
6.03686
20
-5.13804
11
6.03327
21
-5.141
0
LINE
8
BLACK
6
CONTINUOUS
10
6.03327
20
-5.141
11
6.02916
21
-5.14319
0
LINE
8
BLACK
6
CONTINUOUS
10
6.02916
20
-5.14319
11
6.02471
21
-5.14454
0
LINE
8
BLACK
6
CONTINUOUS
10
6.02471
20
-5.14454
11
6.02124
21
-5.14488
0
LINE
8
BLACK
6
CONTINUOUS
10
6.02124
20
-5.14488
11
5.97167
21
-5.14488
0
LINE
8
BLACK
6
CONTINUOUS
10
5.97167
20
-5.14488
11
5.9682
21
-5.14454
0
LINE
8
BLACK
6
CONTINUOUS
10
5.9682
20
-5.14454
11
5.96375
21
-5.14319
0
LINE
8
BLACK
6
CONTINUOUS
10
5.96375
20
-5.14319
11
5.95965
21
-5.141
0
LINE
8
BLACK
6
CONTINUOUS
10
5.95965
20
-5.141
11
5.95605
21
-5.13804
0
LINE
8
BLACK
6
CONTINUOUS
10
5.95605
20
-5.13804
11
5.9531
21
-5.13445
0
LINE
8
BLACK
6
CONTINUOUS
10
5.9531
20
-5.13445
11
5.95091
21
-5.13034
0
LINE
8
BLACK
6
CONTINUOUS
10
5.95091
20
-5.13034
11
5.94955
21
-5.12589
0
LINE
8
BLACK
6
CONTINUOUS
10
5.94955
20
-5.12589
11
5.9491
21
-5.12126
0
LINE
8
BLACK
6
CONTINUOUS
10
5.9491
20
-5.12126
11
5.94955
21
-5.11663
0
LINE
8
BLACK
6
CONTINUOUS
10
5.94955
20
-5.11663
11
5.95091
21
-5.11218
0
LINE
8
BLACK
6
CONTINUOUS
10
5.95091
20
-5.11218
11
5.9531
21
-5.10807
0
LINE
8
BLACK
6
CONTINUOUS
10
5.9531
20
-5.10807
11
5.95605
21
-5.10448
0
LINE
8
BLACK
6
CONTINUOUS
10
5.95605
20
-5.10448
11
5.95965
21
-5.10152
0
LINE
8
BLACK
6
CONTINUOUS
10
5.95965
20
-5.10152
11
5.96375
21
-5.09933
0
LINE
8
BLACK
6
CONTINUOUS
10
5.96375
20
-5.09933
11
5.9682
21
-5.09798
0
LINE
8
BLACK
6
CONTINUOUS
10
5.9682
20
-5.09798
11
5.97167
21
-5.09764
0
LINE
8
BLACK
6
CONTINUOUS
10
5.97167
20
-5.09764
11
6.02124
21
-5.09764
0
LINE
8
BLACK
6
CONTINUOUS
10
6.02124
20
-5.09764
11
6.02471
21
-5.09798
0
LINE
8
BLACK
6
CONTINUOUS
10
6.02471
20
-4.99798
11
6.02916
21
-4.99933
0
LINE
8
BLACK
6
CONTINUOUS
10
6.02916
20
-4.99933
11
6.03327
21
-5.00152
0
LINE
8
BLACK
6
CONTINUOUS
10
6.03327
20
-5.00152
11
6.03686
21
-5.00448
0
LINE
8
BLACK
6
CONTINUOUS
10
6.03686
20
-5.00448
11
6.03981
21
-5.00807
0
LINE
8
BLACK
6
CONTINUOUS
10
6.03981
20
-5.00807
11
6.04201
21
-5.01218
0
LINE
8
BLACK
6
CONTINUOUS
10
6.04201
20
-5.01218
11
6.04336
21
-5.01663
0
LINE
8
BLACK
6
CONTINUOUS
10
6.04336
20
-5.01663
11
6.04382
21
-5.02126
0
LINE
8
BLACK
6
CONTINUOUS
10
6.04382
20
-5.02126
11
6.04336
21
-5.02589
0
LINE
8
BLACK
6
CONTINUOUS
10
6.04336
20
-5.02589
11
6.04201
21
-5.03034
0
LINE
8
BLACK
6
CONTINUOUS
10
6.04201
20
-5.03034
11
6.03981
21
-5.03445
0
LINE
8
BLACK
6
CONTINUOUS
10
6.03981
20
-5.03445
11
6.03686
21
-5.03804
0
LINE
8
BLACK
6
CONTINUOUS
10
6.03686
20
-5.03804
11
6.03327
21
-5.041
0
LINE
8
BLACK
6
CONTINUOUS
10
6.03327
20
-5.041
11
6.02916
21
-5.04319
0
LINE
8
BLACK
6
CONTINUOUS
10
6.02916
20
-5.04319
11
6.02471
21
-5.04454
0
LINE
8
BLACK
6
CONTINUOUS
10
6.02471
20
-5.04454
11
6.02124
21
-5.04488
0
LINE
8
BLACK
6
CONTINUOUS
10
6.02124
20
-5.04488
11
5.97167
21
-5.04488
0
LINE
8
BLACK
6
CONTINUOUS
10
5.97167
20
-5.04488
11
5.9682
21
-5.04454
0
LINE
8
BLACK
6
CONTINUOUS
10
5.9682
20
-5.04454
11
5.96375
21
-5.04319
0
LINE
8
BLACK
6
CONTINUOUS
10
5.96375
20
-5.04319
11
5.95965
21
-5.041
0
LINE
8
BLACK
6
CONTINUOUS
10
5.95965
20
-5.041
11
5.95605
21
-5.03804
0
LINE
8
BLACK
6
CONTINUOUS
10
5.95605
20
-5.03804
11
5.9531
21
-5.03445
0
LINE
8
BLACK
6
CONTINUOUS
10
5.9531
20
-5.03445
11
5.95091
21
-5.03034
0
LINE
8
BLACK
6
CONTINUOUS
10
5.95091
20
-5.03034
11
5.94955
21
-5.02589
0
LINE
8
BLACK
6
CONTINUOUS
10
5.94955
20
-5.02589
11
5.9491
21
-5.02126
0
LINE
8
BLACK
6
CONTINUOUS
10
5.9491
20
-5.02126
11
5.94955
21
-5.01663
0
LINE
8
BLACK
6
CONTINUOUS
10
5.94955
20
-5.01663
11
5.95091
21
-5.01218
0
LINE
8
BLACK
6
CONTINUOUS
10
5.95091
20
-5.01218
11
5.9531
21
-5.00807
0
LINE
8
BLACK
6
CONTINUOUS
10
5.9531
20
-5.00807
11
5.95605
21
-5.00448
0
LINE
8
BLACK
6
CONTINUOUS
10
5.95605
20
-5.00448
11
5.95965
21
-5.00152
0
LINE
8
BLACK
6
CONTINUOUS
10
5.95965
20
-5.00152
11
5.96375
21
-4.99933
0
LINE
8
BLACK
6
CONTINUOUS
10
5.96375
20
-4.99933
11
5.9682
21
-4.99798
0
LINE
8
BLACK
6
CONTINUOUS
10
5.9682
20
-4.99798
11
5.97167
21
-4.99764
0
LINE
8
BLACK
6
CONTINUOUS
10
5.97167
20
-4.99764
11
6.02124
21
-4.99764
0
LINE
8
BLACK
6
CONTINUOUS
10
6.02124
20
-4.99764
11
6.02471
21
-4.99798
0
LINE
8
BLACK
6
CONTINUOUS
10
5.72471
20
-4.99798
11
5.72916
21
-4.99933
0
LINE
8
BLACK
6
CONTINUOUS
10
5.72916
20
-4.99933
11
5.73327
21
-5.00152
0
LINE
8
BLACK
6
CONTINUOUS
10
5.73327
20
-5.00152
11
5.73686
21
-5.00448
0
LINE
8
BLACK
6
CONTINUOUS
10
5.73686
20
-5.00448
11
5.73981
21
-5.00807
0
LINE
8
BLACK
6
CONTINUOUS
10
5.73981
20
-5.00807
11
5.74201
21
-5.01218
0
LINE
8
BLACK
6
CONTINUOUS
10
5.74201
20
-5.01218
11
5.74336
21
-5.01663
0
LINE
8
BLACK
6
CONTINUOUS
10
5.74336
20
-5.01663
11
5.74382
21
-5.02126
0
LINE
8
BLACK
6
CONTINUOUS
10
5.74382
20
-5.02126
11
5.74336
21
-5.02589
0
LINE
8
BLACK
6
CONTINUOUS
10
5.74336
20
-5.02589
11
5.74201
21
-5.03034
0
LINE
8
BLACK
6
CONTINUOUS
10
5.74201
20
-5.03034
11
5.73981
21
-5.03445
0
LINE
8
BLACK
6
CONTINUOUS
10
5.73981
20
-5.03445
11
5.73686
21
-5.03804
0
LINE
8
BLACK
6
CONTINUOUS
10
5.73686
20
-5.03804
11
5.73327
21
-5.041
0
LINE
8
BLACK
6
CONTINUOUS
10
5.73327
20
-5.041
11
5.72916
21
-5.04319
0
LINE
8
BLACK
6
CONTINUOUS
10
5.72916
20
-5.04319
11
5.72471
21
-5.04454
0
LINE
8
BLACK
6
CONTINUOUS
10
5.72471
20
-5.04454
11
5.72124
21
-5.04488
0
LINE
8
BLACK
6
CONTINUOUS
10
5.72124
20
-5.04488
11
5.67167
21
-5.04488
0
LINE
8
BLACK
6
CONTINUOUS
10
5.67167
20
-5.04488
11
5.6682
21
-5.04454
0
LINE
8
BLACK
6
CONTINUOUS
10
5.6682
20
-5.04454
11
5.66375
21
-5.04319
0
LINE
8
BLACK
6
CONTINUOUS
10
5.66375
20
-5.04319
11
5.65965
21
-5.041
0
LINE
8
BLACK
6
CONTINUOUS
10
5.65965
20
-5.041
11
5.65605
21
-5.03804
0
LINE
8
BLACK
6
CONTINUOUS
10
5.65605
20
-5.03804
11
5.6531
21
-5.03445
0
LINE
8
BLACK
6
CONTINUOUS
10
5.6531
20
-5.03445
11
5.65091
21
-5.03034
0
LINE
8
BLACK
6
CONTINUOUS
10
5.65091
20
-5.03034
11
5.64955
21
-5.02589
0
LINE
8
BLACK
6
CONTINUOUS
10
5.64955
20
-5.02589
11
5.6491
21
-5.02126
0
LINE
8
BLACK
6
CONTINUOUS
10
5.6491
20
-5.02126
11
5.64955
21
-5.01663
0
LINE
8
BLACK
6
CONTINUOUS
10
5.64955
20
-5.01663
11
5.65091
21
-5.01218
0
LINE
8
BLACK
6
CONTINUOUS
10
5.65091
20
-5.01218
11
5.6531
21
-5.00807
0
LINE
8
BLACK
6
CONTINUOUS
10
5.6531
20
-5.00807
11
5.65605
21
-5.00448
0
LINE
8
BLACK
6
CONTINUOUS
10
5.65605
20
-5.00448
11
5.65965
21
-5.00152
0
LINE
8
BLACK
6
CONTINUOUS
10
5.65965
20
-5.00152
11
5.66375
21
-4.99933
0
LINE
8
BLACK
6
CONTINUOUS
10
5.66375
20
-4.99933
11
5.6682
21
-4.99798
0
LINE
8
BLACK
6
CONTINUOUS
10
5.6682
20
-4.99798
11
5.67167
21
-4.99764
0
LINE
8
BLACK
6
CONTINUOUS
10
5.67167
20
-4.99764
11
5.72124
21
-4.99764
0
LINE
8
BLACK
6
CONTINUOUS
10
5.72124
20
-4.99764
11
5.72471
21
-4.99798
0
LINE
8
BLACK
6
CONTINUOUS
10
6.03419
20
-4.89786
11
6.03641
21
-4.89854
0
LINE
8
BLACK
6
CONTINUOUS
10
6.03641
20
-4.89854
11
6.03845
21
-4.89963
0
LINE
8
BLACK
6
CONTINUOUS
10
6.03845
20
-4.89963
11
6.04024
21
-4.9011
0
LINE
8
BLACK
6
CONTINUOUS
10
6.04024
20
-4.9011
11
6.04171
21
-4.90289
0
LINE
8
BLACK
6
CONTINUOUS
10
6.04171
20
-4.90289
11
6.0428
21
-4.90493
0
LINE
8
BLACK
6
CONTINUOUS
10
6.0428
20
-4.90493
11
6.04347
21
-4.90714
0
LINE
8
BLACK
6
CONTINUOUS
10
6.04347
20
-4.90714
11
6.0437
21
-4.90945
0
LINE
8
BLACK
6
CONTINUOUS
10
6.0437
20
-4.90945
11
6.0437
21
-4.93307
0
LINE
8
BLACK
6
CONTINUOUS
10
6.0437
20
-4.93307
11
6.04347
21
-4.93538
0
LINE
8
BLACK
6
CONTINUOUS
10
6.04347
20
-4.93538
11
6.0428
21
-4.93759
0
LINE
8
BLACK
6
CONTINUOUS
10
6.0428
20
-4.93759
11
6.04171
21
-4.93963
0
LINE
8
BLACK
6
CONTINUOUS
10
6.04171
20
-4.93963
11
6.04024
21
-4.94142
0
LINE
8
BLACK
6
CONTINUOUS
10
6.04024
20
-4.94142
11
6.03845
21
-4.94289
0
LINE
8
BLACK
6
CONTINUOUS
10
6.03845
20
-4.94289
11
6.03641
21
-4.94398
0
LINE
8
BLACK
6
CONTINUOUS
10
6.03641
20
-4.94398
11
6.03419
21
-4.94465
0
LINE
8
BLACK
6
CONTINUOUS
10
6.03419
20
-4.94465
11
6.03189
21
-4.94488
0
LINE
8
BLACK
6
CONTINUOUS
10
6.03189
20
-4.94488
11
5.96102
21
-4.94488
0
LINE
8
BLACK
6
CONTINUOUS
10
5.96102
20
-4.94488
11
5.95872
21
-4.94465
0
LINE
8
BLACK
6
CONTINUOUS
10
5.95872
20
-4.94465
11
5.9565
21
-4.94398
0
LINE
8
BLACK
6
CONTINUOUS
10
5.9565
20
-4.94398
11
5.95446
21
-4.94289
0
LINE
8
BLACK
6
CONTINUOUS
10
5.95446
20
-4.94289
11
5.95267
21
-4.94142
0
LINE
8
BLACK
6
CONTINUOUS
10
5.95267
20
-4.94142
11
5.9512
21
-4.93963
0
LINE
8
BLACK
6
CONTINUOUS
10
5.9512
20
-4.93963
11
5.95011
21
-4.93759
0
LINE
8
BLACK
6
CONTINUOUS
10
5.95011
20
-4.93759
11
5.94944
21
-4.93538
0
LINE
8
BLACK
6
CONTINUOUS
10
5.94944
20
-4.93538
11
5.94921
21
-4.93307
0
LINE
8
BLACK
6
CONTINUOUS
10
5.94921
20
-4.93307
11
5.94921
21
-4.90945
0
LINE
8
BLACK
6
CONTINUOUS
10
5.94921
20
-4.90945
11
5.94944
21
-4.90714
0
LINE
8
BLACK
6
CONTINUOUS
10
5.94944
20
-4.90714
11
5.95011
21
-4.90493
0
LINE
8
BLACK
6
CONTINUOUS
10
5.95011
20
-4.90493
11
5.9512
21
-4.90289
0
LINE
8
BLACK
6
CONTINUOUS
10
5.9512
20
-4.90289
11
5.95267
21
-4.9011
0
LINE
8
BLACK
6
CONTINUOUS
10
5.95267
20
-4.9011
11
5.95446
21
-4.89963
0
LINE
8
BLACK
6
CONTINUOUS
10
5.95446
20
-4.89963
11
5.9565
21
-4.89854
0
LINE
8
BLACK
6
CONTINUOUS
10
5.9565
20
-4.89854
11
5.95872
21
-4.89786
0
LINE
8
BLACK
6
CONTINUOUS
10
5.95872
20
-4.89786
11
5.96102
21
-4.89764
0
LINE
8
BLACK
6
CONTINUOUS
10
5.96102
20
-4.89764
11
6.03189
21
-4.89764
0
LINE
8
BLACK
6
CONTINUOUS
10
6.03189
20
-4.89764
11
6.03419
21
-4.89786
0
LINE
8
BLACK
6
CONTINUOUS
10
5.72471
20
-4.89798
11
5.72916
21
-4.89933
0
LINE
8
BLACK
6
CONTINUOUS
10
5.72916
20
-4.89933
11
5.73327
21
-4.90152
0
LINE
8
BLACK
6
CONTINUOUS
10
5.73327
20
-4.90152
11
5.73686
21
-4.90448
0
LINE
8
BLACK
6
CONTINUOUS
10
5.73686
20
-4.90448
11
5.73981
21
-4.90807
0
LINE
8
BLACK
6
CONTINUOUS
10
5.73981
20
-4.90807
11
5.74201
21
-4.91218
0
LINE
8
BLACK
6
CONTINUOUS
10
5.74201
20
-4.91218
11
5.74336
21
-4.91663
0
LINE
8
BLACK
6
CONTINUOUS
10
5.74336
20
-4.91663
11
5.74382
21
-4.92126
0
LINE
8
BLACK
6
CONTINUOUS
10
5.74382
20
-4.92126
11
5.74336
21
-4.92589
0
LINE
8
BLACK
6
CONTINUOUS
10
5.74336
20
-4.92589
11
5.74201
21
-4.93034
0
LINE
8
BLACK
6
CONTINUOUS
10
5.74201
20
-4.93034
11
5.73981
21
-4.93445
0
LINE
8
BLACK
6
CONTINUOUS
10
5.73981
20
-4.93445
11
5.73686
21
-4.93804
0
LINE
8
BLACK
6
CONTINUOUS
10
5.73686
20
-4.93804
11
5.73327
21
-4.941
0
LINE
8
BLACK
6
CONTINUOUS
10
5.73327
20
-4.941
11
5.72916
21
-4.94319
0
LINE
8
BLACK
6
CONTINUOUS
10
5.72916
20
-4.94319
11
5.72471
21
-4.94454
0
LINE
8
BLACK
6
CONTINUOUS
10
5.72471
20
-4.94454
11
5.72124
21
-4.94488
0
LINE
8
BLACK
6
CONTINUOUS
10
5.72124
20
-4.94488
11
5.67167
21
-4.94488
0
LINE
8
BLACK
6
CONTINUOUS
10
5.67167
20
-4.94488
11
5.6682
21
-4.94454
0
LINE
8
BLACK
6
CONTINUOUS
10
5.6682
20
-4.94454
11
5.66375
21
-4.94319
0
LINE
8
BLACK
6
CONTINUOUS
10
5.66375
20
-4.94319
11
5.65965
21
-4.941
0
LINE
8
BLACK
6
CONTINUOUS
10
5.65965
20
-4.941
11
5.65605
21
-4.93804
0
LINE
8
BLACK
6
CONTINUOUS
10
5.65605
20
-4.93804
11
5.6531
21
-4.93445
0
LINE
8
BLACK
6
CONTINUOUS
10
5.6531
20
-4.93445
11
5.65091
21
-4.93034
0
LINE
8
BLACK
6
CONTINUOUS
10
5.65091
20
-4.93034
11
5.64955
21
-4.92589
0
LINE
8
BLACK
6
CONTINUOUS
10
5.64955
20
-4.92589
11
5.6491
21
-4.92126
0
LINE
8
BLACK
6
CONTINUOUS
10
5.6491
20
-4.92126
11
5.64955
21
-4.91663
0
LINE
8
BLACK
6
CONTINUOUS
10
5.64955
20
-4.91663
11
5.65091
21
-4.91218
0
LINE
8
BLACK
6
CONTINUOUS
10
5.65091
20
-4.91218
11
5.6531
21
-4.90807
0
LINE
8
BLACK
6
CONTINUOUS
10
5.6531
20
-4.90807
11
5.65605
21
-4.90448
0
LINE
8
BLACK
6
CONTINUOUS
10
5.65605
20
-4.90448
11
5.65965
21
-4.90152
0
LINE
8
BLACK
6
CONTINUOUS
10
5.65965
20
-4.90152
11
5.66375
21
-4.89933
0
LINE
8
BLACK
6
CONTINUOUS
10
5.66375
20
-4.89933
11
5.6682
21
-4.89798
0
LINE
8
BLACK
6
CONTINUOUS
10
5.6682
20
-4.89798
11
5.67167
21
-4.89764
0
LINE
8
BLACK
6
CONTINUOUS
10
5.67167
20
-4.89764
11
5.72124
21
-4.89764
0
LINE
8
BLACK
6
CONTINUOUS
10
5.72124
20
-4.89764
11
5.72471
21
-4.89798
0
LINE
8
BLACK
6
CONTINUOUS
10
5.34634
20
-4.80398
11
5.35363
21
-4.807
0
LINE
8
BLACK
6
CONTINUOUS
10
5.35363
20
-4.807
11
5.36019
21
-4.81139
0
LINE
8
BLACK
6
CONTINUOUS
10
5.36019
20
-4.81139
11
5.36578
21
-4.81697
0
LINE
8
BLACK
6
CONTINUOUS
10
5.36578
20
-4.81697
11
5.37016
21
-4.82354
0
LINE
8
BLACK
6
CONTINUOUS
10
5.37016
20
-4.82354
11
5.37318
21
-4.83083
0
LINE
8
BLACK
6
CONTINUOUS
10
5.37318
20
-4.83083
11
5.37472
21
-4.83857
0
LINE
8
BLACK
6
CONTINUOUS
10
5.37472
20
-4.83857
11
5.37472
21
-4.84647
0
LINE
8
BLACK
6
CONTINUOUS
10
5.37472
20
-4.84647
11
5.37318
21
-4.85421
0
LINE
8
BLACK
6
CONTINUOUS
10
5.37318
20
-4.85421
11
5.37016
21
-4.8615
0
LINE
8
BLACK
6
CONTINUOUS
10
5.37016
20
-4.8615
11
5.36578
21
-4.86807
0
LINE
8
BLACK
6
CONTINUOUS
10
5.36578
20
-4.86807
11
5.36019
21
-4.87365
0
LINE
8
BLACK
6
CONTINUOUS
10
5.36019
20
-4.87365
11
5.35363
21
-4.87804
0
LINE
8
BLACK
6
CONTINUOUS
10
5.35363
20
-4.87804
11
5.34634
21
-4.88106
0
LINE
8
BLACK
6
CONTINUOUS
10
5.34634
20
-4.88106
11
5.33859
21
-4.8826
0
LINE
8
BLACK
6
CONTINUOUS
10
5.33859
20
-4.8826
11
5.3307
21
-4.8826
0
LINE
8
BLACK
6
CONTINUOUS
10
5.3307
20
-4.8826
11
5.32296
21
-4.88106
0
LINE
8
BLACK
6
CONTINUOUS
10
5.32296
20
-4.88106
11
5.31566
21
-4.87804
0
LINE
8
BLACK
6
CONTINUOUS
10
5.31566
20
-4.87804
11
5.3091
21
-4.87365
0
LINE
8
BLACK
6
CONTINUOUS
10
5.3091
20
-4.87365
11
5.30351
21
-4.86807
0
LINE
8
BLACK
6
CONTINUOUS
10
5.30351
20
-4.86807
11
5.29913
21
-4.8615
0
LINE
8
BLACK
6
CONTINUOUS
10
5.29913
20
-4.8615
11
5.29611
21
-4.85421
0
LINE
8
BLACK
6
CONTINUOUS
10
5.29611
20
-4.85421
11
5.29457
21
-4.84647
0
LINE
8
BLACK
6
CONTINUOUS
10
5.29457
20
-4.84647
11
5.29457
21
-4.83857
0
LINE
8
BLACK
6
CONTINUOUS
10
5.29457
20
-4.83857
11
5.29611
21
-4.83083
0
LINE
8
BLACK
6
CONTINUOUS
10
5.29611
20
-4.83083
11
5.29913
21
-4.82354
0
LINE
8
BLACK
6
CONTINUOUS
10
5.29913
20
-4.82354
11
5.30351
21
-4.81697
0
LINE
8
BLACK
6
CONTINUOUS
10
5.30351
20
-4.81697
11
5.3091
21
-4.81139
0
LINE
8
BLACK
6
CONTINUOUS
10
5.3091
20
-4.81139
11
5.31566
21
-4.807
0
LINE
8
BLACK
6
CONTINUOUS
10
5.31566
20
-4.807
11
5.32296
21
-4.80398
0
LINE
8
BLACK
6
CONTINUOUS
10
5.32296
20
-4.80398
11
5.3307
21
-4.80244
0
LINE
8
BLACK
6
CONTINUOUS
10
5.3307
20
-4.80244
11
5.33859
21
-4.80244
0
LINE
8
BLACK
6
CONTINUOUS
10
5.33859
20
-4.80244
11
5.34634
21
-4.80398
0
LINE
8
BLACK
6
CONTINUOUS
10
6.36996
20
-4.80398
11
6.37725
21
-4.807
0
LINE
8
BLACK
6
CONTINUOUS
10
6.37725
20
-4.807
11
6.38382
21
-4.81139
0
LINE
8
BLACK
6
CONTINUOUS
10
6.38382
20
-4.81139
11
6.3894
21
-4.81697
0
LINE
8
BLACK
6
CONTINUOUS
10
6.3894
20
-4.81697
11
6.39379
21
-4.82354
0
LINE
8
BLACK
6
CONTINUOUS
10
6.39379
20
-4.82354
11
6.39681
21
-4.83083
0
LINE
8
BLACK
6
CONTINUOUS
10
6.39681
20
-4.83083
11
6.39835
21
-4.83857
0
LINE
8
BLACK
6
CONTINUOUS
10
6.39835
20
-4.83857
11
6.39835
21
-4.84647
0
LINE
8
BLACK
6
CONTINUOUS
10
6.39835
20
-4.84647
11
6.39681
21
-4.85421
0
LINE
8
BLACK
6
CONTINUOUS
10
6.39681
20
-4.85421
11
6.39379
21
-4.8615
0
LINE
8
BLACK
6
CONTINUOUS
10
6.39379
20
-4.8615
11
6.3894
21
-4.86807
0
LINE
8
BLACK
6
CONTINUOUS
10
6.3894
20
-4.86807
11
6.38382
21
-4.87365
0
LINE
8
BLACK
6
CONTINUOUS
10
6.38382
20
-4.87365
11
6.37725
21
-4.87804
0
LINE
8
BLACK
6
CONTINUOUS
10
6.37725
20
-4.87804
11
6.36996
21
-4.88106
0
LINE
8
BLACK
6
CONTINUOUS
10
6.36996
20
-4.88106
11
6.36222
21
-4.8826
0
LINE
8
BLACK
6
CONTINUOUS
10
6.36222
20
-4.8826
11
6.35432
21
-4.8826
0
LINE
8
BLACK
6
CONTINUOUS
10
6.35432
20
-4.8826
11
6.34658
21
-4.88106
0
LINE
8
BLACK
6
CONTINUOUS
10
6.34658
20
-4.88106
11
6.33928
21
-4.87804
0
LINE
8
BLACK
6
CONTINUOUS
10
6.33928
20
-4.87804
11
6.33272
21
-4.87365
0
LINE
8
BLACK
6
CONTINUOUS
10
6.33272
20
-4.87365
11
6.32714
21
-4.86807
0
LINE
8
BLACK
6
CONTINUOUS
10
6.32714
20
-4.86807
11
6.32275
21
-4.8615
0
LINE
8
BLACK
6
CONTINUOUS
10
6.32275
20
-4.8615
11
6.31973
21
-4.85421
0
LINE
8
BLACK
6
CONTINUOUS
10
6.31973
20
-4.85421
11
6.31819
21
-4.84647
0
LINE
8
BLACK
6
CONTINUOUS
10
6.31819
20
-4.84647
11
6.31819
21
-4.83857
0
LINE
8
BLACK
6
CONTINUOUS
10
6.31819
20
-4.83857
11
6.31973
21
-4.83083
0
LINE
8
BLACK
6
CONTINUOUS
10
6.31973
20
-4.83083
11
6.32275
21
-4.82354
0
LINE
8
BLACK
6
CONTINUOUS
10
6.32275
20
-4.82354
11
6.32714
21
-4.81697
0
LINE
8
BLACK
6
CONTINUOUS
10
6.32714
20
-4.81697
11
6.33272
21
-4.81139
0
LINE
8
BLACK
6
CONTINUOUS
10
6.33272
20
-4.81139
11
6.33928
21
-4.807
0
LINE
8
BLACK
6
CONTINUOUS
10
6.33928
20
-4.807
11
6.34658
21
-4.80398
0
LINE
8
BLACK
6
CONTINUOUS
10
6.34658
20
-4.80398
11
6.35432
21
-4.80244
0
LINE
8
BLACK
6
CONTINUOUS
10
6.35432
20
-4.80244
11
6.36222
21
-4.80244
0
LINE
8
BLACK
6
CONTINUOUS
10
6.36222
20
-4.80244
11
6.36996
21
-4.80398
0
LINE
8
BLACK
6
CONTINUOUS
10
6.64419
20
-4.70254
11
6.65064
21
-4.70521
0
LINE
8
BLACK
6
CONTINUOUS
10
6.65064
20
-4.70521
11
6.65645
21
-4.70909
0
LINE
8
BLACK
6
CONTINUOUS
10
6.65645
20
-4.70909
11
6.66138
21
-4.71403
0
LINE
8
BLACK
6
CONTINUOUS
10
6.66138
20
-4.71403
11
6.66526
21
-4.71983
0
LINE
8
BLACK
6
CONTINUOUS
10
6.66526
20
-4.71983
11
6.66793
21
-4.72628
0
LINE
8
BLACK
6
CONTINUOUS
10
6.66793
20
-4.72628
11
6.66929
21
-4.73312
0
LINE
8
BLACK
6
CONTINUOUS
10
6.66929
20
-4.73312
11
6.66929
21
-4.7401
0
LINE
8
BLACK
6
CONTINUOUS
10
6.66929
20
-4.7401
11
6.66793
21
-4.74695
0
LINE
8
BLACK
6
CONTINUOUS
10
6.66793
20
-4.74695
11
6.66526
21
-4.7534
0
LINE
8
BLACK
6
CONTINUOUS
10
6.66526
20
-4.7534
11
6.66138
21
-4.7592
0
LINE
8
BLACK
6
CONTINUOUS
10
6.66138
20
-4.7592
11
6.65645
21
-4.76414
0
LINE
8
BLACK
6
CONTINUOUS
10
6.65645
20
-4.76414
11
6.65064
21
-4.76801
0
LINE
8
BLACK
6
CONTINUOUS
10
6.65064
20
-4.76801
11
6.64419
21
-4.77069
0
LINE
8
BLACK
6
CONTINUOUS
10
6.64419
20
-4.77069
11
6.63735
21
-4.77205
0
LINE
8
BLACK
6
CONTINUOUS
10
6.63735
20
-4.77205
11
6.63037
21
-4.77205
0
LINE
8
BLACK
6
CONTINUOUS
10
6.63037
20
-4.77205
11
6.62352
21
-4.77069
0
LINE
8
BLACK
6
CONTINUOUS
10
6.62352
20
-4.77069
11
6.61707
21
-4.76801
0
LINE
8
BLACK
6
CONTINUOUS
10
6.61707
20
-4.76801
11
6.61127
21
-4.76414
0
LINE
8
BLACK
6
CONTINUOUS
10
6.61127
20
-4.76414
11
6.60634
21
-4.7592
0
LINE
8
BLACK
6
CONTINUOUS
10
6.60634
20
-4.7592
11
6.60246
21
-4.7534
0
LINE
8
BLACK
6
CONTINUOUS
10
6.60246
20
-4.7534
11
6.59979
21
-4.74695
0
LINE
8
BLACK
6
CONTINUOUS
10
6.59979
20
-4.74695
11
6.59843
21
-4.7401
0
LINE
8
BLACK
6
CONTINUOUS
10
6.59843
20
-4.7401
11
6.59843
21
-4.73312
0
LINE
8
BLACK
6
CONTINUOUS
10
6.59843
20
-4.73312
11
6.59979
21
-4.72628
0
LINE
8
BLACK
6
CONTINUOUS
10
6.59979
20
-4.72628
11
6.60246
21
-4.71983
0
LINE
8
BLACK
6
CONTINUOUS
10
6.60246
20
-4.71983
11
6.60634
21
-4.71403
0
LINE
8
BLACK
6
CONTINUOUS
10
6.60634
20
-4.71403
11
6.61127
21
-4.70909
0
LINE
8
BLACK
6
CONTINUOUS
10
6.61127
20
-4.70909
11
6.61707
21
-4.70521
0
LINE
8
BLACK
6
CONTINUOUS
10
6.61707
20
-4.70521
11
6.62352
21
-4.70254
0
LINE
8
BLACK
6
CONTINUOUS
10
6.62352
20
-4.70254
11
6.63037
21
-4.70118
0
LINE
8
BLACK
6
CONTINUOUS
10
6.63037
20
-4.70118
11
6.63735
21
-4.70118
0
LINE
8
BLACK
6
CONTINUOUS
10
6.63735
20
-4.70118
11
6.64419
21
-4.70254
0
LINE
8
BLACK
6
CONTINUOUS
10
5.16134
20
-4.72863
11
5.16505
21
-4.72976
0
LINE
8
BLACK
6
CONTINUOUS
10
5.16505
20
-4.72976
11
5.16847
21
-4.73158
0
LINE
8
BLACK
6
CONTINUOUS
10
5.16847
20
-4.73158
11
5.17147
21
-4.73404
0
LINE
8
BLACK
6
CONTINUOUS
10
5.17147
20
-4.73404
11
5.17393
21
-4.73704
0
LINE
8
BLACK
6
CONTINUOUS
10
5.17393
20
-4.73704
11
5.17575
21
-4.74046
0
LINE
8
BLACK
6
CONTINUOUS
10
5.17575
20
-4.74046
11
5.17688
21
-4.74417
0
LINE
8
BLACK
6
CONTINUOUS
10
5.17688
20
-4.74417
11
5.17726
21
-4.74803
0
LINE
8
BLACK
6
CONTINUOUS
10
5.17726
20
-4.74803
11
5.17688
21
-4.75189
0
LINE
8
BLACK
6
CONTINUOUS
10
5.17688
20
-4.75189
11
5.17575
21
-4.7556
0
LINE
8
BLACK
6
CONTINUOUS
10
5.17575
20
-4.7556
11
5.17393
21
-4.75902
0
LINE
8
BLACK
6
CONTINUOUS
10
5.17393
20
-4.75902
11
5.17147
21
-4.76202
0
LINE
8
BLACK
6
CONTINUOUS
10
5.17147
20
-4.76202
11
5.16847
21
-4.76448
0
LINE
8
BLACK
6
CONTINUOUS
10
5.16847
20
-4.76448
11
5.16505
21
-4.76631
0
LINE
8
BLACK
6
CONTINUOUS
10
5.16505
20
-4.76631
11
5.16134
21
-4.76743
0
LINE
8
BLACK
6
CONTINUOUS
10
5.16134
20
-4.76743
11
5.15845
21
-4.76772
0
LINE
8
BLACK
6
CONTINUOUS
10
5.15845
20
-4.76772
11
5.11714
21
-4.76772
0
LINE
8
BLACK
6
CONTINUOUS
10
5.11714
20
-4.76772
11
5.11425
21
-4.76743
0
LINE
8
BLACK
6
CONTINUOUS
10
5.11425
20
-4.76743
11
5.11054
21
-4.76631
0
LINE
8
BLACK
6
CONTINUOUS
10
5.11054
20
-4.76631
11
5.10712
21
-4.76448
0
LINE
8
BLACK
6
CONTINUOUS
10
5.10712
20
-4.76448
11
5.10412
21
-4.76202
0
LINE
8
BLACK
6
CONTINUOUS
10
5.10412
20
-4.76202
11
5.10166
21
-4.75902
0
LINE
8
BLACK
6
CONTINUOUS
10
5.10166
20
-4.75902
11
5.09984
21
-4.7556
0
LINE
8
BLACK
6
CONTINUOUS
10
5.09984
20
-4.7556
11
5.09871
21
-4.75189
0
LINE
8
BLACK
6
CONTINUOUS
10
5.09871
20
-4.75189
11
5.09833
21
-4.74803
0
LINE
8
BLACK
6
CONTINUOUS
10
5.09833
20
-4.74803
11
5.09871
21
-4.74417
0
LINE
8
BLACK
6
CONTINUOUS
10
5.09871
20
-4.74417
11
5.09984
21
-4.74046
0
LINE
8
BLACK
6
CONTINUOUS
10
5.09984
20
-4.74046
11
5.10166
21
-4.73704
0
LINE
8
BLACK
6
CONTINUOUS
10
5.10166
20
-4.73704
11
5.10412
21
-4.73404
0
LINE
8
BLACK
6
CONTINUOUS
10
5.10412
20
-4.73404
11
5.10712
21
-4.73158
0
LINE
8
BLACK
6
CONTINUOUS
10
5.10712
20
-4.73158
11
5.11054
21
-4.72976
0
LINE
8
BLACK
6
CONTINUOUS
10
5.11054
20
-4.72976
11
5.11425
21
-4.72863
0
LINE
8
BLACK
6
CONTINUOUS
10
5.11425
20
-4.72863
11
5.11714
21
-4.72835
0
LINE
8
BLACK
6
CONTINUOUS
10
5.11714
20
-4.72835
11
5.15845
21
-4.72835
0
LINE
8
BLACK
6
CONTINUOUS
10
5.15845
20
-4.72835
11
5.16134
21
-4.72863
0
LINE
8
BLACK
6
CONTINUOUS
10
5.75837
20
-4.67164
11
5.76482
21
-4.67431
0
LINE
8
BLACK
6
CONTINUOUS
10
5.76482
20
-4.67431
11
5.77062
21
-4.67819
0
LINE
8
BLACK
6
CONTINUOUS
10
5.77062
20
-4.67819
11
5.77555
21
-4.68312
0
LINE
8
BLACK
6
CONTINUOUS
10
5.77555
20
-4.68312
11
5.77943
21
-4.68892
0
LINE
8
BLACK
6
CONTINUOUS
10
5.77943
20
-4.68892
11
5.7821
21
-4.69537
0
LINE
8
BLACK
6
CONTINUOUS
10
5.7821
20
-4.69537
11
5.78346
21
-4.70222
0
LINE
8
BLACK
6
CONTINUOUS
10
5.78346
20
-4.70222
11
5.78346
21
-4.7092
0
LINE
8
BLACK
6
CONTINUOUS
10
5.78346
20
-4.7092
11
5.7821
21
-4.71604
0
LINE
8
BLACK
6
CONTINUOUS
10
5.7821
20
-4.71604
11
5.77943
21
-4.72249
0
LINE
8
BLACK
6
CONTINUOUS
10
5.77943
20
-4.72249
11
5.77555
21
-4.7283
0
LINE
8
BLACK
6
CONTINUOUS
10
5.77555
20
-4.7283
11
5.77062
21
-4.73323
0
LINE
8
BLACK
6
CONTINUOUS
10
5.77062
20
-4.73323
11
5.76482
21
-4.73711
0
LINE
8
BLACK
6
CONTINUOUS
10
5.76482
20
-4.73711
11
5.75837
21
-4.73978
0
LINE
8
BLACK
6
CONTINUOUS
10
5.75837
20
-4.73978
11
5.75152
21
-4.74114
0
LINE
8
BLACK
6
CONTINUOUS
10
5.75152
20
-4.74114
11
5.74454
21
-4.74114
0
LINE
8
BLACK
6
CONTINUOUS
10
5.74454
20
-4.74114
11
5.7377
21
-4.73978
0
LINE
8
BLACK
6
CONTINUOUS
10
5.7377
20
-4.73978
11
5.73125
21
-4.73711
0
LINE
8
BLACK
6
CONTINUOUS
10
5.73125
20
-4.73711
11
5.72544
21
-4.73323
0
LINE
8
BLACK
6
CONTINUOUS
10
5.72544
20
-4.73323
11
5.72051
21
-4.7283
0
LINE
8
BLACK
6
CONTINUOUS
10
5.72051
20
-4.7283
11
5.71663
21
-4.72249
0
LINE
8
BLACK
6
CONTINUOUS
10
5.71663
20
-4.72249
11
5.71396
21
-4.71604
0
LINE
8
BLACK
6
CONTINUOUS
10
5.71396
20
-4.71604
11
5.7126
21
-4.7092
0
LINE
8
BLACK
6
CONTINUOUS
10
5.7126
20
-4.7092
11
5.7126
21
-4.70222
0
LINE
8
BLACK
6
CONTINUOUS
10
5.7126
20
-4.70222
11
5.71396
21
-4.69537
0
LINE
8
BLACK
6
CONTINUOUS
10
5.71396
20
-4.69537
11
5.71663
21
-4.68892
0
LINE
8
BLACK
6
CONTINUOUS
10
5.71663
20
-4.68892
11
5.72051
21
-4.68312
0
LINE
8
BLACK
6
CONTINUOUS
10
5.72051
20
-4.68312
11
5.72544
21
-4.67819
0
LINE
8
BLACK
6
CONTINUOUS
10
5.72544
20
-4.67819
11
5.73125
21
-4.67431
0
LINE
8
BLACK
6
CONTINUOUS
10
5.73125
20
-4.67431
11
5.7377
21
-4.67164
0
LINE
8
BLACK
6
CONTINUOUS
10
5.7377
20
-4.67164
11
5.74454
21
-4.67028
0
LINE
8
BLACK
6
CONTINUOUS
10
5.74454
20
-4.67028
11
5.75152
21
-4.67028
0
LINE
8
BLACK
6
CONTINUOUS
10
5.75152
20
-4.67028
11
5.75837
21
-4.67164
0
LINE
8
BLACK
6
CONTINUOUS
10
6.17632
20
-4.59197
11
6.18186
21
-4.59365
0
LINE
8
BLACK
6
CONTINUOUS
10
6.18186
20
-4.59365
11
6.18697
21
-4.59638
0
LINE
8
BLACK
6
CONTINUOUS
10
6.18697
20
-4.59638
11
6.19144
21
-4.60005
0
LINE
8
BLACK
6
CONTINUOUS
10
6.19144
20
-4.60005
11
6.2332
21
-4.64181
0
LINE
8
BLACK
6
CONTINUOUS
10
6.2332
20
-4.64181
11
6.23687
21
-4.64628
0
LINE
8
BLACK
6
CONTINUOUS
10
6.23687
20
-4.64628
11
6.2396
21
-4.65139
0
LINE
8
BLACK
6
CONTINUOUS
10
6.2396
20
-4.65139
11
6.24128
21
-4.65693
0
LINE
8
BLACK
6
CONTINUOUS
10
6.24128
20
-4.65693
11
6.24185
21
-4.66269
0
LINE
8
BLACK
6
CONTINUOUS
10
6.24185
20
-4.66269
11
6.24128
21
-4.66845
0
LINE
8
BLACK
6
CONTINUOUS
10
6.24128
20
-4.66845
11
6.2396
21
-4.67399
0
LINE
8
BLACK
6
CONTINUOUS
10
6.2396
20
-4.67399
11
6.23687
21
-4.67909
0
LINE
8
BLACK
6
CONTINUOUS
10
6.23687
20
-4.67909
11
6.2332
21
-4.68357
0
LINE
8
BLACK
6
CONTINUOUS
10
6.2332
20
-4.68357
11
6.19144
21
-4.72532
0
LINE
8
BLACK
6
CONTINUOUS
10
6.19144
20
-4.72532
11
6.18697
21
-4.729
0
LINE
8
BLACK
6
CONTINUOUS
10
6.18697
20
-4.729
11
6.18186
21
-4.73173
0
LINE
8
BLACK
6
CONTINUOUS
10
6.18186
20
-4.73173
11
6.17632
21
-4.73341
0
LINE
8
BLACK
6
CONTINUOUS
10
6.17632
20
-4.73341
11
6.17056
21
-4.73397
0
LINE
8
BLACK
6
CONTINUOUS
10
6.17056
20
-4.73397
11
6.1648
21
-4.73341
0
LINE
8
BLACK
6
CONTINUOUS
10
6.1648
20
-4.73341
11
6.15926
21
-4.73173
0
LINE
8
BLACK
6
CONTINUOUS
10
6.15926
20
-4.73173
11
6.15416
21
-4.729
0
LINE
8
BLACK
6
CONTINUOUS
10
6.15416
20
-4.729
11
6.14968
21
-4.72532
0
LINE
8
BLACK
6
CONTINUOUS
10
6.14968
20
-4.72532
11
6.10792
21
-4.68357
0
LINE
8
BLACK
6
CONTINUOUS
10
6.10792
20
-4.68357
11
6.10425
21
-4.67909
0
LINE
8
BLACK
6
CONTINUOUS
10
6.10425
20
-4.67909
11
6.10152
21
-4.67399
0
LINE
8
BLACK
6
CONTINUOUS
10
6.10152
20
-4.67399
11
6.09984
21
-4.66845
0
LINE
8
BLACK
6
CONTINUOUS
10
6.09984
20
-4.66845
11
6.09928
21
-4.66269
0
LINE
8
BLACK
6
CONTINUOUS
10
6.09928
20
-4.66269
11
6.09984
21
-4.65693
0
LINE
8
BLACK
6
CONTINUOUS
10
6.09984
20
-4.65693
11
6.10152
21
-4.65139
0
LINE
8
BLACK
6
CONTINUOUS
10
6.10152
20
-4.65139
11
6.10425
21
-4.64628
0
LINE
8
BLACK
6
CONTINUOUS
10
6.10425
20
-4.64628
11
6.10792
21
-4.64181
0
LINE
8
BLACK
6
CONTINUOUS
10
6.10792
20
-4.64181
11
6.14968
21
-4.60005
0
LINE
8
BLACK
6
CONTINUOUS
10
6.14968
20
-4.60005
11
6.15416
21
-4.59638
0
LINE
8
BLACK
6
CONTINUOUS
10
6.15416
20
-4.59638
11
6.15926
21
-4.59365
0
LINE
8
BLACK
6
CONTINUOUS
10
6.15926
20
-4.59365
11
6.1648
21
-4.59197
0
LINE
8
BLACK
6
CONTINUOUS
10
6.1648
20
-4.59197
11
6.17056
21
-4.5914
0
LINE
8
BLACK
6
CONTINUOUS
10
6.17056
20
-4.5914
11
6.17632
21
-4.59197
0
LINE
8
BLACK
6
CONTINUOUS
10
5.14813
20
-4.64309
11
5.15458
21
-4.64576
0
LINE
8
BLACK
6
CONTINUOUS
10
5.15458
20
-4.64576
11
5.16038
21
-4.64964
0
LINE
8
BLACK
6
CONTINUOUS
10
5.16038
20
-4.64964
11
5.16532
21
-4.65458
0
LINE
8
BLACK
6
CONTINUOUS
10
5.16532
20
-4.65458
11
5.1692
21
-4.66038
0
LINE
8
BLACK
6
CONTINUOUS
10
5.1692
20
-4.66038
11
5.17187
21
-4.66683
0
LINE
8
BLACK
6
CONTINUOUS
10
5.17187
20
-4.66683
11
5.17323
21
-4.67368
0
LINE
8
BLACK
6
CONTINUOUS
10
5.17323
20
-4.67368
11
5.17323
21
-4.68066
0
LINE
8
BLACK
6
CONTINUOUS
10
5.17323
20
-4.68066
11
5.17187
21
-4.6875
0
LINE
8
BLACK
6
CONTINUOUS
10
5.17187
20
-4.6875
11
5.1692
21
-4.69395
0
LINE
8
BLACK
6
CONTINUOUS
10
5.1692
20
-4.69395
11
5.16532
21
-4.69975
0
LINE
8
BLACK
6
CONTINUOUS
10
5.16532
20
-4.69975
11
5.16038
21
-4.70469
0
LINE
8
BLACK
6
CONTINUOUS
10
5.16038
20
-4.70469
11
5.15458
21
-4.70857
0
LINE
8
BLACK
6
CONTINUOUS
10
5.15458
20
-4.70857
11
5.14813
21
-4.71124
0
LINE
8
BLACK
6
CONTINUOUS
10
5.14813
20
-4.71124
11
5.14129
21
-4.7126
0
LINE
8
BLACK
6
CONTINUOUS
10
5.14129
20
-4.7126
11
5.13431
21
-4.7126
0
LINE
8
BLACK
6
CONTINUOUS
10
5.13431
20
-4.7126
11
5.12746
21
-4.71124
0
LINE
8
BLACK
6
CONTINUOUS
10
5.12746
20
-4.71124
11
5.12101
21
-4.70857
0
LINE
8
BLACK
6
CONTINUOUS
10
5.12101
20
-4.70857
11
5.11521
21
-4.70469
0
LINE
8
BLACK
6
CONTINUOUS
10
5.11521
20
-4.70469
11
5.11027
21
-4.69975
0
LINE
8
BLACK
6
CONTINUOUS
10
5.11027
20
-4.69975
11
5.10639
21
-4.69395
0
LINE
8
BLACK
6
CONTINUOUS
10
5.10639
20
-4.69395
11
5.10372
21
-4.6875
0
LINE
8
BLACK
6
CONTINUOUS
10
5.10372
20
-4.6875
11
5.10236
21
-4.68066
0
LINE
8
BLACK
6
CONTINUOUS
10
5.10236
20
-4.68066
11
5.10236
21
-4.67368
0
LINE
8
BLACK
6
CONTINUOUS
10
5.10236
20
-4.67368
11
5.10372
21
-4.66683
0
LINE
8
BLACK
6
CONTINUOUS
10
5.10372
20
-4.66683
11
5.10639
21
-4.66038
0
LINE
8
BLACK
6
CONTINUOUS
10
5.10639
20
-4.66038
11
5.11027
21
-4.65458
0
LINE
8
BLACK
6
CONTINUOUS
10
5.11027
20
-4.65458
11
5.11521
21
-4.64964
0
LINE
8
BLACK
6
CONTINUOUS
10
5.11521
20
-4.64964
11
5.12101
21
-4.64576
0
LINE
8
BLACK
6
CONTINUOUS
10
5.12101
20
-4.64576
11
5.12746
21
-4.64309
0
LINE
8
BLACK
6
CONTINUOUS
10
5.12746
20
-4.64309
11
5.13431
21
-4.64173
0
LINE
8
BLACK
6
CONTINUOUS
10
5.13431
20
-4.64173
11
5.14129
21
-4.64173
0
LINE
8
BLACK
6
CONTINUOUS
10
5.14129
20
-4.64173
11
5.14813
21
-4.64309
0
LINE
8
BLACK
6
CONTINUOUS
10
6.52751
20
-4.61239
11
6.52936
21
-4.61295
0
LINE
8
BLACK
6
CONTINUOUS
10
6.52936
20
-4.61295
11
6.53106
21
-4.61386
0
LINE
8
BLACK
6
CONTINUOUS
10
6.53106
20
-4.61386
11
6.53255
21
-4.61509
0
LINE
8
BLACK
6
CONTINUOUS
10
6.53255
20
-4.61509
11
6.53377
21
-4.61658
0
LINE
8
BLACK
6
CONTINUOUS
10
6.53377
20
-4.61658
11
6.53468
21
-4.61828
0
LINE
8
BLACK
6
CONTINUOUS
10
6.53468
20
-4.61828
11
6.53524
21
-4.62013
0
LINE
8
BLACK
6
CONTINUOUS
10
6.53524
20
-4.62013
11
6.53543
21
-4.62205
0
LINE
8
BLACK
6
CONTINUOUS
10
6.53543
20
-4.62205
11
6.53543
21
-4.66929
0
LINE
8
BLACK
6
CONTINUOUS
10
6.53543
20
-4.66929
11
6.53524
21
-4.67121
0
LINE
8
BLACK
6
CONTINUOUS
10
6.53524
20
-4.67121
11
6.53468
21
-4.67306
0
LINE
8
BLACK
6
CONTINUOUS
10
6.53468
20
-4.67306
11
6.53377
21
-4.67476
0
LINE
8
BLACK
6
CONTINUOUS
10
6.53377
20
-4.67476
11
6.53255
21
-4.67625
0
LINE
8
BLACK
6
CONTINUOUS
10
6.53255
20
-4.67625
11
6.53106
21
-4.67748
0
LINE
8
BLACK
6
CONTINUOUS
10
6.53106
20
-4.67748
11
6.52936
21
-4.67838
0
LINE
8
BLACK
6
CONTINUOUS
10
6.52936
20
-4.67838
11
6.52751
21
-4.67894
0
LINE
8
BLACK
6
CONTINUOUS
10
6.52751
20
-4.67894
11
6.52559
21
-4.67913
0
LINE
8
BLACK
6
CONTINUOUS
10
6.52559
20
-4.67913
11
6.46654
21
-4.67913
0
LINE
8
BLACK
6
CONTINUOUS
10
6.46654
20
-4.67913
11
6.46462
21
-4.67894
0
LINE
8
BLACK
6
CONTINUOUS
10
6.46462
20
-4.67894
11
6.46277
21
-4.67838
0
LINE
8
BLACK
6
CONTINUOUS
10
6.46277
20
-4.67838
11
6.46107
21
-4.67748
0
LINE
8
BLACK
6
CONTINUOUS
10
6.46107
20
-4.67748
11
6.45958
21
-4.67625
0
LINE
8
BLACK
6
CONTINUOUS
10
6.45958
20
-4.67625
11
6.45835
21
-4.67476
0
LINE
8
BLACK
6
CONTINUOUS
10
6.45835
20
-4.67476
11
6.45744
21
-4.67306
0
LINE
8
BLACK
6
CONTINUOUS
10
6.45744
20
-4.67306
11
6.45688
21
-4.67121
0
LINE
8
BLACK
6
CONTINUOUS
10
6.45688
20
-4.67121
11
6.45669
21
-4.66929
0
LINE
8
BLACK
6
CONTINUOUS
10
6.45669
20
-4.66929
11
6.45669
21
-4.62205
0
LINE
8
BLACK
6
CONTINUOUS
10
6.45669
20
-4.62205
11
6.45688
21
-4.62013
0
LINE
8
BLACK
6
CONTINUOUS
10
6.45688
20
-4.62013
11
6.45744
21
-4.61828
0
LINE
8
BLACK
6
CONTINUOUS
10
6.45744
20
-4.61828
11
6.45835
21
-4.61658
0
LINE
8
BLACK
6
CONTINUOUS
10
6.45835
20
-4.61658
11
6.45958
21
-4.61509
0
LINE
8
BLACK
6
CONTINUOUS
10
6.45958
20
-4.61509
11
6.46107
21
-4.61386
0
LINE
8
BLACK
6
CONTINUOUS
10
6.46107
20
-4.61386
11
6.46277
21
-4.61295
0
LINE
8
BLACK
6
CONTINUOUS
10
6.46277
20
-4.61295
11
6.46462
21
-4.61239
0
LINE
8
BLACK
6
CONTINUOUS
10
6.46462
20
-4.61239
11
6.46654
21
-4.6122
0
LINE
8
BLACK
6
CONTINUOUS
10
6.46654
20
-4.6122
11
6.52559
21
-4.6122
0
LINE
8
BLACK
6
CONTINUOUS
10
6.52559
20
-4.6122
11
6.52751
21
-4.61239
0
LINE
8
BLACK
6
CONTINUOUS
10
6.6624
20
-4.6437
11
6.60531
21
-4.6437
0
LINE
8
BLACK
6
CONTINUOUS
10
6.60531
20
-4.6437
11
6.60531
21
-4.60433
0
LINE
8
BLACK
6
CONTINUOUS
10
6.60531
20
-4.60433
11
6.6624
21
-4.60433
0
LINE
8
BLACK
6
CONTINUOUS
10
6.6624
20
-4.60433
11
6.6624
21
-4.6437
0
LINE
8
BLACK
6
CONTINUOUS
10
5.15262
20
-4.55169
11
5.15929
21
-4.55372
0
LINE
8
BLACK
6
CONTINUOUS
10
5.15929
20
-4.55372
11
5.16545
21
-4.55701
0
LINE
8
BLACK
6
CONTINUOUS
10
5.16545
20
-4.55701
11
5.17085
21
-4.56144
0
LINE
8
BLACK
6
CONTINUOUS
10
5.17085
20
-4.56144
11
5.17527
21
-4.56683
0
LINE
8
BLACK
6
CONTINUOUS
10
5.17527
20
-4.56683
11
5.17856
21
-4.57299
0
LINE
8
BLACK
6
CONTINUOUS
10
5.17856
20
-4.57299
11
5.18059
21
-4.57967
0
LINE
8
BLACK
6
CONTINUOUS
10
5.18059
20
-4.57967
11
5.18127
21
-4.58661
0
LINE
8
BLACK
6
CONTINUOUS
10
5.18127
20
-4.58661
11
5.18059
21
-4.59356
0
LINE
8
BLACK
6
CONTINUOUS
10
5.18059
20
-4.59356
11
5.17856
21
-4.60024
0
LINE
8
BLACK
6
CONTINUOUS
10
5.17856
20
-4.60024
11
5.17527
21
-4.60639
0
LINE
8
BLACK
6
CONTINUOUS
10
5.17527
20
-4.60639
11
5.17085
21
-4.61179
0
LINE
8
BLACK
6
CONTINUOUS
10
5.17085
20
-4.61179
11
5.16545
21
-4.61622
0
LINE
8
BLACK
6
CONTINUOUS
10
5.16545
20
-4.61622
11
5.15929
21
-4.61951
0
LINE
8
BLACK
6
CONTINUOUS
10
5.15929
20
-4.61951
11
5.15262
21
-4.62153
0
LINE
8
BLACK
6
CONTINUOUS
10
5.15262
20
-4.62153
11
5.14741
21
-4.62205
0
LINE
8
BLACK
6
CONTINUOUS
10
5.14741
20
-4.62205
11
5.12818
21
-4.62205
0
LINE
8
BLACK
6
CONTINUOUS
10
5.12818
20
-4.62205
11
5.12298
21
-4.62153
0
LINE
8
BLACK
6
CONTINUOUS
10
5.12298
20
-4.62153
11
5.1163
21
-4.61951
0
LINE
8
BLACK
6
CONTINUOUS
10
5.1163
20
-4.61951
11
5.11014
21
-4.61622
0
LINE
8
BLACK
6
CONTINUOUS
10
5.11014
20
-4.61622
11
5.10475
21
-4.61179
0
LINE
8
BLACK
6
CONTINUOUS
10
5.10475
20
-4.61179
11
5.10032
21
-4.60639
0
LINE
8
BLACK
6
CONTINUOUS
10
5.10032
20
-4.60639
11
5.09703
21
-4.60024
0
LINE
8
BLACK
6
CONTINUOUS
10
5.09703
20
-4.60024
11
5.095
21
-4.59356
0
LINE
8
BLACK
6
CONTINUOUS
10
5.095
20
-4.59356
11
5.09432
21
-4.58661
0
LINE
8
BLACK
6
CONTINUOUS
10
5.09432
20
-4.58661
11
5.095
21
-4.57967
0
LINE
8
BLACK
6
CONTINUOUS
10
5.095
20
-4.57967
11
5.09703
21
-4.57299
0
LINE
8
BLACK
6
CONTINUOUS
10
5.09703
20
-4.57299
11
5.10032
21
-4.56683
0
LINE
8
BLACK
6
CONTINUOUS
10
5.10032
20
-4.56683
11
5.10475
21
-4.56144
0
LINE
8
BLACK
6
CONTINUOUS
10
5.10475
20
-4.56144
11
5.11014
21
-4.55701
0
LINE
8
BLACK
6
CONTINUOUS
10
5.11014
20
-4.55701
11
5.1163
21
-4.55372
0
LINE
8
BLACK
6
CONTINUOUS
10
5.1163
20
-4.55372
11
5.12298
21
-4.55169
0
LINE
8
BLACK
6
CONTINUOUS
10
5.12298
20
-4.55169
11
5.12818
21
-4.55118
0
LINE
8
BLACK
6
CONTINUOUS
10
5.12818
20
-4.55118
11
5.14741
21
-4.55118
0
LINE
8
BLACK
6
CONTINUOUS
10
5.14741
20
-4.55118
11
5.15262
21
-4.55169
0
LINE
8
BLACK
6
CONTINUOUS
10
6.50853
20
-4.51426
11
6.51484
21
-4.51618
0
LINE
8
BLACK
6
CONTINUOUS
10
6.51484
20
-4.51618
11
6.52065
21
-4.51928
0
LINE
8
BLACK
6
CONTINUOUS
10
6.52065
20
-4.51928
11
6.52575
21
-4.52347
0
LINE
8
BLACK
6
CONTINUOUS
10
6.52575
20
-4.52347
11
6.52993
21
-4.52856
0
LINE
8
BLACK
6
CONTINUOUS
10
6.52993
20
-4.52856
11
6.53304
21
-4.53438
0
LINE
8
BLACK
6
CONTINUOUS
10
6.53304
20
-4.53438
11
6.53495
21
-4.54068
0
LINE
8
BLACK
6
CONTINUOUS
10
6.53495
20
-4.54068
11
6.53559
21
-4.54724
0
LINE
8
BLACK
6
CONTINUOUS
10
6.53559
20
-4.54724
11
6.53495
21
-4.5538
0
LINE
8
BLACK
6
CONTINUOUS
10
6.53495
20
-4.5538
11
6.53304
21
-4.56011
0
LINE
8
BLACK
6
CONTINUOUS
10
6.53304
20
-4.56011
11
6.52993
21
-4.56593
0
LINE
8
BLACK
6
CONTINUOUS
10
6.52993
20
-4.56593
11
6.52575
21
-4.57102
0
LINE
8
BLACK
6
CONTINUOUS
10
6.52575
20
-4.57102
11
6.52065
21
-4.5752
0
LINE
8
BLACK
6
CONTINUOUS
10
6.52065
20
-4.5752
11
6.51484
21
-4.57831
0
LINE
8
BLACK
6
CONTINUOUS
10
6.51484
20
-4.57831
11
6.50853
21
-4.58022
0
LINE
8
BLACK
6
CONTINUOUS
10
6.50853
20
-4.58022
11
6.50361
21
-4.58071
0
LINE
8
BLACK
6
CONTINUOUS
10
6.50361
20
-4.58071
11
6.48851
21
-4.58071
0
LINE
8
BLACK
6
CONTINUOUS
10
6.48851
20
-4.58071
11
6.4836
21
-4.58022
0
LINE
8
BLACK
6
CONTINUOUS
10
6.4836
20
-4.58022
11
6.47729
21
-4.57831
0
LINE
8
BLACK
6
CONTINUOUS
10
6.47729
20
-4.57831
11
6.47148
21
-4.5752
0
LINE
8
BLACK
6
CONTINUOUS
10
6.47148
20
-4.5752
11
6.46638
21
-4.57102
0
LINE
8
BLACK
6
CONTINUOUS
10
6.46638
20
-4.57102
11
6.4622
21
-4.56593
0
LINE
8
BLACK
6
CONTINUOUS
10
6.4622
20
-4.56593
11
6.45909
21
-4.56011
0
LINE
8
BLACK
6
CONTINUOUS
10
6.45909
20
-4.56011
11
6.45718
21
-4.5538
0
LINE
8
BLACK
6
CONTINUOUS
10
6.45718
20
-4.5538
11
6.45653
21
-4.54724
0
LINE
8
BLACK
6
CONTINUOUS
10
6.45653
20
-4.54724
11
6.45718
21
-4.54068
0
LINE
8
BLACK
6
CONTINUOUS
10
6.45718
20
-4.54068
11
6.45909
21
-4.53438
0
LINE
8
BLACK
6
CONTINUOUS
10
6.45909
20
-4.53438
11
6.4622
21
-4.52856
0
LINE
8
BLACK
6
CONTINUOUS
10
6.4622
20
-4.52856
11
6.46638
21
-4.52347
0
LINE
8
BLACK
6
CONTINUOUS
10
6.46638
20
-4.52347
11
6.47148
21
-4.51928
0
LINE
8
BLACK
6
CONTINUOUS
10
6.47148
20
-4.51928
11
6.47729
21
-4.51618
0
LINE
8
BLACK
6
CONTINUOUS
10
6.47729
20
-4.51618
11
6.4836
21
-4.51426
0
LINE
8
BLACK
6
CONTINUOUS
10
6.4836
20
-4.51426
11
6.48851
21
-4.51378
0
LINE
8
BLACK
6
CONTINUOUS
10
6.48851
20
-4.51378
11
6.50361
21
-4.51378
0
LINE
8
BLACK
6
CONTINUOUS
10
6.50361
20
-4.51378
11
6.50853
21
-4.51426
0
LINE
8
BLACK
6
CONTINUOUS
10
6.6624
20
-4.5689
11
6.60531
21
-4.5689
0
LINE
8
BLACK
6
CONTINUOUS
10
6.60531
20
-4.5689
11
6.60531
21
-4.52953
0
LINE
8
BLACK
6
CONTINUOUS
10
6.60531
20
-4.52953
11
6.6624
21
-4.52953
0
LINE
8
BLACK
6
CONTINUOUS
10
6.6624
20
-4.52953
11
6.6624
21
-4.5689
0
LINE
8
BLACK
6
CONTINUOUS
10
5.90749
20
-4.10357
11
5.95048
21
-4.12137
0
LINE
8
BLACK
6
CONTINUOUS
10
5.95048
20
-4.12137
11
5.98916
21
-4.14722
0
LINE
8
BLACK
6
CONTINUOUS
10
5.98916
20
-4.14722
11
6.02207
21
-4.18013
0
LINE
8
BLACK
6
CONTINUOUS
10
6.02207
20
-4.18013
11
6.04792
21
-4.21882
0
LINE
8
BLACK
6
CONTINUOUS
10
6.04792
20
-4.21882
11
6.06573
21
-4.26181
0
LINE
8
BLACK
6
CONTINUOUS
10
6.06573
20
-4.26181
11
6.0748
21
-4.30744
0
LINE
8
BLACK
6
CONTINUOUS
10
6.0748
20
-4.30744
11
6.0748
21
-4.35397
0
LINE
8
BLACK
6
CONTINUOUS
10
6.0748
20
-4.35397
11
6.06573
21
-4.39961
0
LINE
8
BLACK
6
CONTINUOUS
10
6.06573
20
-4.39961
11
6.04792
21
-4.4426
0
LINE
8
BLACK
6
CONTINUOUS
10
6.04792
20
-4.4426
11
6.02207
21
-4.48129
0
LINE
8
BLACK
6
CONTINUOUS
10
6.02207
20
-4.48129
11
5.98916
21
-4.51419
0
LINE
8
BLACK
6
CONTINUOUS
10
5.98916
20
-4.51419
11
5.95048
21
-4.54004
0
LINE
8
BLACK
6
CONTINUOUS
10
5.95048
20
-4.54004
11
5.90749
21
-4.55785
0
LINE
8
BLACK
6
CONTINUOUS
10
5.90749
20
-4.55785
11
5.86185
21
-4.56693
0
LINE
8
BLACK
6
CONTINUOUS
10
5.86185
20
-4.56693
11
5.81532
21
-4.56693
0
LINE
8
BLACK
6
CONTINUOUS
10
5.81532
20
-4.56693
11
5.76968
21
-4.55785
0
LINE
8
BLACK
6
CONTINUOUS
10
5.76968
20
-4.55785
11
5.72669
21
-4.54004
0
LINE
8
BLACK
6
CONTINUOUS
10
5.72669
20
-4.54004
11
5.688
21
-4.51419
0
LINE
8
BLACK
6
CONTINUOUS
10
5.688
20
-4.51419
11
5.6551
21
-4.48129
0
LINE
8
BLACK
6
CONTINUOUS
10
5.6551
20
-4.48129
11
5.62925
21
-4.4426
0
LINE
8
BLACK
6
CONTINUOUS
10
5.62925
20
-4.4426
11
5.61144
21
-4.39961
0
LINE
8
BLACK
6
CONTINUOUS
10
5.61144
20
-4.39961
11
5.60236
21
-4.35397
0
LINE
8
BLACK
6
CONTINUOUS
10
5.60236
20
-4.35397
11
5.60236
21
-4.30744
0
LINE
8
BLACK
6
CONTINUOUS
10
5.60236
20
-4.30744
11
5.61144
21
-4.26181
0
LINE
8
BLACK
6
CONTINUOUS
10
5.61144
20
-4.26181
11
5.62925
21
-4.21882
0
LINE
8
BLACK
6
CONTINUOUS
10
5.62925
20
-4.21882
11
5.6551
21
-4.18013
0
LINE
8
BLACK
6
CONTINUOUS
10
5.6551
20
-4.18013
11
5.688
21
-4.14722
0
LINE
8
BLACK
6
CONTINUOUS
10
5.688
20
-4.14722
11
5.72669
21
-4.12137
0
LINE
8
BLACK
6
CONTINUOUS
10
5.72669
20
-4.12137
11
5.76968
21
-4.10357
0
LINE
8
BLACK
6
CONTINUOUS
10
5.76968
20
-4.10357
11
5.81532
21
-4.09449
0
LINE
8
BLACK
6
CONTINUOUS
10
5.81532
20
-4.09449
11
5.86185
21
-4.09449
0
LINE
8
BLACK
6
CONTINUOUS
10
5.86185
20
-4.09449
11
5.90749
21
-4.10357
0
LINE
8
BLACK
6
CONTINUOUS
10
5.14813
20
-4.46199
11
5.15458
21
-4.46466
0
LINE
8
BLACK
6
CONTINUOUS
10
5.15458
20
-4.46466
11
5.16038
21
-4.46854
0
LINE
8
BLACK
6
CONTINUOUS
10
5.16038
20
-4.46854
11
5.16532
21
-4.47348
0
LINE
8
BLACK
6
CONTINUOUS
10
5.16532
20
-4.47348
11
5.1692
21
-4.47928
0
LINE
8
BLACK
6
CONTINUOUS
10
5.1692
20
-4.47928
11
5.17187
21
-4.48573
0
LINE
8
BLACK
6
CONTINUOUS
10
5.17187
20
-4.48573
11
5.17323
21
-4.49257
0
LINE
8
BLACK
6
CONTINUOUS
10
5.17323
20
-4.49257
11
5.17323
21
-4.49955
0
LINE
8
BLACK
6
CONTINUOUS
10
5.17323
20
-4.49955
11
5.17187
21
-4.5064
0
LINE
8
BLACK
6
CONTINUOUS
10
5.17187
20
-4.5064
11
5.1692
21
-4.51285
0
LINE
8
BLACK
6
CONTINUOUS
10
5.1692
20
-4.51285
11
5.16532
21
-4.51865
0
LINE
8
BLACK
6
CONTINUOUS
10
5.16532
20
-4.51865
11
5.16038
21
-4.52359
0
LINE
8
BLACK
6
CONTINUOUS
10
5.16038
20
-4.52359
11
5.15458
21
-4.52746
0
LINE
8
BLACK
6
CONTINUOUS
10
5.15458
20
-4.52746
11
5.14813
21
-4.53013
0
LINE
8
BLACK
6
CONTINUOUS
10
5.14813
20
-4.53013
11
5.14129
21
-4.5315
0
LINE
8
BLACK
6
CONTINUOUS
10
5.14129
20
-4.5315
11
5.13431
21
-4.5315
0
LINE
8
BLACK
6
CONTINUOUS
10
5.13431
20
-4.5315
11
5.12746
21
-4.53013
0
LINE
8
BLACK
6
CONTINUOUS
10
5.12746
20
-4.53013
11
5.12101
21
-4.52746
0
LINE
8
BLACK
6
CONTINUOUS
10
5.12101
20
-4.52746
11
5.11521
21
-4.52359
0
LINE
8
BLACK
6
CONTINUOUS
10
5.11521
20
-4.52359
11
5.11027
21
-4.51865
0
LINE
8
BLACK
6
CONTINUOUS
10
5.11027
20
-4.51865
11
5.10639
21
-4.51285
0
LINE
8
BLACK
6
CONTINUOUS
10
5.10639
20
-4.51285
11
5.10372
21
-4.5064
0
LINE
8
BLACK
6
CONTINUOUS
10
5.10372
20
-4.5064
11
5.10236
21
-4.49955
0
LINE
8
BLACK
6
CONTINUOUS
10
5.10236
20
-4.49955
11
5.10236
21
-4.49257
0
LINE
8
BLACK
6
CONTINUOUS
10
5.10236
20
-4.49257
11
5.10372
21
-4.48573
0
LINE
8
BLACK
6
CONTINUOUS
10
5.10372
20
-4.48573
11
5.10639
21
-4.47928
0
LINE
8
BLACK
6
CONTINUOUS
10
5.10639
20
-4.47928
11
5.11027
21
-4.47348
0
LINE
8
BLACK
6
CONTINUOUS
10
5.11027
20
-4.47348
11
5.11521
21
-4.46854
0
LINE
8
BLACK
6
CONTINUOUS
10
5.11521
20
-4.46854
11
5.12101
21
-4.46466
0
LINE
8
BLACK
6
CONTINUOUS
10
5.12101
20
-4.46466
11
5.12746
21
-4.46199
0
LINE
8
BLACK
6
CONTINUOUS
10
5.12746
20
-4.46199
11
5.13431
21
-4.46063
0
LINE
8
BLACK
6
CONTINUOUS
10
5.13431
20
-4.46063
11
5.14129
21
-4.46063
0
LINE
8
BLACK
6
CONTINUOUS
10
5.14129
20
-4.46063
11
5.14813
21
-4.46199
0
LINE
8
BLACK
6
CONTINUOUS
10
6.64419
20
-4.40254
11
6.65064
21
-4.40521
0
LINE
8
BLACK
6
CONTINUOUS
10
6.65064
20
-4.40521
11
6.65645
21
-4.40909
0
LINE
8
BLACK
6
CONTINUOUS
10
6.65645
20
-4.40909
11
6.66138
21
-4.41403
0
LINE
8
BLACK
6
CONTINUOUS
10
6.66138
20
-4.41403
11
6.66526
21
-4.41983
0
LINE
8
BLACK
6
CONTINUOUS
10
6.66526
20
-4.41983
11
6.66793
21
-4.42628
0
LINE
8
BLACK
6
CONTINUOUS
10
6.66793
20
-4.42628
11
6.66929
21
-4.43312
0
LINE
8
BLACK
6
CONTINUOUS
10
6.66929
20
-4.43312
11
6.66929
21
-4.4401
0
LINE
8
BLACK
6
CONTINUOUS
10
6.66929
20
-4.4401
11
6.66793
21
-4.44695
0
LINE
8
BLACK
6
CONTINUOUS
10
6.66793
20
-4.44695
11
6.66526
21
-4.4534
0
LINE
8
BLACK
6
CONTINUOUS
10
6.66526
20
-4.4534
11
6.66138
21
-4.4592
0
LINE
8
BLACK
6
CONTINUOUS
10
6.66138
20
-4.4592
11
6.65645
21
-4.46414
0
LINE
8
BLACK
6
CONTINUOUS
10
6.65645
20
-4.46414
11
6.65064
21
-4.46801
0
LINE
8
BLACK
6
CONTINUOUS
10
6.65064
20
-4.46801
11
6.64419
21
-4.47069
0
LINE
8
BLACK
6
CONTINUOUS
10
6.64419
20
-4.47069
11
6.63735
21
-4.47205
0
LINE
8
BLACK
6
CONTINUOUS
10
6.63735
20
-4.47205
11
6.63037
21
-4.47205
0
LINE
8
BLACK
6
CONTINUOUS
10
6.63037
20
-4.47205
11
6.62352
21
-4.47069
0
LINE
8
BLACK
6
CONTINUOUS
10
6.62352
20
-4.47069
11
6.61707
21
-4.46801
0
LINE
8
BLACK
6
CONTINUOUS
10
6.61707
20
-4.46801
11
6.61127
21
-4.46414
0
LINE
8
BLACK
6
CONTINUOUS
10
6.61127
20
-4.46414
11
6.60634
21
-4.4592
0
LINE
8
BLACK
6
CONTINUOUS
10
6.60634
20
-4.4592
11
6.60246
21
-4.4534
0
LINE
8
BLACK
6
CONTINUOUS
10
6.60246
20
-4.4534
11
6.59979
21
-4.44695
0
LINE
8
BLACK
6
CONTINUOUS
10
6.59979
20
-4.44695
11
6.59843
21
-4.4401
0
LINE
8
BLACK
6
CONTINUOUS
10
6.59843
20
-4.4401
11
6.59843
21
-4.43312
0
LINE
8
BLACK
6
CONTINUOUS
10
6.59843
20
-4.43312
11
6.59979
21
-4.42628
0
LINE
8
BLACK
6
CONTINUOUS
10
6.59979
20
-4.42628
11
6.60246
21
-4.41983
0
LINE
8
BLACK
6
CONTINUOUS
10
6.60246
20
-4.41983
11
6.60634
21
-4.41403
0
LINE
8
BLACK
6
CONTINUOUS
10
6.60634
20
-4.41403
11
6.61127
21
-4.40909
0
LINE
8
BLACK
6
CONTINUOUS
10
6.61127
20
-4.40909
11
6.61707
21
-4.40521
0
LINE
8
BLACK
6
CONTINUOUS
10
6.61707
20
-4.40521
11
6.62352
21
-4.40254
0
LINE
8
BLACK
6
CONTINUOUS
10
6.62352
20
-4.40254
11
6.63037
21
-4.40118
0
LINE
8
BLACK
6
CONTINUOUS
10
6.63037
20
-4.40118
11
6.63735
21
-4.40118
0
LINE
8
BLACK
6
CONTINUOUS
10
6.63735
20
-4.40118
11
6.64419
21
-4.40254
0
LINE
8
BLACK
6
CONTINUOUS
10
5.16134
20
-4.4058
11
5.16505
21
-4.40692
0
LINE
8
BLACK
6
CONTINUOUS
10
5.16505
20
-4.40692
11
5.16847
21
-4.40875
0
LINE
8
BLACK
6
CONTINUOUS
10
5.16847
20
-4.40875
11
5.17147
21
-4.41121
0
LINE
8
BLACK
6
CONTINUOUS
10
5.17147
20
-4.41121
11
5.17393
21
-4.41421
0
LINE
8
BLACK
6
CONTINUOUS
10
5.17393
20
-4.41421
11
5.17575
21
-4.41763
0
LINE
8
BLACK
6
CONTINUOUS
10
5.17575
20
-4.41763
11
5.17688
21
-4.42134
0
LINE
8
BLACK
6
CONTINUOUS
10
5.17688
20
-4.42134
11
5.17726
21
-4.4252
0
LINE
8
BLACK
6
CONTINUOUS
10
5.17726
20
-4.4252
11
5.17688
21
-4.42906
0
LINE
8
BLACK
6
CONTINUOUS
10
5.17688
20
-4.42906
11
5.17575
21
-4.43277
0
LINE
8
BLACK
6
CONTINUOUS
10
5.17575
20
-4.43277
11
5.17393
21
-4.43619
0
LINE
8
BLACK
6
CONTINUOUS
10
5.17393
20
-4.43619
11
5.17147
21
-4.43918
0
LINE
8
BLACK
6
CONTINUOUS
10
5.17147
20
-4.43918
11
5.16847
21
-4.44164
0
LINE
8
BLACK
6
CONTINUOUS
10
5.16847
20
-4.44164
11
5.16505
21
-4.44347
0
LINE
8
BLACK
6
CONTINUOUS
10
5.16505
20
-4.44347
11
5.16134
21
-4.4446
0
LINE
8
BLACK
6
CONTINUOUS
10
5.16134
20
-4.4446
11
5.15845
21
-4.44488
0
LINE
8
BLACK
6
CONTINUOUS
10
5.15845
20
-4.44488
11
5.11714
21
-4.44488
0
LINE
8
BLACK
6
CONTINUOUS
10
5.11714
20
-4.44488
11
5.11425
21
-4.4446
0
LINE
8
BLACK
6
CONTINUOUS
10
5.11425
20
-4.4446
11
5.11054
21
-4.44347
0
LINE
8
BLACK
6
CONTINUOUS
10
5.11054
20
-4.44347
11
5.10712
21
-4.44164
0
LINE
8
BLACK
6
CONTINUOUS
10
5.10712
20
-4.44164
11
5.10412
21
-4.43918
0
LINE
8
BLACK
6
CONTINUOUS
10
5.10412
20
-4.43918
11
5.10166
21
-4.43619
0
LINE
8
BLACK
6
CONTINUOUS
10
5.10166
20
-4.43619
11
5.09984
21
-4.43277
0
LINE
8
BLACK
6
CONTINUOUS
10
5.09984
20
-4.43277
11
5.09871
21
-4.42906
0
LINE
8
BLACK
6
CONTINUOUS
10
5.09871
20
-4.42906
11
5.09833
21
-4.4252
0
LINE
8
BLACK
6
CONTINUOUS
10
5.09833
20
-4.4252
11
5.09871
21
-4.42134
0
LINE
8
BLACK
6
CONTINUOUS
10
5.09871
20
-4.42134
11
5.09984
21
-4.41763
0
LINE
8
BLACK
6
CONTINUOUS
10
5.09984
20
-4.41763
11
5.10166
21
-4.41421
0
LINE
8
BLACK
6
CONTINUOUS
10
5.10166
20
-4.41421
11
5.10412
21
-4.41121
0
LINE
8
BLACK
6
CONTINUOUS
10
5.10412
20
-4.41121
11
5.10712
21
-4.40875
0
LINE
8
BLACK
6
CONTINUOUS
10
5.10712
20
-4.40875
11
5.11054
21
-4.40692
0
LINE
8
BLACK
6
CONTINUOUS
10
5.11054
20
-4.40692
11
5.11425
21
-4.4058
0
LINE
8
BLACK
6
CONTINUOUS
10
5.11425
20
-4.4058
11
5.11714
21
-4.40551
0
LINE
8
BLACK
6
CONTINUOUS
10
5.11714
20
-4.40551
11
5.15845
21
-4.40551
0
LINE
8
BLACK
6
CONTINUOUS
10
5.15845
20
-4.40551
11
5.16134
21
-4.4058
0
LINE
8
BLACK
6
CONTINUOUS
10
5.5483
20
-4.28002
11
5.5531
21
-4.28148
0
LINE
8
BLACK
6
CONTINUOUS
10
5.5531
20
-4.28148
11
5.55752
21
-4.28384
0
LINE
8
BLACK
6
CONTINUOUS
10
5.55752
20
-4.28384
11
5.5614
21
-4.28702
0
LINE
8
BLACK
6
CONTINUOUS
10
5.5614
20
-4.28702
11
5.56458
21
-4.2909
0
LINE
8
BLACK
6
CONTINUOUS
10
5.56458
20
-4.2909
11
5.56695
21
-4.29533
0
LINE
8
BLACK
6
CONTINUOUS
10
5.56695
20
-4.29533
11
5.56841
21
-4.30013
0
LINE
8
BLACK
6
CONTINUOUS
10
5.56841
20
-4.30013
11
5.5689
21
-4.30512
0
LINE
8
BLACK
6
CONTINUOUS
10
5.5689
20
-4.30512
11
5.5689
21
-4.3563
0
LINE
8
BLACK
6
CONTINUOUS
10
5.5689
20
-4.3563
11
5.56841
21
-4.36129
0
LINE
8
BLACK
6
CONTINUOUS
10
5.56841
20
-4.36129
11
5.56695
21
-4.36609
0
LINE
8
BLACK
6
CONTINUOUS
10
5.56695
20
-4.36609
11
5.56458
21
-4.37052
0
LINE
8
BLACK
6
CONTINUOUS
10
5.56458
20
-4.37052
11
5.5614
21
-4.37439
0
LINE
8
BLACK
6
CONTINUOUS
10
5.5614
20
-4.37439
11
5.55752
21
-4.37758
0
LINE
8
BLACK
6
CONTINUOUS
10
5.55752
20
-4.37758
11
5.5531
21
-4.37994
0
LINE
8
BLACK
6
CONTINUOUS
10
5.5531
20
-4.37994
11
5.5483
21
-4.3814
0
LINE
8
BLACK
6
CONTINUOUS
10
5.5483
20
-4.3814
11
5.54331
21
-4.38189
0
LINE
8
BLACK
6
CONTINUOUS
10
5.54331
20
-4.38189
11
5.44094
21
-4.38189
0
LINE
8
BLACK
6
CONTINUOUS
10
5.44094
20
-4.38189
11
5.43595
21
-4.3814
0
LINE
8
BLACK
6
CONTINUOUS
10
5.43595
20
-4.3814
11
5.43115
21
-4.37994
0
LINE
8
BLACK
6
CONTINUOUS
10
5.43115
20
-4.37994
11
5.42673
21
-4.37758
0
LINE
8
BLACK
6
CONTINUOUS
10
5.42673
20
-4.37758
11
5.42285
21
-4.37439
0
LINE
8
BLACK
6
CONTINUOUS
10
5.42285
20
-4.37439
11
5.41967
21
-4.37052
0
LINE
8
BLACK
6
CONTINUOUS
10
5.41967
20
-4.37052
11
5.4173
21
-4.36609
0
LINE
8
BLACK
6
CONTINUOUS
10
5.4173
20
-4.36609
11
5.41585
21
-4.36129
0
LINE
8
BLACK
6
CONTINUOUS
10
5.41585
20
-4.36129
11
5.41535
21
-4.3563
0
LINE
8
BLACK
6
CONTINUOUS
10
5.41535
20
-4.3563
11
5.41535
21
-4.30512
0
LINE
8
BLACK
6
CONTINUOUS
10
5.41535
20
-4.30512
11
5.41585
21
-4.30013
0
LINE
8
BLACK
6
CONTINUOUS
10
5.41585
20
-4.30013
11
5.4173
21
-4.29533
0
LINE
8
BLACK
6
CONTINUOUS
10
5.4173
20
-4.29533
11
5.41967
21
-4.2909
0
LINE
8
BLACK
6
CONTINUOUS
10
5.41967
20
-4.2909
11
5.42285
21
-4.28702
0
LINE
8
BLACK
6
CONTINUOUS
10
5.42285
20
-4.28702
11
5.42673
21
-4.28384
0
LINE
8
BLACK
6
CONTINUOUS
10
5.42673
20
-4.28384
11
5.43115
21
-4.28148
0
LINE
8
BLACK
6
CONTINUOUS
10
5.43115
20
-4.28148
11
5.43595
21
-4.28002
0
LINE
8
BLACK
6
CONTINUOUS
10
5.43595
20
-4.28002
11
5.44094
21
-4.27953
0
LINE
8
BLACK
6
CONTINUOUS
10
5.44094
20
-4.27953
11
5.54331
21
-4.27953
0
LINE
8
BLACK
6
CONTINUOUS
10
5.54331
20
-4.27953
11
5.5483
21
-4.28002
0
LINE
8
BLACK
6
CONTINUOUS
10
6.33484
20
-4.28027
11
6.34448
21
-4.28319
0
LINE
8
BLACK
6
CONTINUOUS
10
6.34448
20
-4.28319
11
6.35338
21
-4.28795
0
LINE
8
BLACK
6
CONTINUOUS
10
6.35338
20
-4.28795
11
6.36117
21
-4.29434
0
LINE
8
BLACK
6
CONTINUOUS
10
6.36117
20
-4.29434
11
6.36756
21
-4.30214
0
LINE
8
BLACK
6
CONTINUOUS
10
6.36756
20
-4.30214
11
6.37232
21
-4.31103
0
LINE
8
BLACK
6
CONTINUOUS
10
6.37232
20
-4.31103
11
6.37524
21
-4.32068
0
LINE
8
BLACK
6
CONTINUOUS
10
6.37524
20
-4.32068
11
6.37623
21
-4.33071
0
LINE
8
BLACK
6
CONTINUOUS
10
6.37623
20
-4.33071
11
6.37524
21
-4.34074
0
LINE
8
BLACK
6
CONTINUOUS
10
6.37524
20
-4.34074
11
6.37232
21
-4.35039
0
LINE
8
BLACK
6
CONTINUOUS
10
6.37232
20
-4.35039
11
6.36756
21
-4.35928
0
LINE
8
BLACK
6
CONTINUOUS
10
6.36756
20
-4.35928
11
6.36117
21
-4.36707
0
LINE
8
BLACK
6
CONTINUOUS
10
6.36117
20
-4.36707
11
6.35338
21
-4.37347
0
LINE
8
BLACK
6
CONTINUOUS
10
6.35338
20
-4.37347
11
6.34448
21
-4.37822
0
LINE
8
BLACK
6
CONTINUOUS
10
6.34448
20
-4.37822
11
6.33484
21
-4.38115
0
LINE
8
BLACK
6
CONTINUOUS
10
6.33484
20
-4.38115
11
6.32732
21
-4.38189
0
LINE
8
BLACK
6
CONTINUOUS
10
6.32732
20
-4.38189
11
6.27111
21
-4.38189
0
LINE
8
BLACK
6
CONTINUOUS
10
6.27111
20
-4.38189
11
6.26359
21
-4.38115
0
LINE
8
BLACK
6
CONTINUOUS
10
6.26359
20
-4.38115
11
6.25394
21
-4.37822
0
LINE
8
BLACK
6
CONTINUOUS
10
6.25394
20
-4.37822
11
6.24505
21
-4.37347
0
LINE
8
BLACK
6
CONTINUOUS
10
6.24505
20
-4.37347
11
6.23726
21
-4.36707
0
LINE
8
BLACK
6
CONTINUOUS
10
6.23726
20
-4.36707
11
6.23086
21
-4.35928
0
LINE
8
BLACK
6
CONTINUOUS
10
6.23086
20
-4.35928
11
6.22611
21
-4.35039
0
LINE
8
BLACK
6
CONTINUOUS
10
6.22611
20
-4.35039
11
6.22318
21
-4.34074
0
LINE
8
BLACK
6
CONTINUOUS
10
6.22318
20
-4.34074
11
6.22219
21
-4.33071
0
LINE
8
BLACK
6
CONTINUOUS
10
6.22219
20
-4.33071
11
6.22318
21
-4.32068
0
LINE
8
BLACK
6
CONTINUOUS
10
6.22318
20
-4.32068
11
6.22611
21
-4.31103
0
LINE
8
BLACK
6
CONTINUOUS
10
6.22611
20
-4.31103
11
6.23086
21
-4.30214
0
LINE
8
BLACK
6
CONTINUOUS
10
6.23086
20
-4.30214
11
6.23726
21
-4.29434
0
LINE
8
BLACK
6
CONTINUOUS
10
6.23726
20
-4.29434
11
6.24505
21
-4.28795
0
LINE
8
BLACK
6
CONTINUOUS
10
6.24505
20
-4.28795
11
6.25394
21
-4.28319
0
LINE
8
BLACK
6
CONTINUOUS
10
6.25394
20
-4.28319
11
6.26359
21
-4.28027
0
LINE
8
BLACK
6
CONTINUOUS
10
6.26359
20
-4.28027
11
6.27111
21
-4.27953
0
LINE
8
BLACK
6
CONTINUOUS
10
6.27111
20
-4.27953
11
6.32732
21
-4.27953
0
LINE
8
BLACK
6
CONTINUOUS
10
6.32732
20
-4.27953
11
6.33484
21
-4.28027
0
LINE
8
BLACK
6
CONTINUOUS
10
5.2676
20
-4.29217
11
5.27489
21
-4.29519
0
LINE
8
BLACK
6
CONTINUOUS
10
5.27489
20
-4.29519
11
5.28145
21
-4.29958
0
LINE
8
BLACK
6
CONTINUOUS
10
5.28145
20
-4.29958
11
5.28704
21
-4.30516
0
LINE
8
BLACK
6
CONTINUOUS
10
5.28704
20
-4.30516
11
5.29142
21
-4.31172
0
LINE
8
BLACK
6
CONTINUOUS
10
5.29142
20
-4.31172
11
5.29444
21
-4.31902
0
LINE
8
BLACK
6
CONTINUOUS
10
5.29444
20
-4.31902
11
5.29598
21
-4.32676
0
LINE
8
BLACK
6
CONTINUOUS
10
5.29598
20
-4.32676
11
5.29598
21
-4.33466
0
LINE
8
BLACK
6
CONTINUOUS
10
5.29598
20
-4.33466
11
5.29444
21
-4.3424
0
LINE
8
BLACK
6
CONTINUOUS
10
5.29444
20
-4.3424
11
5.29142
21
-4.34969
0
LINE
8
BLACK
6
CONTINUOUS
10
5.29142
20
-4.34969
11
5.28704
21
-4.35626
0
LINE
8
BLACK
6
CONTINUOUS
10
5.28704
20
-4.35626
11
5.28145
21
-4.36184
0
LINE
8
BLACK
6
CONTINUOUS
10
5.28145
20
-4.36184
11
5.27489
21
-4.36623
0
LINE
8
BLACK
6
CONTINUOUS
10
5.27489
20
-4.36623
11
5.2676
21
-4.36925
0
LINE
8
BLACK
6
CONTINUOUS
10
5.2676
20
-4.36925
11
5.25985
21
-4.37079
0
LINE
8
BLACK
6
CONTINUOUS
10
5.25985
20
-4.37079
11
5.25196
21
-4.37079
0
LINE
8
BLACK
6
CONTINUOUS
10
5.25196
20
-4.37079
11
5.24421
21
-4.36925
0
LINE
8
BLACK
6
CONTINUOUS
10
5.24421
20
-4.36925
11
5.23692
21
-4.36623
0
LINE
8
BLACK
6
CONTINUOUS
10
5.23692
20
-4.36623
11
5.23036
21
-4.36184
0
LINE
8
BLACK
6
CONTINUOUS
10
5.23036
20
-4.36184
11
5.22477
21
-4.35626
0
LINE
8
BLACK
6
CONTINUOUS
10
5.22477
20
-4.35626
11
5.22039
21
-4.34969
0
LINE
8
BLACK
6
CONTINUOUS
10
5.22039
20
-4.34969
11
5.21737
21
-4.3424
0
LINE
8
BLACK
6
CONTINUOUS
10
5.21737
20
-4.3424
11
5.21583
21
-4.33466
0
LINE
8
BLACK
6
CONTINUOUS
10
5.21583
20
-4.33466
11
5.21583
21
-4.32676
0
LINE
8
BLACK
6
CONTINUOUS
10
5.21583
20
-4.32676
11
5.21737
21
-4.31902
0
LINE
8
BLACK
6
CONTINUOUS
10
5.21737
20
-4.31902
11
5.22039
21
-4.31172
0
LINE
8
BLACK
6
CONTINUOUS
10
5.22039
20
-4.31172
11
5.22477
21
-4.30516
0
LINE
8
BLACK
6
CONTINUOUS
10
5.22477
20
-4.30516
11
5.23036
21
-4.29958
0
LINE
8
BLACK
6
CONTINUOUS
10
5.23036
20
-4.29958
11
5.23692
21
-4.29519
0
LINE
8
BLACK
6
CONTINUOUS
10
5.23692
20
-4.29519
11
5.24421
21
-4.29217
0
LINE
8
BLACK
6
CONTINUOUS
10
5.24421
20
-4.29217
11
5.25196
21
-4.29063
0
LINE
8
BLACK
6
CONTINUOUS
10
5.25196
20
-4.29063
11
5.25985
21
-4.29063
0
LINE
8
BLACK
6
CONTINUOUS
10
5.25985
20
-4.29063
11
5.2676
21
-4.29217
0
LINE
8
BLACK
6
CONTINUOUS
10
6.4487
20
-4.29217
11
6.45599
21
-4.29519
0
LINE
8
BLACK
6
CONTINUOUS
10
6.45599
20
-4.29519
11
6.46256
21
-4.29958
0
LINE
8
BLACK
6
CONTINUOUS
10
6.46256
20
-4.29958
11
6.46814
21
-4.30516
0
LINE
8
BLACK
6
CONTINUOUS
10
6.46814
20
-4.30516
11
6.47253
21
-4.31172
0
LINE
8
BLACK
6
CONTINUOUS
10
6.47253
20
-4.31172
11
6.47555
21
-4.31902
0
LINE
8
BLACK
6
CONTINUOUS
10
6.47555
20
-4.31902
11
6.47709
21
-4.32676
0
LINE
8
BLACK
6
CONTINUOUS
10
6.47709
20
-4.32676
11
6.47709
21
-4.33466
0
LINE
8
BLACK
6
CONTINUOUS
10
6.47709
20
-4.33466
11
6.47555
21
-4.3424
0
LINE
8
BLACK
6
CONTINUOUS
10
6.47555
20
-4.3424
11
6.47253
21
-4.34969
0
LINE
8
BLACK
6
CONTINUOUS
10
6.47253
20
-4.34969
11
6.46814
21
-4.35626
0
LINE
8
BLACK
6
CONTINUOUS
10
6.46814
20
-4.35626
11
6.46256
21
-4.36184
0
LINE
8
BLACK
6
CONTINUOUS
10
6.46256
20
-4.36184
11
6.45599
21
-4.36623
0
LINE
8
BLACK
6
CONTINUOUS
10
6.45599
20
-4.36623
11
6.4487
21
-4.36925
0
LINE
8
BLACK
6
CONTINUOUS
10
6.4487
20
-4.36925
11
6.44096
21
-4.37079
0
LINE
8
BLACK
6
CONTINUOUS
10
6.44096
20
-4.37079
11
6.43306
21
-4.37079
0
LINE
8
BLACK
6
CONTINUOUS
10
6.43306
20
-4.37079
11
6.42532
21
-4.36925
0
LINE
8
BLACK
6
CONTINUOUS
10
6.42532
20
-4.36925
11
6.41802
21
-4.36623
0
LINE
8
BLACK
6
CONTINUOUS
10
6.41802
20
-4.36623
11
6.41146
21
-4.36184
0
LINE
8
BLACK
6
CONTINUOUS
10
6.41146
20
-4.36184
11
6.40588
21
-4.35626
0
LINE
8
BLACK
6
CONTINUOUS
10
6.40588
20
-4.35626
11
6.40149
21
-4.34969
0
LINE
8
BLACK
6
CONTINUOUS
10
6.40149
20
-4.34969
11
6.39847
21
-4.3424
0
LINE
8
BLACK
6
CONTINUOUS
10
6.39847
20
-4.3424
11
6.39693
21
-4.33466
0
LINE
8
BLACK
6
CONTINUOUS
10
6.39693
20
-4.33466
11
6.39693
21
-4.32676
0
LINE
8
BLACK
6
CONTINUOUS
10
6.39693
20
-4.32676
11
6.39847
21
-4.31902
0
LINE
8
BLACK
6
CONTINUOUS
10
6.39847
20
-4.31902
11
6.40149
21
-4.31172
0
LINE
8
BLACK
6
CONTINUOUS
10
6.40149
20
-4.31172
11
6.40588
21
-4.30516
0
LINE
8
BLACK
6
CONTINUOUS
10
6.40588
20
-4.30516
11
6.41146
21
-4.29958
0
LINE
8
BLACK
6
CONTINUOUS
10
6.41146
20
-4.29958
11
6.41802
21
-4.29519
0
LINE
8
BLACK
6
CONTINUOUS
10
6.41802
20
-4.29519
11
6.42532
21
-4.29217
0
LINE
8
BLACK
6
CONTINUOUS
10
6.42532
20
-4.29217
11
6.43306
21
-4.29063
0
LINE
8
BLACK
6
CONTINUOUS
10
6.43306
20
-4.29063
11
6.44096
21
-4.29063
0
LINE
8
BLACK
6
CONTINUOUS
10
6.44096
20
-4.29063
11
6.4487
21
-4.29217
0
LINE
8
BLACK
6
CONTINUOUS
10
6.68701
20
-4.32283
11
6.69882
21
-4.32283
0
LINE
8
BLACK
6
CONTINUOUS
10
6.69882
20
-4.32283
11
6.69882
21
-4.30118
0
LINE
8
BLACK
6
CONTINUOUS
10
6.69882
20
-4.30118
11
6.7185
21
-4.30118
0
LINE
8
BLACK
6
CONTINUOUS
10
6.7185
20
-4.30118
11
6.7185
21
-4.30128
0
LINE
8
BLACK
6
CONTINUOUS
10
6.7185
20
-4.30128
11
6.72043
21
-4.30128
0
LINE
8
BLACK
6
CONTINUOUS
10
6.72043
20
-4.30128
11
6.72422
21
-4.30203
0
LINE
8
BLACK
6
CONTINUOUS
10
6.72422
20
-4.30203
11
6.72778
21
-4.30351
0
LINE
8
BLACK
6
CONTINUOUS
10
6.72778
20
-4.30351
11
6.73099
21
-4.30565
0
LINE
8
BLACK
6
CONTINUOUS
10
6.73099
20
-4.30565
11
6.73372
21
-4.30838
0
LINE
8
BLACK
6
CONTINUOUS
10
6.73372
20
-4.30838
11
6.73586
21
-4.31159
0
LINE
8
BLACK
6
CONTINUOUS
10
6.73586
20
-4.31159
11
6.73734
21
-4.31515
0
LINE
8
BLACK
6
CONTINUOUS
10
6.73734
20
-4.31515
11
6.73809
21
-4.31894
0
LINE
8
BLACK
6
CONTINUOUS
10
6.73809
20
-4.31894
11
6.73809
21
-4.32087
0
LINE
8
BLACK
6
CONTINUOUS
10
6.73809
20
-4.32087
11
6.73819
21
-4.32087
0
LINE
8
BLACK
6
CONTINUOUS
10
6.73819
20
-4.32087
11
6.73819
21
-4.34055
0
LINE
8
BLACK
6
CONTINUOUS
10
6.73819
20
-4.34055
11
6.73809
21
-4.34055
0
LINE
8
BLACK
6
CONTINUOUS
10
6.73809
20
-4.34055
11
6.73809
21
-4.34248
0
LINE
8
BLACK
6
CONTINUOUS
10
6.73809
20
-4.34248
11
6.73734
21
-4.34627
0
LINE
8
BLACK
6
CONTINUOUS
10
6.73734
20
-4.34627
11
6.73586
21
-4.34983
0
LINE
8
BLACK
6
CONTINUOUS
10
6.73586
20
-4.34983
11
6.73372
21
-4.35304
0
LINE
8
BLACK
6
CONTINUOUS
10
6.73372
20
-4.35304
11
6.73099
21
-4.35577
0
LINE
8
BLACK
6
CONTINUOUS
10
6.73099
20
-4.35577
11
6.72778
21
-4.35791
0
LINE
8
BLACK
6
CONTINUOUS
10
6.72778
20
-4.35791
11
6.72422
21
-4.35939
0
LINE
8
BLACK
6
CONTINUOUS
10
6.72422
20
-4.35939
11
6.72043
21
-4.36014
0
LINE
8
BLACK
6
CONTINUOUS
10
6.72043
20
-4.36014
11
6.7185
21
-4.36014
0
LINE
8
BLACK
6
CONTINUOUS
10
6.7185
20
-4.36014
11
6.7185
21
-4.36024
0
LINE
8
BLACK
6
CONTINUOUS
10
6.7185
20
-4.36024
11
6.69882
21
-4.36024
0
LINE
8
BLACK
6
CONTINUOUS
10
6.69882
20
-4.36024
11
6.69882
21
-4.33858
0
LINE
8
BLACK
6
CONTINUOUS
10
6.69882
20
-4.33858
11
6.68701
21
-4.33858
0
LINE
8
BLACK
6
CONTINUOUS
10
6.68701
20
-4.33858
11
6.68701
21
-4.36024
0
LINE
8
BLACK
6
CONTINUOUS
10
6.68701
20
-4.36024
11
6.66732
21
-4.36024
0
LINE
8
BLACK
6
CONTINUOUS
10
6.66732
20
-4.36024
11
6.66732
21
-4.36014
0
LINE
8
BLACK
6
CONTINUOUS
10
6.66732
20
-4.36014
11
6.66539
21
-4.36014
0
LINE
8
BLACK
6
CONTINUOUS
10
6.66539
20
-4.36014
11
6.66161
21
-4.35939
0
LINE
8
BLACK
6
CONTINUOUS
10
6.66161
20
-4.35939
11
6.65804
21
-4.35791
0
LINE
8
BLACK
6
CONTINUOUS
10
6.65804
20
-4.35791
11
6.65483
21
-4.35577
0
LINE
8
BLACK
6
CONTINUOUS
10
6.65483
20
-4.35577
11
6.65211
21
-4.35304
0
LINE
8
BLACK
6
CONTINUOUS
10
6.65211
20
-4.35304
11
6.64996
21
-4.34983
0
LINE
8
BLACK
6
CONTINUOUS
10
6.64996
20
-4.34983
11
6.64849
21
-4.34627
0
LINE
8
BLACK
6
CONTINUOUS
10
6.64849
20
-4.34627
11
6.64773
21
-4.34248
0
LINE
8
BLACK
6
CONTINUOUS
10
6.64773
20
-4.34248
11
6.64773
21
-4.34055
0
LINE
8
BLACK
6
CONTINUOUS
10
6.64773
20
-4.34055
11
6.64764
21
-4.34055
0
LINE
8
BLACK
6
CONTINUOUS
10
6.64764
20
-4.34055
11
6.64764
21
-4.32087
0
LINE
8
BLACK
6
CONTINUOUS
10
6.64764
20
-4.32087
11
6.64773
21
-4.32087
0
LINE
8
BLACK
6
CONTINUOUS
10
6.64773
20
-4.32087
11
6.64773
21
-4.31894
0
LINE
8
BLACK
6
CONTINUOUS
10
6.64773
20
-4.31894
11
6.64849
21
-4.31515
0
LINE
8
BLACK
6
CONTINUOUS
10
6.64849
20
-4.31515
11
6.64996
21
-4.31159
0
LINE
8
BLACK
6
CONTINUOUS
10
6.64996
20
-4.31159
11
6.65211
21
-4.30838
0
LINE
8
BLACK
6
CONTINUOUS
10
6.65211
20
-4.30838
11
6.65483
21
-4.30565
0
LINE
8
BLACK
6
CONTINUOUS
10
6.65483
20
-4.30565
11
6.65804
21
-4.30351
0
LINE
8
BLACK
6
CONTINUOUS
10
6.65804
20
-4.30351
11
6.66161
21
-4.30203
0
LINE
8
BLACK
6
CONTINUOUS
10
6.66161
20
-4.30203
11
6.66539
21
-4.30128
0
LINE
8
BLACK
6
CONTINUOUS
10
6.66539
20
-4.30128
11
6.66732
21
-4.30128
0
LINE
8
BLACK
6
CONTINUOUS
10
6.66732
20
-4.30128
11
6.66732
21
-4.30118
0
LINE
8
BLACK
6
CONTINUOUS
10
6.66732
20
-4.30118
11
6.68701
21
-4.30118
0
LINE
8
BLACK
6
CONTINUOUS
10
6.68701
20
-4.30118
11
6.68701
21
-4.32283
0
LINE
8
BLACK
6
CONTINUOUS
10
5.4336
20
-4.10916
11
5.44005
21
-4.11183
0
LINE
8
BLACK
6
CONTINUOUS
10
5.44005
20
-4.11183
11
5.44585
21
-4.11571
0
LINE
8
BLACK
6
CONTINUOUS
10
5.44585
20
-4.11571
11
5.45079
21
-4.12064
0
LINE
8
BLACK
6
CONTINUOUS
10
5.45079
20
-4.12064
11
5.45467
21
-4.12644
0
LINE
8
BLACK
6
CONTINUOUS
10
5.45467
20
-4.12644
11
5.45734
21
-4.13289
0
LINE
8
BLACK
6
CONTINUOUS
10
5.45734
20
-4.13289
11
5.4587
21
-4.13974
0
LINE
8
BLACK
6
CONTINUOUS
10
5.4587
20
-4.13974
11
5.4587
21
-4.14672
0
LINE
8
BLACK
6
CONTINUOUS
10
5.4587
20
-4.14672
11
5.45734
21
-4.15356
0
LINE
8
BLACK
6
CONTINUOUS
10
5.45734
20
-4.15356
11
5.45467
21
-4.16001
0
LINE
8
BLACK
6
CONTINUOUS
10
5.45467
20
-4.16001
11
5.45079
21
-4.16582
0
LINE
8
BLACK
6
CONTINUOUS
10
5.45079
20
-4.16582
11
5.44585
21
-4.17075
0
LINE
8
BLACK
6
CONTINUOUS
10
5.44585
20
-4.17075
11
5.44005
21
-4.17463
0
LINE
8
BLACK
6
CONTINUOUS
10
5.44005
20
-4.17463
11
5.4336
21
-4.1773
0
LINE
8
BLACK
6
CONTINUOUS
10
5.4336
20
-4.1773
11
5.42676
21
-4.17866
0
LINE
8
BLACK
6
CONTINUOUS
10
5.42676
20
-4.17866
11
5.41978
21
-4.17866
0
LINE
8
BLACK
6
CONTINUOUS
10
5.41978
20
-4.17866
11
5.41293
21
-4.1773
0
LINE
8
BLACK
6
CONTINUOUS
10
5.41293
20
-4.1773
11
5.40648
21
-4.17463
0
LINE
8
BLACK
6
CONTINUOUS
10
5.40648
20
-4.17463
11
5.40068
21
-4.17075
0
LINE
8
BLACK
6
CONTINUOUS
10
5.40068
20
-4.17075
11
5.39575
21
-4.16582
0
LINE
8
BLACK
6
CONTINUOUS
10
5.39575
20
-4.16582
11
5.39187
21
-4.16001
0
LINE
8
BLACK
6
CONTINUOUS
10
5.39187
20
-4.16001
11
5.3892
21
-4.15356
0
LINE
8
BLACK
6
CONTINUOUS
10
5.3892
20
-4.15356
11
5.38783
21
-4.14672
0
LINE
8
BLACK
6
CONTINUOUS
10
5.38783
20
-4.14672
11
5.38783
21
-4.13974
0
LINE
8
BLACK
6
CONTINUOUS
10
5.38783
20
-4.13974
11
5.3892
21
-4.13289
0
LINE
8
BLACK
6
CONTINUOUS
10
5.3892
20
-4.13289
11
5.39187
21
-4.12644
0
LINE
8
BLACK
6
CONTINUOUS
10
5.39187
20
-4.12644
11
5.39575
21
-4.12064
0
LINE
8
BLACK
6
CONTINUOUS
10
5.39575
20
-4.12064
11
5.40068
21
-4.11571
0
LINE
8
BLACK
6
CONTINUOUS
10
5.40068
20
-4.11571
11
5.40648
21
-4.11183
0
LINE
8
BLACK
6
CONTINUOUS
10
5.40648
20
-4.11183
11
5.41293
21
-4.10916
0
LINE
8
BLACK
6
CONTINUOUS
10
5.41293
20
-4.10916
11
5.41978
21
-4.1078
0
LINE
8
BLACK
6
CONTINUOUS
10
5.41978
20
-4.1078
11
5.42676
21
-4.1078
0
LINE
8
BLACK
6
CONTINUOUS
10
5.42676
20
-4.1078
11
5.4336
21
-4.10916
0
LINE
8
BLACK
6
CONTINUOUS
10
6.08313
20
-4.10916
11
6.08958
21
-4.11183
0
LINE
8
BLACK
6
CONTINUOUS
10
6.08958
20
-4.11183
11
6.09538
21
-4.11571
0
LINE
8
BLACK
6
CONTINUOUS
10
6.09538
20
-4.11571
11
6.10032
21
-4.12064
0
LINE
8
BLACK
6
CONTINUOUS
10
6.10032
20
-4.12064
11
6.1042
21
-4.12644
0
LINE
8
BLACK
6
CONTINUOUS
10
6.1042
20
-4.12644
11
6.10687
21
-4.13289
0
LINE
8
BLACK
6
CONTINUOUS
10
6.10687
20
-4.13289
11
6.10823
21
-4.13974
0
LINE
8
BLACK
6
CONTINUOUS
10
6.10823
20
-4.13974
11
6.10823
21
-4.14672
0
LINE
8
BLACK
6
CONTINUOUS
10
6.10823
20
-4.14672
11
6.10687
21
-4.15356
0
LINE
8
BLACK
6
CONTINUOUS
10
6.10687
20
-4.15356
11
6.1042
21
-4.16001
0
LINE
8
BLACK
6
CONTINUOUS
10
6.1042
20
-4.16001
11
6.10032
21
-4.16582
0
LINE
8
BLACK
6
CONTINUOUS
10
6.10032
20
-4.16582
11
6.09538
21
-4.17075
0
LINE
8
BLACK
6
CONTINUOUS
10
6.09538
20
-4.17075
11
6.08958
21
-4.17463
0
LINE
8
BLACK
6
CONTINUOUS
10
6.08958
20
-4.17463
11
6.08313
21
-4.1773
0
LINE
8
BLACK
6
CONTINUOUS
10
6.08313
20
-4.1773
11
6.07629
21
-4.17866
0
LINE
8
BLACK
6
CONTINUOUS
10
6.07629
20
-4.17866
11
6.06931
21
-4.17866
0
LINE
8
BLACK
6
CONTINUOUS
10
6.06931
20
-4.17866
11
6.06246
21
-4.1773
0
LINE
8
BLACK
6
CONTINUOUS
10
6.06246
20
-4.1773
11
6.05601
21
-4.17463
0
LINE
8
BLACK
6
CONTINUOUS
10
6.05601
20
-4.17463
11
6.05021
21
-4.17075
0
LINE
8
BLACK
6
CONTINUOUS
10
6.05021
20
-4.17075
11
6.04527
21
-4.16582
0
LINE
8
BLACK
6
CONTINUOUS
10
6.04527
20
-4.16582
11
6.04139
21
-4.16001
0
LINE
8
BLACK
6
CONTINUOUS
10
6.04139
20
-4.16001
11
6.03872
21
-4.15356
0
LINE
8
BLACK
6
CONTINUOUS
10
6.03872
20
-4.15356
11
6.03736
21
-4.14672
0
LINE
8
BLACK
6
CONTINUOUS
10
6.03736
20
-4.14672
11
6.03736
21
-4.13974
0
LINE
8
BLACK
6
CONTINUOUS
10
6.03736
20
-4.13974
11
6.03872
21
-4.13289
0
LINE
8
BLACK
6
CONTINUOUS
10
6.03872
20
-4.13289
11
6.04139
21
-4.12644
0
LINE
8
BLACK
6
CONTINUOUS
10
6.04139
20
-4.12644
11
6.04527
21
-4.12064
0
LINE
8
BLACK
6
CONTINUOUS
10
6.04527
20
-4.12064
11
6.05021
21
-4.11571
0
LINE
8
BLACK
6
CONTINUOUS
10
6.05021
20
-4.11571
11
6.05601
21
-4.11183
0
LINE
8
BLACK
6
CONTINUOUS
10
6.05601
20
-4.11183
11
6.06246
21
-4.10916
0
LINE
8
BLACK
6
CONTINUOUS
10
6.06246
20
-4.10916
11
6.06931
21
-4.1078
0
LINE
8
BLACK
6
CONTINUOUS
10
6.06931
20
-4.1078
11
6.07629
21
-4.1078
0
LINE
8
BLACK
6
CONTINUOUS
10
6.07629
20
-4.1078
11
6.08313
21
-4.10916
0
LINE
8
BLACK
6
CONTINUOUS
10
5.51236
20
-3.92801
11
5.5179
21
-3.92969
0
LINE
8
BLACK
6
CONTINUOUS
10
5.5179
20
-3.92969
11
5.52301
21
-3.93242
0
LINE
8
BLACK
6
CONTINUOUS
10
5.52301
20
-3.93242
11
5.52748
21
-3.93609
0
LINE
8
BLACK
6
CONTINUOUS
10
5.52748
20
-3.93609
11
5.56924
21
-3.97785
0
LINE
8
BLACK
6
CONTINUOUS
10
5.56924
20
-3.97785
11
5.57291
21
-3.98233
0
LINE
8
BLACK
6
CONTINUOUS
10
5.57291
20
-3.98233
11
5.57564
21
-3.98743
0
LINE
8
BLACK
6
CONTINUOUS
10
5.57564
20
-3.98743
11
5.57732
21
-3.99297
0
LINE
8
BLACK
6
CONTINUOUS
10
5.57732
20
-3.99297
11
5.57789
21
-3.99873
0
LINE
8
BLACK
6
CONTINUOUS
10
5.57789
20
-3.99873
11
5.57732
21
-4.00449
0
LINE
8
BLACK
6
CONTINUOUS
10
5.57732
20
-4.00449
11
5.57564
21
-4.01003
0
LINE
8
BLACK
6
CONTINUOUS
10
5.57564
20
-4.01003
11
5.57291
21
-4.01514
0
LINE
8
BLACK
6
CONTINUOUS
10
5.57291
20
-4.01514
11
5.56924
21
-4.01961
0
LINE
8
BLACK
6
CONTINUOUS
10
5.56924
20
-4.01961
11
5.52748
21
-4.06137
0
LINE
8
BLACK
6
CONTINUOUS
10
5.52748
20
-4.06137
11
5.52301
21
-4.06504
0
LINE
8
BLACK
6
CONTINUOUS
10
5.52301
20
-4.06504
11
5.5179
21
-4.06777
0
LINE
8
BLACK
6
CONTINUOUS
10
5.5179
20
-4.06777
11
5.51236
21
-4.06945
0
LINE
8
BLACK
6
CONTINUOUS
10
5.51236
20
-4.06945
11
5.5066
21
-4.07002
0
LINE
8
BLACK
6
CONTINUOUS
10
5.5066
20
-4.07002
11
5.50084
21
-4.06945
0
LINE
8
BLACK
6
CONTINUOUS
10
5.50084
20
-4.06945
11
5.4953
21
-4.06777
0
LINE
8
BLACK
6
CONTINUOUS
10
5.4953
20
-4.06777
11
5.4902
21
-4.06504
0
LINE
8
BLACK
6
CONTINUOUS
10
5.4902
20
-4.06504
11
5.48573
21
-4.06137
0
LINE
8
BLACK
6
CONTINUOUS
10
5.48573
20
-4.06137
11
5.44397
21
-4.01961
0
LINE
8
BLACK
6
CONTINUOUS
10
5.44397
20
-4.01961
11
5.44029
21
-4.01514
0
LINE
8
BLACK
6
CONTINUOUS
10
5.44029
20
-4.01514
11
5.43757
21
-4.01003
0
LINE
8
BLACK
6
CONTINUOUS
10
5.43757
20
-4.01003
11
5.43589
21
-4.00449
0
LINE
8
BLACK
6
CONTINUOUS
10
5.43589
20
-4.00449
11
5.43532
21
-3.99873
0
LINE
8
BLACK
6
CONTINUOUS
10
5.43532
20
-3.99873
11
5.43589
21
-3.99297
0
LINE
8
BLACK
6
CONTINUOUS
10
5.43589
20
-3.99297
11
5.43757
21
-3.98743
0
LINE
8
BLACK
6
CONTINUOUS
10
5.43757
20
-3.98743
11
5.44029
21
-3.98233
0
LINE
8
BLACK
6
CONTINUOUS
10
5.44029
20
-3.98233
11
5.44397
21
-3.97785
0
LINE
8
BLACK
6
CONTINUOUS
10
5.44397
20
-3.97785
11
5.48573
21
-3.93609
0
LINE
8
BLACK
6
CONTINUOUS
10
5.48573
20
-3.93609
11
5.4902
21
-3.93242
0
LINE
8
BLACK
6
CONTINUOUS
10
5.4902
20
-3.93242
11
5.4953
21
-3.92969
0
LINE
8
BLACK
6
CONTINUOUS
10
5.4953
20
-3.92969
11
5.50084
21
-3.92801
0
LINE
8
BLACK
6
CONTINUOUS
10
5.50084
20
-3.92801
11
5.5066
21
-3.92744
0
LINE
8
BLACK
6
CONTINUOUS
10
5.5066
20
-3.92744
11
5.51236
21
-3.92801
0
LINE
8
BLACK
6
CONTINUOUS
10
5.42508
20
-3.78036
11
5.43237
21
-3.78338
0
LINE
8
BLACK
6
CONTINUOUS
10
5.43237
20
-3.78338
11
5.43893
21
-3.78777
0
LINE
8
BLACK
6
CONTINUOUS
10
5.43893
20
-3.78777
11
5.44452
21
-3.79335
0
LINE
8
BLACK
6
CONTINUOUS
10
5.44452
20
-3.79335
11
5.4489
21
-3.79991
0
LINE
8
BLACK
6
CONTINUOUS
10
5.4489
20
-3.79991
11
5.45192
21
-3.80721
0
LINE
8
BLACK
6
CONTINUOUS
10
5.45192
20
-3.80721
11
5.45346
21
-3.81495
0
LINE
8
BLACK
6
CONTINUOUS
10
5.45346
20
-3.81495
11
5.45346
21
-3.82285
0
LINE
8
BLACK
6
CONTINUOUS
10
5.45346
20
-3.82285
11
5.45192
21
-3.83059
0
LINE
8
BLACK
6
CONTINUOUS
10
5.45192
20
-3.83059
11
5.4489
21
-3.83788
0
LINE
8
BLACK
6
CONTINUOUS
10
5.4489
20
-3.83788
11
5.44452
21
-3.84445
0
LINE
8
BLACK
6
CONTINUOUS
10
5.44452
20
-3.84445
11
5.43893
21
-3.85003
0
LINE
8
BLACK
6
CONTINUOUS
10
5.43893
20
-3.85003
11
5.43237
21
-3.85441
0
LINE
8
BLACK
6
CONTINUOUS
10
5.43237
20
-3.85441
11
5.42508
21
-3.85744
0
LINE
8
BLACK
6
CONTINUOUS
10
5.42508
20
-3.85744
11
5.41733
21
-3.85898
0
LINE
8
BLACK
6
CONTINUOUS
10
5.41733
20
-3.85898
11
5.40944
21
-3.85898
0
LINE
8
BLACK
6
CONTINUOUS
10
5.40944
20
-3.85898
11
5.4017
21
-3.85744
0
LINE
8
BLACK
6
CONTINUOUS
10
5.4017
20
-3.85744
11
5.3944
21
-3.85441
0
LINE
8
BLACK
6
CONTINUOUS
10
5.3944
20
-3.85441
11
5.38784
21
-3.85003
0
LINE
8
BLACK
6
CONTINUOUS
10
5.38784
20
-3.85003
11
5.38225
21
-3.84445
0
LINE
8
BLACK
6
CONTINUOUS
10
5.38225
20
-3.84445
11
5.37787
21
-3.83788
0
LINE
8
BLACK
6
CONTINUOUS
10
5.37787
20
-3.83788
11
5.37485
21
-3.83059
0
LINE
8
BLACK
6
CONTINUOUS
10
5.37485
20
-3.83059
11
5.37331
21
-3.82285
0
LINE
8
BLACK
6
CONTINUOUS
10
5.37331
20
-3.82285
11
5.37331
21
-3.81495
0
LINE
8
BLACK
6
CONTINUOUS
10
5.37331
20
-3.81495
11
5.37485
21
-3.80721
0
LINE
8
BLACK
6
CONTINUOUS
10
5.37485
20
-3.80721
11
5.37787
21
-3.79991
0
LINE
8
BLACK
6
CONTINUOUS
10
5.37787
20
-3.79991
11
5.38225
21
-3.79335
0
LINE
8
BLACK
6
CONTINUOUS
10
5.38225
20
-3.79335
11
5.38784
21
-3.78777
0
LINE
8
BLACK
6
CONTINUOUS
10
5.38784
20
-3.78777
11
5.3944
21
-3.78338
0
LINE
8
BLACK
6
CONTINUOUS
10
5.3944
20
-3.78338
11
5.4017
21
-3.78036
0
LINE
8
BLACK
6
CONTINUOUS
10
5.4017
20
-3.78036
11
5.40944
21
-3.77882
0
LINE
8
BLACK
6
CONTINUOUS
10
5.40944
20
-3.77882
11
5.41733
21
-3.77882
0
LINE
8
BLACK
6
CONTINUOUS
10
5.41733
20
-3.77882
11
5.42508
21
-3.78036
0
LINE
8
BLACK
6
CONTINUOUS
10
6.29122
20
-3.78036
11
6.29851
21
-3.78338
0
LINE
8
BLACK
6
CONTINUOUS
10
6.29851
20
-3.78338
11
6.30508
21
-3.78777
0
LINE
8
BLACK
6
CONTINUOUS
10
6.30508
20
-3.78777
11
6.31066
21
-3.79335
0
LINE
8
BLACK
6
CONTINUOUS
10
6.31066
20
-3.79335
11
6.31504
21
-3.79991
0
LINE
8
BLACK
6
CONTINUOUS
10
6.31504
20
-3.79991
11
6.31807
21
-3.80721
0
LINE
8
BLACK
6
CONTINUOUS
10
6.31807
20
-3.80721
11
6.31961
21
-3.81495
0
LINE
8
BLACK
6
CONTINUOUS
10
6.31961
20
-3.81495
11
6.31961
21
-3.82285
0
LINE
8
BLACK
6
CONTINUOUS
10
6.31961
20
-3.82285
11
6.31807
21
-3.83059
0
LINE
8
BLACK
6
CONTINUOUS
10
6.31807
20
-3.83059
11
6.31504
21
-3.83788
0
LINE
8
BLACK
6
CONTINUOUS
10
6.31504
20
-3.83788
11
6.31066
21
-3.84445
0
LINE
8
BLACK
6
CONTINUOUS
10
6.31066
20
-3.84445
11
6.30508
21
-3.85003
0
LINE
8
BLACK
6
CONTINUOUS
10
6.30508
20
-3.85003
11
6.29851
21
-3.85441
0
LINE
8
BLACK
6
CONTINUOUS
10
6.29851
20
-3.85441
11
6.29122
21
-3.85744
0
LINE
8
BLACK
6
CONTINUOUS
10
6.29122
20
-3.85744
11
6.28347
21
-3.85898
0
LINE
8
BLACK
6
CONTINUOUS
10
6.28347
20
-3.85898
11
6.27558
21
-3.85898
0
LINE
8
BLACK
6
CONTINUOUS
10
6.27558
20
-3.85898
11
6.26784
21
-3.85744
0
LINE
8
BLACK
6
CONTINUOUS
10
6.26784
20
-3.85744
11
6.26054
21
-3.85441
0
LINE
8
BLACK
6
CONTINUOUS
10
6.26054
20
-3.85441
11
6.25398
21
-3.85003
0
LINE
8
BLACK
6
CONTINUOUS
10
6.25398
20
-3.85003
11
6.2484
21
-3.84445
0
LINE
8
BLACK
6
CONTINUOUS
10
6.2484
20
-3.84445
11
6.24401
21
-3.83788
0
LINE
8
BLACK
6
CONTINUOUS
10
6.24401
20
-3.83788
11
6.24099
21
-3.83059
0
LINE
8
BLACK
6
CONTINUOUS
10
6.24099
20
-3.83059
11
6.23945
21
-3.82285
0
LINE
8
BLACK
6
CONTINUOUS
10
6.23945
20
-3.82285
11
6.23945
21
-3.81495
0
LINE
8
BLACK
6
CONTINUOUS
10
6.23945
20
-3.81495
11
6.24099
21
-3.80721
0
LINE
8
BLACK
6
CONTINUOUS
10
6.24099
20
-3.80721
11
6.24401
21
-3.79991
0
LINE
8
BLACK
6
CONTINUOUS
10
6.24401
20
-3.79991
11
6.2484
21
-3.79335
0
LINE
8
BLACK
6
CONTINUOUS
10
6.2484
20
-3.79335
11
6.25398
21
-3.78777
0
LINE
8
BLACK
6
CONTINUOUS
10
6.25398
20
-3.78777
11
6.26054
21
-3.78338
0
LINE
8
BLACK
6
CONTINUOUS
10
6.26054
20
-3.78338
11
6.26784
21
-3.78036
0
LINE
8
BLACK
6
CONTINUOUS
10
6.26784
20
-3.78036
11
6.27558
21
-3.77882
0
LINE
8
BLACK
6
CONTINUOUS
10
6.27558
20
-3.77882
11
6.28347
21
-3.77882
0
LINE
8
BLACK
6
CONTINUOUS
10
6.28347
20
-3.77882
11
6.29122
21
-3.78036
0
LINE
8
BLACK
6
CONTINUOUS
10
5.46309
20
-3.5805
11
5.46954
21
-3.58317
0
LINE
8
BLACK
6
CONTINUOUS
10
5.46954
20
-3.58317
11
5.47534
21
-3.58704
0
LINE
8
BLACK
6
CONTINUOUS
10
5.47534
20
-3.58704
11
5.48028
21
-3.59198
0
LINE
8
BLACK
6
CONTINUOUS
10
5.48028
20
-3.59198
11
5.48416
21
-3.59778
0
LINE
8
BLACK
6
CONTINUOUS
10
5.48416
20
-3.59778
11
5.48683
21
-3.60423
0
LINE
8
BLACK
6
CONTINUOUS
10
5.48683
20
-3.60423
11
5.48819
21
-3.61108
0
LINE
8
BLACK
6
CONTINUOUS
10
5.48819
20
-3.61108
11
5.48819
21
-3.61806
0
LINE
8
BLACK
6
CONTINUOUS
10
5.48819
20
-3.61806
11
5.48683
21
-3.6249
0
LINE
8
BLACK
6
CONTINUOUS
10
5.48683
20
-3.6249
11
5.48416
21
-3.63135
0
LINE
8
BLACK
6
CONTINUOUS
10
5.48416
20
-3.63135
11
5.48028
21
-3.63715
0
LINE
8
BLACK
6
CONTINUOUS
10
5.48028
20
-3.63715
11
5.47534
21
-3.64209
0
LINE
8
BLACK
6
CONTINUOUS
10
5.47534
20
-3.64209
11
5.46954
21
-3.64597
0
LINE
8
BLACK
6
CONTINUOUS
10
5.46954
20
-3.64597
11
5.46309
21
-3.64864
0
LINE
8
BLACK
6
CONTINUOUS
10
5.46309
20
-3.64864
11
5.45625
21
-3.65
0
LINE
8
BLACK
6
CONTINUOUS
10
5.45625
20
-3.65
11
5.44927
21
-3.65
0
LINE
8
BLACK
6
CONTINUOUS
10
5.44927
20
-3.65
11
5.44242
21
-3.64864
0
LINE
8
BLACK
6
CONTINUOUS
10
5.44242
20
-3.64864
11
5.43597
21
-3.64597
0
LINE
8
BLACK
6
CONTINUOUS
10
5.43597
20
-3.64597
11
5.43017
21
-3.64209
0
LINE
8
BLACK
6
CONTINUOUS
10
5.43017
20
-3.64209
11
5.42523
21
-3.63715
0
LINE
8
BLACK
6
CONTINUOUS
10
5.42523
20
-3.63715
11
5.42136
21
-3.63135
0
LINE
8
BLACK
6
CONTINUOUS
10
5.42136
20
-3.63135
11
5.41868
21
-3.6249
0
LINE
8
BLACK
6
CONTINUOUS
10
5.41868
20
-3.6249
11
5.41732
21
-3.61806
0
LINE
8
BLACK
6
CONTINUOUS
10
5.41732
20
-3.61806
11
5.41732
21
-3.61108
0
LINE
8
BLACK
6
CONTINUOUS
10
5.41732
20
-3.61108
11
5.41868
21
-3.60423
0
LINE
8
BLACK
6
CONTINUOUS
10
5.41868
20
-3.60423
11
5.42136
21
-3.59778
0
LINE
8
BLACK
6
CONTINUOUS
10
5.42136
20
-3.59778
11
5.42523
21
-3.59198
0
LINE
8
BLACK
6
CONTINUOUS
10
5.42523
20
-3.59198
11
5.43017
21
-3.58704
0
LINE
8
BLACK
6
CONTINUOUS
10
5.43017
20
-3.58704
11
5.43597
21
-3.58317
0
LINE
8
BLACK
6
CONTINUOUS
10
5.43597
20
-3.58317
11
5.44242
21
-3.5805
0
LINE
8
BLACK
6
CONTINUOUS
10
5.44242
20
-3.5805
11
5.44927
21
-3.57913
0
LINE
8
BLACK
6
CONTINUOUS
10
5.44927
20
-3.57913
11
5.45625
21
-3.57913
0
LINE
8
BLACK
6
CONTINUOUS
10
5.45625
20
-3.57913
11
5.46309
21
-3.5805
0
LINE
8
BLACK
6
CONTINUOUS
10
6.25049
20
-3.5805
11
6.25694
21
-3.58317
0
LINE
8
BLACK
6
CONTINUOUS
10
6.25694
20
-3.58317
11
6.26274
21
-3.58704
0
LINE
8
BLACK
6
CONTINUOUS
10
6.26274
20
-3.58704
11
6.26768
21
-3.59198
0
LINE
8
BLACK
6
CONTINUOUS
10
6.26768
20
-3.59198
11
6.27156
21
-3.59778
0
LINE
8
BLACK
6
CONTINUOUS
10
6.27156
20
-3.59778
11
6.27423
21
-3.60423
0
LINE
8
BLACK
6
CONTINUOUS
10
6.27423
20
-3.60423
11
6.27559
21
-3.61108
0
LINE
8
BLACK
6
CONTINUOUS
10
6.27559
20
-3.61108
11
6.27559
21
-3.61806
0
LINE
8
BLACK
6
CONTINUOUS
10
6.27559
20
-3.61806
11
6.27423
21
-3.6249
0
LINE
8
BLACK
6
CONTINUOUS
10
6.27423
20
-3.6249
11
6.27156
21
-3.63135
0
LINE
8
BLACK
6
CONTINUOUS
10
6.27156
20
-3.63135
11
6.26768
21
-3.63715
0
LINE
8
BLACK
6
CONTINUOUS
10
6.26768
20
-3.63715
11
6.26274
21
-3.64209
0
LINE
8
BLACK
6
CONTINUOUS
10
6.26274
20
-3.64209
11
6.25694
21
-3.64597
0
LINE
8
BLACK
6
CONTINUOUS
10
6.25694
20
-3.64597
11
6.25049
21
-3.64864
0
LINE
8
BLACK
6
CONTINUOUS
10
6.25049
20
-3.64864
11
6.24365
21
-3.65
0
LINE
8
BLACK
6
CONTINUOUS
10
6.24365
20
-3.65
11
6.23667
21
-3.65
0
LINE
8
BLACK
6
CONTINUOUS
10
6.23667
20
-3.65
11
6.22982
21
-3.64864
0
LINE
8
BLACK
6
CONTINUOUS
10
6.22982
20
-3.64864
11
6.22337
21
-3.64597
0
LINE
8
BLACK
6
CONTINUOUS
10
6.22337
20
-3.64597
11
6.21757
21
-3.64209
0
LINE
8
BLACK
6
CONTINUOUS
10
6.21757
20
-3.64209
11
6.21263
21
-3.63715
0
LINE
8
BLACK
6
CONTINUOUS
10
6.21263
20
-3.63715
11
6.20876
21
-3.63135
0
LINE
8
BLACK
6
CONTINUOUS
10
6.20876
20
-3.63135
11
6.20609
21
-3.6249
0
LINE
8
BLACK
6
CONTINUOUS
10
6.20609
20
-3.6249
11
6.20472
21
-3.61806
0
LINE
8
BLACK
6
CONTINUOUS
10
6.20472
20
-3.61806
11
6.20472
21
-3.61108
0
LINE
8
BLACK
6
CONTINUOUS
10
6.20472
20
-3.61108
11
6.20609
21
-3.60423
0
LINE
8
BLACK
6
CONTINUOUS
10
6.20609
20
-3.60423
11
6.20876
21
-3.59778
0
LINE
8
BLACK
6
CONTINUOUS
10
6.20876
20
-3.59778
11
6.21263
21
-3.59198
0
LINE
8
BLACK
6
CONTINUOUS
10
6.21263
20
-3.59198
11
6.21757
21
-3.58704
0
LINE
8
BLACK
6
CONTINUOUS
10
6.21757
20
-3.58704
11
6.22337
21
-3.58317
0
LINE
8
BLACK
6
CONTINUOUS
10
6.22337
20
-3.58317
11
6.22982
21
-3.5805
0
LINE
8
BLACK
6
CONTINUOUS
10
6.22982
20
-3.5805
11
6.23667
21
-3.57913
0
LINE
8
BLACK
6
CONTINUOUS
10
6.23667
20
-3.57913
11
6.24365
21
-3.57913
0
LINE
8
BLACK
6
CONTINUOUS
10
6.24365
20
-3.57913
11
6.25049
21
-3.5805
0
LINE
8
BLACK
6
CONTINUOUS
10
5.90679
20
-3.56829
11
5.91324
21
-3.57096
0
LINE
8
BLACK
6
CONTINUOUS
10
5.91324
20
-3.57096
11
5.91904
21
-3.57484
0
LINE
8
BLACK
6
CONTINUOUS
10
5.91904
20
-3.57484
11
5.92398
21
-3.57977
0
LINE
8
BLACK
6
CONTINUOUS
10
5.92398
20
-3.57977
11
5.92786
21
-3.58558
0
LINE
8
BLACK
6
CONTINUOUS
10
5.92786
20
-3.58558
11
5.93053
21
-3.59203
0
LINE
8
BLACK
6
CONTINUOUS
10
5.93053
20
-3.59203
11
5.93189
21
-3.59887
0
LINE
8
BLACK
6
CONTINUOUS
10
5.93189
20
-3.59887
11
5.93189
21
-3.60585
0
LINE
8
BLACK
6
CONTINUOUS
10
5.93189
20
-3.60585
11
5.93053
21
-3.6127
0
LINE
8
BLACK
6
CONTINUOUS
10
5.93053
20
-3.6127
11
5.92786
21
-3.61915
0
LINE
8
BLACK
6
CONTINUOUS
10
5.92786
20
-3.61915
11
5.92398
21
-3.62495
0
LINE
8
BLACK
6
CONTINUOUS
10
5.92398
20
-3.62495
11
5.91904
21
-3.62988
0
LINE
8
BLACK
6
CONTINUOUS
10
5.91904
20
-3.62988
11
5.91324
21
-3.63376
0
LINE
8
BLACK
6
CONTINUOUS
10
5.91324
20
-3.63376
11
5.90679
21
-3.63643
0
LINE
8
BLACK
6
CONTINUOUS
10
5.90679
20
-3.63643
11
5.89995
21
-3.6378
0
LINE
8
BLACK
6
CONTINUOUS
10
5.89995
20
-3.6378
11
5.89297
21
-3.6378
0
LINE
8
BLACK
6
CONTINUOUS
10
5.89297
20
-3.6378
11
5.88612
21
-3.63643
0
LINE
8
BLACK
6
CONTINUOUS
10
5.88612
20
-3.63643
11
5.87967
21
-3.63376
0
LINE
8
BLACK
6
CONTINUOUS
10
5.87967
20
-3.63376
11
5.87387
21
-3.62988
0
LINE
8
BLACK
6
CONTINUOUS
10
5.87387
20
-3.62988
11
5.86893
21
-3.62495
0
LINE
8
BLACK
6
CONTINUOUS
10
5.86893
20
-3.62495
11
5.86506
21
-3.61915
0
LINE
8
BLACK
6
CONTINUOUS
10
5.86506
20
-3.61915
11
5.86239
21
-3.6127
0
LINE
8
BLACK
6
CONTINUOUS
10
5.86239
20
-3.6127
11
5.86102
21
-3.60585
0
LINE
8
BLACK
6
CONTINUOUS
10
5.86102
20
-3.60585
11
5.86102
21
-3.59887
0
LINE
8
BLACK
6
CONTINUOUS
10
5.86102
20
-3.59887
11
5.86239
21
-3.59203
0
LINE
8
BLACK
6
CONTINUOUS
10
5.86239
20
-3.59203
11
5.86506
21
-3.58558
0
LINE
8
BLACK
6
CONTINUOUS
10
5.86506
20
-3.58558
11
5.86893
21
-3.57977
0
LINE
8
BLACK
6
CONTINUOUS
10
5.86893
20
-3.57977
11
5.87387
21
-3.57484
0
LINE
8
BLACK
6
CONTINUOUS
10
5.87387
20
-3.57484
11
5.87967
21
-3.57096
0
LINE
8
BLACK
6
CONTINUOUS
10
5.87967
20
-3.57096
11
5.88612
21
-3.56829
0
LINE
8
BLACK
6
CONTINUOUS
10
5.88612
20
-3.56829
11
5.89297
21
-3.56693
0
LINE
8
BLACK
6
CONTINUOUS
10
5.89297
20
-3.56693
11
5.89995
21
-3.56693
0
LINE
8
BLACK
6
CONTINUOUS
10
5.89995
20
-3.56693
11
5.90679
21
-3.56829
0
LINE
8
BLACK
6
CONTINUOUS
10
5.81763
20
-3.56727
11
5.82095
21
-3.56828
0
LINE
8
BLACK
6
CONTINUOUS
10
5.82095
20
-3.56828
11
5.82402
21
-3.56991
0
LINE
8
BLACK
6
CONTINUOUS
10
5.82402
20
-3.56991
11
5.8267
21
-3.57212
0
LINE
8
BLACK
6
CONTINUOUS
10
5.8267
20
-3.57212
11
5.8289
21
-3.5748
0
LINE
8
BLACK
6
CONTINUOUS
10
5.8289
20
-3.5748
11
5.83054
21
-3.57787
0
LINE
8
BLACK
6
CONTINUOUS
10
5.83054
20
-3.57787
11
5.83155
21
-3.58119
0
LINE
8
BLACK
6
CONTINUOUS
10
5.83155
20
-3.58119
11
5.83189
21
-3.58465
0
LINE
8
BLACK
6
CONTINUOUS
10
5.83189
20
-3.58465
11
5.83189
21
-3.62008
0
LINE
8
BLACK
6
CONTINUOUS
10
5.83189
20
-3.62008
11
5.83155
21
-3.62354
0
LINE
8
BLACK
6
CONTINUOUS
10
5.83155
20
-3.62354
11
5.83054
21
-3.62686
0
LINE
8
BLACK
6
CONTINUOUS
10
5.83054
20
-3.62686
11
5.8289
21
-3.62992
0
LINE
8
BLACK
6
CONTINUOUS
10
5.8289
20
-3.62992
11
5.8267
21
-3.63261
0
LINE
8
BLACK
6
CONTINUOUS
10
5.8267
20
-3.63261
11
5.82402
21
-3.63481
0
LINE
8
BLACK
6
CONTINUOUS
10
5.82402
20
-3.63481
11
5.82095
21
-3.63645
0
LINE
8
BLACK
6
CONTINUOUS
10
5.82095
20
-3.63645
11
5.81763
21
-3.63745
0
LINE
8
BLACK
6
CONTINUOUS
10
5.81763
20
-3.63745
11
5.81417
21
-3.6378
0
LINE
8
BLACK
6
CONTINUOUS
10
5.81417
20
-3.6378
11
5.77874
21
-3.6378
0
LINE
8
BLACK
6
CONTINUOUS
10
5.77874
20
-3.6378
11
5.77528
21
-3.63745
0
LINE
8
BLACK
6
CONTINUOUS
10
5.77528
20
-3.63745
11
5.77196
21
-3.63645
0
LINE
8
BLACK
6
CONTINUOUS
10
5.77196
20
-3.63645
11
5.7689
21
-3.63481
0
LINE
8
BLACK
6
CONTINUOUS
10
5.7689
20
-3.63481
11
5.76621
21
-3.63261
0
LINE
8
BLACK
6
CONTINUOUS
10
5.76621
20
-3.63261
11
5.76401
21
-3.62992
0
LINE
8
BLACK
6
CONTINUOUS
10
5.76401
20
-3.62992
11
5.76237
21
-3.62686
0
LINE
8
BLACK
6
CONTINUOUS
10
5.76237
20
-3.62686
11
5.76136
21
-3.62354
0
LINE
8
BLACK
6
CONTINUOUS
10
5.76136
20
-3.62354
11
5.76102
21
-3.62008
0
LINE
8
BLACK
6
CONTINUOUS
10
5.76102
20
-3.62008
11
5.76102
21
-3.58465
0
LINE
8
BLACK
6
CONTINUOUS
10
5.76102
20
-3.58465
11
5.76136
21
-3.58119
0
LINE
8
BLACK
6
CONTINUOUS
10
5.76136
20
-3.58119
11
5.76237
21
-3.57787
0
LINE
8
BLACK
6
CONTINUOUS
10
5.76237
20
-3.57787
11
5.76401
21
-3.5748
0
LINE
8
BLACK
6
CONTINUOUS
10
5.76401
20
-3.5748
11
5.76621
21
-3.57212
0
LINE
8
BLACK
6
CONTINUOUS
10
5.76621
20
-3.57212
11
5.7689
21
-3.56991
0
LINE
8
BLACK
6
CONTINUOUS
10
5.7689
20
-3.56991
11
5.77196
21
-3.56828
0
LINE
8
BLACK
6
CONTINUOUS
10
5.77196
20
-3.56828
11
5.77528
21
-3.56727
0
LINE
8
BLACK
6
CONTINUOUS
10
5.77528
20
-3.56727
11
5.77874
21
-3.56693
0
LINE
8
BLACK
6
CONTINUOUS
10
5.77874
20
-3.56693
11
5.81417
21
-3.56693
0
LINE
8
BLACK
6
CONTINUOUS
10
5.81417
20
-3.56693
11
5.81763
21
-3.56727
0
LINE
8
BLACK
6
CONTINUOUS
10
6.2687
20
-3.52165
11
6.21161
21
-3.52165
0
LINE
8
BLACK
6
CONTINUOUS
10
6.21161
20
-3.52165
11
6.21161
21
-3.48228
0
LINE
8
BLACK
6
CONTINUOUS
10
6.21161
20
-3.48228
11
6.2687
21
-3.48228
0
LINE
8
BLACK
6
CONTINUOUS
10
6.2687
20
-3.48228
11
6.2687
21
-3.52165
0
LINE
8
BLACK
6
CONTINUOUS
10
5.4813
20
-3.52165
11
5.42421
21
-3.52165
0
LINE
8
BLACK
6
CONTINUOUS
10
5.42421
20
-3.52165
11
5.42421
21
-3.48228
0
LINE
8
BLACK
6
CONTINUOUS
10
5.42421
20
-3.48228
11
5.4813
21
-3.48228
0
LINE
8
BLACK
6
CONTINUOUS
10
5.4813
20
-3.48228
11
5.4813
21
-3.52165
0
LINE
8
BLACK
6
CONTINUOUS
10
5.85679
20
-3.43207
11
5.86324
21
-3.43474
0
LINE
8
BLACK
6
CONTINUOUS
10
5.86324
20
-3.43474
11
5.86904
21
-3.43862
0
LINE
8
BLACK
6
CONTINUOUS
10
5.86904
20
-3.43862
11
5.87398
21
-3.44355
0
LINE
8
BLACK
6
CONTINUOUS
10
5.87398
20
-3.44355
11
5.87786
21
-3.44936
0
LINE
8
BLACK
6
CONTINUOUS
10
5.87786
20
-3.44936
11
5.88053
21
-3.45581
0
LINE
8
BLACK
6
CONTINUOUS
10
5.88053
20
-3.45581
11
5.88189
21
-3.46265
0
LINE
8
BLACK
6
CONTINUOUS
10
5.88189
20
-3.46265
11
5.88189
21
-3.46963
0
LINE
8
BLACK
6
CONTINUOUS
10
5.88189
20
-3.46963
11
5.88053
21
-3.47648
0
LINE
8
BLACK
6
CONTINUOUS
10
5.88053
20
-3.47648
11
5.87786
21
-3.48293
0
LINE
8
BLACK
6
CONTINUOUS
10
5.87786
20
-3.48293
11
5.87398
21
-3.48873
0
LINE
8
BLACK
6
CONTINUOUS
10
5.87398
20
-3.48873
11
5.86904
21
-3.49366
0
LINE
8
BLACK
6
CONTINUOUS
10
5.86904
20
-3.49366
11
5.86324
21
-3.49754
0
LINE
8
BLACK
6
CONTINUOUS
10
5.86324
20
-3.49754
11
5.85679
21
-3.50021
0
LINE
8
BLACK
6
CONTINUOUS
10
5.85679
20
-3.50021
11
5.84995
21
-3.50157
0
LINE
8
BLACK
6
CONTINUOUS
10
5.84995
20
-3.50157
11
5.84297
21
-3.50157
0
LINE
8
BLACK
6
CONTINUOUS
10
5.84297
20
-3.50157
11
5.83612
21
-3.50021
0
LINE
8
BLACK
6
CONTINUOUS
10
5.83612
20
-3.50021
11
5.82967
21
-3.49754
0
LINE
8
BLACK
6
CONTINUOUS
10
5.82967
20
-3.49754
11
5.82387
21
-3.49366
0
LINE
8
BLACK
6
CONTINUOUS
10
5.82387
20
-3.49366
11
5.81893
21
-3.48873
0
LINE
8
BLACK
6
CONTINUOUS
10
5.81893
20
-3.48873
11
5.81506
21
-3.48293
0
LINE
8
BLACK
6
CONTINUOUS
10
5.81506
20
-3.48293
11
5.81239
21
-3.47648
0
LINE
8
BLACK
6
CONTINUOUS
10
5.81239
20
-3.47648
11
5.81102
21
-3.46963
0
LINE
8
BLACK
6
CONTINUOUS
10
5.81102
20
-3.46963
11
5.81102
21
-3.46265
0
LINE
8
BLACK
6
CONTINUOUS
10
5.81102
20
-3.46265
11
5.81239
21
-3.45581
0
LINE
8
BLACK
6
CONTINUOUS
10
5.81239
20
-3.45581
11
5.81506
21
-3.44936
0
LINE
8
BLACK
6
CONTINUOUS
10
5.81506
20
-3.44936
11
5.81893
21
-3.44355
0
LINE
8
BLACK
6
CONTINUOUS
10
5.81893
20
-3.44355
11
5.82387
21
-3.43862
0
LINE
8
BLACK
6
CONTINUOUS
10
5.82387
20
-3.43862
11
5.82967
21
-3.43474
0
LINE
8
BLACK
6
CONTINUOUS
10
5.82967
20
-3.43474
11
5.83612
21
-3.43207
0
LINE
8
BLACK
6
CONTINUOUS
10
5.83612
20
-3.43207
11
5.84297
21
-3.43071
0
LINE
8
BLACK
6
CONTINUOUS
10
5.84297
20
-3.43071
11
5.84995
21
-3.43071
0
LINE
8
BLACK
6
CONTINUOUS
10
5.84995
20
-3.43071
11
5.85679
21
-3.43207
0
LINE
8
BLACK
6
CONTINUOUS
10
6.2687
20
-3.44685
11
6.21161
21
-3.44685
0
LINE
8
BLACK
6
CONTINUOUS
10
6.21161
20
-3.44685
11
6.21161
21
-3.40748
0
LINE
8
BLACK
6
CONTINUOUS
10
6.21161
20
-3.40748
11
6.2687
21
-3.40748
0
LINE
8
BLACK
6
CONTINUOUS
10
6.2687
20
-3.40748
11
6.2687
21
-3.44685
0
LINE
8
BLACK
6
CONTINUOUS
10
5.4813
20
-3.44685
11
5.42421
21
-3.44685
0
LINE
8
BLACK
6
CONTINUOUS
10
5.42421
20
-3.44685
11
5.42421
21
-3.40748
0
LINE
8
BLACK
6
CONTINUOUS
10
5.42421
20
-3.40748
11
5.4813
21
-3.40748
0
LINE
8
BLACK
6
CONTINUOUS
10
5.4813
20
-3.40748
11
5.4813
21
-3.44685
0
LINE
8
BLACK
6
CONTINUOUS
10
5.75679
20
-3.33207
11
5.76324
21
-3.33474
0
LINE
8
BLACK
6
CONTINUOUS
10
5.76324
20
-3.33474
11
5.76904
21
-3.33862
0
LINE
8
BLACK
6
CONTINUOUS
10
5.76904
20
-3.33862
11
5.77398
21
-3.34355
0
LINE
8
BLACK
6
CONTINUOUS
10
5.77398
20
-3.34355
11
5.77786
21
-3.34936
0
LINE
8
BLACK
6
CONTINUOUS
10
5.77786
20
-3.34936
11
5.78053
21
-3.35581
0
LINE
8
BLACK
6
CONTINUOUS
10
5.78053
20
-3.35581
11
5.78189
21
-3.36265
0
LINE
8
BLACK
6
CONTINUOUS
10
5.78189
20
-3.36265
11
5.78189
21
-3.36963
0
LINE
8
BLACK
6
CONTINUOUS
10
5.78189
20
-3.36963
11
5.78053
21
-3.37648
0
LINE
8
BLACK
6
CONTINUOUS
10
5.78053
20
-3.37648
11
5.77786
21
-3.38293
0
LINE
8
BLACK
6
CONTINUOUS
10
5.77786
20
-3.38293
11
5.77398
21
-3.38873
0
LINE
8
BLACK
6
CONTINUOUS
10
5.77398
20
-3.38873
11
5.76904
21
-3.39366
0
LINE
8
BLACK
6
CONTINUOUS
10
5.76904
20
-3.39366
11
5.76324
21
-3.39754
0
LINE
8
BLACK
6
CONTINUOUS
10
5.76324
20
-3.39754
11
5.75679
21
-3.40021
0
LINE
8
BLACK
6
CONTINUOUS
10
5.75679
20
-3.40021
11
5.74995
21
-3.40157
0
LINE
8
BLACK
6
CONTINUOUS
10
5.74995
20
-3.40157
11
5.74297
21
-3.40157
0
LINE
8
BLACK
6
CONTINUOUS
10
5.74297
20
-3.40157
11
5.73612
21
-3.40021
0
LINE
8
BLACK
6
CONTINUOUS
10
5.73612
20
-3.40021
11
5.72967
21
-3.39754
0
LINE
8
BLACK
6
CONTINUOUS
10
5.72967
20
-3.39754
11
5.72387
21
-3.39366
0
LINE
8
BLACK
6
CONTINUOUS
10
5.72387
20
-3.39366
11
5.71893
21
-3.38873
0
LINE
8
BLACK
6
CONTINUOUS
10
5.71893
20
-3.38873
11
5.71506
21
-3.38293
0
LINE
8
BLACK
6
CONTINUOUS
10
5.71506
20
-3.38293
11
5.71239
21
-3.37648
0
LINE
8
BLACK
6
CONTINUOUS
10
5.71239
20
-3.37648
11
5.71102
21
-3.36963
0
LINE
8
BLACK
6
CONTINUOUS
10
5.71102
20
-3.36963
11
5.71102
21
-3.36265
0
LINE
8
BLACK
6
CONTINUOUS
10
5.71102
20
-3.36265
11
5.71239
21
-3.35581
0
LINE
8
BLACK
6
CONTINUOUS
10
5.71239
20
-3.35581
11
5.71506
21
-3.34936
0
LINE
8
BLACK
6
CONTINUOUS
10
5.71506
20
-3.34936
11
5.71893
21
-3.34355
0
LINE
8
BLACK
6
CONTINUOUS
10
5.71893
20
-3.34355
11
5.72387
21
-3.33862
0
LINE
8
BLACK
6
CONTINUOUS
10
5.72387
20
-3.33862
11
5.72967
21
-3.33474
0
LINE
8
BLACK
6
CONTINUOUS
10
5.72967
20
-3.33474
11
5.73612
21
-3.33207
0
LINE
8
BLACK
6
CONTINUOUS
10
5.73612
20
-3.33207
11
5.74297
21
-3.33071
0
LINE
8
BLACK
6
CONTINUOUS
10
5.74297
20
-3.33071
11
5.74995
21
-3.33071
0
LINE
8
BLACK
6
CONTINUOUS
10
5.74995
20
-3.33071
11
5.75679
21
-3.33207
0
LINE
8
BLACK
6
CONTINUOUS
10
5.95679
20
-3.33207
11
5.96324
21
-3.33474
0
LINE
8
BLACK
6
CONTINUOUS
10
5.96324
20
-3.33474
11
5.96904
21
-3.33862
0
LINE
8
BLACK
6
CONTINUOUS
10
5.96904
20
-3.33862
11
5.97398
21
-3.34355
0
LINE
8
BLACK
6
CONTINUOUS
10
5.97398
20
-3.34355
11
5.97786
21
-3.34936
0
LINE
8
BLACK
6
CONTINUOUS
10
5.97786
20
-3.34936
11
5.98053
21
-3.35581
0
LINE
8
BLACK
6
CONTINUOUS
10
5.98053
20
-3.35581
11
5.98189
21
-3.36265
0
LINE
8
BLACK
6
CONTINUOUS
10
5.98189
20
-3.36265
11
5.98189
21
-3.36963
0
LINE
8
BLACK
6
CONTINUOUS
10
5.98189
20
-3.36963
11
5.98053
21
-3.37648
0
LINE
8
BLACK
6
CONTINUOUS
10
5.98053
20
-3.37648
11
5.97786
21
-3.38293
0
LINE
8
BLACK
6
CONTINUOUS
10
5.97786
20
-3.38293
11
5.97398
21
-3.38873
0
LINE
8
BLACK
6
CONTINUOUS
10
5.97398
20
-3.38873
11
5.96904
21
-3.39366
0
LINE
8
BLACK
6
CONTINUOUS
10
5.96904
20
-3.39366
11
5.96324
21
-3.39754
0
LINE
8
BLACK
6
CONTINUOUS
10
5.96324
20
-3.39754
11
5.95679
21
-3.40021
0
LINE
8
BLACK
6
CONTINUOUS
10
5.95679
20
-3.40021
11
5.94995
21
-3.40157
0
LINE
8
BLACK
6
CONTINUOUS
10
5.94995
20
-3.40157
11
5.94297
21
-3.40157
0
LINE
8
BLACK
6
CONTINUOUS
10
5.94297
20
-3.40157
11
5.93612
21
-3.40021
0
LINE
8
BLACK
6
CONTINUOUS
10
5.93612
20
-3.40021
11
5.92967
21
-3.39754
0
LINE
8
BLACK
6
CONTINUOUS
10
5.92967
20
-3.39754
11
5.92387
21
-3.39366
0
LINE
8
BLACK
6
CONTINUOUS
10
5.92387
20
-3.39366
11
5.91893
21
-3.38873
0
LINE
8
BLACK
6
CONTINUOUS
10
5.91893
20
-3.38873
11
5.91506
21
-3.38293
0
LINE
8
BLACK
6
CONTINUOUS
10
5.91506
20
-3.38293
11
5.91239
21
-3.37648
0
LINE
8
BLACK
6
CONTINUOUS
10
5.91239
20
-3.37648
11
5.91102
21
-3.36963
0
LINE
8
BLACK
6
CONTINUOUS
10
5.91102
20
-3.36963
11
5.91102
21
-3.36265
0
LINE
8
BLACK
6
CONTINUOUS
10
5.91102
20
-3.36265
11
5.91239
21
-3.35581
0
LINE
8
BLACK
6
CONTINUOUS
10
5.91239
20
-3.35581
11
5.91506
21
-3.34936
0
LINE
8
BLACK
6
CONTINUOUS
10
5.91506
20
-3.34936
11
5.91893
21
-3.34355
0
LINE
8
BLACK
6
CONTINUOUS
10
5.91893
20
-3.34355
11
5.92387
21
-3.33862
0
LINE
8
BLACK
6
CONTINUOUS
10
5.92387
20
-3.33862
11
5.92967
21
-3.33474
0
LINE
8
BLACK
6
CONTINUOUS
10
5.92967
20
-3.33474
11
5.93612
21
-3.33207
0
LINE
8
BLACK
6
CONTINUOUS
10
5.93612
20
-3.33207
11
5.94297
21
-3.33071
0
LINE
8
BLACK
6
CONTINUOUS
10
5.94297
20
-3.33071
11
5.94995
21
-3.33071
0
LINE
8
BLACK
6
CONTINUOUS
10
5.94995
20
-3.33071
11
5.95679
21
-3.33207
0
LINE
8
BLACK
6
CONTINUOUS
10
6.25049
20
-3.2805
11
6.25694
21
-3.28317
0
LINE
8
BLACK
6
CONTINUOUS
10
6.25694
20
-3.28317
11
6.26274
21
-3.28704
0
LINE
8
BLACK
6
CONTINUOUS
10
6.26274
20
-3.28704
11
6.26768
21
-3.29198
0
LINE
8
BLACK
6
CONTINUOUS
10
6.26768
20
-3.29198
11
6.27156
21
-3.29778
0
LINE
8
BLACK
6
CONTINUOUS
10
6.27156
20
-3.29778
11
6.27423
21
-3.30423
0
LINE
8
BLACK
6
CONTINUOUS
10
6.27423
20
-3.30423
11
6.27559
21
-3.31108
0
LINE
8
BLACK
6
CONTINUOUS
10
6.27559
20
-3.31108
11
6.27559
21
-3.31806
0
LINE
8
BLACK
6
CONTINUOUS
10
6.27559
20
-3.31806
11
6.27423
21
-3.3249
0
LINE
8
BLACK
6
CONTINUOUS
10
6.27423
20
-3.3249
11
6.27156
21
-3.33135
0
LINE
8
BLACK
6
CONTINUOUS
10
6.27156
20
-3.33135
11
6.26768
21
-3.33715
0
LINE
8
BLACK
6
CONTINUOUS
10
6.26768
20
-3.33715
11
6.26274
21
-3.34209
0
LINE
8
BLACK
6
CONTINUOUS
10
6.26274
20
-3.34209
11
6.25694
21
-3.34597
0
LINE
8
BLACK
6
CONTINUOUS
10
6.25694
20
-3.34597
11
6.25049
21
-3.34864
0
LINE
8
BLACK
6
CONTINUOUS
10
6.25049
20
-3.34864
11
6.24365
21
-3.35
0
LINE
8
BLACK
6
CONTINUOUS
10
6.24365
20
-3.35
11
6.23667
21
-3.35
0
LINE
8
BLACK
6
CONTINUOUS
10
6.23667
20
-3.35
11
6.22982
21
-3.34864
0
LINE
8
BLACK
6
CONTINUOUS
10
6.22982
20
-3.34864
11
6.22337
21
-3.34597
0
LINE
8
BLACK
6
CONTINUOUS
10
6.22337
20
-3.34597
11
6.21757
21
-3.34209
0
LINE
8
BLACK
6
CONTINUOUS
10
6.21757
20
-3.34209
11
6.21263
21
-3.33715
0
LINE
8
BLACK
6
CONTINUOUS
10
6.21263
20
-3.33715
11
6.20876
21
-3.33135
0
LINE
8
BLACK
6
CONTINUOUS
10
6.20876
20
-3.33135
11
6.20609
21
-3.3249
0
LINE
8
BLACK
6
CONTINUOUS
10
6.20609
20
-3.3249
11
6.20472
21
-3.31806
0
LINE
8
BLACK
6
CONTINUOUS
10
6.20472
20
-3.31806
11
6.20472
21
-3.31108
0
LINE
8
BLACK
6
CONTINUOUS
10
6.20472
20
-3.31108
11
6.20609
21
-3.30423
0
LINE
8
BLACK
6
CONTINUOUS
10
6.20609
20
-3.30423
11
6.20876
21
-3.29778
0
LINE
8
BLACK
6
CONTINUOUS
10
6.20876
20
-3.29778
11
6.21263
21
-3.29198
0
LINE
8
BLACK
6
CONTINUOUS
10
6.21263
20
-3.29198
11
6.21757
21
-3.28704
0
LINE
8
BLACK
6
CONTINUOUS
10
6.21757
20
-3.28704
11
6.22337
21
-3.28317
0
LINE
8
BLACK
6
CONTINUOUS
10
6.22337
20
-3.28317
11
6.22982
21
-3.2805
0
LINE
8
BLACK
6
CONTINUOUS
10
6.22982
20
-3.2805
11
6.23667
21
-3.27913
0
LINE
8
BLACK
6
CONTINUOUS
10
6.23667
20
-3.27913
11
6.24365
21
-3.27913
0
LINE
8
BLACK
6
CONTINUOUS
10
6.24365
20
-3.27913
11
6.25049
21
-3.2805
0
LINE
8
BLACK
6
CONTINUOUS
10
5.46309
20
-3.2805
11
5.46954
21
-3.28317
0
LINE
8
BLACK
6
CONTINUOUS
10
5.46954
20
-3.28317
11
5.47534
21
-3.28704
0
LINE
8
BLACK
6
CONTINUOUS
10
5.47534
20
-3.28704
11
5.48028
21
-3.29198
0
LINE
8
BLACK
6
CONTINUOUS
10
5.48028
20
-3.29198
11
5.48416
21
-3.29778
0
LINE
8
BLACK
6
CONTINUOUS
10
5.48416
20
-3.29778
11
5.48683
21
-3.30423
0
LINE
8
BLACK
6
CONTINUOUS
10
5.48683
20
-3.30423
11
5.48819
21
-3.31108
0
LINE
8
BLACK
6
CONTINUOUS
10
5.48819
20
-3.31108
11
5.48819
21
-3.31806
0
LINE
8
BLACK
6
CONTINUOUS
10
5.48819
20
-3.31806
11
5.48683
21
-3.3249
0
LINE
8
BLACK
6
CONTINUOUS
10
5.48683
20
-3.3249
11
5.48416
21
-3.33135
0
LINE
8
BLACK
6
CONTINUOUS
10
5.48416
20
-3.33135
11
5.48028
21
-3.33715
0
LINE
8
BLACK
6
CONTINUOUS
10
5.48028
20
-3.33715
11
5.47534
21
-3.34209
0
LINE
8
BLACK
6
CONTINUOUS
10
5.47534
20
-3.34209
11
5.46954
21
-3.34597
0
LINE
8
BLACK
6
CONTINUOUS
10
5.46954
20
-3.34597
11
5.46309
21
-3.34864
0
LINE
8
BLACK
6
CONTINUOUS
10
5.46309
20
-3.34864
11
5.45625
21
-3.35
0
LINE
8
BLACK
6
CONTINUOUS
10
5.45625
20
-3.35
11
5.44927
21
-3.35
0
LINE
8
BLACK
6
CONTINUOUS
10
5.44927
20
-3.35
11
5.44242
21
-3.34864
0
LINE
8
BLACK
6
CONTINUOUS
10
5.44242
20
-3.34864
11
5.43597
21
-3.34597
0
LINE
8
BLACK
6
CONTINUOUS
10
5.43597
20
-3.34597
11
5.43017
21
-3.34209
0
LINE
8
BLACK
6
CONTINUOUS
10
5.43017
20
-3.34209
11
5.42523
21
-3.33715
0
LINE
8
BLACK
6
CONTINUOUS
10
5.42523
20
-3.33715
11
5.42136
21
-3.33135
0
LINE
8
BLACK
6
CONTINUOUS
10
5.42136
20
-3.33135
11
5.41868
21
-3.3249
0
LINE
8
BLACK
6
CONTINUOUS
10
5.41868
20
-3.3249
11
5.41732
21
-3.31806
0
LINE
8
BLACK
6
CONTINUOUS
10
5.41732
20
-3.31806
11
5.41732
21
-3.31108
0
LINE
8
BLACK
6
CONTINUOUS
10
5.41732
20
-3.31108
11
5.41868
21
-3.30423
0
LINE
8
BLACK
6
CONTINUOUS
10
5.41868
20
-3.30423
11
5.42136
21
-3.29778
0
LINE
8
BLACK
6
CONTINUOUS
10
5.42136
20
-3.29778
11
5.42523
21
-3.29198
0
LINE
8
BLACK
6
CONTINUOUS
10
5.42523
20
-3.29198
11
5.43017
21
-3.28704
0
LINE
8
BLACK
6
CONTINUOUS
10
5.43017
20
-3.28704
11
5.43597
21
-3.28317
0
LINE
8
BLACK
6
CONTINUOUS
10
5.43597
20
-3.28317
11
5.44242
21
-3.2805
0
LINE
8
BLACK
6
CONTINUOUS
10
5.44242
20
-3.2805
11
5.44927
21
-3.27913
0
LINE
8
BLACK
6
CONTINUOUS
10
5.44927
20
-3.27913
11
5.45625
21
-3.27913
0
LINE
8
BLACK
6
CONTINUOUS
10
5.45625
20
-3.27913
11
5.46309
21
-3.2805
0
LINE
8
BLACK
6
CONTINUOUS
10
5.51928
20
-3.1819
11
5.52261
21
-3.18291
0
LINE
8
BLACK
6
CONTINUOUS
10
5.52261
20
-3.18291
11
5.52567
21
-3.18455
0
LINE
8
BLACK
6
CONTINUOUS
10
5.52567
20
-3.18455
11
5.52835
21
-3.18675
0
LINE
8
BLACK
6
CONTINUOUS
10
5.52835
20
-3.18675
11
5.55341
21
-3.2118
0
LINE
8
BLACK
6
CONTINUOUS
10
5.55341
20
-3.2118
11
5.55561
21
-3.21449
0
LINE
8
BLACK
6
CONTINUOUS
10
5.55561
20
-3.21449
11
5.55725
21
-3.21755
0
LINE
8
BLACK
6
CONTINUOUS
10
5.55725
20
-3.21755
11
5.55826
21
-3.22088
0
LINE
8
BLACK
6
CONTINUOUS
10
5.55826
20
-3.22088
11
5.5586
21
-3.22433
0
LINE
8
BLACK
6
CONTINUOUS
10
5.5586
20
-3.22433
11
5.55826
21
-3.22779
0
LINE
8
BLACK
6
CONTINUOUS
10
5.55826
20
-3.22779
11
5.55725
21
-3.23111
0
LINE
8
BLACK
6
CONTINUOUS
10
5.55725
20
-3.23111
11
5.55561
21
-3.23417
0
LINE
8
BLACK
6
CONTINUOUS
10
5.55561
20
-3.23417
11
5.55341
21
-3.23686
0
LINE
8
BLACK
6
CONTINUOUS
10
5.55341
20
-3.23686
11
5.52835
21
-3.26191
0
LINE
8
BLACK
6
CONTINUOUS
10
5.52835
20
-3.26191
11
5.52567
21
-3.26412
0
LINE
8
BLACK
6
CONTINUOUS
10
5.52567
20
-3.26412
11
5.52261
21
-3.26575
0
LINE
8
BLACK
6
CONTINUOUS
10
5.52261
20
-3.26575
11
5.51928
21
-3.26676
0
LINE
8
BLACK
6
CONTINUOUS
10
5.51928
20
-3.26676
11
5.51583
21
-3.2671
0
LINE
8
BLACK
6
CONTINUOUS
10
5.51583
20
-3.2671
11
5.51237
21
-3.26676
0
LINE
8
BLACK
6
CONTINUOUS
10
5.51237
20
-3.26676
11
5.50905
21
-3.26575
0
LINE
8
BLACK
6
CONTINUOUS
10
5.50905
20
-3.26575
11
5.50598
21
-3.26412
0
LINE
8
BLACK
6
CONTINUOUS
10
5.50598
20
-3.26412
11
5.5033
21
-3.26191
0
LINE
8
BLACK
6
CONTINUOUS
10
5.5033
20
-3.26191
11
5.47824
21
-3.23686
0
LINE
8
BLACK
6
CONTINUOUS
10
5.47824
20
-3.23686
11
5.47604
21
-3.23417
0
LINE
8
BLACK
6
CONTINUOUS
10
5.47604
20
-3.23417
11
5.4744
21
-3.23111
0
LINE
8
BLACK
6
CONTINUOUS
10
5.4744
20
-3.23111
11
5.47339
21
-3.22779
0
LINE
8
BLACK
6
CONTINUOUS
10
5.47339
20
-3.22779
11
5.47305
21
-3.22433
0
LINE
8
BLACK
6
CONTINUOUS
10
5.47305
20
-3.22433
11
5.47339
21
-3.22088
0
LINE
8
BLACK
6
CONTINUOUS
10
5.47339
20
-3.22088
11
5.4744
21
-3.21755
0
LINE
8
BLACK
6
CONTINUOUS
10
5.4744
20
-3.21755
11
5.47604
21
-3.21449
0
LINE
8
BLACK
6
CONTINUOUS
10
5.47604
20
-3.21449
11
5.47824
21
-3.2118
0
LINE
8
BLACK
6
CONTINUOUS
10
5.47824
20
-3.2118
11
5.5033
21
-3.18675
0
LINE
8
BLACK
6
CONTINUOUS
10
5.5033
20
-3.18675
11
5.50598
21
-3.18455
0
LINE
8
BLACK
6
CONTINUOUS
10
5.50598
20
-3.18455
11
5.50905
21
-3.18291
0
LINE
8
BLACK
6
CONTINUOUS
10
5.50905
20
-3.18291
11
5.51237
21
-3.1819
0
LINE
8
BLACK
6
CONTINUOUS
10
5.51237
20
-3.1819
11
5.51583
21
-3.18156
0
LINE
8
BLACK
6
CONTINUOUS
10
5.51583
20
-3.18156
11
5.51928
21
-3.1819
0
LINE
8
BLACK
6
CONTINUOUS
10
6.18054
20
-3.1819
11
6.18387
21
-3.18291
0
LINE
8
BLACK
6
CONTINUOUS
10
6.18387
20
-3.18291
11
6.18693
21
-3.18455
0
LINE
8
BLACK
6
CONTINUOUS
10
6.18693
20
-3.18455
11
6.18962
21
-3.18675
0
LINE
8
BLACK
6
CONTINUOUS
10
6.18962
20
-3.18675
11
6.21467
21
-3.2118
0
LINE
8
BLACK
6
CONTINUOUS
10
6.21467
20
-3.2118
11
6.21687
21
-3.21449
0
LINE
8
BLACK
6
CONTINUOUS
10
6.21687
20
-3.21449
11
6.21851
21
-3.21755
0
LINE
8
BLACK
6
CONTINUOUS
10
6.21851
20
-3.21755
11
6.21952
21
-3.22088
0
LINE
8
BLACK
6
CONTINUOUS
10
6.21952
20
-3.22088
11
6.21986
21
-3.22433
0
LINE
8
BLACK
6
CONTINUOUS
10
6.21986
20
-3.22433
11
6.21952
21
-3.22779
0
LINE
8
BLACK
6
CONTINUOUS
10
6.21952
20
-3.22779
11
6.21851
21
-3.23111
0
LINE
8
BLACK
6
CONTINUOUS
10
6.21851
20
-3.23111
11
6.21687
21
-3.23417
0
LINE
8
BLACK
6
CONTINUOUS
10
6.21687
20
-3.23417
11
6.21467
21
-3.23686
0
LINE
8
BLACK
6
CONTINUOUS
10
6.21467
20
-3.23686
11
6.18962
21
-3.26191
0
LINE
8
BLACK
6
CONTINUOUS
10
6.18962
20
-3.26191
11
6.18693
21
-3.26412
0
LINE
8
BLACK
6
CONTINUOUS
10
6.18693
20
-3.26412
11
6.18387
21
-3.26575
0
LINE
8
BLACK
6
CONTINUOUS
10
6.18387
20
-3.26575
11
6.18054
21
-3.26676
0
LINE
8
BLACK
6
CONTINUOUS
10
6.18054
20
-3.26676
11
6.17709
21
-3.2671
0
LINE
8
BLACK
6
CONTINUOUS
10
6.17709
20
-3.2671
11
6.17363
21
-3.26676
0
LINE
8
BLACK
6
CONTINUOUS
10
6.17363
20
-3.26676
11
6.17031
21
-3.26575
0
LINE
8
BLACK
6
CONTINUOUS
10
6.17031
20
-3.26575
11
6.16724
21
-3.26412
0
LINE
8
BLACK
6
CONTINUOUS
10
6.16724
20
-3.26412
11
6.16456
21
-3.26191
0
LINE
8
BLACK
6
CONTINUOUS
10
6.16456
20
-3.26191
11
6.13951
21
-3.23686
0
LINE
8
BLACK
6
CONTINUOUS
10
6.13951
20
-3.23686
11
6.1373
21
-3.23417
0
LINE
8
BLACK
6
CONTINUOUS
10
6.1373
20
-3.23417
11
6.13566
21
-3.23111
0
LINE
8
BLACK
6
CONTINUOUS
10
6.13566
20
-3.23111
11
6.13466
21
-3.22779
0
LINE
8
BLACK
6
CONTINUOUS
10
6.13466
20
-3.22779
11
6.13432
21
-3.22433
0
LINE
8
BLACK
6
CONTINUOUS
10
6.13432
20
-3.22433
11
6.13466
21
-3.22088
0
LINE
8
BLACK
6
CONTINUOUS
10
6.13466
20
-3.22088
11
6.13566
21
-3.21755
0
LINE
8
BLACK
6
CONTINUOUS
10
6.13566
20
-3.21755
11
6.1373
21
-3.21449
0
LINE
8
BLACK
6
CONTINUOUS
10
6.1373
20
-3.21449
11
6.13951
21
-3.2118
0
LINE
8
BLACK
6
CONTINUOUS
10
6.13951
20
-3.2118
11
6.16456
21
-3.18675
0
LINE
8
BLACK
6
CONTINUOUS
10
6.16456
20
-3.18675
11
6.16724
21
-3.18455
0
LINE
8
BLACK
6
CONTINUOUS
10
6.16724
20
-3.18455
11
6.17031
21
-3.18291
0
LINE
8
BLACK
6
CONTINUOUS
10
6.17031
20
-3.18291
11
6.17363
21
-3.1819
0
LINE
8
BLACK
6
CONTINUOUS
10
6.17363
20
-3.1819
11
6.17709
21
-3.18156
0
LINE
8
BLACK
6
CONTINUOUS
10
6.17709
20
-3.18156
11
6.18054
21
-3.1819
0
LINE
8
BLACK
6
CONTINUOUS
10
6.00679
20
-3.19428
11
6.01324
21
-3.19695
0
LINE
8
BLACK
6
CONTINUOUS
10
6.01324
20
-3.19695
11
6.01904
21
-3.20082
0
LINE
8
BLACK
6
CONTINUOUS
10
6.01904
20
-3.20082
11
6.02398
21
-3.20576
0
LINE
8
BLACK
6
CONTINUOUS
10
6.02398
20
-3.20576
11
6.02786
21
-3.21156
0
LINE
8
BLACK
6
CONTINUOUS
10
6.02786
20
-3.21156
11
6.03053
21
-3.21801
0
LINE
8
BLACK
6
CONTINUOUS
10
6.03053
20
-3.21801
11
6.03189
21
-3.22486
0
LINE
8
BLACK
6
CONTINUOUS
10
6.03189
20
-3.22486
11
6.03189
21
-3.23184
0
LINE
8
BLACK
6
CONTINUOUS
10
6.03189
20
-3.23184
11
6.03053
21
-3.23868
0
LINE
8
BLACK
6
CONTINUOUS
10
6.03053
20
-3.23868
11
6.02786
21
-3.24513
0
LINE
8
BLACK
6
CONTINUOUS
10
6.02786
20
-3.24513
11
6.02398
21
-3.25093
0
LINE
8
BLACK
6
CONTINUOUS
10
6.02398
20
-3.25093
11
6.01904
21
-3.25587
0
LINE
8
BLACK
6
CONTINUOUS
10
6.01904
20
-3.25587
11
6.01324
21
-3.25975
0
LINE
8
BLACK
6
CONTINUOUS
10
6.01324
20
-3.25975
11
6.00679
21
-3.26242
0
LINE
8
BLACK
6
CONTINUOUS
10
6.00679
20
-3.26242
11
5.99995
21
-3.26378
0
LINE
8
BLACK
6
CONTINUOUS
10
5.99995
20
-3.26378
11
5.99297
21
-3.26378
0
LINE
8
BLACK
6
CONTINUOUS
10
5.99297
20
-3.26378
11
5.98612
21
-3.26242
0
LINE
8
BLACK
6
CONTINUOUS
10
5.98612
20
-3.26242
11
5.97967
21
-3.25975
0
LINE
8
BLACK
6
CONTINUOUS
10
5.97967
20
-3.25975
11
5.97387
21
-3.25587
0
LINE
8
BLACK
6
CONTINUOUS
10
5.97387
20
-3.25587
11
5.96893
21
-3.25093
0
LINE
8
BLACK
6
CONTINUOUS
10
5.96893
20
-3.25093
11
5.96506
21
-3.24513
0
LINE
8
BLACK
6
CONTINUOUS
10
5.96506
20
-3.24513
11
5.96239
21
-3.23868
0
LINE
8
BLACK
6
CONTINUOUS
10
5.96239
20
-3.23868
11
5.96102
21
-3.23184
0
LINE
8
BLACK
6
CONTINUOUS
10
5.96102
20
-3.23184
11
5.96102
21
-3.22486
0
LINE
8
BLACK
6
CONTINUOUS
10
5.96102
20
-3.22486
11
5.96239
21
-3.21801
0
LINE
8
BLACK
6
CONTINUOUS
10
5.96239
20
-3.21801
11
5.96506
21
-3.21156
0
LINE
8
BLACK
6
CONTINUOUS
10
5.96506
20
-3.21156
11
5.96893
21
-3.20576
0
LINE
8
BLACK
6
CONTINUOUS
10
5.96893
20
-3.20576
11
5.97387
21
-3.20082
0
LINE
8
BLACK
6
CONTINUOUS
10
5.97387
20
-3.20082
11
5.97967
21
-3.19695
0
LINE
8
BLACK
6
CONTINUOUS
10
5.97967
20
-3.19695
11
5.98612
21
-3.19428
0
LINE
8
BLACK
6
CONTINUOUS
10
5.98612
20
-3.19428
11
5.99297
21
-3.19291
0
LINE
8
BLACK
6
CONTINUOUS
10
5.99297
20
-3.19291
11
5.99995
21
-3.19291
0
LINE
8
BLACK
6
CONTINUOUS
10
5.99995
20
-3.19291
11
6.00679
21
-3.19428
0
LINE
8
BLACK
6
CONTINUOUS
10
5.70679
20
-3.19428
11
5.71324
21
-3.19695
0
LINE
8
BLACK
6
CONTINUOUS
10
5.71324
20
-3.19695
11
5.71904
21
-3.20082
0
LINE
8
BLACK
6
CONTINUOUS
10
5.71904
20
-3.20082
11
5.72398
21
-3.20576
0
LINE
8
BLACK
6
CONTINUOUS
10
5.72398
20
-3.20576
11
5.72786
21
-3.21156
0
LINE
8
BLACK
6
CONTINUOUS
10
5.72786
20
-3.21156
11
5.73053
21
-3.21801
0
LINE
8
BLACK
6
CONTINUOUS
10
5.73053
20
-3.21801
11
5.73189
21
-3.22486
0
LINE
8
BLACK
6
CONTINUOUS
10
5.73189
20
-3.22486
11
5.73189
21
-3.23184
0
LINE
8
BLACK
6
CONTINUOUS
10
5.73189
20
-3.23184
11
5.73053
21
-3.23868
0
LINE
8
BLACK
6
CONTINUOUS
10
5.73053
20
-3.23868
11
5.72786
21
-3.24513
0
LINE
8
BLACK
6
CONTINUOUS
10
5.72786
20
-3.24513
11
5.72398
21
-3.25093
0
LINE
8
BLACK
6
CONTINUOUS
10
5.72398
20
-3.25093
11
5.71904
21
-3.25587
0
LINE
8
BLACK
6
CONTINUOUS
10
5.71904
20
-3.25587
11
5.71324
21
-3.25975
0
LINE
8
BLACK
6
CONTINUOUS
10
5.71324
20
-3.25975
11
5.70679
21
-3.26242
0
LINE
8
BLACK
6
CONTINUOUS
10
5.70679
20
-3.26242
11
5.69995
21
-3.26378
0
LINE
8
BLACK
6
CONTINUOUS
10
5.69995
20
-3.26378
11
5.69297
21
-3.26378
0
LINE
8
BLACK
6
CONTINUOUS
10
5.69297
20
-3.26378
11
5.68612
21
-3.26242
0
LINE
8
BLACK
6
CONTINUOUS
10
5.68612
20
-3.26242
11
5.67967
21
-3.25975
0
LINE
8
BLACK
6
CONTINUOUS
10
5.67967
20
-3.25975
11
5.67387
21
-3.25587
0
LINE
8
BLACK
6
CONTINUOUS
10
5.67387
20
-3.25587
11
5.66893
21
-3.25093
0
LINE
8
BLACK
6
CONTINUOUS
10
5.66893
20
-3.25093
11
5.66506
21
-3.24513
0
LINE
8
BLACK
6
CONTINUOUS
10
5.66506
20
-3.24513
11
5.66239
21
-3.23868
0
LINE
8
BLACK
6
CONTINUOUS
10
5.66239
20
-3.23868
11
5.66102
21
-3.23184
0
LINE
8
BLACK
6
CONTINUOUS
10
5.66102
20
-3.23184
11
5.66102
21
-3.22486
0
LINE
8
BLACK
6
CONTINUOUS
10
5.66102
20
-3.22486
11
5.66239
21
-3.21801
0
LINE
8
BLACK
6
CONTINUOUS
10
5.66239
20
-3.21801
11
5.66506
21
-3.21156
0
LINE
8
BLACK
6
CONTINUOUS
10
5.66506
20
-3.21156
11
5.66893
21
-3.20576
0
LINE
8
BLACK
6
CONTINUOUS
10
5.66893
20
-3.20576
11
5.67387
21
-3.20082
0
LINE
8
BLACK
6
CONTINUOUS
10
5.67387
20
-3.20082
11
5.67967
21
-3.19695
0
LINE
8
BLACK
6
CONTINUOUS
10
5.67967
20
-3.19695
11
5.68612
21
-3.19428
0
LINE
8
BLACK
6
CONTINUOUS
10
5.68612
20
-3.19428
11
5.69297
21
-3.19291
0
LINE
8
BLACK
6
CONTINUOUS
10
5.69297
20
-3.19291
11
5.69995
21
-3.19291
0
LINE
8
BLACK
6
CONTINUOUS
10
5.69995
20
-3.19291
11
5.70679
21
-3.19428
0
LINE
8
BLACK
6
CONTINUOUS
10
5.82874
20
-3.25689
11
5.78937
21
-3.25689
0
LINE
8
BLACK
6
CONTINUOUS
10
5.78937
20
-3.25689
11
5.78937
21
-3.1998
0
LINE
8
BLACK
6
CONTINUOUS
10
5.78937
20
-3.1998
11
5.82874
21
-3.1998
0
LINE
8
BLACK
6
CONTINUOUS
10
5.82874
20
-3.1998
11
5.82874
21
-3.25689
0
LINE
8
BLACK
6
CONTINUOUS
10
5.90354
20
-3.25689
11
5.86417
21
-3.25689
0
LINE
8
BLACK
6
CONTINUOUS
10
5.86417
20
-3.25689
11
5.86417
21
-3.1998
0
LINE
8
BLACK
6
CONTINUOUS
10
5.86417
20
-3.1998
11
5.90354
21
-3.1998
0
LINE
8
BLACK
6
CONTINUOUS
10
5.90354
20
-3.1998
11
5.90354
21
-3.25689
0
LINE
8
BLACK
6
CONTINUOUS
10
6.11671
20
-3.11955
11
6.12316
21
-3.12222
0
LINE
8
BLACK
6
CONTINUOUS
10
6.12316
20
-3.12222
11
6.12896
21
-3.1261
0
LINE
8
BLACK
6
CONTINUOUS
10
6.12896
20
-3.1261
11
6.1339
21
-3.13103
0
LINE
8
BLACK
6
CONTINUOUS
10
6.1339
20
-3.13103
11
6.13778
21
-3.13684
0
LINE
8
BLACK
6
CONTINUOUS
10
6.13778
20
-3.13684
11
6.14045
21
-3.14329
0
LINE
8
BLACK
6
CONTINUOUS
10
6.14045
20
-3.14329
11
6.14181
21
-3.15013
0
LINE
8
BLACK
6
CONTINUOUS
10
6.14181
20
-3.15013
11
6.14181
21
-3.15711
0
LINE
8
BLACK
6
CONTINUOUS
10
6.14181
20
-3.15711
11
6.14045
21
-3.16396
0
LINE
8
BLACK
6
CONTINUOUS
10
6.14045
20
-3.16396
11
6.13778
21
-3.1704
0
LINE
8
BLACK
6
CONTINUOUS
10
6.13778
20
-3.1704
11
6.1339
21
-3.17621
0
LINE
8
BLACK
6
CONTINUOUS
10
6.1339
20
-3.17621
11
6.12896
21
-3.18114
0
LINE
8
BLACK
6
CONTINUOUS
10
6.12896
20
-3.18114
11
6.12316
21
-3.18502
0
LINE
8
BLACK
6
CONTINUOUS
10
6.12316
20
-3.18502
11
6.11671
21
-3.18769
0
LINE
8
BLACK
6
CONTINUOUS
10
6.11671
20
-3.18769
11
6.10987
21
-3.18905
0
LINE
8
BLACK
6
CONTINUOUS
10
6.10987
20
-3.18905
11
6.10289
21
-3.18905
0
LINE
8
BLACK
6
CONTINUOUS
10
6.10289
20
-3.18905
11
6.09604
21
-3.18769
0
LINE
8
BLACK
6
CONTINUOUS
10
6.09604
20
-3.18769
11
6.08959
21
-3.18502
0
LINE
8
BLACK
6
CONTINUOUS
10
6.08959
20
-3.18502
11
6.08379
21
-3.18114
0
LINE
8
BLACK
6
CONTINUOUS
10
6.08379
20
-3.18114
11
6.07885
21
-3.17621
0
LINE
8
BLACK
6
CONTINUOUS
10
6.07885
20
-3.17621
11
6.07498
21
-3.1704
0
LINE
8
BLACK
6
CONTINUOUS
10
6.07498
20
-3.1704
11
6.07231
21
-3.16396
0
LINE
8
BLACK
6
CONTINUOUS
10
6.07231
20
-3.16396
11
6.07094
21
-3.15711
0
LINE
8
BLACK
6
CONTINUOUS
10
6.07094
20
-3.15711
11
6.07094
21
-3.15013
0
LINE
8
BLACK
6
CONTINUOUS
10
6.07094
20
-3.15013
11
6.07231
21
-3.14329
0
LINE
8
BLACK
6
CONTINUOUS
10
6.07231
20
-3.14329
11
6.07498
21
-3.13684
0
LINE
8
BLACK
6
CONTINUOUS
10
6.07498
20
-3.13684
11
6.07885
21
-3.13103
0
LINE
8
BLACK
6
CONTINUOUS
10
6.07885
20
-3.13103
11
6.08379
21
-3.1261
0
LINE
8
BLACK
6
CONTINUOUS
10
6.08379
20
-3.1261
11
6.08959
21
-3.12222
0
LINE
8
BLACK
6
CONTINUOUS
10
6.08959
20
-3.12222
11
6.09604
21
-3.11955
0
LINE
8
BLACK
6
CONTINUOUS
10
6.09604
20
-3.11955
11
6.10289
21
-3.11819
0
LINE
8
BLACK
6
CONTINUOUS
10
6.10289
20
-3.11819
11
6.10987
21
-3.11819
0
LINE
8
BLACK
6
CONTINUOUS
10
6.10987
20
-3.11819
11
6.11671
21
-3.11955
0
LINE
8
BLACK
6
CONTINUOUS
10
5.59687
20
-3.11955
11
5.60332
21
-3.12222
0
LINE
8
BLACK
6
CONTINUOUS
10
5.60332
20
-3.12222
11
5.60912
21
-3.1261
0
LINE
8
BLACK
6
CONTINUOUS
10
5.60912
20
-3.1261
11
5.61406
21
-3.13103
0
LINE
8
BLACK
6
CONTINUOUS
10
5.61406
20
-3.13103
11
5.61794
21
-3.13684
0
LINE
8
BLACK
6
CONTINUOUS
10
5.61794
20
-3.13684
11
5.62061
21
-3.14329
0
LINE
8
BLACK
6
CONTINUOUS
10
5.62061
20
-3.14329
11
5.62197
21
-3.15013
0
LINE
8
BLACK
6
CONTINUOUS
10
5.62197
20
-3.15013
11
5.62197
21
-3.15711
0
LINE
8
BLACK
6
CONTINUOUS
10
5.62197
20
-3.15711
11
5.62061
21
-3.16396
0
LINE
8
BLACK
6
CONTINUOUS
10
5.62061
20
-3.16396
11
5.61794
21
-3.1704
0
LINE
8
BLACK
6
CONTINUOUS
10
5.61794
20
-3.1704
11
5.61406
21
-3.17621
0
LINE
8
BLACK
6
CONTINUOUS
10
5.61406
20
-3.17621
11
5.60912
21
-3.18114
0
LINE
8
BLACK
6
CONTINUOUS
10
5.60912
20
-3.18114
11
5.60332
21
-3.18502
0
LINE
8
BLACK
6
CONTINUOUS
10
5.60332
20
-3.18502
11
5.59687
21
-3.18769
0
LINE
8
BLACK
6
CONTINUOUS
10
5.59687
20
-3.18769
11
5.59003
21
-3.18905
0
LINE
8
BLACK
6
CONTINUOUS
10
5.59003
20
-3.18905
11
5.58305
21
-3.18905
0
LINE
8
BLACK
6
CONTINUOUS
10
5.58305
20
-3.18905
11
5.5762
21
-3.18769
0
LINE
8
BLACK
6
CONTINUOUS
10
5.5762
20
-3.18769
11
5.56975
21
-3.18502
0
LINE
8
BLACK
6
CONTINUOUS
10
5.56975
20
-3.18502
11
5.56395
21
-3.18114
0
LINE
8
BLACK
6
CONTINUOUS
10
5.56395
20
-3.18114
11
5.55901
21
-3.17621
0
LINE
8
BLACK
6
CONTINUOUS
10
5.55901
20
-3.17621
11
5.55514
21
-3.1704
0
LINE
8
BLACK
6
CONTINUOUS
10
5.55514
20
-3.1704
11
5.55247
21
-3.16396
0
LINE
8
BLACK
6
CONTINUOUS
10
5.55247
20
-3.16396
11
5.5511
21
-3.15711
0
LINE
8
BLACK
6
CONTINUOUS
10
5.5511
20
-3.15711
11
5.5511
21
-3.15013
0
LINE
8
BLACK
6
CONTINUOUS
10
5.5511
20
-3.15013
11
5.55247
21
-3.14329
0
LINE
8
BLACK
6
CONTINUOUS
10
5.55247
20
-3.14329
11
5.55514
21
-3.13684
0
LINE
8
BLACK
6
CONTINUOUS
10
5.55514
20
-3.13684
11
5.55901
21
-3.13103
0
LINE
8
BLACK
6
CONTINUOUS
10
5.55901
20
-3.13103
11
5.56395
21
-3.1261
0
LINE
8
BLACK
6
CONTINUOUS
10
5.56395
20
-3.1261
11
5.56975
21
-3.12222
0
LINE
8
BLACK
6
CONTINUOUS
10
5.56975
20
-3.12222
11
5.5762
21
-3.11955
0
LINE
8
BLACK
6
CONTINUOUS
10
5.5762
20
-3.11955
11
5.58305
21
-3.11819
0
LINE
8
BLACK
6
CONTINUOUS
10
5.58305
20
-3.11819
11
5.59003
21
-3.11819
0
LINE
8
BLACK
6
CONTINUOUS
10
5.59003
20
-3.11819
11
5.59687
21
-3.11955
0
LINE
8
BLACK
6
CONTINUOUS
10
5.86396
20
-2.91475
11
5.87488
21
-2.91927
0
LINE
8
BLACK
6
CONTINUOUS
10
5.87488
20
-2.91927
11
5.8847
21
-2.92584
0
LINE
8
BLACK
6
CONTINUOUS
10
5.8847
20
-2.92584
11
5.89306
21
-2.93419
0
LINE
8
BLACK
6
CONTINUOUS
10
5.89306
20
-2.93419
11
5.89963
21
-2.94402
0
LINE
8
BLACK
6
CONTINUOUS
10
5.89963
20
-2.94402
11
5.90415
21
-2.95494
0
LINE
8
BLACK
6
CONTINUOUS
10
5.90415
20
-2.95494
11
5.90646
21
-2.96653
0
LINE
8
BLACK
6
CONTINUOUS
10
5.90646
20
-2.96653
11
5.90646
21
-2.97835
0
LINE
8
BLACK
6
CONTINUOUS
10
5.90646
20
-2.97835
11
5.90415
21
-2.98994
0
LINE
8
BLACK
6
CONTINUOUS
10
5.90415
20
-2.98994
11
5.89963
21
-3.00086
0
LINE
8
BLACK
6
CONTINUOUS
10
5.89963
20
-3.00086
11
5.89306
21
-3.01069
0
LINE
8
BLACK
6
CONTINUOUS
10
5.89306
20
-3.01069
11
5.8847
21
-3.01905
0
LINE
8
BLACK
6
CONTINUOUS
10
5.8847
20
-3.01905
11
5.87488
21
-3.02561
0
LINE
8
BLACK
6
CONTINUOUS
10
5.87488
20
-3.02561
11
5.86396
21
-3.03014
0
LINE
8
BLACK
6
CONTINUOUS
10
5.86396
20
-3.03014
11
5.85237
21
-3.03244
0
LINE
8
BLACK
6
CONTINUOUS
10
5.85237
20
-3.03244
11
5.84055
21
-3.03244
0
LINE
8
BLACK
6
CONTINUOUS
10
5.84055
20
-3.03244
11
5.82896
21
-3.03014
0
LINE
8
BLACK
6
CONTINUOUS
10
5.82896
20
-3.03014
11
5.81804
21
-3.02561
0
LINE
8
BLACK
6
CONTINUOUS
10
5.81804
20
-3.02561
11
5.80821
21
-3.01905
0
LINE
8
BLACK
6
CONTINUOUS
10
5.80821
20
-3.01905
11
5.79985
21
-3.01069
0
LINE
8
BLACK
6
CONTINUOUS
10
5.79985
20
-3.01069
11
5.79329
21
-3.00086
0
LINE
8
BLACK
6
CONTINUOUS
10
5.79329
20
-3.00086
11
5.78876
21
-2.98994
0
LINE
8
BLACK
6
CONTINUOUS
10
5.78876
20
-2.98994
11
5.78646
21
-2.97835
0
LINE
8
BLACK
6
CONTINUOUS
10
5.78646
20
-2.97835
11
5.78646
21
-2.96653
0
LINE
8
BLACK
6
CONTINUOUS
10
5.78646
20
-2.96653
11
5.78876
21
-2.95494
0
LINE
8
BLACK
6
CONTINUOUS
10
5.78876
20
-2.95494
11
5.79329
21
-2.94402
0
LINE
8
BLACK
6
CONTINUOUS
10
5.79329
20
-2.94402
11
5.79985
21
-2.93419
0
LINE
8
BLACK
6
CONTINUOUS
10
5.79985
20
-2.93419
11
5.80821
21
-2.92584
0
LINE
8
BLACK
6
CONTINUOUS
10
5.80821
20
-2.92584
11
5.81804
21
-2.91927
0
LINE
8
BLACK
6
CONTINUOUS
10
5.81804
20
-2.91927
11
5.82896
21
-2.91475
0
LINE
8
BLACK
6
CONTINUOUS
10
5.82896
20
-2.91475
11
5.84055
21
-2.91244
0
LINE
8
BLACK
6
CONTINUOUS
10
5.84055
20
-2.91244
11
5.85237
21
-2.91244
0
LINE
8
BLACK
6
CONTINUOUS
10
5.85237
20
-2.91244
11
5.86396
21
-2.91475
  0
ENDSEC
  0
EOF
