<?xml version="1.0" encoding="UTF-8" standalone="no"?>
<!-- Created with Inkscape (http://www.inkscape.org/) -->

<svg
   width="49.900898mm"
   height="74.964508mm"
   viewBox="0 0 49.900898 74.964508"
   version="1.1"
   id="svg5"
   inkscape:version="1.1 (1:1.1+202105261517+ce6663b3b7)"
   sodipodi:docname="outline_bee.svg"
   xmlns:inkscape="http://www.inkscape.org/namespaces/inkscape"
   xmlns:sodipodi="http://sodipodi.sourceforge.net/DTD/sodipodi-0.dtd"
   xmlns="http://www.w3.org/2000/svg"
   xmlns:svg="http://www.w3.org/2000/svg">
  <sodipodi:namedview
     id="namedview7"
     pagecolor="#ffffff"
     bordercolor="#666666"
     borderopacity="1.0"
     inkscape:pageshadow="2"
     inkscape:pageopacity="0.0"
     inkscape:pagecheckerboard="0"
     inkscape:document-units="mm"
     showgrid="false"
     inkscape:zoom="1.4645623"
     inkscape:cx="-62.817403"
     inkscape:cy="100.02989"
     inkscape:current-layer="layer1"
     fit-margin-top="0"
     fit-margin-left="0"
     fit-margin-right="0"
     fit-margin-bottom="0" />
  <defs
     id="defs2" />
  <g
     inkscape:label="Layer 1"
     inkscape:groupmode="layer"
     id="layer1"
     transform="translate(-113.83701,-0.42749882)">
    <path
       id="path900"
       style="fill:none;stroke:#000000;stroke-width:0.0764527;stroke-opacity:1"
       d="m 153.62683,0.46625615 c -3.82966,0.0663792 -8.26901,1.79899475 -9.1662,5.95472635 -0.0303,3.5823085 -4.21628,0.5964856 -5.28348,-0.8500211 -2.05734,0.1323653 -3.32161,3.1695038 -5.67279,2.5452009 -0.49323,-3.2699848 -2.65188,-6.3896825 -6.03066,-7.0972471 -1.98889,-1.09557158 -7.14817,-0.63468734 -4.53206,2.449887 2.93907,0.5135321 7.17444,0.8017573 7.21208,4.8141328 0.66447,1.7031983 0.18975,3.110572 -1.13807,4.252955 -2.99481,3.352407 -2.89833,8.040738 -2.46688,12.235519 -0.22209,0.980554 -1.45053,1.59052 -2.0721,2.423964 -4.5625,4.417957 -8.35883,9.88323 -10.09228,16.0392 -0.70398,3.631962 -0.91211,7.575243 0.34716,11.112259 1.54657,3.876596 5.80122,6.685796 10.02524,5.91855 2.23244,0.791908 1.16551,5.744696 3.59145,7.435283 2.70223,3.085219 6.11704,5.482434 9.66507,7.495395 3.0069,0.201837 5.29997,-2.733551 7.72951,-4.229696 2.6874,-2.076733 5.11014,-4.763129 5.65066,-8.243241 -0.3373,-4.56143 5.12371,-1.000845 7.38817,-3.659667 3.13911,-1.855382 4.72603,-5.388668 4.86214,-8.934661 0.79103,-7.84597 -3.48224,-15.092529 -8.49574,-20.748908 -1.38008,-1.460691 -2.81307,-2.869988 -4.22442,-4.30021 0.44078,-4.070641 0.72057,-8.584178 -2.02919,-11.972221 -2.55808,-1.92525 -1.88817,-5.3239217 -0.45231,-7.7382036 1.62049,-2.4040521 7.35844,-0.1012632 6.75049,-3.9956216 -0.35279,-0.49540907 -0.89743,-1.00026892 -1.56579,-0.90737465 z" />
  </g>
</svg>
