<?xml version="1.0" encoding="UTF-8" standalone="no"?>
<!-- Created with Inkscape (http://www.inkscape.org/) -->

<svg
   width="49.798786mm"
   height="74.890213mm"
   viewBox="0 0 49.798786 74.890213"
   version="1.1"
   id="svg5"
   inkscape:version="1.1 (1:1.1+202105261517+ce6663b3b7)"
   sodipodi:docname="outline_bee2.svg"
   xmlns:inkscape="http://www.inkscape.org/namespaces/inkscape"
   xmlns:sodipodi="http://sodipodi.sourceforge.net/DTD/sodipodi-0.dtd"
   xmlns="http://www.w3.org/2000/svg"
   xmlns:svg="http://www.w3.org/2000/svg">
  <sodipodi:namedview
     id="namedview7"
     pagecolor="#ffffff"
     bordercolor="#666666"
     borderopacity="1.0"
     inkscape:pageshadow="2"
     inkscape:pageopacity="0.0"
     inkscape:pagecheckerboard="0"
     inkscape:document-units="mm"
     showgrid="false"
     inkscape:zoom="2"
     inkscape:cx="137.5"
     inkscape:cy="165.25"
     inkscape:current-layer="layer2"
     fit-margin-top="0"
     fit-margin-left="0"
     fit-margin-right="0"
     fit-margin-bottom="0" />
  <defs
     id="defs2" />
  <g
     inkscape:groupmode="layer"
     id="layer2"
     inkscape:label="Layer 2"
     style="display:inline">
    <path
       id="path2189-3"
       style="fill:none;fill-opacity:1;stroke:#ff0000;stroke-width:0.1;stroke-linecap:butt;stroke-linejoin:round;stroke-miterlimit:4;stroke-dasharray:none;stroke-opacity:1"
       d="m 24.979665,74.947063 c -2.264174,0 -12.453462,-5.457212 -13.183405,-15.100747 C -1.6120457,60.869671 0.12357539,47.015027 0.12357539,47.015027 c 0,0 -1.72553649,-8.808691 12.65653161,-22.334858 0,0 -1.906853,-9.404227 3.907939,-14.327571 C 16.259417,3.2936161 13.684098,3.9218691 9.4519799,3.2345121 8.5685389,2.9729978 8.2263934,2.1274616 8.4090385,1.3343975 8.5889921,0.55302048 9.189543,0.00557908 10.152912,0.05278738 c 0.443738,0.083598 8.365391,-0.3371895 9.68446,7.89299902 1.344623,-0.5181748 2.298097,-0.7870099 3.287012,-1.1210597 0.576674,-1.5088047 1.070098,-1.6432384 1.855281,-1.7054457 m 0,69.827782 c 2.264175,0 12.453468,-5.457212 13.183411,-15.100747 13.408306,1.023355 11.672685,-12.831289 11.672685,-12.831289 0,0 1.725536,-8.808691 -12.656532,-22.334858 0,0 1.906853,-9.404227 -3.907941,-14.327571 0.42863,-7.0589819 3.00395,-6.4307289 7.236068,-7.1180859 C 41.390797,2.9729978 41.732943,2.1274616 41.550298,1.3343975 41.370344,0.55302044 40.769793,0.00557904 39.806424,0.05278738 39.362686,0.13638563 31.441031,-0.28440215 30.121961,7.9457864 28.777337,7.4276116 27.823862,7.1587765 26.834947,6.8247267 26.258273,5.315922 25.764848,5.1814883 24.979665,5.119281" />
  </g>
</svg>
