<?xml version="1.0" encoding="UTF-8" standalone="no"?>
<!-- Created with Inkscape (http://www.inkscape.org/) -->

<svg
   width="49.798786mm"
   height="74.890213mm"
   viewBox="0 0 49.798786 74.890213"
   version="1.1"
   id="svg5"
   inkscape:version="1.1 (1:1.1+202105261517+ce6663b3b7)"
   sodipodi:docname="shape_bee4.svg"
   xmlns:inkscape="http://www.inkscape.org/namespaces/inkscape"
   xmlns:sodipodi="http://sodipodi.sourceforge.net/DTD/sodipodi-0.dtd"
   xmlns="http://www.w3.org/2000/svg"
   xmlns:svg="http://www.w3.org/2000/svg">
  <sodipodi:namedview
     id="namedview7"
     pagecolor="#ffffff"
     bordercolor="#666666"
     borderopacity="1.0"
     inkscape:pageshadow="2"
     inkscape:pageopacity="0.0"
     inkscape:pagecheckerboard="0"
     inkscape:document-units="mm"
     showgrid="false"
     inkscape:zoom="2.0712039"
     inkscape:cx="84.250517"
     inkscape:cy="134.46286"
     inkscape:current-layer="layer1"
     fit-margin-top="0"
     fit-margin-left="0"
     fit-margin-right="0"
     fit-margin-bottom="0" />
  <defs
     id="defs2" />
  <g
     inkscape:label="Layer 1"
     inkscape:groupmode="layer"
     id="layer1"
     transform="translate(-57.162672,-0.80584378)">
    <path
       id="path1096"
       style="fill:none;fill-opacity:1;stroke:#000000;stroke-width:1;stroke-miterlimit:4;stroke-dasharray:none;stroke-opacity:1"
       d="m 96.498379,1.3256699 c -2.6175,0.2405203 -5.537382,0.911862 -7.150787,3.1823086 -1.016926,1.387442 -1.241909,3.132111 -1.753509,4.731754 -1.313097,-0.258429 -2.574778,-0.751982 -3.837891,-1.175781 -0.70312,-0.374609 -0.591544,-1.472454 -1.460938,-1.669922 -0.697966,-0.17765 -1.333355,0.385533 -1.472656,1.048828 -0.423,0.922734 -1.664797,0.873593 -2.431279,1.256252 -0.608455,0.103707 -1.325937,0.747373 -1.892105,0.305266 -0.567566,-0.950546 -0.520037,-2.162029 -1.063397,-3.141735 -0.869082,-2.219837 -3.014609,-3.6902542 -5.304007,-4.1297274 -1.148633,-0.221635 -2.360826,-0.5188748 -3.520498,-0.352334 -0.841163,0.3726243 -0.842896,1.623851 -0.01918,2.0232154 1.957354,0.476276 4.291942,0.241899 5.871094,1.744141 1.465888,1.491207 1.486243,3.735758 1.787861,5.6773135 0.200558,0.656841 -0.600968,1.017286 -0.886106,1.533086 -1.689846,1.906938 -2.989969,4.251367 -3.169333,6.834522 -0.155113,2.057443 0.02198,4.288611 0.191406,6.404297 -2.603695,2.703266 -5.454726,5.222208 -7.494558,8.406298 -2.41331,3.601377 -4.670683,7.542611 -5.126528,11.932128 -0.04807,2.156801 -0.261709,4.348867 0.129632,6.484121 0.375219,1.898667 1.166818,3.770269 2.639773,5.078396 1.27742,1.263134 2.900834,2.311848 4.699337,2.587338 1.214658,0.10114 2.440305,-0.0311 3.642579,-0.08594 0.754667,0.226439 0.549044,1.254022 0.77948,1.861297 0.493539,2.227115 1.076652,4.579573 2.74645,6.244021 2.540793,2.778705 5.685552,4.930834 8.905128,6.842895 1.050725,0.574338 2.068191,-0.415178 2.93988,-0.900018 3.070854,-2.00232 6.139467,-4.190878 8.363437,-7.147804 1.037608,-1.591342 1.433652,-3.514663 1.833843,-5.295368 0.17156,-0.595603 0.0699,-1.734808 0.976703,-1.642132 1.799654,0.238587 3.736199,0.393106 5.38896,-0.518339 1.77376,-0.823212 3.24401,-2.259984 4.28462,-3.897505 1.15312,-2.371082 1.40981,-5.056902 1.31428,-7.661081 0.0343,-4.471992 -1.92603,-8.673121 -4.25328,-12.388586 -1.59598,-2.555173 -3.484428,-4.917585 -5.648696,-7.014575 -0.947632,-0.965832 -1.904516,-1.922537 -2.855415,-2.885148 0.213727,-2.495152 0.483901,-5.004217 0.08398,-7.511719 -0.536675,-2.633166 -2.205815,-4.749511 -3.875,-6.761719 -0.06144,-1.5024405 0.274799,-3.0110895 0.661471,-4.4581735 0.330972,-1.430557 1.582465,-2.423825 2.962413,-2.768859 1.330047,-0.462566 2.812116,-0.26932 4.114397,-0.7846855 0.884346,-0.5187421 0.39257,-2.0463979 -0.625372,-2.0038945 -0.158937,-0.00814 -0.317456,0.013021 -0.476191,0.017566 z" />
    <path
       style="fill:none;fill-opacity:1;stroke:#000000;stroke-width:1;stroke-opacity:1;stroke-miterlimit:4;stroke-dasharray:none"
       d="m 68.131736,57.333398 c 0.334856,-0.0864 0.988526,-0.3409 1.4526,-0.5656 0.464074,-0.22471 1.132999,-0.61686 1.4865,-0.87146 0.353501,-0.25459 0.94572,-0.74232 1.316041,-1.08384 0.370322,-0.34152 0.969127,-0.9724 1.330677,-1.40197 0.361552,-0.42956 0.978599,-1.26267 1.371218,-1.85135 0.392619,-0.58869 0.898164,-1.41438 1.123433,-1.83487 0.225269,-0.42048 0.576794,-1.12185 0.781167,-1.55859 0.204372,-0.43673 0.54192,-1.24522 0.750106,-1.79663 0.208186,-0.55142 0.527703,-1.51863 0.710037,-2.14936 0.182335,-0.63074 0.436256,-1.62844 0.56427,-2.21713 0.128014,-0.58868 0.319398,-1.55199 0.425296,-2.14067 0.105899,-0.58869 0.245448,-1.42388 0.31011,-1.85599 0.06466,-0.43211 0.16901,-1.32661 0.231883,-1.98777 0.06538,-0.68749 0.151792,-3.002228 0.201859,-5.407007 0.05871,-2.819804 0.06321,-4.633484 0.01368,-5.506021 -0.04063,-0.71562 -0.1067,-1.359799 -0.146831,-1.431508 -0.06438,-0.115035 -0.279702,-0.02158 -1.829442,0.793992 -0.966062,0.508405 -2.232227,1.196493 -2.813699,1.529084 -0.581473,0.332591 -1.446301,0.863828 -1.921842,1.180527 -0.475541,0.316699 -1.238323,0.874217 -1.695072,1.238931 -0.456748,0.364712 -1.435109,1.265815 -2.174134,2.002449 -0.739026,0.736634 -1.6976,1.752179 -2.130165,2.256766 -0.432565,0.504588 -1.121572,1.364679 -1.531125,1.911316 -0.409554,0.546641 -0.984833,1.355121 -1.278397,1.796641 -0.293564,0.44151 -0.763165,1.19035 -1.043557,1.66408 -0.280391,0.47373 -0.780717,1.40263 -1.111833,2.06422 -0.331117,0.66159 -0.722557,1.49532 -0.869866,1.85274 -0.147309,0.35741 -0.389743,1.02828 -0.538742,1.49082 -0.148999,0.46254 -0.341703,1.21942 -0.428231,1.68196 -0.08653,0.46254 -0.192371,1.19726 -0.235206,1.63272 -0.04283,0.43545 -0.07728,1.38155 -0.07656,2.10244 7.27e-4,0.72089 0.03519,1.63755 0.07658,2.03701 0.04139,0.39947 0.1307,1.00153 0.198466,1.33792 0.06777,0.33639 0.226241,0.89673 0.352168,1.2452 0.125926,0.34846 0.40195,0.89857 0.613387,1.22246 0.211436,0.32389 0.611962,0.81409 0.890059,1.08933 0.278096,0.27525 0.709613,0.63417 0.958925,0.7976 0.249312,0.16343 0.695776,0.39902 0.992142,0.52354 0.296366,0.12452 0.780457,0.27266 1.075757,0.32921 0.322236,0.0617 0.827308,0.0894 1.26321,0.0693 0.399465,-0.0184 1.000272,-0.10414 1.335127,-0.19052 z m 30.602093,0.0333 c 0.284307,-0.0688 0.792134,-0.26016 1.128524,-0.42518 0.336387,-0.16502 0.834357,-0.48115 1.106577,-0.7025 0.27222,-0.22136 0.67782,-0.62519 0.90133,-0.89741 0.22351,-0.27222 0.5934,-0.87338 0.82197,-1.33592 0.2441,-0.49397 0.47897,-1.10899 0.5692,-1.49049 0.0845,-0.35723 0.19301,-1.09491 0.24114,-1.6393 0.0526,-0.59533 0.0714,-1.70756 0.0471,-2.79086 -0.0256,-1.13929 -0.0845,-2.03984 -0.16048,-2.45091 -0.066,-0.35742 -0.22591,-1.02582 -0.35531,-1.48533 -0.12939,-0.45952 -0.42662,-1.31961 -0.66051,-1.91132 -0.23389,-0.59171 -0.67884,-1.58435 -0.98877,-2.20586 -0.30992,-0.62152 -0.80146,-1.53322 -1.09232,-2.026 -0.29084,-0.49278 -0.835494,-1.35152 -1.210344,-1.90832 -0.374857,-0.5568 -0.997362,-1.42066 -1.383342,-1.919679 -0.38599,-0.499017 -1.02411,-1.281985 -1.41805,-1.739925 -0.39394,-0.457941 -1.14145,-1.258682 -1.66114,-1.779425 -0.51968,-0.520743 -1.2728,-1.228532 -1.67358,-1.572865 -0.40079,-0.344332 -1.00493,-0.834326 -1.34255,-1.088876 -0.33761,-0.25455 -1.00848,-0.721465 -1.49082,-1.037589 -0.48234,-0.316124 -1.34144,-0.841395 -1.9091,-1.167268 -0.56766,-0.325873 -1.76508,-0.969805 -2.66093,-1.430959 -0.895852,-0.461154 -1.647074,-0.82021 -1.669382,-0.797902 -0.02231,0.02231 -0.07074,0.481999 -0.107634,1.021535 -0.03689,0.539535 -0.06732,1.823864 -0.06762,2.854063 -3.06e-4,1.030199 0.03093,3.08217 0.0694,4.559936 0.03847,1.477767 0.108281,3.129144 0.15514,3.669724 0.04686,0.54058 0.171022,1.55054 0.275917,2.24435 0.104896,0.6938 0.278013,1.74312 0.384704,2.3318 0.106692,0.58869 0.292715,1.50676 0.413385,2.04016 0.12067,0.53341 0.34206,1.40516 0.49199,1.93724 0.14992,0.53207 0.42807,1.39634 0.61811,1.9206 0.19003,0.52425 0.5144,1.32107 0.72082,1.77071 0.20642,0.44964 0.58728,1.21317 0.84636,1.69674 0.25908,0.48356 0.75504,1.30925 1.10213,1.83486 0.3471,0.52561 0.86745,1.24809 1.15634,1.6055 0.28888,0.35742 0.76526,0.90255 1.05861,1.2114 0.29335,0.30885 0.79251,0.77736 1.10925,1.04112 0.31674,0.26376 0.87333,0.67316 1.23687,0.90978 0.36354,0.23662 0.8913,0.53355 1.17278,0.65984 0.28149,0.1263 0.74093,0.29893 1.02097,0.38362 0.28005,0.0847 0.7156,0.18602 0.96789,0.22516 0.2523,0.0391 0.74217,0.0576 1.0886,0.041 0.34644,-0.0166 0.862495,-0.0864 1.146785,-0.15527 z m -24.4242,-34.594191 c 0.682441,-0.379685 2.221307,-1.184125 3.419701,-1.787644 1.198395,-0.603519 2.505734,-1.22747 2.905199,-1.386557 0.608324,-0.242267 0.819439,-0.28974 1.299694,-0.292265 0.406776,-0.0021 0.728906,0.0494 1.108563,0.177378 0.294343,0.09922 1.653288,0.741185 3.019878,1.426598 1.36659,0.685413 3.0106,1.540195 3.65337,1.899516 0.64276,0.35932 1.19873,0.65331 1.23549,0.65331 0.0368,0 0.0915,-0.296027 0.12163,-0.657836 0.0301,-0.361811 0.0363,-1.316513 0.0137,-2.12156 -0.0311,-1.106768 -0.0787,-1.612879 -0.19522,-2.075346 -0.0848,-0.336391 -0.27569,-0.899709 -0.42425,-1.251819 -0.14857,-0.352109 -0.41376,-0.885366 -0.58932,-1.185015 -0.17556,-0.29965 -0.50978,-0.802847 -0.74271,-1.118214 -0.23293,-0.315367 -0.77015,-0.917431 -1.19383,-1.337921 -0.42368,-0.420489 -1.08994,-0.982387 -1.48058,-1.248661 -0.39064,-0.266273 -1.02916,-0.635198 -1.418922,-0.819831 -0.389764,-0.184634 -1.085056,-0.428689 -1.545091,-0.542345 -0.614484,-0.151815 -1.02915,-0.206491 -1.562728,-0.206055 -0.5296,4.59e-4 -0.943704,0.05524 -1.529052,0.20236 -0.510147,0.128223 -1.113056,0.355273 -1.654062,0.622908 -0.46822,0.231627 -1.139092,0.633799 -1.490826,0.893715 -0.351733,0.259917 -0.96635,0.803355 -1.365815,1.207642 -0.399465,0.404285 -0.881116,0.949056 -1.070336,1.210602 -0.189221,0.261545 -0.523179,0.770795 -0.742131,1.131667 -0.218952,0.36087 -0.506119,0.936244 -0.638148,1.278609 -0.132029,0.342364 -0.308233,0.881568 -0.391564,1.19823 -0.10286,0.390878 -0.165163,0.943981 -0.194033,1.722539 -0.02339,0.630734 -0.01722,1.585436 0.01372,2.12156 0.03093,0.536124 0.08788,0.974771 0.126547,0.974771 0.03867,0 0.628668,-0.310652 1.311109,-0.690336 z"
       id="path2404"
       sodipodi:nodetypes="csssssssssssssscssssssssssssssssssssssssccccsssscccccsccscscccsssssssssssssssscssssscsccssscssssccccsssssscssssssssscsss" />
  </g>
</svg>
