  0
SECTION
  2
HEADER
  9
$ACADVER
  1
AC1014
  9
$HANDSEED
  5
FFFF
  9
$MEASUREMENT
 70
     1
  0
ENDSEC
  0
SECTION
  2
TABLES
  0
TABLE
  2
VPORT
  5
8
330
0
100
AcDbSymbolTable
 70
     4
  0
VPORT
  5
2E
330
8
100
AcDbSymbolTableRecord
100
AcDbViewportTableRecord
  2
*ACTIVE
 70
     0
 10
0.0
 20
0.0
 11
1.0
 21
1.0
 12
210.0
 22
148.5
 13
0.0
 23
0.0
 14
10.0
 24
10.0
 15
10.0
 25
10.0
 16
0.0
 26
0.0
 36
1.0
 17
0.0
 27
0.0
 37
0.0
 40
341.0
 41
1.24
 42
50.0
 43
0.0
 44
0.0
 50
0.0
 51
0.0
 71
     0
 72
   100
 73
     1
 74
     3
 75
     0
 76
     0
 77
     0
 78
     0
  0
ENDTAB
  0
TABLE
  2
LTYPE
  5
5
330
0
100
AcDbSymbolTable
 70
     1
  0
LTYPE
  5
14
330
5
100
AcDbSymbolTableRecord
100
AcDbLinetypeTableRecord
  2
BYBLOCK
 70
     0
  3

 72
    65
 73
     0
 40
0.0
  0
LTYPE
  5
15
330
5
100
AcDbSymbolTableRecord
100
AcDbLinetypeTableRecord
  2
BYLAYER
 70
     0
  3

 72
    65
 73
     0
 40
0.0
  0
LTYPE
  5
16
330
5
100
AcDbSymbolTableRecord
100
AcDbLinetypeTableRecord
  2
CONTINUOUS
 70
     0
  3
Solid line
 72
    65
 73
     0
 40
0.0
  0
ENDTAB
  0
TABLE
  2
LAYER
  5
2
100
AcDbSymbolTable
 70
2
  0
LAYER
  5
50
100
AcDbSymbolTableRecord
100
AcDbLayerTableRecord
  2
0
 70
0
  6
CONTINUOUS
  0
LAYER
  5
51
100
AcDbSymbolTableRecord
100
AcDbLayerTableRecord
  2
Layer_1
 70
0
  6
CONTINUOUS
  0
ENDTAB
  0
TABLE
  2
STYLE
  5
3
330
0
100
AcDbSymbolTable
 70
     1
  0
STYLE
  5
11
330
3
100
AcDbSymbolTableRecord
100
AcDbTextStyleTableRecord
  2
STANDARD
 70
     0
 40
0.0
 41
1.0
 50
0.0
 71
     0
 42
2.5
  3
txt
  4

  0
ENDTAB
  0
TABLE
  2
VIEW
  5
6
330
0
100
AcDbSymbolTable
 70
     0
  0
ENDTAB
  0
TABLE
  2
UCS
  5
7
330
0
100
AcDbSymbolTable
 70
     0
  0
ENDTAB
  0
TABLE
  2
APPID
  5
9
330
0
100
AcDbSymbolTable
 70
     2
  0
APPID
  5
12
330
9
100
AcDbSymbolTableRecord
100
AcDbRegAppTableRecord
  2
ACAD
 70
     0
  0
ENDTAB
  0
TABLE
  2
DIMSTYLE
  5
A
330
0
100
AcDbSymbolTable
 70
     1
  0
DIMSTYLE
105
27
330
A
100
AcDbSymbolTableRecord
100
AcDbDimStyleTableRecord
  2
ISO-25
 70
     0
  3

  4

  5

  6

  7

 40
1.0
 41
2.5
 42
0.625
 43
3.75
 44
1.25
 45
0.0
 46
0.0
 47
0.0
 48
0.0
140
2.5
141
2.5
142
0.0
143
0.03937007874016
144
1.0
145
0.0
146
1.0
147
0.625
 71
     0
 72
     0
 73
     0
 74
     0
 75
     0
 76
     0
 77
     1
 78
     8
170
     0
171
     3
172
     1
173
     0
174
     0
175
     0
176
     0
177
     0
178
     0
270
     2
271
     2
272
     2
273
     2
274
     3
340
11
275
     0
280
     0
281
     0
282
     0
283
     0
284
     8
285
     0
286
     0
287
     3
288
     0
  0
ENDTAB
  0
TABLE
  2
BLOCK_RECORD
  5
1
330
0
100
AcDbSymbolTable
 70
     1
  0
BLOCK_RECORD
  5
1F
330
1
100
AcDbSymbolTableRecord
100
AcDbBlockTableRecord
  2
*MODEL_SPACE
  0
BLOCK_RECORD
  5
1B
330
1
100
AcDbSymbolTableRecord
100
AcDbBlockTableRecord
  2
*PAPER_SPACE
  0
ENDTAB
  0
ENDSEC
  0
SECTION
  2
BLOCKS
  0
BLOCK
  5
20
330
1F
100
AcDbEntity
  8
0
100
AcDbBlockBegin
  2
*MODEL_SPACE
 70
     0
 10
0.0
 20
0.0
 30
0.0
  3
*MODEL_SPACE
  1

  0
ENDBLK
  5
21
330
1F
100
AcDbEntity
  8
0
100
AcDbBlockEnd
  0
BLOCK
  5
1C
330
1B
100
AcDbEntity
 67
     1
  8
0
100
AcDbBlockBegin
  2
*PAPER_SPACE
  1

  0
ENDBLK
  5
1D
330
1B
100
AcDbEntity
 67
     1
  8
0
100
AcDbBlockEnd
  0
ENDSEC
  0
SECTION
  2
ENTITIES
  0
SPLINE
  5
100
100
AcDbEntity
  8
Layer_1
 62
7
100
AcDbSpline
 70
8
 71
3
 72
8
 73
4
 74
0
 40
0
 40
0
 40
0
 40
0
 40
1
 40
1
 40
1
 40
1
 10
18.214448
 20
54.040238
 30
0.0
 10
18.896889
 20
54.419923
 30
0.0
 10
20.435756
 20
55.224363
 30
0.0
 10
21.634150
 20
55.827882
 30
0.0
  0
SPLINE
  5
101
100
AcDbEntity
  8
Layer_1
 62
7
100
AcDbSpline
 70
8
 71
3
 72
8
 73
4
 74
0
 40
0
 40
0
 40
0
 40
0
 40
1
 40
1
 40
1
 40
1
 10
21.634150
 20
55.827882
 30
0.0
 10
22.832545
 20
56.431401
 30
0.0
 10
24.139884
 20
57.055352
 30
0.0
 10
24.539349
 20
57.214439
 30
0.0
  0
SPLINE
  5
102
100
AcDbEntity
  8
Layer_1
 62
7
100
AcDbSpline
 70
8
 71
3
 72
8
 73
4
 74
0
 40
0
 40
0
 40
0
 40
0
 40
1
 40
1
 40
1
 40
1
 10
24.539349
 20
57.214439
 30
0.0
 10
25.147674
 20
57.456706
 30
0.0
 10
25.358789
 20
57.504179
 30
0.0
 10
25.839044
 20
57.506704
 30
0.0
  0
SPLINE
  5
103
100
AcDbEntity
  8
Layer_1
 62
7
100
AcDbSpline
 70
8
 71
3
 72
8
 73
4
 74
0
 40
0
 40
0
 40
0
 40
0
 40
1
 40
1
 40
1
 40
1
 10
25.839044
 20
57.506704
 30
0.0
 10
26.245820
 20
57.508804
 30
0.0
 10
26.567950
 20
57.457304
 30
0.0
 10
26.947607
 20
57.329326
 30
0.0
  0
SPLINE
  5
104
100
AcDbEntity
  8
Layer_1
 62
7
100
AcDbSpline
 70
8
 71
3
 72
8
 73
4
 74
0
 40
0
 40
0
 40
0
 40
0
 40
1
 40
1
 40
1
 40
1
 10
26.947607
 20
57.329326
 30
0.0
 10
27.241950
 20
57.230106
 30
0.0
 10
28.600895
 20
56.588141
 30
0.0
 10
29.967485
 20
55.902728
 30
0.0
  0
SPLINE
  5
105
100
AcDbEntity
  8
Layer_1
 62
7
100
AcDbSpline
 70
8
 71
3
 72
8
 73
4
 74
0
 40
0
 40
0
 40
0
 40
0
 40
1
 40
1
 40
1
 40
1
 10
29.967485
 20
55.902728
 30
0.0
 10
31.334076
 20
55.217315
 30
0.0
 10
32.978086
 20
54.362533
 30
0.0
 10
33.620856
 20
54.003212
 30
0.0
  0
SPLINE
  5
106
100
AcDbEntity
  8
Layer_1
 62
7
100
AcDbSpline
 70
8
 71
3
 72
8
 73
4
 74
0
 40
0
 40
0
 40
0
 40
0
 40
1
 40
1
 40
1
 40
1
 10
33.620856
 20
54.003212
 30
0.0
 10
34.263616
 20
53.643892
 30
0.0
 10
34.819586
 20
53.349902
 30
0.0
 10
34.856346
 20
53.349902
 30
0.0
  0
SPLINE
  5
107
100
AcDbEntity
  8
Layer_1
 62
7
100
AcDbSpline
 70
8
 71
3
 72
8
 73
4
 74
0
 40
0
 40
0
 40
0
 40
0
 40
1
 40
1
 40
1
 40
1
 10
34.856346
 20
53.349902
 30
0.0
 10
34.893146
 20
53.349902
 30
0.0
 10
34.947846
 20
53.645929
 30
0.0
 10
34.977976
 20
54.007738
 30
0.0
  0
SPLINE
  5
108
100
AcDbEntity
  8
Layer_1
 62
7
100
AcDbSpline
 70
8
 71
3
 72
8
 73
4
 74
0
 40
0
 40
0
 40
0
 40
0
 40
1
 40
1
 40
1
 40
1
 10
34.977976
 20
54.007738
 30
0.0
 10
35.008076
 20
54.369549
 30
0.0
 10
35.014276
 20
55.324251
 30
0.0
 10
34.991676
 20
56.129298
 30
0.0
  0
SPLINE
  5
109
100
AcDbEntity
  8
Layer_1
 62
7
100
AcDbSpline
 70
8
 71
3
 72
8
 73
4
 74
0
 40
0
 40
0
 40
0
 40
0
 40
1
 40
1
 40
1
 40
1
 10
34.991676
 20
56.129298
 30
0.0
 10
34.960576
 20
57.236066
 30
0.0
 10
34.912976
 20
57.742178
 30
0.0
 10
34.796456
 20
58.204644
 30
0.0
  0
SPLINE
  5
10a
100
AcDbEntity
  8
Layer_1
 62
7
100
AcDbSpline
 70
8
 71
3
 72
8
 73
4
 74
0
 40
0
 40
0
 40
0
 40
0
 40
1
 40
1
 40
1
 40
1
 10
34.796456
 20
58.204644
 30
0.0
 10
34.711656
 20
58.541035
 30
0.0
 10
34.520766
 20
59.104353
 30
0.0
 10
34.372206
 20
59.456462
 30
0.0
  0
SPLINE
  5
10b
100
AcDbEntity
  8
Layer_1
 62
7
100
AcDbSpline
 70
8
 71
3
 72
8
 73
4
 74
0
 40
0
 40
0
 40
0
 40
0
 40
1
 40
1
 40
1
 40
1
 10
34.372206
 20
59.456462
 30
0.0
 10
34.223636
 20
59.808571
 30
0.0
 10
33.958446
 20
60.341828
 30
0.0
 10
33.782886
 20
60.641477
 30
0.0
  0
SPLINE
  5
10c
100
AcDbEntity
  8
Layer_1
 62
7
100
AcDbSpline
 70
8
 71
3
 72
8
 73
4
 74
0
 40
0
 40
0
 40
0
 40
0
 40
1
 40
1
 40
1
 40
1
 10
33.782886
 20
60.641477
 30
0.0
 10
33.607326
 20
60.941127
 30
0.0
 10
33.273106
 20
61.444323
 30
0.0
 10
33.040176
 20
61.759690
 30
0.0
  0
SPLINE
  5
10d
100
AcDbEntity
  8
Layer_1
 62
7
100
AcDbSpline
 70
8
 71
3
 72
8
 73
4
 74
0
 40
0
 40
0
 40
0
 40
0
 40
1
 40
1
 40
1
 40
1
 10
33.040176
 20
61.759690
 30
0.0
 10
32.807246
 20
62.075057
 30
0.0
 10
32.270026
 20
62.677121
 30
0.0
 10
31.846346
 20
63.097611
 30
0.0
  0
SPLINE
  5
10e
100
AcDbEntity
  8
Layer_1
 62
7
100
AcDbSpline
 70
8
 71
3
 72
8
 73
4
 74
0
 40
0
 40
0
 40
0
 40
0
 40
1
 40
1
 40
1
 40
1
 10
31.846346
 20
63.097611
 30
0.0
 10
31.422666
 20
63.518101
 30
0.0
 10
30.756406
 20
64.079998
 30
0.0
 10
30.365766
 20
64.346272
 30
0.0
  0
SPLINE
  5
10f
100
AcDbEntity
  8
Layer_1
 62
7
100
AcDbSpline
 70
8
 71
3
 72
8
 73
4
 74
0
 40
0
 40
0
 40
0
 40
0
 40
1
 40
1
 40
1
 40
1
 10
30.365766
 20
64.346272
 30
0.0
 10
29.975125
 20
64.612545
 30
0.0
 10
29.336605
 20
64.981470
 30
0.0
 10
28.946843
 20
65.166103
 30
0.0
  0
SPLINE
  5
110
100
AcDbEntity
  8
Layer_1
 62
7
100
AcDbSpline
 70
8
 71
3
 72
8
 73
4
 74
0
 40
0
 40
0
 40
0
 40
0
 40
1
 40
1
 40
1
 40
1
 10
28.946843
 20
65.166103
 30
0.0
 10
28.557079
 20
65.350736
 30
0.0
 10
27.861787
 20
65.594791
 30
0.0
 10
27.401752
 20
65.708447
 30
0.0
  0
SPLINE
  5
111
100
AcDbEntity
  8
Layer_1
 62
7
100
AcDbSpline
 70
8
 71
3
 72
8
 73
4
 74
0
 40
0
 40
0
 40
0
 40
0
 40
1
 40
1
 40
1
 40
1
 10
27.401752
 20
65.708447
 30
0.0
 10
26.787268
 20
65.860262
 30
0.0
 10
26.372602
 20
65.914938
 30
0.0
 10
25.839024
 20
65.914502
 30
0.0
  0
SPLINE
  5
112
100
AcDbEntity
  8
Layer_1
 62
7
100
AcDbSpline
 70
8
 71
3
 72
8
 73
4
 74
0
 40
0
 40
0
 40
0
 40
0
 40
1
 40
1
 40
1
 40
1
 10
25.839024
 20
65.914502
 30
0.0
 10
25.309424
 20
65.914043
 30
0.0
 10
24.895320
 20
65.859262
 30
0.0
 10
24.309971
 20
65.712142
 30
0.0
  0
SPLINE
  5
113
100
AcDbEntity
  8
Layer_1
 62
7
100
AcDbSpline
 70
8
 71
3
 72
8
 73
4
 74
0
 40
0
 40
0
 40
0
 40
0
 40
1
 40
1
 40
1
 40
1
 10
24.309971
 20
65.712142
 30
0.0
 10
23.799824
 20
65.583919
 30
0.0
 10
23.196915
 20
65.356869
 30
0.0
 10
22.655909
 20
65.089235
 30
0.0
  0
SPLINE
  5
114
100
AcDbEntity
  8
Layer_1
 62
7
100
AcDbSpline
 70
8
 71
3
 72
8
 73
4
 74
0
 40
0
 40
0
 40
0
 40
0
 40
1
 40
1
 40
1
 40
1
 10
22.655909
 20
65.089235
 30
0.0
 10
22.187689
 20
64.857608
 30
0.0
 10
21.516817
 20
64.455436
 30
0.0
 10
21.165083
 20
64.195520
 30
0.0
  0
SPLINE
  5
115
100
AcDbEntity
  8
Layer_1
 62
7
100
AcDbSpline
 70
8
 71
3
 72
8
 73
4
 74
0
 40
0
 40
0
 40
0
 40
0
 40
1
 40
1
 40
1
 40
1
 10
21.165083
 20
64.195520
 30
0.0
 10
20.813350
 20
63.935603
 30
0.0
 10
20.198733
 20
63.392165
 30
0.0
 10
19.799268
 20
62.987878
 30
0.0
  0
SPLINE
  5
116
100
AcDbEntity
  8
Layer_1
 62
7
100
AcDbSpline
 70
8
 71
3
 72
8
 73
4
 74
0
 40
0
 40
0
 40
0
 40
0
 40
1
 40
1
 40
1
 40
1
 10
19.799268
 20
62.987878
 30
0.0
 10
19.399803
 20
62.583593
 30
0.0
 10
18.918151
 20
62.038822
 30
0.0
 10
18.728931
 20
61.777276
 30
0.0
  0
SPLINE
  5
117
100
AcDbEntity
  8
Layer_1
 62
7
100
AcDbSpline
 70
8
 71
3
 72
8
 73
4
 74
0
 40
0
 40
0
 40
0
 40
0
 40
1
 40
1
 40
1
 40
1
 10
18.728931
 20
61.777276
 30
0.0
 10
18.539710
 20
61.515731
 30
0.0
 10
18.205752
 20
61.006481
 30
0.0
 10
17.986800
 20
60.645610
 30
0.0
  0
SPLINE
  5
118
100
AcDbEntity
  8
Layer_1
 62
7
100
AcDbSpline
 70
8
 71
3
 72
8
 73
4
 74
0
 40
0
 40
0
 40
0
 40
0
 40
1
 40
1
 40
1
 40
1
 10
17.986800
 20
60.645610
 30
0.0
 10
17.767848
 20
60.284740
 30
0.0
 10
17.480681
 20
59.709366
 30
0.0
 10
17.348652
 20
59.367002
 30
0.0
  0
SPLINE
  5
119
100
AcDbEntity
  8
Layer_1
 62
7
100
AcDbSpline
 70
8
 71
3
 72
8
 73
4
 74
0
 40
0
 40
0
 40
0
 40
0
 40
1
 40
1
 40
1
 40
1
 10
17.348652
 20
59.367002
 30
0.0
 10
17.216623
 20
59.024638
 30
0.0
 10
17.040419
 20
58.485434
 30
0.0
 10
16.957088
 20
58.168772
 30
0.0
  0
SPLINE
  5
11a
100
AcDbEntity
  8
Layer_1
 62
7
100
AcDbSpline
 70
8
 71
3
 72
8
 73
4
 74
0
 40
0
 40
0
 40
0
 40
0
 40
1
 40
1
 40
1
 40
1
 10
16.957088
 20
58.168772
 30
0.0
 10
16.854228
 20
57.777895
 30
0.0
 10
16.791925
 20
57.224791
 30
0.0
 10
16.763055
 20
56.446233
 30
0.0
  0
SPLINE
  5
11b
100
AcDbEntity
  8
Layer_1
 62
7
100
AcDbSpline
 70
8
 71
3
 72
8
 73
4
 74
0
 40
0
 40
0
 40
0
 40
0
 40
1
 40
1
 40
1
 40
1
 10
16.763055
 20
56.446233
 30
0.0
 10
16.739665
 20
55.815499
 30
0.0
 10
16.745835
 20
54.860797
 30
0.0
 10
16.776775
 20
54.324673
 30
0.0
  0
SPLINE
  5
11c
100
AcDbEntity
  8
Layer_1
 62
7
100
AcDbSpline
 70
8
 71
3
 72
8
 73
4
 74
0
 40
0
 40
0
 40
0
 40
0
 40
1
 40
1
 40
1
 40
1
 10
16.776775
 20
54.324673
 30
0.0
 10
16.807705
 20
53.788549
 30
0.0
 10
16.864655
 20
53.349902
 30
0.0
 10
16.903322
 20
53.349902
 30
0.0
  0
SPLINE
  5
11d
100
AcDbEntity
  8
Layer_1
 62
7
100
AcDbSpline
 70
8
 71
3
 72
8
 73
4
 74
0
 40
0
 40
0
 40
0
 40
0
 40
1
 40
1
 40
1
 40
1
 10
16.903322
 20
53.349902
 30
0.0
 10
16.941992
 20
53.349902
 30
0.0
 10
17.531990
 20
53.660554
 30
0.0
 10
18.214431
 20
54.040238
 30
0.0
  0
SPLINE
  5
11e
100
AcDbEntity
  8
Layer_1
 62
7
100
AcDbSpline
 70
8
 71
3
 72
8
 73
4
 74
0
 40
0
 40
0
 40
0
 40
0
 40
1
 40
1
 40
1
 40
1
 10
42.638658
 20
19.446041
 30
0.0
 10
42.922958
 20
19.514841
 30
0.0
 10
43.430788
 20
19.706201
 30
0.0
 10
43.767178
 20
19.871221
 30
0.0
  0
SPLINE
  5
11f
100
AcDbEntity
  8
Layer_1
 62
7
100
AcDbSpline
 70
8
 71
3
 72
8
 73
4
 74
0
 40
0
 40
0
 40
0
 40
0
 40
1
 40
1
 40
1
 40
1
 10
43.767178
 20
19.871221
 30
0.0
 10
44.103568
 20
20.036241
 30
0.0
 10
44.601528
 20
20.352371
 30
0.0
 10
44.873748
 20
20.573721
 30
0.0
  0
SPLINE
  5
120
100
AcDbEntity
  8
Layer_1
 62
7
100
AcDbSpline
 70
8
 71
3
 72
8
 73
4
 74
0
 40
0
 40
0
 40
0
 40
0
 40
1
 40
1
 40
1
 40
1
 10
44.873748
 20
20.573721
 30
0.0
 10
45.145968
 20
20.795081
 30
0.0
 10
45.551568
 20
21.198911
 30
0.0
 10
45.775078
 20
21.471131
 30
0.0
  0
SPLINE
  5
121
100
AcDbEntity
  8
Layer_1
 62
7
100
AcDbSpline
 70
8
 71
3
 72
8
 73
4
 74
0
 40
0
 40
0
 40
0
 40
0
 40
1
 40
1
 40
1
 40
1
 10
45.775078
 20
21.471131
 30
0.0
 10
45.998588
 20
21.743351
 30
0.0
 10
46.368468
 20
22.344511
 30
0.0
 10
46.597038
 20
22.807051
 30
0.0
  0
SPLINE
  5
122
100
AcDbEntity
  8
Layer_1
 62
7
100
AcDbSpline
 70
8
 71
3
 72
8
 73
4
 74
0
 40
0
 40
0
 40
0
 40
0
 40
1
 40
1
 40
1
 40
1
 10
46.597038
 20
22.807051
 30
0.0
 10
46.841139
 20
23.301021
 30
0.0
 10
47.076009
 20
23.916041
 30
0.0
 10
47.166239
 20
24.297541
 30
0.0
  0
SPLINE
  5
123
100
AcDbEntity
  8
Layer_1
 62
7
100
AcDbSpline
 70
8
 71
3
 72
8
 73
4
 74
0
 40
0
 40
0
 40
0
 40
0
 40
1
 40
1
 40
1
 40
1
 10
47.166239
 20
24.297541
 30
0.0
 10
47.250739
 20
24.654771
 30
0.0
 10
47.359249
 20
25.392452
 30
0.0
 10
47.407379
 20
25.936842
 30
0.0
  0
SPLINE
  5
124
100
AcDbEntity
  8
Layer_1
 62
7
100
AcDbSpline
 70
8
 71
3
 72
8
 73
4
 74
0
 40
0
 40
0
 40
0
 40
0
 40
1
 40
1
 40
1
 40
1
 10
47.407379
 20
25.936842
 30
0.0
 10
47.459979
 20
26.532172
 30
0.0
 10
47.478779
 20
27.644402
 30
0.0
 10
47.454479
 20
28.727702
 30
0.0
  0
SPLINE
  5
125
100
AcDbEntity
  8
Layer_1
 62
7
100
AcDbSpline
 70
8
 71
3
 72
8
 73
4
 74
0
 40
0
 40
0
 40
0
 40
0
 40
1
 40
1
 40
1
 40
1
 10
47.454479
 20
28.727702
 30
0.0
 10
47.428879
 20
29.866992
 30
0.0
 10
47.369979
 20
30.767543
 30
0.0
 10
47.293999
 20
31.178613
 30
0.0
  0
SPLINE
  5
126
100
AcDbEntity
  8
Layer_1
 62
7
100
AcDbSpline
 70
8
 71
3
 72
8
 73
4
 74
0
 40
0
 40
0
 40
0
 40
0
 40
1
 40
1
 40
1
 40
1
 10
47.293999
 20
31.178613
 30
0.0
 10
47.227999
 20
31.536033
 30
0.0
 10
47.068089
 20
32.204433
 30
0.0
 10
46.938689
 20
32.663943
 30
0.0
  0
SPLINE
  5
127
100
AcDbEntity
  8
Layer_1
 62
7
100
AcDbSpline
 70
8
 71
3
 72
8
 73
4
 74
0
 40
0
 40
0
 40
0
 40
0
 40
1
 40
1
 40
1
 40
1
 10
46.938689
 20
32.663943
 30
0.0
 10
46.809299
 20
33.123463
 30
0.0
 10
46.512068
 20
33.983553
 30
0.0
 10
46.278178
 20
34.575263
 30
0.0
  0
SPLINE
  5
128
100
AcDbEntity
  8
Layer_1
 62
7
100
AcDbSpline
 70
8
 71
3
 72
8
 73
4
 74
0
 40
0
 40
0
 40
0
 40
0
 40
1
 40
1
 40
1
 40
1
 10
46.278178
 20
34.575263
 30
0.0
 10
46.044288
 20
35.166973
 30
0.0
 10
45.599348
 20
36.159614
 30
0.0
 10
45.289418
 20
36.781124
 30
0.0
  0
SPLINE
  5
129
100
AcDbEntity
  8
Layer_1
 62
7
100
AcDbSpline
 70
8
 71
3
 72
8
 73
4
 74
0
 40
0
 40
0
 40
0
 40
0
 40
1
 40
1
 40
1
 40
1
 10
45.289418
 20
36.781124
 30
0.0
 10
44.979498
 20
37.402644
 30
0.0
 10
44.487958
 20
38.314344
 30
0.0
 10
44.197108
 20
38.807124
 30
0.0
  0
SPLINE
  5
12a
100
AcDbEntity
  8
Layer_1
 62
7
100
AcDbSpline
 70
8
 71
3
 72
8
 73
4
 74
0
 40
0
 40
0
 40
0
 40
0
 40
1
 40
1
 40
1
 40
1
 10
44.197108
 20
38.807124
 30
0.0
 10
43.906268
 20
39.299904
 30
0.0
 10
43.361608
 20
40.158644
 30
0.0
 10
42.986758
 20
40.715444
 30
0.0
  0
SPLINE
  5
12b
100
AcDbEntity
  8
Layer_1
 62
7
100
AcDbSpline
 70
8
 71
3
 72
8
 73
4
 74
0
 40
0
 40
0
 40
0
 40
0
 40
1
 40
1
 40
1
 40
1
 10
42.986758
 20
40.715444
 30
0.0
 10
42.611908
 20
41.272245
 30
0.0
 10
41.989398
 20
42.136105
 30
0.0
 10
41.603418
 20
42.635124
 30
0.0
  0
SPLINE
  5
12c
100
AcDbEntity
  8
Layer_1
 62
7
100
AcDbSpline
 70
8
 71
3
 72
8
 73
4
 74
0
 40
0
 40
0
 40
0
 40
0
 40
1
 40
1
 40
1
 40
1
 10
41.603418
 20
42.635124
 30
0.0
 10
41.217428
 20
43.134141
 30
0.0
 10
40.579307
 20
43.917109
 30
0.0
 10
40.185367
 20
44.375049
 30
0.0
  0
SPLINE
  5
12d
100
AcDbEntity
  8
Layer_1
 62
7
100
AcDbSpline
 70
8
 71
3
 72
8
 73
4
 74
0
 40
0
 40
0
 40
0
 40
0
 40
1
 40
1
 40
1
 40
1
 10
40.185367
 20
44.375049
 30
0.0
 10
39.791427
 20
44.832990
 30
0.0
 10
39.043917
 20
45.633731
 30
0.0
 10
38.524227
 20
46.154474
 30
0.0
  0
SPLINE
  5
12e
100
AcDbEntity
  8
Layer_1
 62
7
100
AcDbSpline
 70
8
 71
3
 72
8
 73
4
 74
0
 40
0
 40
0
 40
0
 40
0
 40
1
 40
1
 40
1
 40
1
 10
38.524227
 20
46.154474
 30
0.0
 10
38.004547
 20
46.675217
 30
0.0
 10
37.251427
 20
47.383007
 30
0.0
 10
36.850647
 20
47.727340
 30
0.0
  0
SPLINE
  5
12f
100
AcDbEntity
  8
Layer_1
 62
7
100
AcDbSpline
 70
8
 71
3
 72
8
 73
4
 74
0
 40
0
 40
0
 40
0
 40
0
 40
1
 40
1
 40
1
 40
1
 10
36.850647
 20
47.727340
 30
0.0
 10
36.449857
 20
48.071672
 30
0.0
 10
35.845717
 20
48.561666
 30
0.0
 10
35.508096
 20
48.816216
 30
0.0
  0
SPLINE
  5
130
100
AcDbEntity
  8
Layer_1
 62
7
100
AcDbSpline
 70
8
 71
3
 72
8
 73
4
 74
0
 40
0
 40
0
 40
0
 40
0
 40
1
 40
1
 40
1
 40
1
 10
35.508096
 20
48.816216
 30
0.0
 10
35.170486
 20
49.070766
 30
0.0
 10
34.499616
 20
49.537681
 30
0.0
 10
34.017276
 20
49.853805
 30
0.0
  0
SPLINE
  5
131
100
AcDbEntity
  8
Layer_1
 62
7
100
AcDbSpline
 70
8
 71
3
 72
8
 73
4
 74
0
 40
0
 40
0
 40
0
 40
0
 40
1
 40
1
 40
1
 40
1
 10
34.017276
 20
49.853805
 30
0.0
 10
33.534936
 20
50.169929
 30
0.0
 10
32.675836
 20
50.695200
 30
0.0
 10
32.108176
 20
51.021073
 30
0.0
  0
SPLINE
  5
132
100
AcDbEntity
  8
Layer_1
 62
7
100
AcDbSpline
 70
8
 71
3
 72
8
 73
4
 74
0
 40
0
 40
0
 40
0
 40
0
 40
1
 40
1
 40
1
 40
1
 10
32.108176
 20
51.021073
 30
0.0
 10
31.540516
 20
51.346946
 30
0.0
 10
30.343096
 20
51.990878
 30
0.0
 10
29.447245
 20
52.452033
 30
0.0
  0
SPLINE
  5
133
100
AcDbEntity
  8
Layer_1
 62
7
100
AcDbSpline
 70
8
 71
3
 72
8
 73
4
 74
0
 40
0
 40
0
 40
0
 40
0
 40
1
 40
1
 40
1
 40
1
 10
29.447245
 20
52.452033
 30
0.0
 10
28.551393
 20
52.913187
 30
0.0
 10
27.800171
 20
53.272243
 30
0.0
 10
27.777863
 20
53.249935
 30
0.0
  0
SPLINE
  5
134
100
AcDbEntity
  8
Layer_1
 62
7
100
AcDbSpline
 70
8
 71
3
 72
8
 73
4
 74
0
 40
0
 40
0
 40
0
 40
0
 40
1
 40
1
 40
1
 40
1
 10
27.777863
 20
53.249935
 30
0.0
 10
27.755553
 20
53.227625
 30
0.0
 10
27.707123
 20
52.767936
 30
0.0
 10
27.670229
 20
52.228400
 30
0.0
  0
SPLINE
  5
135
100
AcDbEntity
  8
Layer_1
 62
7
100
AcDbSpline
 70
8
 71
3
 72
8
 73
4
 74
0
 40
0
 40
0
 40
0
 40
0
 40
1
 40
1
 40
1
 40
1
 10
27.670229
 20
52.228400
 30
0.0
 10
27.633339
 20
51.688864
 30
0.0
 10
27.602909
 20
50.404535
 30
0.0
 10
27.602609
 20
49.374336
 30
0.0
  0
SPLINE
  5
136
100
AcDbEntity
  8
Layer_1
 62
7
100
AcDbSpline
 70
8
 71
3
 72
8
 73
4
 74
0
 40
0
 40
0
 40
0
 40
0
 40
1
 40
1
 40
1
 40
1
 10
27.602609
 20
49.374336
 30
0.0
 10
27.602303
 20
48.344137
 30
0.0
 10
27.633539
 20
46.292165
 30
0.0
 10
27.672009
 20
44.814399
 30
0.0
  0
SPLINE
  5
137
100
AcDbEntity
  8
Layer_1
 62
7
100
AcDbSpline
 70
8
 71
3
 72
8
 73
4
 74
0
 40
0
 40
0
 40
0
 40
0
 40
1
 40
1
 40
1
 40
1
 10
27.672009
 20
44.814399
 30
0.0
 10
27.710479
 20
43.336632
 30
0.0
 10
27.780290
 20
41.685255
 30
0.0
 10
27.827149
 20
41.144674
 30
0.0
  0
SPLINE
  5
138
100
AcDbEntity
  8
Layer_1
 62
7
100
AcDbSpline
 70
8
 71
3
 72
8
 73
4
 74
0
 40
0
 40
0
 40
0
 40
0
 40
1
 40
1
 40
1
 40
1
 10
27.827149
 20
41.144674
 30
0.0
 10
27.874009
 20
40.604094
 30
0.0
 10
27.998171
 20
39.594134
 30
0.0
 10
28.103066
 20
38.900324
 30
0.0
  0
SPLINE
  5
139
100
AcDbEntity
  8
Layer_1
 62
7
100
AcDbSpline
 70
8
 71
3
 72
8
 73
4
 74
0
 40
0
 40
0
 40
0
 40
0
 40
1
 40
1
 40
1
 40
1
 10
28.103066
 20
38.900324
 30
0.0
 10
28.207962
 20
38.206524
 30
0.0
 10
28.381079
 20
37.157204
 30
0.0
 10
28.487770
 20
36.568524
 30
0.0
  0
SPLINE
  5
13a
100
AcDbEntity
  8
Layer_1
 62
7
100
AcDbSpline
 70
8
 71
3
 72
8
 73
4
 74
0
 40
0
 40
0
 40
0
 40
0
 40
1
 40
1
 40
1
 40
1
 10
28.487770
 20
36.568524
 30
0.0
 10
28.594462
 20
35.979834
 30
0.0
 10
28.780485
 20
35.061763
 30
0.0
 10
28.901155
 20
34.528363
 30
0.0
  0
SPLINE
  5
13b
100
AcDbEntity
  8
Layer_1
 62
7
100
AcDbSpline
 70
8
 71
3
 72
8
 73
4
 74
0
 40
0
 40
0
 40
0
 40
0
 40
1
 40
1
 40
1
 40
1
 10
28.901155
 20
34.528363
 30
0.0
 10
29.021825
 20
33.994953
 30
0.0
 10
29.243215
 20
33.123203
 30
0.0
 10
29.393145
 20
32.591123
 30
0.0
  0
SPLINE
  5
13c
100
AcDbEntity
  8
Layer_1
 62
7
100
AcDbSpline
 70
8
 71
3
 72
8
 73
4
 74
0
 40
0
 40
0
 40
0
 40
0
 40
1
 40
1
 40
1
 40
1
 10
29.393145
 20
32.591123
 30
0.0
 10
29.543065
 20
32.059053
 30
0.0
 10
29.821215
 20
31.194783
 30
0.0
 10
30.011255
 20
30.670523
 30
0.0
  0
SPLINE
  5
13d
100
AcDbEntity
  8
Layer_1
 62
7
100
AcDbSpline
 70
8
 71
3
 72
8
 73
4
 74
0
 40
0
 40
0
 40
0
 40
0
 40
1
 40
1
 40
1
 40
1
 10
30.011255
 20
30.670523
 30
0.0
 10
30.201285
 20
30.146272
 30
0.0
 10
30.525656
 20
29.349452
 30
0.0
 10
30.732076
 20
28.899812
 30
0.0
  0
SPLINE
  5
13e
100
AcDbEntity
  8
Layer_1
 62
7
100
AcDbSpline
 70
8
 71
3
 72
8
 73
4
 74
0
 40
0
 40
0
 40
0
 40
0
 40
1
 40
1
 40
1
 40
1
 10
30.732076
 20
28.899812
 30
0.0
 10
30.938496
 20
28.450172
 30
0.0
 10
31.319356
 20
27.686642
 30
0.0
 10
31.578436
 20
27.203072
 30
0.0
  0
SPLINE
  5
13f
100
AcDbEntity
  8
Layer_1
 62
7
100
AcDbSpline
 70
8
 71
3
 72
8
 73
4
 74
0
 40
0
 40
0
 40
0
 40
0
 40
1
 40
1
 40
1
 40
1
 10
31.578436
 20
27.203072
 30
0.0
 10
31.837516
 20
26.719512
 30
0.0
 10
32.333476
 20
25.893822
 30
0.0
 10
32.680566
 20
25.368212
 30
0.0
  0
SPLINE
  5
140
100
AcDbEntity
  8
Layer_1
 62
7
100
AcDbSpline
 70
8
 71
3
 72
8
 73
4
 74
0
 40
0
 40
0
 40
0
 40
0
 40
1
 40
1
 40
1
 40
1
 10
32.680566
 20
25.368212
 30
0.0
 10
33.027666
 20
24.842602
 30
0.0
 10
33.548016
 20
24.120121
 30
0.0
 10
33.836906
 20
23.762711
 30
0.0
  0
SPLINE
  5
141
100
AcDbEntity
  8
Layer_1
 62
7
100
AcDbSpline
 70
8
 71
3
 72
8
 73
4
 74
0
 40
0
 40
0
 40
0
 40
0
 40
1
 40
1
 40
1
 40
1
 10
33.836906
 20
23.762711
 30
0.0
 10
34.125786
 20
23.405291
 30
0.0
 10
34.602166
 20
22.860161
 30
0.0
 10
34.895516
 20
22.551311
 30
0.0
  0
SPLINE
  5
142
100
AcDbEntity
  8
Layer_1
 62
7
100
AcDbSpline
 70
8
 71
3
 72
8
 73
4
 74
0
 40
0
 40
0
 40
0
 40
0
 40
1
 40
1
 40
1
 40
1
 10
34.895516
 20
22.551311
 30
0.0
 10
35.188866
 20
22.242461
 30
0.0
 10
35.688026
 20
21.773951
 30
0.0
 10
36.004767
 20
21.510191
 30
0.0
  0
SPLINE
  5
143
100
AcDbEntity
  8
Layer_1
 62
7
100
AcDbSpline
 70
8
 71
3
 72
8
 73
4
 74
0
 40
0
 40
0
 40
0
 40
0
 40
1
 40
1
 40
1
 40
1
 10
36.004767
 20
21.510191
 30
0.0
 10
36.321507
 20
21.246431
 30
0.0
 10
36.878097
 20
20.837031
 30
0.0
 10
37.241637
 20
20.600411
 30
0.0
  0
SPLINE
  5
144
100
AcDbEntity
  8
Layer_1
 62
7
100
AcDbSpline
 70
8
 71
3
 72
8
 73
4
 74
0
 40
0
 40
0
 40
0
 40
0
 40
1
 40
1
 40
1
 40
1
 10
37.241637
 20
20.600411
 30
0.0
 10
37.605177
 20
20.363791
 30
0.0
 10
38.132937
 20
20.066861
 30
0.0
 10
38.414417
 20
19.940571
 30
0.0
  0
SPLINE
  5
145
100
AcDbEntity
  8
Layer_1
 62
7
100
AcDbSpline
 70
8
 71
3
 72
8
 73
4
 74
0
 40
0
 40
0
 40
0
 40
0
 40
1
 40
1
 40
1
 40
1
 10
38.414417
 20
19.940571
 30
0.0
 10
38.695907
 20
19.814271
 30
0.0
 10
39.155347
 20
19.641641
 30
0.0
 10
39.435387
 20
19.556951
 30
0.0
  0
SPLINE
  5
146
100
AcDbEntity
  8
Layer_1
 62
7
100
AcDbSpline
 70
8
 71
3
 72
8
 73
4
 74
0
 40
0
 40
0
 40
0
 40
0
 40
1
 40
1
 40
1
 40
1
 10
39.435387
 20
19.556951
 30
0.0
 10
39.715437
 20
19.472251
 30
0.0
 10
40.150987
 20
19.370931
 30
0.0
 10
40.403277
 20
19.331791
 30
0.0
  0
SPLINE
  5
147
100
AcDbEntity
  8
Layer_1
 62
7
100
AcDbSpline
 70
8
 71
3
 72
8
 73
4
 74
0
 40
0
 40
0
 40
0
 40
0
 40
1
 40
1
 40
1
 40
1
 10
40.403277
 20
19.331791
 30
0.0
 10
40.655577
 20
19.292691
 30
0.0
 10
41.145447
 20
19.274191
 30
0.0
 10
41.491878
 20
19.290791
 30
0.0
  0
SPLINE
  5
148
100
AcDbEntity
  8
Layer_1
 62
7
100
AcDbSpline
 70
8
 71
3
 72
8
 73
4
 74
0
 40
0
 40
0
 40
0
 40
0
 40
1
 40
1
 40
1
 40
1
 10
41.491878
 20
19.290791
 30
0.0
 10
41.838318
 20
19.307391
 30
0.0
 10
42.354378
 20
19.377191
 30
0.0
 10
42.638668
 20
19.446061
 30
0.0
  0
LWPOLYLINE
  5
149
100
AcDbEntity
  8
Layer_1
 62
7
100
AcDbPolyline
 90
1
 70
1
 10
18.214431
 20
54.040238
 30
0.0
  0
SPLINE
  5
14a
100
AcDbEntity
  8
Layer_1
 62
7
100
AcDbSpline
 70
8
 71
3
 72
8
 73
4
 74
0
 40
0
 40
0
 40
0
 40
0
 40
1
 40
1
 40
1
 40
1
 10
12.036554
 20
19.479341
 30
0.0
 10
12.371410
 20
19.565741
 30
0.0
 10
13.025080
 20
19.820241
 30
0.0
 10
13.489154
 20
20.044941
 30
0.0
  0
SPLINE
  5
14b
100
AcDbEntity
  8
Layer_1
 62
7
100
AcDbSpline
 70
8
 71
3
 72
8
 73
4
 74
0
 40
0
 40
0
 40
0
 40
0
 40
1
 40
1
 40
1
 40
1
 10
13.489154
 20
20.044941
 30
0.0
 10
13.953229
 20
20.269651
 30
0.0
 10
14.622154
 20
20.661801
 30
0.0
 10
14.975655
 20
20.916401
 30
0.0
  0
SPLINE
  5
14c
100
AcDbEntity
  8
Layer_1
 62
7
100
AcDbSpline
 70
8
 71
3
 72
8
 73
4
 74
0
 40
0
 40
0
 40
0
 40
0
 40
1
 40
1
 40
1
 40
1
 10
14.975655
 20
20.916401
 30
0.0
 10
15.329156
 20
21.170991
 30
0.0
 10
15.921375
 20
21.658721
 30
0.0
 10
16.291696
 20
22.000241
 30
0.0
  0
SPLINE
  5
14d
100
AcDbEntity
  8
Layer_1
 62
7
100
AcDbSpline
 70
8
 71
3
 72
8
 73
4
 74
0
 40
0
 40
0
 40
0
 40
0
 40
1
 40
1
 40
1
 40
1
 10
16.291696
 20
22.000241
 30
0.0
 10
16.662018
 20
22.341761
 30
0.0
 10
17.260823
 20
22.972641
 30
0.0
 10
17.622373
 20
23.402211
 30
0.0
  0
SPLINE
  5
14e
100
AcDbEntity
  8
Layer_1
 62
7
100
AcDbSpline
 70
8
 71
3
 72
8
 73
4
 74
0
 40
0
 40
0
 40
0
 40
0
 40
1
 40
1
 40
1
 40
1
 10
17.622373
 20
23.402211
 30
0.0
 10
17.983925
 20
23.831771
 30
0.0
 10
18.600972
 20
24.664881
 30
0.0
 10
18.993591
 20
25.253562
 30
0.0
  0
SPLINE
  5
14f
100
AcDbEntity
  8
Layer_1
 62
7
100
AcDbSpline
 70
8
 71
3
 72
8
 73
4
 74
0
 40
0
 40
0
 40
0
 40
0
 40
1
 40
1
 40
1
 40
1
 10
18.993591
 20
25.253562
 30
0.0
 10
19.386211
 20
25.842252
 30
0.0
 10
19.891756
 20
26.667942
 30
0.0
 10
20.117025
 20
27.088432
 30
0.0
  0
SPLINE
  5
150
100
AcDbEntity
  8
Layer_1
 62
7
100
AcDbSpline
 70
8
 71
3
 72
8
 73
4
 74
0
 40
0
 40
0
 40
0
 40
0
 40
1
 40
1
 40
1
 40
1
 10
20.117025
 20
27.088432
 30
0.0
 10
20.342294
 20
27.508912
 30
0.0
 10
20.693819
 20
28.210282
 30
0.0
 10
20.898192
 20
28.647022
 30
0.0
  0
SPLINE
  5
151
100
AcDbEntity
  8
Layer_1
 62
7
100
AcDbSpline
 70
8
 71
3
 72
8
 73
4
 74
0
 40
0
 40
0
 40
0
 40
0
 40
1
 40
1
 40
1
 40
1
 10
20.898192
 20
28.647022
 30
0.0
 10
21.102564
 20
29.083752
 30
0.0
 10
21.440112
 20
29.892242
 30
0.0
 10
21.648298
 20
30.443653
 30
0.0
  0
SPLINE
  5
152
100
AcDbEntity
  8
Layer_1
 62
7
100
AcDbSpline
 70
8
 71
3
 72
8
 73
4
 74
0
 40
0
 40
0
 40
0
 40
0
 40
1
 40
1
 40
1
 40
1
 10
21.648298
 20
30.443653
 30
0.0
 10
21.856484
 20
30.995073
 30
0.0
 10
22.176001
 20
31.962283
 30
0.0
 10
22.358335
 20
32.593013
 30
0.0
  0
SPLINE
  5
153
100
AcDbEntity
  8
Layer_1
 62
7
100
AcDbSpline
 70
8
 71
3
 72
8
 73
4
 74
0
 40
0
 40
0
 40
0
 40
0
 40
1
 40
1
 40
1
 40
1
 10
22.358335
 20
32.593013
 30
0.0
 10
22.540670
 20
33.223753
 30
0.0
 10
22.794591
 20
34.221453
 30
0.0
 10
22.922605
 20
34.810143
 30
0.0
  0
SPLINE
  5
154
100
AcDbEntity
  8
Layer_1
 62
7
100
AcDbSpline
 70
8
 71
3
 72
8
 73
4
 74
0
 40
0
 40
0
 40
0
 40
0
 40
1
 40
1
 40
1
 40
1
 10
22.922605
 20
34.810143
 30
0.0
 10
23.050619
 20
35.398823
 30
0.0
 10
23.242003
 20
36.362134
 30
0.0
 10
23.347901
 20
36.950814
 30
0.0
  0
SPLINE
  5
155
100
AcDbEntity
  8
Layer_1
 62
7
100
AcDbSpline
 70
8
 71
3
 72
8
 73
4
 74
0
 40
0
 40
0
 40
0
 40
0
 40
1
 40
1
 40
1
 40
1
 10
23.347901
 20
36.950814
 30
0.0
 10
23.453800
 20
37.539504
 30
0.0
 10
23.593349
 20
38.374694
 30
0.0
 10
23.658011
 20
38.806804
 30
0.0
  0
SPLINE
  5
156
100
AcDbEntity
  8
Layer_1
 62
7
100
AcDbSpline
 70
8
 71
3
 72
8
 73
4
 74
0
 40
0
 40
0
 40
0
 40
0
 40
1
 40
1
 40
1
 40
1
 10
23.658011
 20
38.806804
 30
0.0
 10
23.722671
 20
39.238914
 30
0.0
 10
23.827021
 20
40.133414
 30
0.0
 10
23.889894
 20
40.794574
 30
0.0
  0
SPLINE
  5
157
100
AcDbEntity
  8
Layer_1
 62
7
100
AcDbSpline
 70
8
 71
3
 72
8
 73
4
 74
0
 40
0
 40
0
 40
0
 40
0
 40
1
 40
1
 40
1
 40
1
 10
23.889894
 20
40.794574
 30
0.0
 10
23.955274
 20
41.482065
 30
0.0
 10
24.041686
 20
43.796803
 30
0.0
 10
24.091753
 20
46.201582
 30
0.0
  0
SPLINE
  5
158
100
AcDbEntity
  8
Layer_1
 62
7
100
AcDbSpline
 70
8
 71
3
 72
8
 73
4
 74
0
 40
0
 40
0
 40
0
 40
0
 40
1
 40
1
 40
1
 40
1
 10
24.091753
 20
46.201582
 30
0.0
 10
24.150463
 20
49.021387
 30
0.0
 10
24.154963
 20
50.835067
 30
0.0
 10
24.105433
 20
51.707604
 30
0.0
  0
SPLINE
  5
159
100
AcDbEntity
  8
Layer_1
 62
7
100
AcDbSpline
 70
8
 71
3
 72
8
 73
4
 74
0
 40
0
 40
0
 40
0
 40
0
 40
1
 40
1
 40
1
 40
1
 10
24.105433
 20
51.707604
 30
0.0
 10
24.064803
 20
52.423225
 30
0.0
 10
23.998733
 20
53.067404
 30
0.0
 10
23.958602
 20
53.139113
 30
0.0
  0
SPLINE
  5
15a
100
AcDbEntity
  8
Layer_1
 62
7
100
AcDbSpline
 70
8
 71
3
 72
8
 73
4
 74
0
 40
0
 40
0
 40
0
 40
0
 40
1
 40
1
 40
1
 40
1
 10
23.958602
 20
53.139113
 30
0.0
 10
23.894222
 20
53.254148
 30
0.0
 10
23.678900
 20
53.160693
 30
0.0
 10
22.129160
 20
52.345121
 30
0.0
  0
SPLINE
  5
15b
100
AcDbEntity
  8
Layer_1
 62
7
100
AcDbSpline
 70
8
 71
3
 72
8
 73
4
 74
0
 40
0
 40
0
 40
0
 40
0
 40
1
 40
1
 40
1
 40
1
 10
22.129160
 20
52.345121
 30
0.0
 10
21.163098
 20
51.836715
 30
0.0
 10
19.896933
 20
51.148627
 30
0.0
 10
19.315461
 20
50.816036
 30
0.0
  0
SPLINE
  5
15c
100
AcDbEntity
  8
Layer_1
 62
7
100
AcDbSpline
 70
8
 71
3
 72
8
 73
4
 74
0
 40
0
 40
0
 40
0
 40
0
 40
1
 40
1
 40
1
 40
1
 10
19.315461
 20
50.816036
 30
0.0
 10
18.733987
 20
50.483445
 30
0.0
 10
17.869159
 20
49.952208
 30
0.0
 10
17.393618
 20
49.635509
 30
0.0
  0
SPLINE
  5
15d
100
AcDbEntity
  8
Layer_1
 62
7
100
AcDbSpline
 70
8
 71
3
 72
8
 73
4
 74
0
 40
0
 40
0
 40
0
 40
0
 40
1
 40
1
 40
1
 40
1
 10
17.393618
 20
49.635509
 30
0.0
 10
16.918077
 20
49.318810
 30
0.0
 10
16.155295
 20
48.761292
 30
0.0
 10
15.698546
 20
48.396578
 30
0.0
  0
SPLINE
  5
15e
100
AcDbEntity
  8
Layer_1
 62
7
100
AcDbSpline
 70
8
 71
3
 72
8
 73
4
 74
0
 40
0
 40
0
 40
0
 40
0
 40
1
 40
1
 40
1
 40
1
 10
15.698546
 20
48.396578
 30
0.0
 10
15.241798
 20
48.031866
 30
0.0
 10
14.263437
 20
47.130763
 30
0.0
 10
13.524411
 20
46.394128
 30
0.0
  0
SPLINE
  5
15f
100
AcDbEntity
  8
Layer_1
 62
7
100
AcDbSpline
 70
8
 71
3
 72
8
 73
4
 74
0
 40
0
 40
0
 40
0
 40
0
 40
1
 40
1
 40
1
 40
1
 10
13.524411
 20
46.394128
 30
0.0
 10
12.785385
 20
45.657494
 30
0.0
 10
11.826811
 20
44.641949
 30
0.0
 10
11.394246
 20
44.137362
 30
0.0
  0
SPLINE
  5
160
100
AcDbEntity
  8
Layer_1
 62
7
100
AcDbSpline
 70
8
 71
3
 72
8
 73
4
 74
0
 40
0
 40
0
 40
0
 40
0
 40
1
 40
1
 40
1
 40
1
 10
11.394246
 20
44.137362
 30
0.0
 10
10.961681
 20
43.632774
 30
0.0
 10
10.272674
 20
42.772683
 30
0.0
 10
9.863121
 20
42.226046
 30
0.0
  0
SPLINE
  5
161
100
AcDbEntity
  8
Layer_1
 62
7
100
AcDbSpline
 70
8
 71
3
 72
8
 73
4
 74
0
 40
0
 40
0
 40
0
 40
0
 40
1
 40
1
 40
1
 40
1
 10
9.863121
 20
42.226046
 30
0.0
 10
9.453567
 20
41.679405
 30
0.0
 10
8.878288
 20
40.870924
 30
0.0
 10
8.584724
 20
40.429404
 30
0.0
  0
SPLINE
  5
162
100
AcDbEntity
  8
Layer_1
 62
7
100
AcDbSpline
 70
8
 71
3
 72
8
 73
4
 74
0
 40
0
 40
0
 40
0
 40
0
 40
1
 40
1
 40
1
 40
1
 10
8.584724
 20
40.429404
 30
0.0
 10
8.291160
 20
39.987894
 30
0.0
 10
7.821558
 20
39.239054
 30
0.0
 10
7.541166
 20
38.765324
 30
0.0
  0
SPLINE
  5
163
100
AcDbEntity
  8
Layer_1
 62
7
100
AcDbSpline
 70
8
 71
3
 72
8
 73
4
 74
0
 40
0
 40
0
 40
0
 40
0
 40
1
 40
1
 40
1
 40
1
 10
7.541166
 20
38.765324
 30
0.0
 10
7.260775
 20
38.291594
 30
0.0
 10
6.760449
 20
37.362694
 30
0.0
 10
6.429333
 20
36.701104
 30
0.0
  0
SPLINE
  5
164
100
AcDbEntity
  8
Layer_1
 62
7
100
AcDbSpline
 70
8
 71
3
 72
8
 73
4
 74
0
 40
0
 40
0
 40
0
 40
0
 40
1
 40
1
 40
1
 40
1
 10
6.429333
 20
36.701104
 30
0.0
 10
6.098216
 20
36.039514
 30
0.0
 10
5.706776
 20
35.205783
 30
0.0
 10
5.559467
 20
34.848363
 30
0.0
  0
SPLINE
  5
165
100
AcDbEntity
  8
Layer_1
 62
7
100
AcDbSpline
 70
8
 71
3
 72
8
 73
4
 74
0
 40
0
 40
0
 40
0
 40
0
 40
1
 40
1
 40
1
 40
1
 10
5.559467
 20
34.848363
 30
0.0
 10
5.412158
 20
34.490953
 30
0.0
 10
5.169724
 20
33.820083
 30
0.0
 10
5.020725
 20
33.357543
 30
0.0
  0
SPLINE
  5
166
100
AcDbEntity
  8
Layer_1
 62
7
100
AcDbSpline
 70
8
 71
3
 72
8
 73
4
 74
0
 40
0
 40
0
 40
0
 40
0
 40
1
 40
1
 40
1
 40
1
 10
5.020725
 20
33.357543
 30
0.0
 10
4.871726
 20
32.895003
 30
0.0
 10
4.679022
 20
32.138123
 30
0.0
 10
4.592494
 20
31.675583
 30
0.0
  0
SPLINE
  5
167
100
AcDbEntity
  8
Layer_1
 62
7
100
AcDbSpline
 70
8
 71
3
 72
8
 73
4
 74
0
 40
0
 40
0
 40
0
 40
0
 40
1
 40
1
 40
1
 40
1
 10
4.592494
 20
31.675583
 30
0.0
 10
4.505964
 20
31.213043
 30
0.0
 10
4.400123
 20
30.478323
 30
0.0
 10
4.357288
 20
30.042862
 30
0.0
  0
SPLINE
  5
168
100
AcDbEntity
  8
Layer_1
 62
7
100
AcDbSpline
 70
8
 71
3
 72
8
 73
4
 74
0
 40
0
 40
0
 40
0
 40
0
 40
1
 40
1
 40
1
 40
1
 10
4.357288
 20
30.042862
 30
0.0
 10
4.314458
 20
29.607412
 30
0.0
 10
4.280008
 20
28.661312
 30
0.0
 10
4.280728
 20
27.940422
 30
0.0
  0
SPLINE
  5
169
100
AcDbEntity
  8
Layer_1
 62
7
100
AcDbSpline
 70
8
 71
3
 72
8
 73
4
 74
0
 40
0
 40
0
 40
0
 40
0
 40
1
 40
1
 40
1
 40
1
 10
4.280728
 20
27.940422
 30
0.0
 10
4.281455
 20
27.219532
 30
0.0
 10
4.315918
 20
26.302872
 30
0.0
 10
4.357308
 20
25.903412
 30
0.0
  0
SPLINE
  5
16a
100
AcDbEntity
  8
Layer_1
 62
7
100
AcDbSpline
 70
8
 71
3
 72
8
 73
4
 74
0
 40
0
 40
0
 40
0
 40
0
 40
1
 40
1
 40
1
 40
1
 10
4.357308
 20
25.903412
 30
0.0
 10
4.398698
 20
25.503942
 30
0.0
 10
4.488008
 20
24.901882
 30
0.0
 10
4.555774
 20
24.565491
 30
0.0
  0
SPLINE
  5
16b
100
AcDbEntity
  8
Layer_1
 62
7
100
AcDbSpline
 70
8
 71
3
 72
8
 73
4
 74
0
 40
0
 40
0
 40
0
 40
0
 40
1
 40
1
 40
1
 40
1
 10
4.555774
 20
24.565491
 30
0.0
 10
4.623544
 20
24.229101
 30
0.0
 10
4.782015
 20
23.668761
 30
0.0
 10
4.907942
 20
23.320291
 30
0.0
  0
SPLINE
  5
16c
100
AcDbEntity
  8
Layer_1
 62
7
100
AcDbSpline
 70
8
 71
3
 72
8
 73
4
 74
0
 40
0
 40
0
 40
0
 40
0
 40
1
 40
1
 40
1
 40
1
 10
4.907942
 20
23.320291
 30
0.0
 10
5.033868
 20
22.971831
 30
0.0
 10
5.309892
 20
22.421721
 30
0.0
 10
5.521329
 20
22.097831
 30
0.0
  0
SPLINE
  5
16d
100
AcDbEntity
  8
Layer_1
 62
7
100
AcDbSpline
 70
8
 71
3
 72
8
 73
4
 74
0
 40
0
 40
0
 40
0
 40
0
 40
1
 40
1
 40
1
 40
1
 10
5.521329
 20
22.097831
 30
0.0
 10
5.732765
 20
21.773941
 30
0.0
 10
6.133291
 20
21.283741
 30
0.0
 10
6.411388
 20
21.008501
 30
0.0
  0
SPLINE
  5
16e
100
AcDbEntity
  8
Layer_1
 62
7
100
AcDbSpline
 70
8
 71
3
 72
8
 73
4
 74
0
 40
0
 40
0
 40
0
 40
0
 40
1
 40
1
 40
1
 40
1
 10
6.411388
 20
21.008501
 30
0.0
 10
6.689484
 20
20.733251
 30
0.0
 10
7.121001
 20
20.374331
 30
0.0
 10
7.370313
 20
20.210901
 30
0.0
  0
SPLINE
  5
16f
100
AcDbEntity
  8
Layer_1
 62
7
100
AcDbSpline
 70
8
 71
3
 72
8
 73
4
 74
0
 40
0
 40
0
 40
0
 40
0
 40
1
 40
1
 40
1
 40
1
 10
7.370313
 20
20.210901
 30
0.0
 10
7.619625
 20
20.047471
 30
0.0
 10
8.066089
 20
19.811881
 30
0.0
 10
8.362456
 20
19.687361
 30
0.0
  0
SPLINE
  5
170
100
AcDbEntity
  8
Layer_1
 62
7
100
AcDbSpline
 70
8
 71
3
 72
8
 73
4
 74
0
 40
0
 40
0
 40
0
 40
0
 40
1
 40
1
 40
1
 40
1
 10
8.362456
 20
19.687361
 30
0.0
 10
8.658822
 20
19.562841
 30
0.0
 10
9.142913
 20
19.414701
 30
0.0
 10
9.438213
 20
19.358151
 30
0.0
  0
SPLINE
  5
171
100
AcDbEntity
  8
Layer_1
 62
7
100
AcDbSpline
 70
8
 71
3
 72
8
 73
4
 74
0
 40
0
 40
0
 40
0
 40
0
 40
1
 40
1
 40
1
 40
1
 10
9.438213
 20
19.358151
 30
0.0
 10
9.760449
 20
19.296451
 30
0.0
 10
10.265521
 20
19.268751
 30
0.0
 10
10.701423
 20
19.288851
 30
0.0
  0
SPLINE
  5
172
100
AcDbEntity
  8
Layer_1
 62
7
100
AcDbSpline
 70
8
 71
3
 72
8
 73
4
 74
0
 40
0
 40
0
 40
0
 40
0
 40
1
 40
1
 40
1
 40
1
 10
10.701423
 20
19.288851
 30
0.0
 10
11.100888
 20
19.307251
 30
0.0
 10
11.701695
 20
19.392991
 30
0.0
 10
12.036550
 20
19.479371
 30
0.0
  0
LWPOLYLINE
  5
173
100
AcDbEntity
  8
Layer_1
 62
7
100
AcDbPolyline
 90
1
 70
1
 10
42.638668
 20
19.446061
 30
0.0
  0
SPLINE
  5
174
100
AcDbEntity
  8
Layer_1
 62
7
100
AcDbSpline
 70
8
 71
3
 72
8
 73
4
 74
0
 40
0
 40
0
 40
0
 40
0
 40
1
 40
1
 40
1
 40
1
 10
25.296038
 20
1.080437
 30
0.0
 10
25.144555
 20
1.137037
 30
0.0
 10
24.800518
 20
1.306587
 30
0.0
 10
24.531511
 20
1.457107
 30
0.0
  0
SPLINE
  5
175
100
AcDbEntity
  8
Layer_1
 62
7
100
AcDbSpline
 70
8
 71
3
 72
8
 73
4
 74
0
 40
0
 40
0
 40
0
 40
0
 40
1
 40
1
 40
1
 40
1
 10
24.531511
 20
1.457107
 30
0.0
 10
24.262504
 20
1.607617
 30
0.0
 10
23.371536
 20
2.175287
 30
0.0
 10
22.551582
 20
2.718597
 30
0.0
  0
SPLINE
  5
176
100
AcDbEntity
  8
Layer_1
 62
7
100
AcDbSpline
 70
8
 71
3
 72
8
 73
4
 74
0
 40
0
 40
0
 40
0
 40
0
 40
1
 40
1
 40
1
 40
1
 10
22.551582
 20
2.718597
 30
0.0
 10
21.731627
 20
3.261898
 30
0.0
 10
20.646003
 20
4.016688
 30
0.0
 10
20.139083
 20
4.395908
 30
0.0
  0
SPLINE
  5
177
100
AcDbEntity
  8
Layer_1
 62
7
100
AcDbSpline
 70
8
 71
3
 72
8
 73
4
 74
0
 40
0
 40
0
 40
0
 40
0
 40
1
 40
1
 40
1
 40
1
 10
20.139083
 20
4.395908
 30
0.0
 10
19.632163
 20
4.775128
 30
0.0
 10
18.806474
 20
5.429958
 30
0.0
 10
18.304220
 20
5.851068
 30
0.0
  0
SPLINE
  5
178
100
AcDbEntity
  8
Layer_1
 62
7
100
AcDbSpline
 70
8
 71
3
 72
8
 73
4
 74
0
 40
0
 40
0
 40
0
 40
0
 40
1
 40
1
 40
1
 40
1
 10
18.304220
 20
5.851068
 30
0.0
 10
17.801965
 20
6.272188
 30
0.0
 10
16.939644
 20
7.081918
 30
0.0
 10
16.387949
 20
7.650478
 30
0.0
  0
SPLINE
  5
179
100
AcDbEntity
  8
Layer_1
 62
7
100
AcDbSpline
 70
8
 71
3
 72
8
 73
4
 74
0
 40
0
 40
0
 40
0
 40
0
 40
1
 40
1
 40
1
 40
1
 10
16.387949
 20
7.650478
 30
0.0
 10
15.756535
 20
8.301189
 30
0.0
 10
15.197598
 20
8.965519
 30
0.0
 10
14.879450
 20
9.443409
 30
0.0
  0
SPLINE
  5
17a
100
AcDbEntity
  8
Layer_1
 62
7
100
AcDbSpline
 70
8
 71
3
 72
8
 73
4
 74
0
 40
0
 40
0
 40
0
 40
0
 40
1
 40
1
 40
1
 40
1
 10
14.879450
 20
9.443409
 30
0.0
 10
14.601470
 20
9.860969
 30
0.0
 10
14.268965
 20
10.457399
 30
0.0
 10
14.140551
 20
10.768809
 30
0.0
  0
SPLINE
  5
17b
100
AcDbEntity
  8
Layer_1
 62
7
100
AcDbSpline
 70
8
 71
3
 72
8
 73
4
 74
0
 40
0
 40
0
 40
0
 40
0
 40
1
 40
1
 40
1
 40
1
 10
14.140551
 20
10.768809
 30
0.0
 10
14.012136
 20
11.080219
 30
0.0
 10
13.788982
 20
11.714389
 30
0.0
 10
13.644652
 20
12.178069
 30
0.0
  0
SPLINE
  5
17c
100
AcDbEntity
  8
Layer_1
 62
7
100
AcDbSpline
 70
8
 71
3
 72
8
 73
4
 74
0
 40
0
 40
0
 40
0
 40
0
 40
1
 40
1
 40
1
 40
1
 10
13.644652
 20
12.178069
 30
0.0
 10
13.500324
 20
12.641759
 30
0.0
 10
13.280250
 20
13.451189
 30
0.0
 10
13.155600
 20
13.976800
 30
0.0
  0
SPLINE
  5
17d
100
AcDbEntity
  8
Layer_1
 62
7
100
AcDbSpline
 70
8
 71
3
 72
8
 73
4
 74
0
 40
0
 40
0
 40
0
 40
0
 40
1
 40
1
 40
1
 40
1
 10
13.155600
 20
13.976800
 30
0.0
 10
13.030950
 20
14.502420
 30
0.0
 10
12.890408
 20
15.174180
 30
0.0
 10
12.843285
 20
15.469620
 30
0.0
  0
SPLINE
  5
17e
100
AcDbEntity
  8
Layer_1
 62
7
100
AcDbSpline
 70
8
 71
3
 72
8
 73
4
 74
0
 40
0
 40
0
 40
0
 40
0
 40
1
 40
1
 40
1
 40
1
 10
12.843285
 20
15.469620
 30
0.0
 10
12.796165
 20
15.765060
 30
0.0
 10
12.730080
 20
16.051320
 30
0.0
 10
12.696434
 20
16.105760
 30
0.0
  0
SPLINE
  5
17f
100
AcDbEntity
  8
Layer_1
 62
7
100
AcDbSpline
 70
8
 71
3
 72
8
 73
4
 74
0
 40
0
 40
0
 40
0
 40
0
 40
1
 40
1
 40
1
 40
1
 10
12.696434
 20
16.105760
 30
0.0
 10
12.647024
 20
16.185660
 30
0.0
 10
12.541228
 20
16.187060
 30
0.0
 10
12.146173
 20
16.112760
 30
0.0
  0
SPLINE
  5
180
100
AcDbEntity
  8
Layer_1
 62
7
100
AcDbSpline
 70
8
 71
3
 72
8
 73
4
 74
0
 40
0
 40
0
 40
0
 40
0
 40
1
 40
1
 40
1
 40
1
 10
12.146173
 20
16.112760
 30
0.0
 10
11.873866
 20
16.061560
 30
0.0
 10
11.047125
 20
16.022260
 30
0.0
 10
10.280937
 20
16.024160
 30
0.0
  0
SPLINE
  5
181
100
AcDbEntity
  8
Layer_1
 62
7
100
AcDbSpline
 70
8
 71
3
 72
8
 73
4
 74
0
 40
0
 40
0
 40
0
 40
0
 40
1
 40
1
 40
1
 40
1
 10
10.280937
 20
16.024160
 30
0.0
 10
9.147632
 20
16.027160
 30
0.0
 10
8.796862
 20
16.055360
 30
0.0
 10
8.293170
 20
16.185110
 30
0.0
  0
SPLINE
  5
182
100
AcDbEntity
  8
Layer_1
 62
7
100
AcDbSpline
 70
8
 71
3
 72
8
 73
4
 74
0
 40
0
 40
0
 40
0
 40
0
 40
1
 40
1
 40
1
 40
1
 10
8.293170
 20
16.185110
 30
0.0
 10
7.956777
 20
16.271810
 30
0.0
 10
7.268704
 20
16.550310
 30
0.0
 10
6.764117
 20
16.804050
 30
0.0
  0
SPLINE
  5
183
100
AcDbEntity
  8
Layer_1
 62
7
100
AcDbSpline
 70
8
 71
3
 72
8
 73
4
 74
0
 40
0
 40
0
 40
0
 40
0
 40
1
 40
1
 40
1
 40
1
 10
6.764117
 20
16.804050
 30
0.0
 10
6.259530
 20
17.057790
 30
0.0
 10
5.552538
 20
17.486010
 30
0.0
 10
5.193024
 20
17.755640
 30
0.0
  0
SPLINE
  5
184
100
AcDbEntity
  8
Layer_1
 62
7
100
AcDbSpline
 70
8
 71
3
 72
8
 73
4
 74
0
 40
0
 40
0
 40
0
 40
0
 40
1
 40
1
 40
1
 40
1
 10
5.193024
 20
17.755640
 30
0.0
 10
4.833510
 20
18.025260
 30
0.0
 10
4.207997
 20
18.591100
 30
0.0
 10
3.802996
 20
19.013060
 30
0.0
  0
SPLINE
  5
185
100
AcDbEntity
  8
Layer_1
 62
7
100
AcDbSpline
 70
8
 71
3
 72
8
 73
4
 74
0
 40
0
 40
0
 40
0
 40
0
 40
1
 40
1
 40
1
 40
1
 10
3.802996
 20
19.013060
 30
0.0
 10
3.397995
 20
19.435011
 30
0.0
 10
2.931369
 20
19.979651
 30
0.0
 10
2.766051
 20
20.223361
 30
0.0
  0
SPLINE
  5
186
100
AcDbEntity
  8
Layer_1
 62
7
100
AcDbSpline
 70
8
 71
3
 72
8
 73
4
 74
0
 40
0
 40
0
 40
0
 40
0
 40
1
 40
1
 40
1
 40
1
 10
2.766051
 20
20.223361
 30
0.0
 10
2.600731
 20
20.467071
 30
0.0
 10
2.352687
 20
20.890101
 30
0.0
 10
2.214841
 20
21.163411
 30
0.0
  0
SPLINE
  5
187
100
AcDbEntity
  8
Layer_1
 62
7
100
AcDbSpline
 70
8
 71
3
 72
8
 73
4
 74
0
 40
0
 40
0
 40
0
 40
0
 40
1
 40
1
 40
1
 40
1
 10
2.214841
 20
21.163411
 30
0.0
 10
2.076994
 20
21.436731
 30
0.0
 10
1.865484
 20
21.945221
 30
0.0
 10
1.744818
 20
22.293381
 30
0.0
  0
SPLINE
  5
188
100
AcDbEntity
  8
Layer_1
 62
7
100
AcDbSpline
 70
8
 71
3
 72
8
 73
4
 74
0
 40
0
 40
0
 40
0
 40
0
 40
1
 40
1
 40
1
 40
1
 10
1.744818
 20
22.293381
 30
0.0
 10
1.624152
 20
22.641541
 30
0.0
 10
1.442553
 20
23.245361
 30
0.0
 10
1.341265
 20
23.635201
 30
0.0
  0
SPLINE
  5
189
100
AcDbEntity
  8
Layer_1
 62
7
100
AcDbSpline
 70
8
 71
3
 72
8
 73
4
 74
0
 40
0
 40
0
 40
0
 40
0
 40
1
 40
1
 40
1
 40
1
 10
1.341265
 20
23.635201
 30
0.0
 10
1.239977
 20
24.025041
 30
0.0
 10
1.116148
 20
24.696301
 30
0.0
 10
1.066089
 20
25.126892
 30
0.0
  0
SPLINE
  5
18a
100
AcDbEntity
  8
Layer_1
 62
7
100
AcDbSpline
 70
8
 71
3
 72
8
 73
4
 74
0
 40
0
 40
0
 40
0
 40
0
 40
1
 40
1
 40
1
 40
1
 10
1.066089
 20
25.126892
 30
0.0
 10
1.005089
 20
25.651582
 30
0.0
 10
0.987469
 20
26.721912
 30
0.0
 10
1.012649
 20
28.372222
 30
0.0
  0
SPLINE
  5
18b
100
AcDbEntity
  8
Layer_1
 62
7
100
AcDbSpline
 70
8
 71
3
 72
8
 73
4
 74
0
 40
0
 40
0
 40
0
 40
0
 40
1
 40
1
 40
1
 40
1
 10
1.012649
 20
28.372222
 30
0.0
 10
1.038949
 20
30.095442
 30
0.0
 10
1.086589
 20
31.056883
 30
0.0
 10
1.171342
 20
31.574893
 30
0.0
  0
SPLINE
  5
18c
100
AcDbEntity
  8
Layer_1
 62
7
100
AcDbSpline
 70
8
 71
3
 72
8
 73
4
 74
0
 40
0
 40
0
 40
0
 40
0
 40
1
 40
1
 40
1
 40
1
 10
1.171342
 20
31.574893
 30
0.0
 10
1.237952
 20
31.982023
 30
0.0
 10
1.382246
 20
32.670093
 30
0.0
 10
1.491987
 20
33.103943
 30
0.0
  0
SPLINE
  5
18d
100
AcDbEntity
  8
Layer_1
 62
7
100
AcDbSpline
 70
8
 71
3
 72
8
 73
4
 74
0
 40
0
 40
0
 40
0
 40
0
 40
1
 40
1
 40
1
 40
1
 10
1.491987
 20
33.103943
 30
0.0
 10
1.601728
 20
33.537803
 30
0.0
 10
1.840904
 20
34.340023
 30
0.0
 10
2.023489
 20
34.886663
 30
0.0
  0
SPLINE
  5
18e
100
AcDbEntity
  8
Layer_1
 62
7
100
AcDbSpline
 70
8
 71
3
 72
8
 73
4
 74
0
 40
0
 40
0
 40
0
 40
0
 40
1
 40
1
 40
1
 40
1
 10
2.023489
 20
34.886663
 30
0.0
 10
2.206074
 20
35.433293
 30
0.0
 10
2.549766
 20
36.309664
 30
0.0
 10
2.787251
 20
36.834144
 30
0.0
  0
SPLINE
  5
18f
100
AcDbEntity
  8
Layer_1
 62
7
100
AcDbSpline
 70
8
 71
3
 72
8
 73
4
 74
0
 40
0
 40
0
 40
0
 40
0
 40
1
 40
1
 40
1
 40
1
 10
2.787251
 20
36.834144
 30
0.0
 10
3.024735
 20
37.358614
 30
0.0
 10
3.412236
 20
38.149904
 30
0.0
 10
3.648365
 20
38.592554
 30
0.0
  0
SPLINE
  5
190
100
AcDbEntity
  8
Layer_1
 62
7
100
AcDbSpline
 70
8
 71
3
 72
8
 73
4
 74
0
 40
0
 40
0
 40
0
 40
0
 40
1
 40
1
 40
1
 40
1
 10
3.648365
 20
38.592554
 30
0.0
 10
3.884493
 20
39.035194
 30
0.0
 10
4.352491
 20
39.861814
 30
0.0
 10
4.688360
 20
40.429474
 30
0.0
  0
SPLINE
  5
191
100
AcDbEntity
  8
Layer_1
 62
7
100
AcDbSpline
 70
8
 71
3
 72
8
 73
4
 74
0
 40
0
 40
0
 40
0
 40
0
 40
1
 40
1
 40
1
 40
1
 10
4.688360
 20
40.429474
 30
0.0
 10
5.024228
 20
40.997134
 30
0.0
 10
5.608291
 20
41.926035
 30
0.0
 10
5.986277
 20
42.493696
 30
0.0
  0
SPLINE
  5
192
100
AcDbEntity
  8
Layer_1
 62
7
100
AcDbSpline
 70
8
 71
3
 72
8
 73
4
 74
0
 40
0
 40
0
 40
0
 40
0
 40
1
 40
1
 40
1
 40
1
 10
5.986277
 20
42.493696
 30
0.0
 10
6.364262
 20
43.061356
 30
0.0
 10
6.954109
 20
43.904246
 30
0.0
 10
7.297046
 20
44.366784
 30
0.0
  0
SPLINE
  5
193
100
AcDbEntity
  8
Layer_1
 62
7
100
AcDbSpline
 70
8
 71
3
 72
8
 73
4
 74
0
 40
0
 40
0
 40
0
 40
0
 40
1
 40
1
 40
1
 40
1
 10
7.297046
 20
44.366784
 30
0.0
 10
7.639984
 20
44.829323
 30
0.0
 10
8.193306
 20
45.534598
 30
0.0
 10
8.526650
 20
45.934063
 30
0.0
  0
SPLINE
  5
194
100
AcDbEntity
  8
Layer_1
 62
7
100
AcDbSpline
 70
8
 71
3
 72
8
 73
4
 74
0
 40
0
 40
0
 40
0
 40
0
 40
1
 40
1
 40
1
 40
1
 10
8.526650
 20
45.934063
 30
0.0
 10
8.859995
 20
46.333528
 30
0.0
 10
10.159261
 20
47.698192
 30
0.0
 10
11.413909
 20
48.966650
 30
0.0
  0
LWPOLYLINE
  5
195
100
AcDbEntity
  8
Layer_1
 62
7
100
AcDbPolyline
 90
1
 70
1
 10
12.036550
 20
19.479371
 30
0.0
  0
SPLINE
  5
196
100
AcDbEntity
  8
Layer_1
 62
7
100
AcDbSpline
 70
8
 71
3
 72
8
 73
4
 74
0
 40
0
 40
0
 40
0
 40
0
 40
1
 40
1
 40
1
 40
1
 10
13.574404
 20
52.834529
 30
0.0
 10
13.508024
 20
53.693405
 30
0.0
 10
13.454391
 20
55.012228
 30
0.0
 10
13.455212
 20
55.765247
 30
0.0
  0
SPLINE
  5
197
100
AcDbEntity
  8
Layer_1
 62
7
100
AcDbSpline
 70
8
 71
3
 72
8
 73
4
 74
0
 40
0
 40
0
 40
0
 40
0
 40
1
 40
1
 40
1
 40
1
 10
13.455212
 20
55.765247
 30
0.0
 10
13.456030
 20
56.518265
 30
0.0
 10
13.506162
 20
57.505965
 30
0.0
 10
13.566612
 20
57.960135
 30
0.0
  0
SPLINE
  5
198
100
AcDbEntity
  8
Layer_1
 62
7
100
AcDbSpline
 70
8
 71
3
 72
8
 73
4
 74
0
 40
0
 40
0
 40
0
 40
0
 40
1
 40
1
 40
1
 40
1
 10
13.566612
 20
57.960135
 30
0.0
 10
13.627062
 20
58.414305
 30
0.0
 10
13.766523
 20
59.116264
 30
0.0
 10
13.876525
 20
59.520045
 30
0.0
  0
SPLINE
  5
199
100
AcDbEntity
  8
Layer_1
 62
7
100
AcDbSpline
 70
8
 71
3
 72
8
 73
4
 74
0
 40
0
 40
0
 40
0
 40
0
 40
1
 40
1
 40
1
 40
1
 10
13.876525
 20
59.520045
 30
0.0
 10
13.986528
 20
59.923826
 30
0.0
 10
14.204527
 20
60.549940
 30
0.0
 10
14.360969
 20
60.911408
 30
0.0
  0
SPLINE
  5
19a
100
AcDbEntity
  8
Layer_1
 62
7
100
AcDbSpline
 70
8
 71
3
 72
8
 73
4
 74
0
 40
0
 40
0
 40
0
 40
0
 40
1
 40
1
 40
1
 40
1
 10
14.360969
 20
60.911408
 30
0.0
 10
14.517410
 20
61.272877
 30
0.0
 10
14.786928
 20
61.809983
 30
0.0
 10
14.959897
 20
62.104977
 30
0.0
  0
SPLINE
  5
19b
100
AcDbEntity
  8
Layer_1
 62
7
100
AcDbSpline
 70
8
 71
3
 72
8
 73
4
 74
0
 40
0
 40
0
 40
0
 40
0
 40
1
 40
1
 40
1
 40
1
 10
14.959897
 20
62.104977
 30
0.0
 10
15.132866
 20
62.399971
 30
0.0
 10
15.471026
 20
62.916027
 30
0.0
 10
15.711364
 20
63.251767
 30
0.0
  0
SPLINE
  5
19c
100
AcDbEntity
  8
Layer_1
 62
7
100
AcDbSpline
 70
8
 71
3
 72
8
 73
4
 74
0
 40
0
 40
0
 40
0
 40
0
 40
1
 40
1
 40
1
 40
1
 10
15.711364
 20
63.251767
 30
0.0
 10
15.951703
 20
63.587507
 30
0.0
 10
16.475647
 20
64.253322
 30
0.0
 10
16.875685
 20
64.731356
 30
0.0
  0
LWPOLYLINE
  5
19d
100
AcDbEntity
  8
Layer_1
 62
7
100
AcDbPolyline
 90
3
 70
0
 10
11.413909
 20
48.966650
 30
0.0
 10
13.695087
 20
51.272936
 30
0.0
 10
13.574404
 20
52.834529
 30
0.0
  0
SPLINE
  5
19e
100
AcDbEntity
  8
Layer_1
 62
7
100
AcDbSpline
 70
8
 71
3
 72
8
 73
4
 74
0
 40
0
 40
0
 40
0
 40
0
 40
1
 40
1
 40
1
 40
1
 10
17.442920
 20
66.872029
 30
0.0
 10
17.354860
 20
67.571366
 30
0.0
 10
17.195694
 20
68.487586
 30
0.0
 10
17.089216
 20
68.908076
 30
0.0
  0
SPLINE
  5
19f
100
AcDbEntity
  8
Layer_1
 62
7
100
AcDbSpline
 70
8
 71
3
 72
8
 73
4
 74
0
 40
0
 40
0
 40
0
 40
0
 40
1
 40
1
 40
1
 40
1
 10
17.089216
 20
68.908076
 30
0.0
 10
16.982737
 20
69.328565
 30
0.0
 10
16.775963
 20
69.915995
 30
0.0
 10
16.629719
 20
70.213476
 30
0.0
  0
SPLINE
  5
1a0
100
AcDbEntity
  8
Layer_1
 62
7
100
AcDbSpline
 70
8
 71
3
 72
8
 73
4
 74
0
 40
0
 40
0
 40
0
 40
0
 40
1
 40
1
 40
1
 40
1
 10
16.629719
 20
70.213476
 30
0.0
 10
16.455354
 20
70.568156
 30
0.0
 10
16.217762
 20
70.892484
 30
0.0
 10
15.939544
 20
71.155613
 30
0.0
  0
SPLINE
  5
1a1
100
AcDbEntity
  8
Layer_1
 62
7
100
AcDbSpline
 70
8
 71
3
 72
8
 73
4
 74
0
 40
0
 40
0
 40
0
 40
0
 40
1
 40
1
 40
1
 40
1
 10
15.939544
 20
71.155613
 30
0.0
 10
15.683917
 20
71.397373
 30
0.0
 10
15.293668
 20
71.659260
 30
0.0
 10
14.957781
 20
71.814450
 30
0.0
  0
SPLINE
  5
1a2
100
AcDbEntity
  8
Layer_1
 62
7
100
AcDbSpline
 70
8
 71
3
 72
8
 73
4
 74
0
 40
0
 40
0
 40
0
 40
0
 40
1
 40
1
 40
1
 40
1
 10
14.957781
 20
71.814450
 30
0.0
 10
14.651162
 20
71.956116
 30
0.0
 10
14.058300
 20
72.140628
 30
0.0
 10
13.640308
 20
72.224477
 30
0.0
  0
SPLINE
  5
1a3
100
AcDbEntity
  8
Layer_1
 62
7
100
AcDbSpline
 70
8
 71
3
 72
8
 73
4
 74
0
 40
0
 40
0
 40
0
 40
0
 40
1
 40
1
 40
1
 40
1
 10
13.640308
 20
72.224477
 30
0.0
 10
13.222317
 20
72.308327
 30
0.0
 10
12.364270
 20
72.434506
 30
0.0
 10
11.733536
 20
72.504878
 30
0.0
  0
SPLINE
  5
1a4
100
AcDbEntity
  8
Layer_1
 62
7
100
AcDbSpline
 70
8
 71
3
 72
8
 73
4
 74
0
 40
0
 40
0
 40
0
 40
0
 40
1
 40
1
 40
1
 40
1
 10
11.733536
 20
72.504878
 30
0.0
 10
11.102802
 20
72.575248
 30
0.0
 10
10.457170
 20
72.684613
 30
0.0
 10
10.298800
 20
72.747907
 30
0.0
  0
SPLINE
  5
1a5
100
AcDbEntity
  8
Layer_1
 62
7
100
AcDbSpline
 70
8
 71
3
 72
8
 73
4
 74
0
 40
0
 40
0
 40
0
 40
0
 40
1
 40
1
 40
1
 40
1
 10
10.298800
 20
72.747907
 30
0.0
 10
10.140429
 20
72.811197
 30
0.0
 10
9.877813
 20
73.014129
 30
0.0
 10
9.715209
 20
73.198857
 30
0.0
  0
SPLINE
  5
1a6
100
AcDbEntity
  8
Layer_1
 62
7
100
AcDbSpline
 70
8
 71
3
 72
8
 73
4
 74
0
 40
0
 40
0
 40
0
 40
0
 40
1
 40
1
 40
1
 40
1
 10
9.715209
 20
73.198857
 30
0.0
 10
9.541853
 20
73.395799
 30
0.0
 10
9.383847
 20
73.676573
 30
0.0
 10
9.333215
 20
73.877651
 30
0.0
  0
SPLINE
  5
1a7
100
AcDbEntity
  8
Layer_1
 62
7
100
AcDbSpline
 70
8
 71
3
 72
8
 73
4
 74
0
 40
0
 40
0
 40
0
 40
0
 40
1
 40
1
 40
1
 40
1
 10
9.333215
 20
73.877651
 30
0.0
 10
9.285725
 20
74.066259
 30
0.0
 10
9.269475
 20
74.361948
 30
0.0
 10
9.297105
 20
74.534738
 30
0.0
  0
SPLINE
  5
1a8
100
AcDbEntity
  8
Layer_1
 62
7
100
AcDbSpline
 70
8
 71
3
 72
8
 73
4
 74
0
 40
0
 40
0
 40
0
 40
0
 40
1
 40
1
 40
1
 40
1
 10
9.297105
 20
74.534738
 30
0.0
 10
9.324735
 20
74.707529
 30
0.0
 10
9.454190
 20
75.006815
 30
0.0
 10
9.584782
 20
75.199820
 30
0.0
  0
SPLINE
  5
1a9
100
AcDbEntity
  8
Layer_1
 62
7
100
AcDbSpline
 70
8
 71
3
 72
8
 73
4
 74
0
 40
0
 40
0
 40
0
 40
0
 40
1
 40
1
 40
1
 40
1
 10
9.584782
 20
75.199820
 30
0.0
 10
9.726107
 20
75.408685
 30
0.0
 10
9.961490
 20
75.625158
 30
0.0
 10
10.166260
 20
75.734581
 30
0.0
  0
SPLINE
  5
1aa
100
AcDbEntity
  8
Layer_1
 62
7
100
AcDbSpline
 70
8
 71
3
 72
8
 73
4
 74
0
 40
0
 40
0
 40
0
 40
0
 40
1
 40
1
 40
1
 40
1
 10
10.166260
 20
75.734581
 30
0.0
 10
10.481448
 20
75.903009
 30
0.0
 10
10.571198
 20
75.914882
 30
0.0
 10
11.236596
 20
75.876169
 30
0.0
  0
SPLINE
  5
1ab
100
AcDbEntity
  8
Layer_1
 62
7
100
AcDbSpline
 70
8
 71
3
 72
8
 73
4
 74
0
 40
0
 40
0
 40
0
 40
0
 40
1
 40
1
 40
1
 40
1
 10
11.236596
 20
75.876169
 30
0.0
 10
11.636061
 20
75.852929
 30
0.0
 10
12.341336
 20
75.778789
 30
0.0
 10
12.803874
 20
75.711409
 30
0.0
  0
SPLINE
  5
1ac
100
AcDbEntity
  8
Layer_1
 62
7
100
AcDbSpline
 70
8
 71
3
 72
8
 73
4
 74
0
 40
0
 40
0
 40
0
 40
0
 40
1
 40
1
 40
1
 40
1
 10
12.803874
 20
75.711409
 30
0.0
 10
13.266412
 20
75.644029
 30
0.0
 10
14.040496
 20
75.485319
 30
0.0
 10
14.524059
 20
75.358712
 30
0.0
  0
SPLINE
  5
1ad
100
AcDbEntity
  8
Layer_1
 62
7
100
AcDbSpline
 70
8
 71
3
 72
8
 73
4
 74
0
 40
0
 40
0
 40
0
 40
0
 40
1
 40
1
 40
1
 40
1
 10
14.524059
 20
75.358712
 30
0.0
 10
15.007621
 20
75.232106
 30
0.0
 10
15.717115
 20
74.980311
 30
0.0
 10
16.100711
 20
74.799167
 30
0.0
  0
SPLINE
  5
1ae
100
AcDbEntity
  8
Layer_1
 62
7
100
AcDbSpline
 70
8
 71
3
 72
8
 73
4
 74
0
 40
0
 40
0
 40
0
 40
0
 40
1
 40
1
 40
1
 40
1
 10
16.100711
 20
74.799167
 30
0.0
 10
16.484306
 20
74.618024
 30
0.0
 10
17.007001
 20
74.327993
 30
0.0
 10
17.262254
 20
74.154654
 30
0.0
  0
SPLINE
  5
1af
100
AcDbEntity
  8
Layer_1
 62
7
100
AcDbSpline
 70
8
 71
3
 72
8
 73
4
 74
0
 40
0
 40
0
 40
0
 40
0
 40
1
 40
1
 40
1
 40
1
 10
17.262254
 20
74.154654
 30
0.0
 10
17.517507
 20
73.981315
 30
0.0
 10
17.951986
 20
73.613857
 30
0.0
 10
18.227762
 20
73.338079
 30
0.0
  0
SPLINE
  5
1b0
100
AcDbEntity
  8
Layer_1
 62
7
100
AcDbSpline
 70
8
 71
3
 72
8
 73
4
 74
0
 40
0
 40
0
 40
0
 40
0
 40
1
 40
1
 40
1
 40
1
 10
18.227762
 20
73.338079
 30
0.0
 10
18.503539
 20
73.062304
 30
0.0
 10
18.862099
 20
72.640808
 30
0.0
 10
19.024563
 20
72.401424
 30
0.0
  0
SPLINE
  5
1b1
100
AcDbEntity
  8
Layer_1
 62
7
100
AcDbSpline
 70
8
 71
3
 72
8
 73
4
 74
0
 40
0
 40
0
 40
0
 40
0
 40
1
 40
1
 40
1
 40
1
 10
19.024563
 20
72.401424
 30
0.0
 10
19.187027
 20
72.162040
 30
0.0
 10
19.458122
 20
71.690950
 30
0.0
 10
19.626994
 20
71.354559
 30
0.0
  0
SPLINE
  5
1b2
100
AcDbEntity
  8
Layer_1
 62
7
100
AcDbSpline
 70
8
 71
3
 72
8
 73
4
 74
0
 40
0
 40
0
 40
0
 40
0
 40
1
 40
1
 40
1
 40
1
 10
19.626994
 20
71.354559
 30
0.0
 10
19.795866
 20
71.018168
 30
0.0
 10
20.020082
 20
70.467709
 30
0.0
 10
20.125251
 20
70.131317
 30
0.0
  0
SPLINE
  5
1b3
100
AcDbEntity
  8
Layer_1
 62
7
100
AcDbSpline
 70
8
 71
3
 72
8
 73
4
 74
0
 40
0
 40
0
 40
0
 40
0
 40
1
 40
1
 40
1
 40
1
 10
20.125251
 20
70.131317
 30
0.0
 10
20.230421
 20
69.794926
 30
0.0
 10
20.392147
 20
69.184261
 30
0.0
 10
20.484644
 20
68.774284
 30
0.0
  0
SPLINE
  5
1b4
100
AcDbEntity
  8
Layer_1
 62
7
100
AcDbSpline
 70
8
 71
3
 72
8
 73
4
 74
0
 40
0
 40
0
 40
0
 40
0
 40
1
 40
1
 40
1
 40
1
 10
20.484644
 20
68.774284
 30
0.0
 10
20.598836
 20
68.268146
 30
0.0
 10
20.687041
 20
68.028871
 30
0.0
 10
20.759428
 20
68.028871
 30
0.0
  0
SPLINE
  5
1b5
100
AcDbEntity
  8
Layer_1
 62
7
100
AcDbSpline
 70
8
 71
3
 72
8
 73
4
 74
0
 40
0
 40
0
 40
0
 40
0
 40
1
 40
1
 40
1
 40
1
 10
20.759428
 20
68.028871
 30
0.0
 10
20.818068
 20
68.028871
 30
0.0
 10
21.202280
 20
68.155054
 30
0.0
 10
21.613244
 20
68.309278
 30
0.0
  0
SPLINE
  5
1b6
100
AcDbEntity
  8
Layer_1
 62
7
100
AcDbSpline
 70
8
 71
3
 72
8
 73
4
 74
0
 40
0
 40
0
 40
0
 40
0
 40
1
 40
1
 40
1
 40
1
 10
21.613244
 20
68.309278
 30
0.0
 10
22.024208
 20
68.463502
 30
0.0
 10
22.685094
 20
68.687369
 30
0.0
 10
23.081879
 20
68.806759
 30
0.0
  0
SPLINE
  5
1b7
100
AcDbEntity
  8
Layer_1
 62
7
100
AcDbSpline
 70
8
 71
3
 72
8
 73
4
 74
0
 40
0
 40
0
 40
0
 40
0
 40
1
 40
1
 40
1
 40
1
 10
23.081879
 20
68.806759
 30
0.0
 10
23.478664
 20
68.926149
 30
0.0
 10
23.879710
 20
69.073893
 30
0.0
 10
23.973092
 20
69.135079
 30
0.0
  0
SPLINE
  5
1b8
100
AcDbEntity
  8
Layer_1
 62
7
100
AcDbSpline
 70
8
 71
3
 72
8
 73
4
 74
0
 40
0
 40
0
 40
0
 40
0
 40
1
 40
1
 40
1
 40
1
 10
23.973092
 20
69.135079
 30
0.0
 10
24.066472
 20
69.196269
 30
0.0
 10
24.200799
 20
69.420714
 30
0.0
 10
24.271593
 20
69.633855
 30
0.0
  0
SPLINE
  5
1b9
100
AcDbEntity
  8
Layer_1
 62
7
100
AcDbSpline
 70
8
 71
3
 72
8
 73
4
 74
0
 40
0
 40
0
 40
0
 40
0
 40
1
 40
1
 40
1
 40
1
 10
24.271593
 20
69.633855
 30
0.0
 10
24.342383
 20
69.846996
 30
0.0
 10
24.487527
 20
70.125036
 30
0.0
 10
24.594126
 20
70.251721
 30
0.0
  0
SPLINE
  5
1ba
100
AcDbEntity
  8
Layer_1
 62
7
100
AcDbSpline
 70
8
 71
3
 72
8
 73
4
 74
0
 40
0
 40
0
 40
0
 40
0
 40
1
 40
1
 40
1
 40
1
 10
24.594126
 20
70.251721
 30
0.0
 10
24.700725
 20
70.378407
 30
0.0
 10
24.923583
 20
70.551257
 30
0.0
 10
25.089365
 20
70.635833
 30
0.0
  0
SPLINE
  5
1bb
100
AcDbEntity
  8
Layer_1
 62
7
100
AcDbSpline
 70
8
 71
3
 72
8
 73
4
 74
0
 40
0
 40
0
 40
0
 40
0
 40
1
 40
1
 40
1
 40
1
 10
25.089365
 20
70.635833
 30
0.0
 10
25.255147
 20
70.720413
 30
0.0
 10
25.559211
 20
70.809554
 30
0.0
 10
25.765061
 20
70.833934
 30
0.0
  0
SPLINE
  5
1bc
100
AcDbEntity
  8
Layer_1
 62
7
100
AcDbSpline
 70
8
 71
3
 72
8
 73
4
 74
0
 40
0
 40
0
 40
0
 40
0
 40
1
 40
1
 40
1
 40
1
 10
25.765061
 20
70.833934
 30
0.0
 10
26.074204
 20
70.870544
 30
0.0
 10
26.213444
 20
70.842034
 30
0.0
 10
26.565203
 20
70.669904
 30
0.0
  0
SPLINE
  5
1bd
100
AcDbEntity
  8
Layer_1
 62
7
100
AcDbSpline
 70
8
 71
3
 72
8
 73
4
 74
0
 40
0
 40
0
 40
0
 40
0
 40
1
 40
1
 40
1
 40
1
 10
26.565203
 20
70.669904
 30
0.0
 10
26.883292
 20
70.514277
 30
0.0
 10
27.058129
 20
70.361971
 30
0.0
 10
27.256037
 20
70.068094
 30
0.0
  0
SPLINE
  5
1be
100
AcDbEntity
  8
Layer_1
 62
7
100
AcDbSpline
 70
8
 71
3
 72
8
 73
4
 74
0
 40
0
 40
0
 40
0
 40
0
 40
1
 40
1
 40
1
 40
1
 10
27.256037
 20
70.068094
 30
0.0
 10
27.401768
 20
69.851696
 30
0.0
 10
27.521003
 20
69.618617
 30
0.0
 10
27.521003
 20
69.550140
 30
0.0
  0
SPLINE
  5
1bf
100
AcDbEntity
  8
Layer_1
 62
7
100
AcDbSpline
 70
8
 71
3
 72
8
 73
4
 74
0
 40
0
 40
0
 40
0
 40
0
 40
1
 40
1
 40
1
 40
1
 10
27.521003
 20
69.550140
 30
0.0
 10
27.521003
 20
69.481660
 30
0.0
 10
27.590233
 20
69.337631
 30
0.0
 10
27.674840
 20
69.230066
 30
0.0
  0
SPLINE
  5
1c0
100
AcDbEntity
  8
Layer_1
 62
7
100
AcDbSpline
 70
8
 71
3
 72
8
 73
4
 74
0
 40
0
 40
0
 40
0
 40
0
 40
1
 40
1
 40
1
 40
1
 10
27.674840
 20
69.230066
 30
0.0
 10
27.759450
 20
69.122502
 30
0.0
 10
27.940069
 20
69.010573
 30
0.0
 10
28.076216
 20
68.981335
 30
0.0
  0
SPLINE
  5
1c1
100
AcDbEntity
  8
Layer_1
 62
7
100
AcDbSpline
 70
8
 71
3
 72
8
 73
4
 74
0
 40
0
 40
0
 40
0
 40
0
 40
1
 40
1
 40
1
 40
1
 10
28.076216
 20
68.981335
 30
0.0
 10
28.212362
 20
68.952095
 30
0.0
 10
28.936345
 20
68.722024
 30
0.0
 10
29.685065
 20
68.470060
 30
0.0
  0
SPLINE
  5
1c2
100
AcDbEntity
  8
Layer_1
 62
7
100
AcDbSpline
 70
8
 71
3
 72
8
 73
4
 74
0
 40
0
 40
0
 40
0
 40
0
 40
1
 40
1
 40
1
 40
1
 10
29.685065
 20
68.470060
 30
0.0
 10
30.433786
 20
68.218095
 30
0.0
 10
31.060236
 20
68.025797
 30
0.0
 10
31.077166
 20
68.042731
 30
0.0
  0
SPLINE
  5
1c3
100
AcDbEntity
  8
Layer_1
 62
7
100
AcDbSpline
 70
8
 71
3
 72
8
 73
4
 74
0
 40
0
 40
0
 40
0
 40
0
 40
1
 40
1
 40
1
 40
1
 10
31.077166
 20
68.042731
 30
0.0
 10
31.094066
 20
68.059661
 30
0.0
 10
31.232236
 20
68.564072
 30
0.0
 10
31.384136
 20
69.163639
 30
0.0
  0
SPLINE
  5
1c4
100
AcDbEntity
  8
Layer_1
 62
7
100
AcDbSpline
 70
8
 71
3
 72
8
 73
4
 74
0
 40
0
 40
0
 40
0
 40
0
 40
1
 40
1
 40
1
 40
1
 10
31.384136
 20
69.163639
 30
0.0
 10
31.536036
 20
69.763206
 30
0.0
 10
31.775346
 20
70.539089
 30
0.0
 10
31.915936
 20
70.887824
 30
0.0
  0
SPLINE
  5
1c5
100
AcDbEntity
  8
Layer_1
 62
7
100
AcDbSpline
 70
8
 71
3
 72
8
 73
4
 74
0
 40
0
 40
0
 40
0
 40
0
 40
1
 40
1
 40
1
 40
1
 10
31.915936
 20
70.887824
 30
0.0
 10
32.056526
 20
71.236559
 30
0.0
 10
32.320716
 20
71.774613
 30
0.0
 10
32.503006
 20
72.083499
 30
0.0
  0
SPLINE
  5
1c6
100
AcDbEntity
  8
Layer_1
 62
7
100
AcDbSpline
 70
8
 71
3
 72
8
 73
4
 74
0
 40
0
 40
0
 40
0
 40
0
 40
1
 40
1
 40
1
 40
1
 10
32.503006
 20
72.083499
 30
0.0
 10
32.685306
 20
72.392386
 30
0.0
 10
33.109686
 20
72.924107
 30
0.0
 10
33.446076
 20
73.265102
 30
0.0
  0
SPLINE
  5
1c7
100
AcDbEntity
  8
Layer_1
 62
7
100
AcDbSpline
 70
8
 71
3
 72
8
 73
4
 74
0
 40
0
 40
0
 40
0
 40
0
 40
1
 40
1
 40
1
 40
1
 10
33.446076
 20
73.265102
 30
0.0
 10
33.782466
 20
73.606099
 30
0.0
 10
34.322476
 20
74.049207
 30
0.0
 10
34.646086
 20
74.249788
 30
0.0
  0
SPLINE
  5
1c8
100
AcDbEntity
  8
Layer_1
 62
7
100
AcDbSpline
 70
8
 71
3
 72
8
 73
4
 74
0
 40
0
 40
0
 40
0
 40
0
 40
1
 40
1
 40
1
 40
1
 10
34.646086
 20
74.249788
 30
0.0
 10
34.969696
 20
74.450369
 30
0.0
 10
35.520156
 20
74.735223
 30
0.0
 10
35.869327
 20
74.882798
 30
0.0
  0
SPLINE
  5
1c9
100
AcDbEntity
  8
Layer_1
 62
7
100
AcDbSpline
 70
8
 71
3
 72
8
 73
4
 74
0
 40
0
 40
0
 40
0
 40
0
 40
1
 40
1
 40
1
 40
1
 10
35.869327
 20
74.882798
 30
0.0
 10
36.218497
 20
75.030372
 30
0.0
 10
36.813817
 20
75.234722
 30
0.0
 10
37.192257
 20
75.336910
 30
0.0
  0
SPLINE
  5
1ca
100
AcDbEntity
  8
Layer_1
 62
7
100
AcDbSpline
 70
8
 71
3
 72
8
 73
4
 74
0
 40
0
 40
0
 40
0
 40
0
 40
1
 40
1
 40
1
 40
1
 10
37.192257
 20
75.336910
 30
0.0
 10
37.570697
 20
75.439098
 30
0.0
 10
38.268137
 20
75.590540
 30
0.0
 10
38.742127
 20
75.673448
 30
0.0
  0
SPLINE
  5
1cb
100
AcDbEntity
  8
Layer_1
 62
7
100
AcDbSpline
 70
8
 71
3
 72
8
 73
4
 74
0
 40
0
 40
0
 40
0
 40
0
 40
1
 40
1
 40
1
 40
1
 10
38.742127
 20
75.673448
 30
0.0
 10
39.216117
 20
75.756358
 30
0.0
 10
39.929107
 20
75.847049
 30
0.0
 10
40.326537
 20
75.874985
 30
0.0
  0
SPLINE
  5
1cc
100
AcDbEntity
  8
Layer_1
 62
7
100
AcDbSpline
 70
8
 71
3
 72
8
 73
4
 74
0
 40
0
 40
0
 40
0
 40
0
 40
1
 40
1
 40
1
 40
1
 10
40.326537
 20
75.874985
 30
0.0
 10
40.911537
 20
75.916105
 30
0.0
 10
41.113887
 20
75.901055
 30
0.0
 10
41.389138
 20
75.795935
 30
0.0
  0
SPLINE
  5
1cd
100
AcDbEntity
  8
Layer_1
 62
7
100
AcDbSpline
 70
8
 71
3
 72
8
 73
4
 74
0
 40
0
 40
0
 40
0
 40
0
 40
1
 40
1
 40
1
 40
1
 10
41.389138
 20
75.795935
 30
0.0
 10
41.581138
 20
75.722605
 30
0.0
 10
41.863728
 20
75.520061
 30
0.0
 10
42.038378
 20
75.330594
 30
0.0
  0
SPLINE
  5
1ce
100
AcDbEntity
  8
Layer_1
 62
7
100
AcDbSpline
 70
8
 71
3
 72
8
 73
4
 74
0
 40
0
 40
0
 40
0
 40
0
 40
1
 40
1
 40
1
 40
1
 10
42.038378
 20
75.330594
 30
0.0
 10
42.208468
 20
75.146070
 30
0.0
 10
42.369848
 20
74.906556
 30
0.0
 10
42.397008
 20
74.798341
 30
0.0
  0
SPLINE
  5
1cf
100
AcDbEntity
  8
Layer_1
 62
7
100
AcDbSpline
 70
8
 71
3
 72
8
 73
4
 74
0
 40
0
 40
0
 40
0
 40
0
 40
1
 40
1
 40
1
 40
1
 10
42.397008
 20
74.798341
 30
0.0
 10
42.424208
 20
74.690127
 30
0.0
 10
42.433308
 20
74.369365
 30
0.0
 10
42.417208
 20
74.085539
 30
0.0
  0
SPLINE
  5
1d0
100
AcDbEntity
  8
Layer_1
 62
7
100
AcDbSpline
 70
8
 71
3
 72
8
 73
4
 74
0
 40
0
 40
0
 40
0
 40
0
 40
1
 40
1
 40
1
 40
1
 10
42.417208
 20
74.085539
 30
0.0
 10
42.393408
 20
73.663377
 30
0.0
 10
42.348708
 20
73.517871
 30
0.0
 10
42.171648
 20
73.285777
 30
0.0
  0
SPLINE
  5
1d1
100
AcDbEntity
  8
Layer_1
 62
7
100
AcDbSpline
 70
8
 71
3
 72
8
 73
4
 74
0
 40
0
 40
0
 40
0
 40
0
 40
1
 40
1
 40
1
 40
1
 10
42.171648
 20
73.285777
 30
0.0
 10
42.052108
 20
73.129041
 30
0.0
 10
41.779038
 20
72.917268
 30
0.0
 10
41.561518
 20
72.812595
 30
0.0
  0
SPLINE
  5
1d2
100
AcDbEntity
  8
Layer_1
 62
7
100
AcDbSpline
 70
8
 71
3
 72
8
 73
4
 74
0
 40
0
 40
0
 40
0
 40
0
 40
1
 40
1
 40
1
 40
1
 10
41.561518
 20
72.812595
 30
0.0
 10
41.257088
 20
72.666105
 30
0.0
 10
40.908697
 20
72.595322
 30
0.0
 10
40.025657
 20
72.500556
 30
0.0
  0
SPLINE
  5
1d3
100
AcDbEntity
  8
Layer_1
 62
7
100
AcDbSpline
 70
8
 71
3
 72
8
 73
4
 74
0
 40
0
 40
0
 40
0
 40
0
 40
1
 40
1
 40
1
 40
1
 10
40.025657
 20
72.500556
 30
0.0
 10
39.397487
 20
72.433146
 30
0.0
 10
38.618227
 20
72.327656
 30
0.0
 10
38.293947
 20
72.266143
 30
0.0
  0
SPLINE
  5
1d4
100
AcDbEntity
  8
Layer_1
 62
7
100
AcDbSpline
 70
8
 71
3
 72
8
 73
4
 74
0
 40
0
 40
0
 40
0
 40
0
 40
1
 40
1
 40
1
 40
1
 10
38.293947
 20
72.266143
 30
0.0
 10
37.969677
 20
72.204633
 30
0.0
 10
37.519557
 20
72.090716
 30
0.0
 10
37.293677
 20
72.013003
 30
0.0
  0
SPLINE
  5
1d5
100
AcDbEntity
  8
Layer_1
 62
7
100
AcDbSpline
 70
8
 71
3
 72
8
 73
4
 74
0
 40
0
 40
0
 40
0
 40
0
 40
1
 40
1
 40
1
 40
1
 10
37.293677
 20
72.013003
 30
0.0
 10
37.067797
 20
71.935293
 30
0.0
 10
36.704407
 20
71.781214
 30
0.0
 10
36.486157
 20
71.670613
 30
0.0
  0
SPLINE
  5
1d6
100
AcDbEntity
  8
Layer_1
 62
7
100
AcDbSpline
 70
8
 71
3
 72
8
 73
4
 74
0
 40
0
 40
0
 40
0
 40
0
 40
1
 40
1
 40
1
 40
1
 10
36.486157
 20
71.670613
 30
0.0
 10
36.267897
 20
71.560013
 30
0.0
 10
35.961597
 20
71.357645
 30
0.0
 10
35.805507
 20
71.220908
 30
0.0
  0
SPLINE
  5
1d7
100
AcDbEntity
  8
Layer_1
 62
7
100
AcDbSpline
 70
8
 71
3
 72
8
 73
4
 74
0
 40
0
 40
0
 40
0
 40
0
 40
1
 40
1
 40
1
 40
1
 10
35.805507
 20
71.220908
 30
0.0
 10
35.649406
 20
71.084171
 30
0.0
 10
35.425736
 20
70.821277
 30
0.0
 10
35.308466
 20
70.636699
 30
0.0
  0
SPLINE
  5
1d8
100
AcDbEntity
  8
Layer_1
 62
7
100
AcDbSpline
 70
8
 71
3
 72
8
 73
4
 74
0
 40
0
 40
0
 40
0
 40
0
 40
1
 40
1
 40
1
 40
1
 10
35.308466
 20
70.636699
 30
0.0
 10
35.191186
 20
70.452122
 30
0.0
 10
35.009256
 20
70.039277
 30
0.0
 10
34.904176
 20
69.719268
 30
0.0
  0
SPLINE
  5
1d9
100
AcDbEntity
  8
Layer_1
 62
7
100
AcDbSpline
 70
8
 71
3
 72
8
 73
4
 74
0
 40
0
 40
0
 40
0
 40
0
 40
1
 40
1
 40
1
 40
1
 10
34.904176
 20
69.719268
 30
0.0
 10
34.799096
 20
69.399258
 30
0.0
 10
34.644326
 20
68.793396
 30
0.0
 10
34.560236
 20
68.372906
 30
0.0
  0
SPLINE
  5
1da
100
AcDbEntity
  8
Layer_1
 62
7
100
AcDbSpline
 70
8
 71
3
 72
8
 73
4
 74
0
 40
0
 40
0
 40
0
 40
0
 40
1
 40
1
 40
1
 40
1
 10
34.560236
 20
68.372906
 30
0.0
 10
34.476136
 20
67.952417
 30
0.0
 10
34.353276
 20
67.168389
 30
0.0
 10
34.287186
 20
66.630623
 30
0.0
  0
SPLINE
  5
1db
100
AcDbEntity
  8
Layer_1
 62
7
100
AcDbSpline
 70
8
 71
3
 72
8
 73
4
 74
0
 40
0
 40
0
 40
0
 40
0
 40
1
 40
1
 40
1
 40
1
 10
34.287186
 20
66.630623
 30
0.0
 10
34.221086
 20
66.092858
 30
0.0
 10
34.192486
 20
65.611206
 30
0.0
 10
34.223486
 20
65.560287
 30
0.0
  0
SPLINE
  5
1dc
100
AcDbEntity
  8
Layer_1
 62
7
100
AcDbSpline
 70
8
 71
3
 72
8
 73
4
 74
0
 40
0
 40
0
 40
0
 40
0
 40
1
 40
1
 40
1
 40
1
 10
34.223486
 20
65.560287
 30
0.0
 10
34.254586
 20
65.509367
 30
0.0
 10
34.523666
 20
65.175275
 30
0.0
 10
34.821556
 20
64.817859
 30
0.0
  0
SPLINE
  5
1dd
100
AcDbEntity
  8
Layer_1
 62
7
100
AcDbSpline
 70
8
 71
3
 72
8
 73
4
 74
0
 40
0
 40
0
 40
0
 40
0
 40
1
 40
1
 40
1
 40
1
 10
34.821556
 20
64.817859
 30
0.0
 10
35.119436
 20
64.460443
 30
0.0
 10
35.538446
 20
63.927186
 30
0.0
 10
35.752677
 20
63.632844
 30
0.0
  0
SPLINE
  5
1de
100
AcDbEntity
  8
Layer_1
 62
7
100
AcDbSpline
 70
8
 71
3
 72
8
 73
4
 74
0
 40
0
 40
0
 40
0
 40
0
 40
1
 40
1
 40
1
 40
1
 10
35.752677
 20
63.632844
 30
0.0
 10
35.966917
 20
63.338501
 30
0.0
 10
36.303847
 20
62.846493
 30
0.0
 10
36.501427
 20
62.539495
 30
0.0
  0
SPLINE
  5
1df
100
AcDbEntity
  8
Layer_1
 62
7
100
AcDbSpline
 70
8
 71
3
 72
8
 73
4
 74
0
 40
0
 40
0
 40
0
 40
0
 40
1
 40
1
 40
1
 40
1
 10
36.501427
 20
62.539495
 30
0.0
 10
36.698997
 20
62.232496
 30
0.0
 10
37.063137
 20
61.561625
 30
0.0
 10
37.310627
 20
61.048669
 30
0.0
  0
SPLINE
  5
1e0
100
AcDbEntity
  8
Layer_1
 62
7
100
AcDbSpline
 70
8
 71
3
 72
8
 73
4
 74
0
 40
0
 40
0
 40
0
 40
0
 40
1
 40
1
 40
1
 40
1
 10
37.310627
 20
61.048669
 30
0.0
 10
37.558107
 20
60.535713
 30
0.0
 10
37.846457
 20
59.789188
 30
0.0
 10
37.951387
 20
59.389723
 30
0.0
  0
SPLINE
  5
1e1
100
AcDbEntity
  8
Layer_1
 62
7
100
AcDbSpline
 70
8
 71
3
 72
8
 73
4
 74
0
 40
0
 40
0
 40
0
 40
0
 40
1
 40
1
 40
1
 40
1
 10
37.951387
 20
59.389723
 30
0.0
 10
38.056327
 20
58.990258
 30
0.0
 10
38.181837
 20
58.353790
 30
0.0
 10
38.230307
 20
57.975350
 30
0.0
  0
SPLINE
  5
1e2
100
AcDbEntity
  8
Layer_1
 62
7
100
AcDbSpline
 70
8
 71
3
 72
8
 73
4
 74
0
 40
0
 40
0
 40
0
 40
0
 40
1
 40
1
 40
1
 40
1
 10
38.230307
 20
57.975350
 30
0.0
 10
38.278807
 20
57.596909
 30
0.0
 10
38.320007
 20
56.616404
 30
0.0
 10
38.321907
 20
55.796450
 30
0.0
  0
SPLINE
  5
1e3
100
AcDbEntity
  8
Layer_1
 62
7
100
AcDbSpline
 70
8
 71
3
 72
8
 73
4
 74
0
 40
0
 40
0
 40
0
 40
0
 40
1
 40
1
 40
1
 40
1
 10
38.321907
 20
55.796450
 30
0.0
 10
38.323907
 20
54.968578
 30
0.0
 10
38.265707
 20
53.631137
 30
0.0
 10
38.191057
 20
52.788864
 30
0.0
  0
LWPOLYLINE
  5
1e4
100
AcDbEntity
  8
Layer_1
 62
7
100
AcDbPolyline
 90
3
 70
0
 10
16.875685
 20
64.731356
 30
0.0
 10
17.603027
 20
65.600510
 30
0.0
 10
17.442920
 20
66.872029
 30
0.0
  0
SPLINE
  5
1e5
100
AcDbEntity
  8
Layer_1
 62
7
100
AcDbSpline
 70
8
 71
3
 72
8
 73
4
 74
0
 40
0
 40
0
 40
0
 40
0
 40
1
 40
1
 40
1
 40
1
 10
40.304667
 20
49.004459
 30
0.0
 10
41.541048
 20
47.757255
 30
0.0
 10
42.881018
 20
46.341172
 30
0.0
 10
43.282388
 20
45.857609
 30
0.0
  0
SPLINE
  5
1e6
100
AcDbEntity
  8
Layer_1
 62
7
100
AcDbSpline
 70
8
 71
3
 72
8
 73
4
 74
0
 40
0
 40
0
 40
0
 40
0
 40
1
 40
1
 40
1
 40
1
 10
43.282388
 20
45.857609
 30
0.0
 10
43.683758
 20
45.374046
 30
0.0
 10
44.251888
 20
44.651569
 30
0.0
 10
44.544908
 20
44.252104
 30
0.0
  0
SPLINE
  5
1e7
100
AcDbEntity
  8
Layer_1
 62
7
100
AcDbSpline
 70
8
 71
3
 72
8
 73
4
 74
0
 40
0
 40
0
 40
0
 40
0
 40
1
 40
1
 40
1
 40
1
 10
44.544908
 20
44.252104
 30
0.0
 10
44.837918
 20
43.852640
 30
0.0
 10
45.371888
 20
43.095759
 30
0.0
 10
45.731508
 20
42.570147
 30
0.0
  0
SPLINE
  5
1e8
100
AcDbEntity
  8
Layer_1
 62
7
100
AcDbSpline
 70
8
 71
3
 72
8
 73
4
 74
0
 40
0
 40
0
 40
0
 40
0
 40
1
 40
1
 40
1
 40
1
 10
45.731508
 20
42.570147
 30
0.0
 10
46.091118
 20
42.044535
 30
0.0
 10
46.685988
 20
41.115634
 30
0.0
 10
47.053449
 20
40.505924
 30
0.0
  0
SPLINE
  5
1e9
100
AcDbEntity
  8
Layer_1
 62
7
100
AcDbSpline
 70
8
 71
3
 72
8
 73
4
 74
0
 40
0
 40
0
 40
0
 40
0
 40
1
 40
1
 40
1
 40
1
 10
47.053449
 20
40.505924
 30
0.0
 10
47.420899
 20
39.896214
 30
0.0
 10
48.041519
 20
38.743694
 30
0.0
 10
48.432589
 20
37.944764
 30
0.0
  0
SPLINE
  5
1ea
100
AcDbEntity
  8
Layer_1
 62
7
100
AcDbSpline
 70
8
 71
3
 72
8
 73
4
 74
0
 40
0
 40
0
 40
0
 40
0
 40
1
 40
1
 40
1
 40
1
 10
48.432589
 20
37.944764
 30
0.0
 10
48.823669
 20
37.145834
 30
0.0
 10
49.297059
 20
36.079324
 30
0.0
 10
49.484569
 20
35.574733
 30
0.0
  0
SPLINE
  5
1eb
100
AcDbEntity
  8
Layer_1
 62
7
100
AcDbSpline
 70
8
 71
3
 72
8
 73
4
 74
0
 40
0
 40
0
 40
0
 40
0
 40
1
 40
1
 40
1
 40
1
 10
49.484569
 20
35.574733
 30
0.0
 10
49.672069
 20
35.070143
 30
0.0
 10
49.932389
 20
34.278863
 30
0.0
 10
50.063049
 20
33.816323
 30
0.0
  0
SPLINE
  5
1ec
100
AcDbEntity
  8
Layer_1
 62
7
100
AcDbSpline
 70
8
 71
3
 72
8
 73
4
 74
0
 40
0
 40
0
 40
0
 40
0
 40
1
 40
1
 40
1
 40
1
 10
50.063049
 20
33.816323
 30
0.0
 10
50.193709
 20
33.353783
 30
0.0
 10
50.366849
 20
32.648503
 30
0.0
 10
50.447789
 20
32.249043
 30
0.0
  0
SPLINE
  5
1ed
100
AcDbEntity
  8
Layer_1
 62
7
100
AcDbSpline
 70
8
 71
3
 72
8
 73
4
 74
0
 40
0
 40
0
 40
0
 40
0
 40
1
 40
1
 40
1
 40
1
 10
50.447789
 20
32.249043
 30
0.0
 10
50.528689
 20
31.849583
 30
0.0
 10
50.641169
 20
31.195913
 30
0.0
 10
50.697659
 20
30.796443
 30
0.0
  0
SPLINE
  5
1ee
100
AcDbEntity
  8
Layer_1
 62
7
100
AcDbSpline
 70
8
 71
3
 72
8
 73
4
 74
0
 40
0
 40
0
 40
0
 40
0
 40
1
 40
1
 40
1
 40
1
 10
50.697659
 20
30.796443
 30
0.0
 10
50.762359
 20
30.338843
 30
0.0
 10
50.800349
 20
29.334752
 30
0.0
 10
50.800349
 20
28.082372
 30
0.0
  0
SPLINE
  5
1ef
100
AcDbEntity
  8
Layer_1
 62
7
100
AcDbSpline
 70
8
 71
3
 72
8
 73
4
 74
0
 40
0
 40
0
 40
0
 40
0
 40
1
 40
1
 40
1
 40
1
 10
50.800349
 20
28.082372
 30
0.0
 10
50.800349
 20
26.853552
 30
0.0
 10
50.761849
 20
25.817302
 30
0.0
 10
50.699419
 20
25.368312
 30
0.0
  0
SPLINE
  5
1f0
100
AcDbEntity
  8
Layer_1
 62
7
100
AcDbSpline
 70
8
 71
3
 72
8
 73
4
 74
0
 40
0
 40
0
 40
0
 40
0
 40
1
 40
1
 40
1
 40
1
 10
50.699419
 20
25.368312
 30
0.0
 10
50.643919
 20
24.968842
 30
0.0
 10
50.512239
 20
24.250381
 30
0.0
 10
50.406809
 20
23.771731
 30
0.0
  0
SPLINE
  5
1f1
100
AcDbEntity
  8
Layer_1
 62
7
100
AcDbSpline
 70
8
 71
3
 72
8
 73
4
 74
0
 40
0
 40
0
 40
0
 40
0
 40
1
 40
1
 40
1
 40
1
 10
50.406809
 20
23.771731
 30
0.0
 10
50.301389
 20
23.293081
 30
0.0
 10
50.094419
 20
22.553401
 30
0.0
 10
49.946869
 20
22.128001
 30
0.0
  0
SPLINE
  5
1f2
100
AcDbEntity
  8
Layer_1
 62
7
100
AcDbSpline
 70
8
 71
3
 72
8
 73
4
 74
0
 40
0
 40
0
 40
0
 40
0
 40
1
 40
1
 40
1
 40
1
 10
49.946869
 20
22.128001
 30
0.0
 10
49.799319
 20
21.702601
 30
0.0
 10
49.577919
 20
21.165321
 30
0.0
 10
49.454869
 20
20.934051
 30
0.0
  0
SPLINE
  5
1f3
100
AcDbEntity
  8
Layer_1
 62
7
100
AcDbSpline
 70
8
 71
3
 72
8
 73
4
 74
0
 40
0
 40
0
 40
0
 40
0
 40
1
 40
1
 40
1
 40
1
 10
49.454869
 20
20.934051
 30
0.0
 10
49.331809
 20
20.702791
 30
0.0
 10
49.076459
 20
20.307141
 30
0.0
 10
48.887429
 20
20.054851
 30
0.0
  0
SPLINE
  5
1f4
100
AcDbEntity
  8
Layer_1
 62
7
100
AcDbSpline
 70
8
 71
3
 72
8
 73
4
 74
0
 40
0
 40
0
 40
0
 40
0
 40
1
 40
1
 40
1
 40
1
 10
48.887429
 20
20.054851
 30
0.0
 10
48.698399
 20
19.802561
 30
0.0
 10
48.225879
 20
19.274781
 30
0.0
 10
47.837399
 20
18.882020
 30
0.0
  0
SPLINE
  5
1f5
100
AcDbEntity
  8
Layer_1
 62
7
100
AcDbSpline
 70
8
 71
3
 72
8
 73
4
 74
0
 40
0
 40
0
 40
0
 40
0
 40
1
 40
1
 40
1
 40
1
 10
47.837399
 20
18.882020
 30
0.0
 10
47.448909
 20
18.489250
 30
0.0
 10
46.859329
 20
17.962350
 30
0.0
 10
46.527218
 20
17.711130
 30
0.0
  0
SPLINE
  5
1f6
100
AcDbEntity
  8
Layer_1
 62
7
100
AcDbSpline
 70
8
 71
3
 72
8
 73
4
 74
0
 40
0
 40
0
 40
0
 40
0
 40
1
 40
1
 40
1
 40
1
 10
46.527218
 20
17.711130
 30
0.0
 10
46.195118
 20
17.459910
 30
0.0
 10
45.593058
 20
17.089040
 30
0.0
 10
45.189298
 20
16.886980
 30
0.0
  0
SPLINE
  5
1f7
100
AcDbEntity
  8
Layer_1
 62
7
100
AcDbSpline
 70
8
 71
3
 72
8
 73
4
 74
0
 40
0
 40
0
 40
0
 40
0
 40
1
 40
1
 40
1
 40
1
 10
45.189298
 20
16.886980
 30
0.0
 10
44.785548
 20
16.684920
 30
0.0
 10
44.185728
 20
16.429500
 30
0.0
 10
43.856358
 20
16.319360
 30
0.0
  0
SPLINE
  5
1f8
100
AcDbEntity
  8
Layer_1
 62
7
100
AcDbSpline
 70
8
 71
3
 72
8
 73
4
 74
0
 40
0
 40
0
 40
0
 40
0
 40
1
 40
1
 40
1
 40
1
 10
43.856358
 20
16.319360
 30
0.0
 10
43.526988
 20
16.209230
 30
0.0
 10
42.946808
 20
16.081350
 30
0.0
 10
42.567048
 20
16.035170
 30
0.0
  0
SPLINE
  5
1f9
100
AcDbEntity
  8
Layer_1
 62
7
100
AcDbSpline
 70
8
 71
3
 72
8
 73
4
 74
0
 40
0
 40
0
 40
0
 40
0
 40
1
 40
1
 40
1
 40
1
 10
42.567048
 20
16.035170
 30
0.0
 10
42.067158
 20
15.974370
 30
0.0
 10
41.567778
 20
15.974170
 30
0.0
 10
40.757647
 20
16.034480
 30
0.0
  0
SPLINE
  5
1fa
100
AcDbEntity
  8
Layer_1
 62
7
100
AcDbSpline
 70
8
 71
3
 72
8
 73
4
 74
0
 40
0
 40
0
 40
0
 40
0
 40
1
 40
1
 40
1
 40
1
 10
40.757647
 20
16.034480
 30
0.0
 10
40.142217
 20
16.080280
 30
0.0
 10
39.511397
 20
16.139110
 30
0.0
 10
39.355807
 20
16.165260
 30
0.0
  0
SPLINE
  5
1fb
100
AcDbEntity
  8
Layer_1
 62
7
100
AcDbSpline
 70
8
 71
3
 72
8
 73
4
 74
0
 40
0
 40
0
 40
0
 40
0
 40
1
 40
1
 40
1
 40
1
 10
39.355807
 20
16.165260
 30
0.0
 10
39.102687
 20
16.207760
 30
0.0
 10
39.068507
 20
16.193660
 30
0.0
 10
39.030997
 20
16.031380
 30
0.0
  0
SPLINE
  5
1fc
100
AcDbEntity
  8
Layer_1
 62
7
100
AcDbSpline
 70
8
 71
3
 72
8
 73
4
 74
0
 40
0
 40
0
 40
0
 40
0
 40
1
 40
1
 40
1
 40
1
 10
39.030997
 20
16.031380
 30
0.0
 10
39.007897
 20
15.931580
 30
0.0
 10
38.903427
 20
15.402730
 30
0.0
 10
38.798757
 20
14.856090
 30
0.0
  0
SPLINE
  5
1fd
100
AcDbEntity
  8
Layer_1
 62
7
100
AcDbSpline
 70
8
 71
3
 72
8
 73
4
 74
0
 40
0
 40
0
 40
0
 40
0
 40
1
 40
1
 40
1
 40
1
 10
38.798757
 20
14.856090
 30
0.0
 10
38.694097
 20
14.309460
 30
0.0
 10
38.488607
 20
13.441889
 30
0.0
 10
38.342127
 20
12.928169
 30
0.0
  0
SPLINE
  5
1fe
100
AcDbEntity
  8
Layer_1
 62
7
100
AcDbSpline
 70
8
 71
3
 72
8
 73
4
 74
0
 40
0
 40
0
 40
0
 40
0
 40
1
 40
1
 40
1
 40
1
 10
38.342127
 20
12.928169
 30
0.0
 10
38.195637
 20
12.414449
 30
0.0
 10
37.951037
 20
11.657559
 30
0.0
 10
37.798567
 20
11.246209
 30
0.0
  0
SPLINE
  5
1ff
100
AcDbEntity
  8
Layer_1
 62
7
100
AcDbSpline
 70
8
 71
3
 72
8
 73
4
 74
0
 40
0
 40
0
 40
0
 40
0
 40
1
 40
1
 40
1
 40
1
 10
37.798567
 20
11.246209
 30
0.0
 10
37.646097
 20
10.834859
 30
0.0
 10
37.400867
 20
10.280179
 30
0.0
 10
37.253627
 20
10.013599
 30
0.0
  0
SPLINE
  5
200
100
AcDbEntity
  8
Layer_1
 62
7
100
AcDbSpline
 70
8
 71
3
 72
8
 73
4
 74
0
 40
0
 40
0
 40
0
 40
0
 40
1
 40
1
 40
1
 40
1
 10
37.253627
 20
10.013599
 30
0.0
 10
37.106387
 20
9.747009
 30
0.0
 10
36.718407
 20
9.196549
 30
0.0
 10
36.391467
 20
8.790349
 30
0.0
  0
SPLINE
  5
201
100
AcDbEntity
  8
Layer_1
 62
7
100
AcDbSpline
 70
8
 71
3
 72
8
 73
4
 74
0
 40
0
 40
0
 40
0
 40
0
 40
1
 40
1
 40
1
 40
1
 10
36.391467
 20
8.790349
 30
0.0
 10
36.064527
 20
8.384159
 30
0.0
 10
35.402616
 20
7.669938
 30
0.0
 10
34.920566
 20
7.203208
 30
0.0
  0
SPLINE
  5
202
100
AcDbEntity
  8
Layer_1
 62
7
100
AcDbSpline
 70
8
 71
3
 72
8
 73
4
 74
0
 40
0
 40
0
 40
0
 40
0
 40
1
 40
1
 40
1
 40
1
 10
34.920566
 20
7.203208
 30
0.0
 10
34.438516
 20
6.736478
 30
0.0
 10
33.634316
 20
6.014008
 30
0.0
 10
33.133446
 20
5.597708
 30
0.0
  0
SPLINE
  5
203
100
AcDbEntity
  8
Layer_1
 62
7
100
AcDbSpline
 70
8
 71
3
 72
8
 73
4
 74
0
 40
0
 40
0
 40
0
 40
0
 40
1
 40
1
 40
1
 40
1
 10
33.133446
 20
5.597708
 30
0.0
 10
32.632586
 20
5.181408
 30
0.0
 10
31.827146
 20
4.548858
 30
0.0
 10
31.343586
 20
4.192038
 30
0.0
  0
SPLINE
  5
204
100
AcDbEntity
  8
Layer_1
 62
7
100
AcDbSpline
 70
8
 71
3
 72
8
 73
4
 74
0
 40
0
 40
0
 40
0
 40
0
 40
1
 40
1
 40
1
 40
1
 10
31.343586
 20
4.192038
 30
0.0
 10
30.860016
 20
3.835208
 30
0.0
 10
29.827905
 20
3.119668
 30
0.0
 10
29.050005
 20
2.601927
 30
0.0
  0
SPLINE
  5
205
100
AcDbEntity
  8
Layer_1
 62
7
100
AcDbSpline
 70
8
 71
3
 72
8
 73
4
 74
0
 40
0
 40
0
 40
0
 40
0
 40
1
 40
1
 40
1
 40
1
 10
29.050005
 20
2.601927
 30
0.0
 10
28.272099
 20
2.084187
 30
0.0
 10
27.359801
 20
1.522987
 30
0.0
 10
27.022675
 20
1.354797
 30
0.0
  0
SPLINE
  5
206
100
AcDbEntity
  8
Layer_1
 62
7
100
AcDbSpline
 70
8
 71
3
 72
8
 73
4
 74
0
 40
0
 40
0
 40
0
 40
0
 40
1
 40
1
 40
1
 40
1
 10
27.022675
 20
1.354797
 30
0.0
 10
26.609258
 20
1.148557
 30
0.0
 10
26.273270
 20
1.037377
 30
0.0
 10
25.990565
 20
1.013267
 30
0.0
  0
SPLINE
  5
207
100
AcDbEntity
  8
Layer_1
 62
7
100
AcDbSpline
 70
8
 71
3
 72
8
 73
4
 74
0
 40
0
 40
0
 40
0
 40
0
 40
1
 40
1
 40
1
 40
1
 10
25.990565
 20
1.013267
 30
0.0
 10
25.738672
 20
0.991767
 30
0.0
 10
25.461505
 20
1.018267
 30
0.0
 10
25.295989
 20
1.080567
 30
0.0
  0
LWPOLYLINE
  5
208
100
AcDbEntity
  8
Layer_1
 62
7
100
AcDbPolyline
 90
3
 70
0
 10
38.191057
 20
52.788864
 30
0.0
 10
38.056717
 20
51.272102
 30
0.0
 10
40.304667
 20
49.004459
 30
0.0
  0
LWPOLYLINE
  5
209
100
AcDbEntity
  8
Layer_1
 62
7
100
AcDbPolyline
 90
2
 70
0
 10
25.295989
 20
1.080567
 30
0.0
 10
25.296038
 20
1.080437
 30
0.0
  0
ENDSEC
  0
SECTION
  2
OBJECTS
  0
DICTIONARY
  5
C
330
0
100
AcDbDictionary
  3
ACAD_GROUP
350
D
  3
ACAD_MLINESTYLE
350
17
  0
DICTIONARY
  5
D
330
C
100
AcDbDictionary
  0
DICTIONARY
  5
1A
330
C
100
AcDbDictionary
  0
DICTIONARY
  5
17
330
C
100
AcDbDictionary
  3
STANDARD
350
18
  0
DICTIONARY
  5
19
330
C
100
AcDbDictionary
  0
ENDSEC
  0
EOF
