  0
SECTION
  2
HEADER
  9
$ACADVER
  1
AC1014
  9
$HANDSEED
  5
FFFF
  9
$MEASUREMENT
 70
     1
  0
ENDSEC
  0
SECTION
  2
TABLES
  0
TABLE
  2
VPORT
  5
8
330
0
100
AcDbSymbolTable
 70
     4
  0
VPORT
  5
2E
330
8
100
AcDbSymbolTableRecord
100
AcDbViewportTableRecord
  2
*ACTIVE
 70
     0
 10
0.0
 20
0.0
 11
1.0
 21
1.0
 12
210.0
 22
148.5
 13
0.0
 23
0.0
 14
10.0
 24
10.0
 15
10.0
 25
10.0
 16
0.0
 26
0.0
 36
1.0
 17
0.0
 27
0.0
 37
0.0
 40
341.0
 41
1.24
 42
50.0
 43
0.0
 44
0.0
 50
0.0
 51
0.0
 71
     0
 72
   100
 73
     1
 74
     3
 75
     0
 76
     0
 77
     0
 78
     0
  0
ENDTAB
  0
TABLE
  2
LTYPE
  5
5
330
0
100
AcDbSymbolTable
 70
     1
  0
LTYPE
  5
14
330
5
100
AcDbSymbolTableRecord
100
AcDbLinetypeTableRecord
  2
BYBLOCK
 70
     0
  3

 72
    65
 73
     0
 40
0.0
  0
LTYPE
  5
15
330
5
100
AcDbSymbolTableRecord
100
AcDbLinetypeTableRecord
  2
BYLAYER
 70
     0
  3

 72
    65
 73
     0
 40
0.0
  0
LTYPE
  5
16
330
5
100
AcDbSymbolTableRecord
100
AcDbLinetypeTableRecord
  2
CONTINUOUS
 70
     0
  3
Solid line
 72
    65
 73
     0
 40
0.0
  0
ENDTAB
  0
TABLE
  2
LAYER
  5
2
100
AcDbSymbolTable
 70
2
  0
LAYER
  5
50
100
AcDbSymbolTableRecord
100
AcDbLayerTableRecord
  2
0
 70
0
  6
CONTINUOUS
  0
LAYER
  5
51
100
AcDbSymbolTableRecord
100
AcDbLayerTableRecord
  2
Layer_1
 70
0
  6
CONTINUOUS
  0
ENDTAB
  0
TABLE
  2
STYLE
  5
3
330
0
100
AcDbSymbolTable
 70
     1
  0
STYLE
  5
11
330
3
100
AcDbSymbolTableRecord
100
AcDbTextStyleTableRecord
  2
STANDARD
 70
     0
 40
0.0
 41
1.0
 50
0.0
 71
     0
 42
2.5
  3
txt
  4

  0
ENDTAB
  0
TABLE
  2
VIEW
  5
6
330
0
100
AcDbSymbolTable
 70
     0
  0
ENDTAB
  0
TABLE
  2
UCS
  5
7
330
0
100
AcDbSymbolTable
 70
     0
  0
ENDTAB
  0
TABLE
  2
APPID
  5
9
330
0
100
AcDbSymbolTable
 70
     2
  0
APPID
  5
12
330
9
100
AcDbSymbolTableRecord
100
AcDbRegAppTableRecord
  2
ACAD
 70
     0
  0
ENDTAB
  0
TABLE
  2
DIMSTYLE
  5
A
330
0
100
AcDbSymbolTable
 70
     1
  0
DIMSTYLE
105
27
330
A
100
AcDbSymbolTableRecord
100
AcDbDimStyleTableRecord
  2
ISO-25
 70
     0
  3

  4

  5

  6

  7

 40
1.0
 41
2.5
 42
0.625
 43
3.75
 44
1.25
 45
0.0
 46
0.0
 47
0.0
 48
0.0
140
2.5
141
2.5
142
0.0
143
0.03937007874016
144
1.0
145
0.0
146
1.0
147
0.625
 71
     0
 72
     0
 73
     0
 74
     0
 75
     0
 76
     0
 77
     1
 78
     8
170
     0
171
     3
172
     1
173
     0
174
     0
175
     0
176
     0
177
     0
178
     0
270
     2
271
     2
272
     2
273
     2
274
     3
340
11
275
     0
280
     0
281
     0
282
     0
283
     0
284
     8
285
     0
286
     0
287
     3
288
     0
  0
ENDTAB
  0
TABLE
  2
BLOCK_RECORD
  5
1
330
0
100
AcDbSymbolTable
 70
     1
  0
BLOCK_RECORD
  5
1F
330
1
100
AcDbSymbolTableRecord
100
AcDbBlockTableRecord
  2
*MODEL_SPACE
  0
BLOCK_RECORD
  5
1B
330
1
100
AcDbSymbolTableRecord
100
AcDbBlockTableRecord
  2
*PAPER_SPACE
  0
ENDTAB
  0
ENDSEC
  0
SECTION
  2
BLOCKS
  0
BLOCK
  5
20
330
1F
100
AcDbEntity
  8
0
100
AcDbBlockBegin
  2
*MODEL_SPACE
 70
     0
 10
0.0
 20
0.0
 30
0.0
  3
*MODEL_SPACE
  1

  0
ENDBLK
  5
21
330
1F
100
AcDbEntity
  8
0
100
AcDbBlockEnd
  0
BLOCK
  5
1C
330
1B
100
AcDbEntity
 67
     1
  8
0
100
AcDbBlockBegin
  2
*PAPER_SPACE
  1

  0
ENDBLK
  5
1D
330
1B
100
AcDbEntity
 67
     1
  8
0
100
AcDbBlockEnd
  0
ENDSEC
  0
SECTION
  2
ENTITIES
  0
SPLINE
  5
100
100
AcDbEntity
  8
Layer_1
 62
7
100
AcDbSpline
 70
8
 71
3
 72
8
 73
4
 74
0
 40
0
 40
0
 40
0
 40
0
 40
1
 40
1
 40
1
 40
1
 10
24.294456
 20
0.074538
 30
0.0
 10
24.142973
 20
0.131138
 30
0.0
 10
23.798936
 20
0.300688
 30
0.0
 10
23.529930
 20
0.451208
 30
0.0
  0
SPLINE
  5
101
100
AcDbEntity
  8
Layer_1
 62
7
100
AcDbSpline
 70
8
 71
3
 72
8
 73
4
 74
0
 40
0
 40
0
 40
0
 40
0
 40
1
 40
1
 40
1
 40
1
 10
23.529930
 20
0.451208
 30
0.0
 10
23.260923
 20
0.601718
 30
0.0
 10
22.369955
 20
1.169388
 30
0.0
 10
21.550001
 20
1.712698
 30
0.0
  0
SPLINE
  5
102
100
AcDbEntity
  8
Layer_1
 62
7
100
AcDbSpline
 70
8
 71
3
 72
8
 73
4
 74
0
 40
0
 40
0
 40
0
 40
0
 40
1
 40
1
 40
1
 40
1
 10
21.550001
 20
1.712698
 30
0.0
 10
20.730046
 20
2.255998
 30
0.0
 10
19.644421
 20
3.010789
 30
0.0
 10
19.137501
 20
3.390009
 30
0.0
  0
SPLINE
  5
103
100
AcDbEntity
  8
Layer_1
 62
7
100
AcDbSpline
 70
8
 71
3
 72
8
 73
4
 74
0
 40
0
 40
0
 40
0
 40
0
 40
1
 40
1
 40
1
 40
1
 10
19.137501
 20
3.390009
 30
0.0
 10
18.630581
 20
3.769229
 30
0.0
 10
17.804893
 20
4.424059
 30
0.0
 10
17.302639
 20
4.845169
 30
0.0
  0
SPLINE
  5
104
100
AcDbEntity
  8
Layer_1
 62
7
100
AcDbSpline
 70
8
 71
3
 72
8
 73
4
 74
0
 40
0
 40
0
 40
0
 40
0
 40
1
 40
1
 40
1
 40
1
 10
17.302639
 20
4.845169
 30
0.0
 10
16.800384
 20
5.266289
 30
0.0
 10
15.938063
 20
6.076019
 30
0.0
 10
15.386368
 20
6.644579
 30
0.0
  0
SPLINE
  5
105
100
AcDbEntity
  8
Layer_1
 62
7
100
AcDbSpline
 70
8
 71
3
 72
8
 73
4
 74
0
 40
0
 40
0
 40
0
 40
0
 40
1
 40
1
 40
1
 40
1
 10
15.386368
 20
6.644579
 30
0.0
 10
14.754954
 20
7.295289
 30
0.0
 10
14.196016
 20
7.959619
 30
0.0
 10
13.877868
 20
8.437509
 30
0.0
  0
SPLINE
  5
106
100
AcDbEntity
  8
Layer_1
 62
7
100
AcDbSpline
 70
8
 71
3
 72
8
 73
4
 74
0
 40
0
 40
0
 40
0
 40
0
 40
1
 40
1
 40
1
 40
1
 10
13.877868
 20
8.437509
 30
0.0
 10
13.599888
 20
8.855070
 30
0.0
 10
13.267383
 20
9.451500
 30
0.0
 10
13.138969
 20
9.762910
 30
0.0
  0
SPLINE
  5
107
100
AcDbEntity
  8
Layer_1
 62
7
100
AcDbSpline
 70
8
 71
3
 72
8
 73
4
 74
0
 40
0
 40
0
 40
0
 40
0
 40
1
 40
1
 40
1
 40
1
 10
13.138969
 20
9.762910
 30
0.0
 10
13.010554
 20
10.074320
 30
0.0
 10
12.787400
 20
10.708490
 30
0.0
 10
12.643071
 20
11.172170
 30
0.0
  0
SPLINE
  5
108
100
AcDbEntity
  8
Layer_1
 62
7
100
AcDbSpline
 70
8
 71
3
 72
8
 73
4
 74
0
 40
0
 40
0
 40
0
 40
0
 40
1
 40
1
 40
1
 40
1
 10
12.643071
 20
11.172170
 30
0.0
 10
12.498743
 20
11.635860
 30
0.0
 10
12.278669
 20
12.445290
 30
0.0
 10
12.154019
 20
12.970900
 30
0.0
  0
SPLINE
  5
109
100
AcDbEntity
  8
Layer_1
 62
7
100
AcDbSpline
 70
8
 71
3
 72
8
 73
4
 74
0
 40
0
 40
0
 40
0
 40
0
 40
1
 40
1
 40
1
 40
1
 10
12.154019
 20
12.970900
 30
0.0
 10
12.029369
 20
13.496520
 30
0.0
 10
11.888827
 20
14.168280
 30
0.0
 10
11.841704
 20
14.463721
 30
0.0
  0
SPLINE
  5
10a
100
AcDbEntity
  8
Layer_1
 62
7
100
AcDbSpline
 70
8
 71
3
 72
8
 73
4
 74
0
 40
0
 40
0
 40
0
 40
0
 40
1
 40
1
 40
1
 40
1
 10
11.841704
 20
14.463721
 30
0.0
 10
11.794584
 20
14.759161
 30
0.0
 10
11.728499
 20
15.045421
 30
0.0
 10
11.694853
 20
15.099861
 30
0.0
  0
SPLINE
  5
10b
100
AcDbEntity
  8
Layer_1
 62
7
100
AcDbSpline
 70
8
 71
3
 72
8
 73
4
 74
0
 40
0
 40
0
 40
0
 40
0
 40
1
 40
1
 40
1
 40
1
 10
11.694853
 20
15.099861
 30
0.0
 10
11.645443
 20
15.179761
 30
0.0
 10
11.539647
 20
15.181161
 30
0.0
 10
11.144592
 20
15.106861
 30
0.0
  0
SPLINE
  5
10c
100
AcDbEntity
  8
Layer_1
 62
7
100
AcDbSpline
 70
8
 71
3
 72
8
 73
4
 74
0
 40
0
 40
0
 40
0
 40
0
 40
1
 40
1
 40
1
 40
1
 10
11.144592
 20
15.106861
 30
0.0
 10
10.872285
 20
15.055661
 30
0.0
 10
10.045544
 20
15.016361
 30
0.0
 10
9.279356
 20
15.018261
 30
0.0
  0
SPLINE
  5
10d
100
AcDbEntity
  8
Layer_1
 62
7
100
AcDbSpline
 70
8
 71
3
 72
8
 73
4
 74
0
 40
0
 40
0
 40
0
 40
0
 40
1
 40
1
 40
1
 40
1
 10
9.279356
 20
15.018261
 30
0.0
 10
8.146050
 20
15.021261
 30
0.0
 10
7.795280
 20
15.049461
 30
0.0
 10
7.291588
 20
15.179211
 30
0.0
  0
SPLINE
  5
10e
100
AcDbEntity
  8
Layer_1
 62
7
100
AcDbSpline
 70
8
 71
3
 72
8
 73
4
 74
0
 40
0
 40
0
 40
0
 40
0
 40
1
 40
1
 40
1
 40
1
 10
7.291588
 20
15.179211
 30
0.0
 10
6.955196
 20
15.265911
 30
0.0
 10
6.267123
 20
15.544411
 30
0.0
 10
5.762536
 20
15.798151
 30
0.0
  0
SPLINE
  5
10f
100
AcDbEntity
  8
Layer_1
 62
7
100
AcDbSpline
 70
8
 71
3
 72
8
 73
4
 74
0
 40
0
 40
0
 40
0
 40
0
 40
1
 40
1
 40
1
 40
1
 10
5.762536
 20
15.798151
 30
0.0
 10
5.257949
 20
16.051891
 30
0.0
 10
4.550957
 20
16.480111
 30
0.0
 10
4.191443
 20
16.749741
 30
0.0
  0
SPLINE
  5
110
100
AcDbEntity
  8
Layer_1
 62
7
100
AcDbSpline
 70
8
 71
3
 72
8
 73
4
 74
0
 40
0
 40
0
 40
0
 40
0
 40
1
 40
1
 40
1
 40
1
 10
4.191443
 20
16.749741
 30
0.0
 10
3.831929
 20
17.019361
 30
0.0
 10
3.206416
 20
17.585201
 30
0.0
 10
2.801414
 20
18.007161
 30
0.0
  0
SPLINE
  5
111
100
AcDbEntity
  8
Layer_1
 62
7
100
AcDbSpline
 70
8
 71
3
 72
8
 73
4
 74
0
 40
0
 40
0
 40
0
 40
0
 40
1
 40
1
 40
1
 40
1
 10
2.801414
 20
18.007161
 30
0.0
 10
2.396413
 20
18.429111
 30
0.0
 10
1.929787
 20
18.973751
 30
0.0
 10
1.764469
 20
19.217461
 30
0.0
  0
SPLINE
  5
112
100
AcDbEntity
  8
Layer_1
 62
7
100
AcDbSpline
 70
8
 71
3
 72
8
 73
4
 74
0
 40
0
 40
0
 40
0
 40
0
 40
1
 40
1
 40
1
 40
1
 10
1.764469
 20
19.217461
 30
0.0
 10
1.599150
 20
19.461171
 30
0.0
 10
1.351106
 20
19.884201
 30
0.0
 10
1.213260
 20
20.157511
 30
0.0
  0
SPLINE
  5
113
100
AcDbEntity
  8
Layer_1
 62
7
100
AcDbSpline
 70
8
 71
3
 72
8
 73
4
 74
0
 40
0
 40
0
 40
0
 40
0
 40
1
 40
1
 40
1
 40
1
 10
1.213260
 20
20.157511
 30
0.0
 10
1.075413
 20
20.430832
 30
0.0
 10
0.863903
 20
20.939322
 30
0.0
 10
0.743237
 20
21.287482
 30
0.0
  0
SPLINE
  5
114
100
AcDbEntity
  8
Layer_1
 62
7
100
AcDbSpline
 70
8
 71
3
 72
8
 73
4
 74
0
 40
0
 40
0
 40
0
 40
0
 40
1
 40
1
 40
1
 40
1
 10
0.743237
 20
21.287482
 30
0.0
 10
0.622571
 20
21.635642
 30
0.0
 10
0.440972
 20
22.239462
 30
0.0
 10
0.339684
 20
22.629302
 30
0.0
  0
SPLINE
  5
115
100
AcDbEntity
  8
Layer_1
 62
7
100
AcDbSpline
 70
8
 71
3
 72
8
 73
4
 74
0
 40
0
 40
0
 40
0
 40
0
 40
1
 40
1
 40
1
 40
1
 10
0.339684
 20
22.629302
 30
0.0
 10
0.238396
 20
23.019142
 30
0.0
 10
0.114567
 20
23.690402
 30
0.0
 10
0.064508
 20
24.120992
 30
0.0
  0
SPLINE
  5
116
100
AcDbEntity
  8
Layer_1
 62
7
100
AcDbSpline
 70
8
 71
3
 72
8
 73
4
 74
0
 40
0
 40
0
 40
0
 40
0
 40
1
 40
1
 40
1
 40
1
 10
0.064508
 20
24.120992
 30
0.0
 10
0.003508
 20
24.645682
 30
0.0
 10
-0.014112
 20
25.716012
 30
0.0
 10
0.011068
 20
27.366323
 30
0.0
  0
SPLINE
  5
117
100
AcDbEntity
  8
Layer_1
 62
7
100
AcDbSpline
 70
8
 71
3
 72
8
 73
4
 74
0
 40
0
 40
0
 40
0
 40
0
 40
1
 40
1
 40
1
 40
1
 10
0.011068
 20
27.366323
 30
0.0
 10
0.037368
 20
29.089543
 30
0.0
 10
0.085008
 20
30.050983
 30
0.0
 10
0.169761
 20
30.568993
 30
0.0
  0
SPLINE
  5
118
100
AcDbEntity
  8
Layer_1
 62
7
100
AcDbSpline
 70
8
 71
3
 72
8
 73
4
 74
0
 40
0
 40
0
 40
0
 40
0
 40
1
 40
1
 40
1
 40
1
 10
0.169761
 20
30.568993
 30
0.0
 10
0.236371
 20
30.976123
 30
0.0
 10
0.380665
 20
31.664193
 30
0.0
 10
0.490406
 20
32.098044
 30
0.0
  0
SPLINE
  5
119
100
AcDbEntity
  8
Layer_1
 62
7
100
AcDbSpline
 70
8
 71
3
 72
8
 73
4
 74
0
 40
0
 40
0
 40
0
 40
0
 40
1
 40
1
 40
1
 40
1
 10
0.490406
 20
32.098044
 30
0.0
 10
0.600147
 20
32.531904
 30
0.0
 10
0.839323
 20
33.334124
 30
0.0
 10
1.021908
 20
33.880764
 30
0.0
  0
SPLINE
  5
11a
100
AcDbEntity
  8
Layer_1
 62
7
100
AcDbSpline
 70
8
 71
3
 72
8
 73
4
 74
0
 40
0
 40
0
 40
0
 40
0
 40
1
 40
1
 40
1
 40
1
 10
1.021908
 20
33.880764
 30
0.0
 10
1.204493
 20
34.427394
 30
0.0
 10
1.548185
 20
35.303764
 30
0.0
 10
1.785669
 20
35.828244
 30
0.0
  0
SPLINE
  5
11b
100
AcDbEntity
  8
Layer_1
 62
7
100
AcDbSpline
 70
8
 71
3
 72
8
 73
4
 74
0
 40
0
 40
0
 40
0
 40
0
 40
1
 40
1
 40
1
 40
1
 10
1.785669
 20
35.828244
 30
0.0
 10
2.023153
 20
36.352714
 30
0.0
 10
2.410654
 20
37.144004
 30
0.0
 10
2.646783
 20
37.586655
 30
0.0
  0
SPLINE
  5
11c
100
AcDbEntity
  8
Layer_1
 62
7
100
AcDbSpline
 70
8
 71
3
 72
8
 73
4
 74
0
 40
0
 40
0
 40
0
 40
0
 40
1
 40
1
 40
1
 40
1
 10
2.646783
 20
37.586655
 30
0.0
 10
2.882912
 20
38.029295
 30
0.0
 10
3.350910
 20
38.855915
 30
0.0
 10
3.686779
 20
39.423575
 30
0.0
  0
SPLINE
  5
11d
100
AcDbEntity
  8
Layer_1
 62
7
100
AcDbSpline
 70
8
 71
3
 72
8
 73
4
 74
0
 40
0
 40
0
 40
0
 40
0
 40
1
 40
1
 40
1
 40
1
 10
3.686779
 20
39.423575
 30
0.0
 10
4.022647
 20
39.991235
 30
0.0
 10
4.606710
 20
40.920135
 30
0.0
 10
4.984696
 20
41.487796
 30
0.0
  0
SPLINE
  5
11e
100
AcDbEntity
  8
Layer_1
 62
7
100
AcDbSpline
 70
8
 71
3
 72
8
 73
4
 74
0
 40
0
 40
0
 40
0
 40
0
 40
1
 40
1
 40
1
 40
1
 10
4.984696
 20
41.487796
 30
0.0
 10
5.362681
 20
42.055456
 30
0.0
 10
5.952528
 20
42.898346
 30
0.0
 10
6.295465
 20
43.360885
 30
0.0
  0
SPLINE
  5
11f
100
AcDbEntity
  8
Layer_1
 62
7
100
AcDbSpline
 70
8
 71
3
 72
8
 73
4
 74
0
 40
0
 40
0
 40
0
 40
0
 40
1
 40
1
 40
1
 40
1
 10
6.295465
 20
43.360885
 30
0.0
 10
6.638403
 20
43.823424
 30
0.0
 10
7.191725
 20
44.528699
 30
0.0
 10
7.525068
 20
44.928164
 30
0.0
  0
SPLINE
  5
120
100
AcDbEntity
  8
Layer_1
 62
7
100
AcDbSpline
 70
8
 71
3
 72
8
 73
4
 74
0
 40
0
 40
0
 40
0
 40
0
 40
1
 40
1
 40
1
 40
1
 10
7.525068
 20
44.928164
 30
0.0
 10
7.858413
 20
45.327629
 30
0.0
 10
9.157680
 20
46.692292
 30
0.0
 10
10.412328
 20
47.960750
 30
0.0
  0
SPLINE
  5
121
100
AcDbEntity
  8
Layer_1
 62
7
100
AcDbSpline
 70
8
 71
3
 72
8
 73
4
 74
0
 40
0
 40
0
 40
0
 40
0
 40
1
 40
1
 40
1
 40
1
 10
12.572823
 20
51.828629
 30
0.0
 10
12.506443
 20
52.687505
 30
0.0
 10
12.452810
 20
54.006328
 30
0.0
 10
12.453631
 20
54.759348
 30
0.0
  0
SPLINE
  5
122
100
AcDbEntity
  8
Layer_1
 62
7
100
AcDbSpline
 70
8
 71
3
 72
8
 73
4
 74
0
 40
0
 40
0
 40
0
 40
0
 40
1
 40
1
 40
1
 40
1
 10
12.453631
 20
54.759348
 30
0.0
 10
12.454449
 20
55.512366
 30
0.0
 10
12.504581
 20
56.500066
 30
0.0
 10
12.565031
 20
56.954235
 30
0.0
  0
SPLINE
  5
123
100
AcDbEntity
  8
Layer_1
 62
7
100
AcDbSpline
 70
8
 71
3
 72
8
 73
4
 74
0
 40
0
 40
0
 40
0
 40
0
 40
1
 40
1
 40
1
 40
1
 10
12.565031
 20
56.954235
 30
0.0
 10
12.625481
 20
57.408405
 30
0.0
 10
12.764941
 20
58.110364
 30
0.0
 10
12.874943
 20
58.514145
 30
0.0
  0
SPLINE
  5
124
100
AcDbEntity
  8
Layer_1
 62
7
100
AcDbSpline
 70
8
 71
3
 72
8
 73
4
 74
0
 40
0
 40
0
 40
0
 40
0
 40
1
 40
1
 40
1
 40
1
 10
12.874943
 20
58.514145
 30
0.0
 10
12.984946
 20
58.917926
 30
0.0
 10
13.202945
 20
59.544040
 30
0.0
 10
13.359387
 20
59.905508
 30
0.0
  0
SPLINE
  5
125
100
AcDbEntity
  8
Layer_1
 62
7
100
AcDbSpline
 70
8
 71
3
 72
8
 73
4
 74
0
 40
0
 40
0
 40
0
 40
0
 40
1
 40
1
 40
1
 40
1
 10
13.359387
 20
59.905508
 30
0.0
 10
13.515828
 20
60.266977
 30
0.0
 10
13.785346
 20
60.804084
 30
0.0
 10
13.958315
 20
61.099078
 30
0.0
  0
SPLINE
  5
126
100
AcDbEntity
  8
Layer_1
 62
7
100
AcDbSpline
 70
8
 71
3
 72
8
 73
4
 74
0
 40
0
 40
0
 40
0
 40
0
 40
1
 40
1
 40
1
 40
1
 10
13.958315
 20
61.099078
 30
0.0
 10
14.131284
 20
61.394072
 30
0.0
 10
14.469445
 20
61.910128
 30
0.0
 10
14.709783
 20
62.245867
 30
0.0
  0
SPLINE
  5
127
100
AcDbEntity
  8
Layer_1
 62
7
100
AcDbSpline
 70
8
 71
3
 72
8
 73
4
 74
0
 40
0
 40
0
 40
0
 40
0
 40
1
 40
1
 40
1
 40
1
 10
14.709783
 20
62.245867
 30
0.0
 10
14.950122
 20
62.581607
 30
0.0
 10
15.474066
 20
63.247422
 30
0.0
 10
15.874104
 20
63.725456
 30
0.0
  0
LWPOLYLINE
  5
128
100
AcDbEntity
  8
Layer_1
 62
7
100
AcDbPolyline
 90
3
 70
0
 10
10.412328
 20
47.960750
 30
0.0
 10
12.693506
 20
50.267037
 30
0.0
 10
12.572823
 20
51.828629
 30
0.0
  0
SPLINE
  5
129
100
AcDbEntity
  8
Layer_1
 62
7
100
AcDbSpline
 70
8
 71
3
 72
8
 73
4
 74
0
 40
0
 40
0
 40
0
 40
0
 40
1
 40
1
 40
1
 40
1
 10
16.441339
 20
65.866129
 30
0.0
 10
16.353279
 20
66.565466
 30
0.0
 10
16.194113
 20
67.481686
 30
0.0
 10
16.087635
 20
67.902176
 30
0.0
  0
SPLINE
  5
12a
100
AcDbEntity
  8
Layer_1
 62
7
100
AcDbSpline
 70
8
 71
3
 72
8
 73
4
 74
0
 40
0
 40
0
 40
0
 40
0
 40
1
 40
1
 40
1
 40
1
 10
16.087635
 20
67.902176
 30
0.0
 10
15.981156
 20
68.322665
 30
0.0
 10
15.774382
 20
68.910095
 30
0.0
 10
15.628138
 20
69.207576
 30
0.0
  0
SPLINE
  5
12b
100
AcDbEntity
  8
Layer_1
 62
7
100
AcDbSpline
 70
8
 71
3
 72
8
 73
4
 74
0
 40
0
 40
0
 40
0
 40
0
 40
1
 40
1
 40
1
 40
1
 10
15.628138
 20
69.207576
 30
0.0
 10
15.453773
 20
69.562256
 30
0.0
 10
15.216181
 20
69.886584
 30
0.0
 10
14.937963
 20
70.149713
 30
0.0
  0
SPLINE
  5
12c
100
AcDbEntity
  8
Layer_1
 62
7
100
AcDbSpline
 70
8
 71
3
 72
8
 73
4
 74
0
 40
0
 40
0
 40
0
 40
0
 40
1
 40
1
 40
1
 40
1
 10
14.937963
 20
70.149713
 30
0.0
 10
14.682336
 20
70.391473
 30
0.0
 10
14.292086
 20
70.653360
 30
0.0
 10
13.956199
 20
70.808550
 30
0.0
  0
SPLINE
  5
12d
100
AcDbEntity
  8
Layer_1
 62
7
100
AcDbSpline
 70
8
 71
3
 72
8
 73
4
 74
0
 40
0
 40
0
 40
0
 40
0
 40
1
 40
1
 40
1
 40
1
 10
13.956199
 20
70.808550
 30
0.0
 10
13.649580
 20
70.950216
 30
0.0
 10
13.056718
 20
71.134728
 30
0.0
 10
12.638727
 20
71.218577
 30
0.0
  0
SPLINE
  5
12e
100
AcDbEntity
  8
Layer_1
 62
7
100
AcDbSpline
 70
8
 71
3
 72
8
 73
4
 74
0
 40
0
 40
0
 40
0
 40
0
 40
1
 40
1
 40
1
 40
1
 10
12.638727
 20
71.218577
 30
0.0
 10
12.220736
 20
71.302427
 30
0.0
 10
11.362689
 20
71.428606
 30
0.0
 10
10.731955
 20
71.498978
 30
0.0
  0
SPLINE
  5
12f
100
AcDbEntity
  8
Layer_1
 62
7
100
AcDbSpline
 70
8
 71
3
 72
8
 73
4
 74
0
 40
0
 40
0
 40
0
 40
0
 40
1
 40
1
 40
1
 40
1
 10
10.731955
 20
71.498978
 30
0.0
 10
10.101221
 20
71.569348
 30
0.0
 10
9.455589
 20
71.678713
 30
0.0
 10
9.297219
 20
71.742007
 30
0.0
  0
SPLINE
  5
130
100
AcDbEntity
  8
Layer_1
 62
7
100
AcDbSpline
 70
8
 71
3
 72
8
 73
4
 74
0
 40
0
 40
0
 40
0
 40
0
 40
1
 40
1
 40
1
 40
1
 10
9.297219
 20
71.742007
 30
0.0
 10
9.138848
 20
71.805297
 30
0.0
 10
8.876232
 20
72.008229
 30
0.0
 10
8.713628
 20
72.192958
 30
0.0
  0
SPLINE
  5
131
100
AcDbEntity
  8
Layer_1
 62
7
100
AcDbSpline
 70
8
 71
3
 72
8
 73
4
 74
0
 40
0
 40
0
 40
0
 40
0
 40
1
 40
1
 40
1
 40
1
 10
8.713628
 20
72.192958
 30
0.0
 10
8.540271
 20
72.389900
 30
0.0
 10
8.382265
 20
72.670673
 30
0.0
 10
8.331633
 20
72.871751
 30
0.0
  0
SPLINE
  5
132
100
AcDbEntity
  8
Layer_1
 62
7
100
AcDbSpline
 70
8
 71
3
 72
8
 73
4
 74
0
 40
0
 40
0
 40
0
 40
0
 40
1
 40
1
 40
1
 40
1
 10
8.331633
 20
72.871751
 30
0.0
 10
8.284143
 20
73.060359
 30
0.0
 10
8.267893
 20
73.356048
 30
0.0
 10
8.295523
 20
73.528838
 30
0.0
  0
SPLINE
  5
133
100
AcDbEntity
  8
Layer_1
 62
7
100
AcDbSpline
 70
8
 71
3
 72
8
 73
4
 74
0
 40
0
 40
0
 40
0
 40
0
 40
1
 40
1
 40
1
 40
1
 10
8.295523
 20
73.528838
 30
0.0
 10
8.323153
 20
73.701629
 30
0.0
 10
8.452608
 20
74.000915
 30
0.0
 10
8.583200
 20
74.193920
 30
0.0
  0
SPLINE
  5
134
100
AcDbEntity
  8
Layer_1
 62
7
100
AcDbSpline
 70
8
 71
3
 72
8
 73
4
 74
0
 40
0
 40
0
 40
0
 40
0
 40
1
 40
1
 40
1
 40
1
 10
8.583200
 20
74.193920
 30
0.0
 10
8.724526
 20
74.402785
 30
0.0
 10
8.959909
 20
74.619258
 30
0.0
 10
9.164679
 20
74.728681
 30
0.0
  0
SPLINE
  5
135
100
AcDbEntity
  8
Layer_1
 62
7
100
AcDbSpline
 70
8
 71
3
 72
8
 73
4
 74
0
 40
0
 40
0
 40
0
 40
0
 40
1
 40
1
 40
1
 40
1
 10
9.164679
 20
74.728681
 30
0.0
 10
9.479867
 20
74.897109
 30
0.0
 10
9.569617
 20
74.908982
 30
0.0
 10
10.235015
 20
74.870269
 30
0.0
  0
SPLINE
  5
136
100
AcDbEntity
  8
Layer_1
 62
7
100
AcDbSpline
 70
8
 71
3
 72
8
 73
4
 74
0
 40
0
 40
0
 40
0
 40
0
 40
1
 40
1
 40
1
 40
1
 10
10.235015
 20
74.870269
 30
0.0
 10
10.634480
 20
74.847029
 30
0.0
 10
11.339755
 20
74.772889
 30
0.0
 10
11.802293
 20
74.705509
 30
0.0
  0
SPLINE
  5
137
100
AcDbEntity
  8
Layer_1
 62
7
100
AcDbSpline
 70
8
 71
3
 72
8
 73
4
 74
0
 40
0
 40
0
 40
0
 40
0
 40
1
 40
1
 40
1
 40
1
 10
11.802293
 20
74.705509
 30
0.0
 10
12.264831
 20
74.638129
 30
0.0
 10
13.038914
 20
74.479419
 30
0.0
 10
13.522477
 20
74.352812
 30
0.0
  0
SPLINE
  5
138
100
AcDbEntity
  8
Layer_1
 62
7
100
AcDbSpline
 70
8
 71
3
 72
8
 73
4
 74
0
 40
0
 40
0
 40
0
 40
0
 40
1
 40
1
 40
1
 40
1
 10
13.522477
 20
74.352812
 30
0.0
 10
14.006039
 20
74.226206
 30
0.0
 10
14.715534
 20
73.974411
 30
0.0
 10
15.099130
 20
73.793267
 30
0.0
  0
SPLINE
  5
139
100
AcDbEntity
  8
Layer_1
 62
7
100
AcDbSpline
 70
8
 71
3
 72
8
 73
4
 74
0
 40
0
 40
0
 40
0
 40
0
 40
1
 40
1
 40
1
 40
1
 10
15.099130
 20
73.793267
 30
0.0
 10
15.482725
 20
73.612124
 30
0.0
 10
16.005420
 20
73.322093
 30
0.0
 10
16.260673
 20
73.148754
 30
0.0
  0
SPLINE
  5
13a
100
AcDbEntity
  8
Layer_1
 62
7
100
AcDbSpline
 70
8
 71
3
 72
8
 73
4
 74
0
 40
0
 40
0
 40
0
 40
0
 40
1
 40
1
 40
1
 40
1
 10
16.260673
 20
73.148754
 30
0.0
 10
16.515926
 20
72.975415
 30
0.0
 10
16.950405
 20
72.607957
 30
0.0
 10
17.226181
 20
72.332180
 30
0.0
  0
SPLINE
  5
13b
100
AcDbEntity
  8
Layer_1
 62
7
100
AcDbSpline
 70
8
 71
3
 72
8
 73
4
 74
0
 40
0
 40
0
 40
0
 40
0
 40
1
 40
1
 40
1
 40
1
 10
17.226181
 20
72.332180
 30
0.0
 10
17.501958
 20
72.056404
 30
0.0
 10
17.860518
 20
71.634908
 30
0.0
 10
18.022982
 20
71.395524
 30
0.0
  0
SPLINE
  5
13c
100
AcDbEntity
  8
Layer_1
 62
7
100
AcDbSpline
 70
8
 71
3
 72
8
 73
4
 74
0
 40
0
 40
0
 40
0
 40
0
 40
1
 40
1
 40
1
 40
1
 10
18.022982
 20
71.395524
 30
0.0
 10
18.185446
 20
71.156140
 30
0.0
 10
18.456540
 20
70.685050
 30
0.0
 10
18.625412
 20
70.348659
 30
0.0
  0
SPLINE
  5
13d
100
AcDbEntity
  8
Layer_1
 62
7
100
AcDbSpline
 70
8
 71
3
 72
8
 73
4
 74
0
 40
0
 40
0
 40
0
 40
0
 40
1
 40
1
 40
1
 40
1
 10
18.625412
 20
70.348659
 30
0.0
 10
18.794284
 20
70.012268
 30
0.0
 10
19.018500
 20
69.461809
 30
0.0
 10
19.123669
 20
69.125417
 30
0.0
  0
SPLINE
  5
13e
100
AcDbEntity
  8
Layer_1
 62
7
100
AcDbSpline
 70
8
 71
3
 72
8
 73
4
 74
0
 40
0
 40
0
 40
0
 40
0
 40
1
 40
1
 40
1
 40
1
 10
19.123669
 20
69.125417
 30
0.0
 10
19.228839
 20
68.789026
 30
0.0
 10
19.390565
 20
68.178361
 30
0.0
 10
19.483062
 20
67.768384
 30
0.0
  0
SPLINE
  5
13f
100
AcDbEntity
  8
Layer_1
 62
7
100
AcDbSpline
 70
8
 71
3
 72
8
 73
4
 74
0
 40
0
 40
0
 40
0
 40
0
 40
1
 40
1
 40
1
 40
1
 10
19.483062
 20
67.768384
 30
0.0
 10
19.597254
 20
67.262246
 30
0.0
 10
19.685459
 20
67.022971
 30
0.0
 10
19.757846
 20
67.022971
 30
0.0
  0
SPLINE
  5
140
100
AcDbEntity
  8
Layer_1
 62
7
100
AcDbSpline
 70
8
 71
3
 72
8
 73
4
 74
0
 40
0
 40
0
 40
0
 40
0
 40
1
 40
1
 40
1
 40
1
 10
19.757846
 20
67.022971
 30
0.0
 10
19.816486
 20
67.022971
 30
0.0
 10
20.200699
 20
67.149154
 30
0.0
 10
20.611663
 20
67.303378
 30
0.0
  0
SPLINE
  5
141
100
AcDbEntity
  8
Layer_1
 62
7
100
AcDbSpline
 70
8
 71
3
 72
8
 73
4
 74
0
 40
0
 40
0
 40
0
 40
0
 40
1
 40
1
 40
1
 40
1
 10
20.611663
 20
67.303378
 30
0.0
 10
21.022627
 20
67.457602
 30
0.0
 10
21.683513
 20
67.681469
 30
0.0
 10
22.080298
 20
67.800859
 30
0.0
  0
SPLINE
  5
142
100
AcDbEntity
  8
Layer_1
 62
7
100
AcDbSpline
 70
8
 71
3
 72
8
 73
4
 74
0
 40
0
 40
0
 40
0
 40
0
 40
1
 40
1
 40
1
 40
1
 10
22.080298
 20
67.800859
 30
0.0
 10
22.477083
 20
67.920249
 30
0.0
 10
22.878129
 20
68.067993
 30
0.0
 10
22.971511
 20
68.129179
 30
0.0
  0
SPLINE
  5
143
100
AcDbEntity
  8
Layer_1
 62
7
100
AcDbSpline
 70
8
 71
3
 72
8
 73
4
 74
0
 40
0
 40
0
 40
0
 40
0
 40
1
 40
1
 40
1
 40
1
 10
22.971511
 20
68.129179
 30
0.0
 10
23.064891
 20
68.190369
 30
0.0
 10
23.199218
 20
68.414814
 30
0.0
 10
23.270012
 20
68.627955
 30
0.0
  0
SPLINE
  5
144
100
AcDbEntity
  8
Layer_1
 62
7
100
AcDbSpline
 70
8
 71
3
 72
8
 73
4
 74
0
 40
0
 40
0
 40
0
 40
0
 40
1
 40
1
 40
1
 40
1
 10
23.270012
 20
68.627955
 30
0.0
 10
23.340802
 20
68.841096
 30
0.0
 10
23.485946
 20
69.119136
 30
0.0
 10
23.592545
 20
69.245821
 30
0.0
  0
SPLINE
  5
145
100
AcDbEntity
  8
Layer_1
 62
7
100
AcDbSpline
 70
8
 71
3
 72
8
 73
4
 74
0
 40
0
 40
0
 40
0
 40
0
 40
1
 40
1
 40
1
 40
1
 10
23.592545
 20
69.245821
 30
0.0
 10
23.699144
 20
69.372507
 30
0.0
 10
23.922001
 20
69.545357
 30
0.0
 10
24.087783
 20
69.629933
 30
0.0
  0
SPLINE
  5
146
100
AcDbEntity
  8
Layer_1
 62
7
100
AcDbSpline
 70
8
 71
3
 72
8
 73
4
 74
0
 40
0
 40
0
 40
0
 40
0
 40
1
 40
1
 40
1
 40
1
 10
24.087783
 20
69.629933
 30
0.0
 10
24.253565
 20
69.714513
 30
0.0
 10
24.557629
 20
69.803654
 30
0.0
 10
24.763479
 20
69.828034
 30
0.0
  0
SPLINE
  5
147
100
AcDbEntity
  8
Layer_1
 62
7
100
AcDbSpline
 70
8
 71
3
 72
8
 73
4
 74
0
 40
0
 40
0
 40
0
 40
0
 40
1
 40
1
 40
1
 40
1
 10
24.763479
 20
69.828034
 30
0.0
 10
25.072622
 20
69.864644
 30
0.0
 10
25.211862
 20
69.836134
 30
0.0
 10
25.563621
 20
69.664004
 30
0.0
  0
SPLINE
  5
148
100
AcDbEntity
  8
Layer_1
 62
7
100
AcDbSpline
 70
8
 71
3
 72
8
 73
4
 74
0
 40
0
 40
0
 40
0
 40
0
 40
1
 40
1
 40
1
 40
1
 10
25.563621
 20
69.664004
 30
0.0
 10
25.881710
 20
69.508377
 30
0.0
 10
26.056548
 20
69.356071
 30
0.0
 10
26.254456
 20
69.062194
 30
0.0
  0
SPLINE
  5
149
100
AcDbEntity
  8
Layer_1
 62
7
100
AcDbSpline
 70
8
 71
3
 72
8
 73
4
 74
0
 40
0
 40
0
 40
0
 40
0
 40
1
 40
1
 40
1
 40
1
 10
26.254456
 20
69.062194
 30
0.0
 10
26.400187
 20
68.845796
 30
0.0
 10
26.519422
 20
68.612717
 30
0.0
 10
26.519422
 20
68.544240
 30
0.0
  0
SPLINE
  5
14a
100
AcDbEntity
  8
Layer_1
 62
7
100
AcDbSpline
 70
8
 71
3
 72
8
 73
4
 74
0
 40
0
 40
0
 40
0
 40
0
 40
1
 40
1
 40
1
 40
1
 10
26.519422
 20
68.544240
 30
0.0
 10
26.519422
 20
68.475760
 30
0.0
 10
26.588652
 20
68.331731
 30
0.0
 10
26.673259
 20
68.224166
 30
0.0
  0
SPLINE
  5
14b
100
AcDbEntity
  8
Layer_1
 62
7
100
AcDbSpline
 70
8
 71
3
 72
8
 73
4
 74
0
 40
0
 40
0
 40
0
 40
0
 40
1
 40
1
 40
1
 40
1
 10
26.673259
 20
68.224166
 30
0.0
 10
26.757869
 20
68.116602
 30
0.0
 10
26.938488
 20
68.004673
 30
0.0
 10
27.074635
 20
67.975435
 30
0.0
  0
SPLINE
  5
14c
100
AcDbEntity
  8
Layer_1
 62
7
100
AcDbSpline
 70
8
 71
3
 72
8
 73
4
 74
0
 40
0
 40
0
 40
0
 40
0
 40
1
 40
1
 40
1
 40
1
 10
27.074635
 20
67.975435
 30
0.0
 10
27.210781
 20
67.946195
 30
0.0
 10
27.934764
 20
67.716124
 30
0.0
 10
28.683484
 20
67.464160
 30
0.0
  0
SPLINE
  5
14d
100
AcDbEntity
  8
Layer_1
 62
7
100
AcDbSpline
 70
8
 71
3
 72
8
 73
4
 74
0
 40
0
 40
0
 40
0
 40
0
 40
1
 40
1
 40
1
 40
1
 10
28.683484
 20
67.464160
 30
0.0
 10
29.432204
 20
67.212195
 30
0.0
 10
30.058654
 20
67.019897
 30
0.0
 10
30.075584
 20
67.036831
 30
0.0
  0
SPLINE
  5
14e
100
AcDbEntity
  8
Layer_1
 62
7
100
AcDbSpline
 70
8
 71
3
 72
8
 73
4
 74
0
 40
0
 40
0
 40
0
 40
0
 40
1
 40
1
 40
1
 40
1
 10
30.075584
 20
67.036831
 30
0.0
 10
30.092484
 20
67.053761
 30
0.0
 10
30.230654
 20
67.558172
 30
0.0
 10
30.382554
 20
68.157739
 30
0.0
  0
SPLINE
  5
14f
100
AcDbEntity
  8
Layer_1
 62
7
100
AcDbSpline
 70
8
 71
3
 72
8
 73
4
 74
0
 40
0
 40
0
 40
0
 40
0
 40
1
 40
1
 40
1
 40
1
 10
30.382554
 20
68.157739
 30
0.0
 10
30.534454
 20
68.757306
 30
0.0
 10
30.773764
 20
69.533189
 30
0.0
 10
30.914354
 20
69.881924
 30
0.0
  0
SPLINE
  5
150
100
AcDbEntity
  8
Layer_1
 62
7
100
AcDbSpline
 70
8
 71
3
 72
8
 73
4
 74
0
 40
0
 40
0
 40
0
 40
0
 40
1
 40
1
 40
1
 40
1
 10
30.914354
 20
69.881924
 30
0.0
 10
31.054944
 20
70.230659
 30
0.0
 10
31.319134
 20
70.768713
 30
0.0
 10
31.501424
 20
71.077599
 30
0.0
  0
SPLINE
  5
151
100
AcDbEntity
  8
Layer_1
 62
7
100
AcDbSpline
 70
8
 71
3
 72
8
 73
4
 74
0
 40
0
 40
0
 40
0
 40
0
 40
1
 40
1
 40
1
 40
1
 10
31.501424
 20
71.077599
 30
0.0
 10
31.683724
 20
71.386486
 30
0.0
 10
32.108105
 20
71.918207
 30
0.0
 10
32.444495
 20
72.259203
 30
0.0
  0
SPLINE
  5
152
100
AcDbEntity
  8
Layer_1
 62
7
100
AcDbSpline
 70
8
 71
3
 72
8
 73
4
 74
0
 40
0
 40
0
 40
0
 40
0
 40
1
 40
1
 40
1
 40
1
 10
32.444495
 20
72.259203
 30
0.0
 10
32.780885
 20
72.600199
 30
0.0
 10
33.320895
 20
73.043307
 30
0.0
 10
33.644505
 20
73.243888
 30
0.0
  0
SPLINE
  5
153
100
AcDbEntity
  8
Layer_1
 62
7
100
AcDbSpline
 70
8
 71
3
 72
8
 73
4
 74
0
 40
0
 40
0
 40
0
 40
0
 40
1
 40
1
 40
1
 40
1
 10
33.644505
 20
73.243888
 30
0.0
 10
33.968115
 20
73.444469
 30
0.0
 10
34.518575
 20
73.729323
 30
0.0
 10
34.867745
 20
73.876898
 30
0.0
  0
SPLINE
  5
154
100
AcDbEntity
  8
Layer_1
 62
7
100
AcDbSpline
 70
8
 71
3
 72
8
 73
4
 74
0
 40
0
 40
0
 40
0
 40
0
 40
1
 40
1
 40
1
 40
1
 10
34.867745
 20
73.876898
 30
0.0
 10
35.216915
 20
74.024472
 30
0.0
 10
35.812235
 20
74.228822
 30
0.0
 10
36.190675
 20
74.331010
 30
0.0
  0
SPLINE
  5
155
100
AcDbEntity
  8
Layer_1
 62
7
100
AcDbSpline
 70
8
 71
3
 72
8
 73
4
 74
0
 40
0
 40
0
 40
0
 40
0
 40
1
 40
1
 40
1
 40
1
 10
36.190675
 20
74.331010
 30
0.0
 10
36.569115
 20
74.433198
 30
0.0
 10
37.266555
 20
74.584640
 30
0.0
 10
37.740546
 20
74.667548
 30
0.0
  0
SPLINE
  5
156
100
AcDbEntity
  8
Layer_1
 62
7
100
AcDbSpline
 70
8
 71
3
 72
8
 73
4
 74
0
 40
0
 40
0
 40
0
 40
0
 40
1
 40
1
 40
1
 40
1
 10
37.740546
 20
74.667548
 30
0.0
 10
38.214536
 20
74.750458
 30
0.0
 10
38.927526
 20
74.841149
 30
0.0
 10
39.324956
 20
74.869085
 30
0.0
  0
SPLINE
  5
157
100
AcDbEntity
  8
Layer_1
 62
7
100
AcDbSpline
 70
8
 71
3
 72
8
 73
4
 74
0
 40
0
 40
0
 40
0
 40
0
 40
1
 40
1
 40
1
 40
1
 10
39.324956
 20
74.869085
 30
0.0
 10
39.909956
 20
74.910205
 30
0.0
 10
40.112306
 20
74.895155
 30
0.0
 10
40.387556
 20
74.790035
 30
0.0
  0
SPLINE
  5
158
100
AcDbEntity
  8
Layer_1
 62
7
100
AcDbSpline
 70
8
 71
3
 72
8
 73
4
 74
0
 40
0
 40
0
 40
0
 40
0
 40
1
 40
1
 40
1
 40
1
 10
40.387556
 20
74.790035
 30
0.0
 10
40.579556
 20
74.716705
 30
0.0
 10
40.862146
 20
74.514161
 30
0.0
 10
41.036796
 20
74.324694
 30
0.0
  0
SPLINE
  5
159
100
AcDbEntity
  8
Layer_1
 62
7
100
AcDbSpline
 70
8
 71
3
 72
8
 73
4
 74
0
 40
0
 40
0
 40
0
 40
0
 40
1
 40
1
 40
1
 40
1
 10
41.036796
 20
74.324694
 30
0.0
 10
41.206886
 20
74.140170
 30
0.0
 10
41.368266
 20
73.900656
 30
0.0
 10
41.395426
 20
73.792441
 30
0.0
  0
SPLINE
  5
15a
100
AcDbEntity
  8
Layer_1
 62
7
100
AcDbSpline
 70
8
 71
3
 72
8
 73
4
 74
0
 40
0
 40
0
 40
0
 40
0
 40
1
 40
1
 40
1
 40
1
 10
41.395426
 20
73.792441
 30
0.0
 10
41.422626
 20
73.684227
 30
0.0
 10
41.431726
 20
73.363465
 30
0.0
 10
41.415626
 20
73.079639
 30
0.0
  0
SPLINE
  5
15b
100
AcDbEntity
  8
Layer_1
 62
7
100
AcDbSpline
 70
8
 71
3
 72
8
 73
4
 74
0
 40
0
 40
0
 40
0
 40
0
 40
1
 40
1
 40
1
 40
1
 10
41.415626
 20
73.079639
 30
0.0
 10
41.391826
 20
72.657477
 30
0.0
 10
41.347126
 20
72.511972
 30
0.0
 10
41.170066
 20
72.279878
 30
0.0
  0
SPLINE
  5
15c
100
AcDbEntity
  8
Layer_1
 62
7
100
AcDbSpline
 70
8
 71
3
 72
8
 73
4
 74
0
 40
0
 40
0
 40
0
 40
0
 40
1
 40
1
 40
1
 40
1
 10
41.170066
 20
72.279878
 30
0.0
 10
41.050526
 20
72.123141
 30
0.0
 10
40.777456
 20
71.911368
 30
0.0
 10
40.559936
 20
71.806695
 30
0.0
  0
SPLINE
  5
15d
100
AcDbEntity
  8
Layer_1
 62
7
100
AcDbSpline
 70
8
 71
3
 72
8
 73
4
 74
0
 40
0
 40
0
 40
0
 40
0
 40
1
 40
1
 40
1
 40
1
 10
40.559936
 20
71.806695
 30
0.0
 10
40.255506
 20
71.660205
 30
0.0
 10
39.907116
 20
71.589422
 30
0.0
 10
39.024076
 20
71.494656
 30
0.0
  0
SPLINE
  5
15e
100
AcDbEntity
  8
Layer_1
 62
7
100
AcDbSpline
 70
8
 71
3
 72
8
 73
4
 74
0
 40
0
 40
0
 40
0
 40
0
 40
1
 40
1
 40
1
 40
1
 10
39.024076
 20
71.494656
 30
0.0
 10
38.395906
 20
71.427246
 30
0.0
 10
37.616646
 20
71.321756
 30
0.0
 10
37.292365
 20
71.260243
 30
0.0
  0
SPLINE
  5
15f
100
AcDbEntity
  8
Layer_1
 62
7
100
AcDbSpline
 70
8
 71
3
 72
8
 73
4
 74
0
 40
0
 40
0
 40
0
 40
0
 40
1
 40
1
 40
1
 40
1
 10
37.292365
 20
71.260243
 30
0.0
 10
36.968095
 20
71.198733
 30
0.0
 10
36.517975
 20
71.084816
 30
0.0
 10
36.292095
 20
71.007103
 30
0.0
  0
SPLINE
  5
160
100
AcDbEntity
  8
Layer_1
 62
7
100
AcDbSpline
 70
8
 71
3
 72
8
 73
4
 74
0
 40
0
 40
0
 40
0
 40
0
 40
1
 40
1
 40
1
 40
1
 10
36.292095
 20
71.007103
 30
0.0
 10
36.066215
 20
70.929393
 30
0.0
 10
35.702825
 20
70.775314
 30
0.0
 10
35.484575
 20
70.664713
 30
0.0
  0
SPLINE
  5
161
100
AcDbEntity
  8
Layer_1
 62
7
100
AcDbSpline
 70
8
 71
3
 72
8
 73
4
 74
0
 40
0
 40
0
 40
0
 40
0
 40
1
 40
1
 40
1
 40
1
 10
35.484575
 20
70.664713
 30
0.0
 10
35.266315
 20
70.554113
 30
0.0
 10
34.960015
 20
70.351745
 30
0.0
 10
34.803925
 20
70.215008
 30
0.0
  0
SPLINE
  5
162
100
AcDbEntity
  8
Layer_1
 62
7
100
AcDbSpline
 70
8
 71
3
 72
8
 73
4
 74
0
 40
0
 40
0
 40
0
 40
0
 40
1
 40
1
 40
1
 40
1
 10
34.803925
 20
70.215008
 30
0.0
 10
34.647825
 20
70.078271
 30
0.0
 10
34.424155
 20
69.815377
 30
0.0
 10
34.306885
 20
69.630799
 30
0.0
  0
SPLINE
  5
163
100
AcDbEntity
  8
Layer_1
 62
7
100
AcDbSpline
 70
8
 71
3
 72
8
 73
4
 74
0
 40
0
 40
0
 40
0
 40
0
 40
1
 40
1
 40
1
 40
1
 10
34.306885
 20
69.630799
 30
0.0
 10
34.189605
 20
69.446222
 30
0.0
 10
34.007675
 20
69.033377
 30
0.0
 10
33.902595
 20
68.713368
 30
0.0
  0
SPLINE
  5
164
100
AcDbEntity
  8
Layer_1
 62
7
100
AcDbSpline
 70
8
 71
3
 72
8
 73
4
 74
0
 40
0
 40
0
 40
0
 40
0
 40
1
 40
1
 40
1
 40
1
 10
33.902595
 20
68.713368
 30
0.0
 10
33.797515
 20
68.393358
 30
0.0
 10
33.642745
 20
67.787496
 30
0.0
 10
33.558655
 20
67.367006
 30
0.0
  0
SPLINE
  5
165
100
AcDbEntity
  8
Layer_1
 62
7
100
AcDbSpline
 70
8
 71
3
 72
8
 73
4
 74
0
 40
0
 40
0
 40
0
 40
0
 40
1
 40
1
 40
1
 40
1
 10
33.558655
 20
67.367006
 30
0.0
 10
33.474555
 20
66.946517
 30
0.0
 10
33.351695
 20
66.162489
 30
0.0
 10
33.285605
 20
65.624723
 30
0.0
  0
SPLINE
  5
166
100
AcDbEntity
  8
Layer_1
 62
7
100
AcDbSpline
 70
8
 71
3
 72
8
 73
4
 74
0
 40
0
 40
0
 40
0
 40
0
 40
1
 40
1
 40
1
 40
1
 10
33.285605
 20
65.624723
 30
0.0
 10
33.219505
 20
65.086958
 30
0.0
 10
33.190905
 20
64.605306
 30
0.0
 10
33.221905
 20
64.554387
 30
0.0
  0
SPLINE
  5
167
100
AcDbEntity
  8
Layer_1
 62
7
100
AcDbSpline
 70
8
 71
3
 72
8
 73
4
 74
0
 40
0
 40
0
 40
0
 40
0
 40
1
 40
1
 40
1
 40
1
 10
33.221905
 20
64.554387
 30
0.0
 10
33.253005
 20
64.503467
 30
0.0
 10
33.522085
 20
64.169375
 30
0.0
 10
33.819975
 20
63.811959
 30
0.0
  0
SPLINE
  5
168
100
AcDbEntity
  8
Layer_1
 62
7
100
AcDbSpline
 70
8
 71
3
 72
8
 73
4
 74
0
 40
0
 40
0
 40
0
 40
0
 40
1
 40
1
 40
1
 40
1
 10
33.819975
 20
63.811959
 30
0.0
 10
34.117855
 20
63.454543
 30
0.0
 10
34.536865
 20
62.921286
 30
0.0
 10
34.751095
 20
62.626944
 30
0.0
  0
SPLINE
  5
169
100
AcDbEntity
  8
Layer_1
 62
7
100
AcDbSpline
 70
8
 71
3
 72
8
 73
4
 74
0
 40
0
 40
0
 40
0
 40
0
 40
1
 40
1
 40
1
 40
1
 10
34.751095
 20
62.626944
 30
0.0
 10
34.965335
 20
62.332601
 30
0.0
 10
35.302265
 20
61.840594
 30
0.0
 10
35.499845
 20
61.533596
 30
0.0
  0
SPLINE
  5
16a
100
AcDbEntity
  8
Layer_1
 62
7
100
AcDbSpline
 70
8
 71
3
 72
8
 73
4
 74
0
 40
0
 40
0
 40
0
 40
0
 40
1
 40
1
 40
1
 40
1
 10
35.499845
 20
61.533596
 30
0.0
 10
35.697415
 20
61.226597
 30
0.0
 10
36.061555
 20
60.555726
 30
0.0
 10
36.309045
 20
60.042769
 30
0.0
  0
SPLINE
  5
16b
100
AcDbEntity
  8
Layer_1
 62
7
100
AcDbSpline
 70
8
 71
3
 72
8
 73
4
 74
0
 40
0
 40
0
 40
0
 40
0
 40
1
 40
1
 40
1
 40
1
 10
36.309045
 20
60.042769
 30
0.0
 10
36.556525
 20
59.529813
 30
0.0
 10
36.844875
 20
58.783288
 30
0.0
 10
36.949805
 20
58.383823
 30
0.0
  0
SPLINE
  5
16c
100
AcDbEntity
  8
Layer_1
 62
7
100
AcDbSpline
 70
8
 71
3
 72
8
 73
4
 74
0
 40
0
 40
0
 40
0
 40
0
 40
1
 40
1
 40
1
 40
1
 10
36.949805
 20
58.383823
 30
0.0
 10
37.054745
 20
57.984358
 30
0.0
 10
37.180255
 20
57.347890
 30
0.0
 10
37.228725
 20
56.969450
 30
0.0
  0
SPLINE
  5
16d
100
AcDbEntity
  8
Layer_1
 62
7
100
AcDbSpline
 70
8
 71
3
 72
8
 73
4
 74
0
 40
0
 40
0
 40
0
 40
0
 40
1
 40
1
 40
1
 40
1
 10
37.228725
 20
56.969450
 30
0.0
 10
37.277225
 20
56.591010
 30
0.0
 10
37.318425
 20
55.610505
 30
0.0
 10
37.320325
 20
54.790551
 30
0.0
  0
SPLINE
  5
16e
100
AcDbEntity
  8
Layer_1
 62
7
100
AcDbSpline
 70
8
 71
3
 72
8
 73
4
 74
0
 40
0
 40
0
 40
0
 40
0
 40
1
 40
1
 40
1
 40
1
 10
37.320325
 20
54.790551
 30
0.0
 10
37.322325
 20
53.962678
 30
0.0
 10
37.264125
 20
52.625237
 30
0.0
 10
37.189475
 20
51.782964
 30
0.0
  0
LWPOLYLINE
  5
16f
100
AcDbEntity
  8
Layer_1
 62
7
100
AcDbPolyline
 90
3
 70
0
 10
15.874104
 20
63.725456
 30
0.0
 10
16.601446
 20
64.594610
 30
0.0
 10
16.441339
 20
65.866129
 30
0.0
  0
SPLINE
  5
170
100
AcDbEntity
  8
Layer_1
 62
7
100
AcDbSpline
 70
8
 71
3
 72
8
 73
4
 74
0
 40
0
 40
0
 40
0
 40
0
 40
1
 40
1
 40
1
 40
1
 10
39.303086
 20
47.998559
 30
0.0
 10
40.539466
 20
46.751355
 30
0.0
 10
41.879436
 20
45.335273
 30
0.0
 10
42.280806
 20
44.851710
 30
0.0
  0
SPLINE
  5
171
100
AcDbEntity
  8
Layer_1
 62
7
100
AcDbSpline
 70
8
 71
3
 72
8
 73
4
 74
0
 40
0
 40
0
 40
0
 40
0
 40
1
 40
1
 40
1
 40
1
 10
42.280806
 20
44.851710
 30
0.0
 10
42.682176
 20
44.368147
 30
0.0
 10
43.250308
 20
43.645670
 30
0.0
 10
43.543328
 20
43.246205
 30
0.0
  0
SPLINE
  5
172
100
AcDbEntity
  8
Layer_1
 62
7
100
AcDbSpline
 70
8
 71
3
 72
8
 73
4
 74
0
 40
0
 40
0
 40
0
 40
0
 40
1
 40
1
 40
1
 40
1
 10
43.543328
 20
43.246205
 30
0.0
 10
43.836338
 20
42.846740
 30
0.0
 10
44.370308
 20
42.089859
 30
0.0
 10
44.729928
 20
41.564247
 30
0.0
  0
SPLINE
  5
173
100
AcDbEntity
  8
Layer_1
 62
7
100
AcDbSpline
 70
8
 71
3
 72
8
 73
4
 74
0
 40
0
 40
0
 40
0
 40
0
 40
1
 40
1
 40
1
 40
1
 10
44.729928
 20
41.564247
 30
0.0
 10
45.089538
 20
41.038635
 30
0.0
 10
45.684408
 20
40.109735
 30
0.0
 10
46.051868
 20
39.500025
 30
0.0
  0
SPLINE
  5
174
100
AcDbEntity
  8
Layer_1
 62
7
100
AcDbSpline
 70
8
 71
3
 72
8
 73
4
 74
0
 40
0
 40
0
 40
0
 40
0
 40
1
 40
1
 40
1
 40
1
 10
46.051868
 20
39.500025
 30
0.0
 10
46.419318
 20
38.890315
 30
0.0
 10
47.039938
 20
37.737795
 30
0.0
 10
47.431008
 20
36.938864
 30
0.0
  0
SPLINE
  5
175
100
AcDbEntity
  8
Layer_1
 62
7
100
AcDbSpline
 70
8
 71
3
 72
8
 73
4
 74
0
 40
0
 40
0
 40
0
 40
0
 40
1
 40
1
 40
1
 40
1
 10
47.431008
 20
36.938864
 30
0.0
 10
47.822088
 20
36.139934
 30
0.0
 10
48.295478
 20
35.073424
 30
0.0
 10
48.482988
 20
34.568834
 30
0.0
  0
SPLINE
  5
176
100
AcDbEntity
  8
Layer_1
 62
7
100
AcDbSpline
 70
8
 71
3
 72
8
 73
4
 74
0
 40
0
 40
0
 40
0
 40
0
 40
1
 40
1
 40
1
 40
1
 10
48.482988
 20
34.568834
 30
0.0
 10
48.670488
 20
34.064244
 30
0.0
 10
48.930808
 20
33.272964
 30
0.0
 10
49.061469
 20
32.810424
 30
0.0
  0
SPLINE
  5
177
100
AcDbEntity
  8
Layer_1
 62
7
100
AcDbSpline
 70
8
 71
3
 72
8
 73
4
 74
0
 40
0
 40
0
 40
0
 40
0
 40
1
 40
1
 40
1
 40
1
 10
49.061469
 20
32.810424
 30
0.0
 10
49.192129
 20
32.347884
 30
0.0
 10
49.365269
 20
31.642603
 30
0.0
 10
49.446209
 20
31.243143
 30
0.0
  0
SPLINE
  5
178
100
AcDbEntity
  8
Layer_1
 62
7
100
AcDbSpline
 70
8
 71
3
 72
8
 73
4
 74
0
 40
0
 40
0
 40
0
 40
0
 40
1
 40
1
 40
1
 40
1
 10
49.446209
 20
31.243143
 30
0.0
 10
49.527109
 20
30.843683
 30
0.0
 10
49.639589
 20
30.190013
 30
0.0
 10
49.696079
 20
29.790543
 30
0.0
  0
SPLINE
  5
179
100
AcDbEntity
  8
Layer_1
 62
7
100
AcDbSpline
 70
8
 71
3
 72
8
 73
4
 74
0
 40
0
 40
0
 40
0
 40
0
 40
1
 40
1
 40
1
 40
1
 10
49.696079
 20
29.790543
 30
0.0
 10
49.760779
 20
29.332943
 30
0.0
 10
49.798769
 20
28.328853
 30
0.0
 10
49.798769
 20
27.076473
 30
0.0
  0
SPLINE
  5
17a
100
AcDbEntity
  8
Layer_1
 62
7
100
AcDbSpline
 70
8
 71
3
 72
8
 73
4
 74
0
 40
0
 40
0
 40
0
 40
0
 40
1
 40
1
 40
1
 40
1
 10
49.798769
 20
27.076473
 30
0.0
 10
49.798769
 20
25.847652
 30
0.0
 10
49.760269
 20
24.811402
 30
0.0
 10
49.697839
 20
24.362412
 30
0.0
  0
SPLINE
  5
17b
100
AcDbEntity
  8
Layer_1
 62
7
100
AcDbSpline
 70
8
 71
3
 72
8
 73
4
 74
0
 40
0
 40
0
 40
0
 40
0
 40
1
 40
1
 40
1
 40
1
 10
49.697839
 20
24.362412
 30
0.0
 10
49.642339
 20
23.962942
 30
0.0
 10
49.510659
 20
23.244482
 30
0.0
 10
49.405229
 20
22.765832
 30
0.0
  0
SPLINE
  5
17c
100
AcDbEntity
  8
Layer_1
 62
7
100
AcDbSpline
 70
8
 71
3
 72
8
 73
4
 74
0
 40
0
 40
0
 40
0
 40
0
 40
1
 40
1
 40
1
 40
1
 10
49.405229
 20
22.765832
 30
0.0
 10
49.299809
 20
22.287182
 30
0.0
 10
49.092839
 20
21.547502
 30
0.0
 10
48.945288
 20
21.122102
 30
0.0
  0
SPLINE
  5
17d
100
AcDbEntity
  8
Layer_1
 62
7
100
AcDbSpline
 70
8
 71
3
 72
8
 73
4
 74
0
 40
0
 40
0
 40
0
 40
0
 40
1
 40
1
 40
1
 40
1
 10
48.945288
 20
21.122102
 30
0.0
 10
48.797738
 20
20.696702
 30
0.0
 10
48.576338
 20
20.159421
 30
0.0
 10
48.453288
 20
19.928151
 30
0.0
  0
SPLINE
  5
17e
100
AcDbEntity
  8
Layer_1
 62
7
100
AcDbSpline
 70
8
 71
3
 72
8
 73
4
 74
0
 40
0
 40
0
 40
0
 40
0
 40
1
 40
1
 40
1
 40
1
 10
48.453288
 20
19.928151
 30
0.0
 10
48.330228
 20
19.696891
 30
0.0
 10
48.074878
 20
19.301241
 30
0.0
 10
47.885848
 20
19.048951
 30
0.0
  0
SPLINE
  5
17f
100
AcDbEntity
  8
Layer_1
 62
7
100
AcDbSpline
 70
8
 71
3
 72
8
 73
4
 74
0
 40
0
 40
0
 40
0
 40
0
 40
1
 40
1
 40
1
 40
1
 10
47.885848
 20
19.048951
 30
0.0
 10
47.696818
 20
18.796661
 30
0.0
 10
47.224298
 20
18.268881
 30
0.0
 10
46.835818
 20
17.876121
 30
0.0
  0
SPLINE
  5
180
100
AcDbEntity
  8
Layer_1
 62
7
100
AcDbSpline
 70
8
 71
3
 72
8
 73
4
 74
0
 40
0
 40
0
 40
0
 40
0
 40
1
 40
1
 40
1
 40
1
 10
46.835818
 20
17.876121
 30
0.0
 10
46.447328
 20
17.483351
 30
0.0
 10
45.857748
 20
16.956451
 30
0.0
 10
45.525638
 20
16.705231
 30
0.0
  0
SPLINE
  5
181
100
AcDbEntity
  8
Layer_1
 62
7
100
AcDbSpline
 70
8
 71
3
 72
8
 73
4
 74
0
 40
0
 40
0
 40
0
 40
0
 40
1
 40
1
 40
1
 40
1
 10
45.525638
 20
16.705231
 30
0.0
 10
45.193538
 20
16.454011
 30
0.0
 10
44.591478
 20
16.083141
 30
0.0
 10
44.187718
 20
15.881081
 30
0.0
  0
SPLINE
  5
182
100
AcDbEntity
  8
Layer_1
 62
7
100
AcDbSpline
 70
8
 71
3
 72
8
 73
4
 74
0
 40
0
 40
0
 40
0
 40
0
 40
1
 40
1
 40
1
 40
1
 10
44.187718
 20
15.881081
 30
0.0
 10
43.783968
 20
15.679021
 30
0.0
 10
43.184147
 20
15.423601
 30
0.0
 10
42.854777
 20
15.313461
 30
0.0
  0
SPLINE
  5
183
100
AcDbEntity
  8
Layer_1
 62
7
100
AcDbSpline
 70
8
 71
3
 72
8
 73
4
 74
0
 40
0
 40
0
 40
0
 40
0
 40
1
 40
1
 40
1
 40
1
 10
42.854777
 20
15.313461
 30
0.0
 10
42.525406
 20
15.203331
 30
0.0
 10
41.945226
 20
15.075451
 30
0.0
 10
41.565466
 20
15.029271
 30
0.0
  0
SPLINE
  5
184
100
AcDbEntity
  8
Layer_1
 62
7
100
AcDbSpline
 70
8
 71
3
 72
8
 73
4
 74
0
 40
0
 40
0
 40
0
 40
0
 40
1
 40
1
 40
1
 40
1
 10
41.565466
 20
15.029271
 30
0.0
 10
41.065576
 20
14.968471
 30
0.0
 10
40.566196
 20
14.968271
 30
0.0
 10
39.756066
 20
15.028581
 30
0.0
  0
SPLINE
  5
185
100
AcDbEntity
  8
Layer_1
 62
7
100
AcDbSpline
 70
8
 71
3
 72
8
 73
4
 74
0
 40
0
 40
0
 40
0
 40
0
 40
1
 40
1
 40
1
 40
1
 10
39.756066
 20
15.028581
 30
0.0
 10
39.140636
 20
15.074381
 30
0.0
 10
38.509816
 20
15.133211
 30
0.0
 10
38.354226
 20
15.159361
 30
0.0
  0
SPLINE
  5
186
100
AcDbEntity
  8
Layer_1
 62
7
100
AcDbSpline
 70
8
 71
3
 72
8
 73
4
 74
0
 40
0
 40
0
 40
0
 40
0
 40
1
 40
1
 40
1
 40
1
 10
38.354226
 20
15.159361
 30
0.0
 10
38.101106
 20
15.201861
 30
0.0
 10
38.066926
 20
15.187761
 30
0.0
 10
38.029416
 20
15.025481
 30
0.0
  0
SPLINE
  5
187
100
AcDbEntity
  8
Layer_1
 62
7
100
AcDbSpline
 70
8
 71
3
 72
8
 73
4
 74
0
 40
0
 40
0
 40
0
 40
0
 40
1
 40
1
 40
1
 40
1
 10
38.029416
 20
15.025481
 30
0.0
 10
38.006316
 20
14.925681
 30
0.0
 10
37.901846
 20
14.396830
 30
0.0
 10
37.797176
 20
13.850190
 30
0.0
  0
SPLINE
  5
188
100
AcDbEntity
  8
Layer_1
 62
7
100
AcDbSpline
 70
8
 71
3
 72
8
 73
4
 74
0
 40
0
 40
0
 40
0
 40
0
 40
1
 40
1
 40
1
 40
1
 10
37.797176
 20
13.850190
 30
0.0
 10
37.692516
 20
13.303560
 30
0.0
 10
37.487026
 20
12.435990
 30
0.0
 10
37.340545
 20
11.922270
 30
0.0
  0
SPLINE
  5
189
100
AcDbEntity
  8
Layer_1
 62
7
100
AcDbSpline
 70
8
 71
3
 72
8
 73
4
 74
0
 40
0
 40
0
 40
0
 40
0
 40
1
 40
1
 40
1
 40
1
 10
37.340545
 20
11.922270
 30
0.0
 10
37.194055
 20
11.408550
 30
0.0
 10
36.949455
 20
10.651660
 30
0.0
 10
36.796985
 20
10.240310
 30
0.0
  0
SPLINE
  5
18a
100
AcDbEntity
  8
Layer_1
 62
7
100
AcDbSpline
 70
8
 71
3
 72
8
 73
4
 74
0
 40
0
 40
0
 40
0
 40
0
 40
1
 40
1
 40
1
 40
1
 10
36.796985
 20
10.240310
 30
0.0
 10
36.644515
 20
9.828960
 30
0.0
 10
36.399285
 20
9.274280
 30
0.0
 10
36.252045
 20
9.007700
 30
0.0
  0
SPLINE
  5
18b
100
AcDbEntity
  8
Layer_1
 62
7
100
AcDbSpline
 70
8
 71
3
 72
8
 73
4
 74
0
 40
0
 40
0
 40
0
 40
0
 40
1
 40
1
 40
1
 40
1
 10
36.252045
 20
9.007700
 30
0.0
 10
36.104805
 20
8.741110
 30
0.0
 10
35.716825
 20
8.190649
 30
0.0
 10
35.389885
 20
7.784449
 30
0.0
  0
SPLINE
  5
18c
100
AcDbEntity
  8
Layer_1
 62
7
100
AcDbSpline
 70
8
 71
3
 72
8
 73
4
 74
0
 40
0
 40
0
 40
0
 40
0
 40
1
 40
1
 40
1
 40
1
 10
35.389885
 20
7.784449
 30
0.0
 10
35.062945
 20
7.378259
 30
0.0
 10
34.401035
 20
6.664039
 30
0.0
 10
33.918985
 20
6.197309
 30
0.0
  0
SPLINE
  5
18d
100
AcDbEntity
  8
Layer_1
 62
7
100
AcDbSpline
 70
8
 71
3
 72
8
 73
4
 74
0
 40
0
 40
0
 40
0
 40
0
 40
1
 40
1
 40
1
 40
1
 10
33.918985
 20
6.197309
 30
0.0
 10
33.436935
 20
5.730579
 30
0.0
 10
32.632735
 20
5.008109
 30
0.0
 10
32.131865
 20
4.591809
 30
0.0
  0
SPLINE
  5
18e
100
AcDbEntity
  8
Layer_1
 62
7
100
AcDbSpline
 70
8
 71
3
 72
8
 73
4
 74
0
 40
0
 40
0
 40
0
 40
0
 40
1
 40
1
 40
1
 40
1
 10
32.131865
 20
4.591809
 30
0.0
 10
31.631004
 20
4.175509
 30
0.0
 10
30.825564
 20
3.542959
 30
0.0
 10
30.342004
 20
3.186139
 30
0.0
  0
SPLINE
  5
18f
100
AcDbEntity
  8
Layer_1
 62
7
100
AcDbSpline
 70
8
 71
3
 72
8
 73
4
 74
0
 40
0
 40
0
 40
0
 40
0
 40
1
 40
1
 40
1
 40
1
 10
30.342004
 20
3.186139
 30
0.0
 10
29.858434
 20
2.829308
 30
0.0
 10
28.826324
 20
2.113768
 30
0.0
 10
28.048424
 20
1.596028
 30
0.0
  0
SPLINE
  5
190
100
AcDbEntity
  8
Layer_1
 62
7
100
AcDbSpline
 70
8
 71
3
 72
8
 73
4
 74
0
 40
0
 40
0
 40
0
 40
0
 40
1
 40
1
 40
1
 40
1
 10
28.048424
 20
1.596028
 30
0.0
 10
27.270518
 20
1.078288
 30
0.0
 10
26.358220
 20
0.517088
 30
0.0
 10
26.021094
 20
0.348898
 30
0.0
  0
SPLINE
  5
191
100
AcDbEntity
  8
Layer_1
 62
7
100
AcDbSpline
 70
8
 71
3
 72
8
 73
4
 74
0
 40
0
 40
0
 40
0
 40
0
 40
1
 40
1
 40
1
 40
1
 10
26.021094
 20
0.348898
 30
0.0
 10
25.607676
 20
0.142658
 30
0.0
 10
25.271688
 20
0.031478
 30
0.0
 10
24.988983
 20
0.007368
 30
0.0
  0
SPLINE
  5
192
100
AcDbEntity
  8
Layer_1
 62
7
100
AcDbSpline
 70
8
 71
3
 72
8
 73
4
 74
0
 40
0
 40
0
 40
0
 40
0
 40
1
 40
1
 40
1
 40
1
 10
24.988983
 20
0.007368
 30
0.0
 10
24.737090
 20
-0.014132
 30
0.0
 10
24.459923
 20
0.012368
 30
0.0
 10
24.294407
 20
0.074668
 30
0.0
  0
LWPOLYLINE
  5
193
100
AcDbEntity
  8
Layer_1
 62
7
100
AcDbPolyline
 90
3
 70
0
 10
37.189475
 20
51.782964
 30
0.0
 10
37.055135
 20
50.266203
 30
0.0
 10
39.303086
 20
47.998559
 30
0.0
  0
SPLINE
  5
194
100
AcDbEntity
  8
Layer_1
 62
7
100
AcDbSpline
 70
8
 71
3
 72
8
 73
4
 74
0
 40
0
 40
0
 40
0
 40
0
 40
1
 40
1
 40
1
 40
1
 10
26.519421
 20
4.597999
 30
0.0
 10
27.339375
 20
5.151439
 30
0.0
 10
28.224354
 20
5.756589
 30
0.0
 10
28.486044
 20
5.942769
 30
0.0
  0
SPLINE
  5
195
100
AcDbEntity
  8
Layer_1
 62
7
100
AcDbSpline
 70
8
 71
3
 72
8
 73
4
 74
0
 40
0
 40
0
 40
0
 40
0
 40
1
 40
1
 40
1
 40
1
 10
28.486044
 20
5.942769
 30
0.0
 10
28.747724
 20
6.128959
 30
0.0
 10
28.962754
 20
6.304989
 30
0.0
 10
28.963874
 20
6.333949
 30
0.0
  0
SPLINE
  5
196
100
AcDbEntity
  8
Layer_1
 62
7
100
AcDbSpline
 70
8
 71
3
 72
8
 73
4
 74
0
 40
0
 40
0
 40
0
 40
0
 40
1
 40
1
 40
1
 40
1
 10
28.963874
 20
6.333949
 30
0.0
 10
28.964874
 20
6.362949
 30
0.0
 10
28.819684
 20
6.404349
 30
0.0
 10
28.640984
 20
6.425949
 30
0.0
  0
SPLINE
  5
197
100
AcDbEntity
  8
Layer_1
 62
7
100
AcDbSpline
 70
8
 71
3
 72
8
 73
4
 74
0
 40
0
 40
0
 40
0
 40
0
 40
1
 40
1
 40
1
 40
1
 10
28.640984
 20
6.425949
 30
0.0
 10
28.462274
 20
6.447549
 30
0.0
 10
27.455965
 20
6.479249
 30
0.0
 10
26.404742
 20
6.496249
 30
0.0
  0
SPLINE
  5
198
100
AcDbEntity
  8
Layer_1
 62
7
100
AcDbSpline
 70
8
 71
3
 72
8
 73
4
 74
0
 40
0
 40
0
 40
0
 40
0
 40
1
 40
1
 40
1
 40
1
 10
26.404742
 20
6.496249
 30
0.0
 10
25.353517
 20
6.513249
 30
0.0
 10
23.633334
 20
6.506249
 30
0.0
 10
22.582111
 20
6.480749
 30
0.0
  0
LWPOLYLINE
  5
199
100
AcDbEntity
  8
Layer_1
 62
7
100
AcDbPolyline
 90
2
 70
0
 10
24.294407
 20
0.074668
 30
0.0
 10
24.294456
 20
0.074538
 30
0.0
  0
SPLINE
  5
19a
100
AcDbEntity
  8
Layer_1
 62
7
100
AcDbSpline
 70
8
 71
3
 72
8
 73
4
 74
0
 40
0
 40
0
 40
0
 40
0
 40
1
 40
1
 40
1
 40
1
 10
21.129511
 20
6.068679
 30
0.0
 10
21.381805
 20
5.867619
 30
0.0
 10
21.894747
 20
5.489179
 30
0.0
 10
22.269381
 20
5.227699
 30
0.0
  0
SPLINE
  5
19b
100
AcDbEntity
  8
Layer_1
 62
7
100
AcDbSpline
 70
8
 71
3
 72
8
 73
4
 74
0
 40
0
 40
0
 40
0
 40
0
 40
1
 40
1
 40
1
 40
1
 10
22.269381
 20
5.227699
 30
0.0
 10
22.644017
 20
4.966229
 30
0.0
 10
23.383696
 20
4.473089
 30
0.0
 10
23.913112
 20
4.131829
 30
0.0
  0
SPLINE
  5
19c
100
AcDbEntity
  8
Layer_1
 62
7
100
AcDbSpline
 70
8
 71
3
 72
8
 73
4
 74
0
 40
0
 40
0
 40
0
 40
0
 40
1
 40
1
 40
1
 40
1
 10
23.913112
 20
4.131829
 30
0.0
 10
24.442530
 20
3.790569
 30
0.0
 10
24.910092
 20
3.529459
 30
0.0
 10
24.952141
 20
3.551579
 30
0.0
  0
SPLINE
  5
19d
100
AcDbEntity
  8
Layer_1
 62
7
100
AcDbSpline
 70
8
 71
3
 72
8
 73
4
 74
0
 40
0
 40
0
 40
0
 40
0
 40
1
 40
1
 40
1
 40
1
 10
24.952141
 20
3.551579
 30
0.0
 10
24.994191
 20
3.573679
 30
0.0
 10
25.699465
 20
4.044609
 30
0.0
 10
26.519421
 20
4.598049
 30
0.0
  0
LWPOLYLINE
  5
19e
100
AcDbEntity
  8
Layer_1
 62
7
100
AcDbPolyline
 90
3
 70
0
 10
22.582111
 20
6.480749
 30
0.0
 10
20.670796
 20
6.434249
 30
0.0
 10
21.129511
 20
6.068679
 30
0.0
  0
SPLINE
  5
19f
100
AcDbEntity
  8
Layer_1
 62
7
100
AcDbSpline
 70
8
 71
3
 72
8
 73
4
 74
0
 40
0
 40
0
 40
0
 40
0
 40
1
 40
1
 40
1
 40
1
 10
33.361515
 20
10.641610
 30
0.0
 10
33.533235
 20
10.979390
 30
0.0
 10
33.809155
 20
11.656840
 30
0.0
 10
33.974675
 20
12.147050
 30
0.0
  0
SPLINE
  5
1a0
100
AcDbEntity
  8
Layer_1
 62
7
100
AcDbSpline
 70
8
 71
3
 72
8
 73
4
 74
0
 40
0
 40
0
 40
0
 40
0
 40
1
 40
1
 40
1
 40
1
 10
33.974675
 20
12.147050
 30
0.0
 10
34.140195
 20
12.637270
 30
0.0
 10
34.247785
 20
13.066190
 30
0.0
 10
34.213775
 20
13.100200
 30
0.0
  0
SPLINE
  5
1a1
100
AcDbEntity
  8
Layer_1
 62
7
100
AcDbSpline
 70
8
 71
3
 72
8
 73
4
 74
0
 40
0
 40
0
 40
0
 40
0
 40
1
 40
1
 40
1
 40
1
 10
34.213775
 20
13.100200
 30
0.0
 10
34.179775
 20
13.134200
 30
0.0
 10
29.977624
 20
13.162000
 30
0.0
 10
24.875689
 20
13.162000
 30
0.0
  0
SPLINE
  5
1a2
100
AcDbEntity
  8
Layer_1
 62
7
100
AcDbSpline
 70
8
 71
3
 72
8
 73
4
 74
0
 40
0
 40
0
 40
0
 40
0
 40
1
 40
1
 40
1
 40
1
 10
24.875689
 20
13.162000
 30
0.0
 10
19.773751
 20
13.162000
 30
0.0
 10
15.576187
 20
13.138700
 30
0.0
 10
15.547769
 20
13.110300
 30
0.0
  0
SPLINE
  5
1a3
100
AcDbEntity
  8
Layer_1
 62
7
100
AcDbSpline
 70
8
 71
3
 72
8
 73
4
 74
0
 40
0
 40
0
 40
0
 40
0
 40
1
 40
1
 40
1
 40
1
 10
15.547769
 20
13.110300
 30
0.0
 10
15.519349
 20
13.081900
 30
0.0
 10
15.553669
 20
12.860490
 30
0.0
 10
15.624099
 20
12.618320
 30
0.0
  0
SPLINE
  5
1a4
100
AcDbEntity
  8
Layer_1
 62
7
100
AcDbSpline
 70
8
 71
3
 72
8
 73
4
 74
0
 40
0
 40
0
 40
0
 40
0
 40
1
 40
1
 40
1
 40
1
 10
15.624099
 20
12.618320
 30
0.0
 10
15.694499
 20
12.376150
 30
0.0
 10
15.889660
 20
11.831740
 30
0.0
 10
16.057790
 20
11.408520
 30
0.0
  0
SPLINE
  5
1a5
100
AcDbEntity
  8
Layer_1
 62
7
100
AcDbSpline
 70
8
 71
3
 72
8
 73
4
 74
0
 40
0
 40
0
 40
0
 40
0
 40
1
 40
1
 40
1
 40
1
 10
16.057790
 20
11.408520
 30
0.0
 10
16.225920
 20
10.985300
 30
0.0
 10
16.455332
 20
10.492750
 30
0.0
 10
16.567597
 20
10.313970
 30
0.0
  0
LWPOLYLINE
  5
1a6
100
AcDbEntity
  8
Layer_1
 62
7
100
AcDbPolyline
 90
1
 70
1
 10
26.519421
 20
4.598049
 30
0.0
  0
SPLINE
  5
1a7
100
AcDbEntity
  8
Layer_1
 62
7
100
AcDbSpline
 70
8
 71
3
 72
8
 73
4
 74
0
 40
0
 40
0
 40
0
 40
0
 40
1
 40
1
 40
1
 40
1
 10
34.546945
 20
16.591371
 30
0.0
 10
34.546945
 20
16.606371
 30
0.0
 10
34.143335
 20
16.924561
 30
0.0
 10
33.650025
 20
17.298551
 30
0.0
  0
SPLINE
  5
1a8
100
AcDbEntity
  8
Layer_1
 62
7
100
AcDbSpline
 70
8
 71
3
 72
8
 73
4
 74
0
 40
0
 40
0
 40
0
 40
0
 40
1
 40
1
 40
1
 40
1
 10
33.650025
 20
17.298551
 30
0.0
 10
33.156725
 20
17.672551
 30
0.0
 10
32.301115
 20
18.417201
 30
0.0
 10
31.748675
 20
18.953321
 30
0.0
  0
LWPOLYLINE
  5
1a9
100
AcDbEntity
  8
Layer_1
 62
7
100
AcDbPolyline
 90
5
 70
0
 10
16.567597
 20
10.313970
 30
0.0
 10
16.771713
 20
9.988920
 30
0.0
 10
24.910510
 20
10.008120
 30
0.0
 10
33.049305
 20
10.027320
 30
0.0
 10
33.361515
 20
10.641610
 30
0.0
  0
SPLINE
  5
1aa
100
AcDbEntity
  8
Layer_1
 62
7
100
AcDbSpline
 70
8
 71
3
 72
8
 73
4
 74
0
 40
0
 40
0
 40
0
 40
0
 40
1
 40
1
 40
1
 40
1
 10
17.958997
 20
18.915091
 30
0.0
 10
17.381340
 20
18.357951
 30
0.0
 10
16.527299
 20
17.626871
 30
0.0
 10
16.061127
 20
17.290481
 30
0.0
  0
SPLINE
  5
1ab
100
AcDbEntity
  8
Layer_1
 62
7
100
AcDbSpline
 70
8
 71
3
 72
8
 73
4
 74
0
 40
0
 40
0
 40
0
 40
0
 40
1
 40
1
 40
1
 40
1
 10
16.061127
 20
17.290481
 30
0.0
 10
15.594956
 20
16.954081
 30
0.0
 10
15.211494
 20
16.653051
 30
0.0
 10
15.208988
 20
16.621521
 30
0.0
  0
SPLINE
  5
1ac
100
AcDbEntity
  8
Layer_1
 62
7
100
AcDbSpline
 70
8
 71
3
 72
8
 73
4
 74
0
 40
0
 40
0
 40
0
 40
0
 40
1
 40
1
 40
1
 40
1
 10
15.208988
 20
16.621521
 30
0.0
 10
15.206488
 20
16.590021
 30
0.0
 10
19.556498
 20
16.564221
 30
0.0
 10
24.875689
 20
16.564221
 30
0.0
  0
SPLINE
  5
1ad
100
AcDbEntity
  8
Layer_1
 62
7
100
AcDbSpline
 70
8
 71
3
 72
8
 73
4
 74
0
 40
0
 40
0
 40
0
 40
0
 40
1
 40
1
 40
1
 40
1
 10
24.875689
 20
16.564221
 30
0.0
 10
30.194874
 20
16.564221
 30
0.0
 10
34.546945
 20
16.576421
 30
0.0
 10
34.546945
 20
16.591421
 30
0.0
  0
LWPOLYLINE
  5
1ae
100
AcDbEntity
  8
Layer_1
 62
7
100
AcDbPolyline
 90
5
 70
0
 10
31.748675
 20
18.953321
 30
0.0
 10
30.744234
 20
19.928091
 30
0.0
 10
24.876759
 20
19.928091
 30
0.0
 10
19.009284
 20
19.928091
 30
0.0
 10
17.958997
 20
18.915091
 30
0.0
  0
SPLINE
  5
1af
100
AcDbEntity
  8
Layer_1
 62
7
100
AcDbSpline
 70
8
 71
3
 72
8
 73
4
 74
0
 40
0
 40
0
 40
0
 40
0
 40
1
 40
1
 40
1
 40
1
 10
11.034973
 20
18.473441
 30
0.0
 10
11.369829
 20
18.559841
 30
0.0
 10
12.023499
 20
18.814341
 30
0.0
 10
12.487573
 20
19.039041
 30
0.0
  0
SPLINE
  5
1b0
100
AcDbEntity
  8
Layer_1
 62
7
100
AcDbSpline
 70
8
 71
3
 72
8
 73
4
 74
0
 40
0
 40
0
 40
0
 40
0
 40
1
 40
1
 40
1
 40
1
 10
12.487573
 20
19.039041
 30
0.0
 10
12.951647
 20
19.263751
 30
0.0
 10
13.620572
 20
19.655901
 30
0.0
 10
13.974073
 20
19.910501
 30
0.0
  0
SPLINE
  5
1b1
100
AcDbEntity
  8
Layer_1
 62
7
100
AcDbSpline
 70
8
 71
3
 72
8
 73
4
 74
0
 40
0
 40
0
 40
0
 40
0
 40
1
 40
1
 40
1
 40
1
 10
13.974073
 20
19.910501
 30
0.0
 10
14.327574
 20
20.165092
 30
0.0
 10
14.919794
 20
20.652822
 30
0.0
 10
15.290115
 20
20.994342
 30
0.0
  0
SPLINE
  5
1b2
100
AcDbEntity
  8
Layer_1
 62
7
100
AcDbSpline
 70
8
 71
3
 72
8
 73
4
 74
0
 40
0
 40
0
 40
0
 40
0
 40
1
 40
1
 40
1
 40
1
 10
15.290115
 20
20.994342
 30
0.0
 10
15.660437
 20
21.335862
 30
0.0
 10
16.259242
 20
21.966742
 30
0.0
 10
16.620792
 20
22.396312
 30
0.0
  0
SPLINE
  5
1b3
100
AcDbEntity
  8
Layer_1
 62
7
100
AcDbSpline
 70
8
 71
3
 72
8
 73
4
 74
0
 40
0
 40
0
 40
0
 40
0
 40
1
 40
1
 40
1
 40
1
 10
16.620792
 20
22.396312
 30
0.0
 10
16.982344
 20
22.825872
 30
0.0
 10
17.599391
 20
23.658982
 30
0.0
 10
17.992010
 20
24.247662
 30
0.0
  0
SPLINE
  5
1b4
100
AcDbEntity
  8
Layer_1
 62
7
100
AcDbSpline
 70
8
 71
3
 72
8
 73
4
 74
0
 40
0
 40
0
 40
0
 40
0
 40
1
 40
1
 40
1
 40
1
 10
17.992010
 20
24.247662
 30
0.0
 10
18.384629
 20
24.836352
 30
0.0
 10
18.890174
 20
25.662042
 30
0.0
 10
19.115443
 20
26.082533
 30
0.0
  0
SPLINE
  5
1b5
100
AcDbEntity
  8
Layer_1
 62
7
100
AcDbSpline
 70
8
 71
3
 72
8
 73
4
 74
0
 40
0
 40
0
 40
0
 40
0
 40
1
 40
1
 40
1
 40
1
 10
19.115443
 20
26.082533
 30
0.0
 10
19.340712
 20
26.503013
 30
0.0
 10
19.692237
 20
27.204383
 30
0.0
 10
19.896610
 20
27.641123
 30
0.0
  0
SPLINE
  5
1b6
100
AcDbEntity
  8
Layer_1
 62
7
100
AcDbSpline
 70
8
 71
3
 72
8
 73
4
 74
0
 40
0
 40
0
 40
0
 40
0
 40
1
 40
1
 40
1
 40
1
 10
19.896610
 20
27.641123
 30
0.0
 10
20.100982
 20
28.077853
 30
0.0
 10
20.438531
 20
28.886343
 30
0.0
 10
20.646717
 20
29.437753
 30
0.0
  0
SPLINE
  5
1b7
100
AcDbEntity
  8
Layer_1
 62
7
100
AcDbSpline
 70
8
 71
3
 72
8
 73
4
 74
0
 40
0
 40
0
 40
0
 40
0
 40
1
 40
1
 40
1
 40
1
 10
20.646717
 20
29.437753
 30
0.0
 10
20.854903
 20
29.989173
 30
0.0
 10
21.174420
 20
30.956383
 30
0.0
 10
21.356754
 20
31.587113
 30
0.0
  0
SPLINE
  5
1b8
100
AcDbEntity
  8
Layer_1
 62
7
100
AcDbSpline
 70
8
 71
3
 72
8
 73
4
 74
0
 40
0
 40
0
 40
0
 40
0
 40
1
 40
1
 40
1
 40
1
 10
21.356754
 20
31.587113
 30
0.0
 10
21.539089
 20
32.217854
 30
0.0
 10
21.793010
 20
33.215554
 30
0.0
 10
21.921024
 20
33.804244
 30
0.0
  0
SPLINE
  5
1b9
100
AcDbEntity
  8
Layer_1
 62
7
100
AcDbSpline
 70
8
 71
3
 72
8
 73
4
 74
0
 40
0
 40
0
 40
0
 40
0
 40
1
 40
1
 40
1
 40
1
 10
21.921024
 20
33.804244
 30
0.0
 10
22.049038
 20
34.392924
 30
0.0
 10
22.240422
 20
35.356234
 30
0.0
 10
22.346320
 20
35.944914
 30
0.0
  0
SPLINE
  5
1ba
100
AcDbEntity
  8
Layer_1
 62
7
100
AcDbSpline
 70
8
 71
3
 72
8
 73
4
 74
0
 40
0
 40
0
 40
0
 40
0
 40
1
 40
1
 40
1
 40
1
 10
22.346320
 20
35.944914
 30
0.0
 10
22.452219
 20
36.533604
 30
0.0
 10
22.591768
 20
37.368794
 30
0.0
 10
22.656430
 20
37.800905
 30
0.0
  0
SPLINE
  5
1bb
100
AcDbEntity
  8
Layer_1
 62
7
100
AcDbSpline
 70
8
 71
3
 72
8
 73
4
 74
0
 40
0
 40
0
 40
0
 40
0
 40
1
 40
1
 40
1
 40
1
 10
22.656430
 20
37.800905
 30
0.0
 10
22.721090
 20
38.233015
 30
0.0
 10
22.825440
 20
39.127515
 30
0.0
 10
22.888313
 20
39.788675
 30
0.0
  0
SPLINE
  5
1bc
100
AcDbEntity
  8
Layer_1
 62
7
100
AcDbSpline
 70
8
 71
3
 72
8
 73
4
 74
0
 40
0
 40
0
 40
0
 40
0
 40
1
 40
1
 40
1
 40
1
 10
22.888313
 20
39.788675
 30
0.0
 10
22.953693
 20
40.476165
 30
0.0
 10
23.040105
 20
42.790903
 30
0.0
 10
23.090172
 20
45.195683
 30
0.0
  0
SPLINE
  5
1bd
100
AcDbEntity
  8
Layer_1
 62
7
100
AcDbSpline
 70
8
 71
3
 72
8
 73
4
 74
0
 40
0
 40
0
 40
0
 40
0
 40
1
 40
1
 40
1
 40
1
 10
23.090172
 20
45.195683
 30
0.0
 10
23.148882
 20
48.015487
 30
0.0
 10
23.153382
 20
49.829168
 30
0.0
 10
23.103852
 20
50.701705
 30
0.0
  0
SPLINE
  5
1be
100
AcDbEntity
  8
Layer_1
 62
7
100
AcDbSpline
 70
8
 71
3
 72
8
 73
4
 74
0
 40
0
 40
0
 40
0
 40
0
 40
1
 40
1
 40
1
 40
1
 10
23.103852
 20
50.701705
 30
0.0
 10
23.063222
 20
51.417325
 30
0.0
 10
22.997152
 20
52.061504
 30
0.0
 10
22.957021
 20
52.133213
 30
0.0
  0
SPLINE
  5
1bf
100
AcDbEntity
  8
Layer_1
 62
7
100
AcDbSpline
 70
8
 71
3
 72
8
 73
4
 74
0
 40
0
 40
0
 40
0
 40
0
 40
1
 40
1
 40
1
 40
1
 10
22.957021
 20
52.133213
 30
0.0
 10
22.892641
 20
52.248248
 30
0.0
 10
22.677319
 20
52.154793
 30
0.0
 10
21.127579
 20
51.339221
 30
0.0
  0
SPLINE
  5
1c0
100
AcDbEntity
  8
Layer_1
 62
7
100
AcDbSpline
 70
8
 71
3
 72
8
 73
4
 74
0
 40
0
 40
0
 40
0
 40
0
 40
1
 40
1
 40
1
 40
1
 10
21.127579
 20
51.339221
 30
0.0
 10
20.161516
 20
50.830816
 30
0.0
 10
18.895351
 20
50.142728
 30
0.0
 10
18.313879
 20
49.810137
 30
0.0
  0
SPLINE
  5
1c1
100
AcDbEntity
  8
Layer_1
 62
7
100
AcDbSpline
 70
8
 71
3
 72
8
 73
4
 74
0
 40
0
 40
0
 40
0
 40
0
 40
1
 40
1
 40
1
 40
1
 10
18.313879
 20
49.810137
 30
0.0
 10
17.732406
 20
49.477546
 30
0.0
 10
16.867578
 20
48.946308
 30
0.0
 10
16.392037
 20
48.629609
 30
0.0
  0
SPLINE
  5
1c2
100
AcDbEntity
  8
Layer_1
 62
7
100
AcDbSpline
 70
8
 71
3
 72
8
 73
4
 74
0
 40
0
 40
0
 40
0
 40
0
 40
1
 40
1
 40
1
 40
1
 10
16.392037
 20
48.629609
 30
0.0
 10
15.916496
 20
48.312910
 30
0.0
 10
15.153714
 20
47.755392
 30
0.0
 10
14.696965
 20
47.390678
 30
0.0
  0
SPLINE
  5
1c3
100
AcDbEntity
  8
Layer_1
 62
7
100
AcDbSpline
 70
8
 71
3
 72
8
 73
4
 74
0
 40
0
 40
0
 40
0
 40
0
 40
1
 40
1
 40
1
 40
1
 10
14.696965
 20
47.390678
 30
0.0
 10
14.240216
 20
47.025966
 30
0.0
 10
13.261855
 20
46.124863
 30
0.0
 10
12.522830
 20
45.388229
 30
0.0
  0
SPLINE
  5
1c4
100
AcDbEntity
  8
Layer_1
 62
7
100
AcDbSpline
 70
8
 71
3
 72
8
 73
4
 74
0
 40
0
 40
0
 40
0
 40
0
 40
1
 40
1
 40
1
 40
1
 10
12.522830
 20
45.388229
 30
0.0
 10
11.783804
 20
44.651595
 30
0.0
 10
10.825230
 20
43.636050
 30
0.0
 10
10.392665
 20
43.131462
 30
0.0
  0
SPLINE
  5
1c5
100
AcDbEntity
  8
Layer_1
 62
7
100
AcDbSpline
 70
8
 71
3
 72
8
 73
4
 74
0
 40
0
 40
0
 40
0
 40
0
 40
1
 40
1
 40
1
 40
1
 10
10.392665
 20
43.131462
 30
0.0
 10
9.960100
 20
42.626874
 30
0.0
 10
9.271093
 20
41.766783
 30
0.0
 10
8.861540
 20
41.220146
 30
0.0
  0
SPLINE
  5
1c6
100
AcDbEntity
  8
Layer_1
 62
7
100
AcDbSpline
 70
8
 71
3
 72
8
 73
4
 74
0
 40
0
 40
0
 40
0
 40
0
 40
1
 40
1
 40
1
 40
1
 10
8.861540
 20
41.220146
 30
0.0
 10
8.451985
 20
40.673505
 30
0.0
 10
7.876706
 20
39.865025
 30
0.0
 10
7.583142
 20
39.423505
 30
0.0
  0
SPLINE
  5
1c7
100
AcDbEntity
  8
Layer_1
 62
7
100
AcDbSpline
 70
8
 71
3
 72
8
 73
4
 74
0
 40
0
 40
0
 40
0
 40
0
 40
1
 40
1
 40
1
 40
1
 10
7.583142
 20
39.423505
 30
0.0
 10
7.289578
 20
38.981995
 30
0.0
 10
6.819977
 20
38.233155
 30
0.0
 10
6.539585
 20
37.759425
 30
0.0
  0
SPLINE
  5
1c8
100
AcDbEntity
  8
Layer_1
 62
7
100
AcDbSpline
 70
8
 71
3
 72
8
 73
4
 74
0
 40
0
 40
0
 40
0
 40
0
 40
1
 40
1
 40
1
 40
1
 10
6.539585
 20
37.759425
 30
0.0
 10
6.259194
 20
37.285694
 30
0.0
 10
5.758868
 20
36.356794
 30
0.0
 10
5.427752
 20
35.695204
 30
0.0
  0
SPLINE
  5
1c9
100
AcDbEntity
  8
Layer_1
 62
7
100
AcDbSpline
 70
8
 71
3
 72
8
 73
4
 74
0
 40
0
 40
0
 40
0
 40
0
 40
1
 40
1
 40
1
 40
1
 10
5.427752
 20
35.695204
 30
0.0
 10
5.096635
 20
35.033614
 30
0.0
 10
4.705195
 20
34.199884
 30
0.0
 10
4.557886
 20
33.842464
 30
0.0
  0
SPLINE
  5
1ca
100
AcDbEntity
  8
Layer_1
 62
7
100
AcDbSpline
 70
8
 71
3
 72
8
 73
4
 74
0
 40
0
 40
0
 40
0
 40
0
 40
1
 40
1
 40
1
 40
1
 10
4.557886
 20
33.842464
 30
0.0
 10
4.410577
 20
33.485054
 30
0.0
 10
4.168143
 20
32.814184
 30
0.0
 10
4.019144
 20
32.351644
 30
0.0
  0
SPLINE
  5
1cb
100
AcDbEntity
  8
Layer_1
 62
7
100
AcDbSpline
 70
8
 71
3
 72
8
 73
4
 74
0
 40
0
 40
0
 40
0
 40
0
 40
1
 40
1
 40
1
 40
1
 10
4.019144
 20
32.351644
 30
0.0
 10
3.870145
 20
31.889104
 30
0.0
 10
3.677441
 20
31.132223
 30
0.0
 10
3.590913
 20
30.669683
 30
0.0
  0
SPLINE
  5
1cc
100
AcDbEntity
  8
Layer_1
 62
7
100
AcDbSpline
 70
8
 71
3
 72
8
 73
4
 74
0
 40
0
 40
0
 40
0
 40
0
 40
1
 40
1
 40
1
 40
1
 10
3.590913
 20
30.669683
 30
0.0
 10
3.504383
 20
30.207143
 30
0.0
 10
3.398542
 20
29.472423
 30
0.0
 10
3.355707
 20
29.036963
 30
0.0
  0
SPLINE
  5
1cd
100
AcDbEntity
  8
Layer_1
 62
7
100
AcDbSpline
 70
8
 71
3
 72
8
 73
4
 74
0
 40
0
 40
0
 40
0
 40
0
 40
1
 40
1
 40
1
 40
1
 10
3.355707
 20
29.036963
 30
0.0
 10
3.312877
 20
28.601513
 30
0.0
 10
3.278427
 20
27.655413
 30
0.0
 10
3.279147
 20
26.934523
 30
0.0
  0
SPLINE
  5
1ce
100
AcDbEntity
  8
Layer_1
 62
7
100
AcDbSpline
 70
8
 71
3
 72
8
 73
4
 74
0
 40
0
 40
0
 40
0
 40
0
 40
1
 40
1
 40
1
 40
1
 10
3.279147
 20
26.934523
 30
0.0
 10
3.279874
 20
26.213633
 30
0.0
 10
3.314337
 20
25.296972
 30
0.0
 10
3.355727
 20
24.897512
 30
0.0
  0
SPLINE
  5
1cf
100
AcDbEntity
  8
Layer_1
 62
7
100
AcDbSpline
 70
8
 71
3
 72
8
 73
4
 74
0
 40
0
 40
0
 40
0
 40
0
 40
1
 40
1
 40
1
 40
1
 10
3.355727
 20
24.897512
 30
0.0
 10
3.397117
 20
24.498042
 30
0.0
 10
3.486427
 20
23.895982
 30
0.0
 10
3.554193
 20
23.559592
 30
0.0
  0
SPLINE
  5
1d0
100
AcDbEntity
  8
Layer_1
 62
7
100
AcDbSpline
 70
8
 71
3
 72
8
 73
4
 74
0
 40
0
 40
0
 40
0
 40
0
 40
1
 40
1
 40
1
 40
1
 10
3.554193
 20
23.559592
 30
0.0
 10
3.621963
 20
23.223202
 30
0.0
 10
3.780434
 20
22.662862
 30
0.0
 10
3.906361
 20
22.314392
 30
0.0
  0
SPLINE
  5
1d1
100
AcDbEntity
  8
Layer_1
 62
7
100
AcDbSpline
 70
8
 71
3
 72
8
 73
4
 74
0
 40
0
 40
0
 40
0
 40
0
 40
1
 40
1
 40
1
 40
1
 10
3.906361
 20
22.314392
 30
0.0
 10
4.032287
 20
21.965932
 30
0.0
 10
4.308311
 20
21.415822
 30
0.0
 10
4.519748
 20
21.091932
 30
0.0
  0
SPLINE
  5
1d2
100
AcDbEntity
  8
Layer_1
 62
7
100
AcDbSpline
 70
8
 71
3
 72
8
 73
4
 74
0
 40
0
 40
0
 40
0
 40
0
 40
1
 40
1
 40
1
 40
1
 10
4.519748
 20
21.091932
 30
0.0
 10
4.731184
 20
20.768042
 30
0.0
 10
5.131710
 20
20.277842
 30
0.0
 10
5.409807
 20
20.002601
 30
0.0
  0
SPLINE
  5
1d3
100
AcDbEntity
  8
Layer_1
 62
7
100
AcDbSpline
 70
8
 71
3
 72
8
 73
4
 74
0
 40
0
 40
0
 40
0
 40
0
 40
1
 40
1
 40
1
 40
1
 10
5.409807
 20
20.002601
 30
0.0
 10
5.687903
 20
19.727351
 30
0.0
 10
6.119420
 20
19.368431
 30
0.0
 10
6.368732
 20
19.205001
 30
0.0
  0
SPLINE
  5
1d4
100
AcDbEntity
  8
Layer_1
 62
7
100
AcDbSpline
 70
8
 71
3
 72
8
 73
4
 74
0
 40
0
 40
0
 40
0
 40
0
 40
1
 40
1
 40
1
 40
1
 10
6.368732
 20
19.205001
 30
0.0
 10
6.618044
 20
19.041571
 30
0.0
 10
7.064508
 20
18.805981
 30
0.0
 10
7.360874
 20
18.681461
 30
0.0
  0
SPLINE
  5
1d5
100
AcDbEntity
  8
Layer_1
 62
7
100
AcDbSpline
 70
8
 71
3
 72
8
 73
4
 74
0
 40
0
 40
0
 40
0
 40
0
 40
1
 40
1
 40
1
 40
1
 10
7.360874
 20
18.681461
 30
0.0
 10
7.657240
 20
18.556941
 30
0.0
 10
8.141331
 20
18.408801
 30
0.0
 10
8.436631
 20
18.352251
 30
0.0
  0
SPLINE
  5
1d6
100
AcDbEntity
  8
Layer_1
 62
7
100
AcDbSpline
 70
8
 71
3
 72
8
 73
4
 74
0
 40
0
 40
0
 40
0
 40
0
 40
1
 40
1
 40
1
 40
1
 10
8.436631
 20
18.352251
 30
0.0
 10
8.758868
 20
18.290551
 30
0.0
 10
9.263940
 20
18.262851
 30
0.0
 10
9.699842
 20
18.282951
 30
0.0
  0
SPLINE
  5
1d7
100
AcDbEntity
  8
Layer_1
 62
7
100
AcDbSpline
 70
8
 71
3
 72
8
 73
4
 74
0
 40
0
 40
0
 40
0
 40
0
 40
1
 40
1
 40
1
 40
1
 10
9.699842
 20
18.282951
 30
0.0
 10
10.099307
 20
18.301351
 30
0.0
 10
10.700114
 20
18.387091
 30
0.0
 10
11.034969
 20
18.473471
 30
0.0
  0
LWPOLYLINE
  5
1d8
100
AcDbEntity
  8
Layer_1
 62
7
100
AcDbPolyline
 90
1
 70
1
 10
34.546945
 20
16.591421
 30
0.0
  0
SPLINE
  5
1d9
100
AcDbEntity
  8
Layer_1
 62
7
100
AcDbSpline
 70
8
 71
3
 72
8
 73
4
 74
0
 40
0
 40
0
 40
0
 40
0
 40
1
 40
1
 40
1
 40
1
 10
41.637076
 20
18.440141
 30
0.0
 10
41.921376
 20
18.508941
 30
0.0
 10
42.429206
 20
18.700301
 30
0.0
 10
42.765596
 20
18.865321
 30
0.0
  0
SPLINE
  5
1da
100
AcDbEntity
  8
Layer_1
 62
7
100
AcDbSpline
 70
8
 71
3
 72
8
 73
4
 74
0
 40
0
 40
0
 40
0
 40
0
 40
1
 40
1
 40
1
 40
1
 10
42.765596
 20
18.865321
 30
0.0
 10
43.101987
 20
19.030341
 30
0.0
 10
43.599948
 20
19.346471
 30
0.0
 10
43.872168
 20
19.567821
 30
0.0
  0
SPLINE
  5
1db
100
AcDbEntity
  8
Layer_1
 62
7
100
AcDbSpline
 70
8
 71
3
 72
8
 73
4
 74
0
 40
0
 40
0
 40
0
 40
0
 40
1
 40
1
 40
1
 40
1
 10
43.872168
 20
19.567821
 30
0.0
 10
44.144388
 20
19.789181
 30
0.0
 10
44.549988
 20
20.193012
 30
0.0
 10
44.773498
 20
20.465232
 30
0.0
  0
SPLINE
  5
1dc
100
AcDbEntity
  8
Layer_1
 62
7
100
AcDbSpline
 70
8
 71
3
 72
8
 73
4
 74
0
 40
0
 40
0
 40
0
 40
0
 40
1
 40
1
 40
1
 40
1
 10
44.773498
 20
20.465232
 30
0.0
 10
44.997008
 20
20.737452
 30
0.0
 10
45.366888
 20
21.338612
 30
0.0
 10
45.595458
 20
21.801152
 30
0.0
  0
SPLINE
  5
1dd
100
AcDbEntity
  8
Layer_1
 62
7
100
AcDbSpline
 70
8
 71
3
 72
8
 73
4
 74
0
 40
0
 40
0
 40
0
 40
0
 40
1
 40
1
 40
1
 40
1
 10
45.595458
 20
21.801152
 30
0.0
 10
45.839558
 20
22.295122
 30
0.0
 10
46.074428
 20
22.910142
 30
0.0
 10
46.164658
 20
23.291642
 30
0.0
  0
SPLINE
  5
1de
100
AcDbEntity
  8
Layer_1
 62
7
100
AcDbSpline
 70
8
 71
3
 72
8
 73
4
 74
0
 40
0
 40
0
 40
0
 40
0
 40
1
 40
1
 40
1
 40
1
 10
46.164658
 20
23.291642
 30
0.0
 10
46.249158
 20
23.648872
 30
0.0
 10
46.357668
 20
24.386552
 30
0.0
 10
46.405798
 20
24.930942
 30
0.0
  0
SPLINE
  5
1df
100
AcDbEntity
  8
Layer_1
 62
7
100
AcDbSpline
 70
8
 71
3
 72
8
 73
4
 74
0
 40
0
 40
0
 40
0
 40
0
 40
1
 40
1
 40
1
 40
1
 10
46.405798
 20
24.930942
 30
0.0
 10
46.458398
 20
25.526272
 30
0.0
 10
46.477198
 20
26.638503
 30
0.0
 10
46.452898
 20
27.721803
 30
0.0
  0
SPLINE
  5
1e0
100
AcDbEntity
  8
Layer_1
 62
7
100
AcDbSpline
 70
8
 71
3
 72
8
 73
4
 74
0
 40
0
 40
0
 40
0
 40
0
 40
1
 40
1
 40
1
 40
1
 10
46.452898
 20
27.721803
 30
0.0
 10
46.427298
 20
28.861093
 30
0.0
 10
46.368398
 20
29.761643
 30
0.0
 10
46.292418
 20
30.172713
 30
0.0
  0
SPLINE
  5
1e1
100
AcDbEntity
  8
Layer_1
 62
7
100
AcDbSpline
 70
8
 71
3
 72
8
 73
4
 74
0
 40
0
 40
0
 40
0
 40
0
 40
1
 40
1
 40
1
 40
1
 10
46.292418
 20
30.172713
 30
0.0
 10
46.226418
 20
30.530133
 30
0.0
 10
46.066508
 20
31.198533
 30
0.0
 10
45.937108
 20
31.658043
 30
0.0
  0
SPLINE
  5
1e2
100
AcDbEntity
  8
Layer_1
 62
7
100
AcDbSpline
 70
8
 71
3
 72
8
 73
4
 74
0
 40
0
 40
0
 40
0
 40
0
 40
1
 40
1
 40
1
 40
1
 10
45.937108
 20
31.658043
 30
0.0
 10
45.807718
 20
32.117564
 30
0.0
 10
45.510488
 20
32.977654
 30
0.0
 10
45.276598
 20
33.569364
 30
0.0
  0
SPLINE
  5
1e3
100
AcDbEntity
  8
Layer_1
 62
7
100
AcDbSpline
 70
8
 71
3
 72
8
 73
4
 74
0
 40
0
 40
0
 40
0
 40
0
 40
1
 40
1
 40
1
 40
1
 10
45.276598
 20
33.569364
 30
0.0
 10
45.042708
 20
34.161074
 30
0.0
 10
44.597768
 20
35.153714
 30
0.0
 10
44.287838
 20
35.775224
 30
0.0
  0
SPLINE
  5
1e4
100
AcDbEntity
  8
Layer_1
 62
7
100
AcDbSpline
 70
8
 71
3
 72
8
 73
4
 74
0
 40
0
 40
0
 40
0
 40
0
 40
1
 40
1
 40
1
 40
1
 10
44.287838
 20
35.775224
 30
0.0
 10
43.977918
 20
36.396744
 30
0.0
 10
43.486378
 20
37.308444
 30
0.0
 10
43.195527
 20
37.801225
 30
0.0
  0
SPLINE
  5
1e5
100
AcDbEntity
  8
Layer_1
 62
7
100
AcDbSpline
 70
8
 71
3
 72
8
 73
4
 74
0
 40
0
 40
0
 40
0
 40
0
 40
1
 40
1
 40
1
 40
1
 10
43.195527
 20
37.801225
 30
0.0
 10
42.904687
 20
38.294005
 30
0.0
 10
42.360026
 20
39.152745
 30
0.0
 10
41.985176
 20
39.709545
 30
0.0
  0
SPLINE
  5
1e6
100
AcDbEntity
  8
Layer_1
 62
7
100
AcDbSpline
 70
8
 71
3
 72
8
 73
4
 74
0
 40
0
 40
0
 40
0
 40
0
 40
1
 40
1
 40
1
 40
1
 10
41.985176
 20
39.709545
 30
0.0
 10
41.610326
 20
40.266345
 30
0.0
 10
40.987816
 20
41.130205
 30
0.0
 10
40.601836
 20
41.629224
 30
0.0
  0
SPLINE
  5
1e7
100
AcDbEntity
  8
Layer_1
 62
7
100
AcDbSpline
 70
8
 71
3
 72
8
 73
4
 74
0
 40
0
 40
0
 40
0
 40
0
 40
1
 40
1
 40
1
 40
1
 10
40.601836
 20
41.629224
 30
0.0
 10
40.215846
 20
42.128241
 30
0.0
 10
39.577726
 20
42.911209
 30
0.0
 10
39.183786
 20
43.369150
 30
0.0
  0
SPLINE
  5
1e8
100
AcDbEntity
  8
Layer_1
 62
7
100
AcDbSpline
 70
8
 71
3
 72
8
 73
4
 74
0
 40
0
 40
0
 40
0
 40
0
 40
1
 40
1
 40
1
 40
1
 10
39.183786
 20
43.369150
 30
0.0
 10
38.789846
 20
43.827091
 30
0.0
 10
38.042336
 20
44.627832
 30
0.0
 10
37.522646
 20
45.148575
 30
0.0
  0
SPLINE
  5
1e9
100
AcDbEntity
  8
Layer_1
 62
7
100
AcDbSpline
 70
8
 71
3
 72
8
 73
4
 74
0
 40
0
 40
0
 40
0
 40
0
 40
1
 40
1
 40
1
 40
1
 10
37.522646
 20
45.148575
 30
0.0
 10
37.002965
 20
45.669318
 30
0.0
 10
36.249845
 20
46.377107
 30
0.0
 10
35.849065
 20
46.721440
 30
0.0
  0
SPLINE
  5
1ea
100
AcDbEntity
  8
Layer_1
 62
7
100
AcDbSpline
 70
8
 71
3
 72
8
 73
4
 74
0
 40
0
 40
0
 40
0
 40
0
 40
1
 40
1
 40
1
 40
1
 10
35.849065
 20
46.721440
 30
0.0
 10
35.448275
 20
47.065772
 30
0.0
 10
34.844135
 20
47.555766
 30
0.0
 10
34.506515
 20
47.810316
 30
0.0
  0
SPLINE
  5
1eb
100
AcDbEntity
  8
Layer_1
 62
7
100
AcDbSpline
 70
8
 71
3
 72
8
 73
4
 74
0
 40
0
 40
0
 40
0
 40
0
 40
1
 40
1
 40
1
 40
1
 10
34.506515
 20
47.810316
 30
0.0
 10
34.168905
 20
48.064866
 30
0.0
 10
33.498035
 20
48.531781
 30
0.0
 10
33.015695
 20
48.847905
 30
0.0
  0
SPLINE
  5
1ec
100
AcDbEntity
  8
Layer_1
 62
7
100
AcDbSpline
 70
8
 71
3
 72
8
 73
4
 74
0
 40
0
 40
0
 40
0
 40
0
 40
1
 40
1
 40
1
 40
1
 10
33.015695
 20
48.847905
 30
0.0
 10
32.533355
 20
49.164030
 30
0.0
 10
31.674254
 20
49.689301
 30
0.0
 10
31.106594
 20
50.015174
 30
0.0
  0
SPLINE
  5
1ed
100
AcDbEntity
  8
Layer_1
 62
7
100
AcDbSpline
 70
8
 71
3
 72
8
 73
4
 74
0
 40
0
 40
0
 40
0
 40
0
 40
1
 40
1
 40
1
 40
1
 10
31.106594
 20
50.015174
 30
0.0
 10
30.538934
 20
50.341047
 30
0.0
 10
29.341514
 20
50.984979
 30
0.0
 10
28.445664
 20
51.446133
 30
0.0
  0
SPLINE
  5
1ee
100
AcDbEntity
  8
Layer_1
 62
7
100
AcDbSpline
 70
8
 71
3
 72
8
 73
4
 74
0
 40
0
 40
0
 40
0
 40
0
 40
1
 40
1
 40
1
 40
1
 10
28.445664
 20
51.446133
 30
0.0
 10
27.549812
 20
51.907287
 30
0.0
 10
26.798590
 20
52.266343
 30
0.0
 10
26.776282
 20
52.244035
 30
0.0
  0
SPLINE
  5
1ef
100
AcDbEntity
  8
Layer_1
 62
7
100
AcDbSpline
 70
8
 71
3
 72
8
 73
4
 74
0
 40
0
 40
0
 40
0
 40
0
 40
1
 40
1
 40
1
 40
1
 10
26.776282
 20
52.244035
 30
0.0
 10
26.753972
 20
52.221725
 30
0.0
 10
26.705542
 20
51.762036
 30
0.0
 10
26.668648
 20
51.222500
 30
0.0
  0
SPLINE
  5
1f0
100
AcDbEntity
  8
Layer_1
 62
7
100
AcDbSpline
 70
8
 71
3
 72
8
 73
4
 74
0
 40
0
 40
0
 40
0
 40
0
 40
1
 40
1
 40
1
 40
1
 10
26.668648
 20
51.222500
 30
0.0
 10
26.631758
 20
50.682965
 30
0.0
 10
26.601328
 20
49.398636
 30
0.0
 10
26.601028
 20
48.368436
 30
0.0
  0
SPLINE
  5
1f1
100
AcDbEntity
  8
Layer_1
 62
7
100
AcDbSpline
 70
8
 71
3
 72
8
 73
4
 74
0
 40
0
 40
0
 40
0
 40
0
 40
1
 40
1
 40
1
 40
1
 10
26.601028
 20
48.368436
 30
0.0
 10
26.600722
 20
47.338237
 30
0.0
 10
26.631958
 20
45.286266
 30
0.0
 10
26.670428
 20
43.808500
 30
0.0
  0
SPLINE
  5
1f2
100
AcDbEntity
  8
Layer_1
 62
7
100
AcDbSpline
 70
8
 71
3
 72
8
 73
4
 74
0
 40
0
 40
0
 40
0
 40
0
 40
1
 40
1
 40
1
 40
1
 10
26.670428
 20
43.808500
 30
0.0
 10
26.708898
 20
42.330732
 30
0.0
 10
26.778709
 20
40.679355
 30
0.0
 10
26.825568
 20
40.138775
 30
0.0
  0
SPLINE
  5
1f3
100
AcDbEntity
  8
Layer_1
 62
7
100
AcDbSpline
 70
8
 71
3
 72
8
 73
4
 74
0
 40
0
 40
0
 40
0
 40
0
 40
1
 40
1
 40
1
 40
1
 10
26.825568
 20
40.138775
 30
0.0
 10
26.872428
 20
39.598195
 30
0.0
 10
26.996590
 20
38.588235
 30
0.0
 10
27.101485
 20
37.894425
 30
0.0
  0
SPLINE
  5
1f4
100
AcDbEntity
  8
Layer_1
 62
7
100
AcDbSpline
 70
8
 71
3
 72
8
 73
4
 74
0
 40
0
 40
0
 40
0
 40
0
 40
1
 40
1
 40
1
 40
1
 10
27.101485
 20
37.894425
 30
0.0
 10
27.206381
 20
37.200624
 30
0.0
 10
27.379498
 20
36.151304
 30
0.0
 10
27.486189
 20
35.562624
 30
0.0
  0
SPLINE
  5
1f5
100
AcDbEntity
  8
Layer_1
 62
7
100
AcDbSpline
 70
8
 71
3
 72
8
 73
4
 74
0
 40
0
 40
0
 40
0
 40
0
 40
1
 40
1
 40
1
 40
1
 10
27.486189
 20
35.562624
 30
0.0
 10
27.592881
 20
34.973934
 30
0.0
 10
27.778904
 20
34.055864
 30
0.0
 10
27.899574
 20
33.522464
 30
0.0
  0
SPLINE
  5
1f6
100
AcDbEntity
  8
Layer_1
 62
7
100
AcDbSpline
 70
8
 71
3
 72
8
 73
4
 74
0
 40
0
 40
0
 40
0
 40
0
 40
1
 40
1
 40
1
 40
1
 10
27.899574
 20
33.522464
 30
0.0
 10
28.020244
 20
32.989054
 30
0.0
 10
28.241634
 20
32.117304
 30
0.0
 10
28.391564
 20
31.585223
 30
0.0
  0
SPLINE
  5
1f7
100
AcDbEntity
  8
Layer_1
 62
7
100
AcDbSpline
 70
8
 71
3
 72
8
 73
4
 74
0
 40
0
 40
0
 40
0
 40
0
 40
1
 40
1
 40
1
 40
1
 10
28.391564
 20
31.585223
 30
0.0
 10
28.541484
 20
31.053153
 30
0.0
 10
28.819634
 20
30.188883
 30
0.0
 10
29.009674
 20
29.664623
 30
0.0
  0
SPLINE
  5
1f8
100
AcDbEntity
  8
Layer_1
 62
7
100
AcDbSpline
 70
8
 71
3
 72
8
 73
4
 74
0
 40
0
 40
0
 40
0
 40
0
 40
1
 40
1
 40
1
 40
1
 10
29.009674
 20
29.664623
 30
0.0
 10
29.199704
 20
29.140373
 30
0.0
 10
29.524074
 20
28.343553
 30
0.0
 10
29.730494
 20
27.893913
 30
0.0
  0
SPLINE
  5
1f9
100
AcDbEntity
  8
Layer_1
 62
7
100
AcDbSpline
 70
8
 71
3
 72
8
 73
4
 74
0
 40
0
 40
0
 40
0
 40
0
 40
1
 40
1
 40
1
 40
1
 10
29.730494
 20
27.893913
 30
0.0
 10
29.936914
 20
27.444273
 30
0.0
 10
30.317774
 20
26.680743
 30
0.0
 10
30.576854
 20
26.197173
 30
0.0
  0
SPLINE
  5
1fa
100
AcDbEntity
  8
Layer_1
 62
7
100
AcDbSpline
 70
8
 71
3
 72
8
 73
4
 74
0
 40
0
 40
0
 40
0
 40
0
 40
1
 40
1
 40
1
 40
1
 10
30.576854
 20
26.197173
 30
0.0
 10
30.835934
 20
25.713612
 30
0.0
 10
31.331894
 20
24.887922
 30
0.0
 10
31.678984
 20
24.362312
 30
0.0
  0
SPLINE
  5
1fb
100
AcDbEntity
  8
Layer_1
 62
7
100
AcDbSpline
 70
8
 71
3
 72
8
 73
4
 74
0
 40
0
 40
0
 40
0
 40
0
 40
1
 40
1
 40
1
 40
1
 10
31.678984
 20
24.362312
 30
0.0
 10
32.026085
 20
23.836702
 30
0.0
 10
32.546435
 20
23.114222
 30
0.0
 10
32.835325
 20
22.756812
 30
0.0
  0
SPLINE
  5
1fc
100
AcDbEntity
  8
Layer_1
 62
7
100
AcDbSpline
 70
8
 71
3
 72
8
 73
4
 74
0
 40
0
 40
0
 40
0
 40
0
 40
1
 40
1
 40
1
 40
1
 10
32.835325
 20
22.756812
 30
0.0
 10
33.124205
 20
22.399392
 30
0.0
 10
33.600585
 20
21.854262
 30
0.0
 10
33.893935
 20
21.545412
 30
0.0
  0
SPLINE
  5
1fd
100
AcDbEntity
  8
Layer_1
 62
7
100
AcDbSpline
 70
8
 71
3
 72
8
 73
4
 74
0
 40
0
 40
0
 40
0
 40
0
 40
1
 40
1
 40
1
 40
1
 10
33.893935
 20
21.545412
 30
0.0
 10
34.187285
 20
21.236562
 30
0.0
 10
34.686445
 20
20.768052
 30
0.0
 10
35.003185
 20
20.504292
 30
0.0
  0
SPLINE
  5
1fe
100
AcDbEntity
  8
Layer_1
 62
7
100
AcDbSpline
 70
8
 71
3
 72
8
 73
4
 74
0
 40
0
 40
0
 40
0
 40
0
 40
1
 40
1
 40
1
 40
1
 10
35.003185
 20
20.504292
 30
0.0
 10
35.319925
 20
20.240532
 30
0.0
 10
35.876515
 20
19.831131
 30
0.0
 10
36.240055
 20
19.594511
 30
0.0
  0
SPLINE
  5
1ff
100
AcDbEntity
  8
Layer_1
 62
7
100
AcDbSpline
 70
8
 71
3
 72
8
 73
4
 74
0
 40
0
 40
0
 40
0
 40
0
 40
1
 40
1
 40
1
 40
1
 10
36.240055
 20
19.594511
 30
0.0
 10
36.603595
 20
19.357891
 30
0.0
 10
37.131355
 20
19.060961
 30
0.0
 10
37.412835
 20
18.934671
 30
0.0
  0
SPLINE
  5
200
100
AcDbEntity
  8
Layer_1
 62
7
100
AcDbSpline
 70
8
 71
3
 72
8
 73
4
 74
0
 40
0
 40
0
 40
0
 40
0
 40
1
 40
1
 40
1
 40
1
 10
37.412835
 20
18.934671
 30
0.0
 10
37.694326
 20
18.808371
 30
0.0
 10
38.153766
 20
18.635741
 30
0.0
 10
38.433806
 20
18.551051
 30
0.0
  0
SPLINE
  5
201
100
AcDbEntity
  8
Layer_1
 62
7
100
AcDbSpline
 70
8
 71
3
 72
8
 73
4
 74
0
 40
0
 40
0
 40
0
 40
0
 40
1
 40
1
 40
1
 40
1
 10
38.433806
 20
18.551051
 30
0.0
 10
38.713856
 20
18.466351
 30
0.0
 10
39.149406
 20
18.365031
 30
0.0
 10
39.401696
 20
18.325891
 30
0.0
  0
SPLINE
  5
202
100
AcDbEntity
  8
Layer_1
 62
7
100
AcDbSpline
 70
8
 71
3
 72
8
 73
4
 74
0
 40
0
 40
0
 40
0
 40
0
 40
1
 40
1
 40
1
 40
1
 10
39.401696
 20
18.325891
 30
0.0
 10
39.653996
 20
18.286791
 30
0.0
 10
40.143866
 20
18.268291
 30
0.0
 10
40.490296
 20
18.284891
 30
0.0
  0
SPLINE
  5
203
100
AcDbEntity
  8
Layer_1
 62
7
100
AcDbSpline
 70
8
 71
3
 72
8
 73
4
 74
0
 40
0
 40
0
 40
0
 40
0
 40
1
 40
1
 40
1
 40
1
 10
40.490296
 20
18.284891
 30
0.0
 10
40.836736
 20
18.301491
 30
0.0
 10
41.352796
 20
18.371291
 30
0.0
 10
41.637086
 20
18.440161
 30
0.0
  0
LWPOLYLINE
  5
204
100
AcDbEntity
  8
Layer_1
 62
7
100
AcDbPolyline
 90
1
 70
1
 10
11.034969
 20
18.473471
 30
0.0
  0
SPLINE
  5
205
100
AcDbEntity
  8
Layer_1
 62
7
100
AcDbSpline
 70
8
 71
3
 72
8
 73
4
 74
0
 40
0
 40
0
 40
0
 40
0
 40
1
 40
1
 40
1
 40
1
 10
28.205041
 20
23.332472
 30
0.0
 10
28.243501
 20
23.356272
 30
0.0
 10
27.953142
 20
24.019122
 30
0.0
 10
27.559804
 20
24.805542
 30
0.0
  0
SPLINE
  5
206
100
AcDbEntity
  8
Layer_1
 62
7
100
AcDbSpline
 70
8
 71
3
 72
8
 73
4
 74
0
 40
0
 40
0
 40
0
 40
0
 40
1
 40
1
 40
1
 40
1
 10
27.559804
 20
24.805542
 30
0.0
 10
27.166465
 20
25.591962
 30
0.0
 10
26.665033
 20
26.648243
 30
0.0
 10
26.445511
 20
27.152833
 30
0.0
  0
SPLINE
  5
207
100
AcDbEntity
  8
Layer_1
 62
7
100
AcDbSpline
 70
8
 71
3
 72
8
 73
4
 74
0
 40
0
 40
0
 40
0
 40
0
 40
1
 40
1
 40
1
 40
1
 10
26.445511
 20
27.152833
 30
0.0
 10
26.225989
 20
27.657423
 30
0.0
 10
25.807079
 20
28.773023
 30
0.0
 10
25.514603
 20
29.631953
 30
0.0
  0
SPLINE
  5
208
100
AcDbEntity
  8
Layer_1
 62
7
100
AcDbSpline
 70
8
 71
3
 72
8
 73
4
 74
0
 40
0
 40
0
 40
0
 40
0
 40
1
 40
1
 40
1
 40
1
 10
25.514603
 20
29.631953
 30
0.0
 10
25.222127
 20
30.490883
 30
0.0
 10
24.954275
 20
31.244663
 30
0.0
 10
24.919378
 20
31.307023
 30
0.0
  0
SPLINE
  5
209
100
AcDbEntity
  8
Layer_1
 62
7
100
AcDbSpline
 70
8
 71
3
 72
8
 73
4
 74
0
 40
0
 40
0
 40
0
 40
0
 40
1
 40
1
 40
1
 40
1
 10
24.919378
 20
31.307023
 30
0.0
 10
24.865908
 20
31.402523
 30
0.0
 10
24.844068
 20
31.397423
 30
0.0
 10
24.780585
 20
31.274423
 30
0.0
  0
SPLINE
  5
20a
100
AcDbEntity
  8
Layer_1
 62
7
100
AcDbSpline
 70
8
 71
3
 72
8
 73
4
 74
0
 40
0
 40
0
 40
0
 40
0
 40
1
 40
1
 40
1
 40
1
 10
24.780585
 20
31.274423
 30
0.0
 10
24.739145
 20
31.194123
 30
0.0
 10
24.613094
 20
30.801573
 30
0.0
 10
24.500467
 20
30.402113
 30
0.0
  0
SPLINE
  5
20b
100
AcDbEntity
  8
Layer_1
 62
7
100
AcDbSpline
 70
8
 71
3
 72
8
 73
4
 74
0
 40
0
 40
0
 40
0
 40
0
 40
1
 40
1
 40
1
 40
1
 10
24.500467
 20
30.402113
 30
0.0
 10
24.387839
 20
30.002643
 30
0.0
 10
24.189985
 20
29.383383
 30
0.0
 10
24.060791
 20
29.025963
 30
0.0
  0
SPLINE
  5
20c
100
AcDbEntity
  8
Layer_1
 62
7
100
AcDbSpline
 70
8
 71
3
 72
8
 73
4
 74
0
 40
0
 40
0
 40
0
 40
0
 40
1
 40
1
 40
1
 40
1
 10
24.060791
 20
29.025963
 30
0.0
 10
23.931596
 20
28.668543
 30
0.0
 10
23.640494
 20
27.936823
 30
0.0
 10
23.413897
 20
27.399923
 30
0.0
  0
SPLINE
  5
20d
100
AcDbEntity
  8
Layer_1
 62
7
100
AcDbSpline
 70
8
 71
3
 72
8
 73
4
 74
0
 40
0
 40
0
 40
0
 40
0
 40
1
 40
1
 40
1
 40
1
 10
23.413897
 20
27.399923
 30
0.0
 10
23.187300
 20
26.863013
 30
0.0
 10
22.658168
 20
25.736912
 30
0.0
 10
22.238049
 20
24.897472
 30
0.0
  0
SPLINE
  5
20e
100
AcDbEntity
  8
Layer_1
 62
7
100
AcDbSpline
 70
8
 71
3
 72
8
 73
4
 74
0
 40
0
 40
0
 40
0
 40
0
 40
1
 40
1
 40
1
 40
1
 10
22.238049
 20
24.897472
 30
0.0
 10
21.506921
 20
23.436612
 30
0.0
 10
21.481552
 20
23.369512
 30
0.0
 10
21.645891
 20
23.331472
 30
0.0
  0
SPLINE
  5
20f
100
AcDbEntity
  8
Layer_1
 62
7
100
AcDbSpline
 70
8
 71
3
 72
8
 73
4
 74
0
 40
0
 40
0
 40
0
 40
0
 40
1
 40
1
 40
1
 40
1
 10
21.645891
 20
23.331472
 30
0.0
 10
21.740321
 20
23.309572
 30
0.0
 10
22.161621
 20
23.279072
 30
0.0
 10
22.582111
 20
23.263672
 30
0.0
  0
SPLINE
  5
210
100
AcDbEntity
  8
Layer_1
 62
7
100
AcDbSpline
 70
8
 71
3
 72
8
 73
4
 74
0
 40
0
 40
0
 40
0
 40
0
 40
1
 40
1
 40
1
 40
1
 10
22.582111
 20
23.263672
 30
0.0
 10
23.002600
 20
23.248272
 30
0.0
 10
24.424044
 20
23.247672
 30
0.0
 10
25.740876
 20
23.262672
 30
0.0
  0
SPLINE
  5
211
100
AcDbEntity
  8
Layer_1
 62
7
100
AcDbSpline
 70
8
 71
3
 72
8
 73
4
 74
0
 40
0
 40
0
 40
0
 40
0
 40
1
 40
1
 40
1
 40
1
 10
25.740876
 20
23.262672
 30
0.0
 10
27.057709
 20
23.277472
 30
0.0
 10
28.166583
 20
23.308972
 30
0.0
 10
28.205041
 20
23.332772
 30
0.0
  0
LWPOLYLINE
  5
212
100
AcDbEntity
  8
Layer_1
 62
7
100
AcDbPolyline
 90
1
 70
1
 10
41.637086
 20
18.440161
 30
0.0
  0
SPLINE
  5
213
100
AcDbEntity
  8
Layer_1
 62
7
100
AcDbSpline
 70
8
 71
3
 72
8
 73
4
 74
0
 40
0
 40
0
 40
0
 40
0
 40
1
 40
1
 40
1
 40
1
 10
17.212867
 20
53.034338
 30
0.0
 10
17.895308
 20
53.414023
 30
0.0
 10
19.434174
 20
54.218463
 30
0.0
 10
20.632569
 20
54.821983
 30
0.0
  0
SPLINE
  5
214
100
AcDbEntity
  8
Layer_1
 62
7
100
AcDbSpline
 70
8
 71
3
 72
8
 73
4
 74
0
 40
0
 40
0
 40
0
 40
0
 40
1
 40
1
 40
1
 40
1
 10
20.632569
 20
54.821983
 30
0.0
 10
21.830964
 20
55.425502
 30
0.0
 10
23.138303
 20
56.049453
 30
0.0
 10
23.537768
 20
56.208540
 30
0.0
  0
SPLINE
  5
215
100
AcDbEntity
  8
Layer_1
 62
7
100
AcDbSpline
 70
8
 71
3
 72
8
 73
4
 74
0
 40
0
 40
0
 40
0
 40
0
 40
1
 40
1
 40
1
 40
1
 10
23.537768
 20
56.208540
 30
0.0
 10
24.146092
 20
56.450807
 30
0.0
 10
24.357207
 20
56.498280
 30
0.0
 10
24.837462
 20
56.500805
 30
0.0
  0
SPLINE
  5
216
100
AcDbEntity
  8
Layer_1
 62
7
100
AcDbSpline
 70
8
 71
3
 72
8
 73
4
 74
0
 40
0
 40
0
 40
0
 40
0
 40
1
 40
1
 40
1
 40
1
 10
24.837462
 20
56.500805
 30
0.0
 10
25.244238
 20
56.502905
 30
0.0
 10
25.566368
 20
56.451405
 30
0.0
 10
25.946026
 20
56.323427
 30
0.0
  0
SPLINE
  5
217
100
AcDbEntity
  8
Layer_1
 62
7
100
AcDbSpline
 70
8
 71
3
 72
8
 73
4
 74
0
 40
0
 40
0
 40
0
 40
0
 40
1
 40
1
 40
1
 40
1
 10
25.946026
 20
56.323427
 30
0.0
 10
26.240369
 20
56.224207
 30
0.0
 10
27.599314
 20
55.582242
 30
0.0
 10
28.965904
 20
54.896829
 30
0.0
  0
SPLINE
  5
218
100
AcDbEntity
  8
Layer_1
 62
7
100
AcDbSpline
 70
8
 71
3
 72
8
 73
4
 74
0
 40
0
 40
0
 40
0
 40
0
 40
1
 40
1
 40
1
 40
1
 10
28.965904
 20
54.896829
 30
0.0
 10
30.332494
 20
54.211415
 30
0.0
 10
31.976505
 20
53.356633
 30
0.0
 10
32.619275
 20
52.997312
 30
0.0
  0
SPLINE
  5
219
100
AcDbEntity
  8
Layer_1
 62
7
100
AcDbSpline
 70
8
 71
3
 72
8
 73
4
 74
0
 40
0
 40
0
 40
0
 40
0
 40
1
 40
1
 40
1
 40
1
 10
32.619275
 20
52.997312
 30
0.0
 10
33.262035
 20
52.637992
 30
0.0
 10
33.818005
 20
52.344002
 30
0.0
 10
33.854765
 20
52.344002
 30
0.0
  0
SPLINE
  5
21a
100
AcDbEntity
  8
Layer_1
 62
7
100
AcDbSpline
 70
8
 71
3
 72
8
 73
4
 74
0
 40
0
 40
0
 40
0
 40
0
 40
1
 40
1
 40
1
 40
1
 10
33.854765
 20
52.344002
 30
0.0
 10
33.891565
 20
52.344002
 30
0.0
 10
33.946265
 20
52.640029
 30
0.0
 10
33.976395
 20
53.001838
 30
0.0
  0
SPLINE
  5
21b
100
AcDbEntity
  8
Layer_1
 62
7
100
AcDbSpline
 70
8
 71
3
 72
8
 73
4
 74
0
 40
0
 40
0
 40
0
 40
0
 40
1
 40
1
 40
1
 40
1
 10
33.976395
 20
53.001838
 30
0.0
 10
34.006495
 20
53.363649
 30
0.0
 10
34.012695
 20
54.318351
 30
0.0
 10
33.990095
 20
55.123399
 30
0.0
  0
SPLINE
  5
21c
100
AcDbEntity
  8
Layer_1
 62
7
100
AcDbSpline
 70
8
 71
3
 72
8
 73
4
 74
0
 40
0
 40
0
 40
0
 40
0
 40
1
 40
1
 40
1
 40
1
 10
33.990095
 20
55.123399
 30
0.0
 10
33.958995
 20
56.230167
 30
0.0
 10
33.911395
 20
56.736278
 30
0.0
 10
33.794875
 20
57.198744
 30
0.0
  0
SPLINE
  5
21d
100
AcDbEntity
  8
Layer_1
 62
7
100
AcDbSpline
 70
8
 71
3
 72
8
 73
4
 74
0
 40
0
 40
0
 40
0
 40
0
 40
1
 40
1
 40
1
 40
1
 10
33.794875
 20
57.198744
 30
0.0
 10
33.710075
 20
57.535135
 30
0.0
 10
33.519185
 20
58.098453
 30
0.0
 10
33.370625
 20
58.450562
 30
0.0
  0
SPLINE
  5
21e
100
AcDbEntity
  8
Layer_1
 62
7
100
AcDbSpline
 70
8
 71
3
 72
8
 73
4
 74
0
 40
0
 40
0
 40
0
 40
0
 40
1
 40
1
 40
1
 40
1
 10
33.370625
 20
58.450562
 30
0.0
 10
33.222055
 20
58.802671
 30
0.0
 10
32.956865
 20
59.335928
 30
0.0
 10
32.781305
 20
59.635577
 30
0.0
  0
SPLINE
  5
21f
100
AcDbEntity
  8
Layer_1
 62
7
100
AcDbSpline
 70
8
 71
3
 72
8
 73
4
 74
0
 40
0
 40
0
 40
0
 40
0
 40
1
 40
1
 40
1
 40
1
 10
32.781305
 20
59.635577
 30
0.0
 10
32.605745
 20
59.935227
 30
0.0
 10
32.271525
 20
60.438423
 30
0.0
 10
32.038595
 20
60.753791
 30
0.0
  0
SPLINE
  5
220
100
AcDbEntity
  8
Layer_1
 62
7
100
AcDbSpline
 70
8
 71
3
 72
8
 73
4
 74
0
 40
0
 40
0
 40
0
 40
0
 40
1
 40
1
 40
1
 40
1
 10
32.038595
 20
60.753791
 30
0.0
 10
31.805665
 20
61.069158
 30
0.0
 10
31.268444
 20
61.671222
 30
0.0
 10
30.844764
 20
62.091712
 30
0.0
  0
SPLINE
  5
221
100
AcDbEntity
  8
Layer_1
 62
7
100
AcDbSpline
 70
8
 71
3
 72
8
 73
4
 74
0
 40
0
 40
0
 40
0
 40
0
 40
1
 40
1
 40
1
 40
1
 10
30.844764
 20
62.091712
 30
0.0
 10
30.421084
 20
62.512201
 30
0.0
 10
29.754824
 20
63.074098
 30
0.0
 10
29.364184
 20
63.340372
 30
0.0
  0
SPLINE
  5
222
100
AcDbEntity
  8
Layer_1
 62
7
100
AcDbSpline
 70
8
 71
3
 72
8
 73
4
 74
0
 40
0
 40
0
 40
0
 40
0
 40
1
 40
1
 40
1
 40
1
 10
29.364184
 20
63.340372
 30
0.0
 10
28.973544
 20
63.606645
 30
0.0
 10
28.335024
 20
63.975570
 30
0.0
 10
27.945262
 20
64.160203
 30
0.0
  0
SPLINE
  5
223
100
AcDbEntity
  8
Layer_1
 62
7
100
AcDbSpline
 70
8
 71
3
 72
8
 73
4
 74
0
 40
0
 40
0
 40
0
 40
0
 40
1
 40
1
 40
1
 40
1
 10
27.945262
 20
64.160203
 30
0.0
 10
27.555498
 20
64.344836
 30
0.0
 10
26.860206
 20
64.588891
 30
0.0
 10
26.400171
 20
64.702547
 30
0.0
  0
SPLINE
  5
224
100
AcDbEntity
  8
Layer_1
 62
7
100
AcDbSpline
 70
8
 71
3
 72
8
 73
4
 74
0
 40
0
 40
0
 40
0
 40
0
 40
1
 40
1
 40
1
 40
1
 10
26.400171
 20
64.702547
 30
0.0
 10
25.785686
 20
64.854362
 30
0.0
 10
25.371020
 20
64.909038
 30
0.0
 10
24.837442
 20
64.908602
 30
0.0
  0
SPLINE
  5
225
100
AcDbEntity
  8
Layer_1
 62
7
100
AcDbSpline
 70
8
 71
3
 72
8
 73
4
 74
0
 40
0
 40
0
 40
0
 40
0
 40
1
 40
1
 40
1
 40
1
 10
24.837442
 20
64.908602
 30
0.0
 10
24.307842
 20
64.908143
 30
0.0
 10
23.893738
 20
64.853362
 30
0.0
 10
23.308390
 20
64.706242
 30
0.0
  0
SPLINE
  5
226
100
AcDbEntity
  8
Layer_1
 62
7
100
AcDbSpline
 70
8
 71
3
 72
8
 73
4
 74
0
 40
0
 40
0
 40
0
 40
0
 40
1
 40
1
 40
1
 40
1
 10
23.308390
 20
64.706242
 30
0.0
 10
22.798243
 20
64.578019
 30
0.0
 10
22.195334
 20
64.350969
 30
0.0
 10
21.654328
 20
64.083335
 30
0.0
  0
SPLINE
  5
227
100
AcDbEntity
  8
Layer_1
 62
7
100
AcDbSpline
 70
8
 71
3
 72
8
 73
4
 74
0
 40
0
 40
0
 40
0
 40
0
 40
1
 40
1
 40
1
 40
1
 10
21.654328
 20
64.083335
 30
0.0
 10
21.186108
 20
63.851708
 30
0.0
 10
20.515236
 20
63.449536
 30
0.0
 10
20.163502
 20
63.189620
 30
0.0
  0
SPLINE
  5
228
100
AcDbEntity
  8
Layer_1
 62
7
100
AcDbSpline
 70
8
 71
3
 72
8
 73
4
 74
0
 40
0
 40
0
 40
0
 40
0
 40
1
 40
1
 40
1
 40
1
 10
20.163502
 20
63.189620
 30
0.0
 10
19.811768
 20
62.929703
 30
0.0
 10
19.197151
 20
62.386265
 30
0.0
 10
18.797686
 20
61.981979
 30
0.0
  0
SPLINE
  5
229
100
AcDbEntity
  8
Layer_1
 62
7
100
AcDbSpline
 70
8
 71
3
 72
8
 73
4
 74
0
 40
0
 40
0
 40
0
 40
0
 40
1
 40
1
 40
1
 40
1
 10
18.797686
 20
61.981979
 30
0.0
 10
18.398221
 20
61.577694
 30
0.0
 10
17.916570
 20
61.032923
 30
0.0
 10
17.727350
 20
60.771377
 30
0.0
  0
SPLINE
  5
22a
100
AcDbEntity
  8
Layer_1
 62
7
100
AcDbSpline
 70
8
 71
3
 72
8
 73
4
 74
0
 40
0
 40
0
 40
0
 40
0
 40
1
 40
1
 40
1
 40
1
 10
17.727350
 20
60.771377
 30
0.0
 10
17.538129
 20
60.509832
 30
0.0
 10
17.204171
 20
60.000581
 30
0.0
 10
16.985219
 20
59.639710
 30
0.0
  0
SPLINE
  5
22b
100
AcDbEntity
  8
Layer_1
 62
7
100
AcDbSpline
 70
8
 71
3
 72
8
 73
4
 74
0
 40
0
 40
0
 40
0
 40
0
 40
1
 40
1
 40
1
 40
1
 10
16.985219
 20
59.639710
 30
0.0
 10
16.766267
 20
59.278840
 30
0.0
 10
16.479100
 20
58.703466
 30
0.0
 10
16.347071
 20
58.361102
 30
0.0
  0
SPLINE
  5
22c
100
AcDbEntity
  8
Layer_1
 62
7
100
AcDbSpline
 70
8
 71
3
 72
8
 73
4
 74
0
 40
0
 40
0
 40
0
 40
0
 40
1
 40
1
 40
1
 40
1
 10
16.347071
 20
58.361102
 30
0.0
 10
16.215042
 20
58.018738
 30
0.0
 10
16.038838
 20
57.479534
 30
0.0
 10
15.955507
 20
57.162872
 30
0.0
  0
SPLINE
  5
22d
100
AcDbEntity
  8
Layer_1
 62
7
100
AcDbSpline
 70
8
 71
3
 72
8
 73
4
 74
0
 40
0
 40
0
 40
0
 40
0
 40
1
 40
1
 40
1
 40
1
 10
15.955507
 20
57.162872
 30
0.0
 10
15.852647
 20
56.771995
 30
0.0
 10
15.790344
 20
56.218892
 30
0.0
 10
15.761474
 20
55.440334
 30
0.0
  0
SPLINE
  5
22e
100
AcDbEntity
  8
Layer_1
 62
7
100
AcDbSpline
 70
8
 71
3
 72
8
 73
4
 74
0
 40
0
 40
0
 40
0
 40
0
 40
1
 40
1
 40
1
 40
1
 10
15.761474
 20
55.440334
 30
0.0
 10
15.738084
 20
54.809600
 30
0.0
 10
15.744254
 20
53.854897
 30
0.0
 10
15.775194
 20
53.318773
 30
0.0
  0
SPLINE
  5
22f
100
AcDbEntity
  8
Layer_1
 62
7
100
AcDbSpline
 70
8
 71
3
 72
8
 73
4
 74
0
 40
0
 40
0
 40
0
 40
0
 40
1
 40
1
 40
1
 40
1
 10
15.775194
 20
53.318773
 30
0.0
 10
15.806124
 20
52.782649
 30
0.0
 10
15.863074
 20
52.344002
 30
0.0
 10
15.901741
 20
52.344002
 30
0.0
  0
SPLINE
  5
230
100
AcDbEntity
  8
Layer_1
 62
7
100
AcDbSpline
 70
8
 71
3
 72
8
 73
4
 74
0
 40
0
 40
0
 40
0
 40
0
 40
1
 40
1
 40
1
 40
1
 10
15.901741
 20
52.344002
 30
0.0
 10
15.940411
 20
52.344002
 30
0.0
 10
16.530409
 20
52.654654
 30
0.0
 10
17.212850
 20
53.034338
 30
0.0
  0
LWPOLYLINE
  5
231
100
AcDbEntity
  8
Layer_1
 62
7
100
AcDbPolyline
 90
2
 70
0
 10
28.205041
 20
23.332772
 30
0.0
 10
28.205041
 20
23.332472
 30
0.0
  0
LWPOLYLINE
  5
232
100
AcDbEntity
  8
Layer_1
 62
7
100
AcDbPolyline
 90
1
 70
1
 10
17.212850
 20
53.034338
 30
0.0
  0
ENDSEC
  0
SECTION
  2
OBJECTS
  0
DICTIONARY
  5
C
330
0
100
AcDbDictionary
  3
ACAD_GROUP
350
D
  3
ACAD_MLINESTYLE
350
17
  0
DICTIONARY
  5
D
330
C
100
AcDbDictionary
  0
DICTIONARY
  5
1A
330
C
100
AcDbDictionary
  0
DICTIONARY
  5
17
330
C
100
AcDbDictionary
  3
STANDARD
350
18
  0
DICTIONARY
  5
19
330
C
100
AcDbDictionary
  0
ENDSEC
  0
EOF
