  0
SECTION
  2
HEADER
  9
$ACADVER
  1
AC1014
  9
$HANDSEED
  5
FFFF
  9
$MEASUREMENT
 70
     1
  0
ENDSEC
  0
SECTION
  2
TABLES
  0
TABLE
  2
VPORT
  5
8
330
0
100
AcDbSymbolTable
 70
     4
  0
VPORT
  5
2E
330
8
100
AcDbSymbolTableRecord
100
AcDbViewportTableRecord
  2
*ACTIVE
 70
     0
 10
0.0
 20
0.0
 11
1.0
 21
1.0
 12
210.0
 22
148.5
 13
0.0
 23
0.0
 14
10.0
 24
10.0
 15
10.0
 25
10.0
 16
0.0
 26
0.0
 36
1.0
 17
0.0
 27
0.0
 37
0.0
 40
341.0
 41
1.24
 42
50.0
 43
0.0
 44
0.0
 50
0.0
 51
0.0
 71
     0
 72
   100
 73
     1
 74
     3
 75
     0
 76
     0
 77
     0
 78
     0
  0
ENDTAB
  0
TABLE
  2
LTYPE
  5
5
330
0
100
AcDbSymbolTable
 70
     1
  0
LTYPE
  5
14
330
5
100
AcDbSymbolTableRecord
100
AcDbLinetypeTableRecord
  2
BYBLOCK
 70
     0
  3

 72
    65
 73
     0
 40
0.0
  0
LTYPE
  5
15
330
5
100
AcDbSymbolTableRecord
100
AcDbLinetypeTableRecord
  2
BYLAYER
 70
     0
  3

 72
    65
 73
     0
 40
0.0
  0
LTYPE
  5
16
330
5
100
AcDbSymbolTableRecord
100
AcDbLinetypeTableRecord
  2
CONTINUOUS
 70
     0
  3
Solid line
 72
    65
 73
     0
 40
0.0
  0
ENDTAB
  0
TABLE
  2
LAYER
  5
2
100
AcDbSymbolTable
 70
2
  0
LAYER
  5
50
100
AcDbSymbolTableRecord
100
AcDbLayerTableRecord
  2
0
 70
0
  6
CONTINUOUS
  0
LAYER
  5
51
100
AcDbSymbolTableRecord
100
AcDbLayerTableRecord
  2
Layer_1
 70
0
  6
CONTINUOUS
  0
ENDTAB
  0
TABLE
  2
STYLE
  5
3
330
0
100
AcDbSymbolTable
 70
     1
  0
STYLE
  5
11
330
3
100
AcDbSymbolTableRecord
100
AcDbTextStyleTableRecord
  2
STANDARD
 70
     0
 40
0.0
 41
1.0
 50
0.0
 71
     0
 42
2.5
  3
txt
  4

  0
ENDTAB
  0
TABLE
  2
VIEW
  5
6
330
0
100
AcDbSymbolTable
 70
     0
  0
ENDTAB
  0
TABLE
  2
UCS
  5
7
330
0
100
AcDbSymbolTable
 70
     0
  0
ENDTAB
  0
TABLE
  2
APPID
  5
9
330
0
100
AcDbSymbolTable
 70
     2
  0
APPID
  5
12
330
9
100
AcDbSymbolTableRecord
100
AcDbRegAppTableRecord
  2
ACAD
 70
     0
  0
ENDTAB
  0
TABLE
  2
DIMSTYLE
  5
A
330
0
100
AcDbSymbolTable
 70
     1
  0
DIMSTYLE
105
27
330
A
100
AcDbSymbolTableRecord
100
AcDbDimStyleTableRecord
  2
ISO-25
 70
     0
  3

  4

  5

  6

  7

 40
1.0
 41
2.5
 42
0.625
 43
3.75
 44
1.25
 45
0.0
 46
0.0
 47
0.0
 48
0.0
140
2.5
141
2.5
142
0.0
143
0.03937007874016
144
1.0
145
0.0
146
1.0
147
0.625
 71
     0
 72
     0
 73
     0
 74
     0
 75
     0
 76
     0
 77
     1
 78
     8
170
     0
171
     3
172
     1
173
     0
174
     0
175
     0
176
     0
177
     0
178
     0
270
     2
271
     2
272
     2
273
     2
274
     3
340
11
275
     0
280
     0
281
     0
282
     0
283
     0
284
     8
285
     0
286
     0
287
     3
288
     0
  0
ENDTAB
  0
TABLE
  2
BLOCK_RECORD
  5
1
330
0
100
AcDbSymbolTable
 70
     1
  0
BLOCK_RECORD
  5
1F
330
1
100
AcDbSymbolTableRecord
100
AcDbBlockTableRecord
  2
*MODEL_SPACE
  0
BLOCK_RECORD
  5
1B
330
1
100
AcDbSymbolTableRecord
100
AcDbBlockTableRecord
  2
*PAPER_SPACE
  0
ENDTAB
  0
ENDSEC
  0
SECTION
  2
BLOCKS
  0
BLOCK
  5
20
330
1F
100
AcDbEntity
  8
0
100
AcDbBlockBegin
  2
*MODEL_SPACE
 70
     0
 10
0.0
 20
0.0
 30
0.0
  3
*MODEL_SPACE
  1

  0
ENDBLK
  5
21
330
1F
100
AcDbEntity
  8
0
100
AcDbBlockEnd
  0
BLOCK
  5
1C
330
1B
100
AcDbEntity
 67
     1
  8
0
100
AcDbBlockBegin
  2
*PAPER_SPACE
  1

  0
ENDBLK
  5
1D
330
1B
100
AcDbEntity
 67
     1
  8
0
100
AcDbBlockEnd
  0
ENDSEC
  0
SECTION
  2
ENTITIES
  0
SPLINE
  5
100
100
AcDbEntity
  8
Layer_1
 62
7
100
AcDbSpline
 70
8
 71
3
 72
8
 73
4
 74
0
 40
0
 40
0
 40
0
 40
0
 40
1
 40
1
 40
1
 40
1
 10
24.332737
 20
0.036592
 30
0.0
 10
24.181254
 20
0.093192
 30
0.0
 10
23.837217
 20
0.262742
 30
0.0
 10
23.568211
 20
0.413262
 30
0.0
  0
SPLINE
  5
101
100
AcDbEntity
  8
Layer_1
 62
7
100
AcDbSpline
 70
8
 71
3
 72
8
 73
4
 74
0
 40
0
 40
0
 40
0
 40
0
 40
1
 40
1
 40
1
 40
1
 10
23.568211
 20
0.413262
 30
0.0
 10
23.299204
 20
0.563772
 30
0.0
 10
22.408236
 20
1.131442
 30
0.0
 10
21.588282
 20
1.674752
 30
0.0
  0
SPLINE
  5
102
100
AcDbEntity
  8
Layer_1
 62
7
100
AcDbSpline
 70
8
 71
3
 72
8
 73
4
 74
0
 40
0
 40
0
 40
0
 40
0
 40
1
 40
1
 40
1
 40
1
 10
21.588282
 20
1.674752
 30
0.0
 10
20.768327
 20
2.218052
 30
0.0
 10
19.682702
 20
2.972843
 30
0.0
 10
19.175782
 20
3.352063
 30
0.0
  0
SPLINE
  5
103
100
AcDbEntity
  8
Layer_1
 62
7
100
AcDbSpline
 70
8
 71
3
 72
8
 73
4
 74
0
 40
0
 40
0
 40
0
 40
0
 40
1
 40
1
 40
1
 40
1
 10
19.175782
 20
3.352063
 30
0.0
 10
18.668862
 20
3.731283
 30
0.0
 10
17.843174
 20
4.386113
 30
0.0
 10
17.340920
 20
4.807223
 30
0.0
  0
SPLINE
  5
104
100
AcDbEntity
  8
Layer_1
 62
7
100
AcDbSpline
 70
8
 71
3
 72
8
 73
4
 74
0
 40
0
 40
0
 40
0
 40
0
 40
1
 40
1
 40
1
 40
1
 10
17.340920
 20
4.807223
 30
0.0
 10
16.838665
 20
5.228343
 30
0.0
 10
15.976344
 20
6.038073
 30
0.0
 10
15.424649
 20
6.606633
 30
0.0
  0
SPLINE
  5
105
100
AcDbEntity
  8
Layer_1
 62
7
100
AcDbSpline
 70
8
 71
3
 72
8
 73
4
 74
0
 40
0
 40
0
 40
0
 40
0
 40
1
 40
1
 40
1
 40
1
 10
15.424649
 20
6.606633
 30
0.0
 10
14.793235
 20
7.257343
 30
0.0
 10
14.234297
 20
7.921673
 30
0.0
 10
13.916149
 20
8.399563
 30
0.0
  0
SPLINE
  5
106
100
AcDbEntity
  8
Layer_1
 62
7
100
AcDbSpline
 70
8
 71
3
 72
8
 73
4
 74
0
 40
0
 40
0
 40
0
 40
0
 40
1
 40
1
 40
1
 40
1
 10
13.916149
 20
8.399563
 30
0.0
 10
13.638169
 20
8.817124
 30
0.0
 10
13.305664
 20
9.413554
 30
0.0
 10
13.177250
 20
9.724964
 30
0.0
  0
SPLINE
  5
107
100
AcDbEntity
  8
Layer_1
 62
7
100
AcDbSpline
 70
8
 71
3
 72
8
 73
4
 74
0
 40
0
 40
0
 40
0
 40
0
 40
1
 40
1
 40
1
 40
1
 10
13.177250
 20
9.724964
 30
0.0
 10
13.048835
 20
10.036374
 30
0.0
 10
12.825681
 20
10.670544
 30
0.0
 10
12.681352
 20
11.134224
 30
0.0
  0
SPLINE
  5
108
100
AcDbEntity
  8
Layer_1
 62
7
100
AcDbSpline
 70
8
 71
3
 72
8
 73
4
 74
0
 40
0
 40
0
 40
0
 40
0
 40
1
 40
1
 40
1
 40
1
 10
12.681352
 20
11.134224
 30
0.0
 10
12.537024
 20
11.597914
 30
0.0
 10
12.316950
 20
12.407344
 30
0.0
 10
12.192300
 20
12.932954
 30
0.0
  0
SPLINE
  5
109
100
AcDbEntity
  8
Layer_1
 62
7
100
AcDbSpline
 70
8
 71
3
 72
8
 73
4
 74
0
 40
0
 40
0
 40
0
 40
0
 40
1
 40
1
 40
1
 40
1
 10
12.192300
 20
12.932954
 30
0.0
 10
12.067650
 20
13.458574
 30
0.0
 10
11.927108
 20
14.130334
 30
0.0
 10
11.879985
 20
14.425775
 30
0.0
  0
SPLINE
  5
10a
100
AcDbEntity
  8
Layer_1
 62
7
100
AcDbSpline
 70
8
 71
3
 72
8
 73
4
 74
0
 40
0
 40
0
 40
0
 40
0
 40
1
 40
1
 40
1
 40
1
 10
11.879985
 20
14.425775
 30
0.0
 10
11.832865
 20
14.721215
 30
0.0
 10
11.766780
 20
15.007475
 30
0.0
 10
11.733134
 20
15.061915
 30
0.0
  0
SPLINE
  5
10b
100
AcDbEntity
  8
Layer_1
 62
7
100
AcDbSpline
 70
8
 71
3
 72
8
 73
4
 74
0
 40
0
 40
0
 40
0
 40
0
 40
1
 40
1
 40
1
 40
1
 10
11.733134
 20
15.061915
 30
0.0
 10
11.683724
 20
15.141815
 30
0.0
 10
11.577928
 20
15.143215
 30
0.0
 10
11.182873
 20
15.068915
 30
0.0
  0
SPLINE
  5
10c
100
AcDbEntity
  8
Layer_1
 62
7
100
AcDbSpline
 70
8
 71
3
 72
8
 73
4
 74
0
 40
0
 40
0
 40
0
 40
0
 40
1
 40
1
 40
1
 40
1
 10
11.182873
 20
15.068915
 30
0.0
 10
10.910566
 20
15.017715
 30
0.0
 10
10.083825
 20
14.978415
 30
0.0
 10
9.317637
 20
14.980315
 30
0.0
  0
SPLINE
  5
10d
100
AcDbEntity
  8
Layer_1
 62
7
100
AcDbSpline
 70
8
 71
3
 72
8
 73
4
 74
0
 40
0
 40
0
 40
0
 40
0
 40
1
 40
1
 40
1
 40
1
 10
9.317637
 20
14.980315
 30
0.0
 10
8.184331
 20
14.983315
 30
0.0
 10
7.833561
 20
15.011515
 30
0.0
 10
7.329869
 20
15.141265
 30
0.0
  0
SPLINE
  5
10e
100
AcDbEntity
  8
Layer_1
 62
7
100
AcDbSpline
 70
8
 71
3
 72
8
 73
4
 74
0
 40
0
 40
0
 40
0
 40
0
 40
1
 40
1
 40
1
 40
1
 10
7.329869
 20
15.141265
 30
0.0
 10
6.993477
 20
15.227965
 30
0.0
 10
6.305404
 20
15.506465
 30
0.0
 10
5.800817
 20
15.760205
 30
0.0
  0
SPLINE
  5
10f
100
AcDbEntity
  8
Layer_1
 62
7
100
AcDbSpline
 70
8
 71
3
 72
8
 73
4
 74
0
 40
0
 40
0
 40
0
 40
0
 40
1
 40
1
 40
1
 40
1
 10
5.800817
 20
15.760205
 30
0.0
 10
5.296230
 20
16.013945
 30
0.0
 10
4.589238
 20
16.442165
 30
0.0
 10
4.229724
 20
16.711795
 30
0.0
  0
SPLINE
  5
110
100
AcDbEntity
  8
Layer_1
 62
7
100
AcDbSpline
 70
8
 71
3
 72
8
 73
4
 74
0
 40
0
 40
0
 40
0
 40
0
 40
1
 40
1
 40
1
 40
1
 10
4.229724
 20
16.711795
 30
0.0
 10
3.870210
 20
16.981415
 30
0.0
 10
3.244697
 20
17.547255
 30
0.0
 10
2.839695
 20
17.969215
 30
0.0
  0
SPLINE
  5
111
100
AcDbEntity
  8
Layer_1
 62
7
100
AcDbSpline
 70
8
 71
3
 72
8
 73
4
 74
0
 40
0
 40
0
 40
0
 40
0
 40
1
 40
1
 40
1
 40
1
 10
2.839695
 20
17.969215
 30
0.0
 10
2.434694
 20
18.391165
 30
0.0
 10
1.968068
 20
18.935805
 30
0.0
 10
1.802750
 20
19.179515
 30
0.0
  0
SPLINE
  5
112
100
AcDbEntity
  8
Layer_1
 62
7
100
AcDbSpline
 70
8
 71
3
 72
8
 73
4
 74
0
 40
0
 40
0
 40
0
 40
0
 40
1
 40
1
 40
1
 40
1
 10
1.802750
 20
19.179515
 30
0.0
 10
1.637431
 20
19.423225
 30
0.0
 10
1.389387
 20
19.846255
 30
0.0
 10
1.251541
 20
20.119565
 30
0.0
  0
SPLINE
  5
113
100
AcDbEntity
  8
Layer_1
 62
7
100
AcDbSpline
 70
8
 71
3
 72
8
 73
4
 74
0
 40
0
 40
0
 40
0
 40
0
 40
1
 40
1
 40
1
 40
1
 10
1.251541
 20
20.119565
 30
0.0
 10
1.113694
 20
20.392886
 30
0.0
 10
0.902184
 20
20.901376
 30
0.0
 10
0.781518
 20
21.249536
 30
0.0
  0
SPLINE
  5
114
100
AcDbEntity
  8
Layer_1
 62
7
100
AcDbSpline
 70
8
 71
3
 72
8
 73
4
 74
0
 40
0
 40
0
 40
0
 40
0
 40
1
 40
1
 40
1
 40
1
 10
0.781518
 20
21.249536
 30
0.0
 10
0.660852
 20
21.597696
 30
0.0
 10
0.479253
 20
22.201516
 30
0.0
 10
0.377965
 20
22.591356
 30
0.0
  0
SPLINE
  5
115
100
AcDbEntity
  8
Layer_1
 62
7
100
AcDbSpline
 70
8
 71
3
 72
8
 73
4
 74
0
 40
0
 40
0
 40
0
 40
0
 40
1
 40
1
 40
1
 40
1
 10
0.377965
 20
22.591356
 30
0.0
 10
0.276677
 20
22.981196
 30
0.0
 10
0.152848
 20
23.652456
 30
0.0
 10
0.102789
 20
24.083046
 30
0.0
  0
SPLINE
  5
116
100
AcDbEntity
  8
Layer_1
 62
7
100
AcDbSpline
 70
8
 71
3
 72
8
 73
4
 74
0
 40
0
 40
0
 40
0
 40
0
 40
1
 40
1
 40
1
 40
1
 10
0.102789
 20
24.083046
 30
0.0
 10
0.041789
 20
24.607736
 30
0.0
 10
0.024169
 20
25.678066
 30
0.0
 10
0.049349
 20
27.328377
 30
0.0
  0
SPLINE
  5
117
100
AcDbEntity
  8
Layer_1
 62
7
100
AcDbSpline
 70
8
 71
3
 72
8
 73
4
 74
0
 40
0
 40
0
 40
0
 40
0
 40
1
 40
1
 40
1
 40
1
 10
0.049349
 20
27.328377
 30
0.0
 10
0.075649
 20
29.051597
 30
0.0
 10
0.123289
 20
30.013037
 30
0.0
 10
0.208042
 20
30.531047
 30
0.0
  0
SPLINE
  5
118
100
AcDbEntity
  8
Layer_1
 62
7
100
AcDbSpline
 70
8
 71
3
 72
8
 73
4
 74
0
 40
0
 40
0
 40
0
 40
0
 40
1
 40
1
 40
1
 40
1
 10
0.208042
 20
30.531047
 30
0.0
 10
0.274652
 20
30.938177
 30
0.0
 10
0.418946
 20
31.626247
 30
0.0
 10
0.528687
 20
32.060098
 30
0.0
  0
SPLINE
  5
119
100
AcDbEntity
  8
Layer_1
 62
7
100
AcDbSpline
 70
8
 71
3
 72
8
 73
4
 74
0
 40
0
 40
0
 40
0
 40
0
 40
1
 40
1
 40
1
 40
1
 10
0.528687
 20
32.060098
 30
0.0
 10
0.638428
 20
32.493958
 30
0.0
 10
0.877604
 20
33.296178
 30
0.0
 10
1.060189
 20
33.842818
 30
0.0
  0
SPLINE
  5
11a
100
AcDbEntity
  8
Layer_1
 62
7
100
AcDbSpline
 70
8
 71
3
 72
8
 73
4
 74
0
 40
0
 40
0
 40
0
 40
0
 40
1
 40
1
 40
1
 40
1
 10
1.060189
 20
33.842818
 30
0.0
 10
1.242774
 20
34.389448
 30
0.0
 10
1.586466
 20
35.265818
 30
0.0
 10
1.823950
 20
35.790298
 30
0.0
  0
SPLINE
  5
11b
100
AcDbEntity
  8
Layer_1
 62
7
100
AcDbSpline
 70
8
 71
3
 72
8
 73
4
 74
0
 40
0
 40
0
 40
0
 40
0
 40
1
 40
1
 40
1
 40
1
 10
1.823950
 20
35.790298
 30
0.0
 10
2.061434
 20
36.314768
 30
0.0
 10
2.448935
 20
37.106058
 30
0.0
 10
2.685064
 20
37.548709
 30
0.0
  0
SPLINE
  5
11c
100
AcDbEntity
  8
Layer_1
 62
7
100
AcDbSpline
 70
8
 71
3
 72
8
 73
4
 74
0
 40
0
 40
0
 40
0
 40
0
 40
1
 40
1
 40
1
 40
1
 10
2.685064
 20
37.548709
 30
0.0
 10
2.921193
 20
37.991349
 30
0.0
 10
3.389191
 20
38.817969
 30
0.0
 10
3.725060
 20
39.385629
 30
0.0
  0
SPLINE
  5
11d
100
AcDbEntity
  8
Layer_1
 62
7
100
AcDbSpline
 70
8
 71
3
 72
8
 73
4
 74
0
 40
0
 40
0
 40
0
 40
0
 40
1
 40
1
 40
1
 40
1
 10
3.725060
 20
39.385629
 30
0.0
 10
4.060928
 20
39.953289
 30
0.0
 10
4.644991
 20
40.882189
 30
0.0
 10
5.022977
 20
41.449850
 30
0.0
  0
SPLINE
  5
11e
100
AcDbEntity
  8
Layer_1
 62
7
100
AcDbSpline
 70
8
 71
3
 72
8
 73
4
 74
0
 40
0
 40
0
 40
0
 40
0
 40
1
 40
1
 40
1
 40
1
 10
5.022977
 20
41.449850
 30
0.0
 10
5.400962
 20
42.017510
 30
0.0
 10
5.990809
 20
42.860400
 30
0.0
 10
6.333746
 20
43.322939
 30
0.0
  0
SPLINE
  5
11f
100
AcDbEntity
  8
Layer_1
 62
7
100
AcDbSpline
 70
8
 71
3
 72
8
 73
4
 74
0
 40
0
 40
0
 40
0
 40
0
 40
1
 40
1
 40
1
 40
1
 10
6.333746
 20
43.322939
 30
0.0
 10
6.676684
 20
43.785478
 30
0.0
 10
7.230006
 20
44.490753
 30
0.0
 10
7.563349
 20
44.890218
 30
0.0
  0
SPLINE
  5
120
100
AcDbEntity
  8
Layer_1
 62
7
100
AcDbSpline
 70
8
 71
3
 72
8
 73
4
 74
0
 40
0
 40
0
 40
0
 40
0
 40
1
 40
1
 40
1
 40
1
 10
7.563349
 20
44.890218
 30
0.0
 10
7.896694
 20
45.289683
 30
0.0
 10
9.195961
 20
46.654346
 30
0.0
 10
10.450609
 20
47.922804
 30
0.0
  0
SPLINE
  5
121
100
AcDbEntity
  8
Layer_1
 62
7
100
AcDbSpline
 70
8
 71
3
 72
8
 73
4
 74
0
 40
0
 40
0
 40
0
 40
0
 40
1
 40
1
 40
1
 40
1
 10
12.611104
 20
51.790683
 30
0.0
 10
12.544724
 20
52.649559
 30
0.0
 10
12.491091
 20
53.968382
 30
0.0
 10
12.491912
 20
54.721401
 30
0.0
  0
SPLINE
  5
122
100
AcDbEntity
  8
Layer_1
 62
7
100
AcDbSpline
 70
8
 71
3
 72
8
 73
4
 74
0
 40
0
 40
0
 40
0
 40
0
 40
1
 40
1
 40
1
 40
1
 10
12.491912
 20
54.721401
 30
0.0
 10
12.492730
 20
55.474420
 30
0.0
 10
12.542862
 20
56.462120
 30
0.0
 10
12.603312
 20
56.916289
 30
0.0
  0
SPLINE
  5
123
100
AcDbEntity
  8
Layer_1
 62
7
100
AcDbSpline
 70
8
 71
3
 72
8
 73
4
 74
0
 40
0
 40
0
 40
0
 40
0
 40
1
 40
1
 40
1
 40
1
 10
12.603312
 20
56.916289
 30
0.0
 10
12.663762
 20
57.370459
 30
0.0
 10
12.803222
 20
58.072418
 30
0.0
 10
12.913224
 20
58.476199
 30
0.0
  0
SPLINE
  5
124
100
AcDbEntity
  8
Layer_1
 62
7
100
AcDbSpline
 70
8
 71
3
 72
8
 73
4
 74
0
 40
0
 40
0
 40
0
 40
0
 40
1
 40
1
 40
1
 40
1
 10
12.913224
 20
58.476199
 30
0.0
 10
13.023227
 20
58.879980
 30
0.0
 10
13.241226
 20
59.506094
 30
0.0
 10
13.397668
 20
59.867562
 30
0.0
  0
SPLINE
  5
125
100
AcDbEntity
  8
Layer_1
 62
7
100
AcDbSpline
 70
8
 71
3
 72
8
 73
4
 74
0
 40
0
 40
0
 40
0
 40
0
 40
1
 40
1
 40
1
 40
1
 10
13.397668
 20
59.867562
 30
0.0
 10
13.554109
 20
60.229031
 30
0.0
 10
13.823627
 20
60.766138
 30
0.0
 10
13.996596
 20
61.061132
 30
0.0
  0
SPLINE
  5
126
100
AcDbEntity
  8
Layer_1
 62
7
100
AcDbSpline
 70
8
 71
3
 72
8
 73
4
 74
0
 40
0
 40
0
 40
0
 40
0
 40
1
 40
1
 40
1
 40
1
 10
13.996596
 20
61.061132
 30
0.0
 10
14.169565
 20
61.356126
 30
0.0
 10
14.507726
 20
61.872182
 30
0.0
 10
14.748064
 20
62.207921
 30
0.0
  0
SPLINE
  5
127
100
AcDbEntity
  8
Layer_1
 62
7
100
AcDbSpline
 70
8
 71
3
 72
8
 73
4
 74
0
 40
0
 40
0
 40
0
 40
0
 40
1
 40
1
 40
1
 40
1
 10
14.748064
 20
62.207921
 30
0.0
 10
14.988403
 20
62.543661
 30
0.0
 10
15.512347
 20
63.209476
 30
0.0
 10
15.912385
 20
63.687510
 30
0.0
  0
LWPOLYLINE
  5
128
100
AcDbEntity
  8
Layer_1
 62
7
100
AcDbPolyline
 90
3
 70
0
 10
10.450609
 20
47.922804
 30
0.0
 10
12.731787
 20
50.229091
 30
0.0
 10
12.611104
 20
51.790683
 30
0.0
  0
SPLINE
  5
129
100
AcDbEntity
  8
Layer_1
 62
7
100
AcDbSpline
 70
8
 71
3
 72
8
 73
4
 74
0
 40
0
 40
0
 40
0
 40
0
 40
1
 40
1
 40
1
 40
1
 10
16.479620
 20
65.828184
 30
0.0
 10
16.391560
 20
66.527520
 30
0.0
 10
16.232394
 20
67.443740
 30
0.0
 10
16.125916
 20
67.864230
 30
0.0
  0
SPLINE
  5
12a
100
AcDbEntity
  8
Layer_1
 62
7
100
AcDbSpline
 70
8
 71
3
 72
8
 73
4
 74
0
 40
0
 40
0
 40
0
 40
0
 40
1
 40
1
 40
1
 40
1
 10
16.125916
 20
67.864230
 30
0.0
 10
16.019437
 20
68.284719
 30
0.0
 10
15.812663
 20
68.872149
 30
0.0
 10
15.666419
 20
69.169630
 30
0.0
  0
SPLINE
  5
12b
100
AcDbEntity
  8
Layer_1
 62
7
100
AcDbSpline
 70
8
 71
3
 72
8
 73
4
 74
0
 40
0
 40
0
 40
0
 40
0
 40
1
 40
1
 40
1
 40
1
 10
15.666419
 20
69.169630
 30
0.0
 10
15.492054
 20
69.524310
 30
0.0
 10
15.254462
 20
69.848638
 30
0.0
 10
14.976244
 20
70.111767
 30
0.0
  0
SPLINE
  5
12c
100
AcDbEntity
  8
Layer_1
 62
7
100
AcDbSpline
 70
8
 71
3
 72
8
 73
4
 74
0
 40
0
 40
0
 40
0
 40
0
 40
1
 40
1
 40
1
 40
1
 10
14.976244
 20
70.111767
 30
0.0
 10
14.720617
 20
70.353527
 30
0.0
 10
14.330367
 20
70.615414
 30
0.0
 10
13.994480
 20
70.770604
 30
0.0
  0
SPLINE
  5
12d
100
AcDbEntity
  8
Layer_1
 62
7
100
AcDbSpline
 70
8
 71
3
 72
8
 73
4
 74
0
 40
0
 40
0
 40
0
 40
0
 40
1
 40
1
 40
1
 40
1
 10
13.994480
 20
70.770604
 30
0.0
 10
13.687861
 20
70.912271
 30
0.0
 10
13.094999
 20
71.096783
 30
0.0
 10
12.677008
 20
71.180632
 30
0.0
  0
SPLINE
  5
12e
100
AcDbEntity
  8
Layer_1
 62
7
100
AcDbSpline
 70
8
 71
3
 72
8
 73
4
 74
0
 40
0
 40
0
 40
0
 40
0
 40
1
 40
1
 40
1
 40
1
 10
12.677008
 20
71.180632
 30
0.0
 10
12.259017
 20
71.264482
 30
0.0
 10
11.400970
 20
71.390661
 30
0.0
 10
10.770236
 20
71.461033
 30
0.0
  0
SPLINE
  5
12f
100
AcDbEntity
  8
Layer_1
 62
7
100
AcDbSpline
 70
8
 71
3
 72
8
 73
4
 74
0
 40
0
 40
0
 40
0
 40
0
 40
1
 40
1
 40
1
 40
1
 10
10.770236
 20
71.461033
 30
0.0
 10
10.139502
 20
71.531403
 30
0.0
 10
9.493870
 20
71.640768
 30
0.0
 10
9.335500
 20
71.704062
 30
0.0
  0
SPLINE
  5
130
100
AcDbEntity
  8
Layer_1
 62
7
100
AcDbSpline
 70
8
 71
3
 72
8
 73
4
 74
0
 40
0
 40
0
 40
0
 40
0
 40
1
 40
1
 40
1
 40
1
 10
9.335500
 20
71.704062
 30
0.0
 10
9.177129
 20
71.767352
 30
0.0
 10
8.914513
 20
71.970284
 30
0.0
 10
8.751909
 20
72.155012
 30
0.0
  0
SPLINE
  5
131
100
AcDbEntity
  8
Layer_1
 62
7
100
AcDbSpline
 70
8
 71
3
 72
8
 73
4
 74
0
 40
0
 40
0
 40
0
 40
0
 40
1
 40
1
 40
1
 40
1
 10
8.751909
 20
72.155012
 30
0.0
 10
8.578552
 20
72.351954
 30
0.0
 10
8.420546
 20
72.632727
 30
0.0
 10
8.369914
 20
72.833805
 30
0.0
  0
SPLINE
  5
132
100
AcDbEntity
  8
Layer_1
 62
7
100
AcDbSpline
 70
8
 71
3
 72
8
 73
4
 74
0
 40
0
 40
0
 40
0
 40
0
 40
1
 40
1
 40
1
 40
1
 10
8.369914
 20
72.833805
 30
0.0
 10
8.322424
 20
73.022413
 30
0.0
 10
8.306174
 20
73.318102
 30
0.0
 10
8.333804
 20
73.490892
 30
0.0
  0
SPLINE
  5
133
100
AcDbEntity
  8
Layer_1
 62
7
100
AcDbSpline
 70
8
 71
3
 72
8
 73
4
 74
0
 40
0
 40
0
 40
0
 40
0
 40
1
 40
1
 40
1
 40
1
 10
8.333804
 20
73.490892
 30
0.0
 10
8.361434
 20
73.663683
 30
0.0
 10
8.490889
 20
73.962969
 30
0.0
 10
8.621481
 20
74.155974
 30
0.0
  0
SPLINE
  5
134
100
AcDbEntity
  8
Layer_1
 62
7
100
AcDbSpline
 70
8
 71
3
 72
8
 73
4
 74
0
 40
0
 40
0
 40
0
 40
0
 40
1
 40
1
 40
1
 40
1
 10
8.621481
 20
74.155974
 30
0.0
 10
8.762807
 20
74.364839
 30
0.0
 10
8.998190
 20
74.581312
 30
0.0
 10
9.202960
 20
74.690735
 30
0.0
  0
SPLINE
  5
135
100
AcDbEntity
  8
Layer_1
 62
7
100
AcDbSpline
 70
8
 71
3
 72
8
 73
4
 74
0
 40
0
 40
0
 40
0
 40
0
 40
1
 40
1
 40
1
 40
1
 10
9.202960
 20
74.690735
 30
0.0
 10
9.518148
 20
74.859163
 30
0.0
 10
9.607898
 20
74.871036
 30
0.0
 10
10.273296
 20
74.832323
 30
0.0
  0
SPLINE
  5
136
100
AcDbEntity
  8
Layer_1
 62
7
100
AcDbSpline
 70
8
 71
3
 72
8
 73
4
 74
0
 40
0
 40
0
 40
0
 40
0
 40
1
 40
1
 40
1
 40
1
 10
10.273296
 20
74.832323
 30
0.0
 10
10.672761
 20
74.809083
 30
0.0
 10
11.378036
 20
74.734943
 30
0.0
 10
11.840574
 20
74.667563
 30
0.0
  0
SPLINE
  5
137
100
AcDbEntity
  8
Layer_1
 62
7
100
AcDbSpline
 70
8
 71
3
 72
8
 73
4
 74
0
 40
0
 40
0
 40
0
 40
0
 40
1
 40
1
 40
1
 40
1
 10
11.840574
 20
74.667563
 30
0.0
 10
12.303112
 20
74.600183
 30
0.0
 10
13.077195
 20
74.441473
 30
0.0
 10
13.560758
 20
74.314866
 30
0.0
  0
SPLINE
  5
138
100
AcDbEntity
  8
Layer_1
 62
7
100
AcDbSpline
 70
8
 71
3
 72
8
 73
4
 74
0
 40
0
 40
0
 40
0
 40
0
 40
1
 40
1
 40
1
 40
1
 10
13.560758
 20
74.314866
 30
0.0
 10
14.044320
 20
74.188260
 30
0.0
 10
14.753815
 20
73.936465
 30
0.0
 10
15.137411
 20
73.755321
 30
0.0
  0
SPLINE
  5
139
100
AcDbEntity
  8
Layer_1
 62
7
100
AcDbSpline
 70
8
 71
3
 72
8
 73
4
 74
0
 40
0
 40
0
 40
0
 40
0
 40
1
 40
1
 40
1
 40
1
 10
15.137411
 20
73.755321
 30
0.0
 10
15.521006
 20
73.574178
 30
0.0
 10
16.043701
 20
73.284147
 30
0.0
 10
16.298954
 20
73.110808
 30
0.0
  0
SPLINE
  5
13a
100
AcDbEntity
  8
Layer_1
 62
7
100
AcDbSpline
 70
8
 71
3
 72
8
 73
4
 74
0
 40
0
 40
0
 40
0
 40
0
 40
1
 40
1
 40
1
 40
1
 10
16.298954
 20
73.110808
 30
0.0
 10
16.554207
 20
72.937469
 30
0.0
 10
16.988686
 20
72.570011
 30
0.0
 10
17.264462
 20
72.294234
 30
0.0
  0
SPLINE
  5
13b
100
AcDbEntity
  8
Layer_1
 62
7
100
AcDbSpline
 70
8
 71
3
 72
8
 73
4
 74
0
 40
0
 40
0
 40
0
 40
0
 40
1
 40
1
 40
1
 40
1
 10
17.264462
 20
72.294234
 30
0.0
 10
17.540239
 20
72.018458
 30
0.0
 10
17.898799
 20
71.596963
 30
0.0
 10
18.061263
 20
71.357579
 30
0.0
  0
SPLINE
  5
13c
100
AcDbEntity
  8
Layer_1
 62
7
100
AcDbSpline
 70
8
 71
3
 72
8
 73
4
 74
0
 40
0
 40
0
 40
0
 40
0
 40
1
 40
1
 40
1
 40
1
 10
18.061263
 20
71.357579
 30
0.0
 10
18.223727
 20
71.118195
 30
0.0
 10
18.494821
 20
70.647104
 30
0.0
 10
18.663693
 20
70.310713
 30
0.0
  0
SPLINE
  5
13d
100
AcDbEntity
  8
Layer_1
 62
7
100
AcDbSpline
 70
8
 71
3
 72
8
 73
4
 74
0
 40
0
 40
0
 40
0
 40
0
 40
1
 40
1
 40
1
 40
1
 10
18.663693
 20
70.310713
 30
0.0
 10
18.832565
 20
69.974322
 30
0.0
 10
19.056781
 20
69.423863
 30
0.0
 10
19.161950
 20
69.087471
 30
0.0
  0
SPLINE
  5
13e
100
AcDbEntity
  8
Layer_1
 62
7
100
AcDbSpline
 70
8
 71
3
 72
8
 73
4
 74
0
 40
0
 40
0
 40
0
 40
0
 40
1
 40
1
 40
1
 40
1
 10
19.161950
 20
69.087471
 30
0.0
 10
19.267120
 20
68.751080
 30
0.0
 10
19.428846
 20
68.140415
 30
0.0
 10
19.521343
 20
67.730438
 30
0.0
  0
SPLINE
  5
13f
100
AcDbEntity
  8
Layer_1
 62
7
100
AcDbSpline
 70
8
 71
3
 72
8
 73
4
 74
0
 40
0
 40
0
 40
0
 40
0
 40
1
 40
1
 40
1
 40
1
 10
19.521343
 20
67.730438
 30
0.0
 10
19.635535
 20
67.224300
 30
0.0
 10
19.723740
 20
66.985025
 30
0.0
 10
19.796127
 20
66.985025
 30
0.0
  0
SPLINE
  5
140
100
AcDbEntity
  8
Layer_1
 62
7
100
AcDbSpline
 70
8
 71
3
 72
8
 73
4
 74
0
 40
0
 40
0
 40
0
 40
0
 40
1
 40
1
 40
1
 40
1
 10
19.796127
 20
66.985025
 30
0.0
 10
19.854767
 20
66.985025
 30
0.0
 10
20.238980
 20
67.111208
 30
0.0
 10
20.649944
 20
67.265432
 30
0.0
  0
SPLINE
  5
141
100
AcDbEntity
  8
Layer_1
 62
7
100
AcDbSpline
 70
8
 71
3
 72
8
 73
4
 74
0
 40
0
 40
0
 40
0
 40
0
 40
1
 40
1
 40
1
 40
1
 10
20.649944
 20
67.265432
 30
0.0
 10
21.060908
 20
67.419656
 30
0.0
 10
21.721794
 20
67.643523
 30
0.0
 10
22.118579
 20
67.762913
 30
0.0
  0
SPLINE
  5
142
100
AcDbEntity
  8
Layer_1
 62
7
100
AcDbSpline
 70
8
 71
3
 72
8
 73
4
 74
0
 40
0
 40
0
 40
0
 40
0
 40
1
 40
1
 40
1
 40
1
 10
22.118579
 20
67.762913
 30
0.0
 10
22.515364
 20
67.882303
 30
0.0
 10
22.916410
 20
68.030047
 30
0.0
 10
23.009792
 20
68.091233
 30
0.0
  0
SPLINE
  5
143
100
AcDbEntity
  8
Layer_1
 62
7
100
AcDbSpline
 70
8
 71
3
 72
8
 73
4
 74
0
 40
0
 40
0
 40
0
 40
0
 40
1
 40
1
 40
1
 40
1
 10
23.009792
 20
68.091233
 30
0.0
 10
23.103172
 20
68.152423
 30
0.0
 10
23.237499
 20
68.376868
 30
0.0
 10
23.308293
 20
68.590009
 30
0.0
  0
SPLINE
  5
144
100
AcDbEntity
  8
Layer_1
 62
7
100
AcDbSpline
 70
8
 71
3
 72
8
 73
4
 74
0
 40
0
 40
0
 40
0
 40
0
 40
1
 40
1
 40
1
 40
1
 10
23.308293
 20
68.590009
 30
0.0
 10
23.379083
 20
68.803150
 30
0.0
 10
23.524227
 20
69.081190
 30
0.0
 10
23.630826
 20
69.207875
 30
0.0
  0
SPLINE
  5
145
100
AcDbEntity
  8
Layer_1
 62
7
100
AcDbSpline
 70
8
 71
3
 72
8
 73
4
 74
0
 40
0
 40
0
 40
0
 40
0
 40
1
 40
1
 40
1
 40
1
 10
23.630826
 20
69.207875
 30
0.0
 10
23.737425
 20
69.334561
 30
0.0
 10
23.960282
 20
69.507411
 30
0.0
 10
24.126064
 20
69.591987
 30
0.0
  0
SPLINE
  5
146
100
AcDbEntity
  8
Layer_1
 62
7
100
AcDbSpline
 70
8
 71
3
 72
8
 73
4
 74
0
 40
0
 40
0
 40
0
 40
0
 40
1
 40
1
 40
1
 40
1
 10
24.126064
 20
69.591987
 30
0.0
 10
24.291846
 20
69.676567
 30
0.0
 10
24.595910
 20
69.765708
 30
0.0
 10
24.801760
 20
69.790088
 30
0.0
  0
SPLINE
  5
147
100
AcDbEntity
  8
Layer_1
 62
7
100
AcDbSpline
 70
8
 71
3
 72
8
 73
4
 74
0
 40
0
 40
0
 40
0
 40
0
 40
1
 40
1
 40
1
 40
1
 10
24.801760
 20
69.790088
 30
0.0
 10
25.110903
 20
69.826698
 30
0.0
 10
25.250143
 20
69.798188
 30
0.0
 10
25.601902
 20
69.626058
 30
0.0
  0
SPLINE
  5
148
100
AcDbEntity
  8
Layer_1
 62
7
100
AcDbSpline
 70
8
 71
3
 72
8
 73
4
 74
0
 40
0
 40
0
 40
0
 40
0
 40
1
 40
1
 40
1
 40
1
 10
25.601902
 20
69.626058
 30
0.0
 10
25.919991
 20
69.470431
 30
0.0
 10
26.094829
 20
69.318125
 30
0.0
 10
26.292737
 20
69.024248
 30
0.0
  0
SPLINE
  5
149
100
AcDbEntity
  8
Layer_1
 62
7
100
AcDbSpline
 70
8
 71
3
 72
8
 73
4
 74
0
 40
0
 40
0
 40
0
 40
0
 40
1
 40
1
 40
1
 40
1
 10
26.292737
 20
69.024248
 30
0.0
 10
26.438468
 20
68.807850
 30
0.0
 10
26.557703
 20
68.574771
 30
0.0
 10
26.557703
 20
68.506294
 30
0.0
  0
SPLINE
  5
14a
100
AcDbEntity
  8
Layer_1
 62
7
100
AcDbSpline
 70
8
 71
3
 72
8
 73
4
 74
0
 40
0
 40
0
 40
0
 40
0
 40
1
 40
1
 40
1
 40
1
 10
26.557703
 20
68.506294
 30
0.0
 10
26.557703
 20
68.437814
 30
0.0
 10
26.626933
 20
68.293785
 30
0.0
 10
26.711540
 20
68.186220
 30
0.0
  0
SPLINE
  5
14b
100
AcDbEntity
  8
Layer_1
 62
7
100
AcDbSpline
 70
8
 71
3
 72
8
 73
4
 74
0
 40
0
 40
0
 40
0
 40
0
 40
1
 40
1
 40
1
 40
1
 10
26.711540
 20
68.186220
 30
0.0
 10
26.796150
 20
68.078656
 30
0.0
 10
26.976769
 20
67.966727
 30
0.0
 10
27.112916
 20
67.937489
 30
0.0
  0
SPLINE
  5
14c
100
AcDbEntity
  8
Layer_1
 62
7
100
AcDbSpline
 70
8
 71
3
 72
8
 73
4
 74
0
 40
0
 40
0
 40
0
 40
0
 40
1
 40
1
 40
1
 40
1
 10
27.112916
 20
67.937489
 30
0.0
 10
27.249062
 20
67.908249
 30
0.0
 10
27.973045
 20
67.678178
 30
0.0
 10
28.721765
 20
67.426214
 30
0.0
  0
SPLINE
  5
14d
100
AcDbEntity
  8
Layer_1
 62
7
100
AcDbSpline
 70
8
 71
3
 72
8
 73
4
 74
0
 40
0
 40
0
 40
0
 40
0
 40
1
 40
1
 40
1
 40
1
 10
28.721765
 20
67.426214
 30
0.0
 10
29.470485
 20
67.174249
 30
0.0
 10
30.096935
 20
66.981951
 30
0.0
 10
30.113865
 20
66.998885
 30
0.0
  0
SPLINE
  5
14e
100
AcDbEntity
  8
Layer_1
 62
7
100
AcDbSpline
 70
8
 71
3
 72
8
 73
4
 74
0
 40
0
 40
0
 40
0
 40
0
 40
1
 40
1
 40
1
 40
1
 10
30.113865
 20
66.998885
 30
0.0
 10
30.130765
 20
67.015815
 30
0.0
 10
30.268935
 20
67.520226
 30
0.0
 10
30.420835
 20
68.119793
 30
0.0
  0
SPLINE
  5
14f
100
AcDbEntity
  8
Layer_1
 62
7
100
AcDbSpline
 70
8
 71
3
 72
8
 73
4
 74
0
 40
0
 40
0
 40
0
 40
0
 40
1
 40
1
 40
1
 40
1
 10
30.420835
 20
68.119793
 30
0.0
 10
30.572735
 20
68.719360
 30
0.0
 10
30.812045
 20
69.495243
 30
0.0
 10
30.952635
 20
69.843978
 30
0.0
  0
SPLINE
  5
150
100
AcDbEntity
  8
Layer_1
 62
7
100
AcDbSpline
 70
8
 71
3
 72
8
 73
4
 74
0
 40
0
 40
0
 40
0
 40
0
 40
1
 40
1
 40
1
 40
1
 10
30.952635
 20
69.843978
 30
0.0
 10
31.093225
 20
70.192713
 30
0.0
 10
31.357415
 20
70.730767
 30
0.0
 10
31.539705
 20
71.039654
 30
0.0
  0
SPLINE
  5
151
100
AcDbEntity
  8
Layer_1
 62
7
100
AcDbSpline
 70
8
 71
3
 72
8
 73
4
 74
0
 40
0
 40
0
 40
0
 40
0
 40
1
 40
1
 40
1
 40
1
 10
31.539705
 20
71.039654
 30
0.0
 10
31.722006
 20
71.348541
 30
0.0
 10
32.146386
 20
71.880262
 30
0.0
 10
32.482776
 20
72.221257
 30
0.0
  0
SPLINE
  5
152
100
AcDbEntity
  8
Layer_1
 62
7
100
AcDbSpline
 70
8
 71
3
 72
8
 73
4
 74
0
 40
0
 40
0
 40
0
 40
0
 40
1
 40
1
 40
1
 40
1
 10
32.482776
 20
72.221257
 30
0.0
 10
32.819166
 20
72.562253
 30
0.0
 10
33.359176
 20
73.005361
 30
0.0
 10
33.682786
 20
73.205942
 30
0.0
  0
SPLINE
  5
153
100
AcDbEntity
  8
Layer_1
 62
7
100
AcDbSpline
 70
8
 71
3
 72
8
 73
4
 74
0
 40
0
 40
0
 40
0
 40
0
 40
1
 40
1
 40
1
 40
1
 10
33.682786
 20
73.205942
 30
0.0
 10
34.006396
 20
73.406523
 30
0.0
 10
34.556856
 20
73.691377
 30
0.0
 10
34.906026
 20
73.838952
 30
0.0
  0
SPLINE
  5
154
100
AcDbEntity
  8
Layer_1
 62
7
100
AcDbSpline
 70
8
 71
3
 72
8
 73
4
 74
0
 40
0
 40
0
 40
0
 40
0
 40
1
 40
1
 40
1
 40
1
 10
34.906026
 20
73.838952
 30
0.0
 10
35.255196
 20
73.986526
 30
0.0
 10
35.850516
 20
74.190876
 30
0.0
 10
36.228956
 20
74.293064
 30
0.0
  0
SPLINE
  5
155
100
AcDbEntity
  8
Layer_1
 62
7
100
AcDbSpline
 70
8
 71
3
 72
8
 73
4
 74
0
 40
0
 40
0
 40
0
 40
0
 40
1
 40
1
 40
1
 40
1
 10
36.228956
 20
74.293064
 30
0.0
 10
36.607396
 20
74.395252
 30
0.0
 10
37.304836
 20
74.546694
 30
0.0
 10
37.778827
 20
74.629602
 30
0.0
  0
SPLINE
  5
156
100
AcDbEntity
  8
Layer_1
 62
7
100
AcDbSpline
 70
8
 71
3
 72
8
 73
4
 74
0
 40
0
 40
0
 40
0
 40
0
 40
1
 40
1
 40
1
 40
1
 10
37.778827
 20
74.629602
 30
0.0
 10
38.252817
 20
74.712512
 30
0.0
 10
38.965807
 20
74.803203
 30
0.0
 10
39.363237
 20
74.831139
 30
0.0
  0
SPLINE
  5
157
100
AcDbEntity
  8
Layer_1
 62
7
100
AcDbSpline
 70
8
 71
3
 72
8
 73
4
 74
0
 40
0
 40
0
 40
0
 40
0
 40
1
 40
1
 40
1
 40
1
 10
39.363237
 20
74.831139
 30
0.0
 10
39.948237
 20
74.872259
 30
0.0
 10
40.150587
 20
74.857209
 30
0.0
 10
40.425837
 20
74.752089
 30
0.0
  0
SPLINE
  5
158
100
AcDbEntity
  8
Layer_1
 62
7
100
AcDbSpline
 70
8
 71
3
 72
8
 73
4
 74
0
 40
0
 40
0
 40
0
 40
0
 40
1
 40
1
 40
1
 40
1
 10
40.425837
 20
74.752089
 30
0.0
 10
40.617837
 20
74.678759
 30
0.0
 10
40.900427
 20
74.476215
 30
0.0
 10
41.075077
 20
74.286748
 30
0.0
  0
SPLINE
  5
159
100
AcDbEntity
  8
Layer_1
 62
7
100
AcDbSpline
 70
8
 71
3
 72
8
 73
4
 74
0
 40
0
 40
0
 40
0
 40
0
 40
1
 40
1
 40
1
 40
1
 10
41.075077
 20
74.286748
 30
0.0
 10
41.245167
 20
74.102224
 30
0.0
 10
41.406547
 20
73.862710
 30
0.0
 10
41.433707
 20
73.754495
 30
0.0
  0
SPLINE
  5
15a
100
AcDbEntity
  8
Layer_1
 62
7
100
AcDbSpline
 70
8
 71
3
 72
8
 73
4
 74
0
 40
0
 40
0
 40
0
 40
0
 40
1
 40
1
 40
1
 40
1
 10
41.433707
 20
73.754495
 30
0.0
 10
41.460907
 20
73.646281
 30
0.0
 10
41.470007
 20
73.325519
 30
0.0
 10
41.453907
 20
73.041693
 30
0.0
  0
SPLINE
  5
15b
100
AcDbEntity
  8
Layer_1
 62
7
100
AcDbSpline
 70
8
 71
3
 72
8
 73
4
 74
0
 40
0
 40
0
 40
0
 40
0
 40
1
 40
1
 40
1
 40
1
 10
41.453907
 20
73.041693
 30
0.0
 10
41.430107
 20
72.619531
 30
0.0
 10
41.385407
 20
72.474026
 30
0.0
 10
41.208347
 20
72.241932
 30
0.0
  0
SPLINE
  5
15c
100
AcDbEntity
  8
Layer_1
 62
7
100
AcDbSpline
 70
8
 71
3
 72
8
 73
4
 74
0
 40
0
 40
0
 40
0
 40
0
 40
1
 40
1
 40
1
 40
1
 10
41.208347
 20
72.241932
 30
0.0
 10
41.088807
 20
72.085195
 30
0.0
 10
40.815737
 20
71.873423
 30
0.0
 10
40.598217
 20
71.768750
 30
0.0
  0
SPLINE
  5
15d
100
AcDbEntity
  8
Layer_1
 62
7
100
AcDbSpline
 70
8
 71
3
 72
8
 73
4
 74
0
 40
0
 40
0
 40
0
 40
0
 40
1
 40
1
 40
1
 40
1
 10
40.598217
 20
71.768750
 30
0.0
 10
40.293787
 20
71.622260
 30
0.0
 10
39.945397
 20
71.551477
 30
0.0
 10
39.062357
 20
71.456711
 30
0.0
  0
SPLINE
  5
15e
100
AcDbEntity
  8
Layer_1
 62
7
100
AcDbSpline
 70
8
 71
3
 72
8
 73
4
 74
0
 40
0
 40
0
 40
0
 40
0
 40
1
 40
1
 40
1
 40
1
 10
39.062357
 20
71.456711
 30
0.0
 10
38.434187
 20
71.389301
 30
0.0
 10
37.654927
 20
71.283811
 30
0.0
 10
37.330646
 20
71.222298
 30
0.0
  0
SPLINE
  5
15f
100
AcDbEntity
  8
Layer_1
 62
7
100
AcDbSpline
 70
8
 71
3
 72
8
 73
4
 74
0
 40
0
 40
0
 40
0
 40
0
 40
1
 40
1
 40
1
 40
1
 10
37.330646
 20
71.222298
 30
0.0
 10
37.006376
 20
71.160788
 30
0.0
 10
36.556256
 20
71.046871
 30
0.0
 10
36.330376
 20
70.969158
 30
0.0
  0
SPLINE
  5
160
100
AcDbEntity
  8
Layer_1
 62
7
100
AcDbSpline
 70
8
 71
3
 72
8
 73
4
 74
0
 40
0
 40
0
 40
0
 40
0
 40
1
 40
1
 40
1
 40
1
 10
36.330376
 20
70.969158
 30
0.0
 10
36.104496
 20
70.891448
 30
0.0
 10
35.741106
 20
70.737368
 30
0.0
 10
35.522856
 20
70.626767
 30
0.0
  0
SPLINE
  5
161
100
AcDbEntity
  8
Layer_1
 62
7
100
AcDbSpline
 70
8
 71
3
 72
8
 73
4
 74
0
 40
0
 40
0
 40
0
 40
0
 40
1
 40
1
 40
1
 40
1
 10
35.522856
 20
70.626767
 30
0.0
 10
35.304596
 20
70.516167
 30
0.0
 10
34.998296
 20
70.313799
 30
0.0
 10
34.842206
 20
70.177062
 30
0.0
  0
SPLINE
  5
162
100
AcDbEntity
  8
Layer_1
 62
7
100
AcDbSpline
 70
8
 71
3
 72
8
 73
4
 74
0
 40
0
 40
0
 40
0
 40
0
 40
1
 40
1
 40
1
 40
1
 10
34.842206
 20
70.177062
 30
0.0
 10
34.686106
 20
70.040325
 30
0.0
 10
34.462436
 20
69.777431
 30
0.0
 10
34.345166
 20
69.592853
 30
0.0
  0
SPLINE
  5
163
100
AcDbEntity
  8
Layer_1
 62
7
100
AcDbSpline
 70
8
 71
3
 72
8
 73
4
 74
0
 40
0
 40
0
 40
0
 40
0
 40
1
 40
1
 40
1
 40
1
 10
34.345166
 20
69.592853
 30
0.0
 10
34.227886
 20
69.408276
 30
0.0
 10
34.045956
 20
68.995431
 30
0.0
 10
33.940876
 20
68.675422
 30
0.0
  0
SPLINE
  5
164
100
AcDbEntity
  8
Layer_1
 62
7
100
AcDbSpline
 70
8
 71
3
 72
8
 73
4
 74
0
 40
0
 40
0
 40
0
 40
0
 40
1
 40
1
 40
1
 40
1
 10
33.940876
 20
68.675422
 30
0.0
 10
33.835796
 20
68.355412
 30
0.0
 10
33.681026
 20
67.749550
 30
0.0
 10
33.596936
 20
67.329060
 30
0.0
  0
SPLINE
  5
165
100
AcDbEntity
  8
Layer_1
 62
7
100
AcDbSpline
 70
8
 71
3
 72
8
 73
4
 74
0
 40
0
 40
0
 40
0
 40
0
 40
1
 40
1
 40
1
 40
1
 10
33.596936
 20
67.329060
 30
0.0
 10
33.512836
 20
66.908571
 30
0.0
 10
33.389976
 20
66.124544
 30
0.0
 10
33.323886
 20
65.586777
 30
0.0
  0
SPLINE
  5
166
100
AcDbEntity
  8
Layer_1
 62
7
100
AcDbSpline
 70
8
 71
3
 72
8
 73
4
 74
0
 40
0
 40
0
 40
0
 40
0
 40
1
 40
1
 40
1
 40
1
 10
33.323886
 20
65.586777
 30
0.0
 10
33.257786
 20
65.049012
 30
0.0
 10
33.229186
 20
64.567360
 30
0.0
 10
33.260186
 20
64.516441
 30
0.0
  0
SPLINE
  5
167
100
AcDbEntity
  8
Layer_1
 62
7
100
AcDbSpline
 70
8
 71
3
 72
8
 73
4
 74
0
 40
0
 40
0
 40
0
 40
0
 40
1
 40
1
 40
1
 40
1
 10
33.260186
 20
64.516441
 30
0.0
 10
33.291286
 20
64.465521
 30
0.0
 10
33.560366
 20
64.131429
 30
0.0
 10
33.858256
 20
63.774013
 30
0.0
  0
SPLINE
  5
168
100
AcDbEntity
  8
Layer_1
 62
7
100
AcDbSpline
 70
8
 71
3
 72
8
 73
4
 74
0
 40
0
 40
0
 40
0
 40
0
 40
1
 40
1
 40
1
 40
1
 10
33.858256
 20
63.774013
 30
0.0
 10
34.156136
 20
63.416597
 30
0.0
 10
34.575146
 20
62.883340
 30
0.0
 10
34.789376
 20
62.588998
 30
0.0
  0
SPLINE
  5
169
100
AcDbEntity
  8
Layer_1
 62
7
100
AcDbSpline
 70
8
 71
3
 72
8
 73
4
 74
0
 40
0
 40
0
 40
0
 40
0
 40
1
 40
1
 40
1
 40
1
 10
34.789376
 20
62.588998
 30
0.0
 10
35.003616
 20
62.294655
 30
0.0
 10
35.340546
 20
61.802648
 30
0.0
 10
35.538126
 20
61.495650
 30
0.0
  0
SPLINE
  5
16a
100
AcDbEntity
  8
Layer_1
 62
7
100
AcDbSpline
 70
8
 71
3
 72
8
 73
4
 74
0
 40
0
 40
0
 40
0
 40
0
 40
1
 40
1
 40
1
 40
1
 10
35.538126
 20
61.495650
 30
0.0
 10
35.735696
 20
61.188651
 30
0.0
 10
36.099836
 20
60.517780
 30
0.0
 10
36.347326
 20
60.004823
 30
0.0
  0
SPLINE
  5
16b
100
AcDbEntity
  8
Layer_1
 62
7
100
AcDbSpline
 70
8
 71
3
 72
8
 73
4
 74
0
 40
0
 40
0
 40
0
 40
0
 40
1
 40
1
 40
1
 40
1
 10
36.347326
 20
60.004823
 30
0.0
 10
36.594806
 20
59.491867
 30
0.0
 10
36.883156
 20
58.745342
 30
0.0
 10
36.988086
 20
58.345877
 30
0.0
  0
SPLINE
  5
16c
100
AcDbEntity
  8
Layer_1
 62
7
100
AcDbSpline
 70
8
 71
3
 72
8
 73
4
 74
0
 40
0
 40
0
 40
0
 40
0
 40
1
 40
1
 40
1
 40
1
 10
36.988086
 20
58.345877
 30
0.0
 10
37.093026
 20
57.946412
 30
0.0
 10
37.218536
 20
57.309944
 30
0.0
 10
37.267006
 20
56.931504
 30
0.0
  0
SPLINE
  5
16d
100
AcDbEntity
  8
Layer_1
 62
7
100
AcDbSpline
 70
8
 71
3
 72
8
 73
4
 74
0
 40
0
 40
0
 40
0
 40
0
 40
1
 40
1
 40
1
 40
1
 10
37.267006
 20
56.931504
 30
0.0
 10
37.315506
 20
56.553064
 30
0.0
 10
37.356706
 20
55.572559
 30
0.0
 10
37.358606
 20
54.752605
 30
0.0
  0
SPLINE
  5
16e
100
AcDbEntity
  8
Layer_1
 62
7
100
AcDbSpline
 70
8
 71
3
 72
8
 73
4
 74
0
 40
0
 40
0
 40
0
 40
0
 40
1
 40
1
 40
1
 40
1
 10
37.358606
 20
54.752605
 30
0.0
 10
37.360606
 20
53.924732
 30
0.0
 10
37.302406
 20
52.587291
 30
0.0
 10
37.227756
 20
51.745018
 30
0.0
  0
LWPOLYLINE
  5
16f
100
AcDbEntity
  8
Layer_1
 62
7
100
AcDbPolyline
 90
3
 70
0
 10
15.912385
 20
63.687510
 30
0.0
 10
16.639727
 20
64.556664
 30
0.0
 10
16.479620
 20
65.828184
 30
0.0
  0
SPLINE
  5
170
100
AcDbEntity
  8
Layer_1
 62
7
100
AcDbSpline
 70
8
 71
3
 72
8
 73
4
 74
0
 40
0
 40
0
 40
0
 40
0
 40
1
 40
1
 40
1
 40
1
 10
39.341367
 20
47.960613
 30
0.0
 10
40.577747
 20
46.713409
 30
0.0
 10
41.917717
 20
45.297327
 30
0.0
 10
42.319087
 20
44.813764
 30
0.0
  0
SPLINE
  5
171
100
AcDbEntity
  8
Layer_1
 62
7
100
AcDbSpline
 70
8
 71
3
 72
8
 73
4
 74
0
 40
0
 40
0
 40
0
 40
0
 40
1
 40
1
 40
1
 40
1
 10
42.319087
 20
44.813764
 30
0.0
 10
42.720457
 20
44.330201
 30
0.0
 10
43.288588
 20
43.607724
 30
0.0
 10
43.581608
 20
43.208259
 30
0.0
  0
SPLINE
  5
172
100
AcDbEntity
  8
Layer_1
 62
7
100
AcDbSpline
 70
8
 71
3
 72
8
 73
4
 74
0
 40
0
 40
0
 40
0
 40
0
 40
1
 40
1
 40
1
 40
1
 10
43.581608
 20
43.208259
 30
0.0
 10
43.874618
 20
42.808794
 30
0.0
 10
44.408588
 20
42.051913
 30
0.0
 10
44.768208
 20
41.526301
 30
0.0
  0
SPLINE
  5
173
100
AcDbEntity
  8
Layer_1
 62
7
100
AcDbSpline
 70
8
 71
3
 72
8
 73
4
 74
0
 40
0
 40
0
 40
0
 40
0
 40
1
 40
1
 40
1
 40
1
 10
44.768208
 20
41.526301
 30
0.0
 10
45.127818
 20
41.000689
 30
0.0
 10
45.722688
 20
40.071789
 30
0.0
 10
46.090148
 20
39.462079
 30
0.0
  0
SPLINE
  5
174
100
AcDbEntity
  8
Layer_1
 62
7
100
AcDbSpline
 70
8
 71
3
 72
8
 73
4
 74
0
 40
0
 40
0
 40
0
 40
0
 40
1
 40
1
 40
1
 40
1
 10
46.090148
 20
39.462079
 30
0.0
 10
46.457598
 20
38.852369
 30
0.0
 10
47.078218
 20
37.699849
 30
0.0
 10
47.469288
 20
36.900918
 30
0.0
  0
SPLINE
  5
175
100
AcDbEntity
  8
Layer_1
 62
7
100
AcDbSpline
 70
8
 71
3
 72
8
 73
4
 74
0
 40
0
 40
0
 40
0
 40
0
 40
1
 40
1
 40
1
 40
1
 10
47.469288
 20
36.900918
 30
0.0
 10
47.860368
 20
36.101988
 30
0.0
 10
48.333758
 20
35.035478
 30
0.0
 10
48.521268
 20
34.530888
 30
0.0
  0
SPLINE
  5
176
100
AcDbEntity
  8
Layer_1
 62
7
100
AcDbSpline
 70
8
 71
3
 72
8
 73
4
 74
0
 40
0
 40
0
 40
0
 40
0
 40
1
 40
1
 40
1
 40
1
 10
48.521268
 20
34.530888
 30
0.0
 10
48.708768
 20
34.026298
 30
0.0
 10
48.969089
 20
33.235018
 30
0.0
 10
49.099749
 20
32.772478
 30
0.0
  0
SPLINE
  5
177
100
AcDbEntity
  8
Layer_1
 62
7
100
AcDbSpline
 70
8
 71
3
 72
8
 73
4
 74
0
 40
0
 40
0
 40
0
 40
0
 40
1
 40
1
 40
1
 40
1
 10
49.099749
 20
32.772478
 30
0.0
 10
49.230409
 20
32.309938
 30
0.0
 10
49.403549
 20
31.604657
 30
0.0
 10
49.484489
 20
31.205197
 30
0.0
  0
SPLINE
  5
178
100
AcDbEntity
  8
Layer_1
 62
7
100
AcDbSpline
 70
8
 71
3
 72
8
 73
4
 74
0
 40
0
 40
0
 40
0
 40
0
 40
1
 40
1
 40
1
 40
1
 10
49.484489
 20
31.205197
 30
0.0
 10
49.565389
 20
30.805737
 30
0.0
 10
49.677869
 20
30.152067
 30
0.0
 10
49.734359
 20
29.752597
 30
0.0
  0
SPLINE
  5
179
100
AcDbEntity
  8
Layer_1
 62
7
100
AcDbSpline
 70
8
 71
3
 72
8
 73
4
 74
0
 40
0
 40
0
 40
0
 40
0
 40
1
 40
1
 40
1
 40
1
 10
49.734359
 20
29.752597
 30
0.0
 10
49.799059
 20
29.294997
 30
0.0
 10
49.837049
 20
28.290907
 30
0.0
 10
49.837049
 20
27.038527
 30
0.0
  0
SPLINE
  5
17a
100
AcDbEntity
  8
Layer_1
 62
7
100
AcDbSpline
 70
8
 71
3
 72
8
 73
4
 74
0
 40
0
 40
0
 40
0
 40
0
 40
1
 40
1
 40
1
 40
1
 10
49.837049
 20
27.038527
 30
0.0
 10
49.837049
 20
25.809706
 30
0.0
 10
49.798549
 20
24.773456
 30
0.0
 10
49.736119
 20
24.324466
 30
0.0
  0
SPLINE
  5
17b
100
AcDbEntity
  8
Layer_1
 62
7
100
AcDbSpline
 70
8
 71
3
 72
8
 73
4
 74
0
 40
0
 40
0
 40
0
 40
0
 40
1
 40
1
 40
1
 40
1
 10
49.736119
 20
24.324466
 30
0.0
 10
49.680619
 20
23.924996
 30
0.0
 10
49.548939
 20
23.206536
 30
0.0
 10
49.443509
 20
22.727886
 30
0.0
  0
SPLINE
  5
17c
100
AcDbEntity
  8
Layer_1
 62
7
100
AcDbSpline
 70
8
 71
3
 72
8
 73
4
 74
0
 40
0
 40
0
 40
0
 40
0
 40
1
 40
1
 40
1
 40
1
 10
49.443509
 20
22.727886
 30
0.0
 10
49.338089
 20
22.249236
 30
0.0
 10
49.131119
 20
21.509556
 30
0.0
 10
48.983569
 20
21.084156
 30
0.0
  0
SPLINE
  5
17d
100
AcDbEntity
  8
Layer_1
 62
7
100
AcDbSpline
 70
8
 71
3
 72
8
 73
4
 74
0
 40
0
 40
0
 40
0
 40
0
 40
1
 40
1
 40
1
 40
1
 10
48.983569
 20
21.084156
 30
0.0
 10
48.836018
 20
20.658756
 30
0.0
 10
48.614618
 20
20.121475
 30
0.0
 10
48.491568
 20
19.890205
 30
0.0
  0
SPLINE
  5
17e
100
AcDbEntity
  8
Layer_1
 62
7
100
AcDbSpline
 70
8
 71
3
 72
8
 73
4
 74
0
 40
0
 40
0
 40
0
 40
0
 40
1
 40
1
 40
1
 40
1
 10
48.491568
 20
19.890205
 30
0.0
 10
48.368508
 20
19.658945
 30
0.0
 10
48.113158
 20
19.263295
 30
0.0
 10
47.924128
 20
19.011005
 30
0.0
  0
SPLINE
  5
17f
100
AcDbEntity
  8
Layer_1
 62
7
100
AcDbSpline
 70
8
 71
3
 72
8
 73
4
 74
0
 40
0
 40
0
 40
0
 40
0
 40
1
 40
1
 40
1
 40
1
 10
47.924128
 20
19.011005
 30
0.0
 10
47.735098
 20
18.758715
 30
0.0
 10
47.262578
 20
18.230935
 30
0.0
 10
46.874098
 20
17.838175
 30
0.0
  0
SPLINE
  5
180
100
AcDbEntity
  8
Layer_1
 62
7
100
AcDbSpline
 70
8
 71
3
 72
8
 73
4
 74
0
 40
0
 40
0
 40
0
 40
0
 40
1
 40
1
 40
1
 40
1
 10
46.874098
 20
17.838175
 30
0.0
 10
46.485608
 20
17.445405
 30
0.0
 10
45.896028
 20
16.918505
 30
0.0
 10
45.563918
 20
16.667285
 30
0.0
  0
SPLINE
  5
181
100
AcDbEntity
  8
Layer_1
 62
7
100
AcDbSpline
 70
8
 71
3
 72
8
 73
4
 74
0
 40
0
 40
0
 40
0
 40
0
 40
1
 40
1
 40
1
 40
1
 10
45.563918
 20
16.667285
 30
0.0
 10
45.231818
 20
16.416065
 30
0.0
 10
44.629758
 20
16.045195
 30
0.0
 10
44.225998
 20
15.843135
 30
0.0
  0
SPLINE
  5
182
100
AcDbEntity
  8
Layer_1
 62
7
100
AcDbSpline
 70
8
 71
3
 72
8
 73
4
 74
0
 40
0
 40
0
 40
0
 40
0
 40
1
 40
1
 40
1
 40
1
 10
44.225998
 20
15.843135
 30
0.0
 10
43.822248
 20
15.641075
 30
0.0
 10
43.222428
 20
15.385655
 30
0.0
 10
42.893057
 20
15.275515
 30
0.0
  0
SPLINE
  5
183
100
AcDbEntity
  8
Layer_1
 62
7
100
AcDbSpline
 70
8
 71
3
 72
8
 73
4
 74
0
 40
0
 40
0
 40
0
 40
0
 40
1
 40
1
 40
1
 40
1
 10
42.893057
 20
15.275515
 30
0.0
 10
42.563687
 20
15.165385
 30
0.0
 10
41.983507
 20
15.037505
 30
0.0
 10
41.603747
 20
14.991325
 30
0.0
  0
SPLINE
  5
184
100
AcDbEntity
  8
Layer_1
 62
7
100
AcDbSpline
 70
8
 71
3
 72
8
 73
4
 74
0
 40
0
 40
0
 40
0
 40
0
 40
1
 40
1
 40
1
 40
1
 10
41.603747
 20
14.991325
 30
0.0
 10
41.103857
 20
14.930525
 30
0.0
 10
40.604477
 20
14.930325
 30
0.0
 10
39.794347
 20
14.990635
 30
0.0
  0
SPLINE
  5
185
100
AcDbEntity
  8
Layer_1
 62
7
100
AcDbSpline
 70
8
 71
3
 72
8
 73
4
 74
0
 40
0
 40
0
 40
0
 40
0
 40
1
 40
1
 40
1
 40
1
 10
39.794347
 20
14.990635
 30
0.0
 10
39.178917
 20
15.036435
 30
0.0
 10
38.548097
 20
15.095265
 30
0.0
 10
38.392507
 20
15.121415
 30
0.0
  0
SPLINE
  5
186
100
AcDbEntity
  8
Layer_1
 62
7
100
AcDbSpline
 70
8
 71
3
 72
8
 73
4
 74
0
 40
0
 40
0
 40
0
 40
0
 40
1
 40
1
 40
1
 40
1
 10
38.392507
 20
15.121415
 30
0.0
 10
38.139387
 20
15.163915
 30
0.0
 10
38.105207
 20
15.149815
 30
0.0
 10
38.067697
 20
14.987535
 30
0.0
  0
SPLINE
  5
187
100
AcDbEntity
  8
Layer_1
 62
7
100
AcDbSpline
 70
8
 71
3
 72
8
 73
4
 74
0
 40
0
 40
0
 40
0
 40
0
 40
1
 40
1
 40
1
 40
1
 10
38.067697
 20
14.987535
 30
0.0
 10
38.044597
 20
14.887735
 30
0.0
 10
37.940127
 20
14.358884
 30
0.0
 10
37.835457
 20
13.812244
 30
0.0
  0
SPLINE
  5
188
100
AcDbEntity
  8
Layer_1
 62
7
100
AcDbSpline
 70
8
 71
3
 72
8
 73
4
 74
0
 40
0
 40
0
 40
0
 40
0
 40
1
 40
1
 40
1
 40
1
 10
37.835457
 20
13.812244
 30
0.0
 10
37.730797
 20
13.265614
 30
0.0
 10
37.525307
 20
12.398044
 30
0.0
 10
37.378826
 20
11.884324
 30
0.0
  0
SPLINE
  5
189
100
AcDbEntity
  8
Layer_1
 62
7
100
AcDbSpline
 70
8
 71
3
 72
8
 73
4
 74
0
 40
0
 40
0
 40
0
 40
0
 40
1
 40
1
 40
1
 40
1
 10
37.378826
 20
11.884324
 30
0.0
 10
37.232336
 20
11.370604
 30
0.0
 10
36.987736
 20
10.613714
 30
0.0
 10
36.835266
 20
10.202364
 30
0.0
  0
SPLINE
  5
18a
100
AcDbEntity
  8
Layer_1
 62
7
100
AcDbSpline
 70
8
 71
3
 72
8
 73
4
 74
0
 40
0
 40
0
 40
0
 40
0
 40
1
 40
1
 40
1
 40
1
 10
36.835266
 20
10.202364
 30
0.0
 10
36.682796
 20
9.791014
 30
0.0
 10
36.437566
 20
9.236334
 30
0.0
 10
36.290326
 20
8.969754
 30
0.0
  0
SPLINE
  5
18b
100
AcDbEntity
  8
Layer_1
 62
7
100
AcDbSpline
 70
8
 71
3
 72
8
 73
4
 74
0
 40
0
 40
0
 40
0
 40
0
 40
1
 40
1
 40
1
 40
1
 10
36.290326
 20
8.969754
 30
0.0
 10
36.143086
 20
8.703164
 30
0.0
 10
35.755106
 20
8.152703
 30
0.0
 10
35.428166
 20
7.746503
 30
0.0
  0
SPLINE
  5
18c
100
AcDbEntity
  8
Layer_1
 62
7
100
AcDbSpline
 70
8
 71
3
 72
8
 73
4
 74
0
 40
0
 40
0
 40
0
 40
0
 40
1
 40
1
 40
1
 40
1
 10
35.428166
 20
7.746503
 30
0.0
 10
35.101226
 20
7.340313
 30
0.0
 10
34.439316
 20
6.626093
 30
0.0
 10
33.957266
 20
6.159363
 30
0.0
  0
SPLINE
  5
18d
100
AcDbEntity
  8
Layer_1
 62
7
100
AcDbSpline
 70
8
 71
3
 72
8
 73
4
 74
0
 40
0
 40
0
 40
0
 40
0
 40
1
 40
1
 40
1
 40
1
 10
33.957266
 20
6.159363
 30
0.0
 10
33.475216
 20
5.692633
 30
0.0
 10
32.671016
 20
4.970163
 30
0.0
 10
32.170146
 20
4.553863
 30
0.0
  0
SPLINE
  5
18e
100
AcDbEntity
  8
Layer_1
 62
7
100
AcDbSpline
 70
8
 71
3
 72
8
 73
4
 74
0
 40
0
 40
0
 40
0
 40
0
 40
1
 40
1
 40
1
 40
1
 10
32.170146
 20
4.553863
 30
0.0
 10
31.669285
 20
4.137563
 30
0.0
 10
30.863845
 20
3.505013
 30
0.0
 10
30.380285
 20
3.148193
 30
0.0
  0
SPLINE
  5
18f
100
AcDbEntity
  8
Layer_1
 62
7
100
AcDbSpline
 70
8
 71
3
 72
8
 73
4
 74
0
 40
0
 40
0
 40
0
 40
0
 40
1
 40
1
 40
1
 40
1
 10
30.380285
 20
3.148193
 30
0.0
 10
29.896715
 20
2.791362
 30
0.0
 10
28.864605
 20
2.075822
 30
0.0
 10
28.086705
 20
1.558082
 30
0.0
  0
SPLINE
  5
190
100
AcDbEntity
  8
Layer_1
 62
7
100
AcDbSpline
 70
8
 71
3
 72
8
 73
4
 74
0
 40
0
 40
0
 40
0
 40
0
 40
1
 40
1
 40
1
 40
1
 10
28.086705
 20
1.558082
 30
0.0
 10
27.308799
 20
1.040342
 30
0.0
 10
26.396501
 20
0.479142
 30
0.0
 10
26.059375
 20
0.310952
 30
0.0
  0
SPLINE
  5
191
100
AcDbEntity
  8
Layer_1
 62
7
100
AcDbSpline
 70
8
 71
3
 72
8
 73
4
 74
0
 40
0
 40
0
 40
0
 40
0
 40
1
 40
1
 40
1
 40
1
 10
26.059375
 20
0.310952
 30
0.0
 10
25.645957
 20
0.104712
 30
0.0
 10
25.309969
 20
-0.006468
 30
0.0
 10
25.027264
 20
-0.030578
 30
0.0
  0
SPLINE
  5
192
100
AcDbEntity
  8
Layer_1
 62
7
100
AcDbSpline
 70
8
 71
3
 72
8
 73
4
 74
0
 40
0
 40
0
 40
0
 40
0
 40
1
 40
1
 40
1
 40
1
 10
25.027264
 20
-0.030578
 30
0.0
 10
24.775371
 20
-0.052078
 30
0.0
 10
24.498204
 20
-0.025578
 30
0.0
 10
24.332688
 20
0.036722
 30
0.0
  0
LWPOLYLINE
  5
193
100
AcDbEntity
  8
Layer_1
 62
7
100
AcDbPolyline
 90
3
 70
0
 10
37.227756
 20
51.745018
 30
0.0
 10
37.093416
 20
50.228257
 30
0.0
 10
39.341367
 20
47.960613
 30
0.0
  0
SPLINE
  5
194
100
AcDbEntity
  8
Layer_1
 62
7
100
AcDbSpline
 70
8
 71
3
 72
8
 73
4
 74
0
 40
0
 40
0
 40
0
 40
0
 40
1
 40
1
 40
1
 40
1
 10
11.073254
 20
18.435495
 30
0.0
 10
11.408110
 20
18.521895
 30
0.0
 10
12.061780
 20
18.776395
 30
0.0
 10
12.525854
 20
19.001095
 30
0.0
  0
SPLINE
  5
195
100
AcDbEntity
  8
Layer_1
 62
7
100
AcDbSpline
 70
8
 71
3
 72
8
 73
4
 74
0
 40
0
 40
0
 40
0
 40
0
 40
1
 40
1
 40
1
 40
1
 10
12.525854
 20
19.001095
 30
0.0
 10
12.989928
 20
19.225805
 30
0.0
 10
13.658853
 20
19.617955
 30
0.0
 10
14.012354
 20
19.872555
 30
0.0
  0
SPLINE
  5
196
100
AcDbEntity
  8
Layer_1
 62
7
100
AcDbSpline
 70
8
 71
3
 72
8
 73
4
 74
0
 40
0
 40
0
 40
0
 40
0
 40
1
 40
1
 40
1
 40
1
 10
14.012354
 20
19.872555
 30
0.0
 10
14.365855
 20
20.127145
 30
0.0
 10
14.958075
 20
20.614876
 30
0.0
 10
15.328396
 20
20.956396
 30
0.0
  0
SPLINE
  5
197
100
AcDbEntity
  8
Layer_1
 62
7
100
AcDbSpline
 70
8
 71
3
 72
8
 73
4
 74
0
 40
0
 40
0
 40
0
 40
0
 40
1
 40
1
 40
1
 40
1
 10
15.328396
 20
20.956396
 30
0.0
 10
15.698718
 20
21.297916
 30
0.0
 10
16.297523
 20
21.928796
 30
0.0
 10
16.659073
 20
22.358366
 30
0.0
  0
SPLINE
  5
198
100
AcDbEntity
  8
Layer_1
 62
7
100
AcDbSpline
 70
8
 71
3
 72
8
 73
4
 74
0
 40
0
 40
0
 40
0
 40
0
 40
1
 40
1
 40
1
 40
1
 10
16.659073
 20
22.358366
 30
0.0
 10
17.020625
 20
22.787926
 30
0.0
 10
17.637672
 20
23.621036
 30
0.0
 10
18.030291
 20
24.209716
 30
0.0
  0
SPLINE
  5
199
100
AcDbEntity
  8
Layer_1
 62
7
100
AcDbSpline
 70
8
 71
3
 72
8
 73
4
 74
0
 40
0
 40
0
 40
0
 40
0
 40
1
 40
1
 40
1
 40
1
 10
18.030291
 20
24.209716
 30
0.0
 10
18.422910
 20
24.798406
 30
0.0
 10
18.928455
 20
25.624096
 30
0.0
 10
19.153724
 20
26.044587
 30
0.0
  0
SPLINE
  5
19a
100
AcDbEntity
  8
Layer_1
 62
7
100
AcDbSpline
 70
8
 71
3
 72
8
 73
4
 74
0
 40
0
 40
0
 40
0
 40
0
 40
1
 40
1
 40
1
 40
1
 10
19.153724
 20
26.044587
 30
0.0
 10
19.378993
 20
26.465067
 30
0.0
 10
19.730518
 20
27.166437
 30
0.0
 10
19.934891
 20
27.603177
 30
0.0
  0
SPLINE
  5
19b
100
AcDbEntity
  8
Layer_1
 62
7
100
AcDbSpline
 70
8
 71
3
 72
8
 73
4
 74
0
 40
0
 40
0
 40
0
 40
0
 40
1
 40
1
 40
1
 40
1
 10
19.934891
 20
27.603177
 30
0.0
 10
20.139263
 20
28.039907
 30
0.0
 10
20.476812
 20
28.848397
 30
0.0
 10
20.684998
 20
29.399807
 30
0.0
  0
SPLINE
  5
19c
100
AcDbEntity
  8
Layer_1
 62
7
100
AcDbSpline
 70
8
 71
3
 72
8
 73
4
 74
0
 40
0
 40
0
 40
0
 40
0
 40
1
 40
1
 40
1
 40
1
 10
20.684998
 20
29.399807
 30
0.0
 10
20.893184
 20
29.951227
 30
0.0
 10
21.212701
 20
30.918437
 30
0.0
 10
21.395035
 20
31.549167
 30
0.0
  0
SPLINE
  5
19d
100
AcDbEntity
  8
Layer_1
 62
7
100
AcDbSpline
 70
8
 71
3
 72
8
 73
4
 74
0
 40
0
 40
0
 40
0
 40
0
 40
1
 40
1
 40
1
 40
1
 10
21.395035
 20
31.549167
 30
0.0
 10
21.577370
 20
32.179908
 30
0.0
 10
21.831291
 20
33.177608
 30
0.0
 10
21.959305
 20
33.766298
 30
0.0
  0
SPLINE
  5
19e
100
AcDbEntity
  8
Layer_1
 62
7
100
AcDbSpline
 70
8
 71
3
 72
8
 73
4
 74
0
 40
0
 40
0
 40
0
 40
0
 40
1
 40
1
 40
1
 40
1
 10
21.959305
 20
33.766298
 30
0.0
 10
22.087319
 20
34.354978
 30
0.0
 10
22.278703
 20
35.318288
 30
0.0
 10
22.384601
 20
35.906968
 30
0.0
  0
SPLINE
  5
19f
100
AcDbEntity
  8
Layer_1
 62
7
100
AcDbSpline
 70
8
 71
3
 72
8
 73
4
 74
0
 40
0
 40
0
 40
0
 40
0
 40
1
 40
1
 40
1
 40
1
 10
22.384601
 20
35.906968
 30
0.0
 10
22.490500
 20
36.495658
 30
0.0
 10
22.630049
 20
37.330848
 30
0.0
 10
22.694711
 20
37.762959
 30
0.0
  0
SPLINE
  5
1a0
100
AcDbEntity
  8
Layer_1
 62
7
100
AcDbSpline
 70
8
 71
3
 72
8
 73
4
 74
0
 40
0
 40
0
 40
0
 40
0
 40
1
 40
1
 40
1
 40
1
 10
22.694711
 20
37.762959
 30
0.0
 10
22.759371
 20
38.195069
 30
0.0
 10
22.863721
 20
39.089569
 30
0.0
 10
22.926594
 20
39.750729
 30
0.0
  0
SPLINE
  5
1a1
100
AcDbEntity
  8
Layer_1
 62
7
100
AcDbSpline
 70
8
 71
3
 72
8
 73
4
 74
0
 40
0
 40
0
 40
0
 40
0
 40
1
 40
1
 40
1
 40
1
 10
22.926594
 20
39.750729
 30
0.0
 10
22.991974
 20
40.438219
 30
0.0
 10
23.078386
 20
42.752957
 30
0.0
 10
23.128453
 20
45.157737
 30
0.0
  0
SPLINE
  5
1a2
100
AcDbEntity
  8
Layer_1
 62
7
100
AcDbSpline
 70
8
 71
3
 72
8
 73
4
 74
0
 40
0
 40
0
 40
0
 40
0
 40
1
 40
1
 40
1
 40
1
 10
23.128453
 20
45.157737
 30
0.0
 10
23.187163
 20
47.977541
 30
0.0
 10
23.191663
 20
49.791222
 30
0.0
 10
23.142133
 20
50.663759
 30
0.0
  0
SPLINE
  5
1a3
100
AcDbEntity
  8
Layer_1
 62
7
100
AcDbSpline
 70
8
 71
3
 72
8
 73
4
 74
0
 40
0
 40
0
 40
0
 40
0
 40
1
 40
1
 40
1
 40
1
 10
23.142133
 20
50.663759
 30
0.0
 10
23.101503
 20
51.379379
 30
0.0
 10
23.035433
 20
52.023558
 30
0.0
 10
22.995302
 20
52.095267
 30
0.0
  0
SPLINE
  5
1a4
100
AcDbEntity
  8
Layer_1
 62
7
100
AcDbSpline
 70
8
 71
3
 72
8
 73
4
 74
0
 40
0
 40
0
 40
0
 40
0
 40
1
 40
1
 40
1
 40
1
 10
22.995302
 20
52.095267
 30
0.0
 10
22.930922
 20
52.210302
 30
0.0
 10
22.715600
 20
52.116847
 30
0.0
 10
21.165860
 20
51.301275
 30
0.0
  0
SPLINE
  5
1a5
100
AcDbEntity
  8
Layer_1
 62
7
100
AcDbSpline
 70
8
 71
3
 72
8
 73
4
 74
0
 40
0
 40
0
 40
0
 40
0
 40
1
 40
1
 40
1
 40
1
 10
21.165860
 20
51.301275
 30
0.0
 10
20.199798
 20
50.792870
 30
0.0
 10
18.933632
 20
50.104782
 30
0.0
 10
18.352160
 20
49.772191
 30
0.0
  0
SPLINE
  5
1a6
100
AcDbEntity
  8
Layer_1
 62
7
100
AcDbSpline
 70
8
 71
3
 72
8
 73
4
 74
0
 40
0
 40
0
 40
0
 40
0
 40
1
 40
1
 40
1
 40
1
 10
18.352160
 20
49.772191
 30
0.0
 10
17.770687
 20
49.439600
 30
0.0
 10
16.905859
 20
48.908362
 30
0.0
 10
16.430318
 20
48.591663
 30
0.0
  0
SPLINE
  5
1a7
100
AcDbEntity
  8
Layer_1
 62
7
100
AcDbSpline
 70
8
 71
3
 72
8
 73
4
 74
0
 40
0
 40
0
 40
0
 40
0
 40
1
 40
1
 40
1
 40
1
 10
16.430318
 20
48.591663
 30
0.0
 10
15.954777
 20
48.274964
 30
0.0
 10
15.191995
 20
47.717446
 30
0.0
 10
14.735246
 20
47.352732
 30
0.0
  0
SPLINE
  5
1a8
100
AcDbEntity
  8
Layer_1
 62
7
100
AcDbSpline
 70
8
 71
3
 72
8
 73
4
 74
0
 40
0
 40
0
 40
0
 40
0
 40
1
 40
1
 40
1
 40
1
 10
14.735246
 20
47.352732
 30
0.0
 10
14.278497
 20
46.988020
 30
0.0
 10
13.300136
 20
46.086917
 30
0.0
 10
12.561111
 20
45.350283
 30
0.0
  0
SPLINE
  5
1a9
100
AcDbEntity
  8
Layer_1
 62
7
100
AcDbSpline
 70
8
 71
3
 72
8
 73
4
 74
0
 40
0
 40
0
 40
0
 40
0
 40
1
 40
1
 40
1
 40
1
 10
12.561111
 20
45.350283
 30
0.0
 10
11.822085
 20
44.613649
 30
0.0
 10
10.863511
 20
43.598104
 30
0.0
 10
10.430946
 20
43.093516
 30
0.0
  0
SPLINE
  5
1aa
100
AcDbEntity
  8
Layer_1
 62
7
100
AcDbSpline
 70
8
 71
3
 72
8
 73
4
 74
0
 40
0
 40
0
 40
0
 40
0
 40
1
 40
1
 40
1
 40
1
 10
10.430946
 20
43.093516
 30
0.0
 10
9.998381
 20
42.588928
 30
0.0
 10
9.309374
 20
41.728837
 30
0.0
 10
8.899821
 20
41.182200
 30
0.0
  0
SPLINE
  5
1ab
100
AcDbEntity
  8
Layer_1
 62
7
100
AcDbSpline
 70
8
 71
3
 72
8
 73
4
 74
0
 40
0
 40
0
 40
0
 40
0
 40
1
 40
1
 40
1
 40
1
 10
8.899821
 20
41.182200
 30
0.0
 10
8.490266
 20
40.635559
 30
0.0
 10
7.914987
 20
39.827079
 30
0.0
 10
7.621423
 20
39.385559
 30
0.0
  0
SPLINE
  5
1ac
100
AcDbEntity
  8
Layer_1
 62
7
100
AcDbSpline
 70
8
 71
3
 72
8
 73
4
 74
0
 40
0
 40
0
 40
0
 40
0
 40
1
 40
1
 40
1
 40
1
 10
7.621423
 20
39.385559
 30
0.0
 10
7.327859
 20
38.944049
 30
0.0
 10
6.858258
 20
38.195209
 30
0.0
 10
6.577866
 20
37.721479
 30
0.0
  0
SPLINE
  5
1ad
100
AcDbEntity
  8
Layer_1
 62
7
100
AcDbSpline
 70
8
 71
3
 72
8
 73
4
 74
0
 40
0
 40
0
 40
0
 40
0
 40
1
 40
1
 40
1
 40
1
 10
6.577866
 20
37.721479
 30
0.0
 10
6.297475
 20
37.247748
 30
0.0
 10
5.797149
 20
36.318848
 30
0.0
 10
5.466033
 20
35.657258
 30
0.0
  0
SPLINE
  5
1ae
100
AcDbEntity
  8
Layer_1
 62
7
100
AcDbSpline
 70
8
 71
3
 72
8
 73
4
 74
0
 40
0
 40
0
 40
0
 40
0
 40
1
 40
1
 40
1
 40
1
 10
5.466033
 20
35.657258
 30
0.0
 10
5.134916
 20
34.995668
 30
0.0
 10
4.743476
 20
34.161938
 30
0.0
 10
4.596167
 20
33.804518
 30
0.0
  0
SPLINE
  5
1af
100
AcDbEntity
  8
Layer_1
 62
7
100
AcDbSpline
 70
8
 71
3
 72
8
 73
4
 74
0
 40
0
 40
0
 40
0
 40
0
 40
1
 40
1
 40
1
 40
1
 10
4.596167
 20
33.804518
 30
0.0
 10
4.448858
 20
33.447108
 30
0.0
 10
4.206424
 20
32.776238
 30
0.0
 10
4.057425
 20
32.313698
 30
0.0
  0
SPLINE
  5
1b0
100
AcDbEntity
  8
Layer_1
 62
7
100
AcDbSpline
 70
8
 71
3
 72
8
 73
4
 74
0
 40
0
 40
0
 40
0
 40
0
 40
1
 40
1
 40
1
 40
1
 10
4.057425
 20
32.313698
 30
0.0
 10
3.908426
 20
31.851158
 30
0.0
 10
3.715722
 20
31.094277
 30
0.0
 10
3.629194
 20
30.631737
 30
0.0
  0
SPLINE
  5
1b1
100
AcDbEntity
  8
Layer_1
 62
7
100
AcDbSpline
 70
8
 71
3
 72
8
 73
4
 74
0
 40
0
 40
0
 40
0
 40
0
 40
1
 40
1
 40
1
 40
1
 10
3.629194
 20
30.631737
 30
0.0
 10
3.542664
 20
30.169197
 30
0.0
 10
3.436823
 20
29.434477
 30
0.0
 10
3.393988
 20
28.999017
 30
0.0
  0
SPLINE
  5
1b2
100
AcDbEntity
  8
Layer_1
 62
7
100
AcDbSpline
 70
8
 71
3
 72
8
 73
4
 74
0
 40
0
 40
0
 40
0
 40
0
 40
1
 40
1
 40
1
 40
1
 10
3.393988
 20
28.999017
 30
0.0
 10
3.351158
 20
28.563567
 30
0.0
 10
3.316708
 20
27.617467
 30
0.0
 10
3.317428
 20
26.896577
 30
0.0
  0
SPLINE
  5
1b3
100
AcDbEntity
  8
Layer_1
 62
7
100
AcDbSpline
 70
8
 71
3
 72
8
 73
4
 74
0
 40
0
 40
0
 40
0
 40
0
 40
1
 40
1
 40
1
 40
1
 10
3.317428
 20
26.896577
 30
0.0
 10
3.318155
 20
26.175687
 30
0.0
 10
3.352618
 20
25.259026
 30
0.0
 10
3.394008
 20
24.859566
 30
0.0
  0
SPLINE
  5
1b4
100
AcDbEntity
  8
Layer_1
 62
7
100
AcDbSpline
 70
8
 71
3
 72
8
 73
4
 74
0
 40
0
 40
0
 40
0
 40
0
 40
1
 40
1
 40
1
 40
1
 10
3.394008
 20
24.859566
 30
0.0
 10
3.435398
 20
24.460096
 30
0.0
 10
3.524708
 20
23.858036
 30
0.0
 10
3.592474
 20
23.521646
 30
0.0
  0
SPLINE
  5
1b5
100
AcDbEntity
  8
Layer_1
 62
7
100
AcDbSpline
 70
8
 71
3
 72
8
 73
4
 74
0
 40
0
 40
0
 40
0
 40
0
 40
1
 40
1
 40
1
 40
1
 10
3.592474
 20
23.521646
 30
0.0
 10
3.660244
 20
23.185256
 30
0.0
 10
3.818715
 20
22.624916
 30
0.0
 10
3.944642
 20
22.276446
 30
0.0
  0
SPLINE
  5
1b6
100
AcDbEntity
  8
Layer_1
 62
7
100
AcDbSpline
 70
8
 71
3
 72
8
 73
4
 74
0
 40
0
 40
0
 40
0
 40
0
 40
1
 40
1
 40
1
 40
1
 10
3.944642
 20
22.276446
 30
0.0
 10
4.070568
 20
21.927986
 30
0.0
 10
4.346592
 20
21.377876
 30
0.0
 10
4.558029
 20
21.053986
 30
0.0
  0
SPLINE
  5
1b7
100
AcDbEntity
  8
Layer_1
 62
7
100
AcDbSpline
 70
8
 71
3
 72
8
 73
4
 74
0
 40
0
 40
0
 40
0
 40
0
 40
1
 40
1
 40
1
 40
1
 10
4.558029
 20
21.053986
 30
0.0
 10
4.769465
 20
20.730096
 30
0.0
 10
5.169991
 20
20.239896
 30
0.0
 10
5.448088
 20
19.964655
 30
0.0
  0
SPLINE
  5
1b8
100
AcDbEntity
  8
Layer_1
 62
7
100
AcDbSpline
 70
8
 71
3
 72
8
 73
4
 74
0
 40
0
 40
0
 40
0
 40
0
 40
1
 40
1
 40
1
 40
1
 10
5.448088
 20
19.964655
 30
0.0
 10
5.726184
 20
19.689405
 30
0.0
 10
6.157701
 20
19.330485
 30
0.0
 10
6.407013
 20
19.167055
 30
0.0
  0
SPLINE
  5
1b9
100
AcDbEntity
  8
Layer_1
 62
7
100
AcDbSpline
 70
8
 71
3
 72
8
 73
4
 74
0
 40
0
 40
0
 40
0
 40
0
 40
1
 40
1
 40
1
 40
1
 10
6.407013
 20
19.167055
 30
0.0
 10
6.656325
 20
19.003625
 30
0.0
 10
7.102789
 20
18.768035
 30
0.0
 10
7.399155
 20
18.643515
 30
0.0
  0
SPLINE
  5
1ba
100
AcDbEntity
  8
Layer_1
 62
7
100
AcDbSpline
 70
8
 71
3
 72
8
 73
4
 74
0
 40
0
 40
0
 40
0
 40
0
 40
1
 40
1
 40
1
 40
1
 10
7.399155
 20
18.643515
 30
0.0
 10
7.695521
 20
18.518995
 30
0.0
 10
8.179612
 20
18.370855
 30
0.0
 10
8.474912
 20
18.314305
 30
0.0
  0
SPLINE
  5
1bb
100
AcDbEntity
  8
Layer_1
 62
7
100
AcDbSpline
 70
8
 71
3
 72
8
 73
4
 74
0
 40
0
 40
0
 40
0
 40
0
 40
1
 40
1
 40
1
 40
1
 10
8.474912
 20
18.314305
 30
0.0
 10
8.797149
 20
18.252605
 30
0.0
 10
9.302221
 20
18.224905
 30
0.0
 10
9.738123
 20
18.245005
 30
0.0
  0
SPLINE
  5
1bc
100
AcDbEntity
  8
Layer_1
 62
7
100
AcDbSpline
 70
8
 71
3
 72
8
 73
4
 74
0
 40
0
 40
0
 40
0
 40
0
 40
1
 40
1
 40
1
 40
1
 10
9.738123
 20
18.245005
 30
0.0
 10
10.137588
 20
18.263405
 30
0.0
 10
10.738395
 20
18.349145
 30
0.0
 10
11.073250
 20
18.435525
 30
0.0
  0
LWPOLYLINE
  5
1bd
100
AcDbEntity
  8
Layer_1
 62
7
100
AcDbPolyline
 90
2
 70
0
 10
24.332688
 20
0.036722
 30
0.0
 10
24.332737
 20
0.036592
 30
0.0
  0
SPLINE
  5
1be
100
AcDbEntity
  8
Layer_1
 62
7
100
AcDbSpline
 70
8
 71
3
 72
8
 73
4
 74
0
 40
0
 40
0
 40
0
 40
0
 40
1
 40
1
 40
1
 40
1
 10
41.675357
 20
18.402195
 30
0.0
 10
41.959657
 20
18.470995
 30
0.0
 10
42.467487
 20
18.662355
 30
0.0
 10
42.803877
 20
18.827375
 30
0.0
  0
SPLINE
  5
1bf
100
AcDbEntity
  8
Layer_1
 62
7
100
AcDbSpline
 70
8
 71
3
 72
8
 73
4
 74
0
 40
0
 40
0
 40
0
 40
0
 40
1
 40
1
 40
1
 40
1
 10
42.803877
 20
18.827375
 30
0.0
 10
43.140267
 20
18.992395
 30
0.0
 10
43.638228
 20
19.308525
 30
0.0
 10
43.910448
 20
19.529875
 30
0.0
  0
SPLINE
  5
1c0
100
AcDbEntity
  8
Layer_1
 62
7
100
AcDbSpline
 70
8
 71
3
 72
8
 73
4
 74
0
 40
0
 40
0
 40
0
 40
0
 40
1
 40
1
 40
1
 40
1
 10
43.910448
 20
19.529875
 30
0.0
 10
44.182668
 20
19.751235
 30
0.0
 10
44.588268
 20
20.155065
 30
0.0
 10
44.811778
 20
20.427286
 30
0.0
  0
SPLINE
  5
1c1
100
AcDbEntity
  8
Layer_1
 62
7
100
AcDbSpline
 70
8
 71
3
 72
8
 73
4
 74
0
 40
0
 40
0
 40
0
 40
0
 40
1
 40
1
 40
1
 40
1
 10
44.811778
 20
20.427286
 30
0.0
 10
45.035288
 20
20.699506
 30
0.0
 10
45.405168
 20
21.300666
 30
0.0
 10
45.633738
 20
21.763206
 30
0.0
  0
SPLINE
  5
1c2
100
AcDbEntity
  8
Layer_1
 62
7
100
AcDbSpline
 70
8
 71
3
 72
8
 73
4
 74
0
 40
0
 40
0
 40
0
 40
0
 40
1
 40
1
 40
1
 40
1
 10
45.633738
 20
21.763206
 30
0.0
 10
45.877838
 20
22.257176
 30
0.0
 10
46.112708
 20
22.872196
 30
0.0
 10
46.202938
 20
23.253696
 30
0.0
  0
SPLINE
  5
1c3
100
AcDbEntity
  8
Layer_1
 62
7
100
AcDbSpline
 70
8
 71
3
 72
8
 73
4
 74
0
 40
0
 40
0
 40
0
 40
0
 40
1
 40
1
 40
1
 40
1
 10
46.202938
 20
23.253696
 30
0.0
 10
46.287438
 20
23.610926
 30
0.0
 10
46.395948
 20
24.348606
 30
0.0
 10
46.444078
 20
24.892996
 30
0.0
  0
SPLINE
  5
1c4
100
AcDbEntity
  8
Layer_1
 62
7
100
AcDbSpline
 70
8
 71
3
 72
8
 73
4
 74
0
 40
0
 40
0
 40
0
 40
0
 40
1
 40
1
 40
1
 40
1
 10
46.444078
 20
24.892996
 30
0.0
 10
46.496678
 20
25.488326
 30
0.0
 10
46.515478
 20
26.600557
 30
0.0
 10
46.491178
 20
27.683857
 30
0.0
  0
SPLINE
  5
1c5
100
AcDbEntity
  8
Layer_1
 62
7
100
AcDbSpline
 70
8
 71
3
 72
8
 73
4
 74
0
 40
0
 40
0
 40
0
 40
0
 40
1
 40
1
 40
1
 40
1
 10
46.491178
 20
27.683857
 30
0.0
 10
46.465578
 20
28.823147
 30
0.0
 10
46.406678
 20
29.723697
 30
0.0
 10
46.330698
 20
30.134767
 30
0.0
  0
SPLINE
  5
1c6
100
AcDbEntity
  8
Layer_1
 62
7
100
AcDbSpline
 70
8
 71
3
 72
8
 73
4
 74
0
 40
0
 40
0
 40
0
 40
0
 40
1
 40
1
 40
1
 40
1
 10
46.330698
 20
30.134767
 30
0.0
 10
46.264698
 20
30.492187
 30
0.0
 10
46.104788
 20
31.160587
 30
0.0
 10
45.975388
 20
31.620097
 30
0.0
  0
SPLINE
  5
1c7
100
AcDbEntity
  8
Layer_1
 62
7
100
AcDbSpline
 70
8
 71
3
 72
8
 73
4
 74
0
 40
0
 40
0
 40
0
 40
0
 40
1
 40
1
 40
1
 40
1
 10
45.975388
 20
31.620097
 30
0.0
 10
45.845998
 20
32.079618
 30
0.0
 10
45.548768
 20
32.939708
 30
0.0
 10
45.314878
 20
33.531418
 30
0.0
  0
SPLINE
  5
1c8
100
AcDbEntity
  8
Layer_1
 62
7
100
AcDbSpline
 70
8
 71
3
 72
8
 73
4
 74
0
 40
0
 40
0
 40
0
 40
0
 40
1
 40
1
 40
1
 40
1
 10
45.314878
 20
33.531418
 30
0.0
 10
45.080988
 20
34.123128
 30
0.0
 10
44.636048
 20
35.115768
 30
0.0
 10
44.326118
 20
35.737278
 30
0.0
  0
SPLINE
  5
1c9
100
AcDbEntity
  8
Layer_1
 62
7
100
AcDbSpline
 70
8
 71
3
 72
8
 73
4
 74
0
 40
0
 40
0
 40
0
 40
0
 40
1
 40
1
 40
1
 40
1
 10
44.326118
 20
35.737278
 30
0.0
 10
44.016198
 20
36.358798
 30
0.0
 10
43.524658
 20
37.270498
 30
0.0
 10
43.233808
 20
37.763279
 30
0.0
  0
SPLINE
  5
1ca
100
AcDbEntity
  8
Layer_1
 62
7
100
AcDbSpline
 70
8
 71
3
 72
8
 73
4
 74
0
 40
0
 40
0
 40
0
 40
0
 40
1
 40
1
 40
1
 40
1
 10
43.233808
 20
37.763279
 30
0.0
 10
42.942967
 20
38.256059
 30
0.0
 10
42.398307
 20
39.114799
 30
0.0
 10
42.023457
 20
39.671599
 30
0.0
  0
SPLINE
  5
1cb
100
AcDbEntity
  8
Layer_1
 62
7
100
AcDbSpline
 70
8
 71
3
 72
8
 73
4
 74
0
 40
0
 40
0
 40
0
 40
0
 40
1
 40
1
 40
1
 40
1
 10
42.023457
 20
39.671599
 30
0.0
 10
41.648607
 20
40.228399
 30
0.0
 10
41.026097
 20
41.092259
 30
0.0
 10
40.640117
 20
41.591278
 30
0.0
  0
SPLINE
  5
1cc
100
AcDbEntity
  8
Layer_1
 62
7
100
AcDbSpline
 70
8
 71
3
 72
8
 73
4
 74
0
 40
0
 40
0
 40
0
 40
0
 40
1
 40
1
 40
1
 40
1
 10
40.640117
 20
41.591278
 30
0.0
 10
40.254127
 20
42.090295
 30
0.0
 10
39.616007
 20
42.873263
 30
0.0
 10
39.222067
 20
43.331204
 30
0.0
  0
SPLINE
  5
1cd
100
AcDbEntity
  8
Layer_1
 62
7
100
AcDbSpline
 70
8
 71
3
 72
8
 73
4
 74
0
 40
0
 40
0
 40
0
 40
0
 40
1
 40
1
 40
1
 40
1
 10
39.222067
 20
43.331204
 30
0.0
 10
38.828127
 20
43.789145
 30
0.0
 10
38.080617
 20
44.589886
 30
0.0
 10
37.560927
 20
45.110629
 30
0.0
  0
SPLINE
  5
1ce
100
AcDbEntity
  8
Layer_1
 62
7
100
AcDbSpline
 70
8
 71
3
 72
8
 73
4
 74
0
 40
0
 40
0
 40
0
 40
0
 40
1
 40
1
 40
1
 40
1
 10
37.560927
 20
45.110629
 30
0.0
 10
37.041246
 20
45.631372
 30
0.0
 10
36.288126
 20
46.339161
 30
0.0
 10
35.887346
 20
46.683494
 30
0.0
  0
SPLINE
  5
1cf
100
AcDbEntity
  8
Layer_1
 62
7
100
AcDbSpline
 70
8
 71
3
 72
8
 73
4
 74
0
 40
0
 40
0
 40
0
 40
0
 40
1
 40
1
 40
1
 40
1
 10
35.887346
 20
46.683494
 30
0.0
 10
35.486556
 20
47.027826
 30
0.0
 10
34.882416
 20
47.517820
 30
0.0
 10
34.544796
 20
47.772370
 30
0.0
  0
SPLINE
  5
1d0
100
AcDbEntity
  8
Layer_1
 62
7
100
AcDbSpline
 70
8
 71
3
 72
8
 73
4
 74
0
 40
0
 40
0
 40
0
 40
0
 40
1
 40
1
 40
1
 40
1
 10
34.544796
 20
47.772370
 30
0.0
 10
34.207186
 20
48.026920
 30
0.0
 10
33.536316
 20
48.493835
 30
0.0
 10
33.053976
 20
48.809959
 30
0.0
  0
SPLINE
  5
1d1
100
AcDbEntity
  8
Layer_1
 62
7
100
AcDbSpline
 70
8
 71
3
 72
8
 73
4
 74
0
 40
0
 40
0
 40
0
 40
0
 40
1
 40
1
 40
1
 40
1
 10
33.053976
 20
48.809959
 30
0.0
 10
32.571636
 20
49.126084
 30
0.0
 10
31.712536
 20
49.651355
 30
0.0
 10
31.144875
 20
49.977228
 30
0.0
  0
SPLINE
  5
1d2
100
AcDbEntity
  8
Layer_1
 62
7
100
AcDbSpline
 70
8
 71
3
 72
8
 73
4
 74
0
 40
0
 40
0
 40
0
 40
0
 40
1
 40
1
 40
1
 40
1
 10
31.144875
 20
49.977228
 30
0.0
 10
30.577215
 20
50.303101
 30
0.0
 10
29.379795
 20
50.947033
 30
0.0
 10
28.483945
 20
51.408187
 30
0.0
  0
SPLINE
  5
1d3
100
AcDbEntity
  8
Layer_1
 62
7
100
AcDbSpline
 70
8
 71
3
 72
8
 73
4
 74
0
 40
0
 40
0
 40
0
 40
0
 40
1
 40
1
 40
1
 40
1
 10
28.483945
 20
51.408187
 30
0.0
 10
27.588093
 20
51.869341
 30
0.0
 10
26.836871
 20
52.228397
 30
0.0
 10
26.814563
 20
52.206089
 30
0.0
  0
SPLINE
  5
1d4
100
AcDbEntity
  8
Layer_1
 62
7
100
AcDbSpline
 70
8
 71
3
 72
8
 73
4
 74
0
 40
0
 40
0
 40
0
 40
0
 40
1
 40
1
 40
1
 40
1
 10
26.814563
 20
52.206089
 30
0.0
 10
26.792253
 20
52.183779
 30
0.0
 10
26.743823
 20
51.724090
 30
0.0
 10
26.706929
 20
51.184554
 30
0.0
  0
SPLINE
  5
1d5
100
AcDbEntity
  8
Layer_1
 62
7
100
AcDbSpline
 70
8
 71
3
 72
8
 73
4
 74
0
 40
0
 40
0
 40
0
 40
0
 40
1
 40
1
 40
1
 40
1
 10
26.706929
 20
51.184554
 30
0.0
 10
26.670039
 20
50.645019
 30
0.0
 10
26.639609
 20
49.360690
 30
0.0
 10
26.639309
 20
48.330490
 30
0.0
  0
SPLINE
  5
1d6
100
AcDbEntity
  8
Layer_1
 62
7
100
AcDbSpline
 70
8
 71
3
 72
8
 73
4
 74
0
 40
0
 40
0
 40
0
 40
0
 40
1
 40
1
 40
1
 40
1
 10
26.639309
 20
48.330490
 30
0.0
 10
26.639003
 20
47.300291
 30
0.0
 10
26.670239
 20
45.248320
 30
0.0
 10
26.708709
 20
43.770554
 30
0.0
  0
SPLINE
  5
1d7
100
AcDbEntity
  8
Layer_1
 62
7
100
AcDbSpline
 70
8
 71
3
 72
8
 73
4
 74
0
 40
0
 40
0
 40
0
 40
0
 40
1
 40
1
 40
1
 40
1
 10
26.708709
 20
43.770554
 30
0.0
 10
26.747179
 20
42.292786
 30
0.0
 10
26.816990
 20
40.641409
 30
0.0
 10
26.863849
 20
40.100829
 30
0.0
  0
SPLINE
  5
1d8
100
AcDbEntity
  8
Layer_1
 62
7
100
AcDbSpline
 70
8
 71
3
 72
8
 73
4
 74
0
 40
0
 40
0
 40
0
 40
0
 40
1
 40
1
 40
1
 40
1
 10
26.863849
 20
40.100829
 30
0.0
 10
26.910709
 20
39.560249
 30
0.0
 10
27.034871
 20
38.550289
 30
0.0
 10
27.139766
 20
37.856479
 30
0.0
  0
SPLINE
  5
1d9
100
AcDbEntity
  8
Layer_1
 62
7
100
AcDbSpline
 70
8
 71
3
 72
8
 73
4
 74
0
 40
0
 40
0
 40
0
 40
0
 40
1
 40
1
 40
1
 40
1
 10
27.139766
 20
37.856479
 30
0.0
 10
27.244662
 20
37.162678
 30
0.0
 10
27.417779
 20
36.113358
 30
0.0
 10
27.524470
 20
35.524678
 30
0.0
  0
SPLINE
  5
1da
100
AcDbEntity
  8
Layer_1
 62
7
100
AcDbSpline
 70
8
 71
3
 72
8
 73
4
 74
0
 40
0
 40
0
 40
0
 40
0
 40
1
 40
1
 40
1
 40
1
 10
27.524470
 20
35.524678
 30
0.0
 10
27.631162
 20
34.935988
 30
0.0
 10
27.817185
 20
34.017918
 30
0.0
 10
27.937855
 20
33.484518
 30
0.0
  0
SPLINE
  5
1db
100
AcDbEntity
  8
Layer_1
 62
7
100
AcDbSpline
 70
8
 71
3
 72
8
 73
4
 74
0
 40
0
 40
0
 40
0
 40
0
 40
1
 40
1
 40
1
 40
1
 10
27.937855
 20
33.484518
 30
0.0
 10
28.058525
 20
32.951108
 30
0.0
 10
28.279915
 20
32.079358
 30
0.0
 10
28.429845
 20
31.547277
 30
0.0
  0
SPLINE
  5
1dc
100
AcDbEntity
  8
Layer_1
 62
7
100
AcDbSpline
 70
8
 71
3
 72
8
 73
4
 74
0
 40
0
 40
0
 40
0
 40
0
 40
1
 40
1
 40
1
 40
1
 10
28.429845
 20
31.547277
 30
0.0
 10
28.579765
 20
31.015207
 30
0.0
 10
28.857915
 20
30.150937
 30
0.0
 10
29.047955
 20
29.626677
 30
0.0
  0
SPLINE
  5
1dd
100
AcDbEntity
  8
Layer_1
 62
7
100
AcDbSpline
 70
8
 71
3
 72
8
 73
4
 74
0
 40
0
 40
0
 40
0
 40
0
 40
1
 40
1
 40
1
 40
1
 10
29.047955
 20
29.626677
 30
0.0
 10
29.237985
 20
29.102427
 30
0.0
 10
29.562355
 20
28.305607
 30
0.0
 10
29.768775
 20
27.855967
 30
0.0
  0
SPLINE
  5
1de
100
AcDbEntity
  8
Layer_1
 62
7
100
AcDbSpline
 70
8
 71
3
 72
8
 73
4
 74
0
 40
0
 40
0
 40
0
 40
0
 40
1
 40
1
 40
1
 40
1
 10
29.768775
 20
27.855967
 30
0.0
 10
29.975195
 20
27.406327
 30
0.0
 10
30.356055
 20
26.642797
 30
0.0
 10
30.615135
 20
26.159227
 30
0.0
  0
SPLINE
  5
1df
100
AcDbEntity
  8
Layer_1
 62
7
100
AcDbSpline
 70
8
 71
3
 72
8
 73
4
 74
0
 40
0
 40
0
 40
0
 40
0
 40
1
 40
1
 40
1
 40
1
 10
30.615135
 20
26.159227
 30
0.0
 10
30.874215
 20
25.675666
 30
0.0
 10
31.370175
 20
24.849976
 30
0.0
 10
31.717266
 20
24.324366
 30
0.0
  0
SPLINE
  5
1e0
100
AcDbEntity
  8
Layer_1
 62
7
100
AcDbSpline
 70
8
 71
3
 72
8
 73
4
 74
0
 40
0
 40
0
 40
0
 40
0
 40
1
 40
1
 40
1
 40
1
 10
31.717266
 20
24.324366
 30
0.0
 10
32.064366
 20
23.798756
 30
0.0
 10
32.584716
 20
23.076276
 30
0.0
 10
32.873606
 20
22.718866
 30
0.0
  0
SPLINE
  5
1e1
100
AcDbEntity
  8
Layer_1
 62
7
100
AcDbSpline
 70
8
 71
3
 72
8
 73
4
 74
0
 40
0
 40
0
 40
0
 40
0
 40
1
 40
1
 40
1
 40
1
 10
32.873606
 20
22.718866
 30
0.0
 10
33.162486
 20
22.361446
 30
0.0
 10
33.638866
 20
21.816316
 30
0.0
 10
33.932216
 20
21.507466
 30
0.0
  0
SPLINE
  5
1e2
100
AcDbEntity
  8
Layer_1
 62
7
100
AcDbSpline
 70
8
 71
3
 72
8
 73
4
 74
0
 40
0
 40
0
 40
0
 40
0
 40
1
 40
1
 40
1
 40
1
 10
33.932216
 20
21.507466
 30
0.0
 10
34.225566
 20
21.198616
 30
0.0
 10
34.724726
 20
20.730106
 30
0.0
 10
35.041466
 20
20.466346
 30
0.0
  0
SPLINE
  5
1e3
100
AcDbEntity
  8
Layer_1
 62
7
100
AcDbSpline
 70
8
 71
3
 72
8
 73
4
 74
0
 40
0
 40
0
 40
0
 40
0
 40
1
 40
1
 40
1
 40
1
 10
35.041466
 20
20.466346
 30
0.0
 10
35.358206
 20
20.202586
 30
0.0
 10
35.914796
 20
19.793185
 30
0.0
 10
36.278336
 20
19.556565
 30
0.0
  0
SPLINE
  5
1e4
100
AcDbEntity
  8
Layer_1
 62
7
100
AcDbSpline
 70
8
 71
3
 72
8
 73
4
 74
0
 40
0
 40
0
 40
0
 40
0
 40
1
 40
1
 40
1
 40
1
 10
36.278336
 20
19.556565
 30
0.0
 10
36.641876
 20
19.319945
 30
0.0
 10
37.169636
 20
19.023015
 30
0.0
 10
37.451117
 20
18.896725
 30
0.0
  0
SPLINE
  5
1e5
100
AcDbEntity
  8
Layer_1
 62
7
100
AcDbSpline
 70
8
 71
3
 72
8
 73
4
 74
0
 40
0
 40
0
 40
0
 40
0
 40
1
 40
1
 40
1
 40
1
 10
37.451117
 20
18.896725
 30
0.0
 10
37.732607
 20
18.770425
 30
0.0
 10
38.192047
 20
18.597795
 30
0.0
 10
38.472087
 20
18.513105
 30
0.0
  0
SPLINE
  5
1e6
100
AcDbEntity
  8
Layer_1
 62
7
100
AcDbSpline
 70
8
 71
3
 72
8
 73
4
 74
0
 40
0
 40
0
 40
0
 40
0
 40
1
 40
1
 40
1
 40
1
 10
38.472087
 20
18.513105
 30
0.0
 10
38.752137
 20
18.428405
 30
0.0
 10
39.187687
 20
18.327085
 30
0.0
 10
39.439977
 20
18.287945
 30
0.0
  0
SPLINE
  5
1e7
100
AcDbEntity
  8
Layer_1
 62
7
100
AcDbSpline
 70
8
 71
3
 72
8
 73
4
 74
0
 40
0
 40
0
 40
0
 40
0
 40
1
 40
1
 40
1
 40
1
 10
39.439977
 20
18.287945
 30
0.0
 10
39.692277
 20
18.248845
 30
0.0
 10
40.182147
 20
18.230345
 30
0.0
 10
40.528577
 20
18.246945
 30
0.0
  0
SPLINE
  5
1e8
100
AcDbEntity
  8
Layer_1
 62
7
100
AcDbSpline
 70
8
 71
3
 72
8
 73
4
 74
0
 40
0
 40
0
 40
0
 40
0
 40
1
 40
1
 40
1
 40
1
 10
40.528577
 20
18.246945
 30
0.0
 10
40.875017
 20
18.263545
 30
0.0
 10
41.391077
 20
18.333345
 30
0.0
 10
41.675367
 20
18.402215
 30
0.0
  0
LWPOLYLINE
  5
1e9
100
AcDbEntity
  8
Layer_1
 62
7
100
AcDbPolyline
 90
1
 70
1
 10
11.073250
 20
18.435525
 30
0.0
  0
SPLINE
  5
1ea
100
AcDbEntity
  8
Layer_1
 62
7
100
AcDbSpline
 70
8
 71
3
 72
8
 73
4
 74
0
 40
0
 40
0
 40
0
 40
0
 40
1
 40
1
 40
1
 40
1
 10
17.251148
 20
52.996392
 30
0.0
 10
17.933589
 20
53.376077
 30
0.0
 10
19.472455
 20
54.180517
 30
0.0
 10
20.670850
 20
54.784037
 30
0.0
  0
SPLINE
  5
1eb
100
AcDbEntity
  8
Layer_1
 62
7
100
AcDbSpline
 70
8
 71
3
 72
8
 73
4
 74
0
 40
0
 40
0
 40
0
 40
0
 40
1
 40
1
 40
1
 40
1
 10
20.670850
 20
54.784037
 30
0.0
 10
21.869245
 20
55.387556
 30
0.0
 10
23.176584
 20
56.011507
 30
0.0
 10
23.576049
 20
56.170594
 30
0.0
  0
SPLINE
  5
1ec
100
AcDbEntity
  8
Layer_1
 62
7
100
AcDbSpline
 70
8
 71
3
 72
8
 73
4
 74
0
 40
0
 40
0
 40
0
 40
0
 40
1
 40
1
 40
1
 40
1
 10
23.576049
 20
56.170594
 30
0.0
 10
24.184373
 20
56.412861
 30
0.0
 10
24.395488
 20
56.460334
 30
0.0
 10
24.875743
 20
56.462859
 30
0.0
  0
SPLINE
  5
1ed
100
AcDbEntity
  8
Layer_1
 62
7
100
AcDbSpline
 70
8
 71
3
 72
8
 73
4
 74
0
 40
0
 40
0
 40
0
 40
0
 40
1
 40
1
 40
1
 40
1
 10
24.875743
 20
56.462859
 30
0.0
 10
25.282519
 20
56.464959
 30
0.0
 10
25.604649
 20
56.413459
 30
0.0
 10
25.984307
 20
56.285481
 30
0.0
  0
SPLINE
  5
1ee
100
AcDbEntity
  8
Layer_1
 62
7
100
AcDbSpline
 70
8
 71
3
 72
8
 73
4
 74
0
 40
0
 40
0
 40
0
 40
0
 40
1
 40
1
 40
1
 40
1
 10
25.984307
 20
56.285481
 30
0.0
 10
26.278650
 20
56.186261
 30
0.0
 10
27.637595
 20
55.544296
 30
0.0
 10
29.004185
 20
54.858883
 30
0.0
  0
SPLINE
  5
1ef
100
AcDbEntity
  8
Layer_1
 62
7
100
AcDbSpline
 70
8
 71
3
 72
8
 73
4
 74
0
 40
0
 40
0
 40
0
 40
0
 40
1
 40
1
 40
1
 40
1
 10
29.004185
 20
54.858883
 30
0.0
 10
30.370775
 20
54.173469
 30
0.0
 10
32.014786
 20
53.318687
 30
0.0
 10
32.657556
 20
52.959366
 30
0.0
  0
SPLINE
  5
1f0
100
AcDbEntity
  8
Layer_1
 62
7
100
AcDbSpline
 70
8
 71
3
 72
8
 73
4
 74
0
 40
0
 40
0
 40
0
 40
0
 40
1
 40
1
 40
1
 40
1
 10
32.657556
 20
52.959366
 30
0.0
 10
33.300316
 20
52.600046
 30
0.0
 10
33.856286
 20
52.306056
 30
0.0
 10
33.893046
 20
52.306056
 30
0.0
  0
SPLINE
  5
1f1
100
AcDbEntity
  8
Layer_1
 62
7
100
AcDbSpline
 70
8
 71
3
 72
8
 73
4
 74
0
 40
0
 40
0
 40
0
 40
0
 40
1
 40
1
 40
1
 40
1
 10
33.893046
 20
52.306056
 30
0.0
 10
33.929846
 20
52.306056
 30
0.0
 10
33.984546
 20
52.602083
 30
0.0
 10
34.014676
 20
52.963892
 30
0.0
  0
SPLINE
  5
1f2
100
AcDbEntity
  8
Layer_1
 62
7
100
AcDbSpline
 70
8
 71
3
 72
8
 73
4
 74
0
 40
0
 40
0
 40
0
 40
0
 40
1
 40
1
 40
1
 40
1
 10
34.014676
 20
52.963892
 30
0.0
 10
34.044776
 20
53.325703
 30
0.0
 10
34.050976
 20
54.280405
 30
0.0
 10
34.028376
 20
55.085453
 30
0.0
  0
SPLINE
  5
1f3
100
AcDbEntity
  8
Layer_1
 62
7
100
AcDbSpline
 70
8
 71
3
 72
8
 73
4
 74
0
 40
0
 40
0
 40
0
 40
0
 40
1
 40
1
 40
1
 40
1
 10
34.028376
 20
55.085453
 30
0.0
 10
33.997276
 20
56.192221
 30
0.0
 10
33.949676
 20
56.698332
 30
0.0
 10
33.833156
 20
57.160798
 30
0.0
  0
SPLINE
  5
1f4
100
AcDbEntity
  8
Layer_1
 62
7
100
AcDbSpline
 70
8
 71
3
 72
8
 73
4
 74
0
 40
0
 40
0
 40
0
 40
0
 40
1
 40
1
 40
1
 40
1
 10
33.833156
 20
57.160798
 30
0.0
 10
33.748356
 20
57.497189
 30
0.0
 10
33.557466
 20
58.060507
 30
0.0
 10
33.408906
 20
58.412616
 30
0.0
  0
SPLINE
  5
1f5
100
AcDbEntity
  8
Layer_1
 62
7
100
AcDbSpline
 70
8
 71
3
 72
8
 73
4
 74
0
 40
0
 40
0
 40
0
 40
0
 40
1
 40
1
 40
1
 40
1
 10
33.408906
 20
58.412616
 30
0.0
 10
33.260336
 20
58.764725
 30
0.0
 10
32.995146
 20
59.297982
 30
0.0
 10
32.819586
 20
59.597631
 30
0.0
  0
SPLINE
  5
1f6
100
AcDbEntity
  8
Layer_1
 62
7
100
AcDbSpline
 70
8
 71
3
 72
8
 73
4
 74
0
 40
0
 40
0
 40
0
 40
0
 40
1
 40
1
 40
1
 40
1
 10
32.819586
 20
59.597631
 30
0.0
 10
32.644026
 20
59.897281
 30
0.0
 10
32.309806
 20
60.400477
 30
0.0
 10
32.076876
 20
60.715845
 30
0.0
  0
SPLINE
  5
1f7
100
AcDbEntity
  8
Layer_1
 62
7
100
AcDbSpline
 70
8
 71
3
 72
8
 73
4
 74
0
 40
0
 40
0
 40
0
 40
0
 40
1
 40
1
 40
1
 40
1
 10
32.076876
 20
60.715845
 30
0.0
 10
31.843946
 20
61.031212
 30
0.0
 10
31.306725
 20
61.633276
 30
0.0
 10
30.883045
 20
62.053766
 30
0.0
  0
SPLINE
  5
1f8
100
AcDbEntity
  8
Layer_1
 62
7
100
AcDbSpline
 70
8
 71
3
 72
8
 73
4
 74
0
 40
0
 40
0
 40
0
 40
0
 40
1
 40
1
 40
1
 40
1
 10
30.883045
 20
62.053766
 30
0.0
 10
30.459365
 20
62.474255
 30
0.0
 10
29.793105
 20
63.036152
 30
0.0
 10
29.402465
 20
63.302426
 30
0.0
  0
SPLINE
  5
1f9
100
AcDbEntity
  8
Layer_1
 62
7
100
AcDbSpline
 70
8
 71
3
 72
8
 73
4
 74
0
 40
0
 40
0
 40
0
 40
0
 40
1
 40
1
 40
1
 40
1
 10
29.402465
 20
63.302426
 30
0.0
 10
29.011825
 20
63.568699
 30
0.0
 10
28.373305
 20
63.937624
 30
0.0
 10
27.983543
 20
64.122257
 30
0.0
  0
SPLINE
  5
1fa
100
AcDbEntity
  8
Layer_1
 62
7
100
AcDbSpline
 70
8
 71
3
 72
8
 73
4
 74
0
 40
0
 40
0
 40
0
 40
0
 40
1
 40
1
 40
1
 40
1
 10
27.983543
 20
64.122257
 30
0.0
 10
27.593779
 20
64.306890
 30
0.0
 10
26.898487
 20
64.550945
 30
0.0
 10
26.438452
 20
64.664601
 30
0.0
  0
SPLINE
  5
1fb
100
AcDbEntity
  8
Layer_1
 62
7
100
AcDbSpline
 70
8
 71
3
 72
8
 73
4
 74
0
 40
0
 40
0
 40
0
 40
0
 40
1
 40
1
 40
1
 40
1
 10
26.438452
 20
64.664601
 30
0.0
 10
25.823967
 20
64.816416
 30
0.0
 10
25.409301
 20
64.871092
 30
0.0
 10
24.875723
 20
64.870656
 30
0.0
  0
SPLINE
  5
1fc
100
AcDbEntity
  8
Layer_1
 62
7
100
AcDbSpline
 70
8
 71
3
 72
8
 73
4
 74
0
 40
0
 40
0
 40
0
 40
0
 40
1
 40
1
 40
1
 40
1
 10
24.875723
 20
64.870656
 30
0.0
 10
24.346123
 20
64.870197
 30
0.0
 10
23.932019
 20
64.815416
 30
0.0
 10
23.346671
 20
64.668296
 30
0.0
  0
SPLINE
  5
1fd
100
AcDbEntity
  8
Layer_1
 62
7
100
AcDbSpline
 70
8
 71
3
 72
8
 73
4
 74
0
 40
0
 40
0
 40
0
 40
0
 40
1
 40
1
 40
1
 40
1
 10
23.346671
 20
64.668296
 30
0.0
 10
22.836524
 20
64.540073
 30
0.0
 10
22.233615
 20
64.313023
 30
0.0
 10
21.692609
 20
64.045389
 30
0.0
  0
SPLINE
  5
1fe
100
AcDbEntity
  8
Layer_1
 62
7
100
AcDbSpline
 70
8
 71
3
 72
8
 73
4
 74
0
 40
0
 40
0
 40
0
 40
0
 40
1
 40
1
 40
1
 40
1
 10
21.692609
 20
64.045389
 30
0.0
 10
21.224389
 20
63.813762
 30
0.0
 10
20.553517
 20
63.411590
 30
0.0
 10
20.201783
 20
63.151674
 30
0.0
  0
SPLINE
  5
1ff
100
AcDbEntity
  8
Layer_1
 62
7
100
AcDbSpline
 70
8
 71
3
 72
8
 73
4
 74
0
 40
0
 40
0
 40
0
 40
0
 40
1
 40
1
 40
1
 40
1
 10
20.201783
 20
63.151674
 30
0.0
 10
19.850049
 20
62.891757
 30
0.0
 10
19.235432
 20
62.348319
 30
0.0
 10
18.835967
 20
61.944033
 30
0.0
  0
SPLINE
  5
200
100
AcDbEntity
  8
Layer_1
 62
7
100
AcDbSpline
 70
8
 71
3
 72
8
 73
4
 74
0
 40
0
 40
0
 40
0
 40
0
 40
1
 40
1
 40
1
 40
1
 10
18.835967
 20
61.944033
 30
0.0
 10
18.436502
 20
61.539748
 30
0.0
 10
17.954851
 20
60.994977
 30
0.0
 10
17.765631
 20
60.733431
 30
0.0
  0
SPLINE
  5
201
100
AcDbEntity
  8
Layer_1
 62
7
100
AcDbSpline
 70
8
 71
3
 72
8
 73
4
 74
0
 40
0
 40
0
 40
0
 40
0
 40
1
 40
1
 40
1
 40
1
 10
17.765631
 20
60.733431
 30
0.0
 10
17.576410
 20
60.471885
 30
0.0
 10
17.242452
 20
59.962635
 30
0.0
 10
17.023500
 20
59.601764
 30
0.0
  0
SPLINE
  5
202
100
AcDbEntity
  8
Layer_1
 62
7
100
AcDbSpline
 70
8
 71
3
 72
8
 73
4
 74
0
 40
0
 40
0
 40
0
 40
0
 40
1
 40
1
 40
1
 40
1
 10
17.023500
 20
59.601764
 30
0.0
 10
16.804548
 20
59.240894
 30
0.0
 10
16.517381
 20
58.665520
 30
0.0
 10
16.385352
 20
58.323156
 30
0.0
  0
SPLINE
  5
203
100
AcDbEntity
  8
Layer_1
 62
7
100
AcDbSpline
 70
8
 71
3
 72
8
 73
4
 74
0
 40
0
 40
0
 40
0
 40
0
 40
1
 40
1
 40
1
 40
1
 10
16.385352
 20
58.323156
 30
0.0
 10
16.253323
 20
57.980792
 30
0.0
 10
16.077119
 20
57.441588
 30
0.0
 10
15.993788
 20
57.124926
 30
0.0
  0
SPLINE
  5
204
100
AcDbEntity
  8
Layer_1
 62
7
100
AcDbSpline
 70
8
 71
3
 72
8
 73
4
 74
0
 40
0
 40
0
 40
0
 40
0
 40
1
 40
1
 40
1
 40
1
 10
15.993788
 20
57.124926
 30
0.0
 10
15.890928
 20
56.734049
 30
0.0
 10
15.828625
 20
56.180946
 30
0.0
 10
15.799755
 20
55.402388
 30
0.0
  0
SPLINE
  5
205
100
AcDbEntity
  8
Layer_1
 62
7
100
AcDbSpline
 70
8
 71
3
 72
8
 73
4
 74
0
 40
0
 40
0
 40
0
 40
0
 40
1
 40
1
 40
1
 40
1
 10
15.799755
 20
55.402388
 30
0.0
 10
15.776365
 20
54.771654
 30
0.0
 10
15.782535
 20
53.816951
 30
0.0
 10
15.813475
 20
53.280827
 30
0.0
  0
SPLINE
  5
206
100
AcDbEntity
  8
Layer_1
 62
7
100
AcDbSpline
 70
8
 71
3
 72
8
 73
4
 74
0
 40
0
 40
0
 40
0
 40
0
 40
1
 40
1
 40
1
 40
1
 10
15.813475
 20
53.280827
 30
0.0
 10
15.844405
 20
52.744703
 30
0.0
 10
15.901355
 20
52.306056
 30
0.0
 10
15.940022
 20
52.306056
 30
0.0
  0
SPLINE
  5
207
100
AcDbEntity
  8
Layer_1
 62
7
100
AcDbSpline
 70
8
 71
3
 72
8
 73
4
 74
0
 40
0
 40
0
 40
0
 40
0
 40
1
 40
1
 40
1
 40
1
 10
15.940022
 20
52.306056
 30
0.0
 10
15.978692
 20
52.306056
 30
0.0
 10
16.568690
 20
52.616708
 30
0.0
 10
17.251131
 20
52.996392
 30
0.0
  0
LWPOLYLINE
  5
208
100
AcDbEntity
  8
Layer_1
 62
7
100
AcDbPolyline
 90
1
 70
1
 10
41.675367
 20
18.402215
 30
0.0
  0
LWPOLYLINE
  5
209
100
AcDbEntity
  8
Layer_1
 62
7
100
AcDbPolyline
 90
1
 70
1
 10
17.251131
 20
52.996392
 30
0.0
  0
ENDSEC
  0
SECTION
  2
OBJECTS
  0
DICTIONARY
  5
C
330
0
100
AcDbDictionary
  3
ACAD_GROUP
350
D
  3
ACAD_MLINESTYLE
350
17
  0
DICTIONARY
  5
D
330
C
100
AcDbDictionary
  0
DICTIONARY
  5
1A
330
C
100
AcDbDictionary
  0
DICTIONARY
  5
17
330
C
100
AcDbDictionary
  3
STANDARD
350
18
  0
DICTIONARY
  5
19
330
C
100
AcDbDictionary
  0
ENDSEC
  0
EOF
