%TF.GenerationSoftware,KiCad,Pcbnew,5.1.9-73d0e3b20d~88~ubuntu20.04.1*%
%TF.CreationDate,2021-09-08T23:10:41+05:30*%
%TF.ProjectId,MAP6,4d415036-2e6b-4696-9361-645f70636258,1*%
%TF.SameCoordinates,Original*%
%TF.FileFunction,Copper,L2,Bot*%
%TF.FilePolarity,Positive*%
%FSLAX46Y46*%
G04 Gerber Fmt 4.6, Leading zero omitted, Abs format (unit mm)*
G04 Created by KiCad (PCBNEW 5.1.9-73d0e3b20d~88~ubuntu20.04.1) date 2021-09-08 23:10:41*
%MOMM*%
%LPD*%
G01*
G04 APERTURE LIST*
%TA.AperFunction,EtchedComponent*%
%ADD10C,0.050800*%
%TD*%
%TA.AperFunction,SMDPad,CuDef*%
%ADD11C,12.000000*%
%TD*%
%TA.AperFunction,ComponentPad*%
%ADD12O,3.900000X2.600000*%
%TD*%
%TA.AperFunction,ComponentPad*%
%ADD13C,1.800000*%
%TD*%
%TA.AperFunction,SMDPad,CuDef*%
%ADD14R,1.450000X1.000000*%
%TD*%
%TA.AperFunction,SMDPad,CuDef*%
%ADD15R,1.000000X1.450000*%
%TD*%
%TA.AperFunction,ComponentPad*%
%ADD16O,1.200000X2.400000*%
%TD*%
%TA.AperFunction,SMDPad,CuDef*%
%ADD17C,0.050800*%
%TD*%
%TA.AperFunction,ComponentPad*%
%ADD18O,1.800000X1.800000*%
%TD*%
%TA.AperFunction,ComponentPad*%
%ADD19O,2.200000X1.800000*%
%TD*%
%TA.AperFunction,ComponentPad*%
%ADD20O,2.400000X1.200000*%
%TD*%
%TA.AperFunction,ComponentPad*%
%ADD21C,3.048000*%
%TD*%
%TA.AperFunction,ComponentPad*%
%ADD22C,2.036000*%
%TD*%
%TA.AperFunction,ComponentPad*%
%ADD23C,1.400000*%
%TD*%
%TA.AperFunction,ComponentPad*%
%ADD24O,2.000000X1.700000*%
%TD*%
%TA.AperFunction,Conductor*%
%ADD25C,1.000000*%
%TD*%
%TA.AperFunction,Conductor*%
%ADD26C,0.500000*%
%TD*%
G04 APERTURE END LIST*
D10*
%TO.C,JP1*%
G36*
X170250000Y-109800000D02*
G01*
X169750000Y-109800000D01*
X169750000Y-110200000D01*
X170250000Y-110200000D01*
X170250000Y-109800000D01*
G37*
%TD*%
D11*
%TO.P,BT2,1*%
%TO.N,Net-(BT1-Pad1)*%
X148300000Y-110000000D03*
%TO.P,BT2,2*%
%TO.N,/GND*%
%TA.AperFunction,ComponentPad*%
G36*
G01*
X158323238Y-118962578D02*
X157262578Y-120023238D01*
G75*
G02*
X156201918Y-120023238I-530330J530330D01*
G01*
X155141258Y-118962578D01*
G75*
G02*
X155141258Y-117901918I530330J530330D01*
G01*
X156201918Y-116841258D01*
G75*
G02*
X157262578Y-116841258I530330J-530330D01*
G01*
X158323238Y-117901918D01*
G75*
G02*
X158323238Y-118962578I-530330J-530330D01*
G01*
G37*
%TD.AperFunction*%
%TA.AperFunction,ComponentPad*%
G36*
G01*
X141458742Y-102098082D02*
X140398082Y-103158742D01*
G75*
G02*
X139337422Y-103158742I-530330J530330D01*
G01*
X138276762Y-102098082D01*
G75*
G02*
X138276762Y-101037422I530330J530330D01*
G01*
X139337422Y-99976762D01*
G75*
G02*
X140398082Y-99976762I530330J-530330D01*
G01*
X141458742Y-101037422D01*
G75*
G02*
X141458742Y-102098082I-530330J-530330D01*
G01*
G37*
%TD.AperFunction*%
%TD*%
D12*
%TO.P,BT1,1*%
%TO.N,Net-(BT1-Pad1)*%
X160000000Y-110000000D03*
%TO.P,BT1,2*%
%TO.N,/GND*%
%TA.AperFunction,ComponentPad*%
G36*
G01*
X138200000Y-108700000D02*
X140800000Y-108700000D01*
G75*
G02*
X141450000Y-109350000I0J-650000D01*
G01*
X141450000Y-110650000D01*
G75*
G02*
X140800000Y-111300000I-650000J0D01*
G01*
X138200000Y-111300000D01*
G75*
G02*
X137550000Y-110650000I0J650000D01*
G01*
X137550000Y-109350000D01*
G75*
G02*
X138200000Y-108700000I650000J0D01*
G01*
G37*
%TD.AperFunction*%
%TD*%
D13*
%TO.P,D1,1*%
%TO.N,Net-(D1-Pad1)*%
X155101974Y-80101974D03*
%TO.P,D1,2*%
%TO.N,/left_eye*%
%TA.AperFunction,ComponentPad*%
G36*
G01*
X155943432Y-81579828D02*
X156579828Y-80943432D01*
G75*
G02*
X157216224Y-80943432I318198J-318198D01*
G01*
X157852620Y-81579828D01*
G75*
G02*
X157852620Y-82216224I-318198J-318198D01*
G01*
X157216224Y-82852620D01*
G75*
G02*
X156579828Y-82852620I-318198J318198D01*
G01*
X155943432Y-82216224D01*
G75*
G02*
X155943432Y-81579828I318198J318198D01*
G01*
G37*
%TD.AperFunction*%
%TD*%
%TO.P,D2,2*%
%TO.N,/right_eye*%
%TA.AperFunction,ComponentPad*%
G36*
G01*
X140420172Y-80943432D02*
X141056568Y-81579828D01*
G75*
G02*
X141056568Y-82216224I-318198J-318198D01*
G01*
X140420172Y-82852620D01*
G75*
G02*
X139783776Y-82852620I-318198J318198D01*
G01*
X139147380Y-82216224D01*
G75*
G02*
X139147380Y-81579828I318198J318198D01*
G01*
X139783776Y-80943432D01*
G75*
G02*
X140420172Y-80943432I318198J-318198D01*
G01*
G37*
%TD.AperFunction*%
%TO.P,D2,1*%
%TO.N,Net-(D1-Pad1)*%
X141898026Y-80101974D03*
%TD*%
D14*
%TO.P,R5,2*%
%TO.N,Net-(R5-Pad2)*%
X168500000Y-117450000D03*
%TO.P,R5,1*%
%TO.N,Net-(JP1-Pad2)*%
X168500000Y-115550000D03*
D13*
%TO.P,R5,2*%
%TO.N,Net-(R5-Pad2)*%
X168500000Y-120310000D03*
%TO.P,R5,1*%
%TO.N,Net-(JP1-Pad2)*%
X168500000Y-112690000D03*
%TD*%
%TO.P,R2,1*%
%TO.N,/GND*%
X138500000Y-91810000D03*
%TO.P,R2,2*%
%TO.N,/right_eye*%
X138500000Y-84190000D03*
D14*
%TO.P,R2,1*%
%TO.N,/GND*%
X138500000Y-88950000D03*
%TO.P,R2,2*%
%TO.N,/right_eye*%
X138500000Y-87050000D03*
%TD*%
D13*
%TO.P,R1,1*%
%TO.N,/GND*%
X158500000Y-91810000D03*
%TO.P,R1,2*%
%TO.N,/left_eye*%
X158500000Y-84190000D03*
D14*
%TO.P,R1,1*%
%TO.N,/GND*%
X158500000Y-88950000D03*
%TO.P,R1,2*%
%TO.N,/left_eye*%
X158500000Y-87050000D03*
%TD*%
D13*
%TO.P,R3,1*%
%TO.N,/GND*%
X152310000Y-82000000D03*
%TO.P,R3,2*%
%TO.N,/motor*%
X144690000Y-82000000D03*
D15*
%TO.P,R3,1*%
%TO.N,/GND*%
X149450000Y-82000000D03*
%TO.P,R3,2*%
%TO.N,/motor*%
X147550000Y-82000000D03*
%TD*%
D13*
%TO.P,R4,1*%
%TO.N,Net-(R4-Pad1)*%
X152310000Y-139000000D03*
%TO.P,R4,2*%
%TO.N,/6V*%
X144690000Y-139000000D03*
D15*
%TO.P,R4,1*%
%TO.N,Net-(R4-Pad1)*%
X149450000Y-139000000D03*
%TO.P,R4,2*%
%TO.N,/6V*%
X147550000Y-139000000D03*
%TD*%
D13*
%TO.P,R6,1*%
%TO.N,Net-(C1-Pad1)*%
X152310000Y-136000000D03*
%TO.P,R6,2*%
%TO.N,Net-(R4-Pad1)*%
X144690000Y-136000000D03*
D15*
%TO.P,R6,1*%
%TO.N,Net-(C1-Pad1)*%
X149450000Y-136000000D03*
%TO.P,R6,2*%
%TO.N,Net-(R4-Pad1)*%
X147550000Y-136000000D03*
%TD*%
D16*
%TO.P,C1,1*%
%TO.N,Net-(C1-Pad1)*%
X156000000Y-130000000D03*
%TO.P,C1,2*%
%TO.N,/GND*%
%TA.AperFunction,ComponentPad*%
G36*
G01*
X157900000Y-130900000D02*
X157900000Y-129100000D01*
G75*
G02*
X158200000Y-128800000I300000J0D01*
G01*
X158800000Y-128800000D01*
G75*
G02*
X159100000Y-129100000I0J-300000D01*
G01*
X159100000Y-130900000D01*
G75*
G02*
X158800000Y-131200000I-300000J0D01*
G01*
X158200000Y-131200000D01*
G75*
G02*
X157900000Y-130900000I0J300000D01*
G01*
G37*
%TD.AperFunction*%
%TD*%
%TA.AperFunction,SMDPad,CuDef*%
D17*
%TO.P,JP1,1*%
%TO.N,Net-(C1-Pad1)*%
G36*
X170150000Y-109250000D02*
G01*
X170650000Y-109250000D01*
X170650000Y-109250602D01*
X170674534Y-109250602D01*
X170723365Y-109255412D01*
X170771490Y-109264984D01*
X170818445Y-109279228D01*
X170863778Y-109298005D01*
X170907051Y-109321136D01*
X170947850Y-109348396D01*
X170985779Y-109379524D01*
X171020476Y-109414221D01*
X171051604Y-109452150D01*
X171078864Y-109492949D01*
X171101995Y-109536222D01*
X171120772Y-109581555D01*
X171135016Y-109628510D01*
X171144588Y-109676635D01*
X171149398Y-109725466D01*
X171149398Y-109750000D01*
X171150000Y-109750000D01*
X171150000Y-110250000D01*
X171149398Y-110250000D01*
X171149398Y-110274534D01*
X171144588Y-110323365D01*
X171135016Y-110371490D01*
X171120772Y-110418445D01*
X171101995Y-110463778D01*
X171078864Y-110507051D01*
X171051604Y-110547850D01*
X171020476Y-110585779D01*
X170985779Y-110620476D01*
X170947850Y-110651604D01*
X170907051Y-110678864D01*
X170863778Y-110701995D01*
X170818445Y-110720772D01*
X170771490Y-110735016D01*
X170723365Y-110744588D01*
X170674534Y-110749398D01*
X170650000Y-110749398D01*
X170650000Y-110750000D01*
X170150000Y-110750000D01*
X170150000Y-109250000D01*
G37*
%TD.AperFunction*%
%TA.AperFunction,SMDPad,CuDef*%
%TO.P,JP1,2*%
%TO.N,Net-(JP1-Pad2)*%
G36*
X169350000Y-110749398D02*
G01*
X169325466Y-110749398D01*
X169276635Y-110744588D01*
X169228510Y-110735016D01*
X169181555Y-110720772D01*
X169136222Y-110701995D01*
X169092949Y-110678864D01*
X169052150Y-110651604D01*
X169014221Y-110620476D01*
X168979524Y-110585779D01*
X168948396Y-110547850D01*
X168921136Y-110507051D01*
X168898005Y-110463778D01*
X168879228Y-110418445D01*
X168864984Y-110371490D01*
X168855412Y-110323365D01*
X168850602Y-110274534D01*
X168850602Y-110250000D01*
X168850000Y-110250000D01*
X168850000Y-109750000D01*
X168850602Y-109750000D01*
X168850602Y-109725466D01*
X168855412Y-109676635D01*
X168864984Y-109628510D01*
X168879228Y-109581555D01*
X168898005Y-109536222D01*
X168921136Y-109492949D01*
X168948396Y-109452150D01*
X168979524Y-109414221D01*
X169014221Y-109379524D01*
X169052150Y-109348396D01*
X169092949Y-109321136D01*
X169136222Y-109298005D01*
X169181555Y-109279228D01*
X169228510Y-109264984D01*
X169276635Y-109255412D01*
X169325466Y-109250602D01*
X169350000Y-109250602D01*
X169350000Y-109250000D01*
X169850000Y-109250000D01*
X169850000Y-110750000D01*
X169350000Y-110750000D01*
X169350000Y-110749398D01*
G37*
%TD.AperFunction*%
%TD*%
D13*
%TO.P,M1,1*%
%TO.N,Net-(D1-Pad1)*%
X149770000Y-91500000D03*
%TO.P,M1,2*%
%TO.N,/motor*%
%TA.AperFunction,ComponentPad*%
G36*
G01*
X148130000Y-91050000D02*
X148130000Y-91950000D01*
G75*
G02*
X147680000Y-92400000I-450000J0D01*
G01*
X146780000Y-92400000D01*
G75*
G02*
X146330000Y-91950000I0J450000D01*
G01*
X146330000Y-91050000D01*
G75*
G02*
X146780000Y-90600000I450000J0D01*
G01*
X147680000Y-90600000D01*
G75*
G02*
X148130000Y-91050000I0J-450000D01*
G01*
G37*
%TD.AperFunction*%
%TD*%
%TO.P,Q1,1*%
%TO.N,/6V*%
X145960000Y-85500000D03*
%TO.P,Q1,3*%
%TO.N,Net-(D1-Pad1)*%
X151040000Y-85500000D03*
%TO.P,Q1,2*%
%TO.N,Net-(JP1-Pad2)*%
X148500000Y-88040000D03*
%TD*%
D18*
%TO.P,SW1,1*%
%TO.N,/6V*%
X130500000Y-118800000D03*
D19*
%TO.P,SW1,2*%
%TO.N,Net-(BT1-Pad1)*%
X130500000Y-116500000D03*
D18*
%TO.P,SW1,3*%
%TO.N,N/C*%
X130500000Y-114200000D03*
%TD*%
%TO.P,C2,2*%
%TO.N,/GND*%
%TA.AperFunction,ComponentPad*%
G36*
G01*
X142400000Y-130720000D02*
X140600000Y-130720000D01*
G75*
G02*
X140300000Y-130420000I0J300000D01*
G01*
X140300000Y-129820000D01*
G75*
G02*
X140600000Y-129520000I300000J0D01*
G01*
X142400000Y-129520000D01*
G75*
G02*
X142700000Y-129820000I0J-300000D01*
G01*
X142700000Y-130420000D01*
G75*
G02*
X142400000Y-130720000I-300000J0D01*
G01*
G37*
%TD.AperFunction*%
D20*
%TO.P,C2,1*%
%TO.N,Net-(C2-Pad1)*%
X141500000Y-132620000D03*
%TD*%
%TO.P,U1,1*%
%TO.N,/GND*%
%TA.AperFunction,ComponentPad*%
G36*
G01*
X153510000Y-124700000D02*
X153510000Y-125300000D01*
G75*
G02*
X153210000Y-125600000I-300000J0D01*
G01*
X151410000Y-125600000D01*
G75*
G02*
X151110000Y-125300000I0J300000D01*
G01*
X151110000Y-124700000D01*
G75*
G02*
X151410000Y-124400000I300000J0D01*
G01*
X153210000Y-124400000D01*
G75*
G02*
X153510000Y-124700000I0J-300000D01*
G01*
G37*
%TD.AperFunction*%
%TO.P,U1,5*%
%TO.N,Net-(C2-Pad1)*%
X144690000Y-132620000D03*
%TO.P,U1,2*%
%TO.N,Net-(C1-Pad1)*%
X152310000Y-127540000D03*
%TO.P,U1,6*%
X144690000Y-130080000D03*
%TO.P,U1,3*%
%TO.N,Net-(R5-Pad2)*%
X152310000Y-130080000D03*
%TO.P,U1,7*%
%TO.N,Net-(R4-Pad1)*%
X144690000Y-127540000D03*
%TO.P,U1,4*%
%TO.N,/6V*%
X152310000Y-132620000D03*
%TO.P,U1,8*%
X144690000Y-125000000D03*
%TD*%
D21*
%TO.P,G2,1*%
%TO.N,N/C*%
X148500000Y-75500000D03*
%TD*%
D22*
%TO.P,G3,1*%
%TO.N,N/C*%
X135500000Y-123000000D03*
%TD*%
%TO.P,G4,1*%
%TO.N,N/C*%
X137500000Y-97000000D03*
%TD*%
%TO.P,G5,1*%
%TO.N,N/C*%
X161500000Y-123000000D03*
%TD*%
%TO.P,G6,1*%
%TO.N,N/C*%
X159500000Y-97000000D03*
%TD*%
%TO.P,G7,1*%
%TO.N,N/C*%
X133500000Y-110000000D03*
%TD*%
%TO.P,G8,1*%
%TO.N,N/C*%
X163500000Y-110000000D03*
%TD*%
D23*
%TO.P,G9,1*%
%TO.N,N/C*%
X148500000Y-141500000D03*
%TD*%
D24*
%TO.P,J1,2*%
%TO.N,Net-(BT1-Pad1)*%
X165000000Y-115500000D03*
%TO.P,J1,1*%
%TO.N,/GND*%
%TA.AperFunction,ComponentPad*%
G36*
G01*
X165750000Y-118850000D02*
X164250000Y-118850000D01*
G75*
G02*
X164000000Y-118600000I0J250000D01*
G01*
X164000000Y-117400000D01*
G75*
G02*
X164250000Y-117150000I250000J0D01*
G01*
X165750000Y-117150000D01*
G75*
G02*
X166000000Y-117400000I0J-250000D01*
G01*
X166000000Y-118600000D01*
G75*
G02*
X165750000Y-118850000I-250000J0D01*
G01*
G37*
%TD.AperFunction*%
%TD*%
D25*
%TO.N,/GND*%
X152310000Y-82000000D02*
X149450000Y-82000000D01*
X138500000Y-88950000D02*
X138500000Y-91810000D01*
X158500000Y-91810000D02*
X158500000Y-88950000D01*
D26*
%TO.N,/motor*%
X147550000Y-82000000D02*
X144690000Y-82000000D01*
X150300000Y-88900000D02*
X150300000Y-87200000D01*
X150300000Y-87200000D02*
X147550000Y-84450000D01*
X149500000Y-89700000D02*
X150300000Y-88900000D01*
X147550000Y-84450000D02*
X147550000Y-82000000D01*
X148000000Y-89700000D02*
X149500000Y-89700000D01*
X147230000Y-90470000D02*
X148000000Y-89700000D01*
X147230000Y-91500000D02*
X147230000Y-90470000D01*
D25*
%TO.N,Net-(BT1-Pad1)*%
X165000000Y-115500000D02*
X165000000Y-114000000D01*
X165000000Y-114000000D02*
X163700000Y-112700000D01*
X163700000Y-112700000D02*
X161100000Y-112700000D01*
X160000000Y-111600000D02*
X160000000Y-110000000D01*
X161100000Y-112700000D02*
X160000000Y-111600000D01*
X160000000Y-110000000D02*
X148300000Y-110000000D01*
X141800000Y-116500000D02*
X130500000Y-116500000D01*
X148300000Y-110000000D02*
X141800000Y-116500000D01*
D26*
%TO.N,Net-(C1-Pad1)*%
X144690000Y-130080000D02*
X145980000Y-130080000D01*
X152310000Y-136000000D02*
X149450000Y-136000000D01*
X149450000Y-136000000D02*
X149450000Y-133550000D01*
X149450000Y-133550000D02*
X148950000Y-133050000D01*
X145980000Y-130080000D02*
X148950000Y-133050000D01*
X156000000Y-130000000D02*
X156000000Y-134500000D01*
X154500000Y-136000000D02*
X152310000Y-136000000D01*
X156000000Y-134500000D02*
X154500000Y-136000000D01*
X155960000Y-127540000D02*
X156000000Y-127500000D01*
X152310000Y-127540000D02*
X155960000Y-127540000D01*
X156000000Y-130000000D02*
X156000000Y-127500000D01*
X158000000Y-125500000D02*
X156000000Y-127500000D01*
X167000000Y-125500000D02*
X158000000Y-125500000D01*
X170650000Y-121850000D02*
X167000000Y-125500000D01*
X170650000Y-110000000D02*
X170650000Y-121850000D01*
%TO.N,Net-(C2-Pad1)*%
X144690000Y-132620000D02*
X141500000Y-132620000D01*
%TO.N,Net-(D1-Pad1)*%
X153900000Y-78900000D02*
X155101974Y-80101974D01*
X143100000Y-78900000D02*
X153900000Y-78900000D01*
X141898026Y-80101974D02*
X143100000Y-78900000D01*
X154500000Y-80703948D02*
X155101974Y-80101974D01*
X153400000Y-91500000D02*
X154500000Y-90400000D01*
X149770000Y-91500000D02*
X153400000Y-91500000D01*
X151040000Y-85500000D02*
X154500000Y-85500000D01*
X154500000Y-85500000D02*
X154500000Y-80703948D01*
X154500000Y-90400000D02*
X154500000Y-85500000D01*
%TO.N,Net-(JP1-Pad2)*%
X168500000Y-115550000D02*
X168500000Y-112690000D01*
X145400000Y-89000000D02*
X146360000Y-88040000D01*
X146360000Y-88040000D02*
X148500000Y-88040000D01*
X145400000Y-92800000D02*
X145400000Y-89000000D01*
X146400000Y-93800000D02*
X145400000Y-92800000D01*
X153000000Y-93800000D02*
X146400000Y-93800000D01*
X169350000Y-110000000D02*
X169350000Y-105850000D01*
X162850000Y-99350000D02*
X158550000Y-99350000D01*
X158550000Y-99350000D02*
X153000000Y-93800000D01*
X169350000Y-105850000D02*
X162850000Y-99350000D01*
X169350000Y-111840000D02*
X168500000Y-112690000D01*
X169350000Y-110000000D02*
X169350000Y-111840000D01*
D25*
%TO.N,/6V*%
X147550000Y-139000000D02*
X144690000Y-139000000D01*
X139700000Y-125000000D02*
X144690000Y-125000000D01*
X138300000Y-126400000D02*
X139700000Y-125000000D01*
X138300000Y-133621758D02*
X138300000Y-126400000D01*
X143678242Y-139000000D02*
X138300000Y-133621758D01*
X144690000Y-139000000D02*
X143678242Y-139000000D01*
X147000000Y-125000000D02*
X144690000Y-125000000D01*
X148000000Y-126000000D02*
X147000000Y-125000000D01*
X148000000Y-130000000D02*
X148000000Y-126000000D01*
X150620000Y-132620000D02*
X148000000Y-130000000D01*
X152310000Y-132620000D02*
X150620000Y-132620000D01*
X135500000Y-119000000D02*
X139700000Y-123200000D01*
X128700000Y-119000000D02*
X135500000Y-119000000D01*
X127400000Y-117700000D02*
X128700000Y-119000000D01*
X127400000Y-110100000D02*
X127400000Y-117700000D01*
X141800000Y-95700000D02*
X127400000Y-110100000D01*
X141800000Y-87700000D02*
X141800000Y-95700000D01*
X144000000Y-85500000D02*
X141800000Y-87700000D01*
X139700000Y-123200000D02*
X139700000Y-125000000D01*
X145960000Y-85500000D02*
X144000000Y-85500000D01*
D26*
%TO.N,Net-(R4-Pad1)*%
X147550000Y-136000000D02*
X144690000Y-136000000D01*
X152310000Y-139000000D02*
X149450000Y-139000000D01*
X139500000Y-128500000D02*
X140460000Y-127540000D01*
X140460000Y-127540000D02*
X144690000Y-127540000D01*
X139500000Y-133250000D02*
X139500000Y-128500000D01*
X143900000Y-134000000D02*
X140250000Y-134000000D01*
X144690000Y-134790000D02*
X143900000Y-134000000D01*
X140250000Y-134000000D02*
X139500000Y-133250000D01*
X144690000Y-136000000D02*
X144690000Y-134790000D01*
X147550000Y-137100000D02*
X147550000Y-136000000D01*
X147950000Y-137500000D02*
X147550000Y-137100000D01*
X149100000Y-137500000D02*
X147950000Y-137500000D01*
X149450000Y-137850000D02*
X149100000Y-137500000D01*
X149450000Y-139000000D02*
X149450000Y-137850000D01*
%TO.N,Net-(R5-Pad2)*%
X168500000Y-120310000D02*
X168500000Y-117450000D01*
X160190000Y-120310000D02*
X168500000Y-120310000D01*
X157500000Y-123000000D02*
X160190000Y-120310000D01*
X150450000Y-123000000D02*
X157500000Y-123000000D01*
X149500000Y-123950000D02*
X150450000Y-123000000D01*
X150380000Y-130080000D02*
X149500000Y-129200000D01*
X149500000Y-129200000D02*
X149500000Y-123950000D01*
X152310000Y-130080000D02*
X150380000Y-130080000D01*
%TO.N,/left_eye*%
X158500000Y-87050000D02*
X158500000Y-84190000D01*
X158500000Y-83500000D02*
X156898026Y-81898026D01*
X158500000Y-84190000D02*
X158500000Y-83500000D01*
%TO.N,/right_eye*%
X138500000Y-84190000D02*
X138500000Y-87050000D01*
X138500000Y-83500000D02*
X140101974Y-81898026D01*
X138500000Y-84190000D02*
X138500000Y-83500000D01*
%TD*%
M02*
