%TF.GenerationSoftware,KiCad,Pcbnew,5.1.9-73d0e3b20d~88~ubuntu20.04.1*%
%TF.CreationDate,2021-09-08T23:10:41+05:30*%
%TF.ProjectId,MAP6,4d415036-2e6b-4696-9361-645f70636258,1*%
%TF.SameCoordinates,Original*%
%TF.FileFunction,Soldermask,Top*%
%TF.FilePolarity,Negative*%
%FSLAX46Y46*%
G04 Gerber Fmt 4.6, Leading zero omitted, Abs format (unit mm)*
G04 Created by KiCad (PCBNEW 5.1.9-73d0e3b20d~88~ubuntu20.04.1) date 2021-09-08 23:10:41*
%MOMM*%
%LPD*%
G01*
G04 APERTURE LIST*
%ADD10C,1.800000*%
%ADD11O,3.900000X2.600000*%
%ADD12O,1.200000X2.400000*%
%ADD13O,2.000000X1.000000*%
%ADD14O,1.800000X1.800000*%
%ADD15O,2.200000X1.800000*%
%ADD16O,2.400000X1.200000*%
%ADD17C,3.048000*%
%ADD18C,2.036000*%
%ADD19C,1.400000*%
%ADD20O,2.000000X1.700000*%
%ADD21C,0.254000*%
%ADD22C,0.050800*%
G04 APERTURE END LIST*
%TO.C,BT2*%
G36*
G01*
X158323238Y-118962578D02*
X157262578Y-120023238D01*
G75*
G02*
X156201918Y-120023238I-530330J530330D01*
G01*
X155141258Y-118962578D01*
G75*
G02*
X155141258Y-117901918I530330J530330D01*
G01*
X156201918Y-116841258D01*
G75*
G02*
X157262578Y-116841258I530330J-530330D01*
G01*
X158323238Y-117901918D01*
G75*
G02*
X158323238Y-118962578I-530330J-530330D01*
G01*
G37*
G36*
G01*
X141458742Y-102098082D02*
X140398082Y-103158742D01*
G75*
G02*
X139337422Y-103158742I-530330J530330D01*
G01*
X138276762Y-102098082D01*
G75*
G02*
X138276762Y-101037422I530330J530330D01*
G01*
X139337422Y-99976762D01*
G75*
G02*
X140398082Y-99976762I530330J-530330D01*
G01*
X141458742Y-101037422D01*
G75*
G02*
X141458742Y-102098082I-530330J-530330D01*
G01*
G37*
%TD*%
D10*
%TO.C,BT1*%
X137751000Y-105238000D03*
X146000000Y-119525000D03*
X154249000Y-105238000D03*
D11*
X160000000Y-110000000D03*
G36*
G01*
X138200000Y-108700000D02*
X140800000Y-108700000D01*
G75*
G02*
X141450000Y-109350000I0J-650000D01*
G01*
X141450000Y-110650000D01*
G75*
G02*
X140800000Y-111300000I-650000J0D01*
G01*
X138200000Y-111300000D01*
G75*
G02*
X137550000Y-110650000I0J650000D01*
G01*
X137550000Y-109350000D01*
G75*
G02*
X138200000Y-108700000I650000J0D01*
G01*
G37*
%TD*%
D10*
%TO.C,D1*%
X155101974Y-80101974D03*
G36*
G01*
X155943432Y-81579828D02*
X156579828Y-80943432D01*
G75*
G02*
X157216224Y-80943432I318198J-318198D01*
G01*
X157852620Y-81579828D01*
G75*
G02*
X157852620Y-82216224I-318198J-318198D01*
G01*
X157216224Y-82852620D01*
G75*
G02*
X156579828Y-82852620I-318198J318198D01*
G01*
X155943432Y-82216224D01*
G75*
G02*
X155943432Y-81579828I318198J318198D01*
G01*
G37*
%TD*%
%TO.C,D2*%
G36*
G01*
X140420172Y-80943432D02*
X141056568Y-81579828D01*
G75*
G02*
X141056568Y-82216224I-318198J-318198D01*
G01*
X140420172Y-82852620D01*
G75*
G02*
X139783776Y-82852620I-318198J318198D01*
G01*
X139147380Y-82216224D01*
G75*
G02*
X139147380Y-81579828I318198J318198D01*
G01*
X139783776Y-80943432D01*
G75*
G02*
X140420172Y-80943432I318198J-318198D01*
G01*
G37*
X141898026Y-80101974D03*
%TD*%
%TO.C,R5*%
X168500000Y-120310000D03*
X168500000Y-112690000D03*
%TD*%
%TO.C,R2*%
X138500000Y-91810000D03*
X138500000Y-84190000D03*
%TD*%
%TO.C,R1*%
X158500000Y-91810000D03*
X158500000Y-84190000D03*
%TD*%
%TO.C,R3*%
X152310000Y-82000000D03*
X144690000Y-82000000D03*
%TD*%
%TO.C,R4*%
X152310000Y-139000000D03*
X144690000Y-139000000D03*
%TD*%
%TO.C,R6*%
X152310000Y-136000000D03*
X144690000Y-136000000D03*
%TD*%
D12*
%TO.C,C1*%
X156000000Y-130000000D03*
G36*
G01*
X157900000Y-130900000D02*
X157900000Y-129100000D01*
G75*
G02*
X158200000Y-128800000I300000J0D01*
G01*
X158800000Y-128800000D01*
G75*
G02*
X159100000Y-129100000I0J-300000D01*
G01*
X159100000Y-130900000D01*
G75*
G02*
X158800000Y-131200000I-300000J0D01*
G01*
X158200000Y-131200000D01*
G75*
G02*
X157900000Y-130900000I0J300000D01*
G01*
G37*
%TD*%
D10*
%TO.C,M1*%
X149770000Y-91500000D03*
G36*
G01*
X148130000Y-91050000D02*
X148130000Y-91950000D01*
G75*
G02*
X147680000Y-92400000I-450000J0D01*
G01*
X146780000Y-92400000D01*
G75*
G02*
X146330000Y-91950000I0J450000D01*
G01*
X146330000Y-91050000D01*
G75*
G02*
X146780000Y-90600000I450000J0D01*
G01*
X147680000Y-90600000D01*
G75*
G02*
X148130000Y-91050000I0J-450000D01*
G01*
G37*
%TD*%
%TO.C,Q1*%
X145960000Y-85500000D03*
X151040000Y-85500000D03*
X148500000Y-88040000D03*
%TD*%
D13*
%TO.C,SW1*%
X130500000Y-112400000D03*
X130500000Y-120600000D03*
D14*
X130500000Y-118800000D03*
D15*
X130500000Y-116500000D03*
D14*
X130500000Y-114200000D03*
%TD*%
%TO.C,C2*%
G36*
G01*
X142400000Y-130720000D02*
X140600000Y-130720000D01*
G75*
G02*
X140300000Y-130420000I0J300000D01*
G01*
X140300000Y-129820000D01*
G75*
G02*
X140600000Y-129520000I300000J0D01*
G01*
X142400000Y-129520000D01*
G75*
G02*
X142700000Y-129820000I0J-300000D01*
G01*
X142700000Y-130420000D01*
G75*
G02*
X142400000Y-130720000I-300000J0D01*
G01*
G37*
D16*
X141500000Y-132620000D03*
%TD*%
%TO.C,U1*%
G36*
G01*
X153510000Y-124700000D02*
X153510000Y-125300000D01*
G75*
G02*
X153210000Y-125600000I-300000J0D01*
G01*
X151410000Y-125600000D01*
G75*
G02*
X151110000Y-125300000I0J300000D01*
G01*
X151110000Y-124700000D01*
G75*
G02*
X151410000Y-124400000I300000J0D01*
G01*
X153210000Y-124400000D01*
G75*
G02*
X153510000Y-124700000I0J-300000D01*
G01*
G37*
X144690000Y-132620000D03*
X152310000Y-127540000D03*
X144690000Y-130080000D03*
X152310000Y-130080000D03*
X144690000Y-127540000D03*
X152310000Y-132620000D03*
X144690000Y-125000000D03*
%TD*%
D17*
%TO.C,G2*%
X148500000Y-75500000D03*
%TD*%
D18*
%TO.C,G3*%
X135500000Y-123000000D03*
%TD*%
%TO.C,G4*%
X137500000Y-97000000D03*
%TD*%
%TO.C,G5*%
X161500000Y-123000000D03*
%TD*%
%TO.C,G6*%
X159500000Y-97000000D03*
%TD*%
%TO.C,G7*%
X133500000Y-110000000D03*
%TD*%
%TO.C,G8*%
X163500000Y-110000000D03*
%TD*%
D19*
%TO.C,G9*%
X148500000Y-141500000D03*
%TD*%
D20*
%TO.C,J1*%
X165000000Y-115500000D03*
G36*
G01*
X165750000Y-118850000D02*
X164250000Y-118850000D01*
G75*
G02*
X164000000Y-118600000I0J250000D01*
G01*
X164000000Y-117400000D01*
G75*
G02*
X164250000Y-117150000I250000J0D01*
G01*
X165750000Y-117150000D01*
G75*
G02*
X166000000Y-117400000I0J-250000D01*
G01*
X166000000Y-118600000D01*
G75*
G02*
X165750000Y-118850000I-250000J0D01*
G01*
G37*
%TD*%
D21*
X150377886Y-111034890D02*
X150381086Y-111044593D01*
X153316739Y-118873000D01*
X143683261Y-118873000D01*
X146618914Y-111044593D01*
X146622114Y-111034890D01*
X148500000Y-104462289D01*
X150377886Y-111034890D01*
D22*
G36*
X150377886Y-111034890D02*
G01*
X150381086Y-111044593D01*
X153316739Y-118873000D01*
X143683261Y-118873000D01*
X146618914Y-111044593D01*
X146622114Y-111034890D01*
X148500000Y-104462289D01*
X150377886Y-111034890D01*
G37*
D21*
X146622778Y-93501995D02*
X146373131Y-98994233D01*
X146373000Y-99000000D01*
X146373000Y-101990290D01*
X145874477Y-105230689D01*
X145873981Y-105234248D01*
X145624933Y-107226636D01*
X145126893Y-109218794D01*
X144557476Y-111440834D01*
X143881501Y-113480993D01*
X142886378Y-115693010D01*
X141643738Y-117929763D01*
X139905438Y-120164719D01*
X138093622Y-121901257D01*
X135940758Y-123386579D01*
X133976970Y-124123000D01*
X131776067Y-124123000D01*
X130067896Y-123390927D01*
X128352122Y-121920263D01*
X127371199Y-119958418D01*
X126877155Y-117488196D01*
X126907677Y-115008205D01*
X127374411Y-111029495D01*
X128366080Y-108302404D01*
X129860241Y-105563109D01*
X131356296Y-103069684D01*
X132602479Y-101325028D01*
X134096182Y-99333424D01*
X136586822Y-96842784D01*
X138580026Y-95098731D01*
X140570956Y-93605533D01*
X143061166Y-92111407D01*
X146387860Y-90448060D01*
X146622778Y-93501995D01*
D22*
G36*
X146622778Y-93501995D02*
G01*
X146373131Y-98994233D01*
X146373000Y-99000000D01*
X146373000Y-101990290D01*
X145874477Y-105230689D01*
X145873981Y-105234248D01*
X145624933Y-107226636D01*
X145126893Y-109218794D01*
X144557476Y-111440834D01*
X143881501Y-113480993D01*
X142886378Y-115693010D01*
X141643738Y-117929763D01*
X139905438Y-120164719D01*
X138093622Y-121901257D01*
X135940758Y-123386579D01*
X133976970Y-124123000D01*
X131776067Y-124123000D01*
X130067896Y-123390927D01*
X128352122Y-121920263D01*
X127371199Y-119958418D01*
X126877155Y-117488196D01*
X126907677Y-115008205D01*
X127374411Y-111029495D01*
X128366080Y-108302404D01*
X129860241Y-105563109D01*
X131356296Y-103069684D01*
X132602479Y-101325028D01*
X134096182Y-99333424D01*
X136586822Y-96842784D01*
X138580026Y-95098731D01*
X140570956Y-93605533D01*
X143061166Y-92111407D01*
X146387860Y-90448060D01*
X146622778Y-93501995D01*
G37*
D21*
X153688834Y-92111407D02*
X156179044Y-93605533D01*
X158169974Y-95098731D01*
X160163178Y-96842784D01*
X162653818Y-99333424D01*
X164147521Y-101325029D01*
X165393704Y-103069684D01*
X166889759Y-105563109D01*
X168383920Y-108302405D01*
X169375589Y-111029495D01*
X169842323Y-115008205D01*
X169872845Y-117488196D01*
X169378801Y-119958418D01*
X168397878Y-121920264D01*
X166682105Y-123390926D01*
X164973933Y-124123001D01*
X162773030Y-124123000D01*
X160809242Y-123386579D01*
X158656378Y-121901257D01*
X156844563Y-120164719D01*
X155106262Y-117929762D01*
X153863622Y-115693010D01*
X152868499Y-113480993D01*
X152192525Y-111440834D01*
X151623107Y-109218794D01*
X151125068Y-107226636D01*
X150876019Y-105234248D01*
X150875523Y-105230689D01*
X150377000Y-101990290D01*
X150377000Y-99000000D01*
X150376869Y-98994233D01*
X150127222Y-93501995D01*
X150362140Y-90448060D01*
X153688834Y-92111407D01*
D22*
G36*
X153688834Y-92111407D02*
G01*
X156179044Y-93605533D01*
X158169974Y-95098731D01*
X160163178Y-96842784D01*
X162653818Y-99333424D01*
X164147521Y-101325029D01*
X165393704Y-103069684D01*
X166889759Y-105563109D01*
X168383920Y-108302405D01*
X169375589Y-111029495D01*
X169842323Y-115008205D01*
X169872845Y-117488196D01*
X169378801Y-119958418D01*
X168397878Y-121920264D01*
X166682105Y-123390926D01*
X164973933Y-124123001D01*
X162773030Y-124123000D01*
X160809242Y-123386579D01*
X158656378Y-121901257D01*
X156844563Y-120164719D01*
X155106262Y-117929762D01*
X153863622Y-115693010D01*
X152868499Y-113480993D01*
X152192525Y-111440834D01*
X151623107Y-109218794D01*
X151125068Y-107226636D01*
X150876019Y-105234248D01*
X150875523Y-105230689D01*
X150377000Y-101990290D01*
X150377000Y-99000000D01*
X150376869Y-98994233D01*
X150127222Y-93501995D01*
X150362140Y-90448060D01*
X153688834Y-92111407D01*
G37*
M02*
