%TF.GenerationSoftware,KiCad,Pcbnew,5.1.9-73d0e3b20d~88~ubuntu20.04.1*%
%TF.CreationDate,2021-09-08T23:10:41+05:30*%
%TF.ProjectId,MAP6,4d415036-2e6b-4696-9361-645f70636258,1*%
%TF.SameCoordinates,Original*%
%TF.FileFunction,Copper,L1,Top*%
%TF.FilePolarity,Positive*%
%FSLAX46Y46*%
G04 Gerber Fmt 4.6, Leading zero omitted, Abs format (unit mm)*
G04 Created by KiCad (PCBNEW 5.1.9-73d0e3b20d~88~ubuntu20.04.1) date 2021-09-08 23:10:41*
%MOMM*%
%LPD*%
G01*
G04 APERTURE LIST*
%TA.AperFunction,ComponentPad*%
%ADD10O,3.900000X2.600000*%
%TD*%
%TA.AperFunction,ComponentPad*%
%ADD11C,1.800000*%
%TD*%
%TA.AperFunction,ComponentPad*%
%ADD12O,1.200000X2.400000*%
%TD*%
%TA.AperFunction,ComponentPad*%
%ADD13O,1.800000X1.800000*%
%TD*%
%TA.AperFunction,ComponentPad*%
%ADD14O,2.200000X1.800000*%
%TD*%
%TA.AperFunction,ComponentPad*%
%ADD15O,2.400000X1.200000*%
%TD*%
%TA.AperFunction,ComponentPad*%
%ADD16C,3.048000*%
%TD*%
%TA.AperFunction,ComponentPad*%
%ADD17C,2.036000*%
%TD*%
%TA.AperFunction,ComponentPad*%
%ADD18C,1.400000*%
%TD*%
%TA.AperFunction,ComponentPad*%
%ADD19O,2.000000X1.700000*%
%TD*%
%TA.AperFunction,Conductor*%
%ADD20C,0.250000*%
%TD*%
%TA.AperFunction,Conductor*%
%ADD21C,1.000000*%
%TD*%
%TA.AperFunction,NonConductor*%
%ADD22C,0.254000*%
%TD*%
%TA.AperFunction,NonConductor*%
%ADD23C,0.050800*%
%TD*%
G04 APERTURE END LIST*
%TO.P,BT2,2*%
%TO.N,/GND*%
%TA.AperFunction,ComponentPad*%
G36*
G01*
X158323238Y-118962578D02*
X157262578Y-120023238D01*
G75*
G02*
X156201918Y-120023238I-530330J530330D01*
G01*
X155141258Y-118962578D01*
G75*
G02*
X155141258Y-117901918I530330J530330D01*
G01*
X156201918Y-116841258D01*
G75*
G02*
X157262578Y-116841258I530330J-530330D01*
G01*
X158323238Y-117901918D01*
G75*
G02*
X158323238Y-118962578I-530330J-530330D01*
G01*
G37*
%TD.AperFunction*%
%TA.AperFunction,ComponentPad*%
G36*
G01*
X141458742Y-102098082D02*
X140398082Y-103158742D01*
G75*
G02*
X139337422Y-103158742I-530330J530330D01*
G01*
X138276762Y-102098082D01*
G75*
G02*
X138276762Y-101037422I530330J530330D01*
G01*
X139337422Y-99976762D01*
G75*
G02*
X140398082Y-99976762I530330J-530330D01*
G01*
X141458742Y-101037422D01*
G75*
G02*
X141458742Y-102098082I-530330J-530330D01*
G01*
G37*
%TD.AperFunction*%
%TD*%
D10*
%TO.P,BT1,1*%
%TO.N,Net-(BT1-Pad1)*%
X160000000Y-110000000D03*
%TO.P,BT1,2*%
%TO.N,/GND*%
%TA.AperFunction,ComponentPad*%
G36*
G01*
X138200000Y-108700000D02*
X140800000Y-108700000D01*
G75*
G02*
X141450000Y-109350000I0J-650000D01*
G01*
X141450000Y-110650000D01*
G75*
G02*
X140800000Y-111300000I-650000J0D01*
G01*
X138200000Y-111300000D01*
G75*
G02*
X137550000Y-110650000I0J650000D01*
G01*
X137550000Y-109350000D01*
G75*
G02*
X138200000Y-108700000I650000J0D01*
G01*
G37*
%TD.AperFunction*%
%TD*%
D11*
%TO.P,D1,1*%
%TO.N,Net-(D1-Pad1)*%
X155101974Y-80101974D03*
%TO.P,D1,2*%
%TO.N,/left_eye*%
%TA.AperFunction,ComponentPad*%
G36*
G01*
X155943432Y-81579828D02*
X156579828Y-80943432D01*
G75*
G02*
X157216224Y-80943432I318198J-318198D01*
G01*
X157852620Y-81579828D01*
G75*
G02*
X157852620Y-82216224I-318198J-318198D01*
G01*
X157216224Y-82852620D01*
G75*
G02*
X156579828Y-82852620I-318198J318198D01*
G01*
X155943432Y-82216224D01*
G75*
G02*
X155943432Y-81579828I318198J318198D01*
G01*
G37*
%TD.AperFunction*%
%TD*%
%TO.P,D2,2*%
%TO.N,/right_eye*%
%TA.AperFunction,ComponentPad*%
G36*
G01*
X140420172Y-80943432D02*
X141056568Y-81579828D01*
G75*
G02*
X141056568Y-82216224I-318198J-318198D01*
G01*
X140420172Y-82852620D01*
G75*
G02*
X139783776Y-82852620I-318198J318198D01*
G01*
X139147380Y-82216224D01*
G75*
G02*
X139147380Y-81579828I318198J318198D01*
G01*
X139783776Y-80943432D01*
G75*
G02*
X140420172Y-80943432I318198J-318198D01*
G01*
G37*
%TD.AperFunction*%
%TO.P,D2,1*%
%TO.N,Net-(D1-Pad1)*%
X141898026Y-80101974D03*
%TD*%
%TO.P,R5,2*%
%TO.N,Net-(R5-Pad2)*%
X168500000Y-120310000D03*
%TO.P,R5,1*%
%TO.N,Net-(JP1-Pad2)*%
X168500000Y-112690000D03*
%TD*%
%TO.P,R2,1*%
%TO.N,/GND*%
X138500000Y-91810000D03*
%TO.P,R2,2*%
%TO.N,/right_eye*%
X138500000Y-84190000D03*
%TD*%
%TO.P,R1,1*%
%TO.N,/GND*%
X158500000Y-91810000D03*
%TO.P,R1,2*%
%TO.N,/left_eye*%
X158500000Y-84190000D03*
%TD*%
%TO.P,R3,1*%
%TO.N,/GND*%
X152310000Y-82000000D03*
%TO.P,R3,2*%
%TO.N,/motor*%
X144690000Y-82000000D03*
%TD*%
%TO.P,R4,1*%
%TO.N,Net-(R4-Pad1)*%
X152310000Y-139000000D03*
%TO.P,R4,2*%
%TO.N,/6V*%
X144690000Y-139000000D03*
%TD*%
%TO.P,R6,1*%
%TO.N,Net-(C1-Pad1)*%
X152310000Y-136000000D03*
%TO.P,R6,2*%
%TO.N,Net-(R4-Pad1)*%
X144690000Y-136000000D03*
%TD*%
D12*
%TO.P,C1,1*%
%TO.N,Net-(C1-Pad1)*%
X156000000Y-130000000D03*
%TO.P,C1,2*%
%TO.N,/GND*%
%TA.AperFunction,ComponentPad*%
G36*
G01*
X157900000Y-130900000D02*
X157900000Y-129100000D01*
G75*
G02*
X158200000Y-128800000I300000J0D01*
G01*
X158800000Y-128800000D01*
G75*
G02*
X159100000Y-129100000I0J-300000D01*
G01*
X159100000Y-130900000D01*
G75*
G02*
X158800000Y-131200000I-300000J0D01*
G01*
X158200000Y-131200000D01*
G75*
G02*
X157900000Y-130900000I0J300000D01*
G01*
G37*
%TD.AperFunction*%
%TD*%
D11*
%TO.P,M1,1*%
%TO.N,Net-(D1-Pad1)*%
X149770000Y-91500000D03*
%TO.P,M1,2*%
%TO.N,/motor*%
%TA.AperFunction,ComponentPad*%
G36*
G01*
X148130000Y-91050000D02*
X148130000Y-91950000D01*
G75*
G02*
X147680000Y-92400000I-450000J0D01*
G01*
X146780000Y-92400000D01*
G75*
G02*
X146330000Y-91950000I0J450000D01*
G01*
X146330000Y-91050000D01*
G75*
G02*
X146780000Y-90600000I450000J0D01*
G01*
X147680000Y-90600000D01*
G75*
G02*
X148130000Y-91050000I0J-450000D01*
G01*
G37*
%TD.AperFunction*%
%TD*%
%TO.P,Q1,1*%
%TO.N,/6V*%
X145960000Y-85500000D03*
%TO.P,Q1,3*%
%TO.N,Net-(D1-Pad1)*%
X151040000Y-85500000D03*
%TO.P,Q1,2*%
%TO.N,Net-(JP1-Pad2)*%
X148500000Y-88040000D03*
%TD*%
D13*
%TO.P,SW1,1*%
%TO.N,/6V*%
X130500000Y-118800000D03*
D14*
%TO.P,SW1,2*%
%TO.N,Net-(BT1-Pad1)*%
X130500000Y-116500000D03*
D13*
%TO.P,SW1,3*%
%TO.N,N/C*%
X130500000Y-114200000D03*
%TD*%
%TO.P,C2,2*%
%TO.N,/GND*%
%TA.AperFunction,ComponentPad*%
G36*
G01*
X142400000Y-130720000D02*
X140600000Y-130720000D01*
G75*
G02*
X140300000Y-130420000I0J300000D01*
G01*
X140300000Y-129820000D01*
G75*
G02*
X140600000Y-129520000I300000J0D01*
G01*
X142400000Y-129520000D01*
G75*
G02*
X142700000Y-129820000I0J-300000D01*
G01*
X142700000Y-130420000D01*
G75*
G02*
X142400000Y-130720000I-300000J0D01*
G01*
G37*
%TD.AperFunction*%
D15*
%TO.P,C2,1*%
%TO.N,Net-(C2-Pad1)*%
X141500000Y-132620000D03*
%TD*%
%TO.P,U1,1*%
%TO.N,/GND*%
%TA.AperFunction,ComponentPad*%
G36*
G01*
X153510000Y-124700000D02*
X153510000Y-125300000D01*
G75*
G02*
X153210000Y-125600000I-300000J0D01*
G01*
X151410000Y-125600000D01*
G75*
G02*
X151110000Y-125300000I0J300000D01*
G01*
X151110000Y-124700000D01*
G75*
G02*
X151410000Y-124400000I300000J0D01*
G01*
X153210000Y-124400000D01*
G75*
G02*
X153510000Y-124700000I0J-300000D01*
G01*
G37*
%TD.AperFunction*%
%TO.P,U1,5*%
%TO.N,Net-(C2-Pad1)*%
X144690000Y-132620000D03*
%TO.P,U1,2*%
%TO.N,Net-(C1-Pad1)*%
X152310000Y-127540000D03*
%TO.P,U1,6*%
X144690000Y-130080000D03*
%TO.P,U1,3*%
%TO.N,Net-(R5-Pad2)*%
X152310000Y-130080000D03*
%TO.P,U1,7*%
%TO.N,Net-(R4-Pad1)*%
X144690000Y-127540000D03*
%TO.P,U1,4*%
%TO.N,/6V*%
X152310000Y-132620000D03*
%TO.P,U1,8*%
X144690000Y-125000000D03*
%TD*%
D16*
%TO.P,G2,1*%
%TO.N,N/C*%
X148500000Y-75500000D03*
%TD*%
D17*
%TO.P,G3,1*%
%TO.N,N/C*%
X135500000Y-123000000D03*
%TD*%
%TO.P,G4,1*%
%TO.N,N/C*%
X137500000Y-97000000D03*
%TD*%
%TO.P,G5,1*%
%TO.N,N/C*%
X161500000Y-123000000D03*
%TD*%
%TO.P,G6,1*%
%TO.N,N/C*%
X159500000Y-97000000D03*
%TD*%
%TO.P,G7,1*%
%TO.N,N/C*%
X133500000Y-110000000D03*
%TD*%
%TO.P,G8,1*%
%TO.N,N/C*%
X163500000Y-110000000D03*
%TD*%
D18*
%TO.P,G9,1*%
%TO.N,N/C*%
X148500000Y-141500000D03*
%TD*%
D19*
%TO.P,J1,2*%
%TO.N,Net-(BT1-Pad1)*%
X165000000Y-115500000D03*
%TO.P,J1,1*%
%TO.N,/GND*%
%TA.AperFunction,ComponentPad*%
G36*
G01*
X165750000Y-118850000D02*
X164250000Y-118850000D01*
G75*
G02*
X164000000Y-118600000I0J250000D01*
G01*
X164000000Y-117400000D01*
G75*
G02*
X164250000Y-117150000I250000J0D01*
G01*
X165750000Y-117150000D01*
G75*
G02*
X166000000Y-117400000I0J-250000D01*
G01*
X166000000Y-118600000D01*
G75*
G02*
X165750000Y-118850000I-250000J0D01*
G01*
G37*
%TD.AperFunction*%
%TD*%
D20*
%TO.N,*%
X151700000Y-96300000D02*
X151700000Y-96400000D01*
X153200000Y-97900000D02*
X153200000Y-99500000D01*
X153200000Y-99500000D02*
X152000000Y-100700000D01*
X152000000Y-100700000D02*
X152000000Y-102500000D01*
X152000000Y-102500000D02*
X152400000Y-102900000D01*
X152400000Y-102900000D02*
X152400000Y-107400000D01*
X152400000Y-107400000D02*
X154200000Y-109200000D01*
X155900000Y-109200000D02*
X156800000Y-110100000D01*
X156800000Y-110100000D02*
X156800000Y-111800000D01*
X158500000Y-113500000D02*
X158500000Y-115800000D01*
X153700000Y-95900000D02*
X155600000Y-95900000D01*
X155600000Y-95900000D02*
X157200000Y-97500000D01*
X157200000Y-98100000D02*
X158800000Y-99700000D01*
X158800000Y-99700000D02*
X158800000Y-102600000D01*
X158800000Y-102600000D02*
X159700000Y-103500000D01*
X159700000Y-103500000D02*
X160200000Y-104000000D01*
X160200000Y-104000000D02*
X162000000Y-104000000D01*
X153700000Y-95900000D02*
X153700000Y-96400000D01*
X153700000Y-96400000D02*
X154600000Y-97300000D01*
X154600000Y-97300000D02*
X154600000Y-98100000D01*
X154600000Y-98100000D02*
X155500000Y-99000000D01*
X155500000Y-99000000D02*
X155500000Y-100300000D01*
X155500000Y-100300000D02*
X154800000Y-101000000D01*
X153200000Y-99500000D02*
X153200000Y-101000000D01*
X153200000Y-101000000D02*
X154000000Y-101800000D01*
X154000000Y-101800000D02*
X154000000Y-103500000D01*
X154000000Y-103500000D02*
X154100000Y-103600000D01*
X157200000Y-97900000D02*
X157200000Y-99000000D01*
X157200000Y-97500000D02*
X157200000Y-97900000D01*
X157200000Y-97900000D02*
X157200000Y-98100000D01*
X157200000Y-99000000D02*
X156500000Y-99700000D01*
X156500000Y-102100000D02*
X155900000Y-102700000D01*
X155900000Y-102700000D02*
X155900000Y-104500000D01*
X155900000Y-104500000D02*
X155700000Y-104700000D01*
X156500000Y-100900000D02*
X157100000Y-100900000D01*
X156500000Y-99700000D02*
X156500000Y-100900000D01*
X156500000Y-100900000D02*
X156500000Y-102100000D01*
X157100000Y-100900000D02*
X157800000Y-101600000D01*
X157800000Y-101600000D02*
X157800000Y-103600000D01*
X157800000Y-103600000D02*
X157400000Y-104000000D01*
X157400000Y-104000000D02*
X157400000Y-105600000D01*
X157400000Y-105600000D02*
X156300000Y-106700000D01*
X156300000Y-106700000D02*
X155100000Y-106700000D01*
X155100000Y-106700000D02*
X154400000Y-107400000D01*
X154400000Y-107400000D02*
X154400000Y-107800000D01*
X154400000Y-107800000D02*
X155100000Y-108500000D01*
X157800000Y-103600000D02*
X157900000Y-103600000D01*
X157900000Y-103600000D02*
X159200000Y-104900000D01*
X160800000Y-104900000D02*
X161600000Y-105700000D01*
X161600000Y-105700000D02*
X161600000Y-106500000D01*
X159200000Y-104900000D02*
X159200000Y-106500000D01*
X159200000Y-106500000D02*
X159200000Y-106800000D01*
X159200000Y-106800000D02*
X158400000Y-107600000D01*
X158400000Y-107600000D02*
X157600000Y-107600000D01*
X157600000Y-107600000D02*
X156800000Y-108400000D01*
X159200000Y-104900000D02*
X160100000Y-104900000D01*
X160100000Y-104900000D02*
X160100000Y-106800000D01*
X160100000Y-104900000D02*
X160800000Y-104900000D01*
X160100000Y-106800000D02*
X161500000Y-108200000D01*
X166100000Y-109100000D02*
X166100000Y-110700000D01*
X157500000Y-112500000D02*
X159600000Y-112500000D01*
X156800000Y-111800000D02*
X157500000Y-112500000D01*
X157500000Y-112500000D02*
X158500000Y-113500000D01*
X159600000Y-112500000D02*
X159900000Y-112800000D01*
X159900000Y-112800000D02*
X159900000Y-114300000D01*
X159900000Y-114300000D02*
X161100000Y-115500000D01*
X161100000Y-115500000D02*
X161100000Y-116800000D01*
X159900000Y-112800000D02*
X160600000Y-112800000D01*
X160600000Y-112800000D02*
X161400000Y-113600000D01*
X166100000Y-110700000D02*
X165450000Y-111350000D01*
X165450000Y-111350000D02*
X164700000Y-112100000D01*
X155200000Y-109200000D02*
X155200000Y-110300000D01*
X154200000Y-109200000D02*
X155200000Y-109200000D01*
X155200000Y-109200000D02*
X155900000Y-109200000D01*
X154400000Y-111100000D02*
X154400000Y-113400000D01*
X154400000Y-113400000D02*
X155700000Y-114700000D01*
X155700000Y-114700000D02*
X155700000Y-116400000D01*
X154750000Y-110750000D02*
X154850000Y-110750000D01*
X155200000Y-110300000D02*
X154750000Y-110750000D01*
X154750000Y-110750000D02*
X154400000Y-111100000D01*
X154850000Y-110750000D02*
X155400000Y-111300000D01*
X155400000Y-111300000D02*
X155400000Y-112600000D01*
X155400000Y-112600000D02*
X157000000Y-114200000D01*
X157000000Y-114200000D02*
X157000000Y-115300000D01*
X158800000Y-99700000D02*
X160400000Y-99700000D01*
X160400000Y-99700000D02*
X161000000Y-100300000D01*
X162000000Y-104000000D02*
X163600000Y-104000000D01*
X163600000Y-104000000D02*
X164600000Y-105000000D01*
X164600000Y-105000000D02*
X164600000Y-106800000D01*
X161000000Y-101100000D02*
X160900000Y-101100000D01*
X161000000Y-100300000D02*
X161000000Y-101100000D01*
X161000000Y-101100000D02*
X161000000Y-102400000D01*
X160900000Y-101100000D02*
X160200000Y-101800000D01*
X160200000Y-101800000D02*
X160200000Y-103000000D01*
X160200000Y-103000000D02*
X160400000Y-103200000D01*
X160400000Y-103200000D02*
X162600000Y-103200000D01*
X143700000Y-96200000D02*
X143700000Y-97800000D01*
X143700000Y-97800000D02*
X145300000Y-99400000D01*
X143200000Y-105300000D02*
X143200000Y-111900000D01*
X139900000Y-115200000D02*
X139900000Y-118100000D01*
X139900000Y-118100000D02*
X138900000Y-119100000D01*
X145300000Y-100800000D02*
X144400000Y-101700000D01*
X145300000Y-99400000D02*
X145300000Y-100800000D01*
X145300000Y-100800000D02*
X145300000Y-103200000D01*
X144400000Y-101700000D02*
X144300000Y-101800000D01*
X144300000Y-101800000D02*
X144300000Y-103000000D01*
X144300000Y-103000000D02*
X142000000Y-105300000D01*
X142000000Y-105300000D02*
X141500000Y-105300000D01*
X138100000Y-112500000D02*
X137500000Y-111900000D01*
X137500000Y-111900000D02*
X136800000Y-111900000D01*
X138100000Y-112500000D02*
X136900000Y-113700000D01*
X136900000Y-113700000D02*
X136600000Y-114000000D01*
X136600000Y-114000000D02*
X136600000Y-117600000D01*
X136600000Y-117600000D02*
X137300000Y-118300000D01*
X139700000Y-112500000D02*
X138100000Y-112500000D01*
X139950000Y-104450000D02*
X139850000Y-104450000D01*
X139950000Y-104450000D02*
X139400000Y-105000000D01*
X139850000Y-104450000D02*
X138400000Y-103000000D01*
X138400000Y-103000000D02*
X137200000Y-103000000D01*
X139400000Y-106100000D02*
X139400000Y-106400000D01*
X139400000Y-105000000D02*
X139400000Y-106100000D01*
X139400000Y-106100000D02*
X139400000Y-107800000D01*
X139400000Y-106400000D02*
X138400000Y-107400000D01*
X138400000Y-107400000D02*
X137600000Y-107400000D01*
X137600000Y-107400000D02*
X136800000Y-108200000D01*
X133900000Y-101900000D02*
X133900000Y-104200000D01*
X133900000Y-104200000D02*
X132600000Y-105500000D01*
X133900000Y-101900000D02*
X133100000Y-101900000D01*
X133100000Y-101900000D02*
X132600000Y-102400000D01*
X132600000Y-102400000D02*
X132600000Y-103700000D01*
X132600000Y-103700000D02*
X131100000Y-105200000D01*
X131100000Y-105200000D02*
X131100000Y-106900000D01*
X128800000Y-109200000D02*
X128800000Y-110900000D01*
X131100000Y-106900000D02*
X130700000Y-107300000D01*
X130700000Y-107300000D02*
X128800000Y-109200000D01*
X132600000Y-105500000D02*
X132600000Y-105700000D01*
X134300000Y-113900000D02*
X134300000Y-115400000D01*
X134300000Y-115400000D02*
X133500000Y-116200000D01*
X132150000Y-111750000D02*
X132150000Y-113250000D01*
X132150000Y-111750000D02*
X134300000Y-113900000D01*
X133200000Y-114300000D02*
X133200000Y-115200000D01*
X132150000Y-113250000D02*
X132750000Y-113850000D01*
X132750000Y-113850000D02*
X133200000Y-114300000D01*
X133500000Y-117100000D02*
X133600000Y-117100000D01*
X133500000Y-116200000D02*
X133500000Y-117100000D01*
X133600000Y-117100000D02*
X134100000Y-117600000D01*
X134100000Y-117600000D02*
X134100000Y-119500000D01*
X134100000Y-119500000D02*
X135200000Y-120600000D01*
X133500000Y-121400000D02*
X133500000Y-123100000D01*
X133000000Y-120900000D02*
X133500000Y-121400000D01*
X133000000Y-119400000D02*
X133000000Y-120900000D01*
X133500000Y-118900000D02*
X133000000Y-119400000D01*
X133500000Y-117100000D02*
X133500000Y-118900000D01*
X141900000Y-113200000D02*
X141900000Y-113400000D01*
X143200000Y-111900000D02*
X141900000Y-113200000D01*
X141900000Y-113200000D02*
X139900000Y-115200000D01*
X141900000Y-113400000D02*
X142400000Y-113900000D01*
X142400000Y-113900000D02*
X142400000Y-114900000D01*
X142400000Y-114900000D02*
X141300000Y-116000000D01*
X141300000Y-116000000D02*
X141300000Y-117000000D01*
X141300000Y-117000000D02*
X140900000Y-117400000D01*
X138500000Y-117300000D02*
X138500000Y-118300000D01*
X137600000Y-116400000D02*
X138500000Y-117300000D01*
X137600000Y-115200000D02*
X137600000Y-116400000D01*
X139200000Y-114300000D02*
X138500000Y-114300000D01*
X139700000Y-113800000D02*
X139200000Y-114300000D01*
X138500000Y-114300000D02*
X137600000Y-115200000D01*
X139700000Y-112500000D02*
X139700000Y-113800000D01*
X130000000Y-109500000D02*
X130000000Y-110700000D01*
X131300000Y-108200000D02*
X130000000Y-109500000D01*
X131300000Y-107800000D02*
X131300000Y-108200000D01*
X130800000Y-107300000D02*
X131300000Y-107800000D01*
X130700000Y-107300000D02*
X130800000Y-107300000D01*
X141000000Y-105800000D02*
X141300000Y-105800000D01*
X141500000Y-105300000D02*
X141000000Y-105800000D01*
X141300000Y-105800000D02*
X142000000Y-106500000D01*
X142000000Y-106500000D02*
X142000000Y-107400000D01*
X144000000Y-104500000D02*
X144700000Y-105200000D01*
X145300000Y-103200000D02*
X144000000Y-104500000D01*
X144000000Y-104500000D02*
X143200000Y-105300000D01*
X144700000Y-105200000D02*
X144700000Y-106600000D01*
X144700000Y-106600000D02*
X144700000Y-106700000D01*
X144700000Y-106700000D02*
X144200000Y-107200000D01*
X144200000Y-107200000D02*
X144200000Y-109300000D01*
X152450000Y-97150000D02*
X152450000Y-97250000D01*
X151700000Y-96400000D02*
X152450000Y-97150000D01*
X152450000Y-97150000D02*
X153200000Y-97900000D01*
X152450000Y-97250000D02*
X151300000Y-98400000D01*
X151300000Y-98400000D02*
X151300000Y-99200000D01*
X151300000Y-99200000D02*
X151700000Y-99600000D01*
X162100000Y-117800000D02*
X162100000Y-117900000D01*
X160500000Y-117800000D02*
X162100000Y-117800000D01*
X162100000Y-117900000D02*
X161400000Y-118600000D01*
X161400000Y-118600000D02*
X161400000Y-119500000D01*
X161400000Y-119500000D02*
X159900000Y-121000000D01*
X159900000Y-121000000D02*
X159900000Y-121700000D01*
X159500000Y-116800000D02*
X159500000Y-118300000D01*
X158500000Y-115800000D02*
X159500000Y-116800000D01*
X159500000Y-116800000D02*
X160500000Y-117800000D01*
X159500000Y-118300000D02*
X159900000Y-118700000D01*
X159900000Y-118700000D02*
X159900000Y-119700000D01*
X159900000Y-119700000D02*
X159100000Y-120500000D01*
X137100000Y-99700000D02*
X136100000Y-99700000D01*
X136100000Y-99700000D02*
X135300000Y-100500000D01*
X135300000Y-100500000D02*
X135300000Y-101100000D01*
X164700000Y-112100000D02*
X163800000Y-112100000D01*
X142300000Y-111400000D02*
X141200000Y-112500000D01*
X141200000Y-112500000D02*
X139700000Y-112500000D01*
X142300000Y-108900000D02*
X142300000Y-111400000D01*
X140600000Y-107200000D02*
X142300000Y-108900000D01*
X140600000Y-106200000D02*
X140600000Y-107200000D01*
X141000000Y-105800000D02*
X140600000Y-106200000D01*
X131400000Y-111000000D02*
X132150000Y-111750000D01*
X132200000Y-107300000D02*
X132200000Y-108300000D01*
X132200000Y-108300000D02*
X131400000Y-109100000D01*
X131800000Y-106100000D02*
X131800000Y-106900000D01*
X131800000Y-106900000D02*
X132200000Y-107300000D01*
X132200000Y-105700000D02*
X131800000Y-106100000D01*
X131400000Y-109100000D02*
X131400000Y-111000000D01*
X132600000Y-105700000D02*
X132200000Y-105700000D01*
X133300000Y-108100000D02*
X133300000Y-108200000D01*
X133700000Y-107700000D02*
X133300000Y-108100000D01*
X133700000Y-106950000D02*
X133700000Y-107700000D01*
X132600000Y-105850000D02*
X133700000Y-106950000D01*
X132600000Y-105700000D02*
X132600000Y-105850000D01*
X133800000Y-112100000D02*
X134300000Y-112600000D01*
X132900000Y-112100000D02*
X133800000Y-112100000D01*
X132700000Y-112300000D02*
X132900000Y-112100000D01*
X127800000Y-114900000D02*
X128000000Y-115100000D01*
X127800000Y-111900000D02*
X127800000Y-114900000D01*
X128800000Y-110900000D02*
X127800000Y-111900000D01*
X128600000Y-116700000D02*
X127900000Y-117400000D01*
X128600000Y-113300000D02*
X128600000Y-116700000D01*
X129000000Y-112900000D02*
X128600000Y-113300000D01*
X129000000Y-111100000D02*
X129000000Y-112900000D01*
X128800000Y-110900000D02*
X129000000Y-111100000D01*
X132100000Y-122300000D02*
X132600000Y-122800000D01*
X132100000Y-120200000D02*
X132100000Y-122300000D01*
X132400000Y-119900000D02*
X132100000Y-120200000D01*
X132900000Y-117400000D02*
X132900000Y-118200000D01*
X132900000Y-118200000D02*
X132400000Y-118700000D01*
X132300000Y-116800000D02*
X132900000Y-117400000D01*
X132300000Y-114500000D02*
X132300000Y-116800000D01*
X132750000Y-114050000D02*
X132300000Y-114500000D01*
X132400000Y-118700000D02*
X132400000Y-119900000D01*
X132750000Y-113850000D02*
X132750000Y-114050000D01*
X138300000Y-99700000D02*
X137100000Y-99700000D01*
X139000000Y-99000000D02*
X138300000Y-99700000D01*
X139000000Y-98500000D02*
X139000000Y-99000000D01*
D21*
%TO.N,/GND*%
X139450000Y-110000000D02*
X135500000Y-110000000D01*
X135500000Y-110000000D02*
X135500000Y-103000000D01*
D20*
%TO.N,*%
X163500000Y-120300000D02*
X163500000Y-122800000D01*
X162900000Y-118100000D02*
X162900000Y-119700000D01*
X162600000Y-117800000D02*
X162900000Y-118100000D01*
X162100000Y-117800000D02*
X162600000Y-117800000D01*
X162900000Y-119700000D02*
X163200000Y-120000000D01*
X163200000Y-120000000D02*
X163500000Y-120300000D01*
X161400000Y-113600000D02*
X161400000Y-114500000D01*
X164700000Y-112100000D02*
X164700000Y-112900000D01*
X164700000Y-112900000D02*
X163400000Y-114200000D01*
X163400000Y-115800000D02*
X163200000Y-116000000D01*
X163400000Y-114200000D02*
X163400000Y-115800000D01*
X163800000Y-112100000D02*
X163100000Y-112100000D01*
X163100000Y-112100000D02*
X162400000Y-112800000D01*
X162400000Y-112800000D02*
X162400000Y-115000000D01*
X162400000Y-115000000D02*
X162000000Y-115400000D01*
X163200000Y-116000000D02*
X162900000Y-116300000D01*
X162900000Y-116300000D02*
X162900000Y-116900000D01*
X162000000Y-104000000D02*
X163000000Y-105000000D01*
X162500000Y-106400000D02*
X162500000Y-107000000D01*
X163000000Y-105900000D02*
X162500000Y-106400000D01*
X162500000Y-107000000D02*
X163200000Y-107700000D01*
X163000000Y-105000000D02*
X163000000Y-105900000D01*
X163200000Y-107700000D02*
X164900000Y-107700000D01*
X167100000Y-109900000D02*
X167100000Y-111100000D01*
X167100000Y-111100000D02*
X166200000Y-112000000D01*
X166200000Y-112000000D02*
X166200000Y-114000000D01*
X166200000Y-114000000D02*
X167300000Y-115100000D01*
X167300000Y-115100000D02*
X168000000Y-115100000D01*
X164900000Y-107700000D02*
X165400000Y-108200000D01*
X165400000Y-108200000D02*
X167100000Y-109900000D01*
X151700000Y-96400000D02*
X151700000Y-94800000D01*
X151700000Y-94800000D02*
X152300000Y-94200000D01*
X152300000Y-93500000D02*
X151600000Y-92800000D01*
X151600000Y-92800000D02*
X151600000Y-91800000D01*
X153700000Y-95900000D02*
X153700000Y-94500000D01*
X153000000Y-93800000D02*
X152300000Y-93800000D01*
X153700000Y-94500000D02*
X153000000Y-93800000D01*
X152300000Y-93800000D02*
X152300000Y-93500000D01*
X152300000Y-94200000D02*
X152300000Y-93800000D01*
X145200000Y-93600000D02*
X145200000Y-92300000D01*
X142700000Y-96400000D02*
X142700000Y-94500000D01*
X142700000Y-94500000D02*
X142950000Y-94250000D01*
X144550000Y-94250000D02*
X145200000Y-93600000D01*
X143700000Y-95100000D02*
X144550000Y-94250000D01*
X143700000Y-95700000D02*
X144800000Y-95700000D01*
X143700000Y-96200000D02*
X143700000Y-95700000D01*
X143700000Y-95700000D02*
X143700000Y-95100000D01*
X144800000Y-95700000D02*
X145500000Y-96400000D01*
X145500000Y-96400000D02*
X145500000Y-97400000D01*
X142700000Y-102200000D02*
X142400000Y-102500000D01*
X141300000Y-99000000D02*
X142700000Y-100400000D01*
X141300000Y-97800000D02*
X141300000Y-99000000D01*
X142700000Y-100400000D02*
X142700000Y-102200000D01*
X142700000Y-96400000D02*
X141300000Y-97800000D01*
X140400000Y-104000000D02*
X139950000Y-104450000D01*
X141900000Y-104000000D02*
X140400000Y-104000000D01*
X143500000Y-102400000D02*
X141900000Y-104000000D01*
X143500000Y-99200000D02*
X143500000Y-102400000D01*
X144200000Y-98500000D02*
X143500000Y-99200000D01*
X169000000Y-117600000D02*
X168500000Y-118100000D01*
X169000000Y-115400000D02*
X169000000Y-117600000D01*
X168700000Y-115100000D02*
X169000000Y-115400000D01*
X168000000Y-115100000D02*
X168700000Y-115100000D01*
X166700000Y-119600000D02*
X166700000Y-122000000D01*
X167800000Y-117600000D02*
X167800000Y-118500000D01*
X167300000Y-116300000D02*
X167300000Y-117100000D01*
X168000000Y-115600000D02*
X167300000Y-116300000D01*
X167800000Y-118500000D02*
X166700000Y-119600000D01*
X167300000Y-117100000D02*
X167800000Y-117600000D01*
X168000000Y-115100000D02*
X168000000Y-115600000D01*
X168000000Y-110200000D02*
X168200000Y-110400000D01*
X168000000Y-109100000D02*
X168000000Y-110200000D01*
X167100000Y-108200000D02*
X168000000Y-109100000D01*
X165400000Y-108200000D02*
X167100000Y-108200000D01*
X135500000Y-98900000D02*
X133900000Y-100500000D01*
X136500000Y-98900000D02*
X135500000Y-98900000D01*
X133900000Y-100500000D02*
X133900000Y-101900000D01*
X137100000Y-99500000D02*
X136500000Y-98900000D01*
X137100000Y-99700000D02*
X137100000Y-99500000D01*
X130000000Y-106300000D02*
X130000000Y-107000000D01*
X131100000Y-105200000D02*
X130000000Y-106300000D01*
X128800000Y-117900000D02*
X128800000Y-119300000D01*
X128300000Y-117400000D02*
X128800000Y-117900000D01*
X127900000Y-117400000D02*
X128300000Y-117400000D01*
X131400000Y-122300000D02*
X131400000Y-122800000D01*
X131100000Y-122000000D02*
X131400000Y-122300000D01*
X129500000Y-122000000D02*
X131100000Y-122000000D01*
X128700000Y-120000000D02*
X128700000Y-121200000D01*
X127700000Y-119000000D02*
X128700000Y-120000000D01*
X127700000Y-117600000D02*
X127700000Y-119000000D01*
X128700000Y-121200000D02*
X129500000Y-122000000D01*
X127900000Y-117400000D02*
X127700000Y-117600000D01*
X142950000Y-94250000D02*
X143250000Y-94250000D01*
X143250000Y-94250000D02*
X142750000Y-94250000D01*
X143250000Y-94250000D02*
X144550000Y-94250000D01*
X142750000Y-94250000D02*
X141500000Y-95500000D01*
D21*
%TO.N,/GND*%
X141500000Y-130120000D02*
X141500000Y-123000000D01*
X135500000Y-119000000D02*
X135500000Y-110000000D01*
X139500000Y-123000000D02*
X135500000Y-119000000D01*
X141500000Y-123000000D02*
X139500000Y-123000000D01*
X158500000Y-130000000D02*
X158500000Y-125000000D01*
X165000000Y-123800000D02*
X165000000Y-118000000D01*
X163800000Y-125000000D02*
X165000000Y-123800000D01*
X158500000Y-125000000D02*
X163800000Y-125000000D01*
X158500000Y-89900000D02*
X158500000Y-91810000D01*
X158500000Y-88190000D02*
X158500000Y-89900000D01*
X152310000Y-82000000D02*
X158500000Y-88190000D01*
X138500000Y-88000000D02*
X138500000Y-91810000D01*
X142700000Y-83800000D02*
X138500000Y-88000000D01*
X145500000Y-83800000D02*
X142700000Y-83800000D01*
X147300000Y-82000000D02*
X145500000Y-83800000D01*
X152310000Y-82000000D02*
X147300000Y-82000000D01*
X149100000Y-125000000D02*
X147100000Y-123000000D01*
X152310000Y-125000000D02*
X149100000Y-125000000D01*
X141500000Y-123000000D02*
X147100000Y-123000000D01*
X136932248Y-101567752D02*
X135500000Y-103000000D01*
X139867752Y-101567752D02*
X136932248Y-101567752D01*
X139867752Y-93177752D02*
X138500000Y-91810000D01*
X139867752Y-101567752D02*
X139867752Y-93177752D01*
X156732248Y-124967752D02*
X156700000Y-125000000D01*
X156732248Y-118432248D02*
X156732248Y-124967752D01*
X156700000Y-125000000D02*
X158500000Y-125000000D01*
X152310000Y-125000000D02*
X156700000Y-125000000D01*
%TD*%
D22*
X150377288Y-111032723D02*
X150381086Y-111044593D01*
X153316739Y-118873000D01*
X147382746Y-118873000D01*
X147353210Y-118801694D01*
X147186099Y-118551594D01*
X146973406Y-118338901D01*
X146723306Y-118171790D01*
X146445410Y-118056681D01*
X146150396Y-117998000D01*
X145849604Y-117998000D01*
X145554590Y-118056681D01*
X145276694Y-118171790D01*
X145026594Y-118338901D01*
X144813901Y-118551594D01*
X144646790Y-118801694D01*
X144617254Y-118873000D01*
X143683261Y-118873000D01*
X146618914Y-111044593D01*
X146622712Y-111032723D01*
X148500000Y-103992893D01*
X150377288Y-111032723D01*
%TA.AperFunction,NonConductor*%
D23*
G36*
X150377288Y-111032723D02*
G01*
X150381086Y-111044593D01*
X153316739Y-118873000D01*
X147382746Y-118873000D01*
X147353210Y-118801694D01*
X147186099Y-118551594D01*
X146973406Y-118338901D01*
X146723306Y-118171790D01*
X146445410Y-118056681D01*
X146150396Y-117998000D01*
X145849604Y-117998000D01*
X145554590Y-118056681D01*
X145276694Y-118171790D01*
X145026594Y-118338901D01*
X144813901Y-118551594D01*
X144646790Y-118801694D01*
X144617254Y-118873000D01*
X143683261Y-118873000D01*
X146618914Y-111044593D01*
X146622712Y-111032723D01*
X148500000Y-103992893D01*
X150377288Y-111032723D01*
G37*
%TD.AperFunction*%
M02*
