%TF.GenerationSoftware,KiCad,Pcbnew,5.1.9-73d0e3b20d~88~ubuntu20.04.1*%
%TF.CreationDate,2021-09-08T01:21:10+05:30*%
%TF.ProjectId,MAP6,4d415036-2e6b-4696-9361-645f70636258,1*%
%TF.SameCoordinates,Original*%
%TF.FileFunction,Profile,NP*%
%FSLAX46Y46*%
G04 Gerber Fmt 4.6, Leading zero omitted, Abs format (unit mm)*
G04 Created by KiCad (PCBNEW 5.1.9-73d0e3b20d~88~ubuntu20.04.1) date 2021-09-08 01:21:10*
%MOMM*%
%LPD*%
G01*
G04 APERTURE LIST*
%TA.AperFunction,Profile*%
%ADD10C,0.150000*%
%TD*%
G04 APERTURE END LIST*
D10*
X150334952Y-74434502D02*
X150227709Y-74167389D01*
X150227709Y-74167389D02*
X150121869Y-73930580D01*
X150121869Y-73930580D02*
X150016880Y-73722168D01*
X150016880Y-73722168D02*
X149912196Y-73540246D01*
X149912196Y-73540246D02*
X149807264Y-73382906D01*
X149807264Y-73382906D02*
X149701538Y-73248241D01*
X149701538Y-73248241D02*
X149594467Y-73134343D01*
X149594467Y-73134343D02*
X149430136Y-72998261D01*
X149430136Y-72998261D02*
X149259690Y-72898177D01*
X149259690Y-72898177D02*
X149081275Y-72827652D01*
X149081275Y-72827652D02*
X148893035Y-72780248D01*
X148893035Y-72780248D02*
X148693118Y-72749529D01*
X148693118Y-72749529D02*
X148479670Y-72729056D01*
X153621966Y-75555562D02*
X153374328Y-75461249D01*
X153374328Y-75461249D02*
X153135233Y-75372319D01*
X153135233Y-75372319D02*
X152904057Y-75288312D01*
X152904057Y-75288312D02*
X152680172Y-75208767D01*
X152680172Y-75208767D02*
X152462956Y-75133222D01*
X152462956Y-75133222D02*
X152251784Y-75061217D01*
X152251784Y-75061217D02*
X152046029Y-74992292D01*
X152046029Y-74992292D02*
X151845068Y-74925985D01*
X151845068Y-74925985D02*
X151648275Y-74861835D01*
X151648275Y-74861835D02*
X151455026Y-74799383D01*
X151455026Y-74799383D02*
X151264695Y-74738167D01*
X151264695Y-74738167D02*
X151076658Y-74677726D01*
X151076658Y-74677726D02*
X150890290Y-74617600D01*
X150890290Y-74617600D02*
X150704967Y-74557328D01*
X150704967Y-74557328D02*
X150520062Y-74496448D01*
X150520062Y-74496448D02*
X150334952Y-74434502D01*
X163306431Y-67662561D02*
X163139035Y-67674560D01*
X163139035Y-67674560D02*
X162817002Y-67688149D01*
X162817002Y-67688149D02*
X162604442Y-67699730D01*
X162604442Y-67699730D02*
X162360957Y-67716738D01*
X162360957Y-67716738D02*
X162089125Y-67740849D01*
X162089125Y-67740849D02*
X161791525Y-67773740D01*
X161791525Y-67773740D02*
X161470735Y-67817086D01*
X161470735Y-67817086D02*
X161129332Y-67872565D01*
X161129332Y-67872565D02*
X160769896Y-67941852D01*
X160769896Y-67941852D02*
X160395005Y-68026624D01*
X160395005Y-68026624D02*
X160007236Y-68128557D01*
X160007236Y-68128557D02*
X159609168Y-68249328D01*
X159609168Y-68249328D02*
X159203379Y-68390613D01*
X159203379Y-68390613D02*
X158792448Y-68554089D01*
X158792448Y-68554089D02*
X158378951Y-68741432D01*
X158378951Y-68741432D02*
X157965469Y-68954318D01*
X157965469Y-68954318D02*
X157554579Y-69194424D01*
X157554579Y-69194424D02*
X157148859Y-69463427D01*
X157148859Y-69463427D02*
X156750887Y-69763001D01*
X156750887Y-69763001D02*
X156363242Y-70094825D01*
X156363242Y-70094825D02*
X155988502Y-70460574D01*
X155988502Y-70460574D02*
X155629245Y-70861925D01*
X155629245Y-70861925D02*
X155288049Y-71300554D01*
X155288049Y-71300554D02*
X154967493Y-71778137D01*
X154967493Y-71778137D02*
X154670155Y-72296352D01*
X154670155Y-72296352D02*
X154398612Y-72856873D01*
X154398612Y-72856873D02*
X154155444Y-73461379D01*
X154155444Y-73461379D02*
X153943228Y-74111544D01*
X153943228Y-74111544D02*
X153764542Y-74809046D01*
X153764542Y-74809046D02*
X153621966Y-75555562D01*
X165050305Y-68944172D02*
X164988650Y-68730875D01*
X164988650Y-68730875D02*
X164905101Y-68531698D01*
X164905101Y-68531698D02*
X164799944Y-68348423D01*
X164799944Y-68348423D02*
X164673464Y-68182836D01*
X164673464Y-68182836D02*
X164525946Y-68036718D01*
X164525946Y-68036718D02*
X164357677Y-67911853D01*
X164357677Y-67911853D02*
X164168941Y-67810024D01*
X164168941Y-67810024D02*
X163960026Y-67733015D01*
X163960026Y-67733015D02*
X163809678Y-67696345D01*
X163809678Y-67696345D02*
X163650574Y-67672027D01*
X163650574Y-67672027D02*
X163482796Y-67660589D01*
X163482796Y-67660589D02*
X163306431Y-67662561D01*
X164007362Y-70844287D02*
X164166668Y-70788564D01*
X164166668Y-70788564D02*
X164313311Y-70720086D01*
X164313311Y-70720086D02*
X164447317Y-70639784D01*
X164447317Y-70639784D02*
X164568708Y-70548592D01*
X164568708Y-70548592D02*
X164727196Y-70393422D01*
X164727196Y-70393422D02*
X164857439Y-70218993D01*
X164857439Y-70218993D02*
X164959518Y-70028450D01*
X164959518Y-70028450D02*
X165033514Y-69824940D01*
X165033514Y-69824940D02*
X165079509Y-69611611D01*
X165079509Y-69611611D02*
X165097584Y-69391609D01*
X165097584Y-69391609D02*
X165087823Y-69168080D01*
X165087823Y-69168080D02*
X165065889Y-69018656D01*
X165065889Y-69018656D02*
X165050305Y-68944172D01*
X156771293Y-77962374D02*
X156817751Y-77322840D01*
X156817751Y-77322840D02*
X156876698Y-76726701D01*
X156876698Y-76726701D02*
X156948043Y-76172307D01*
X156948043Y-76172307D02*
X157031698Y-75658010D01*
X157031698Y-75658010D02*
X157127573Y-75182162D01*
X157127573Y-75182162D02*
X157235577Y-74743114D01*
X157235577Y-74743114D02*
X157355621Y-74339217D01*
X157355621Y-74339217D02*
X157487615Y-73968824D01*
X157487615Y-73968824D02*
X157631471Y-73630285D01*
X157631471Y-73630285D02*
X157787097Y-73321952D01*
X157787097Y-73321952D02*
X157954404Y-73042177D01*
X157954404Y-73042177D02*
X158133303Y-72789311D01*
X158133303Y-72789311D02*
X158323703Y-72561706D01*
X158323703Y-72561706D02*
X158525516Y-72357713D01*
X158525516Y-72357713D02*
X158738651Y-72175684D01*
X158738651Y-72175684D02*
X158963019Y-72013970D01*
X158963019Y-72013970D02*
X159198530Y-71870923D01*
X159198530Y-71870923D02*
X159445095Y-71744895D01*
X159445095Y-71744895D02*
X159702623Y-71634237D01*
X159702623Y-71634237D02*
X159971025Y-71537300D01*
X159971025Y-71537300D02*
X160250211Y-71452436D01*
X160250211Y-71452436D02*
X160540091Y-71377996D01*
X160540091Y-71377996D02*
X160840577Y-71312333D01*
X160840577Y-71312333D02*
X161151577Y-71253797D01*
X161151577Y-71253797D02*
X161473003Y-71200740D01*
X161473003Y-71200740D02*
X161804765Y-71151514D01*
X161804765Y-71151514D02*
X162146772Y-71104470D01*
X162146772Y-71104470D02*
X162498936Y-71057960D01*
X162498936Y-71057960D02*
X162861167Y-71010335D01*
X162861167Y-71010335D02*
X163233375Y-70959947D01*
X163233375Y-70959947D02*
X163615469Y-70905147D01*
X163615469Y-70905147D02*
X164007362Y-70844287D01*
X160679234Y-92289947D02*
X160721578Y-92053424D01*
X160721578Y-92053424D02*
X160749812Y-91876243D01*
X160749812Y-91876243D02*
X160782166Y-91654128D01*
X160782166Y-91654128D02*
X160816878Y-91389622D01*
X160816878Y-91389622D02*
X160852185Y-91085268D01*
X160852185Y-91085268D02*
X160886323Y-90743609D01*
X160886323Y-90743609D02*
X160917531Y-90367186D01*
X160917531Y-90367186D02*
X160944044Y-89958542D01*
X160944044Y-89958542D02*
X160964099Y-89520219D01*
X160964099Y-89520219D02*
X160975935Y-89054760D01*
X160975935Y-89054760D02*
X160977787Y-88564708D01*
X160977787Y-88564708D02*
X160967892Y-88052605D01*
X160967892Y-88052605D02*
X160944488Y-87520993D01*
X160944488Y-87520993D02*
X160905812Y-86972414D01*
X160905812Y-86972414D02*
X160850099Y-86409412D01*
X160850099Y-86409412D02*
X160775589Y-85834528D01*
X160775589Y-85834528D02*
X160680517Y-85250306D01*
X160680517Y-85250306D02*
X160563120Y-84659286D01*
X160563120Y-84659286D02*
X160421635Y-84064013D01*
X160421635Y-84064013D02*
X160254300Y-83467028D01*
X160254300Y-83467028D02*
X160059351Y-82870874D01*
X160059351Y-82870874D02*
X159835025Y-82278093D01*
X159835025Y-82278093D02*
X159579560Y-81691228D01*
X159579560Y-81691228D02*
X159291192Y-81112820D01*
X159291192Y-81112820D02*
X158968157Y-80545414D01*
X158968157Y-80545414D02*
X158608694Y-79991550D01*
X158608694Y-79991550D02*
X158211039Y-79453772D01*
X158211039Y-79453772D02*
X157773429Y-78934621D01*
X157773429Y-78934621D02*
X157294101Y-78436641D01*
X157294101Y-78436641D02*
X156771293Y-77962374D01*
X173335769Y-114624808D02*
X173366572Y-114395918D01*
X173366572Y-114395918D02*
X173381823Y-114219891D01*
X173381823Y-114219891D02*
X173394123Y-113995246D01*
X173394123Y-113995246D02*
X173400206Y-113722734D01*
X173400206Y-113722734D02*
X173396808Y-113403103D01*
X173396808Y-113403103D02*
X173380664Y-113037103D01*
X173380664Y-113037103D02*
X173348507Y-112625482D01*
X173348507Y-112625482D02*
X173297072Y-112168990D01*
X173297072Y-112168990D02*
X173223095Y-111668376D01*
X173223095Y-111668376D02*
X173123310Y-111124388D01*
X173123310Y-111124388D02*
X172994450Y-110537777D01*
X172994450Y-110537777D02*
X172833252Y-109909291D01*
X172833252Y-109909291D02*
X172636450Y-109239679D01*
X172636450Y-109239679D02*
X172400778Y-108529690D01*
X172400778Y-108529690D02*
X172122971Y-107780074D01*
X172122971Y-107780074D02*
X171799764Y-106991580D01*
X171799764Y-106991580D02*
X171427891Y-106164957D01*
X171427891Y-106164957D02*
X171004087Y-105300953D01*
X171004087Y-105300953D02*
X170525086Y-104400319D01*
X170525086Y-104400319D02*
X169987624Y-103463803D01*
X169987624Y-103463803D02*
X169388435Y-102492154D01*
X169388435Y-102492154D02*
X168724254Y-101486121D01*
X168724254Y-101486121D02*
X167991814Y-100446454D01*
X167991814Y-100446454D02*
X167187852Y-99373902D01*
X167187852Y-99373902D02*
X166309101Y-98269213D01*
X166309101Y-98269213D02*
X165352297Y-97133137D01*
X165352297Y-97133137D02*
X164314173Y-95966424D01*
X164314173Y-95966424D02*
X163191465Y-94769821D01*
X163191465Y-94769821D02*
X161980907Y-93544079D01*
X161980907Y-93544079D02*
X160679234Y-92289947D01*
X161663083Y-127456100D02*
X162876260Y-127509328D01*
X162876260Y-127509328D02*
X164003793Y-127480642D01*
X164003793Y-127480642D02*
X165048775Y-127375302D01*
X165048775Y-127375302D02*
X166014294Y-127198570D01*
X166014294Y-127198570D02*
X166903443Y-126955706D01*
X166903443Y-126955706D02*
X167719311Y-126651973D01*
X167719311Y-126651973D02*
X168464990Y-126292630D01*
X168464990Y-126292630D02*
X169143570Y-125882938D01*
X169143570Y-125882938D02*
X169758142Y-125428160D01*
X169758142Y-125428160D02*
X170311796Y-124933556D01*
X170311796Y-124933556D02*
X170807624Y-124404388D01*
X170807624Y-124404388D02*
X171248716Y-123845916D01*
X171248716Y-123845916D02*
X171638163Y-123263401D01*
X171638163Y-123263401D02*
X171979056Y-122662104D01*
X171979056Y-122662104D02*
X172274485Y-122047288D01*
X172274485Y-122047288D02*
X172527541Y-121424212D01*
X172527541Y-121424212D02*
X172741315Y-120798138D01*
X172741315Y-120798138D02*
X172918898Y-120174327D01*
X172918898Y-120174327D02*
X173063379Y-119558040D01*
X173063379Y-119558040D02*
X173177851Y-118954539D01*
X173177851Y-118954539D02*
X173265404Y-118369083D01*
X173265404Y-118369083D02*
X173329128Y-117806935D01*
X173329128Y-117806935D02*
X173372115Y-117273356D01*
X173372115Y-117273356D02*
X173397455Y-116773606D01*
X173397455Y-116773606D02*
X173408238Y-116312947D01*
X173408238Y-116312947D02*
X173407556Y-115896640D01*
X173407556Y-115896640D02*
X173398499Y-115529946D01*
X173398499Y-115529946D02*
X173384158Y-115218126D01*
X173384158Y-115218126D02*
X173367624Y-114966441D01*
X173367624Y-114966441D02*
X173351987Y-114780152D01*
X173351987Y-114780152D02*
X173335769Y-114624808D01*
X148479670Y-142556850D02*
X148714623Y-142540900D01*
X148714623Y-142540900D02*
X148992831Y-142493208D01*
X148992831Y-142493208D02*
X149311107Y-142414005D01*
X149311107Y-142414005D02*
X149666271Y-142303525D01*
X149666271Y-142303525D02*
X150055138Y-142161999D01*
X150055138Y-142161999D02*
X150474525Y-141989662D01*
X150474525Y-141989662D02*
X150921250Y-141786744D01*
X150921250Y-141786744D02*
X151392128Y-141553480D01*
X151392128Y-141553480D02*
X151883977Y-141290101D01*
X151883977Y-141290101D02*
X152393614Y-140996841D01*
X152393614Y-140996841D02*
X152917855Y-140673932D01*
X152917855Y-140673932D02*
X153453517Y-140321607D01*
X153453517Y-140321607D02*
X153997417Y-139940099D01*
X153997417Y-139940099D02*
X154546371Y-139529640D01*
X154546371Y-139529640D02*
X155097198Y-139090463D01*
X155097198Y-139090463D02*
X155646712Y-138622801D01*
X155646712Y-138622801D02*
X156191732Y-138126886D01*
X156191732Y-138126886D02*
X156729074Y-137602952D01*
X156729074Y-137602952D02*
X157255555Y-137051230D01*
X157255555Y-137051230D02*
X157767991Y-136471954D01*
X157767991Y-136471954D02*
X158263200Y-135865356D01*
X158263200Y-135865356D02*
X158737998Y-135231669D01*
X158737998Y-135231669D02*
X159189201Y-134571126D01*
X159189201Y-134571126D02*
X159613628Y-133883959D01*
X159613628Y-133883959D02*
X160008095Y-133170401D01*
X160008095Y-133170401D02*
X160369418Y-132430685D01*
X160369418Y-132430685D02*
X160694414Y-131665044D01*
X160694414Y-131665044D02*
X160979900Y-130873710D01*
X160979900Y-130873710D02*
X161222693Y-130056916D01*
X161222693Y-130056916D02*
X161419610Y-129214894D01*
X161419610Y-129214894D02*
X161567468Y-128347878D01*
X161567468Y-128347878D02*
X161663083Y-127456100D01*
X146624388Y-74434502D02*
X146731630Y-74167389D01*
X146731630Y-74167389D02*
X146837471Y-73930580D01*
X146837471Y-73930580D02*
X146942459Y-73722168D01*
X146942459Y-73722168D02*
X147047144Y-73540246D01*
X147047144Y-73540246D02*
X147152075Y-73382906D01*
X147152075Y-73382906D02*
X147257801Y-73248241D01*
X147257801Y-73248241D02*
X147364873Y-73134343D01*
X147364873Y-73134343D02*
X147529203Y-72998261D01*
X147529203Y-72998261D02*
X147699649Y-72898177D01*
X147699649Y-72898177D02*
X147878064Y-72827652D01*
X147878064Y-72827652D02*
X148066304Y-72780248D01*
X148066304Y-72780248D02*
X148266221Y-72749529D01*
X148266221Y-72749529D02*
X148479670Y-72729056D01*
X143337376Y-75555562D02*
X143585013Y-75461249D01*
X143585013Y-75461249D02*
X143824108Y-75372319D01*
X143824108Y-75372319D02*
X144055284Y-75288312D01*
X144055284Y-75288312D02*
X144279168Y-75208767D01*
X144279168Y-75208767D02*
X144496384Y-75133222D01*
X144496384Y-75133222D02*
X144707557Y-75061217D01*
X144707557Y-75061217D02*
X144913312Y-74992292D01*
X144913312Y-74992292D02*
X145114273Y-74925985D01*
X145114273Y-74925985D02*
X145311065Y-74861835D01*
X145311065Y-74861835D02*
X145504315Y-74799383D01*
X145504315Y-74799383D02*
X145694645Y-74738167D01*
X145694645Y-74738167D02*
X145882682Y-74677726D01*
X145882682Y-74677726D02*
X146069049Y-74617600D01*
X146069049Y-74617600D02*
X146254373Y-74557328D01*
X146254373Y-74557328D02*
X146439277Y-74496448D01*
X146439277Y-74496448D02*
X146624388Y-74434502D01*
X133652914Y-67662561D02*
X133820309Y-67674560D01*
X133820309Y-67674560D02*
X134142342Y-67688149D01*
X134142342Y-67688149D02*
X134354902Y-67699730D01*
X134354902Y-67699730D02*
X134598387Y-67716738D01*
X134598387Y-67716738D02*
X134870218Y-67740849D01*
X134870218Y-67740849D02*
X135167818Y-67773740D01*
X135167818Y-67773740D02*
X135488609Y-67817086D01*
X135488609Y-67817086D02*
X135830011Y-67872565D01*
X135830011Y-67872565D02*
X136189447Y-67941852D01*
X136189447Y-67941852D02*
X136564338Y-68026624D01*
X136564338Y-68026624D02*
X136952107Y-68128557D01*
X136952107Y-68128557D02*
X137350175Y-68249328D01*
X137350175Y-68249328D02*
X137755964Y-68390613D01*
X137755964Y-68390613D02*
X138166895Y-68554089D01*
X138166895Y-68554089D02*
X138580391Y-68741432D01*
X138580391Y-68741432D02*
X138993873Y-68954318D01*
X138993873Y-68954318D02*
X139404763Y-69194424D01*
X139404763Y-69194424D02*
X139810483Y-69463427D01*
X139810483Y-69463427D02*
X140208454Y-69763001D01*
X140208454Y-69763001D02*
X140596099Y-70094825D01*
X140596099Y-70094825D02*
X140970839Y-70460574D01*
X140970839Y-70460574D02*
X141330096Y-70861925D01*
X141330096Y-70861925D02*
X141671292Y-71300554D01*
X141671292Y-71300554D02*
X141991848Y-71778137D01*
X141991848Y-71778137D02*
X142289187Y-72296352D01*
X142289187Y-72296352D02*
X142560729Y-72856873D01*
X142560729Y-72856873D02*
X142803897Y-73461379D01*
X142803897Y-73461379D02*
X143016113Y-74111544D01*
X143016113Y-74111544D02*
X143194799Y-74809046D01*
X143194799Y-74809046D02*
X143337376Y-75555562D01*
X131909040Y-68944172D02*
X131970694Y-68730875D01*
X131970694Y-68730875D02*
X132054243Y-68531698D01*
X132054243Y-68531698D02*
X132159400Y-68348423D01*
X132159400Y-68348423D02*
X132285880Y-68182836D01*
X132285880Y-68182836D02*
X132433398Y-68036718D01*
X132433398Y-68036718D02*
X132601667Y-67911853D01*
X132601667Y-67911853D02*
X132790402Y-67810024D01*
X132790402Y-67810024D02*
X132999318Y-67733015D01*
X132999318Y-67733015D02*
X133149665Y-67696345D01*
X133149665Y-67696345D02*
X133308770Y-67672027D01*
X133308770Y-67672027D02*
X133476548Y-67660589D01*
X133476548Y-67660589D02*
X133652914Y-67662561D01*
X132951982Y-70844287D02*
X132792675Y-70788564D01*
X132792675Y-70788564D02*
X132646032Y-70720086D01*
X132646032Y-70720086D02*
X132512026Y-70639784D01*
X132512026Y-70639784D02*
X132390635Y-70548592D01*
X132390635Y-70548592D02*
X132232147Y-70393422D01*
X132232147Y-70393422D02*
X132101904Y-70218993D01*
X132101904Y-70218993D02*
X131999826Y-70028450D01*
X131999826Y-70028450D02*
X131925830Y-69824940D01*
X131925830Y-69824940D02*
X131879835Y-69611611D01*
X131879835Y-69611611D02*
X131861759Y-69391609D01*
X131861759Y-69391609D02*
X131871521Y-69168080D01*
X131871521Y-69168080D02*
X131893455Y-69018656D01*
X131893455Y-69018656D02*
X131909040Y-68944172D01*
X140188049Y-77962374D02*
X140141590Y-77322840D01*
X140141590Y-77322840D02*
X140082644Y-76726701D01*
X140082644Y-76726701D02*
X140011298Y-76172307D01*
X140011298Y-76172307D02*
X139927643Y-75658010D01*
X139927643Y-75658010D02*
X139831769Y-75182162D01*
X139831769Y-75182162D02*
X139723765Y-74743114D01*
X139723765Y-74743114D02*
X139603721Y-74339217D01*
X139603721Y-74339217D02*
X139471727Y-73968824D01*
X139471727Y-73968824D02*
X139327872Y-73630285D01*
X139327872Y-73630285D02*
X139172246Y-73321952D01*
X139172246Y-73321952D02*
X139004939Y-73042177D01*
X139004939Y-73042177D02*
X138826040Y-72789311D01*
X138826040Y-72789311D02*
X138635639Y-72561706D01*
X138635639Y-72561706D02*
X138433826Y-72357713D01*
X138433826Y-72357713D02*
X138220691Y-72175684D01*
X138220691Y-72175684D02*
X137996323Y-72013970D01*
X137996323Y-72013970D02*
X137760812Y-71870923D01*
X137760812Y-71870923D02*
X137514248Y-71744895D01*
X137514248Y-71744895D02*
X137256720Y-71634237D01*
X137256720Y-71634237D02*
X136988318Y-71537300D01*
X136988318Y-71537300D02*
X136709132Y-71452436D01*
X136709132Y-71452436D02*
X136419252Y-71377996D01*
X136419252Y-71377996D02*
X136118766Y-71312333D01*
X136118766Y-71312333D02*
X135807766Y-71253797D01*
X135807766Y-71253797D02*
X135486340Y-71200740D01*
X135486340Y-71200740D02*
X135154578Y-71151514D01*
X135154578Y-71151514D02*
X134812571Y-71104470D01*
X134812571Y-71104470D02*
X134460407Y-71057960D01*
X134460407Y-71057960D02*
X134098176Y-71010335D01*
X134098176Y-71010335D02*
X133725968Y-70959947D01*
X133725968Y-70959947D02*
X133343874Y-70905147D01*
X133343874Y-70905147D02*
X132951982Y-70844287D01*
X136280109Y-92289947D02*
X136237764Y-92053424D01*
X136237764Y-92053424D02*
X136209530Y-91876243D01*
X136209530Y-91876243D02*
X136177176Y-91654128D01*
X136177176Y-91654128D02*
X136142464Y-91389622D01*
X136142464Y-91389622D02*
X136107157Y-91085268D01*
X136107157Y-91085268D02*
X136073019Y-90743609D01*
X136073019Y-90743609D02*
X136041812Y-90367186D01*
X136041812Y-90367186D02*
X136015299Y-89958542D01*
X136015299Y-89958542D02*
X135995243Y-89520219D01*
X135995243Y-89520219D02*
X135983408Y-89054760D01*
X135983408Y-89054760D02*
X135981556Y-88564708D01*
X135981556Y-88564708D02*
X135991451Y-88052605D01*
X135991451Y-88052605D02*
X136014855Y-87520993D01*
X136014855Y-87520993D02*
X136053531Y-86972414D01*
X136053531Y-86972414D02*
X136109243Y-86409412D01*
X136109243Y-86409412D02*
X136183754Y-85834528D01*
X136183754Y-85834528D02*
X136278826Y-85250306D01*
X136278826Y-85250306D02*
X136396223Y-84659286D01*
X136396223Y-84659286D02*
X136537707Y-84064013D01*
X136537707Y-84064013D02*
X136705043Y-83467028D01*
X136705043Y-83467028D02*
X136899991Y-82870874D01*
X136899991Y-82870874D02*
X137124317Y-82278093D01*
X137124317Y-82278093D02*
X137379782Y-81691228D01*
X137379782Y-81691228D02*
X137668151Y-81112820D01*
X137668151Y-81112820D02*
X137991185Y-80545414D01*
X137991185Y-80545414D02*
X138350648Y-79991550D01*
X138350648Y-79991550D02*
X138748302Y-79453772D01*
X138748302Y-79453772D02*
X139185912Y-78934621D01*
X139185912Y-78934621D02*
X139665240Y-78436641D01*
X139665240Y-78436641D02*
X140188049Y-77962374D01*
X123623575Y-114624808D02*
X123592771Y-114395918D01*
X123592771Y-114395918D02*
X123577520Y-114219891D01*
X123577520Y-114219891D02*
X123565221Y-113995246D01*
X123565221Y-113995246D02*
X123559137Y-113722734D01*
X123559137Y-113722734D02*
X123562535Y-113403103D01*
X123562535Y-113403103D02*
X123578679Y-113037103D01*
X123578679Y-113037103D02*
X123610836Y-112625482D01*
X123610836Y-112625482D02*
X123662271Y-112168990D01*
X123662271Y-112168990D02*
X123736248Y-111668376D01*
X123736248Y-111668376D02*
X123836034Y-111124388D01*
X123836034Y-111124388D02*
X123964893Y-110537777D01*
X123964893Y-110537777D02*
X124126091Y-109909291D01*
X124126091Y-109909291D02*
X124322893Y-109239679D01*
X124322893Y-109239679D02*
X124558565Y-108529690D01*
X124558565Y-108529690D02*
X124836372Y-107780074D01*
X124836372Y-107780074D02*
X125159580Y-106991580D01*
X125159580Y-106991580D02*
X125531452Y-106164957D01*
X125531452Y-106164957D02*
X125955256Y-105300953D01*
X125955256Y-105300953D02*
X126434257Y-104400319D01*
X126434257Y-104400319D02*
X126971719Y-103463803D01*
X126971719Y-103463803D02*
X127570908Y-102492154D01*
X127570908Y-102492154D02*
X128235089Y-101486121D01*
X128235089Y-101486121D02*
X128967528Y-100446454D01*
X128967528Y-100446454D02*
X129771491Y-99373902D01*
X129771491Y-99373902D02*
X130650241Y-98269213D01*
X130650241Y-98269213D02*
X131607046Y-97133137D01*
X131607046Y-97133137D02*
X132645170Y-95966424D01*
X132645170Y-95966424D02*
X133767878Y-94769821D01*
X133767878Y-94769821D02*
X134978435Y-93544079D01*
X134978435Y-93544079D02*
X136280109Y-92289947D01*
X135296262Y-127456100D02*
X134083084Y-127509328D01*
X134083084Y-127509328D02*
X132955551Y-127480642D01*
X132955551Y-127480642D02*
X131910569Y-127375302D01*
X131910569Y-127375302D02*
X130945050Y-127198570D01*
X130945050Y-127198570D02*
X130055901Y-126955706D01*
X130055901Y-126955706D02*
X129240033Y-126651973D01*
X129240033Y-126651973D02*
X128494354Y-126292630D01*
X128494354Y-126292630D02*
X127815774Y-125882938D01*
X127815774Y-125882938D02*
X127201202Y-125428160D01*
X127201202Y-125428160D02*
X126647548Y-124933556D01*
X126647548Y-124933556D02*
X126151720Y-124404388D01*
X126151720Y-124404388D02*
X125710628Y-123845916D01*
X125710628Y-123845916D02*
X125321180Y-123263401D01*
X125321180Y-123263401D02*
X124980288Y-122662104D01*
X124980288Y-122662104D02*
X124684859Y-122047288D01*
X124684859Y-122047288D02*
X124431803Y-121424212D01*
X124431803Y-121424212D02*
X124218028Y-120798138D01*
X124218028Y-120798138D02*
X124040446Y-120174327D01*
X124040446Y-120174327D02*
X123895964Y-119558040D01*
X123895964Y-119558040D02*
X123781492Y-118954539D01*
X123781492Y-118954539D02*
X123693939Y-118369083D01*
X123693939Y-118369083D02*
X123630215Y-117806935D01*
X123630215Y-117806935D02*
X123587228Y-117273356D01*
X123587228Y-117273356D02*
X123561889Y-116773606D01*
X123561889Y-116773606D02*
X123551105Y-116312947D01*
X123551105Y-116312947D02*
X123551787Y-115896640D01*
X123551787Y-115896640D02*
X123560844Y-115529946D01*
X123560844Y-115529946D02*
X123575185Y-115218126D01*
X123575185Y-115218126D02*
X123591719Y-114966441D01*
X123591719Y-114966441D02*
X123607356Y-114780152D01*
X123607356Y-114780152D02*
X123623575Y-114624808D01*
X148479670Y-142556850D02*
X148244716Y-142540900D01*
X148244716Y-142540900D02*
X147966509Y-142493208D01*
X147966509Y-142493208D02*
X147648232Y-142414005D01*
X147648232Y-142414005D02*
X147293068Y-142303525D01*
X147293068Y-142303525D02*
X146904202Y-142161999D01*
X146904202Y-142161999D02*
X146484814Y-141989662D01*
X146484814Y-141989662D02*
X146038090Y-141786744D01*
X146038090Y-141786744D02*
X145567212Y-141553480D01*
X145567212Y-141553480D02*
X145075363Y-141290101D01*
X145075363Y-141290101D02*
X144565727Y-140996841D01*
X144565727Y-140996841D02*
X144041486Y-140673932D01*
X144041486Y-140673932D02*
X143505824Y-140321607D01*
X143505824Y-140321607D02*
X142961924Y-139940099D01*
X142961924Y-139940099D02*
X142412970Y-139529640D01*
X142412970Y-139529640D02*
X141862143Y-139090463D01*
X141862143Y-139090463D02*
X141312629Y-138622801D01*
X141312629Y-138622801D02*
X140767609Y-138126886D01*
X140767609Y-138126886D02*
X140230267Y-137602952D01*
X140230267Y-137602952D02*
X139703787Y-137051230D01*
X139703787Y-137051230D02*
X139191351Y-136471954D01*
X139191351Y-136471954D02*
X138696142Y-135865356D01*
X138696142Y-135865356D02*
X138221345Y-135231669D01*
X138221345Y-135231669D02*
X137770141Y-134571126D01*
X137770141Y-134571126D02*
X137345714Y-133883959D01*
X137345714Y-133883959D02*
X136951248Y-133170401D01*
X136951248Y-133170401D02*
X136589925Y-132430685D01*
X136589925Y-132430685D02*
X136264929Y-131665044D01*
X136264929Y-131665044D02*
X135979443Y-130873710D01*
X135979443Y-130873710D02*
X135736650Y-130056916D01*
X135736650Y-130056916D02*
X135539733Y-129214894D01*
X135539733Y-129214894D02*
X135391876Y-128347878D01*
X135391876Y-128347878D02*
X135296262Y-127456100D01*
M02*
