%TF.GenerationSoftware,KiCad,Pcbnew,5.1.9-73d0e3b20d~88~ubuntu20.04.1*%
%TF.CreationDate,2021-09-08T01:21:10+05:30*%
%TF.ProjectId,MAP6,4d415036-2e6b-4696-9361-645f70636258,1*%
%TF.SameCoordinates,Original*%
%TF.FileFunction,Legend,Top*%
%TF.FilePolarity,Positive*%
%FSLAX46Y46*%
G04 Gerber Fmt 4.6, Leading zero omitted, Abs format (unit mm)*
G04 Created by KiCad (PCBNEW 5.1.9-73d0e3b20d~88~ubuntu20.04.1) date 2021-09-08 01:21:10*
%MOMM*%
%LPD*%
G01*
G04 APERTURE LIST*
%ADD10C,0.100000*%
%ADD11C,1.000000*%
%ADD12C,0.400000*%
%ADD13C,0.050800*%
%ADD14C,0.010000*%
%ADD15C,0.254000*%
%ADD16C,1.800000*%
%ADD17C,3.000000*%
%ADD18O,2.400000X1.200000*%
%ADD19O,1.200000X2.400000*%
%ADD20C,3.048000*%
%ADD21C,2.036000*%
%ADD22C,1.400000*%
%ADD23O,3.900000X2.600000*%
G04 APERTURE END LIST*
D10*
G36*
X148500000Y-140700000D02*
G01*
X145900000Y-139300000D01*
X151100000Y-139300000D01*
X148500000Y-140700000D01*
G37*
X148500000Y-140700000D02*
X145900000Y-139300000D01*
X151100000Y-139300000D01*
X148500000Y-140700000D01*
D11*
X163290992Y-68300004D02*
G75*
G03*
X157194422Y-70181096I9008J-10849151D01*
G01*
X157203527Y-73191434D02*
G75*
G03*
X156203086Y-78132191I12268255J-5055834D01*
G01*
X157199035Y-70128079D02*
G75*
G03*
X154140402Y-76270988I5500965J-6571921D01*
G01*
X163746533Y-70325404D02*
G75*
G03*
X159901861Y-70939949I817059J-17445282D01*
G01*
X159900089Y-70940371D02*
G75*
G03*
X157202795Y-73211798I904568J-3811380D01*
G01*
X139800000Y-73200000D02*
G75*
G02*
X140796914Y-78132191I-12271781J-5047266D01*
G01*
X137098138Y-70939951D02*
G75*
G02*
X139797205Y-73211800I-902795J-3811800D01*
G01*
X133250000Y-70325244D02*
G75*
G02*
X137098138Y-70939951I-813593J-17445441D01*
G01*
X139805578Y-70131941D02*
G75*
G02*
X142859599Y-76270987I-5505578J-6568059D01*
G01*
X133700000Y-68300000D02*
G75*
G02*
X139805578Y-70181096I0J-10849155D01*
G01*
X135929837Y-126948565D02*
G75*
G03*
X138900002Y-134925245I13870163J623320D01*
G01*
X137062393Y-92704570D02*
G75*
G03*
X124600000Y-110225245I26349075J-31934567D01*
G01*
X133750000Y-68325246D02*
G75*
G03*
X133250000Y-70325244I-250000J-999999D01*
G01*
X138893438Y-134919631D02*
G75*
G03*
X148500000Y-142020142I15113971J10399486D01*
G01*
X133579082Y-126962836D02*
X135800001Y-126925247D01*
X137000798Y-84620551D02*
G75*
G03*
X137053856Y-92711617I19141273J-3920187D01*
G01*
X124600079Y-110224915D02*
G75*
G03*
X124991450Y-121223183I19891371J-4798268D01*
G01*
X148499778Y-73250488D02*
G75*
G03*
X147249998Y-74775246I222J-1274757D01*
G01*
X147249998Y-74775246D02*
X142859599Y-76270987D01*
X140763000Y-78156789D02*
G75*
G03*
X137010605Y-84637737I7347606J-8580951D01*
G01*
X125001847Y-121230124D02*
G75*
G03*
X133579082Y-126962836I8307100J3146064D01*
G01*
X158106564Y-134894385D02*
G75*
G02*
X148500000Y-141994897I-15113974J10399488D01*
G01*
X161070165Y-126923319D02*
G75*
G02*
X158100000Y-134900000I-13870165J623319D01*
G01*
X163420917Y-126937593D02*
X161200000Y-126900000D01*
X171998153Y-121204879D02*
G75*
G02*
X163420917Y-126937593I-8307102J3146064D01*
G01*
X172399921Y-110199670D02*
G75*
G02*
X172008550Y-121197938I-19891371J-4798268D01*
G01*
X159937607Y-92679325D02*
G75*
G02*
X172400000Y-110200000I-26349075J-31934567D01*
G01*
X159999199Y-84595304D02*
G75*
G02*
X159946143Y-92686370I-19141272J-3920191D01*
G01*
X156194141Y-78095030D02*
G75*
G02*
X159989394Y-84612493I-7304747J-8617463D01*
G01*
X163250001Y-68300000D02*
G75*
G02*
X163749999Y-70300000I249999J-1000000D01*
G01*
X149750000Y-74750000D02*
X154140402Y-76270988D01*
X148500221Y-73225245D02*
G75*
G02*
X149750000Y-74750000I-221J-1274755D01*
G01*
D12*
X153500000Y-111000000D02*
G75*
G03*
X153500000Y-111000000I-5000000J0D01*
G01*
D11*
X134536550Y-124020629D02*
X134536550Y-124020629D01*
X165138668Y-124053939D02*
X165138668Y-124053939D01*
X133201423Y-124211149D02*
X134201300Y-124091876D01*
X134201300Y-124091876D02*
X134536550Y-124020629D01*
X131938213Y-124141849D02*
X132950594Y-124217504D01*
X132950594Y-124217504D02*
X133201423Y-124211149D01*
X130862457Y-123812639D02*
X131819361Y-124116574D01*
X131819361Y-124116574D02*
X131938213Y-124141849D01*
X129870313Y-123289099D02*
X130775432Y-123774840D01*
X130775432Y-123774840D02*
X130862457Y-123812639D01*
X128911388Y-122491499D02*
X129684058Y-123156706D01*
X129684058Y-123156706D02*
X129870313Y-123289099D01*
X128021329Y-121402169D02*
X128654621Y-122216736D01*
X128654621Y-122216736D02*
X128911388Y-122491499D01*
X127407942Y-120179708D02*
X127853995Y-121123520D01*
X127853995Y-121123520D02*
X128021329Y-121402169D01*
X127055774Y-118934508D02*
X127321920Y-119925172D01*
X127321920Y-119925172D02*
X127407942Y-120179708D01*
X126857308Y-117596588D02*
X126995029Y-118598051D01*
X126995029Y-118598051D02*
X127055774Y-118934508D01*
X126780728Y-115559577D02*
X126801227Y-116628942D01*
X126801227Y-116628942D02*
X126857308Y-117596588D01*
X126857288Y-113457138D02*
X126800139Y-114473163D01*
X126800139Y-114473163D02*
X126780762Y-115491356D01*
X126780762Y-115491356D02*
X126780728Y-115559577D01*
X127092495Y-111824417D02*
X126935169Y-112816564D01*
X126935169Y-112816564D02*
X126857288Y-113457138D01*
X127520725Y-110142457D02*
X127240470Y-111154432D01*
X127240470Y-111154432D02*
X127092495Y-111824417D01*
X128059467Y-108651637D02*
X127699843Y-109612805D01*
X127699843Y-109612805D02*
X127520725Y-110142457D01*
X128929333Y-106798895D02*
X128485598Y-107711777D01*
X128485598Y-107711777D02*
X128059467Y-108651637D01*
X130041166Y-104734677D02*
X129541970Y-105626484D01*
X129541970Y-105626484D02*
X129060673Y-106539680D01*
X129060673Y-106539680D02*
X128929333Y-106798895D01*
X131084725Y-103070597D02*
X130522571Y-103947136D01*
X130522571Y-103947136D02*
X130041166Y-104734677D01*
X132363121Y-101273955D02*
X131767887Y-102089118D01*
X131767887Y-102089118D02*
X131174348Y-102937261D01*
X131174348Y-102937261D02*
X131084725Y-103070597D01*
X133894246Y-99362638D02*
X133224126Y-100173028D01*
X133224126Y-100173028D02*
X132573522Y-100997312D01*
X132573522Y-100997312D02*
X132363121Y-101273955D01*
X136024411Y-97105872D02*
X135290006Y-97854073D01*
X135290006Y-97854073D02*
X134563475Y-98621070D01*
X134563475Y-98621070D02*
X133894246Y-99362638D01*
X138198546Y-95103423D02*
X137434644Y-95766500D01*
X137434644Y-95766500D02*
X136687830Y-96460899D01*
X136687830Y-96460899D02*
X136024411Y-97105872D01*
X139893618Y-93864492D02*
X139039035Y-94465951D01*
X139039035Y-94465951D02*
X138198546Y-95103423D01*
X141815461Y-92683965D02*
X140945896Y-93199956D01*
X140945896Y-93199956D02*
X140088879Y-93736480D01*
X140088879Y-93736480D02*
X139893618Y-93864492D01*
X144629160Y-91154880D02*
X143665610Y-91667819D01*
X143665610Y-91667819D02*
X142706539Y-92188047D01*
X142706539Y-92188047D02*
X141815461Y-92683965D01*
X146458602Y-90360887D02*
X145467002Y-90717947D01*
X145467002Y-90717947D02*
X144629160Y-91154880D01*
X146605434Y-91792396D02*
X146526843Y-90787484D01*
X146526843Y-90787484D02*
X146458602Y-90360887D01*
X146591754Y-97298418D02*
X146611229Y-96288026D01*
X146611229Y-96288026D02*
X146628429Y-95156520D01*
X146628429Y-95156520D02*
X146638598Y-93989591D01*
X146638598Y-93989591D02*
X146636033Y-92888108D01*
X146636033Y-92888108D02*
X146609919Y-91876955D01*
X146609919Y-91876955D02*
X146605434Y-91792396D01*
X146389895Y-102705427D02*
X146455598Y-101631083D01*
X146455598Y-101631083D02*
X146503298Y-100462458D01*
X146503298Y-100462458D02*
X146542161Y-99271885D01*
X146542161Y-99271885D02*
X146571386Y-98192987D01*
X146571386Y-98192987D02*
X146591754Y-97298418D01*
X146158011Y-104693197D02*
X146290353Y-103648926D01*
X146290353Y-103648926D02*
X146389895Y-102705427D01*
X145847902Y-106549185D02*
X146018420Y-105562473D01*
X146018420Y-105562473D02*
X146158011Y-104693197D01*
X145422606Y-108689857D02*
X145629066Y-107692248D01*
X145629066Y-107692248D02*
X145827080Y-106663769D01*
X145827080Y-106663769D02*
X145847902Y-106549185D01*
X144858336Y-110906987D02*
X145122218Y-109933404D01*
X145122218Y-109933404D02*
X145369084Y-108928272D01*
X145369084Y-108928272D02*
X145422606Y-108689857D01*
X144148299Y-113056346D02*
X144488850Y-112084313D01*
X144488850Y-112084313D02*
X144803641Y-111092631D01*
X144803641Y-111092631D02*
X144858336Y-110906987D01*
X143398193Y-114852978D02*
X143822757Y-113875034D01*
X143822757Y-113875034D02*
X144148299Y-113056346D01*
X142617026Y-116411567D02*
X143094586Y-115479702D01*
X143094586Y-115479702D02*
X143398193Y-114852978D01*
X141493591Y-118246438D02*
X142040822Y-117391470D01*
X142040822Y-117391470D02*
X142571599Y-116495000D01*
X142571599Y-116495000D02*
X142617026Y-116411567D01*
X140122373Y-120097788D02*
X140749792Y-119294447D01*
X140749792Y-119294447D02*
X141336776Y-118477385D01*
X141336776Y-118477385D02*
X141493591Y-118246438D01*
X138791697Y-121499759D02*
X139505519Y-120784033D01*
X139505519Y-120784033D02*
X140122373Y-120097788D01*
X137475655Y-122583599D02*
X138261384Y-121962943D01*
X138261384Y-121962943D02*
X138791697Y-121499759D01*
X135989154Y-123455059D02*
X136874130Y-122971205D01*
X136874130Y-122971205D02*
X137475655Y-122583599D01*
X134536554Y-124020659D02*
X135514054Y-123668406D01*
X135514054Y-123668406D02*
X135989154Y-123455059D01*
X163991878Y-124209209D02*
X164989962Y-124086083D01*
X164989962Y-124086083D02*
X165138668Y-124053939D01*
X162903277Y-124168209D02*
X163925334Y-124211913D01*
X163925334Y-124211913D02*
X163991878Y-124209209D01*
X161935386Y-123943049D02*
X162903277Y-124168209D01*
X160914417Y-123559429D02*
X161852188Y-123917021D01*
X161852188Y-123917021D02*
X161935386Y-123943049D01*
X159741636Y-122899589D02*
X160627606Y-123417516D01*
X160627606Y-123417516D02*
X160914417Y-123559429D01*
X158504767Y-121989809D02*
X159315884Y-122607259D01*
X159315884Y-122607259D02*
X159741636Y-122899589D01*
X157395516Y-120948689D02*
X158129230Y-121660026D01*
X158129230Y-121660026D02*
X158504767Y-121989809D01*
X156336905Y-119737289D02*
X157007820Y-120523910D01*
X157007820Y-120523910D02*
X157395516Y-120948689D01*
X155180565Y-118131788D02*
X155780564Y-118997613D01*
X155780564Y-118997613D02*
X156336905Y-119737289D01*
X154078436Y-116296928D02*
X154596496Y-117198588D01*
X154596496Y-117198588D02*
X155147600Y-118081652D01*
X155147600Y-118081652D02*
X155180565Y-118131788D01*
X153232075Y-114600188D02*
X153693270Y-115551213D01*
X153693270Y-115551213D02*
X154078436Y-116296928D01*
X152511254Y-112829477D02*
X152890031Y-113802859D01*
X152890031Y-113802859D02*
X153232075Y-114600188D01*
X151893145Y-110908876D02*
X152187154Y-111872105D01*
X152187154Y-111872105D02*
X152511254Y-112829477D01*
X151401154Y-108971637D02*
X151652934Y-110006568D01*
X151652934Y-110006568D02*
X151893145Y-110908876D01*
X150987770Y-106931476D02*
X151189220Y-107972290D01*
X151189220Y-107972290D02*
X151401154Y-108971637D01*
X150603065Y-104599677D02*
X150768639Y-105646089D01*
X150768639Y-105646089D02*
X150944909Y-106690722D01*
X150944909Y-106690722D02*
X150987770Y-106931476D01*
X150327148Y-102355326D02*
X150443343Y-103420040D01*
X150443343Y-103420040D02*
X150583194Y-104466074D01*
X150583194Y-104466074D02*
X150603065Y-104599677D01*
X150172008Y-98685601D02*
X150205888Y-99806409D01*
X150205888Y-99806409D02*
X150246432Y-100871908D01*
X150246432Y-100871908D02*
X150298727Y-101942561D01*
X150298727Y-101942561D02*
X150327148Y-102355326D01*
X150102609Y-94125664D02*
X150109294Y-95201859D01*
X150109294Y-95201859D02*
X150122767Y-96237795D01*
X150122767Y-96237795D02*
X150141806Y-97337980D01*
X150141806Y-97337980D02*
X150164885Y-98402180D01*
X150164885Y-98402180D02*
X150172008Y-98685601D01*
X150170228Y-91271600D02*
X150127501Y-92323765D01*
X150127501Y-92323765D02*
X150106883Y-93423570D01*
X150106883Y-93423570D02*
X150102609Y-94125664D01*
X150277863Y-90250065D02*
X150170228Y-91271600D01*
X151947244Y-91047967D02*
X151031238Y-90586968D01*
X151031238Y-90586968D02*
X150277863Y-90250065D01*
X154608176Y-92478927D02*
X153666977Y-91957872D01*
X153666977Y-91957872D02*
X152753962Y-91469298D01*
X152753962Y-91469298D02*
X151947244Y-91047967D01*
X156517276Y-93646195D02*
X155659454Y-93105859D01*
X155659454Y-93105859D02*
X154774964Y-92575499D01*
X154774964Y-92575499D02*
X154608176Y-92478927D01*
X158008096Y-94683785D02*
X157163487Y-94081782D01*
X157163487Y-94081782D02*
X156517276Y-93646195D01*
X159350647Y-95772661D02*
X158564916Y-95121163D01*
X158564916Y-95121163D02*
X158008096Y-94683785D01*
X161024227Y-97345526D02*
X160257154Y-96600744D01*
X160257154Y-96600744D02*
X159516311Y-95917747D01*
X159516311Y-95917747D02*
X159350647Y-95772661D01*
X162685367Y-99124952D02*
X162013979Y-98379215D01*
X162013979Y-98379215D02*
X161282299Y-97607756D01*
X161282299Y-97607756D02*
X161024227Y-97345526D01*
X164103417Y-100864877D02*
X163445537Y-100038681D01*
X163445537Y-100038681D02*
X162802192Y-99261815D01*
X162802192Y-99261815D02*
X162685367Y-99124952D01*
X165486758Y-102784557D02*
X164893102Y-101933701D01*
X164893102Y-101933701D02*
X164299822Y-101122950D01*
X164299822Y-101122950D02*
X164103417Y-100864877D01*
X166697108Y-104692876D02*
X166164433Y-103827462D01*
X166164433Y-103827462D02*
X165596312Y-102948567D01*
X165596312Y-102948567D02*
X165486758Y-102784557D01*
X167789417Y-106718876D02*
X167310372Y-105795884D01*
X167310372Y-105795884D02*
X166814837Y-104895920D01*
X166814837Y-104895920D02*
X166697108Y-104692876D01*
X168778177Y-108924737D02*
X168378987Y-107982548D01*
X168378987Y-107982548D02*
X167943265Y-107034446D01*
X167943265Y-107034446D02*
X167789417Y-106718876D01*
X169438688Y-110836056D02*
X169125027Y-109864839D01*
X169125027Y-109864839D02*
X168778177Y-108924737D01*
X169793999Y-112321387D02*
X169565142Y-111312179D01*
X169565142Y-111312179D02*
X169438688Y-110836056D01*
X169954479Y-114772298D02*
X169916933Y-113692221D01*
X169916933Y-113692221D02*
X169841239Y-112658794D01*
X169841239Y-112658794D02*
X169793999Y-112321387D01*
X169907379Y-117563158D02*
X169956228Y-116530681D01*
X169956228Y-116530681D02*
X169964335Y-115481653D01*
X169964335Y-115481653D02*
X169954479Y-114772298D01*
X169666238Y-119202459D02*
X169839768Y-118169775D01*
X169839768Y-118169775D02*
X169907379Y-117563158D01*
X169097037Y-120692948D02*
X169493735Y-119759258D01*
X169493735Y-119759258D02*
X169666238Y-119202459D01*
X168275078Y-122028869D02*
X168850132Y-121152922D01*
X168850132Y-121152922D02*
X169097037Y-120692948D01*
X167373748Y-122926279D02*
X168105561Y-122223118D01*
X168105561Y-122223118D02*
X168275078Y-122028869D01*
X166267178Y-123628779D02*
X167133308Y-123106220D01*
X167133308Y-123106220D02*
X167373748Y-122926279D01*
X165138658Y-124053959D02*
X166098445Y-123707493D01*
X166098445Y-123707493D02*
X166267178Y-123628779D01*
D13*
%TO.C,kibuzzard-611CE09C*%
G36*
X146200000Y-137600000D02*
G01*
X146315917Y-137978030D01*
X146396668Y-137926172D01*
X146495411Y-137895057D01*
X146612145Y-137884685D01*
X146713824Y-137890876D01*
X146801692Y-137909450D01*
X146937900Y-137964695D01*
X146869320Y-138145670D01*
X146763592Y-138099950D01*
X146629290Y-138080900D01*
X146525573Y-138095928D01*
X146463343Y-138141013D01*
X146442600Y-138216155D01*
X146461650Y-138276162D01*
X146510227Y-138321882D01*
X146576902Y-138357125D01*
X146650245Y-138385700D01*
X146765497Y-138432372D01*
X146875987Y-138500953D01*
X146958855Y-138607633D01*
X147425580Y-139090550D01*
X147425580Y-138105665D01*
X147115065Y-138105665D01*
X147115065Y-137911355D01*
X147972315Y-137911355D01*
X147972315Y-138105665D01*
X147661800Y-138105665D01*
X147661800Y-139090550D01*
X147425580Y-139090550D01*
X146958855Y-138607633D01*
X146983144Y-138679784D01*
X146991240Y-138768605D01*
X146964332Y-138915528D01*
X146883607Y-139024828D01*
X146799470Y-139075098D01*
X146690567Y-139105261D01*
X146556900Y-139115315D01*
X146424979Y-139107457D01*
X146322585Y-139083883D01*
X146191140Y-139025780D01*
X146259720Y-138835280D01*
X146382592Y-138892430D01*
X146461888Y-138912433D01*
X146556900Y-138919100D01*
X146655007Y-138906718D01*
X146716920Y-138872428D01*
X146748352Y-138822898D01*
X146756925Y-138766700D01*
X146735970Y-138701930D01*
X146682630Y-138651448D01*
X146610240Y-138611443D01*
X146530230Y-138578105D01*
X146419740Y-138534290D01*
X146315917Y-138471425D01*
X146238765Y-138377127D01*
X146208285Y-138237110D01*
X146235193Y-138089472D01*
X146315917Y-137978030D01*
X146200000Y-137600000D01*
X146100000Y-137600000D01*
X146100000Y-139400000D01*
X148122810Y-139090550D01*
X148122810Y-138896240D01*
X148379985Y-138896240D01*
X148379985Y-138105665D01*
X148122810Y-138105665D01*
X148122810Y-137911355D01*
X148871475Y-137911355D01*
X148871475Y-138105665D01*
X148616205Y-138105665D01*
X148616205Y-138896240D01*
X148871475Y-138896240D01*
X148871475Y-139090550D01*
X148122810Y-139090550D01*
X146100000Y-139400000D01*
X146300000Y-139400000D01*
X149648715Y-139090550D01*
X149593788Y-138959846D01*
X149535685Y-138829353D01*
X149474408Y-138699073D01*
X149409955Y-138568792D01*
X149342328Y-138438299D01*
X149271525Y-138307595D01*
X149271525Y-139090550D01*
X149060070Y-139090550D01*
X149060070Y-137911355D01*
X149248665Y-137911355D01*
X149302005Y-137998747D01*
X149355345Y-138093282D01*
X149407971Y-138191152D01*
X149459168Y-138288545D01*
X149507745Y-138384271D01*
X149552513Y-138477140D01*
X149592279Y-138562865D01*
X149625855Y-138637160D01*
X149625855Y-137911355D01*
X149837310Y-137911355D01*
X149837310Y-139090550D01*
X149648715Y-139090550D01*
X146245570Y-139400000D01*
X150900000Y-139400000D01*
X150803145Y-139061975D01*
X150672653Y-139096265D01*
X150574783Y-139110553D01*
X150458340Y-139115315D01*
X150353327Y-139105552D01*
X150259268Y-139076263D01*
X150177114Y-139027685D01*
X150107820Y-138960058D01*
X150052099Y-138873380D01*
X150010665Y-138767653D01*
X149984948Y-138643113D01*
X149976375Y-138500000D01*
X149986376Y-138358316D01*
X150016380Y-138234252D01*
X150063529Y-138128287D01*
X150124965Y-138040895D01*
X150199736Y-137972553D01*
X150286890Y-137923737D01*
X150383569Y-137894448D01*
X150486915Y-137884685D01*
X150609788Y-137895162D01*
X150704085Y-137918975D01*
X150769808Y-137947550D01*
X150808860Y-137970410D01*
X150747900Y-138157100D01*
X150645030Y-138109475D01*
X150519300Y-138088520D01*
X150378330Y-138119000D01*
X150284033Y-138203772D01*
X150230693Y-138333312D01*
X150218548Y-138412608D01*
X150214500Y-138500000D01*
X150221908Y-138628588D01*
X150244133Y-138732410D01*
X150281175Y-138811468D01*
X150363566Y-138886477D01*
X150477390Y-138911480D01*
X150523110Y-138909575D01*
X150568830Y-138903860D01*
X150568830Y-138473330D01*
X150803145Y-138473330D01*
X150803145Y-139061975D01*
X150808860Y-139400000D01*
X150900000Y-139400000D01*
X150900000Y-137600000D01*
X150808860Y-137600000D01*
X146191140Y-137600000D01*
X146200000Y-137600000D01*
G37*
%TO.C,kibuzzard-612E1065*%
G36*
X146151135Y-109872055D02*
G01*
X146414025Y-110411355D01*
X146447362Y-110514225D01*
X146490225Y-110649480D01*
X146535945Y-110796165D01*
X146579760Y-110933325D01*
X146627385Y-110787592D01*
X146675010Y-110642812D01*
X146716920Y-110512320D01*
X146751210Y-110411355D01*
X146945520Y-110411355D01*
X146958617Y-110563755D01*
X146971237Y-110712345D01*
X146982667Y-110858316D01*
X146992192Y-111002858D01*
X147111255Y-111000000D01*
X147118280Y-110856946D01*
X147139354Y-110732586D01*
X147174477Y-110626918D01*
X147223650Y-110539942D01*
X147308317Y-110453688D01*
X147412457Y-110401936D01*
X147536070Y-110384685D01*
X147663493Y-110401936D01*
X147768903Y-110453688D01*
X147852300Y-110539942D01*
X147899806Y-110626918D01*
X147933739Y-110732586D01*
X148370460Y-110605665D01*
X148059945Y-110605665D01*
X148059945Y-110411355D01*
X148917195Y-110411355D01*
X148917195Y-110605665D01*
X148606680Y-110605665D01*
X149016255Y-111000000D01*
X149023280Y-110856946D01*
X149044354Y-110732586D01*
X149079477Y-110626918D01*
X149128650Y-110539942D01*
X149213317Y-110453688D01*
X149317457Y-110401936D01*
X149441070Y-110384685D01*
X149568493Y-110401936D01*
X149673903Y-110453688D01*
X149757300Y-110539942D01*
X149804806Y-110626918D01*
X149838739Y-110732586D01*
X149859098Y-110856946D01*
X149865885Y-111000000D01*
X149858979Y-111143054D01*
X149838263Y-111267414D01*
X149803734Y-111373082D01*
X149755395Y-111460058D01*
X149671575Y-111546312D01*
X149567435Y-111598064D01*
X149442975Y-111615315D01*
X149315446Y-111598064D01*
X149209718Y-111546312D01*
X149125793Y-111460058D01*
X149077870Y-111373082D01*
X149043639Y-111267414D01*
X149023101Y-111143054D01*
X149016255Y-111000000D01*
X148606680Y-110605665D01*
X148606680Y-111590550D01*
X148370460Y-111590550D01*
X148370460Y-110605665D01*
X147933739Y-110732586D01*
X147954098Y-110856946D01*
X147960885Y-111000000D01*
X147953979Y-111143054D01*
X147933262Y-111267414D01*
X147898734Y-111373082D01*
X147850395Y-111460058D01*
X147766575Y-111546312D01*
X147662435Y-111598064D01*
X147537975Y-111615315D01*
X147410446Y-111598064D01*
X147304718Y-111546312D01*
X147220792Y-111460058D01*
X147172870Y-111373082D01*
X147138639Y-111267414D01*
X147118101Y-111143054D01*
X147111255Y-111000000D01*
X146992192Y-111002858D01*
X147000051Y-111147161D01*
X147006480Y-111292418D01*
X147011719Y-111439817D01*
X147016005Y-111590550D01*
X146800740Y-111590550D01*
X146812170Y-110674245D01*
X146667390Y-111173355D01*
X146495940Y-111173355D01*
X146356875Y-110674245D01*
X146366400Y-111590550D01*
X146151135Y-111590550D01*
X146157088Y-111442913D01*
X146163517Y-111289560D01*
X146170423Y-111133826D01*
X146177805Y-110979045D01*
X146186139Y-110827121D01*
X146195902Y-110679960D01*
X146207094Y-110540419D01*
X146219715Y-110411355D01*
X146414025Y-110411355D01*
X146151135Y-109872055D01*
X145638505Y-109872055D01*
X145638505Y-112127945D01*
X146151135Y-112127945D01*
X150848865Y-112127945D01*
X150848865Y-111590550D01*
X150603120Y-111590550D01*
X150555733Y-111478393D01*
X150501203Y-111370523D01*
X150440957Y-111264081D01*
X150376425Y-111156210D01*
X150254505Y-111156210D01*
X150254505Y-111590550D01*
X150020190Y-111590550D01*
X150020190Y-110428500D01*
X150095438Y-110414212D01*
X150178305Y-110404687D01*
X150258315Y-110399925D01*
X150324990Y-110398020D01*
X150421193Y-110403735D01*
X150507870Y-110420880D01*
X150584070Y-110449931D01*
X150648840Y-110491365D01*
X150739328Y-110612332D01*
X150762902Y-110692104D01*
X150770760Y-110784735D01*
X150760283Y-110882842D01*
X150728850Y-110971425D01*
X150673129Y-111045244D01*
X150589785Y-111099060D01*
X150658365Y-111208598D01*
X150728850Y-111334328D01*
X150794573Y-111465773D01*
X150848865Y-111590550D01*
X150848865Y-112127945D01*
X151361495Y-112127945D01*
X151361495Y-109872055D01*
X150848865Y-109872055D01*
X146151135Y-109872055D01*
G37*
G36*
X147349380Y-111000000D02*
G01*
X147351047Y-111083106D01*
X147356047Y-111160973D01*
X147382717Y-111291465D01*
X147438915Y-111379095D01*
X147536070Y-111411480D01*
X147632272Y-111379095D01*
X147689422Y-111290513D01*
X147716092Y-111160020D01*
X147721093Y-111082868D01*
X147722760Y-111000000D01*
X147721093Y-110916894D01*
X147716092Y-110839027D01*
X147689422Y-110708535D01*
X147633225Y-110620905D01*
X147536070Y-110588520D01*
X147438915Y-110620905D01*
X147382717Y-110709487D01*
X147356047Y-110839980D01*
X147351047Y-110917132D01*
X147349380Y-111000000D01*
G37*
G36*
X149254380Y-111000000D02*
G01*
X149256047Y-111083106D01*
X149261048Y-111160973D01*
X149287718Y-111291465D01*
X149343915Y-111379095D01*
X149441070Y-111411480D01*
X149537273Y-111379095D01*
X149594423Y-111290513D01*
X149621093Y-111160020D01*
X149626093Y-111082868D01*
X149627760Y-111000000D01*
X149626093Y-110916894D01*
X149621093Y-110839027D01*
X149594423Y-110708535D01*
X149538225Y-110620905D01*
X149441070Y-110588520D01*
X149343915Y-110620905D01*
X149287718Y-110709487D01*
X149261048Y-110839980D01*
X149256047Y-110917132D01*
X149254380Y-111000000D01*
G37*
G36*
X150532635Y-110782830D02*
G01*
X150518348Y-110701867D01*
X150475485Y-110645670D01*
X150409286Y-110612809D01*
X150324990Y-110601855D01*
X150292605Y-110602807D01*
X150254505Y-110607570D01*
X150254505Y-110961900D01*
X150305940Y-110961900D01*
X150409286Y-110950232D01*
X150479295Y-110915227D01*
X150532635Y-110782830D01*
G37*
D14*
%TO.C,G1*%
G36*
X148649703Y-76349203D02*
G01*
X148734986Y-76366239D01*
X148820919Y-76394766D01*
X148890146Y-76424144D01*
X149020963Y-76495475D01*
X149153563Y-76590497D01*
X149283354Y-76705407D01*
X149405745Y-76836404D01*
X149444156Y-76883050D01*
X149467149Y-76914234D01*
X149503504Y-76966551D01*
X149551444Y-77037317D01*
X149609189Y-77123847D01*
X149674961Y-77223459D01*
X149746982Y-77333468D01*
X149823473Y-77451190D01*
X149902657Y-77573940D01*
X149925222Y-77609086D01*
X150327389Y-78236128D01*
X150335181Y-77806758D01*
X150373618Y-77815992D01*
X150412872Y-77827278D01*
X150472578Y-77846738D01*
X150546897Y-77872289D01*
X150629991Y-77901848D01*
X150716018Y-77933333D01*
X150799140Y-77964662D01*
X150873516Y-77993751D01*
X150884778Y-77998286D01*
X151032944Y-78058256D01*
X151032319Y-78161989D01*
X151031440Y-78223407D01*
X151029616Y-78300264D01*
X151027170Y-78379806D01*
X151025921Y-78413889D01*
X151024447Y-78493859D01*
X151028289Y-78550952D01*
X151038961Y-78590255D01*
X151057978Y-78616856D01*
X151086854Y-78635841D01*
X151092820Y-78638662D01*
X151131043Y-78649495D01*
X151173465Y-78653778D01*
X151210989Y-78648623D01*
X151241127Y-78630970D01*
X151265747Y-78597530D01*
X151286720Y-78545019D01*
X151305916Y-78470149D01*
X151320694Y-78395022D01*
X151333396Y-78328183D01*
X151345055Y-78272720D01*
X151354495Y-78233830D01*
X151360541Y-78216706D01*
X151361130Y-78216333D01*
X151378028Y-78223201D01*
X151414781Y-78242161D01*
X151467064Y-78270750D01*
X151530552Y-78306505D01*
X151600921Y-78346961D01*
X151673846Y-78389657D01*
X151745004Y-78432127D01*
X151810069Y-78471909D01*
X151813317Y-78473928D01*
X151871701Y-78511609D01*
X151919614Y-78545135D01*
X151952794Y-78571322D01*
X151966976Y-78586986D01*
X151967100Y-78588771D01*
X151961938Y-78607223D01*
X151951371Y-78648072D01*
X151936672Y-78706295D01*
X151919115Y-78776870D01*
X151907360Y-78824589D01*
X151887091Y-78908500D01*
X151873344Y-78969922D01*
X151865481Y-79013660D01*
X151862858Y-79044523D01*
X151864836Y-79067317D01*
X151870772Y-79086849D01*
X151871982Y-79089837D01*
X151903319Y-79134530D01*
X151949136Y-79163712D01*
X152001487Y-79175392D01*
X152052427Y-79167580D01*
X152088670Y-79144139D01*
X152105657Y-79118785D01*
X152128747Y-79073178D01*
X152154915Y-79013770D01*
X152181136Y-78947012D01*
X152181294Y-78946583D01*
X152205243Y-78883709D01*
X152226407Y-78831781D01*
X152242630Y-78795838D01*
X152251758Y-78780919D01*
X152252212Y-78780778D01*
X152268332Y-78789562D01*
X152301667Y-78813734D01*
X152348256Y-78850025D01*
X152404139Y-78895163D01*
X152465357Y-78945880D01*
X152527949Y-78998906D01*
X152587954Y-79050969D01*
X152641414Y-79098802D01*
X152673352Y-79128522D01*
X152789760Y-79239389D01*
X152698501Y-79444000D01*
X152657076Y-79540000D01*
X152628515Y-79614944D01*
X152612186Y-79672560D01*
X152607459Y-79716579D01*
X152613702Y-79750729D01*
X152630284Y-79778742D01*
X152640034Y-79789428D01*
X152683296Y-79818491D01*
X152735162Y-79833726D01*
X152784097Y-79832543D01*
X152802280Y-79825861D01*
X152820270Y-79808130D01*
X152848398Y-79770917D01*
X152883046Y-79719385D01*
X152920597Y-79658696D01*
X152926879Y-79648061D01*
X152962927Y-79588698D01*
X152994936Y-79539848D01*
X153019872Y-79505869D01*
X153034698Y-79491117D01*
X153036363Y-79490903D01*
X153051306Y-79503406D01*
X153080733Y-79533968D01*
X153121331Y-79578747D01*
X153169787Y-79633900D01*
X153222786Y-79695583D01*
X153277016Y-79759955D01*
X153329162Y-79823172D01*
X153375911Y-79881391D01*
X153401857Y-79914763D01*
X153484769Y-80023284D01*
X153356337Y-80216948D01*
X153299917Y-80303873D01*
X153259181Y-80371849D01*
X153232766Y-80424424D01*
X153219314Y-80465145D01*
X153217465Y-80497558D01*
X153225858Y-80525210D01*
X153233237Y-80538004D01*
X153269764Y-80575399D01*
X153318065Y-80601825D01*
X153367140Y-80612144D01*
X153387319Y-80609975D01*
X153412724Y-80594777D01*
X153451882Y-80559950D01*
X153501659Y-80508478D01*
X153544804Y-80459905D01*
X153590800Y-80407550D01*
X153630818Y-80363998D01*
X153661047Y-80333250D01*
X153677678Y-80319308D01*
X153679029Y-80318889D01*
X153690631Y-80330544D01*
X153713389Y-80362729D01*
X153744802Y-80411277D01*
X153782372Y-80472018D01*
X153823599Y-80540785D01*
X153865985Y-80613410D01*
X153907028Y-80685723D01*
X153944231Y-80753556D01*
X153974795Y-80812149D01*
X154033059Y-80928031D01*
X153875947Y-81090213D01*
X153804915Y-81165102D01*
X153752807Y-81224349D01*
X153717581Y-81271208D01*
X153697195Y-81308930D01*
X153689609Y-81340768D01*
X153692780Y-81369974D01*
X153695285Y-81378031D01*
X153725252Y-81430022D01*
X153769815Y-81466579D01*
X153821269Y-81481562D01*
X153825287Y-81481644D01*
X153849094Y-81478382D01*
X153876633Y-81466763D01*
X153912269Y-81444041D01*
X153960364Y-81407466D01*
X154018486Y-81359951D01*
X154072785Y-81315785D01*
X154119484Y-81279716D01*
X154154331Y-81254888D01*
X154173071Y-81244445D01*
X154174769Y-81244466D01*
X154184474Y-81260465D01*
X154201527Y-81298655D01*
X154224268Y-81354481D01*
X154251036Y-81423389D01*
X154280170Y-81500824D01*
X154310009Y-81582231D01*
X154338894Y-81663055D01*
X154365162Y-81738742D01*
X154387155Y-81804737D01*
X154403210Y-81856485D01*
X154411668Y-81889432D01*
X154412555Y-81896650D01*
X154401815Y-81908289D01*
X154372175Y-81933484D01*
X154327505Y-81969117D01*
X154271675Y-82012071D01*
X154235946Y-82038929D01*
X154172570Y-82087112D01*
X154115452Y-82132259D01*
X154069344Y-82170486D01*
X154038997Y-82197910D01*
X154031335Y-82206208D01*
X154006397Y-82256850D01*
X154009595Y-82309550D01*
X154040920Y-82364234D01*
X154047128Y-82371564D01*
X154075547Y-82399671D01*
X154104082Y-82415627D01*
X154137109Y-82418773D01*
X154179006Y-82408452D01*
X154234152Y-82384006D01*
X154306922Y-82344776D01*
X154336173Y-82328116D01*
X154396407Y-82294079D01*
X154447249Y-82266390D01*
X154484065Y-82247493D01*
X154502223Y-82239834D01*
X154503275Y-82239922D01*
X154508870Y-82256988D01*
X154517800Y-82296860D01*
X154529290Y-82354934D01*
X154542569Y-82426608D01*
X154556863Y-82507280D01*
X154571398Y-82592347D01*
X154585402Y-82677207D01*
X154598101Y-82757257D01*
X154608722Y-82827896D01*
X154616492Y-82884520D01*
X154620638Y-82922527D01*
X154620429Y-82937284D01*
X154607394Y-82944179D01*
X154573355Y-82961629D01*
X154522514Y-82987494D01*
X154459074Y-83019635D01*
X154405500Y-83046701D01*
X154320391Y-83090561D01*
X154257618Y-83125277D01*
X154213683Y-83153064D01*
X154185087Y-83176140D01*
X154168331Y-83196720D01*
X154168105Y-83197100D01*
X154150142Y-83252204D01*
X154159958Y-83307876D01*
X154194036Y-83358718D01*
X154217906Y-83381020D01*
X154243026Y-83394187D01*
X154274047Y-83397874D01*
X154315619Y-83391738D01*
X154372392Y-83375435D01*
X154449016Y-83348621D01*
X154478781Y-83337656D01*
X154539587Y-83315483D01*
X154590795Y-83297531D01*
X154626556Y-83285803D01*
X154640569Y-83282222D01*
X154643828Y-83295715D01*
X154646459Y-83333729D01*
X154648373Y-83392569D01*
X154649481Y-83468540D01*
X154649691Y-83557946D01*
X154649159Y-83636264D01*
X154645389Y-83990306D01*
X154422132Y-84057581D01*
X154345875Y-84081376D01*
X154278319Y-84103990D01*
X154224487Y-84123620D01*
X154189406Y-84138465D01*
X154178915Y-84144815D01*
X154171295Y-84157373D01*
X154172980Y-84175269D01*
X154185966Y-84203663D01*
X154212249Y-84247713D01*
X154228827Y-84273832D01*
X154260590Y-84321625D01*
X154287417Y-84358716D01*
X154305353Y-84379789D01*
X154309766Y-84382657D01*
X154327495Y-84380179D01*
X154366622Y-84373674D01*
X154420792Y-84364220D01*
X154465472Y-84356206D01*
X154610111Y-84329987D01*
X154610111Y-84372479D01*
X154607820Y-84402648D01*
X154601579Y-84453550D01*
X154592336Y-84518122D01*
X154581039Y-84589303D01*
X154580825Y-84590591D01*
X154570242Y-84659072D01*
X154562630Y-84718419D01*
X154558656Y-84762580D01*
X154558990Y-84785502D01*
X154559221Y-84786233D01*
X154567820Y-84800991D01*
X154590430Y-84837743D01*
X154625908Y-84894675D01*
X154673110Y-84969971D01*
X154730894Y-85061818D01*
X154798114Y-85168401D01*
X154873629Y-85287906D01*
X154956293Y-85418520D01*
X155044965Y-85558426D01*
X155138499Y-85705812D01*
X155183323Y-85776377D01*
X155307676Y-85972378D01*
X155417657Y-86146466D01*
X155514268Y-86300396D01*
X155598511Y-86435922D01*
X155671387Y-86554801D01*
X155733897Y-86658786D01*
X155787044Y-86749633D01*
X155831828Y-86829096D01*
X155869252Y-86898930D01*
X155900318Y-86960891D01*
X155926025Y-87016732D01*
X155947377Y-87068210D01*
X155965375Y-87117078D01*
X155981020Y-87165091D01*
X155986695Y-87183944D01*
X156011903Y-87293047D01*
X156027855Y-87413004D01*
X156034086Y-87534636D01*
X156030127Y-87648768D01*
X156015512Y-87746221D01*
X156015336Y-87746971D01*
X155966435Y-87896649D01*
X155893862Y-88031095D01*
X155797819Y-88150126D01*
X155678508Y-88253560D01*
X155536133Y-88341214D01*
X155370896Y-88412904D01*
X155228425Y-88457056D01*
X155082833Y-88495472D01*
X153384111Y-88502931D01*
X151685388Y-88510389D01*
X151794375Y-88601640D01*
X151903363Y-88692891D01*
X151870399Y-88719584D01*
X151837959Y-88742602D01*
X151786077Y-88775687D01*
X151720223Y-88815642D01*
X151645867Y-88859269D01*
X151568480Y-88903374D01*
X151493530Y-88944759D01*
X151426489Y-88980229D01*
X151410111Y-88988548D01*
X151285517Y-89051123D01*
X151114911Y-88890354D01*
X151055149Y-88835280D01*
X150999780Y-88786535D01*
X150953145Y-88747770D01*
X150919585Y-88722637D01*
X150906811Y-88715329D01*
X150859614Y-88710892D01*
X150808631Y-88726618D01*
X150764613Y-88758482D01*
X150752566Y-88773094D01*
X150734151Y-88806132D01*
X150728275Y-88838996D01*
X150736461Y-88875860D01*
X150760231Y-88920896D01*
X150801109Y-88978279D01*
X150849500Y-89038733D01*
X150893709Y-89093075D01*
X150930573Y-89139622D01*
X150956768Y-89174082D01*
X150968967Y-89192163D01*
X150969444Y-89193559D01*
X150956802Y-89202643D01*
X150921787Y-89218898D01*
X150868765Y-89240766D01*
X150802101Y-89266686D01*
X150726160Y-89295099D01*
X150645309Y-89324447D01*
X150563913Y-89353170D01*
X150486338Y-89379709D01*
X150416949Y-89402504D01*
X150360113Y-89419997D01*
X150320195Y-89430628D01*
X150301560Y-89432838D01*
X150300867Y-89432343D01*
X150276627Y-89397079D01*
X150241708Y-89349146D01*
X150199631Y-89293067D01*
X150153914Y-89233365D01*
X150108077Y-89174563D01*
X150065642Y-89121184D01*
X150030126Y-89077750D01*
X150005051Y-89048786D01*
X149994797Y-89039031D01*
X149962467Y-89029191D01*
X149924739Y-89025444D01*
X149884371Y-89036333D01*
X149842285Y-89063943D01*
X149806810Y-89100693D01*
X149786277Y-89139001D01*
X149784111Y-89153455D01*
X149790980Y-89177424D01*
X149809738Y-89219757D01*
X149837610Y-89274706D01*
X149871819Y-89336520D01*
X149875833Y-89343463D01*
X149910253Y-89403740D01*
X149938783Y-89455613D01*
X149958728Y-89494041D01*
X149967395Y-89513982D01*
X149967555Y-89515068D01*
X149954052Y-89523614D01*
X149915502Y-89535234D01*
X149854847Y-89549368D01*
X149775027Y-89565454D01*
X149678983Y-89582932D01*
X149569657Y-89601241D01*
X149449987Y-89619819D01*
X149322917Y-89638105D01*
X149321643Y-89638281D01*
X149275452Y-89644666D01*
X149170649Y-89435408D01*
X149121247Y-89340079D01*
X149079938Y-89268476D01*
X149044696Y-89217979D01*
X149013497Y-89185969D01*
X148984315Y-89169827D01*
X148962836Y-89166556D01*
X148916520Y-89176814D01*
X148870723Y-89203194D01*
X148833412Y-89239106D01*
X148812555Y-89277960D01*
X148810601Y-89292487D01*
X148815440Y-89320049D01*
X148828441Y-89366969D01*
X148847529Y-89426306D01*
X148867046Y-89481467D01*
X148889451Y-89543904D01*
X148907626Y-89597752D01*
X148919568Y-89636864D01*
X148923333Y-89654329D01*
X148919549Y-89660703D01*
X148906171Y-89665623D01*
X148880161Y-89669265D01*
X148838481Y-89671803D01*
X148778092Y-89673413D01*
X148695958Y-89674271D01*
X148589040Y-89674552D01*
X148573057Y-89674556D01*
X148222781Y-89674556D01*
X148161799Y-89466417D01*
X148138869Y-89390512D01*
X148116671Y-89321241D01*
X148097208Y-89264562D01*
X148082484Y-89226435D01*
X148077966Y-89216970D01*
X148070895Y-89202203D01*
X148066140Y-89184993D01*
X148063835Y-89161581D01*
X148064113Y-89128209D01*
X148067108Y-89081120D01*
X148072952Y-89016557D01*
X148081779Y-88930760D01*
X148091216Y-88843026D01*
X148127316Y-88510389D01*
X148065197Y-88506026D01*
X148026709Y-88504281D01*
X148002377Y-88504988D01*
X147998728Y-88506026D01*
X147996003Y-88520694D01*
X147990767Y-88559385D01*
X147983513Y-88618064D01*
X147974732Y-88692691D01*
X147964916Y-88779230D01*
X147959801Y-88825453D01*
X147925225Y-89140518D01*
X147873946Y-89182786D01*
X147850596Y-89203431D01*
X147834861Y-89223658D01*
X147826342Y-89248384D01*
X147824645Y-89282525D01*
X147829370Y-89330998D01*
X147840123Y-89398720D01*
X147851394Y-89462268D01*
X147862157Y-89525938D01*
X147869779Y-89578855D01*
X147873514Y-89615214D01*
X147872866Y-89629059D01*
X147855535Y-89630737D01*
X147815286Y-89627729D01*
X147756888Y-89620819D01*
X147685110Y-89610791D01*
X147604721Y-89598431D01*
X147520490Y-89584522D01*
X147437187Y-89569849D01*
X147359579Y-89555198D01*
X147292436Y-89541351D01*
X147240527Y-89529094D01*
X147211109Y-89520198D01*
X147199083Y-89513745D01*
X147189709Y-89501950D01*
X147181959Y-89480540D01*
X147174807Y-89445244D01*
X147167226Y-89391790D01*
X147158188Y-89315905D01*
X147154790Y-89285918D01*
X147142138Y-89183721D01*
X147129512Y-89106060D01*
X147115832Y-89049272D01*
X147100018Y-89009691D01*
X147080989Y-88983654D01*
X147061448Y-88969418D01*
X147007489Y-88954954D01*
X146948786Y-88961319D01*
X146897887Y-88987036D01*
X146895648Y-88988911D01*
X146880022Y-89003109D01*
X146869052Y-89017691D01*
X146861770Y-89037742D01*
X146857213Y-89068351D01*
X146854413Y-89114605D01*
X146852406Y-89181593D01*
X146851461Y-89221744D01*
X146849140Y-89292984D01*
X146845902Y-89352921D01*
X146842119Y-89396521D01*
X146838163Y-89418753D01*
X146836762Y-89420556D01*
X146813602Y-89415651D01*
X146768912Y-89402078D01*
X146707313Y-89381547D01*
X146633428Y-89355767D01*
X146551878Y-89326449D01*
X146467287Y-89295303D01*
X146384276Y-89264039D01*
X146307468Y-89234367D01*
X146241484Y-89207998D01*
X146190947Y-89186642D01*
X146160479Y-89172008D01*
X146154680Y-89168192D01*
X146152247Y-89151829D01*
X146151901Y-89112248D01*
X146153527Y-89054365D01*
X146157009Y-88983099D01*
X146160275Y-88930999D01*
X146166232Y-88830233D01*
X146168111Y-88753488D01*
X146165192Y-88696766D01*
X146156757Y-88656065D01*
X146142089Y-88627387D01*
X146120469Y-88606732D01*
X146099824Y-88594390D01*
X146043557Y-88575682D01*
X145989419Y-88582242D01*
X145960474Y-88594810D01*
X145939153Y-88608819D01*
X145922222Y-88628944D01*
X145908045Y-88659656D01*
X145894988Y-88705428D01*
X145881418Y-88770732D01*
X145867558Y-88849056D01*
X145856397Y-88909671D01*
X145845531Y-88959891D01*
X145836474Y-88993140D01*
X145832224Y-89002590D01*
X145815402Y-89001089D01*
X145777466Y-88985758D01*
X145721057Y-88958007D01*
X145648814Y-88919247D01*
X145563377Y-88870888D01*
X145467386Y-88814340D01*
X145377288Y-88759545D01*
X145314584Y-88721134D01*
X145272021Y-88693458D01*
X145246467Y-88671291D01*
X145234791Y-88649405D01*
X145233861Y-88622571D01*
X145240543Y-88585563D01*
X145249153Y-88545667D01*
X145257972Y-88503333D01*
X143642334Y-88503333D01*
X143386250Y-88503327D01*
X143156708Y-88503266D01*
X142952027Y-88503088D01*
X142770527Y-88502734D01*
X142610528Y-88502140D01*
X142470350Y-88501244D01*
X142348311Y-88499987D01*
X142242732Y-88498305D01*
X142151933Y-88496137D01*
X142074233Y-88493421D01*
X142007951Y-88490096D01*
X141951408Y-88486101D01*
X141902923Y-88481372D01*
X141860815Y-88475850D01*
X141823404Y-88469472D01*
X141789011Y-88462176D01*
X141755954Y-88453902D01*
X141722553Y-88444586D01*
X141687128Y-88434168D01*
X141677278Y-88431242D01*
X141518798Y-88371629D01*
X141375782Y-88292484D01*
X141250357Y-88195843D01*
X141144653Y-88083742D01*
X141060799Y-87958220D01*
X141000924Y-87821312D01*
X140985629Y-87769556D01*
X140975045Y-87720340D01*
X140968758Y-87667256D01*
X140966326Y-87603046D01*
X140967301Y-87520450D01*
X140968315Y-87487333D01*
X140976319Y-87362899D01*
X140978063Y-87351072D01*
X141693729Y-87351072D01*
X141694377Y-87443755D01*
X141698821Y-87468092D01*
X141734315Y-87567887D01*
X141792197Y-87650743D01*
X141872025Y-87716310D01*
X141973357Y-87764237D01*
X142095748Y-87794174D01*
X142114722Y-87796935D01*
X142136538Y-87797974D01*
X142185468Y-87798972D01*
X142260413Y-87799928D01*
X142360270Y-87800842D01*
X142483940Y-87801714D01*
X142630320Y-87802545D01*
X142798310Y-87803333D01*
X142986809Y-87804081D01*
X143194716Y-87804786D01*
X143420930Y-87805450D01*
X143664349Y-87806072D01*
X143923874Y-87806653D01*
X144198403Y-87807192D01*
X144486835Y-87807690D01*
X144788069Y-87808146D01*
X145101003Y-87808560D01*
X145424538Y-87808933D01*
X145757572Y-87809264D01*
X146099004Y-87809554D01*
X146447733Y-87809802D01*
X146802658Y-87810009D01*
X147162679Y-87810175D01*
X147526693Y-87810299D01*
X147893600Y-87810382D01*
X148262300Y-87810423D01*
X148631691Y-87810423D01*
X149000672Y-87810381D01*
X149368142Y-87810298D01*
X149733000Y-87810174D01*
X150094145Y-87810008D01*
X150450477Y-87809802D01*
X150800894Y-87809554D01*
X151144295Y-87809264D01*
X151479579Y-87808934D01*
X151805646Y-87808562D01*
X152121394Y-87808149D01*
X152425722Y-87807694D01*
X152717530Y-87807199D01*
X152995715Y-87806662D01*
X153259179Y-87806085D01*
X153506818Y-87805466D01*
X153737533Y-87804806D01*
X153950222Y-87804105D01*
X154143785Y-87803362D01*
X154317119Y-87802579D01*
X154469126Y-87801755D01*
X154598703Y-87800890D01*
X154704749Y-87799983D01*
X154786163Y-87799036D01*
X154841845Y-87798048D01*
X154870694Y-87797018D01*
X154873673Y-87796743D01*
X154941101Y-87783971D01*
X155010682Y-87765212D01*
X155065907Y-87745107D01*
X155137508Y-87703099D01*
X155202480Y-87646583D01*
X155253902Y-87582710D01*
X155284780Y-87518883D01*
X155300140Y-87421752D01*
X155292681Y-87315002D01*
X155263441Y-87204095D01*
X155213455Y-87094492D01*
X155199752Y-87071056D01*
X155189184Y-87054343D01*
X155163886Y-87014683D01*
X155124373Y-86952879D01*
X155071159Y-86869732D01*
X155004760Y-86766048D01*
X154925690Y-86642627D01*
X154834464Y-86500274D01*
X154731598Y-86339790D01*
X154617606Y-86161980D01*
X154493003Y-85967645D01*
X154358305Y-85757590D01*
X154214025Y-85532616D01*
X154060680Y-85293526D01*
X153898783Y-85041124D01*
X153728850Y-84776213D01*
X153551396Y-84499594D01*
X153366935Y-84212072D01*
X153175983Y-83914449D01*
X152979055Y-83607529D01*
X152776665Y-83292113D01*
X152569328Y-82969005D01*
X152357560Y-82639008D01*
X152141875Y-82302924D01*
X152050642Y-82160768D01*
X151777356Y-81734997D01*
X151518922Y-81332466D01*
X151274993Y-80952638D01*
X151045219Y-80594974D01*
X150829252Y-80258936D01*
X150626745Y-79943986D01*
X150437347Y-79649586D01*
X150260711Y-79375197D01*
X150096489Y-79120281D01*
X149944332Y-78884300D01*
X149803891Y-78666716D01*
X149674818Y-78466991D01*
X149556765Y-78284587D01*
X149449383Y-78118965D01*
X149352324Y-77969587D01*
X149265239Y-77835915D01*
X149187781Y-77717411D01*
X149119599Y-77613537D01*
X149060347Y-77523754D01*
X149009675Y-77447525D01*
X148967236Y-77384310D01*
X148932680Y-77333573D01*
X148905659Y-77294775D01*
X148885826Y-77267377D01*
X148872830Y-77250841D01*
X148869133Y-77246813D01*
X148815133Y-77200622D01*
X148751072Y-77155640D01*
X148700805Y-77126851D01*
X148594054Y-77088991D01*
X148485496Y-77078593D01*
X148377323Y-77095178D01*
X148271726Y-77138272D01*
X148170894Y-77207397D01*
X148121685Y-77252849D01*
X148111412Y-77265009D01*
X148094849Y-77287181D01*
X148071635Y-77319920D01*
X148041412Y-77363783D01*
X148003819Y-77419322D01*
X147958498Y-77487093D01*
X147905090Y-77567651D01*
X147843235Y-77661551D01*
X147772573Y-77769347D01*
X147692746Y-77891595D01*
X147603395Y-78028848D01*
X147504159Y-78181662D01*
X147394680Y-78350592D01*
X147274599Y-78536192D01*
X147143555Y-78739018D01*
X147001190Y-78959623D01*
X146847145Y-79198563D01*
X146681060Y-79456393D01*
X146502576Y-79733667D01*
X146311333Y-80030940D01*
X146106973Y-80348767D01*
X145889136Y-80687703D01*
X145657463Y-81048303D01*
X145411594Y-81431121D01*
X145151170Y-81836712D01*
X144929798Y-82181556D01*
X144712259Y-82520514D01*
X144498380Y-82853881D01*
X144288676Y-83180848D01*
X144083667Y-83500606D01*
X143883868Y-83812343D01*
X143689797Y-84115252D01*
X143501972Y-84408522D01*
X143320909Y-84691344D01*
X143147127Y-84962907D01*
X142981141Y-85222404D01*
X142823470Y-85469022D01*
X142674631Y-85701955D01*
X142535141Y-85920390D01*
X142405517Y-86123520D01*
X142286276Y-86310534D01*
X142177937Y-86480622D01*
X142081015Y-86632976D01*
X141996029Y-86766785D01*
X141923495Y-86881240D01*
X141863932Y-86975531D01*
X141817855Y-87048849D01*
X141785783Y-87100383D01*
X141768233Y-87129326D01*
X141765313Y-87134556D01*
X141717257Y-87248594D01*
X141693729Y-87351072D01*
X140978063Y-87351072D01*
X140992738Y-87251607D01*
X141019779Y-87145221D01*
X141059654Y-87035510D01*
X141114574Y-86914240D01*
X141131212Y-86880556D01*
X141150865Y-86844549D01*
X141184503Y-86786785D01*
X141230885Y-86709270D01*
X141288770Y-86614011D01*
X141356919Y-86503011D01*
X141434089Y-86378279D01*
X141519041Y-86241818D01*
X141610533Y-86095636D01*
X141707324Y-85941738D01*
X141808175Y-85782130D01*
X141906291Y-85627547D01*
X142600120Y-84536816D01*
X142583816Y-84414962D01*
X142576804Y-84350646D01*
X142575579Y-84307473D01*
X142580209Y-84288514D01*
X142581006Y-84288064D01*
X142598563Y-84279679D01*
X142635021Y-84261140D01*
X142684360Y-84235534D01*
X142720529Y-84216539D01*
X142775981Y-84186729D01*
X142815404Y-84162400D01*
X142845400Y-84137284D01*
X142872569Y-84105109D01*
X142903515Y-84059607D01*
X142930619Y-84017004D01*
X143014679Y-83883952D01*
X142982943Y-83858254D01*
X142958658Y-83842641D01*
X142930979Y-83835366D01*
X142895119Y-83837021D01*
X142846291Y-83848203D01*
X142779707Y-83869506D01*
X142719219Y-83891033D01*
X142656453Y-83912790D01*
X142603409Y-83929123D01*
X142565577Y-83938483D01*
X142548449Y-83939324D01*
X142548320Y-83939209D01*
X142545290Y-83922593D01*
X142542793Y-83882552D01*
X142540836Y-83823871D01*
X142539423Y-83751337D01*
X142538560Y-83669737D01*
X142538250Y-83583857D01*
X142538499Y-83498483D01*
X142539312Y-83418403D01*
X142540695Y-83348401D01*
X142542651Y-83293265D01*
X142545186Y-83257780D01*
X142547600Y-83246793D01*
X142563827Y-83239665D01*
X142602226Y-83226334D01*
X142657853Y-83208414D01*
X142725763Y-83187522D01*
X142763454Y-83176266D01*
X142837955Y-83153544D01*
X142904800Y-83131865D01*
X142958344Y-83113157D01*
X142992939Y-83099347D01*
X143000855Y-83095223D01*
X143015756Y-83088026D01*
X143036366Y-83083952D01*
X143067151Y-83083093D01*
X143112579Y-83085539D01*
X143177117Y-83091382D01*
X143264101Y-83100589D01*
X143341453Y-83108868D01*
X143408163Y-83115651D01*
X143459556Y-83120491D01*
X143490957Y-83122941D01*
X143498563Y-83122973D01*
X143517986Y-83094355D01*
X143538451Y-83059741D01*
X143555586Y-83027251D01*
X143565024Y-83005004D01*
X143564816Y-82999870D01*
X143547921Y-82998339D01*
X143507721Y-82994172D01*
X143448953Y-82987877D01*
X143376359Y-82979960D01*
X143307341Y-82972337D01*
X143203410Y-82959810D01*
X143126592Y-82948345D01*
X143077229Y-82938001D01*
X143055661Y-82928840D01*
X143054784Y-82927407D01*
X143031396Y-82891569D01*
X142993046Y-82861246D01*
X142951851Y-82845422D01*
X142943331Y-82844778D01*
X142913262Y-82847244D01*
X142862955Y-82853925D01*
X142799891Y-82863748D01*
X142743287Y-82873505D01*
X142679803Y-82884393D01*
X142627275Y-82892374D01*
X142591437Y-82896647D01*
X142578119Y-82896601D01*
X142577319Y-82880216D01*
X142581022Y-82840731D01*
X142588517Y-82782780D01*
X142599093Y-82710999D01*
X142612040Y-82630023D01*
X142626646Y-82544488D01*
X142642202Y-82459029D01*
X142656394Y-82386167D01*
X142693472Y-82202722D01*
X142919153Y-82177101D01*
X143020708Y-82164478D01*
X143097995Y-82151824D01*
X143154935Y-82137798D01*
X143195451Y-82121060D01*
X143223467Y-82100266D01*
X143242904Y-82074077D01*
X143247764Y-82064729D01*
X143258562Y-82028180D01*
X143254488Y-81985250D01*
X143250773Y-81970285D01*
X143237848Y-81934372D01*
X143218523Y-81908164D01*
X143188653Y-81890201D01*
X143144090Y-81879022D01*
X143080689Y-81873167D01*
X142994303Y-81871176D01*
X142969145Y-81871111D01*
X142900763Y-81870815D01*
X142843882Y-81870005D01*
X142803732Y-81868799D01*
X142785542Y-81867312D01*
X142785000Y-81866996D01*
X142789634Y-81848740D01*
X142802380Y-81808921D01*
X142821503Y-81752424D01*
X142845267Y-81684135D01*
X142871940Y-81608939D01*
X142899784Y-81531722D01*
X142927066Y-81457370D01*
X142952051Y-81390768D01*
X142973004Y-81336801D01*
X142975337Y-81330976D01*
X143042244Y-81164786D01*
X143171150Y-81174681D01*
X143250064Y-81179603D01*
X143339513Y-81183473D01*
X143421812Y-81185545D01*
X143431710Y-81185649D01*
X143493769Y-81185731D01*
X143534408Y-81183700D01*
X143560423Y-81177979D01*
X143578613Y-81166986D01*
X143595773Y-81149145D01*
X143597516Y-81147130D01*
X143625766Y-81095211D01*
X143631502Y-81037178D01*
X143614601Y-80982344D01*
X143599916Y-80961576D01*
X143581046Y-80944312D01*
X143555130Y-80930633D01*
X143516352Y-80918547D01*
X143458894Y-80906060D01*
X143412944Y-80897531D01*
X143328253Y-80882892D01*
X143268240Y-80871886D01*
X143230224Y-80861218D01*
X143211525Y-80847594D01*
X143209461Y-80827721D01*
X143221351Y-80798304D01*
X143244515Y-80756050D01*
X143266029Y-80717022D01*
X143304269Y-80647752D01*
X143346979Y-80573454D01*
X143391586Y-80498269D01*
X143435515Y-80426340D01*
X143476191Y-80361810D01*
X143511040Y-80308823D01*
X143537488Y-80271521D01*
X143552961Y-80254046D01*
X143554111Y-80253415D01*
X143572519Y-80254521D01*
X143613137Y-80261441D01*
X143670796Y-80273159D01*
X143740321Y-80288654D01*
X143777287Y-80297349D01*
X143853624Y-80314945D01*
X143923429Y-80329808D01*
X143980615Y-80340732D01*
X144019096Y-80346509D01*
X144028280Y-80347111D01*
X144076526Y-80334293D01*
X144118308Y-80300984D01*
X144146277Y-80254901D01*
X144153778Y-80215295D01*
X144152704Y-80179079D01*
X144147053Y-80150936D01*
X144133175Y-80127962D01*
X144107424Y-80107251D01*
X144066152Y-80085900D01*
X144005712Y-80061003D01*
X143922456Y-80029656D01*
X143919089Y-80028408D01*
X143860246Y-80005993D01*
X143811178Y-79986156D01*
X143778045Y-79971456D01*
X143767482Y-79965460D01*
X143771526Y-79951061D01*
X143791541Y-79919303D01*
X143824552Y-79873745D01*
X143867584Y-79817946D01*
X143917661Y-79755464D01*
X143971808Y-79689858D01*
X144027049Y-79624687D01*
X144080410Y-79563509D01*
X144128914Y-79509883D01*
X144169587Y-79467366D01*
X144199454Y-79439519D01*
X144215273Y-79429889D01*
X144233318Y-79435271D01*
X144272446Y-79450150D01*
X144327926Y-79472622D01*
X144395022Y-79500786D01*
X144443364Y-79521565D01*
X144516607Y-79552600D01*
X144582482Y-79579147D01*
X144635928Y-79599270D01*
X144671885Y-79611036D01*
X144683332Y-79613287D01*
X144727067Y-79600599D01*
X144767962Y-79567384D01*
X144799721Y-79521125D01*
X144816050Y-79469305D01*
X144817000Y-79454417D01*
X144812940Y-79429312D01*
X144798589Y-79404595D01*
X144770690Y-79377415D01*
X144725988Y-79344917D01*
X144661225Y-79304247D01*
X144613030Y-79275699D01*
X144555986Y-79241306D01*
X144509597Y-79211324D01*
X144478388Y-79188827D01*
X144466882Y-79176886D01*
X144466944Y-79176488D01*
X144479670Y-79161758D01*
X144510375Y-79132528D01*
X144555175Y-79092147D01*
X144610189Y-79043964D01*
X144671533Y-78991327D01*
X144735325Y-78937586D01*
X144797682Y-78886088D01*
X144854720Y-78840184D01*
X144878103Y-78821868D01*
X145002707Y-78725349D01*
X145194742Y-78853875D01*
X145283554Y-78911923D01*
X145353547Y-78953618D01*
X145408235Y-78979859D01*
X145451136Y-78991543D01*
X145485767Y-78989569D01*
X145515642Y-78974834D01*
X145544279Y-78948237D01*
X145547981Y-78944084D01*
X145583886Y-78888374D01*
X145592134Y-78834946D01*
X145580159Y-78797055D01*
X145564686Y-78779003D01*
X145532018Y-78747557D01*
X145486888Y-78707089D01*
X145434033Y-78661969D01*
X145432149Y-78660399D01*
X145380631Y-78616428D01*
X145338180Y-78578144D01*
X145308978Y-78549470D01*
X145297207Y-78534327D01*
X145297144Y-78533833D01*
X145308937Y-78521306D01*
X145341511Y-78497907D01*
X145390729Y-78466016D01*
X145452455Y-78428013D01*
X145522552Y-78386279D01*
X145596884Y-78343194D01*
X145671313Y-78301138D01*
X145741704Y-78262491D01*
X145803920Y-78229634D01*
X145853824Y-78204946D01*
X145887281Y-78190809D01*
X145897493Y-78188382D01*
X145912321Y-78197522D01*
X145943804Y-78222997D01*
X145988233Y-78261604D01*
X146041894Y-78310140D01*
X146085050Y-78350267D01*
X146144934Y-78405126D01*
X146200296Y-78453176D01*
X146246878Y-78490921D01*
X146280421Y-78514867D01*
X146293685Y-78521504D01*
X146341940Y-78520931D01*
X146389499Y-78499891D01*
X146429949Y-78464390D01*
X146456878Y-78420434D01*
X146463873Y-78374026D01*
X146462039Y-78363838D01*
X146450207Y-78340978D01*
X146423719Y-78301848D01*
X146386290Y-78251605D01*
X146341636Y-78195403D01*
X146333441Y-78185441D01*
X146213100Y-78039944D01*
X146295051Y-78002517D01*
X146338889Y-77984029D01*
X146398855Y-77960872D01*
X146470269Y-77934633D01*
X146548451Y-77906898D01*
X146628720Y-77879253D01*
X146706396Y-77853285D01*
X146776801Y-77830579D01*
X146835253Y-77812722D01*
X146877072Y-77801300D01*
X146897579Y-77797898D01*
X146898296Y-77798067D01*
X146909320Y-77788042D01*
X146933483Y-77756842D01*
X146968912Y-77707188D01*
X147013731Y-77641804D01*
X147066066Y-77563411D01*
X147124042Y-77474730D01*
X147167175Y-77407681D01*
X147232595Y-77306095D01*
X147297706Y-77206405D01*
X147359813Y-77112634D01*
X147416219Y-77028809D01*
X147464228Y-76958954D01*
X147501144Y-76907095D01*
X147513725Y-76890304D01*
X147645142Y-76737723D01*
X147787115Y-76606609D01*
X147937073Y-76498986D01*
X148092442Y-76416878D01*
X148139679Y-76397541D01*
X148197690Y-76376343D01*
X148246051Y-76361953D01*
X148293695Y-76352759D01*
X148349557Y-76347152D01*
X148422571Y-76343521D01*
X148443555Y-76342768D01*
X148555686Y-76341949D01*
X148649703Y-76349203D01*
G37*
X148649703Y-76349203D02*
X148734986Y-76366239D01*
X148820919Y-76394766D01*
X148890146Y-76424144D01*
X149020963Y-76495475D01*
X149153563Y-76590497D01*
X149283354Y-76705407D01*
X149405745Y-76836404D01*
X149444156Y-76883050D01*
X149467149Y-76914234D01*
X149503504Y-76966551D01*
X149551444Y-77037317D01*
X149609189Y-77123847D01*
X149674961Y-77223459D01*
X149746982Y-77333468D01*
X149823473Y-77451190D01*
X149902657Y-77573940D01*
X149925222Y-77609086D01*
X150327389Y-78236128D01*
X150335181Y-77806758D01*
X150373618Y-77815992D01*
X150412872Y-77827278D01*
X150472578Y-77846738D01*
X150546897Y-77872289D01*
X150629991Y-77901848D01*
X150716018Y-77933333D01*
X150799140Y-77964662D01*
X150873516Y-77993751D01*
X150884778Y-77998286D01*
X151032944Y-78058256D01*
X151032319Y-78161989D01*
X151031440Y-78223407D01*
X151029616Y-78300264D01*
X151027170Y-78379806D01*
X151025921Y-78413889D01*
X151024447Y-78493859D01*
X151028289Y-78550952D01*
X151038961Y-78590255D01*
X151057978Y-78616856D01*
X151086854Y-78635841D01*
X151092820Y-78638662D01*
X151131043Y-78649495D01*
X151173465Y-78653778D01*
X151210989Y-78648623D01*
X151241127Y-78630970D01*
X151265747Y-78597530D01*
X151286720Y-78545019D01*
X151305916Y-78470149D01*
X151320694Y-78395022D01*
X151333396Y-78328183D01*
X151345055Y-78272720D01*
X151354495Y-78233830D01*
X151360541Y-78216706D01*
X151361130Y-78216333D01*
X151378028Y-78223201D01*
X151414781Y-78242161D01*
X151467064Y-78270750D01*
X151530552Y-78306505D01*
X151600921Y-78346961D01*
X151673846Y-78389657D01*
X151745004Y-78432127D01*
X151810069Y-78471909D01*
X151813317Y-78473928D01*
X151871701Y-78511609D01*
X151919614Y-78545135D01*
X151952794Y-78571322D01*
X151966976Y-78586986D01*
X151967100Y-78588771D01*
X151961938Y-78607223D01*
X151951371Y-78648072D01*
X151936672Y-78706295D01*
X151919115Y-78776870D01*
X151907360Y-78824589D01*
X151887091Y-78908500D01*
X151873344Y-78969922D01*
X151865481Y-79013660D01*
X151862858Y-79044523D01*
X151864836Y-79067317D01*
X151870772Y-79086849D01*
X151871982Y-79089837D01*
X151903319Y-79134530D01*
X151949136Y-79163712D01*
X152001487Y-79175392D01*
X152052427Y-79167580D01*
X152088670Y-79144139D01*
X152105657Y-79118785D01*
X152128747Y-79073178D01*
X152154915Y-79013770D01*
X152181136Y-78947012D01*
X152181294Y-78946583D01*
X152205243Y-78883709D01*
X152226407Y-78831781D01*
X152242630Y-78795838D01*
X152251758Y-78780919D01*
X152252212Y-78780778D01*
X152268332Y-78789562D01*
X152301667Y-78813734D01*
X152348256Y-78850025D01*
X152404139Y-78895163D01*
X152465357Y-78945880D01*
X152527949Y-78998906D01*
X152587954Y-79050969D01*
X152641414Y-79098802D01*
X152673352Y-79128522D01*
X152789760Y-79239389D01*
X152698501Y-79444000D01*
X152657076Y-79540000D01*
X152628515Y-79614944D01*
X152612186Y-79672560D01*
X152607459Y-79716579D01*
X152613702Y-79750729D01*
X152630284Y-79778742D01*
X152640034Y-79789428D01*
X152683296Y-79818491D01*
X152735162Y-79833726D01*
X152784097Y-79832543D01*
X152802280Y-79825861D01*
X152820270Y-79808130D01*
X152848398Y-79770917D01*
X152883046Y-79719385D01*
X152920597Y-79658696D01*
X152926879Y-79648061D01*
X152962927Y-79588698D01*
X152994936Y-79539848D01*
X153019872Y-79505869D01*
X153034698Y-79491117D01*
X153036363Y-79490903D01*
X153051306Y-79503406D01*
X153080733Y-79533968D01*
X153121331Y-79578747D01*
X153169787Y-79633900D01*
X153222786Y-79695583D01*
X153277016Y-79759955D01*
X153329162Y-79823172D01*
X153375911Y-79881391D01*
X153401857Y-79914763D01*
X153484769Y-80023284D01*
X153356337Y-80216948D01*
X153299917Y-80303873D01*
X153259181Y-80371849D01*
X153232766Y-80424424D01*
X153219314Y-80465145D01*
X153217465Y-80497558D01*
X153225858Y-80525210D01*
X153233237Y-80538004D01*
X153269764Y-80575399D01*
X153318065Y-80601825D01*
X153367140Y-80612144D01*
X153387319Y-80609975D01*
X153412724Y-80594777D01*
X153451882Y-80559950D01*
X153501659Y-80508478D01*
X153544804Y-80459905D01*
X153590800Y-80407550D01*
X153630818Y-80363998D01*
X153661047Y-80333250D01*
X153677678Y-80319308D01*
X153679029Y-80318889D01*
X153690631Y-80330544D01*
X153713389Y-80362729D01*
X153744802Y-80411277D01*
X153782372Y-80472018D01*
X153823599Y-80540785D01*
X153865985Y-80613410D01*
X153907028Y-80685723D01*
X153944231Y-80753556D01*
X153974795Y-80812149D01*
X154033059Y-80928031D01*
X153875947Y-81090213D01*
X153804915Y-81165102D01*
X153752807Y-81224349D01*
X153717581Y-81271208D01*
X153697195Y-81308930D01*
X153689609Y-81340768D01*
X153692780Y-81369974D01*
X153695285Y-81378031D01*
X153725252Y-81430022D01*
X153769815Y-81466579D01*
X153821269Y-81481562D01*
X153825287Y-81481644D01*
X153849094Y-81478382D01*
X153876633Y-81466763D01*
X153912269Y-81444041D01*
X153960364Y-81407466D01*
X154018486Y-81359951D01*
X154072785Y-81315785D01*
X154119484Y-81279716D01*
X154154331Y-81254888D01*
X154173071Y-81244445D01*
X154174769Y-81244466D01*
X154184474Y-81260465D01*
X154201527Y-81298655D01*
X154224268Y-81354481D01*
X154251036Y-81423389D01*
X154280170Y-81500824D01*
X154310009Y-81582231D01*
X154338894Y-81663055D01*
X154365162Y-81738742D01*
X154387155Y-81804737D01*
X154403210Y-81856485D01*
X154411668Y-81889432D01*
X154412555Y-81896650D01*
X154401815Y-81908289D01*
X154372175Y-81933484D01*
X154327505Y-81969117D01*
X154271675Y-82012071D01*
X154235946Y-82038929D01*
X154172570Y-82087112D01*
X154115452Y-82132259D01*
X154069344Y-82170486D01*
X154038997Y-82197910D01*
X154031335Y-82206208D01*
X154006397Y-82256850D01*
X154009595Y-82309550D01*
X154040920Y-82364234D01*
X154047128Y-82371564D01*
X154075547Y-82399671D01*
X154104082Y-82415627D01*
X154137109Y-82418773D01*
X154179006Y-82408452D01*
X154234152Y-82384006D01*
X154306922Y-82344776D01*
X154336173Y-82328116D01*
X154396407Y-82294079D01*
X154447249Y-82266390D01*
X154484065Y-82247493D01*
X154502223Y-82239834D01*
X154503275Y-82239922D01*
X154508870Y-82256988D01*
X154517800Y-82296860D01*
X154529290Y-82354934D01*
X154542569Y-82426608D01*
X154556863Y-82507280D01*
X154571398Y-82592347D01*
X154585402Y-82677207D01*
X154598101Y-82757257D01*
X154608722Y-82827896D01*
X154616492Y-82884520D01*
X154620638Y-82922527D01*
X154620429Y-82937284D01*
X154607394Y-82944179D01*
X154573355Y-82961629D01*
X154522514Y-82987494D01*
X154459074Y-83019635D01*
X154405500Y-83046701D01*
X154320391Y-83090561D01*
X154257618Y-83125277D01*
X154213683Y-83153064D01*
X154185087Y-83176140D01*
X154168331Y-83196720D01*
X154168105Y-83197100D01*
X154150142Y-83252204D01*
X154159958Y-83307876D01*
X154194036Y-83358718D01*
X154217906Y-83381020D01*
X154243026Y-83394187D01*
X154274047Y-83397874D01*
X154315619Y-83391738D01*
X154372392Y-83375435D01*
X154449016Y-83348621D01*
X154478781Y-83337656D01*
X154539587Y-83315483D01*
X154590795Y-83297531D01*
X154626556Y-83285803D01*
X154640569Y-83282222D01*
X154643828Y-83295715D01*
X154646459Y-83333729D01*
X154648373Y-83392569D01*
X154649481Y-83468540D01*
X154649691Y-83557946D01*
X154649159Y-83636264D01*
X154645389Y-83990306D01*
X154422132Y-84057581D01*
X154345875Y-84081376D01*
X154278319Y-84103990D01*
X154224487Y-84123620D01*
X154189406Y-84138465D01*
X154178915Y-84144815D01*
X154171295Y-84157373D01*
X154172980Y-84175269D01*
X154185966Y-84203663D01*
X154212249Y-84247713D01*
X154228827Y-84273832D01*
X154260590Y-84321625D01*
X154287417Y-84358716D01*
X154305353Y-84379789D01*
X154309766Y-84382657D01*
X154327495Y-84380179D01*
X154366622Y-84373674D01*
X154420792Y-84364220D01*
X154465472Y-84356206D01*
X154610111Y-84329987D01*
X154610111Y-84372479D01*
X154607820Y-84402648D01*
X154601579Y-84453550D01*
X154592336Y-84518122D01*
X154581039Y-84589303D01*
X154580825Y-84590591D01*
X154570242Y-84659072D01*
X154562630Y-84718419D01*
X154558656Y-84762580D01*
X154558990Y-84785502D01*
X154559221Y-84786233D01*
X154567820Y-84800991D01*
X154590430Y-84837743D01*
X154625908Y-84894675D01*
X154673110Y-84969971D01*
X154730894Y-85061818D01*
X154798114Y-85168401D01*
X154873629Y-85287906D01*
X154956293Y-85418520D01*
X155044965Y-85558426D01*
X155138499Y-85705812D01*
X155183323Y-85776377D01*
X155307676Y-85972378D01*
X155417657Y-86146466D01*
X155514268Y-86300396D01*
X155598511Y-86435922D01*
X155671387Y-86554801D01*
X155733897Y-86658786D01*
X155787044Y-86749633D01*
X155831828Y-86829096D01*
X155869252Y-86898930D01*
X155900318Y-86960891D01*
X155926025Y-87016732D01*
X155947377Y-87068210D01*
X155965375Y-87117078D01*
X155981020Y-87165091D01*
X155986695Y-87183944D01*
X156011903Y-87293047D01*
X156027855Y-87413004D01*
X156034086Y-87534636D01*
X156030127Y-87648768D01*
X156015512Y-87746221D01*
X156015336Y-87746971D01*
X155966435Y-87896649D01*
X155893862Y-88031095D01*
X155797819Y-88150126D01*
X155678508Y-88253560D01*
X155536133Y-88341214D01*
X155370896Y-88412904D01*
X155228425Y-88457056D01*
X155082833Y-88495472D01*
X153384111Y-88502931D01*
X151685388Y-88510389D01*
X151794375Y-88601640D01*
X151903363Y-88692891D01*
X151870399Y-88719584D01*
X151837959Y-88742602D01*
X151786077Y-88775687D01*
X151720223Y-88815642D01*
X151645867Y-88859269D01*
X151568480Y-88903374D01*
X151493530Y-88944759D01*
X151426489Y-88980229D01*
X151410111Y-88988548D01*
X151285517Y-89051123D01*
X151114911Y-88890354D01*
X151055149Y-88835280D01*
X150999780Y-88786535D01*
X150953145Y-88747770D01*
X150919585Y-88722637D01*
X150906811Y-88715329D01*
X150859614Y-88710892D01*
X150808631Y-88726618D01*
X150764613Y-88758482D01*
X150752566Y-88773094D01*
X150734151Y-88806132D01*
X150728275Y-88838996D01*
X150736461Y-88875860D01*
X150760231Y-88920896D01*
X150801109Y-88978279D01*
X150849500Y-89038733D01*
X150893709Y-89093075D01*
X150930573Y-89139622D01*
X150956768Y-89174082D01*
X150968967Y-89192163D01*
X150969444Y-89193559D01*
X150956802Y-89202643D01*
X150921787Y-89218898D01*
X150868765Y-89240766D01*
X150802101Y-89266686D01*
X150726160Y-89295099D01*
X150645309Y-89324447D01*
X150563913Y-89353170D01*
X150486338Y-89379709D01*
X150416949Y-89402504D01*
X150360113Y-89419997D01*
X150320195Y-89430628D01*
X150301560Y-89432838D01*
X150300867Y-89432343D01*
X150276627Y-89397079D01*
X150241708Y-89349146D01*
X150199631Y-89293067D01*
X150153914Y-89233365D01*
X150108077Y-89174563D01*
X150065642Y-89121184D01*
X150030126Y-89077750D01*
X150005051Y-89048786D01*
X149994797Y-89039031D01*
X149962467Y-89029191D01*
X149924739Y-89025444D01*
X149884371Y-89036333D01*
X149842285Y-89063943D01*
X149806810Y-89100693D01*
X149786277Y-89139001D01*
X149784111Y-89153455D01*
X149790980Y-89177424D01*
X149809738Y-89219757D01*
X149837610Y-89274706D01*
X149871819Y-89336520D01*
X149875833Y-89343463D01*
X149910253Y-89403740D01*
X149938783Y-89455613D01*
X149958728Y-89494041D01*
X149967395Y-89513982D01*
X149967555Y-89515068D01*
X149954052Y-89523614D01*
X149915502Y-89535234D01*
X149854847Y-89549368D01*
X149775027Y-89565454D01*
X149678983Y-89582932D01*
X149569657Y-89601241D01*
X149449987Y-89619819D01*
X149322917Y-89638105D01*
X149321643Y-89638281D01*
X149275452Y-89644666D01*
X149170649Y-89435408D01*
X149121247Y-89340079D01*
X149079938Y-89268476D01*
X149044696Y-89217979D01*
X149013497Y-89185969D01*
X148984315Y-89169827D01*
X148962836Y-89166556D01*
X148916520Y-89176814D01*
X148870723Y-89203194D01*
X148833412Y-89239106D01*
X148812555Y-89277960D01*
X148810601Y-89292487D01*
X148815440Y-89320049D01*
X148828441Y-89366969D01*
X148847529Y-89426306D01*
X148867046Y-89481467D01*
X148889451Y-89543904D01*
X148907626Y-89597752D01*
X148919568Y-89636864D01*
X148923333Y-89654329D01*
X148919549Y-89660703D01*
X148906171Y-89665623D01*
X148880161Y-89669265D01*
X148838481Y-89671803D01*
X148778092Y-89673413D01*
X148695958Y-89674271D01*
X148589040Y-89674552D01*
X148573057Y-89674556D01*
X148222781Y-89674556D01*
X148161799Y-89466417D01*
X148138869Y-89390512D01*
X148116671Y-89321241D01*
X148097208Y-89264562D01*
X148082484Y-89226435D01*
X148077966Y-89216970D01*
X148070895Y-89202203D01*
X148066140Y-89184993D01*
X148063835Y-89161581D01*
X148064113Y-89128209D01*
X148067108Y-89081120D01*
X148072952Y-89016557D01*
X148081779Y-88930760D01*
X148091216Y-88843026D01*
X148127316Y-88510389D01*
X148065197Y-88506026D01*
X148026709Y-88504281D01*
X148002377Y-88504988D01*
X147998728Y-88506026D01*
X147996003Y-88520694D01*
X147990767Y-88559385D01*
X147983513Y-88618064D01*
X147974732Y-88692691D01*
X147964916Y-88779230D01*
X147959801Y-88825453D01*
X147925225Y-89140518D01*
X147873946Y-89182786D01*
X147850596Y-89203431D01*
X147834861Y-89223658D01*
X147826342Y-89248384D01*
X147824645Y-89282525D01*
X147829370Y-89330998D01*
X147840123Y-89398720D01*
X147851394Y-89462268D01*
X147862157Y-89525938D01*
X147869779Y-89578855D01*
X147873514Y-89615214D01*
X147872866Y-89629059D01*
X147855535Y-89630737D01*
X147815286Y-89627729D01*
X147756888Y-89620819D01*
X147685110Y-89610791D01*
X147604721Y-89598431D01*
X147520490Y-89584522D01*
X147437187Y-89569849D01*
X147359579Y-89555198D01*
X147292436Y-89541351D01*
X147240527Y-89529094D01*
X147211109Y-89520198D01*
X147199083Y-89513745D01*
X147189709Y-89501950D01*
X147181959Y-89480540D01*
X147174807Y-89445244D01*
X147167226Y-89391790D01*
X147158188Y-89315905D01*
X147154790Y-89285918D01*
X147142138Y-89183721D01*
X147129512Y-89106060D01*
X147115832Y-89049272D01*
X147100018Y-89009691D01*
X147080989Y-88983654D01*
X147061448Y-88969418D01*
X147007489Y-88954954D01*
X146948786Y-88961319D01*
X146897887Y-88987036D01*
X146895648Y-88988911D01*
X146880022Y-89003109D01*
X146869052Y-89017691D01*
X146861770Y-89037742D01*
X146857213Y-89068351D01*
X146854413Y-89114605D01*
X146852406Y-89181593D01*
X146851461Y-89221744D01*
X146849140Y-89292984D01*
X146845902Y-89352921D01*
X146842119Y-89396521D01*
X146838163Y-89418753D01*
X146836762Y-89420556D01*
X146813602Y-89415651D01*
X146768912Y-89402078D01*
X146707313Y-89381547D01*
X146633428Y-89355767D01*
X146551878Y-89326449D01*
X146467287Y-89295303D01*
X146384276Y-89264039D01*
X146307468Y-89234367D01*
X146241484Y-89207998D01*
X146190947Y-89186642D01*
X146160479Y-89172008D01*
X146154680Y-89168192D01*
X146152247Y-89151829D01*
X146151901Y-89112248D01*
X146153527Y-89054365D01*
X146157009Y-88983099D01*
X146160275Y-88930999D01*
X146166232Y-88830233D01*
X146168111Y-88753488D01*
X146165192Y-88696766D01*
X146156757Y-88656065D01*
X146142089Y-88627387D01*
X146120469Y-88606732D01*
X146099824Y-88594390D01*
X146043557Y-88575682D01*
X145989419Y-88582242D01*
X145960474Y-88594810D01*
X145939153Y-88608819D01*
X145922222Y-88628944D01*
X145908045Y-88659656D01*
X145894988Y-88705428D01*
X145881418Y-88770732D01*
X145867558Y-88849056D01*
X145856397Y-88909671D01*
X145845531Y-88959891D01*
X145836474Y-88993140D01*
X145832224Y-89002590D01*
X145815402Y-89001089D01*
X145777466Y-88985758D01*
X145721057Y-88958007D01*
X145648814Y-88919247D01*
X145563377Y-88870888D01*
X145467386Y-88814340D01*
X145377288Y-88759545D01*
X145314584Y-88721134D01*
X145272021Y-88693458D01*
X145246467Y-88671291D01*
X145234791Y-88649405D01*
X145233861Y-88622571D01*
X145240543Y-88585563D01*
X145249153Y-88545667D01*
X145257972Y-88503333D01*
X143642334Y-88503333D01*
X143386250Y-88503327D01*
X143156708Y-88503266D01*
X142952027Y-88503088D01*
X142770527Y-88502734D01*
X142610528Y-88502140D01*
X142470350Y-88501244D01*
X142348311Y-88499987D01*
X142242732Y-88498305D01*
X142151933Y-88496137D01*
X142074233Y-88493421D01*
X142007951Y-88490096D01*
X141951408Y-88486101D01*
X141902923Y-88481372D01*
X141860815Y-88475850D01*
X141823404Y-88469472D01*
X141789011Y-88462176D01*
X141755954Y-88453902D01*
X141722553Y-88444586D01*
X141687128Y-88434168D01*
X141677278Y-88431242D01*
X141518798Y-88371629D01*
X141375782Y-88292484D01*
X141250357Y-88195843D01*
X141144653Y-88083742D01*
X141060799Y-87958220D01*
X141000924Y-87821312D01*
X140985629Y-87769556D01*
X140975045Y-87720340D01*
X140968758Y-87667256D01*
X140966326Y-87603046D01*
X140967301Y-87520450D01*
X140968315Y-87487333D01*
X140976319Y-87362899D01*
X140978063Y-87351072D01*
X141693729Y-87351072D01*
X141694377Y-87443755D01*
X141698821Y-87468092D01*
X141734315Y-87567887D01*
X141792197Y-87650743D01*
X141872025Y-87716310D01*
X141973357Y-87764237D01*
X142095748Y-87794174D01*
X142114722Y-87796935D01*
X142136538Y-87797974D01*
X142185468Y-87798972D01*
X142260413Y-87799928D01*
X142360270Y-87800842D01*
X142483940Y-87801714D01*
X142630320Y-87802545D01*
X142798310Y-87803333D01*
X142986809Y-87804081D01*
X143194716Y-87804786D01*
X143420930Y-87805450D01*
X143664349Y-87806072D01*
X143923874Y-87806653D01*
X144198403Y-87807192D01*
X144486835Y-87807690D01*
X144788069Y-87808146D01*
X145101003Y-87808560D01*
X145424538Y-87808933D01*
X145757572Y-87809264D01*
X146099004Y-87809554D01*
X146447733Y-87809802D01*
X146802658Y-87810009D01*
X147162679Y-87810175D01*
X147526693Y-87810299D01*
X147893600Y-87810382D01*
X148262300Y-87810423D01*
X148631691Y-87810423D01*
X149000672Y-87810381D01*
X149368142Y-87810298D01*
X149733000Y-87810174D01*
X150094145Y-87810008D01*
X150450477Y-87809802D01*
X150800894Y-87809554D01*
X151144295Y-87809264D01*
X151479579Y-87808934D01*
X151805646Y-87808562D01*
X152121394Y-87808149D01*
X152425722Y-87807694D01*
X152717530Y-87807199D01*
X152995715Y-87806662D01*
X153259179Y-87806085D01*
X153506818Y-87805466D01*
X153737533Y-87804806D01*
X153950222Y-87804105D01*
X154143785Y-87803362D01*
X154317119Y-87802579D01*
X154469126Y-87801755D01*
X154598703Y-87800890D01*
X154704749Y-87799983D01*
X154786163Y-87799036D01*
X154841845Y-87798048D01*
X154870694Y-87797018D01*
X154873673Y-87796743D01*
X154941101Y-87783971D01*
X155010682Y-87765212D01*
X155065907Y-87745107D01*
X155137508Y-87703099D01*
X155202480Y-87646583D01*
X155253902Y-87582710D01*
X155284780Y-87518883D01*
X155300140Y-87421752D01*
X155292681Y-87315002D01*
X155263441Y-87204095D01*
X155213455Y-87094492D01*
X155199752Y-87071056D01*
X155189184Y-87054343D01*
X155163886Y-87014683D01*
X155124373Y-86952879D01*
X155071159Y-86869732D01*
X155004760Y-86766048D01*
X154925690Y-86642627D01*
X154834464Y-86500274D01*
X154731598Y-86339790D01*
X154617606Y-86161980D01*
X154493003Y-85967645D01*
X154358305Y-85757590D01*
X154214025Y-85532616D01*
X154060680Y-85293526D01*
X153898783Y-85041124D01*
X153728850Y-84776213D01*
X153551396Y-84499594D01*
X153366935Y-84212072D01*
X153175983Y-83914449D01*
X152979055Y-83607529D01*
X152776665Y-83292113D01*
X152569328Y-82969005D01*
X152357560Y-82639008D01*
X152141875Y-82302924D01*
X152050642Y-82160768D01*
X151777356Y-81734997D01*
X151518922Y-81332466D01*
X151274993Y-80952638D01*
X151045219Y-80594974D01*
X150829252Y-80258936D01*
X150626745Y-79943986D01*
X150437347Y-79649586D01*
X150260711Y-79375197D01*
X150096489Y-79120281D01*
X149944332Y-78884300D01*
X149803891Y-78666716D01*
X149674818Y-78466991D01*
X149556765Y-78284587D01*
X149449383Y-78118965D01*
X149352324Y-77969587D01*
X149265239Y-77835915D01*
X149187781Y-77717411D01*
X149119599Y-77613537D01*
X149060347Y-77523754D01*
X149009675Y-77447525D01*
X148967236Y-77384310D01*
X148932680Y-77333573D01*
X148905659Y-77294775D01*
X148885826Y-77267377D01*
X148872830Y-77250841D01*
X148869133Y-77246813D01*
X148815133Y-77200622D01*
X148751072Y-77155640D01*
X148700805Y-77126851D01*
X148594054Y-77088991D01*
X148485496Y-77078593D01*
X148377323Y-77095178D01*
X148271726Y-77138272D01*
X148170894Y-77207397D01*
X148121685Y-77252849D01*
X148111412Y-77265009D01*
X148094849Y-77287181D01*
X148071635Y-77319920D01*
X148041412Y-77363783D01*
X148003819Y-77419322D01*
X147958498Y-77487093D01*
X147905090Y-77567651D01*
X147843235Y-77661551D01*
X147772573Y-77769347D01*
X147692746Y-77891595D01*
X147603395Y-78028848D01*
X147504159Y-78181662D01*
X147394680Y-78350592D01*
X147274599Y-78536192D01*
X147143555Y-78739018D01*
X147001190Y-78959623D01*
X146847145Y-79198563D01*
X146681060Y-79456393D01*
X146502576Y-79733667D01*
X146311333Y-80030940D01*
X146106973Y-80348767D01*
X145889136Y-80687703D01*
X145657463Y-81048303D01*
X145411594Y-81431121D01*
X145151170Y-81836712D01*
X144929798Y-82181556D01*
X144712259Y-82520514D01*
X144498380Y-82853881D01*
X144288676Y-83180848D01*
X144083667Y-83500606D01*
X143883868Y-83812343D01*
X143689797Y-84115252D01*
X143501972Y-84408522D01*
X143320909Y-84691344D01*
X143147127Y-84962907D01*
X142981141Y-85222404D01*
X142823470Y-85469022D01*
X142674631Y-85701955D01*
X142535141Y-85920390D01*
X142405517Y-86123520D01*
X142286276Y-86310534D01*
X142177937Y-86480622D01*
X142081015Y-86632976D01*
X141996029Y-86766785D01*
X141923495Y-86881240D01*
X141863932Y-86975531D01*
X141817855Y-87048849D01*
X141785783Y-87100383D01*
X141768233Y-87129326D01*
X141765313Y-87134556D01*
X141717257Y-87248594D01*
X141693729Y-87351072D01*
X140978063Y-87351072D01*
X140992738Y-87251607D01*
X141019779Y-87145221D01*
X141059654Y-87035510D01*
X141114574Y-86914240D01*
X141131212Y-86880556D01*
X141150865Y-86844549D01*
X141184503Y-86786785D01*
X141230885Y-86709270D01*
X141288770Y-86614011D01*
X141356919Y-86503011D01*
X141434089Y-86378279D01*
X141519041Y-86241818D01*
X141610533Y-86095636D01*
X141707324Y-85941738D01*
X141808175Y-85782130D01*
X141906291Y-85627547D01*
X142600120Y-84536816D01*
X142583816Y-84414962D01*
X142576804Y-84350646D01*
X142575579Y-84307473D01*
X142580209Y-84288514D01*
X142581006Y-84288064D01*
X142598563Y-84279679D01*
X142635021Y-84261140D01*
X142684360Y-84235534D01*
X142720529Y-84216539D01*
X142775981Y-84186729D01*
X142815404Y-84162400D01*
X142845400Y-84137284D01*
X142872569Y-84105109D01*
X142903515Y-84059607D01*
X142930619Y-84017004D01*
X143014679Y-83883952D01*
X142982943Y-83858254D01*
X142958658Y-83842641D01*
X142930979Y-83835366D01*
X142895119Y-83837021D01*
X142846291Y-83848203D01*
X142779707Y-83869506D01*
X142719219Y-83891033D01*
X142656453Y-83912790D01*
X142603409Y-83929123D01*
X142565577Y-83938483D01*
X142548449Y-83939324D01*
X142548320Y-83939209D01*
X142545290Y-83922593D01*
X142542793Y-83882552D01*
X142540836Y-83823871D01*
X142539423Y-83751337D01*
X142538560Y-83669737D01*
X142538250Y-83583857D01*
X142538499Y-83498483D01*
X142539312Y-83418403D01*
X142540695Y-83348401D01*
X142542651Y-83293265D01*
X142545186Y-83257780D01*
X142547600Y-83246793D01*
X142563827Y-83239665D01*
X142602226Y-83226334D01*
X142657853Y-83208414D01*
X142725763Y-83187522D01*
X142763454Y-83176266D01*
X142837955Y-83153544D01*
X142904800Y-83131865D01*
X142958344Y-83113157D01*
X142992939Y-83099347D01*
X143000855Y-83095223D01*
X143015756Y-83088026D01*
X143036366Y-83083952D01*
X143067151Y-83083093D01*
X143112579Y-83085539D01*
X143177117Y-83091382D01*
X143264101Y-83100589D01*
X143341453Y-83108868D01*
X143408163Y-83115651D01*
X143459556Y-83120491D01*
X143490957Y-83122941D01*
X143498563Y-83122973D01*
X143517986Y-83094355D01*
X143538451Y-83059741D01*
X143555586Y-83027251D01*
X143565024Y-83005004D01*
X143564816Y-82999870D01*
X143547921Y-82998339D01*
X143507721Y-82994172D01*
X143448953Y-82987877D01*
X143376359Y-82979960D01*
X143307341Y-82972337D01*
X143203410Y-82959810D01*
X143126592Y-82948345D01*
X143077229Y-82938001D01*
X143055661Y-82928840D01*
X143054784Y-82927407D01*
X143031396Y-82891569D01*
X142993046Y-82861246D01*
X142951851Y-82845422D01*
X142943331Y-82844778D01*
X142913262Y-82847244D01*
X142862955Y-82853925D01*
X142799891Y-82863748D01*
X142743287Y-82873505D01*
X142679803Y-82884393D01*
X142627275Y-82892374D01*
X142591437Y-82896647D01*
X142578119Y-82896601D01*
X142577319Y-82880216D01*
X142581022Y-82840731D01*
X142588517Y-82782780D01*
X142599093Y-82710999D01*
X142612040Y-82630023D01*
X142626646Y-82544488D01*
X142642202Y-82459029D01*
X142656394Y-82386167D01*
X142693472Y-82202722D01*
X142919153Y-82177101D01*
X143020708Y-82164478D01*
X143097995Y-82151824D01*
X143154935Y-82137798D01*
X143195451Y-82121060D01*
X143223467Y-82100266D01*
X143242904Y-82074077D01*
X143247764Y-82064729D01*
X143258562Y-82028180D01*
X143254488Y-81985250D01*
X143250773Y-81970285D01*
X143237848Y-81934372D01*
X143218523Y-81908164D01*
X143188653Y-81890201D01*
X143144090Y-81879022D01*
X143080689Y-81873167D01*
X142994303Y-81871176D01*
X142969145Y-81871111D01*
X142900763Y-81870815D01*
X142843882Y-81870005D01*
X142803732Y-81868799D01*
X142785542Y-81867312D01*
X142785000Y-81866996D01*
X142789634Y-81848740D01*
X142802380Y-81808921D01*
X142821503Y-81752424D01*
X142845267Y-81684135D01*
X142871940Y-81608939D01*
X142899784Y-81531722D01*
X142927066Y-81457370D01*
X142952051Y-81390768D01*
X142973004Y-81336801D01*
X142975337Y-81330976D01*
X143042244Y-81164786D01*
X143171150Y-81174681D01*
X143250064Y-81179603D01*
X143339513Y-81183473D01*
X143421812Y-81185545D01*
X143431710Y-81185649D01*
X143493769Y-81185731D01*
X143534408Y-81183700D01*
X143560423Y-81177979D01*
X143578613Y-81166986D01*
X143595773Y-81149145D01*
X143597516Y-81147130D01*
X143625766Y-81095211D01*
X143631502Y-81037178D01*
X143614601Y-80982344D01*
X143599916Y-80961576D01*
X143581046Y-80944312D01*
X143555130Y-80930633D01*
X143516352Y-80918547D01*
X143458894Y-80906060D01*
X143412944Y-80897531D01*
X143328253Y-80882892D01*
X143268240Y-80871886D01*
X143230224Y-80861218D01*
X143211525Y-80847594D01*
X143209461Y-80827721D01*
X143221351Y-80798304D01*
X143244515Y-80756050D01*
X143266029Y-80717022D01*
X143304269Y-80647752D01*
X143346979Y-80573454D01*
X143391586Y-80498269D01*
X143435515Y-80426340D01*
X143476191Y-80361810D01*
X143511040Y-80308823D01*
X143537488Y-80271521D01*
X143552961Y-80254046D01*
X143554111Y-80253415D01*
X143572519Y-80254521D01*
X143613137Y-80261441D01*
X143670796Y-80273159D01*
X143740321Y-80288654D01*
X143777287Y-80297349D01*
X143853624Y-80314945D01*
X143923429Y-80329808D01*
X143980615Y-80340732D01*
X144019096Y-80346509D01*
X144028280Y-80347111D01*
X144076526Y-80334293D01*
X144118308Y-80300984D01*
X144146277Y-80254901D01*
X144153778Y-80215295D01*
X144152704Y-80179079D01*
X144147053Y-80150936D01*
X144133175Y-80127962D01*
X144107424Y-80107251D01*
X144066152Y-80085900D01*
X144005712Y-80061003D01*
X143922456Y-80029656D01*
X143919089Y-80028408D01*
X143860246Y-80005993D01*
X143811178Y-79986156D01*
X143778045Y-79971456D01*
X143767482Y-79965460D01*
X143771526Y-79951061D01*
X143791541Y-79919303D01*
X143824552Y-79873745D01*
X143867584Y-79817946D01*
X143917661Y-79755464D01*
X143971808Y-79689858D01*
X144027049Y-79624687D01*
X144080410Y-79563509D01*
X144128914Y-79509883D01*
X144169587Y-79467366D01*
X144199454Y-79439519D01*
X144215273Y-79429889D01*
X144233318Y-79435271D01*
X144272446Y-79450150D01*
X144327926Y-79472622D01*
X144395022Y-79500786D01*
X144443364Y-79521565D01*
X144516607Y-79552600D01*
X144582482Y-79579147D01*
X144635928Y-79599270D01*
X144671885Y-79611036D01*
X144683332Y-79613287D01*
X144727067Y-79600599D01*
X144767962Y-79567384D01*
X144799721Y-79521125D01*
X144816050Y-79469305D01*
X144817000Y-79454417D01*
X144812940Y-79429312D01*
X144798589Y-79404595D01*
X144770690Y-79377415D01*
X144725988Y-79344917D01*
X144661225Y-79304247D01*
X144613030Y-79275699D01*
X144555986Y-79241306D01*
X144509597Y-79211324D01*
X144478388Y-79188827D01*
X144466882Y-79176886D01*
X144466944Y-79176488D01*
X144479670Y-79161758D01*
X144510375Y-79132528D01*
X144555175Y-79092147D01*
X144610189Y-79043964D01*
X144671533Y-78991327D01*
X144735325Y-78937586D01*
X144797682Y-78886088D01*
X144854720Y-78840184D01*
X144878103Y-78821868D01*
X145002707Y-78725349D01*
X145194742Y-78853875D01*
X145283554Y-78911923D01*
X145353547Y-78953618D01*
X145408235Y-78979859D01*
X145451136Y-78991543D01*
X145485767Y-78989569D01*
X145515642Y-78974834D01*
X145544279Y-78948237D01*
X145547981Y-78944084D01*
X145583886Y-78888374D01*
X145592134Y-78834946D01*
X145580159Y-78797055D01*
X145564686Y-78779003D01*
X145532018Y-78747557D01*
X145486888Y-78707089D01*
X145434033Y-78661969D01*
X145432149Y-78660399D01*
X145380631Y-78616428D01*
X145338180Y-78578144D01*
X145308978Y-78549470D01*
X145297207Y-78534327D01*
X145297144Y-78533833D01*
X145308937Y-78521306D01*
X145341511Y-78497907D01*
X145390729Y-78466016D01*
X145452455Y-78428013D01*
X145522552Y-78386279D01*
X145596884Y-78343194D01*
X145671313Y-78301138D01*
X145741704Y-78262491D01*
X145803920Y-78229634D01*
X145853824Y-78204946D01*
X145887281Y-78190809D01*
X145897493Y-78188382D01*
X145912321Y-78197522D01*
X145943804Y-78222997D01*
X145988233Y-78261604D01*
X146041894Y-78310140D01*
X146085050Y-78350267D01*
X146144934Y-78405126D01*
X146200296Y-78453176D01*
X146246878Y-78490921D01*
X146280421Y-78514867D01*
X146293685Y-78521504D01*
X146341940Y-78520931D01*
X146389499Y-78499891D01*
X146429949Y-78464390D01*
X146456878Y-78420434D01*
X146463873Y-78374026D01*
X146462039Y-78363838D01*
X146450207Y-78340978D01*
X146423719Y-78301848D01*
X146386290Y-78251605D01*
X146341636Y-78195403D01*
X146333441Y-78185441D01*
X146213100Y-78039944D01*
X146295051Y-78002517D01*
X146338889Y-77984029D01*
X146398855Y-77960872D01*
X146470269Y-77934633D01*
X146548451Y-77906898D01*
X146628720Y-77879253D01*
X146706396Y-77853285D01*
X146776801Y-77830579D01*
X146835253Y-77812722D01*
X146877072Y-77801300D01*
X146897579Y-77797898D01*
X146898296Y-77798067D01*
X146909320Y-77788042D01*
X146933483Y-77756842D01*
X146968912Y-77707188D01*
X147013731Y-77641804D01*
X147066066Y-77563411D01*
X147124042Y-77474730D01*
X147167175Y-77407681D01*
X147232595Y-77306095D01*
X147297706Y-77206405D01*
X147359813Y-77112634D01*
X147416219Y-77028809D01*
X147464228Y-76958954D01*
X147501144Y-76907095D01*
X147513725Y-76890304D01*
X147645142Y-76737723D01*
X147787115Y-76606609D01*
X147937073Y-76498986D01*
X148092442Y-76416878D01*
X148139679Y-76397541D01*
X148197690Y-76376343D01*
X148246051Y-76361953D01*
X148293695Y-76352759D01*
X148349557Y-76347152D01*
X148422571Y-76343521D01*
X148443555Y-76342768D01*
X148555686Y-76341949D01*
X148649703Y-76349203D01*
G36*
X146942390Y-81717323D02*
G01*
X146954712Y-81725617D01*
X146963675Y-81744738D01*
X146971392Y-81779021D01*
X146979980Y-81832798D01*
X146990392Y-81902720D01*
X146997306Y-81960908D01*
X146996595Y-82002391D01*
X146987745Y-82037777D01*
X146983304Y-82049082D01*
X146979696Y-82060462D01*
X146976509Y-82077395D01*
X146973718Y-82101548D01*
X146971296Y-82134583D01*
X146969220Y-82178166D01*
X146967463Y-82233960D01*
X146966001Y-82303631D01*
X146964809Y-82388842D01*
X146963861Y-82491257D01*
X146963132Y-82612542D01*
X146962597Y-82754360D01*
X146962231Y-82918375D01*
X146962009Y-83106253D01*
X146961905Y-83319657D01*
X146961889Y-83465447D01*
X146961889Y-84830559D01*
X147038970Y-84839618D01*
X147114564Y-84853141D01*
X147163869Y-84872715D01*
X147186276Y-84898063D01*
X147187667Y-84907265D01*
X147181957Y-84928946D01*
X147175030Y-84933222D01*
X147161790Y-84944753D01*
X147142834Y-84973929D01*
X147133663Y-84991291D01*
X147115294Y-85038750D01*
X147114868Y-85074161D01*
X147117307Y-85081905D01*
X147120814Y-85103655D01*
X147124912Y-85149938D01*
X147129392Y-85217077D01*
X147134041Y-85301393D01*
X147138647Y-85399210D01*
X147142999Y-85506850D01*
X147145027Y-85563587D01*
X147149569Y-85695240D01*
X147154543Y-85837234D01*
X147159673Y-85981832D01*
X147164683Y-86121294D01*
X147169297Y-86247880D01*
X147173172Y-86352089D01*
X147177402Y-86478638D01*
X147179182Y-86580773D01*
X147177980Y-86662237D01*
X147173267Y-86726772D01*
X147164513Y-86778122D01*
X147151187Y-86820028D01*
X147132761Y-86856234D01*
X147108703Y-86890483D01*
X147094463Y-86907964D01*
X147057716Y-86943090D01*
X147016953Y-86970403D01*
X147008862Y-86974196D01*
X146951005Y-86988639D01*
X146883763Y-86991577D01*
X146822236Y-86982757D01*
X146806674Y-86977591D01*
X146746582Y-86939308D01*
X146693391Y-86876567D01*
X146674765Y-86845278D01*
X146661494Y-86817134D01*
X146652756Y-86787137D01*
X146647689Y-86748714D01*
X146645431Y-86695293D01*
X146645117Y-86620302D01*
X146645121Y-86619500D01*
X146646336Y-86547033D01*
X146649302Y-86454626D01*
X146653798Y-86345810D01*
X146659599Y-86224115D01*
X146666483Y-86093072D01*
X146674227Y-85956212D01*
X146682608Y-85817065D01*
X146691404Y-85679163D01*
X146700391Y-85546035D01*
X146709346Y-85421213D01*
X146718047Y-85308228D01*
X146726271Y-85210609D01*
X146733795Y-85131888D01*
X146740396Y-85075596D01*
X146743994Y-85053167D01*
X146744256Y-85015352D01*
X146727076Y-84974692D01*
X146715207Y-84956095D01*
X146694474Y-84919830D01*
X146684726Y-84890981D01*
X146685131Y-84882891D01*
X146702581Y-84867975D01*
X146737776Y-84852593D01*
X146780524Y-84840285D01*
X146820634Y-84834593D01*
X146824305Y-84834523D01*
X146828405Y-84833372D01*
X146832025Y-84828852D01*
X146835196Y-84819315D01*
X146837947Y-84803118D01*
X146840307Y-84778615D01*
X146842307Y-84744160D01*
X146843976Y-84698109D01*
X146845344Y-84638816D01*
X146846440Y-84564637D01*
X146847294Y-84473924D01*
X146847936Y-84365035D01*
X146848395Y-84236323D01*
X146848702Y-84086142D01*
X146848885Y-83912849D01*
X146848974Y-83714797D01*
X146849000Y-83490341D01*
X146849000Y-83465104D01*
X146848981Y-83237659D01*
X146848903Y-83036720D01*
X146848735Y-82860571D01*
X146848445Y-82707496D01*
X146848001Y-82575779D01*
X146847371Y-82463705D01*
X146846524Y-82369557D01*
X146845428Y-82291619D01*
X146844051Y-82228175D01*
X146842362Y-82177509D01*
X146840328Y-82137906D01*
X146837919Y-82107648D01*
X146835103Y-82085021D01*
X146831847Y-82068308D01*
X146828120Y-82055793D01*
X146823891Y-82045761D01*
X146822736Y-82043410D01*
X146807161Y-82007405D01*
X146800298Y-81981346D01*
X146800549Y-81976944D01*
X146804163Y-81957336D01*
X146810328Y-81917045D01*
X146817947Y-81863376D01*
X146821214Y-81839361D01*
X146837804Y-81715889D01*
X146899207Y-81715889D01*
X146924593Y-81715525D01*
X146942390Y-81717323D01*
G37*
X146942390Y-81717323D02*
X146954712Y-81725617D01*
X146963675Y-81744738D01*
X146971392Y-81779021D01*
X146979980Y-81832798D01*
X146990392Y-81902720D01*
X146997306Y-81960908D01*
X146996595Y-82002391D01*
X146987745Y-82037777D01*
X146983304Y-82049082D01*
X146979696Y-82060462D01*
X146976509Y-82077395D01*
X146973718Y-82101548D01*
X146971296Y-82134583D01*
X146969220Y-82178166D01*
X146967463Y-82233960D01*
X146966001Y-82303631D01*
X146964809Y-82388842D01*
X146963861Y-82491257D01*
X146963132Y-82612542D01*
X146962597Y-82754360D01*
X146962231Y-82918375D01*
X146962009Y-83106253D01*
X146961905Y-83319657D01*
X146961889Y-83465447D01*
X146961889Y-84830559D01*
X147038970Y-84839618D01*
X147114564Y-84853141D01*
X147163869Y-84872715D01*
X147186276Y-84898063D01*
X147187667Y-84907265D01*
X147181957Y-84928946D01*
X147175030Y-84933222D01*
X147161790Y-84944753D01*
X147142834Y-84973929D01*
X147133663Y-84991291D01*
X147115294Y-85038750D01*
X147114868Y-85074161D01*
X147117307Y-85081905D01*
X147120814Y-85103655D01*
X147124912Y-85149938D01*
X147129392Y-85217077D01*
X147134041Y-85301393D01*
X147138647Y-85399210D01*
X147142999Y-85506850D01*
X147145027Y-85563587D01*
X147149569Y-85695240D01*
X147154543Y-85837234D01*
X147159673Y-85981832D01*
X147164683Y-86121294D01*
X147169297Y-86247880D01*
X147173172Y-86352089D01*
X147177402Y-86478638D01*
X147179182Y-86580773D01*
X147177980Y-86662237D01*
X147173267Y-86726772D01*
X147164513Y-86778122D01*
X147151187Y-86820028D01*
X147132761Y-86856234D01*
X147108703Y-86890483D01*
X147094463Y-86907964D01*
X147057716Y-86943090D01*
X147016953Y-86970403D01*
X147008862Y-86974196D01*
X146951005Y-86988639D01*
X146883763Y-86991577D01*
X146822236Y-86982757D01*
X146806674Y-86977591D01*
X146746582Y-86939308D01*
X146693391Y-86876567D01*
X146674765Y-86845278D01*
X146661494Y-86817134D01*
X146652756Y-86787137D01*
X146647689Y-86748714D01*
X146645431Y-86695293D01*
X146645117Y-86620302D01*
X146645121Y-86619500D01*
X146646336Y-86547033D01*
X146649302Y-86454626D01*
X146653798Y-86345810D01*
X146659599Y-86224115D01*
X146666483Y-86093072D01*
X146674227Y-85956212D01*
X146682608Y-85817065D01*
X146691404Y-85679163D01*
X146700391Y-85546035D01*
X146709346Y-85421213D01*
X146718047Y-85308228D01*
X146726271Y-85210609D01*
X146733795Y-85131888D01*
X146740396Y-85075596D01*
X146743994Y-85053167D01*
X146744256Y-85015352D01*
X146727076Y-84974692D01*
X146715207Y-84956095D01*
X146694474Y-84919830D01*
X146684726Y-84890981D01*
X146685131Y-84882891D01*
X146702581Y-84867975D01*
X146737776Y-84852593D01*
X146780524Y-84840285D01*
X146820634Y-84834593D01*
X146824305Y-84834523D01*
X146828405Y-84833372D01*
X146832025Y-84828852D01*
X146835196Y-84819315D01*
X146837947Y-84803118D01*
X146840307Y-84778615D01*
X146842307Y-84744160D01*
X146843976Y-84698109D01*
X146845344Y-84638816D01*
X146846440Y-84564637D01*
X146847294Y-84473924D01*
X146847936Y-84365035D01*
X146848395Y-84236323D01*
X146848702Y-84086142D01*
X146848885Y-83912849D01*
X146848974Y-83714797D01*
X146849000Y-83490341D01*
X146849000Y-83465104D01*
X146848981Y-83237659D01*
X146848903Y-83036720D01*
X146848735Y-82860571D01*
X146848445Y-82707496D01*
X146848001Y-82575779D01*
X146847371Y-82463705D01*
X146846524Y-82369557D01*
X146845428Y-82291619D01*
X146844051Y-82228175D01*
X146842362Y-82177509D01*
X146840328Y-82137906D01*
X146837919Y-82107648D01*
X146835103Y-82085021D01*
X146831847Y-82068308D01*
X146828120Y-82055793D01*
X146823891Y-82045761D01*
X146822736Y-82043410D01*
X146807161Y-82007405D01*
X146800298Y-81981346D01*
X146800549Y-81976944D01*
X146804163Y-81957336D01*
X146810328Y-81917045D01*
X146817947Y-81863376D01*
X146821214Y-81839361D01*
X146837804Y-81715889D01*
X146899207Y-81715889D01*
X146924593Y-81715525D01*
X146942390Y-81717323D01*
G36*
X150241717Y-82429232D02*
G01*
X150291462Y-82433365D01*
X150315705Y-82443802D01*
X150315802Y-82463447D01*
X150293111Y-82495204D01*
X150248989Y-82541976D01*
X150228047Y-82563123D01*
X150181607Y-82608229D01*
X150141025Y-82644691D01*
X150111080Y-82668397D01*
X150097509Y-82675444D01*
X150079129Y-82685161D01*
X150048535Y-82710726D01*
X150012116Y-82746760D01*
X150009522Y-82749528D01*
X149973624Y-82789151D01*
X149952935Y-82818517D01*
X149943209Y-82847814D01*
X149940200Y-82887230D01*
X149939871Y-82916652D01*
X149939333Y-83009693D01*
X150008893Y-83068347D01*
X150048319Y-83100037D01*
X150079123Y-83117609D01*
X150112869Y-83125208D01*
X150161123Y-83126980D01*
X150172533Y-83127000D01*
X150224550Y-83125894D01*
X150259591Y-83119877D01*
X150288888Y-83104897D01*
X150323675Y-83076903D01*
X150332279Y-83069387D01*
X150368620Y-83033856D01*
X150395505Y-83000820D01*
X150405476Y-82981871D01*
X150418356Y-82961616D01*
X150446616Y-82931053D01*
X150484963Y-82894685D01*
X150528104Y-82857016D01*
X150570745Y-82822548D01*
X150607594Y-82795785D01*
X150633357Y-82781231D01*
X150641939Y-82780697D01*
X150646550Y-82798590D01*
X150649989Y-82837328D01*
X150651680Y-82889539D01*
X150651760Y-82906613D01*
X150650227Y-82970039D01*
X150644079Y-83017431D01*
X150630637Y-83060911D01*
X150607218Y-83112602D01*
X150605381Y-83116344D01*
X150562452Y-83188742D01*
X150512352Y-83250222D01*
X150496204Y-83265619D01*
X150433222Y-83321058D01*
X150433222Y-85863047D01*
X150511994Y-85915332D01*
X150605650Y-85993405D01*
X150678423Y-86086997D01*
X150729868Y-86192170D01*
X150759540Y-86304980D01*
X150766993Y-86421488D01*
X150751784Y-86537752D01*
X150713467Y-86649831D01*
X150651597Y-86753784D01*
X150611985Y-86801165D01*
X150569124Y-86842156D01*
X150534601Y-86862486D01*
X150511502Y-86866444D01*
X150471810Y-86866444D01*
X150478454Y-86682438D01*
X150485098Y-86498431D01*
X150331072Y-86378236D01*
X150274582Y-86334988D01*
X150225900Y-86299291D01*
X150189331Y-86274182D01*
X150169179Y-86262699D01*
X150166936Y-86262381D01*
X150152595Y-86272273D01*
X150120605Y-86296218D01*
X150075471Y-86330791D01*
X150021703Y-86372565D01*
X150012802Y-86379530D01*
X149868778Y-86492337D01*
X149868778Y-86679391D01*
X149868629Y-86755015D01*
X149867668Y-86806892D01*
X149865121Y-86839496D01*
X149860214Y-86857303D01*
X149852173Y-86864787D01*
X149840225Y-86866424D01*
X149836438Y-86866444D01*
X149805641Y-86855370D01*
X149765816Y-86825031D01*
X149746887Y-86806472D01*
X149670428Y-86710245D01*
X149619586Y-86607139D01*
X149593005Y-86493367D01*
X149589278Y-86366149D01*
X149596091Y-86291774D01*
X149609827Y-86230871D01*
X149633959Y-86168902D01*
X149639112Y-86157714D01*
X149695007Y-86061495D01*
X149765341Y-85976640D01*
X149843652Y-85910610D01*
X149864438Y-85897496D01*
X149925222Y-85861874D01*
X149925217Y-84907513D01*
X150122776Y-84907513D01*
X150122843Y-85090467D01*
X150123087Y-85248655D01*
X150123617Y-85383802D01*
X150124542Y-85497636D01*
X150125969Y-85591884D01*
X150128008Y-85668274D01*
X150130767Y-85728534D01*
X150134354Y-85774390D01*
X150138878Y-85807569D01*
X150144448Y-85829800D01*
X150151171Y-85842809D01*
X150159157Y-85848324D01*
X150168515Y-85848072D01*
X150179352Y-85843780D01*
X150191777Y-85837176D01*
X150194261Y-85835837D01*
X150199247Y-85832502D01*
X150203587Y-85826959D01*
X150207324Y-85817349D01*
X150210503Y-85801816D01*
X150213171Y-85778502D01*
X150215371Y-85745548D01*
X150217148Y-85701098D01*
X150218548Y-85643293D01*
X150219616Y-85570276D01*
X150220396Y-85480189D01*
X150220933Y-85371175D01*
X150221273Y-85241375D01*
X150221460Y-85088932D01*
X150221539Y-84911989D01*
X150221555Y-84708688D01*
X150221555Y-84707956D01*
X150221511Y-84502749D01*
X150221352Y-84323935D01*
X150221044Y-84169686D01*
X150220552Y-84038171D01*
X150219839Y-83927562D01*
X150218869Y-83836029D01*
X150217608Y-83761744D01*
X150216019Y-83702877D01*
X150214067Y-83657599D01*
X150211716Y-83624082D01*
X150208930Y-83600496D01*
X150205674Y-83585012D01*
X150201912Y-83575800D01*
X150199409Y-83572536D01*
X150173844Y-83558107D01*
X150150020Y-83564969D01*
X150145054Y-83568301D01*
X150140731Y-83573859D01*
X150137006Y-83583495D01*
X150133836Y-83599062D01*
X150131174Y-83622413D01*
X150128978Y-83655401D01*
X150127202Y-83699880D01*
X150125802Y-83757703D01*
X150124732Y-83830722D01*
X150123950Y-83920791D01*
X150123410Y-84029762D01*
X150123067Y-84159490D01*
X150122877Y-84311826D01*
X150122795Y-84488625D01*
X150122778Y-84691739D01*
X150122778Y-84698063D01*
X150122776Y-84907513D01*
X149925217Y-84907513D01*
X149925215Y-84596742D01*
X149925208Y-83331611D01*
X149855526Y-83271602D01*
X149783274Y-83191400D01*
X149739477Y-83117410D01*
X149713924Y-83061066D01*
X149699803Y-83014172D01*
X149693907Y-82962860D01*
X149692953Y-82916364D01*
X149698733Y-82824739D01*
X149715161Y-82745425D01*
X149718474Y-82735254D01*
X149756336Y-82659687D01*
X149814359Y-82584971D01*
X149885352Y-82518906D01*
X149962124Y-82469295D01*
X149964873Y-82467930D01*
X150011013Y-82447412D01*
X150052840Y-82435435D01*
X150101269Y-82429847D01*
X150165111Y-82428500D01*
X150241717Y-82429232D01*
G37*
X150241717Y-82429232D02*
X150291462Y-82433365D01*
X150315705Y-82443802D01*
X150315802Y-82463447D01*
X150293111Y-82495204D01*
X150248989Y-82541976D01*
X150228047Y-82563123D01*
X150181607Y-82608229D01*
X150141025Y-82644691D01*
X150111080Y-82668397D01*
X150097509Y-82675444D01*
X150079129Y-82685161D01*
X150048535Y-82710726D01*
X150012116Y-82746760D01*
X150009522Y-82749528D01*
X149973624Y-82789151D01*
X149952935Y-82818517D01*
X149943209Y-82847814D01*
X149940200Y-82887230D01*
X149939871Y-82916652D01*
X149939333Y-83009693D01*
X150008893Y-83068347D01*
X150048319Y-83100037D01*
X150079123Y-83117609D01*
X150112869Y-83125208D01*
X150161123Y-83126980D01*
X150172533Y-83127000D01*
X150224550Y-83125894D01*
X150259591Y-83119877D01*
X150288888Y-83104897D01*
X150323675Y-83076903D01*
X150332279Y-83069387D01*
X150368620Y-83033856D01*
X150395505Y-83000820D01*
X150405476Y-82981871D01*
X150418356Y-82961616D01*
X150446616Y-82931053D01*
X150484963Y-82894685D01*
X150528104Y-82857016D01*
X150570745Y-82822548D01*
X150607594Y-82795785D01*
X150633357Y-82781231D01*
X150641939Y-82780697D01*
X150646550Y-82798590D01*
X150649989Y-82837328D01*
X150651680Y-82889539D01*
X150651760Y-82906613D01*
X150650227Y-82970039D01*
X150644079Y-83017431D01*
X150630637Y-83060911D01*
X150607218Y-83112602D01*
X150605381Y-83116344D01*
X150562452Y-83188742D01*
X150512352Y-83250222D01*
X150496204Y-83265619D01*
X150433222Y-83321058D01*
X150433222Y-85863047D01*
X150511994Y-85915332D01*
X150605650Y-85993405D01*
X150678423Y-86086997D01*
X150729868Y-86192170D01*
X150759540Y-86304980D01*
X150766993Y-86421488D01*
X150751784Y-86537752D01*
X150713467Y-86649831D01*
X150651597Y-86753784D01*
X150611985Y-86801165D01*
X150569124Y-86842156D01*
X150534601Y-86862486D01*
X150511502Y-86866444D01*
X150471810Y-86866444D01*
X150478454Y-86682438D01*
X150485098Y-86498431D01*
X150331072Y-86378236D01*
X150274582Y-86334988D01*
X150225900Y-86299291D01*
X150189331Y-86274182D01*
X150169179Y-86262699D01*
X150166936Y-86262381D01*
X150152595Y-86272273D01*
X150120605Y-86296218D01*
X150075471Y-86330791D01*
X150021703Y-86372565D01*
X150012802Y-86379530D01*
X149868778Y-86492337D01*
X149868778Y-86679391D01*
X149868629Y-86755015D01*
X149867668Y-86806892D01*
X149865121Y-86839496D01*
X149860214Y-86857303D01*
X149852173Y-86864787D01*
X149840225Y-86866424D01*
X149836438Y-86866444D01*
X149805641Y-86855370D01*
X149765816Y-86825031D01*
X149746887Y-86806472D01*
X149670428Y-86710245D01*
X149619586Y-86607139D01*
X149593005Y-86493367D01*
X149589278Y-86366149D01*
X149596091Y-86291774D01*
X149609827Y-86230871D01*
X149633959Y-86168902D01*
X149639112Y-86157714D01*
X149695007Y-86061495D01*
X149765341Y-85976640D01*
X149843652Y-85910610D01*
X149864438Y-85897496D01*
X149925222Y-85861874D01*
X149925217Y-84907513D01*
X150122776Y-84907513D01*
X150122843Y-85090467D01*
X150123087Y-85248655D01*
X150123617Y-85383802D01*
X150124542Y-85497636D01*
X150125969Y-85591884D01*
X150128008Y-85668274D01*
X150130767Y-85728534D01*
X150134354Y-85774390D01*
X150138878Y-85807569D01*
X150144448Y-85829800D01*
X150151171Y-85842809D01*
X150159157Y-85848324D01*
X150168515Y-85848072D01*
X150179352Y-85843780D01*
X150191777Y-85837176D01*
X150194261Y-85835837D01*
X150199247Y-85832502D01*
X150203587Y-85826959D01*
X150207324Y-85817349D01*
X150210503Y-85801816D01*
X150213171Y-85778502D01*
X150215371Y-85745548D01*
X150217148Y-85701098D01*
X150218548Y-85643293D01*
X150219616Y-85570276D01*
X150220396Y-85480189D01*
X150220933Y-85371175D01*
X150221273Y-85241375D01*
X150221460Y-85088932D01*
X150221539Y-84911989D01*
X150221555Y-84708688D01*
X150221555Y-84707956D01*
X150221511Y-84502749D01*
X150221352Y-84323935D01*
X150221044Y-84169686D01*
X150220552Y-84038171D01*
X150219839Y-83927562D01*
X150218869Y-83836029D01*
X150217608Y-83761744D01*
X150216019Y-83702877D01*
X150214067Y-83657599D01*
X150211716Y-83624082D01*
X150208930Y-83600496D01*
X150205674Y-83585012D01*
X150201912Y-83575800D01*
X150199409Y-83572536D01*
X150173844Y-83558107D01*
X150150020Y-83564969D01*
X150145054Y-83568301D01*
X150140731Y-83573859D01*
X150137006Y-83583495D01*
X150133836Y-83599062D01*
X150131174Y-83622413D01*
X150128978Y-83655401D01*
X150127202Y-83699880D01*
X150125802Y-83757703D01*
X150124732Y-83830722D01*
X150123950Y-83920791D01*
X150123410Y-84029762D01*
X150123067Y-84159490D01*
X150122877Y-84311826D01*
X150122795Y-84488625D01*
X150122778Y-84691739D01*
X150122778Y-84698063D01*
X150122776Y-84907513D01*
X149925217Y-84907513D01*
X149925215Y-84596742D01*
X149925208Y-83331611D01*
X149855526Y-83271602D01*
X149783274Y-83191400D01*
X149739477Y-83117410D01*
X149713924Y-83061066D01*
X149699803Y-83014172D01*
X149693907Y-82962860D01*
X149692953Y-82916364D01*
X149698733Y-82824739D01*
X149715161Y-82745425D01*
X149718474Y-82735254D01*
X149756336Y-82659687D01*
X149814359Y-82584971D01*
X149885352Y-82518906D01*
X149962124Y-82469295D01*
X149964873Y-82467930D01*
X150011013Y-82447412D01*
X150052840Y-82435435D01*
X150101269Y-82429847D01*
X150165111Y-82428500D01*
X150241717Y-82429232D01*
G36*
X147101831Y-82857545D02*
G01*
X147133458Y-82884270D01*
X147179862Y-82924632D01*
X147237990Y-82975962D01*
X147304789Y-83035586D01*
X147352620Y-83078615D01*
X147530366Y-83238256D01*
X147701875Y-83390828D01*
X147865903Y-83535290D01*
X148021207Y-83670599D01*
X148166543Y-83795713D01*
X148300668Y-83909591D01*
X148422337Y-84011190D01*
X148530308Y-84099468D01*
X148623337Y-84173384D01*
X148700180Y-84231896D01*
X148759594Y-84273962D01*
X148800334Y-84298539D01*
X148815832Y-84304570D01*
X148845524Y-84308951D01*
X148892171Y-84314262D01*
X148935231Y-84318405D01*
X149038773Y-84337422D01*
X149126198Y-84376408D01*
X149203897Y-84438310D01*
X149211074Y-84445561D01*
X149271020Y-84521001D01*
X149305304Y-84600073D01*
X149316362Y-84689050D01*
X149315709Y-84715082D01*
X149312437Y-84761966D01*
X149306493Y-84787663D01*
X149294467Y-84799197D01*
X149272946Y-84803592D01*
X149272716Y-84803619D01*
X149245282Y-84801123D01*
X149213979Y-84784913D01*
X149172508Y-84751438D01*
X149159827Y-84739967D01*
X149105432Y-84689919D01*
X149067703Y-84656484D01*
X149041992Y-84637771D01*
X149023653Y-84631894D01*
X149008038Y-84636965D01*
X148990499Y-84651094D01*
X148975106Y-84664910D01*
X148938139Y-84706913D01*
X148907158Y-84757912D01*
X148900816Y-84772516D01*
X148876467Y-84836273D01*
X148980260Y-84940764D01*
X149084053Y-85045254D01*
X149035443Y-85064986D01*
X148964881Y-85085787D01*
X148892201Y-85094259D01*
X148831611Y-85089142D01*
X148742202Y-85054404D01*
X148668432Y-84996451D01*
X148610197Y-84915143D01*
X148567395Y-84810341D01*
X148542511Y-84699189D01*
X148533384Y-84652778D01*
X148519907Y-84618707D01*
X148496394Y-84587057D01*
X148457161Y-84547910D01*
X148454248Y-84545167D01*
X148406086Y-84500610D01*
X148338862Y-84439501D01*
X148254801Y-84363816D01*
X148156126Y-84275536D01*
X148045060Y-84176638D01*
X147923828Y-84069101D01*
X147794652Y-83954904D01*
X147659757Y-83836025D01*
X147521366Y-83714444D01*
X147473417Y-83672408D01*
X147074778Y-83323128D01*
X147074778Y-83082777D01*
X147075520Y-82995597D01*
X147077631Y-82925750D01*
X147080939Y-82876301D01*
X147085272Y-82850311D01*
X147088037Y-82847130D01*
X147101831Y-82857545D01*
G37*
X147101831Y-82857545D02*
X147133458Y-82884270D01*
X147179862Y-82924632D01*
X147237990Y-82975962D01*
X147304789Y-83035586D01*
X147352620Y-83078615D01*
X147530366Y-83238256D01*
X147701875Y-83390828D01*
X147865903Y-83535290D01*
X148021207Y-83670599D01*
X148166543Y-83795713D01*
X148300668Y-83909591D01*
X148422337Y-84011190D01*
X148530308Y-84099468D01*
X148623337Y-84173384D01*
X148700180Y-84231896D01*
X148759594Y-84273962D01*
X148800334Y-84298539D01*
X148815832Y-84304570D01*
X148845524Y-84308951D01*
X148892171Y-84314262D01*
X148935231Y-84318405D01*
X149038773Y-84337422D01*
X149126198Y-84376408D01*
X149203897Y-84438310D01*
X149211074Y-84445561D01*
X149271020Y-84521001D01*
X149305304Y-84600073D01*
X149316362Y-84689050D01*
X149315709Y-84715082D01*
X149312437Y-84761966D01*
X149306493Y-84787663D01*
X149294467Y-84799197D01*
X149272946Y-84803592D01*
X149272716Y-84803619D01*
X149245282Y-84801123D01*
X149213979Y-84784913D01*
X149172508Y-84751438D01*
X149159827Y-84739967D01*
X149105432Y-84689919D01*
X149067703Y-84656484D01*
X149041992Y-84637771D01*
X149023653Y-84631894D01*
X149008038Y-84636965D01*
X148990499Y-84651094D01*
X148975106Y-84664910D01*
X148938139Y-84706913D01*
X148907158Y-84757912D01*
X148900816Y-84772516D01*
X148876467Y-84836273D01*
X148980260Y-84940764D01*
X149084053Y-85045254D01*
X149035443Y-85064986D01*
X148964881Y-85085787D01*
X148892201Y-85094259D01*
X148831611Y-85089142D01*
X148742202Y-85054404D01*
X148668432Y-84996451D01*
X148610197Y-84915143D01*
X148567395Y-84810341D01*
X148542511Y-84699189D01*
X148533384Y-84652778D01*
X148519907Y-84618707D01*
X148496394Y-84587057D01*
X148457161Y-84547910D01*
X148454248Y-84545167D01*
X148406086Y-84500610D01*
X148338862Y-84439501D01*
X148254801Y-84363816D01*
X148156126Y-84275536D01*
X148045060Y-84176638D01*
X147923828Y-84069101D01*
X147794652Y-83954904D01*
X147659757Y-83836025D01*
X147521366Y-83714444D01*
X147473417Y-83672408D01*
X147074778Y-83323128D01*
X147074778Y-83082777D01*
X147075520Y-82995597D01*
X147077631Y-82925750D01*
X147080939Y-82876301D01*
X147085272Y-82850311D01*
X147088037Y-82847130D01*
X147101831Y-82857545D01*
G36*
X148303219Y-84539591D02*
G01*
X148352213Y-84586304D01*
X148392339Y-84628248D01*
X148419462Y-84660837D01*
X148429444Y-84679485D01*
X148429444Y-84679500D01*
X148419140Y-84701281D01*
X148392517Y-84732010D01*
X148365683Y-84756292D01*
X148323150Y-84796828D01*
X148277442Y-84849035D01*
X148245213Y-84892047D01*
X148214979Y-84934258D01*
X148188803Y-84961529D01*
X148162844Y-84973005D01*
X148133260Y-84967830D01*
X148096211Y-84945147D01*
X148047856Y-84904099D01*
X147984353Y-84843830D01*
X147971061Y-84830917D01*
X147908381Y-84768592D01*
X147864692Y-84721686D01*
X147837564Y-84687242D01*
X147824568Y-84662304D01*
X147822541Y-84650294D01*
X147831942Y-84610162D01*
X147855851Y-84585004D01*
X147874348Y-84580444D01*
X147909683Y-84573487D01*
X147960084Y-84555225D01*
X148016850Y-84529576D01*
X148071283Y-84500455D01*
X148113204Y-84472917D01*
X148176994Y-84424226D01*
X148303219Y-84539591D01*
G37*
X148303219Y-84539591D02*
X148352213Y-84586304D01*
X148392339Y-84628248D01*
X148419462Y-84660837D01*
X148429444Y-84679485D01*
X148429444Y-84679500D01*
X148419140Y-84701281D01*
X148392517Y-84732010D01*
X148365683Y-84756292D01*
X148323150Y-84796828D01*
X148277442Y-84849035D01*
X148245213Y-84892047D01*
X148214979Y-84934258D01*
X148188803Y-84961529D01*
X148162844Y-84973005D01*
X148133260Y-84967830D01*
X148096211Y-84945147D01*
X148047856Y-84904099D01*
X147984353Y-84843830D01*
X147971061Y-84830917D01*
X147908381Y-84768592D01*
X147864692Y-84721686D01*
X147837564Y-84687242D01*
X147824568Y-84662304D01*
X147822541Y-84650294D01*
X147831942Y-84610162D01*
X147855851Y-84585004D01*
X147874348Y-84580444D01*
X147909683Y-84573487D01*
X147960084Y-84555225D01*
X148016850Y-84529576D01*
X148071283Y-84500455D01*
X148113204Y-84472917D01*
X148176994Y-84424226D01*
X148303219Y-84539591D01*
G36*
X149697945Y-83143887D02*
G01*
X149712551Y-83173222D01*
X149714023Y-83176217D01*
X149735568Y-83209684D01*
X149769193Y-83251337D01*
X149795483Y-83279683D01*
X149826783Y-83313558D01*
X149847103Y-83340028D01*
X149851928Y-83351890D01*
X149840537Y-83364823D01*
X149812051Y-83393157D01*
X149770223Y-83433269D01*
X149718802Y-83481536D01*
X149692389Y-83506006D01*
X149629244Y-83565777D01*
X149566096Y-83628176D01*
X149509533Y-83686527D01*
X149466143Y-83734157D01*
X149459555Y-83741893D01*
X149423835Y-83781636D01*
X149372148Y-83835271D01*
X149309496Y-83897802D01*
X149240879Y-83964228D01*
X149177333Y-84023976D01*
X149107234Y-84088689D01*
X149054233Y-84136680D01*
X149014762Y-84170451D01*
X148985253Y-84192501D01*
X148962140Y-84205330D01*
X148941854Y-84211438D01*
X148920828Y-84213325D01*
X148906916Y-84213471D01*
X148873467Y-84211651D01*
X148843544Y-84203930D01*
X148810196Y-84187058D01*
X148766471Y-84157788D01*
X148728604Y-84130137D01*
X148679831Y-84093237D01*
X148639801Y-84061572D01*
X148613903Y-84039481D01*
X148607325Y-84032525D01*
X148613092Y-84015928D01*
X148639562Y-83984246D01*
X148684756Y-83939191D01*
X148746698Y-83882473D01*
X148823410Y-83815805D01*
X148912914Y-83740897D01*
X149013234Y-83659462D01*
X149122392Y-83573211D01*
X149238411Y-83483854D01*
X149261415Y-83466404D01*
X149339318Y-83406940D01*
X149416599Y-83347035D01*
X149487776Y-83291003D01*
X149547370Y-83243158D01*
X149589900Y-83207816D01*
X149590344Y-83207433D01*
X149633153Y-83171368D01*
X149666998Y-83144326D01*
X149686979Y-83130151D01*
X149690237Y-83129085D01*
X149697945Y-83143887D01*
G37*
X149697945Y-83143887D02*
X149712551Y-83173222D01*
X149714023Y-83176217D01*
X149735568Y-83209684D01*
X149769193Y-83251337D01*
X149795483Y-83279683D01*
X149826783Y-83313558D01*
X149847103Y-83340028D01*
X149851928Y-83351890D01*
X149840537Y-83364823D01*
X149812051Y-83393157D01*
X149770223Y-83433269D01*
X149718802Y-83481536D01*
X149692389Y-83506006D01*
X149629244Y-83565777D01*
X149566096Y-83628176D01*
X149509533Y-83686527D01*
X149466143Y-83734157D01*
X149459555Y-83741893D01*
X149423835Y-83781636D01*
X149372148Y-83835271D01*
X149309496Y-83897802D01*
X149240879Y-83964228D01*
X149177333Y-84023976D01*
X149107234Y-84088689D01*
X149054233Y-84136680D01*
X149014762Y-84170451D01*
X148985253Y-84192501D01*
X148962140Y-84205330D01*
X148941854Y-84211438D01*
X148920828Y-84213325D01*
X148906916Y-84213471D01*
X148873467Y-84211651D01*
X148843544Y-84203930D01*
X148810196Y-84187058D01*
X148766471Y-84157788D01*
X148728604Y-84130137D01*
X148679831Y-84093237D01*
X148639801Y-84061572D01*
X148613903Y-84039481D01*
X148607325Y-84032525D01*
X148613092Y-84015928D01*
X148639562Y-83984246D01*
X148684756Y-83939191D01*
X148746698Y-83882473D01*
X148823410Y-83815805D01*
X148912914Y-83740897D01*
X149013234Y-83659462D01*
X149122392Y-83573211D01*
X149238411Y-83483854D01*
X149261415Y-83466404D01*
X149339318Y-83406940D01*
X149416599Y-83347035D01*
X149487776Y-83291003D01*
X149547370Y-83243158D01*
X149589900Y-83207816D01*
X149590344Y-83207433D01*
X149633153Y-83171368D01*
X149666998Y-83144326D01*
X149686979Y-83130151D01*
X149690237Y-83129085D01*
X149697945Y-83143887D01*
G36*
X150493109Y-81626876D02*
G01*
X150514833Y-81638859D01*
X150544696Y-81665541D01*
X150568775Y-81689145D01*
X150620663Y-81748585D01*
X150653245Y-81803961D01*
X150658397Y-81818218D01*
X150687365Y-81881564D01*
X150728816Y-81927179D01*
X150778217Y-81950860D01*
X150803938Y-81953183D01*
X150860046Y-81963576D01*
X150918980Y-81999231D01*
X150981216Y-82060680D01*
X151047228Y-82148449D01*
X151117489Y-82263070D01*
X151171201Y-82362960D01*
X151241700Y-82506738D01*
X151298488Y-82638515D01*
X151345431Y-82768370D01*
X151386396Y-82906380D01*
X151400775Y-82961381D01*
X151417467Y-83030677D01*
X151425237Y-83077335D01*
X151423056Y-83105815D01*
X151409899Y-83120574D01*
X151384737Y-83126072D01*
X151362667Y-83126784D01*
X151340436Y-83123412D01*
X151323375Y-83108974D01*
X151306310Y-83077451D01*
X151293131Y-83045861D01*
X151227946Y-82907025D01*
X151150680Y-82789101D01*
X151104247Y-82733750D01*
X151066333Y-82689381D01*
X151034628Y-82647456D01*
X151015618Y-82616591D01*
X151014934Y-82615076D01*
X150993435Y-82580683D01*
X150964755Y-82567514D01*
X150923522Y-82574487D01*
X150887246Y-82589401D01*
X150831500Y-82612186D01*
X150769475Y-82633140D01*
X150748058Y-82639201D01*
X150720124Y-82648477D01*
X150689040Y-82663354D01*
X150652262Y-82685719D01*
X150607243Y-82717462D01*
X150551438Y-82760470D01*
X150482302Y-82816632D01*
X150397290Y-82887835D01*
X150293856Y-82975970D01*
X150292111Y-82977465D01*
X150248244Y-83013313D01*
X150210949Y-83040639D01*
X150186358Y-83055060D01*
X150181841Y-83056249D01*
X150162184Y-83047672D01*
X150129189Y-83025098D01*
X150093653Y-82996472D01*
X150055254Y-82961482D01*
X150034363Y-82934937D01*
X150025938Y-82908312D01*
X150024800Y-82880056D01*
X150027224Y-82849504D01*
X150036626Y-82824895D01*
X150057700Y-82799225D01*
X150095139Y-82765489D01*
X150109897Y-82753056D01*
X150146939Y-82719879D01*
X150198616Y-82670632D01*
X150260368Y-82609928D01*
X150327631Y-82542385D01*
X150395845Y-82472617D01*
X150460448Y-82405240D01*
X150516877Y-82344869D01*
X150553579Y-82304141D01*
X150576387Y-82270573D01*
X150586639Y-82230734D01*
X150588392Y-82191252D01*
X150577422Y-82112006D01*
X150544378Y-82050238D01*
X150488867Y-82005457D01*
X150419111Y-81979207D01*
X150389224Y-81961157D01*
X150352684Y-81922778D01*
X150329861Y-81892261D01*
X150299851Y-81845486D01*
X150285280Y-81812011D01*
X150283144Y-81783775D01*
X150285093Y-81772160D01*
X150306293Y-81729964D01*
X150347201Y-81687764D01*
X150400116Y-81652262D01*
X150444197Y-81633708D01*
X150472054Y-81626267D01*
X150493109Y-81626876D01*
G37*
X150493109Y-81626876D02*
X150514833Y-81638859D01*
X150544696Y-81665541D01*
X150568775Y-81689145D01*
X150620663Y-81748585D01*
X150653245Y-81803961D01*
X150658397Y-81818218D01*
X150687365Y-81881564D01*
X150728816Y-81927179D01*
X150778217Y-81950860D01*
X150803938Y-81953183D01*
X150860046Y-81963576D01*
X150918980Y-81999231D01*
X150981216Y-82060680D01*
X151047228Y-82148449D01*
X151117489Y-82263070D01*
X151171201Y-82362960D01*
X151241700Y-82506738D01*
X151298488Y-82638515D01*
X151345431Y-82768370D01*
X151386396Y-82906380D01*
X151400775Y-82961381D01*
X151417467Y-83030677D01*
X151425237Y-83077335D01*
X151423056Y-83105815D01*
X151409899Y-83120574D01*
X151384737Y-83126072D01*
X151362667Y-83126784D01*
X151340436Y-83123412D01*
X151323375Y-83108974D01*
X151306310Y-83077451D01*
X151293131Y-83045861D01*
X151227946Y-82907025D01*
X151150680Y-82789101D01*
X151104247Y-82733750D01*
X151066333Y-82689381D01*
X151034628Y-82647456D01*
X151015618Y-82616591D01*
X151014934Y-82615076D01*
X150993435Y-82580683D01*
X150964755Y-82567514D01*
X150923522Y-82574487D01*
X150887246Y-82589401D01*
X150831500Y-82612186D01*
X150769475Y-82633140D01*
X150748058Y-82639201D01*
X150720124Y-82648477D01*
X150689040Y-82663354D01*
X150652262Y-82685719D01*
X150607243Y-82717462D01*
X150551438Y-82760470D01*
X150482302Y-82816632D01*
X150397290Y-82887835D01*
X150293856Y-82975970D01*
X150292111Y-82977465D01*
X150248244Y-83013313D01*
X150210949Y-83040639D01*
X150186358Y-83055060D01*
X150181841Y-83056249D01*
X150162184Y-83047672D01*
X150129189Y-83025098D01*
X150093653Y-82996472D01*
X150055254Y-82961482D01*
X150034363Y-82934937D01*
X150025938Y-82908312D01*
X150024800Y-82880056D01*
X150027224Y-82849504D01*
X150036626Y-82824895D01*
X150057700Y-82799225D01*
X150095139Y-82765489D01*
X150109897Y-82753056D01*
X150146939Y-82719879D01*
X150198616Y-82670632D01*
X150260368Y-82609928D01*
X150327631Y-82542385D01*
X150395845Y-82472617D01*
X150460448Y-82405240D01*
X150516877Y-82344869D01*
X150553579Y-82304141D01*
X150576387Y-82270573D01*
X150586639Y-82230734D01*
X150588392Y-82191252D01*
X150577422Y-82112006D01*
X150544378Y-82050238D01*
X150488867Y-82005457D01*
X150419111Y-81979207D01*
X150389224Y-81961157D01*
X150352684Y-81922778D01*
X150329861Y-81892261D01*
X150299851Y-81845486D01*
X150285280Y-81812011D01*
X150283144Y-81783775D01*
X150285093Y-81772160D01*
X150306293Y-81729964D01*
X150347201Y-81687764D01*
X150400116Y-81652262D01*
X150444197Y-81633708D01*
X150472054Y-81626267D01*
X150493109Y-81626876D01*
G36*
X146233922Y-81945692D02*
G01*
X146300467Y-81955425D01*
X146321426Y-81961407D01*
X146397635Y-81995867D01*
X146467993Y-82043470D01*
X146524496Y-82098036D01*
X146553278Y-82140421D01*
X146571443Y-82185180D01*
X146589375Y-82244179D01*
X146601685Y-82297398D01*
X146614763Y-82355143D01*
X146630975Y-82395963D01*
X146655770Y-82431061D01*
X146678669Y-82455705D01*
X146736768Y-82514905D01*
X146732912Y-82769524D01*
X146729055Y-83024143D01*
X146520842Y-82849794D01*
X146312628Y-82675444D01*
X146192305Y-82675444D01*
X146103991Y-82671453D01*
X146035097Y-82657671D01*
X145977721Y-82631383D01*
X145923963Y-82589878D01*
X145912943Y-82579505D01*
X145850498Y-82505983D01*
X145813518Y-82428327D01*
X145799302Y-82340616D01*
X145799007Y-82329722D01*
X145797722Y-82245056D01*
X145850351Y-82240693D01*
X145883107Y-82241007D01*
X145911668Y-82251068D01*
X145945070Y-82275136D01*
X145970295Y-82297261D01*
X146023147Y-82345082D01*
X146059508Y-82376738D01*
X146084089Y-82394694D01*
X146101602Y-82401410D01*
X146116758Y-82399348D01*
X146134268Y-82390972D01*
X146141922Y-82386954D01*
X146189221Y-82347547D01*
X146219395Y-82290850D01*
X146228197Y-82235173D01*
X146225519Y-82211285D01*
X146214898Y-82187766D01*
X146192593Y-82159584D01*
X146154865Y-82121707D01*
X146119200Y-82088495D01*
X146070870Y-82043832D01*
X146040806Y-82014209D01*
X146026454Y-81995612D01*
X146025262Y-81984027D01*
X146034676Y-81975440D01*
X146043984Y-81970254D01*
X146094793Y-81953454D01*
X146161735Y-81945151D01*
X146233922Y-81945692D01*
G37*
X146233922Y-81945692D02*
X146300467Y-81955425D01*
X146321426Y-81961407D01*
X146397635Y-81995867D01*
X146467993Y-82043470D01*
X146524496Y-82098036D01*
X146553278Y-82140421D01*
X146571443Y-82185180D01*
X146589375Y-82244179D01*
X146601685Y-82297398D01*
X146614763Y-82355143D01*
X146630975Y-82395963D01*
X146655770Y-82431061D01*
X146678669Y-82455705D01*
X146736768Y-82514905D01*
X146732912Y-82769524D01*
X146729055Y-83024143D01*
X146520842Y-82849794D01*
X146312628Y-82675444D01*
X146192305Y-82675444D01*
X146103991Y-82671453D01*
X146035097Y-82657671D01*
X145977721Y-82631383D01*
X145923963Y-82589878D01*
X145912943Y-82579505D01*
X145850498Y-82505983D01*
X145813518Y-82428327D01*
X145799302Y-82340616D01*
X145799007Y-82329722D01*
X145797722Y-82245056D01*
X145850351Y-82240693D01*
X145883107Y-82241007D01*
X145911668Y-82251068D01*
X145945070Y-82275136D01*
X145970295Y-82297261D01*
X146023147Y-82345082D01*
X146059508Y-82376738D01*
X146084089Y-82394694D01*
X146101602Y-82401410D01*
X146116758Y-82399348D01*
X146134268Y-82390972D01*
X146141922Y-82386954D01*
X146189221Y-82347547D01*
X146219395Y-82290850D01*
X146228197Y-82235173D01*
X146225519Y-82211285D01*
X146214898Y-82187766D01*
X146192593Y-82159584D01*
X146154865Y-82121707D01*
X146119200Y-82088495D01*
X146070870Y-82043832D01*
X146040806Y-82014209D01*
X146026454Y-81995612D01*
X146025262Y-81984027D01*
X146034676Y-81975440D01*
X146043984Y-81970254D01*
X146094793Y-81953454D01*
X146161735Y-81945151D01*
X146233922Y-81945692D01*
%TD*%
D15*
X151019569Y-139260069D02*
X151026998Y-137800646D01*
X151024684Y-137775858D01*
X151017579Y-137751997D01*
X151005954Y-137729981D01*
X150990259Y-137710656D01*
X150971094Y-137694764D01*
X150949197Y-137682916D01*
X150925410Y-137675568D01*
X150900000Y-137673000D01*
X146100000Y-137673000D01*
X146075224Y-137675440D01*
X146051399Y-137682667D01*
X146029443Y-137694403D01*
X146010197Y-137710197D01*
X145994403Y-137729443D01*
X145982667Y-137751399D01*
X145975440Y-137775224D01*
X145973002Y-137800652D01*
X145980426Y-139246776D01*
X142457404Y-137127000D01*
X154544794Y-137127000D01*
X151019569Y-139260069D01*
D13*
G36*
X151019569Y-139260069D02*
G01*
X151026998Y-137800646D01*
X151024684Y-137775858D01*
X151017579Y-137751997D01*
X151005954Y-137729981D01*
X150990259Y-137710656D01*
X150971094Y-137694764D01*
X150949197Y-137682916D01*
X150925410Y-137675568D01*
X150900000Y-137673000D01*
X146100000Y-137673000D01*
X146075224Y-137675440D01*
X146051399Y-137682667D01*
X146029443Y-137694403D01*
X146010197Y-137710197D01*
X145994403Y-137729443D01*
X145982667Y-137751399D01*
X145975440Y-137775224D01*
X145973002Y-137800652D01*
X145980426Y-139246776D01*
X142457404Y-137127000D01*
X154544794Y-137127000D01*
X151019569Y-139260069D01*
G37*
D15*
X157911989Y-132873000D02*
X139088011Y-132873000D01*
X137683261Y-129127000D01*
X159316739Y-129127000D01*
X157911989Y-132873000D01*
D13*
G36*
X157911989Y-132873000D02*
G01*
X139088011Y-132873000D01*
X137683261Y-129127000D01*
X159316739Y-129127000D01*
X157911989Y-132873000D01*
G37*
D15*
X159193394Y-124873000D02*
X137806606Y-124873000D01*
X141552606Y-121127000D01*
X155447394Y-121127000D01*
X159193394Y-124873000D01*
D13*
G36*
X159193394Y-124873000D02*
G01*
X137806606Y-124873000D01*
X141552606Y-121127000D01*
X155447394Y-121127000D01*
X159193394Y-124873000D01*
G37*
%LPC*%
%TO.C,SW1*%
G36*
G01*
X130950000Y-119900000D02*
X130050000Y-119900000D01*
G75*
G02*
X129600000Y-119450000I0J450000D01*
G01*
X129600000Y-118550000D01*
G75*
G02*
X130050000Y-118100000I450000J0D01*
G01*
X130950000Y-118100000D01*
G75*
G02*
X131400000Y-118550000I0J-450000D01*
G01*
X131400000Y-119450000D01*
G75*
G02*
X130950000Y-119900000I-450000J0D01*
G01*
G37*
D16*
X130500000Y-116500000D03*
X130500000Y-114000000D03*
%TD*%
%TO.C,M1*%
X147230000Y-90000000D03*
X149770000Y-90000000D03*
%TD*%
D17*
%TO.C,BT2*%
X156916168Y-118348329D03*
X140051671Y-101483832D03*
%TD*%
D16*
%TO.C,D1*%
X141500000Y-81770000D03*
G36*
G01*
X141950000Y-80130000D02*
X141050000Y-80130000D01*
G75*
G02*
X140600000Y-79680000I0J450000D01*
G01*
X140600000Y-78780000D01*
G75*
G02*
X141050000Y-78330000I450000J0D01*
G01*
X141950000Y-78330000D01*
G75*
G02*
X142400000Y-78780000I0J-450000D01*
G01*
X142400000Y-79680000D01*
G75*
G02*
X141950000Y-80130000I-450000J0D01*
G01*
G37*
%TD*%
%TO.C,D2*%
G36*
G01*
X155950000Y-80130000D02*
X155050000Y-80130000D01*
G75*
G02*
X154600000Y-79680000I0J450000D01*
G01*
X154600000Y-78780000D01*
G75*
G02*
X155050000Y-78330000I450000J0D01*
G01*
X155950000Y-78330000D01*
G75*
G02*
X156400000Y-78780000I0J-450000D01*
G01*
X156400000Y-79680000D01*
G75*
G02*
X155950000Y-80130000I-450000J0D01*
G01*
G37*
X155500000Y-81770000D03*
%TD*%
%TO.C,R2*%
X158000000Y-83190000D03*
X158000000Y-90810000D03*
%TD*%
%TO.C,Q1*%
X148500000Y-81460000D03*
X145960000Y-84000000D03*
G36*
G01*
X151940000Y-83550000D02*
X151940000Y-84450000D01*
G75*
G02*
X151490000Y-84900000I-450000J0D01*
G01*
X150590000Y-84900000D01*
G75*
G02*
X150140000Y-84450000I0J450000D01*
G01*
X150140000Y-83550000D01*
G75*
G02*
X150590000Y-83100000I450000J0D01*
G01*
X151490000Y-83100000D01*
G75*
G02*
X151940000Y-83550000I0J-450000D01*
G01*
G37*
%TD*%
%TO.C,R1*%
X139000000Y-83190000D03*
X139000000Y-90810000D03*
%TD*%
%TO.C,R3*%
X144690000Y-78500000D03*
X152310000Y-78500000D03*
%TD*%
%TO.C,R5*%
X144690000Y-87500000D03*
X152310000Y-87500000D03*
%TD*%
%TO.C,U1*%
G36*
G01*
X153510000Y-124700000D02*
X153510000Y-125300000D01*
G75*
G02*
X153210000Y-125600000I-300000J0D01*
G01*
X151410000Y-125600000D01*
G75*
G02*
X151110000Y-125300000I0J300000D01*
G01*
X151110000Y-124700000D01*
G75*
G02*
X151410000Y-124400000I300000J0D01*
G01*
X153210000Y-124400000D01*
G75*
G02*
X153510000Y-124700000I0J-300000D01*
G01*
G37*
D18*
X144690000Y-132620000D03*
X152310000Y-127540000D03*
X144690000Y-130080000D03*
X152310000Y-130080000D03*
X144690000Y-127540000D03*
X152310000Y-132620000D03*
X144690000Y-125000000D03*
%TD*%
%TO.C,C1*%
G36*
G01*
X158650000Y-129850000D02*
X156850000Y-129850000D01*
G75*
G02*
X156550000Y-129550000I0J300000D01*
G01*
X156550000Y-128950000D01*
G75*
G02*
X156850000Y-128650000I300000J0D01*
G01*
X158650000Y-128650000D01*
G75*
G02*
X158950000Y-128950000I0J-300000D01*
G01*
X158950000Y-129550000D01*
G75*
G02*
X158650000Y-129850000I-300000J0D01*
G01*
G37*
X157750000Y-126750000D03*
%TD*%
D19*
%TO.C,C2*%
X147250000Y-136500000D03*
X149750000Y-136500000D03*
%TD*%
D20*
%TO.C,G2*%
X148500000Y-75500000D03*
%TD*%
D21*
%TO.C,G3*%
X135500000Y-123000000D03*
%TD*%
%TO.C,G4*%
X137500000Y-97000000D03*
%TD*%
%TO.C,G5*%
X161500000Y-123000000D03*
%TD*%
%TO.C,G6*%
X159500000Y-97000000D03*
%TD*%
%TO.C,G7*%
X133500000Y-110000000D03*
%TD*%
%TO.C,G8*%
X163500000Y-110000000D03*
%TD*%
D22*
%TO.C,G9*%
X148500000Y-141500000D03*
%TD*%
D16*
%TO.C,R4*%
X138500000Y-132810000D03*
X138500000Y-125190000D03*
%TD*%
%TO.C,R6*%
X141500000Y-126690000D03*
X141500000Y-134310000D03*
%TD*%
D23*
%TO.C,BT1*%
X139450000Y-110000000D03*
X159950000Y-110000000D03*
D16*
X154199000Y-105238000D03*
X145950000Y-119525000D03*
X137701000Y-105238000D03*
%TD*%
D15*
X150377886Y-111034890D02*
X150381086Y-111044593D01*
X153316739Y-118873000D01*
X143683261Y-118873000D01*
X146618914Y-111044593D01*
X146622114Y-111034890D01*
X148500000Y-104462289D01*
X150377886Y-111034890D01*
D13*
G36*
X150377886Y-111034890D02*
G01*
X150381086Y-111044593D01*
X153316739Y-118873000D01*
X143683261Y-118873000D01*
X146618914Y-111044593D01*
X146622114Y-111034890D01*
X148500000Y-104462289D01*
X150377886Y-111034890D01*
G37*
D15*
X146622778Y-93501995D02*
X146373131Y-98994233D01*
X146373000Y-99000000D01*
X146373000Y-101990290D01*
X145874477Y-105230689D01*
X145873981Y-105234248D01*
X145624933Y-107226636D01*
X145126893Y-109218794D01*
X144557476Y-111440834D01*
X143881501Y-113480993D01*
X142886378Y-115693010D01*
X141643738Y-117929763D01*
X139905438Y-120164719D01*
X138093622Y-121901257D01*
X135940758Y-123386579D01*
X133976970Y-124123000D01*
X131776067Y-124123000D01*
X130067896Y-123390927D01*
X128352122Y-121920263D01*
X127371199Y-119958418D01*
X126877155Y-117488196D01*
X126907677Y-115008205D01*
X127374411Y-111029495D01*
X128366080Y-108302404D01*
X129860241Y-105563109D01*
X131356296Y-103069684D01*
X132602479Y-101325028D01*
X134096182Y-99333424D01*
X136586822Y-96842784D01*
X138580026Y-95098731D01*
X140570956Y-93605533D01*
X143061166Y-92111407D01*
X146387860Y-90448060D01*
X146622778Y-93501995D01*
D13*
G36*
X146622778Y-93501995D02*
G01*
X146373131Y-98994233D01*
X146373000Y-99000000D01*
X146373000Y-101990290D01*
X145874477Y-105230689D01*
X145873981Y-105234248D01*
X145624933Y-107226636D01*
X145126893Y-109218794D01*
X144557476Y-111440834D01*
X143881501Y-113480993D01*
X142886378Y-115693010D01*
X141643738Y-117929763D01*
X139905438Y-120164719D01*
X138093622Y-121901257D01*
X135940758Y-123386579D01*
X133976970Y-124123000D01*
X131776067Y-124123000D01*
X130067896Y-123390927D01*
X128352122Y-121920263D01*
X127371199Y-119958418D01*
X126877155Y-117488196D01*
X126907677Y-115008205D01*
X127374411Y-111029495D01*
X128366080Y-108302404D01*
X129860241Y-105563109D01*
X131356296Y-103069684D01*
X132602479Y-101325028D01*
X134096182Y-99333424D01*
X136586822Y-96842784D01*
X138580026Y-95098731D01*
X140570956Y-93605533D01*
X143061166Y-92111407D01*
X146387860Y-90448060D01*
X146622778Y-93501995D01*
G37*
D15*
X153688834Y-92111407D02*
X156179044Y-93605533D01*
X158169974Y-95098731D01*
X160163178Y-96842784D01*
X162653818Y-99333424D01*
X164147521Y-101325029D01*
X165393704Y-103069684D01*
X166889759Y-105563109D01*
X168383920Y-108302405D01*
X169375589Y-111029495D01*
X169842323Y-115008205D01*
X169872845Y-117488196D01*
X169378801Y-119958418D01*
X168397878Y-121920264D01*
X166682105Y-123390926D01*
X164973933Y-124123001D01*
X162773030Y-124123000D01*
X160809242Y-123386579D01*
X158656378Y-121901257D01*
X156844563Y-120164719D01*
X155106262Y-117929762D01*
X153863622Y-115693010D01*
X152868499Y-113480993D01*
X152192525Y-111440834D01*
X151623107Y-109218794D01*
X151125068Y-107226636D01*
X150876019Y-105234248D01*
X150875523Y-105230689D01*
X150377000Y-101990290D01*
X150377000Y-99000000D01*
X150376869Y-98994233D01*
X150127222Y-93501995D01*
X150362140Y-90448060D01*
X153688834Y-92111407D01*
D13*
G36*
X153688834Y-92111407D02*
G01*
X156179044Y-93605533D01*
X158169974Y-95098731D01*
X160163178Y-96842784D01*
X162653818Y-99333424D01*
X164147521Y-101325029D01*
X165393704Y-103069684D01*
X166889759Y-105563109D01*
X168383920Y-108302405D01*
X169375589Y-111029495D01*
X169842323Y-115008205D01*
X169872845Y-117488196D01*
X169378801Y-119958418D01*
X168397878Y-121920264D01*
X166682105Y-123390926D01*
X164973933Y-124123001D01*
X162773030Y-124123000D01*
X160809242Y-123386579D01*
X158656378Y-121901257D01*
X156844563Y-120164719D01*
X155106262Y-117929762D01*
X153863622Y-115693010D01*
X152868499Y-113480993D01*
X152192525Y-111440834D01*
X151623107Y-109218794D01*
X151125068Y-107226636D01*
X150876019Y-105234248D01*
X150875523Y-105230689D01*
X150377000Y-101990290D01*
X150377000Y-99000000D01*
X150376869Y-98994233D01*
X150127222Y-93501995D01*
X150362140Y-90448060D01*
X153688834Y-92111407D01*
G37*
M02*
