%TF.GenerationSoftware,KiCad,Pcbnew,5.1.9-73d0e3b20d~88~ubuntu20.04.1*%
%TF.CreationDate,2021-08-31T18:27:40+05:30*%
%TF.ProjectId,MAP6,4d415036-2e6b-4696-9361-645f70636258,1*%
%TF.SameCoordinates,Original*%
%TF.FileFunction,Soldermask,Top*%
%TF.FilePolarity,Negative*%
%FSLAX46Y46*%
G04 Gerber Fmt 4.6, Leading zero omitted, Abs format (unit mm)*
G04 Created by KiCad (PCBNEW 5.1.9-73d0e3b20d~88~ubuntu20.04.1) date 2021-08-31 18:27:40*
%MOMM*%
%LPD*%
G01*
G04 APERTURE LIST*
%ADD10C,1.800000*%
%ADD11R,0.760000X1.940000*%
%ADD12O,2.400000X1.200000*%
%ADD13C,2.500000*%
%ADD14C,3.048000*%
%ADD15C,2.036000*%
%ADD16C,1.400000*%
%ADD17C,0.254000*%
%ADD18C,0.050800*%
G04 APERTURE END LIST*
D10*
%TO.C,R2*%
X157000000Y-84190000D03*
X157000000Y-91810000D03*
%TD*%
D11*
%TO.C,M1*%
X147900000Y-97480000D03*
X149100000Y-97480000D03*
D10*
X147230000Y-96000000D03*
X149770000Y-96000000D03*
%TD*%
%TO.C,Q1*%
X148500000Y-89460000D03*
X145960000Y-92000000D03*
G36*
G01*
X151940000Y-91550000D02*
X151940000Y-92450000D01*
G75*
G02*
X151490000Y-92900000I-450000J0D01*
G01*
X150590000Y-92900000D01*
G75*
G02*
X150140000Y-92450000I0J450000D01*
G01*
X150140000Y-91550000D01*
G75*
G02*
X150590000Y-91100000I450000J0D01*
G01*
X151490000Y-91100000D01*
G75*
G02*
X151940000Y-91550000I0J-450000D01*
G01*
G37*
%TD*%
%TO.C,R1*%
X140000000Y-84190000D03*
X140000000Y-91810000D03*
%TD*%
%TO.C,R3*%
X144690000Y-84500000D03*
X152310000Y-84500000D03*
%TD*%
%TO.C,R5*%
X165500000Y-107190000D03*
X165500000Y-114810000D03*
%TD*%
%TO.C,U1*%
G36*
G01*
X153510000Y-124700000D02*
X153510000Y-125300000D01*
G75*
G02*
X153210000Y-125600000I-300000J0D01*
G01*
X151410000Y-125600000D01*
G75*
G02*
X151110000Y-125300000I0J300000D01*
G01*
X151110000Y-124700000D01*
G75*
G02*
X151410000Y-124400000I300000J0D01*
G01*
X153210000Y-124400000D01*
G75*
G02*
X153510000Y-124700000I0J-300000D01*
G01*
G37*
D12*
X144690000Y-132620000D03*
X152310000Y-127540000D03*
X144690000Y-130080000D03*
X152310000Y-130080000D03*
X144690000Y-127540000D03*
X152310000Y-132620000D03*
X144690000Y-125000000D03*
%TD*%
%TO.C,C1*%
G36*
G01*
X158900000Y-130600000D02*
X157100000Y-130600000D01*
G75*
G02*
X156800000Y-130300000I0J300000D01*
G01*
X156800000Y-129700000D01*
G75*
G02*
X157100000Y-129400000I300000J0D01*
G01*
X158900000Y-129400000D01*
G75*
G02*
X159200000Y-129700000I0J-300000D01*
G01*
X159200000Y-130300000D01*
G75*
G02*
X158900000Y-130600000I-300000J0D01*
G01*
G37*
X158000000Y-127500000D03*
%TD*%
%TO.C,C2*%
X139000000Y-130000000D03*
X139000000Y-127500000D03*
%TD*%
%TO.C,SW1*%
G36*
G01*
X129950000Y-114400000D02*
X129050000Y-114400000D01*
G75*
G02*
X128600000Y-113950000I0J450000D01*
G01*
X128600000Y-113050000D01*
G75*
G02*
X129050000Y-112600000I450000J0D01*
G01*
X129950000Y-112600000D01*
G75*
G02*
X130400000Y-113050000I0J-450000D01*
G01*
X130400000Y-113950000D01*
G75*
G02*
X129950000Y-114400000I-450000J0D01*
G01*
G37*
D10*
X129500000Y-111000000D03*
X129500000Y-108500000D03*
X126200000Y-113500000D03*
X126200000Y-111000000D03*
X126200000Y-108500000D03*
%TD*%
%TO.C,D2*%
X155500000Y-81770000D03*
X155500000Y-79230000D03*
%TD*%
%TO.C,D1*%
X141500000Y-79230000D03*
X141500000Y-81770000D03*
%TD*%
D13*
%TO.C,BT1*%
X161500000Y-111000000D03*
X134500000Y-111000000D03*
X136700000Y-111000000D03*
X156600000Y-111000000D03*
%TD*%
D14*
%TO.C,G2*%
X148500000Y-75500000D03*
%TD*%
D15*
%TO.C,G3*%
X137500000Y-120000000D03*
%TD*%
%TO.C,G4*%
X137500000Y-93000000D03*
%TD*%
%TO.C,G5*%
X159500000Y-120000000D03*
%TD*%
%TO.C,G6*%
X159500000Y-93000000D03*
%TD*%
%TO.C,G7*%
X137500000Y-105000000D03*
%TD*%
%TO.C,G8*%
X159500000Y-105000000D03*
%TD*%
D16*
%TO.C,G9*%
X148500000Y-141250000D03*
%TD*%
D10*
%TO.C,R4*%
X152310000Y-139000000D03*
X144690000Y-139000000D03*
%TD*%
%TO.C,R6*%
X144690000Y-136000000D03*
X152310000Y-136000000D03*
%TD*%
D17*
X150377886Y-111034890D02*
X150381086Y-111044593D01*
X153316739Y-118873000D01*
X143683261Y-118873000D01*
X146618914Y-111044593D01*
X146622114Y-111034890D01*
X148500000Y-104462289D01*
X150377886Y-111034890D01*
D18*
G36*
X150377886Y-111034890D02*
G01*
X150381086Y-111044593D01*
X153316739Y-118873000D01*
X143683261Y-118873000D01*
X146618914Y-111044593D01*
X146622114Y-111034890D01*
X148500000Y-104462289D01*
X150377886Y-111034890D01*
G37*
D17*
X146622778Y-93501995D02*
X146373131Y-98994233D01*
X146373000Y-99000000D01*
X146373000Y-101990290D01*
X145874477Y-105230689D01*
X145873981Y-105234248D01*
X145624933Y-107226636D01*
X145126893Y-109218794D01*
X144557476Y-111440834D01*
X143881501Y-113480993D01*
X142886378Y-115693010D01*
X141643738Y-117929763D01*
X139905438Y-120164719D01*
X138093622Y-121901257D01*
X135940758Y-123386579D01*
X133976970Y-124123000D01*
X131776067Y-124123000D01*
X130067896Y-123390927D01*
X128352122Y-121920263D01*
X127371199Y-119958418D01*
X126877155Y-117488196D01*
X126907677Y-115008205D01*
X127374411Y-111029495D01*
X128366080Y-108302404D01*
X129860241Y-105563109D01*
X131356296Y-103069684D01*
X132602479Y-101325028D01*
X134096182Y-99333424D01*
X136586822Y-96842784D01*
X138580026Y-95098731D01*
X140570956Y-93605533D01*
X143061166Y-92111407D01*
X146387860Y-90448060D01*
X146622778Y-93501995D01*
D18*
G36*
X146622778Y-93501995D02*
G01*
X146373131Y-98994233D01*
X146373000Y-99000000D01*
X146373000Y-101990290D01*
X145874477Y-105230689D01*
X145873981Y-105234248D01*
X145624933Y-107226636D01*
X145126893Y-109218794D01*
X144557476Y-111440834D01*
X143881501Y-113480993D01*
X142886378Y-115693010D01*
X141643738Y-117929763D01*
X139905438Y-120164719D01*
X138093622Y-121901257D01*
X135940758Y-123386579D01*
X133976970Y-124123000D01*
X131776067Y-124123000D01*
X130067896Y-123390927D01*
X128352122Y-121920263D01*
X127371199Y-119958418D01*
X126877155Y-117488196D01*
X126907677Y-115008205D01*
X127374411Y-111029495D01*
X128366080Y-108302404D01*
X129860241Y-105563109D01*
X131356296Y-103069684D01*
X132602479Y-101325028D01*
X134096182Y-99333424D01*
X136586822Y-96842784D01*
X138580026Y-95098731D01*
X140570956Y-93605533D01*
X143061166Y-92111407D01*
X146387860Y-90448060D01*
X146622778Y-93501995D01*
G37*
D17*
X153688834Y-92111407D02*
X156179044Y-93605533D01*
X158169974Y-95098731D01*
X160163178Y-96842784D01*
X162653818Y-99333424D01*
X164147521Y-101325029D01*
X165393704Y-103069684D01*
X166889759Y-105563109D01*
X168383920Y-108302405D01*
X169375589Y-111029495D01*
X169842323Y-115008205D01*
X169872845Y-117488196D01*
X169378801Y-119958418D01*
X168397878Y-121920264D01*
X166682105Y-123390926D01*
X164973933Y-124123001D01*
X162773030Y-124123000D01*
X160809242Y-123386579D01*
X158656378Y-121901257D01*
X156844563Y-120164719D01*
X155106262Y-117929762D01*
X153863622Y-115693010D01*
X152868499Y-113480993D01*
X152192525Y-111440834D01*
X151623107Y-109218794D01*
X151125068Y-107226636D01*
X150876019Y-105234248D01*
X150875523Y-105230689D01*
X150377000Y-101990290D01*
X150377000Y-99000000D01*
X150376869Y-98994233D01*
X150127222Y-93501995D01*
X150362140Y-90448060D01*
X153688834Y-92111407D01*
D18*
G36*
X153688834Y-92111407D02*
G01*
X156179044Y-93605533D01*
X158169974Y-95098731D01*
X160163178Y-96842784D01*
X162653818Y-99333424D01*
X164147521Y-101325029D01*
X165393704Y-103069684D01*
X166889759Y-105563109D01*
X168383920Y-108302405D01*
X169375589Y-111029495D01*
X169842323Y-115008205D01*
X169872845Y-117488196D01*
X169378801Y-119958418D01*
X168397878Y-121920264D01*
X166682105Y-123390926D01*
X164973933Y-124123001D01*
X162773030Y-124123000D01*
X160809242Y-123386579D01*
X158656378Y-121901257D01*
X156844563Y-120164719D01*
X155106262Y-117929762D01*
X153863622Y-115693010D01*
X152868499Y-113480993D01*
X152192525Y-111440834D01*
X151623107Y-109218794D01*
X151125068Y-107226636D01*
X150876019Y-105234248D01*
X150875523Y-105230689D01*
X150377000Y-101990290D01*
X150377000Y-99000000D01*
X150376869Y-98994233D01*
X150127222Y-93501995D01*
X150362140Y-90448060D01*
X153688834Y-92111407D01*
G37*
M02*
