  0
SECTION
  2
HEADER
  9
$ANGBASE
  50
0.0
  9
$ANGDIR
  70
1
  9
$MEASUREMENT
  70
0
  0
ENDSEC
  0
SECTION
  2
TABLES
  0
TABLE
  2
LTYPE
  70
4
  0
LTYPE
  5
40F
  2
CONTINUOUS
  70
0
  3
Solid line
  72
65
  73
0
  40
0.0
  0
LTYPE
  5
410
  2
DASHDOT
 70
0
  3
Dash Dot ____ _ ____ _
 72
65
 73
4
 40
2.0
 49
1.25
 49
-0.25
 49
0.25
 49
-0.25
  0
LTYPE
  5
411
  2
DASHED
 70
0
  3
Dashed __ __ __ __ __
 72
65
 73
2
 40
0.75
 49
0.5
 49
-0.25
  0
LTYPE
  5
43B
  2
DOTTED
 70
0
  3
Dotted .  .  .  .
 72
65
 73
2
 40
0.2
 49
0.0
 49
-0.2
  0
ENDTAB
  0
TABLE
  2
STYLE
  70
4
  0
STYLE
  2
KICAD
  70
0
  40
0
  41
1
  42
1
  50
0
  71
0
  3
isocp.shx
  0
STYLE
  2
KICADB
  70
0
  40
0
  41
1
  42
1
  50
0
  71
0
  3
isocp.shx
  0
STYLE
  2
KICADI
  70
0
  40
0
  41
1
  42
1
  50
15
  71
0
  3
isocp.shx
  0
STYLE
  2
KICADBI
  70
0
  40
0
  41
1
  42
1
  50
15
  71
0
  3
isocp.shx
  0
ENDTAB
  0
TABLE
  2
LAYER
  70
1
  0
LAYER
  2
BLACK
  70
0
  62
7
  6
CONTINUOUS
  0
ENDTAB
  0
ENDSEC
  0
SECTION
  2
ENTITIES
0
LINE
8
BLACK
6
CONTINUOUS
10
5.8545
20
-5.54437
11
5.85951
21
-5.54644
0
LINE
8
BLACK
6
CONTINUOUS
10
5.85951
20
-5.54644
11
5.86402
21
-5.54946
0
LINE
8
BLACK
6
CONTINUOUS
10
5.86402
20
-5.54946
11
5.86786
21
-5.5533
0
LINE
8
BLACK
6
CONTINUOUS
10
5.86786
20
-5.5533
11
5.87088
21
-5.55781
0
LINE
8
BLACK
6
CONTINUOUS
10
5.87088
20
-5.55781
11
5.87296
21
-5.56283
0
LINE
8
BLACK
6
CONTINUOUS
10
5.87296
20
-5.56283
11
5.87402
21
-5.56815
0
LINE
8
BLACK
6
CONTINUOUS
10
5.87402
20
-5.56815
11
5.87402
21
-5.57358
0
LINE
8
BLACK
6
CONTINUOUS
10
5.87402
20
-5.57358
11
5.87296
21
-5.5789
0
LINE
8
BLACK
6
CONTINUOUS
10
5.87296
20
-5.5789
11
5.87088
21
-5.58392
0
LINE
8
BLACK
6
CONTINUOUS
10
5.87088
20
-5.58392
11
5.86786
21
-5.58843
0
LINE
8
BLACK
6
CONTINUOUS
10
5.86786
20
-5.58843
11
5.86402
21
-5.59227
0
LINE
8
BLACK
6
CONTINUOUS
10
5.86402
20
-5.59227
11
5.85951
21
-5.59529
0
LINE
8
BLACK
6
CONTINUOUS
10
5.85951
20
-5.59529
11
5.8545
21
-5.59737
0
LINE
8
BLACK
6
CONTINUOUS
10
5.8545
20
-5.59737
11
5.84917
21
-5.59843
0
LINE
8
BLACK
6
CONTINUOUS
10
5.84917
20
-5.59843
11
5.84374
21
-5.59843
0
LINE
8
BLACK
6
CONTINUOUS
10
5.84374
20
-5.59843
11
5.83842
21
-5.59737
0
LINE
8
BLACK
6
CONTINUOUS
10
5.83842
20
-5.59737
11
5.8334
21
-5.59529
0
LINE
8
BLACK
6
CONTINUOUS
10
5.8334
20
-5.59529
11
5.82889
21
-5.59227
0
LINE
8
BLACK
6
CONTINUOUS
10
5.82889
20
-5.59227
11
5.82505
21
-5.58843
0
LINE
8
BLACK
6
CONTINUOUS
10
5.82505
20
-5.58843
11
5.82203
21
-5.58392
0
LINE
8
BLACK
6
CONTINUOUS
10
5.82203
20
-5.58392
11
5.81996
21
-5.5789
0
LINE
8
BLACK
6
CONTINUOUS
10
5.81996
20
-5.5789
11
5.8189
21
-5.57358
0
LINE
8
BLACK
6
CONTINUOUS
10
5.8189
20
-5.57358
11
5.8189
21
-5.56815
0
LINE
8
BLACK
6
CONTINUOUS
10
5.8189
20
-5.56815
11
5.81996
21
-5.56283
0
LINE
8
BLACK
6
CONTINUOUS
10
5.81996
20
-5.56283
11
5.82203
21
-5.55781
0
LINE
8
BLACK
6
CONTINUOUS
10
5.82203
20
-5.55781
11
5.82505
21
-5.5533
0
LINE
8
BLACK
6
CONTINUOUS
10
5.82505
20
-5.5533
11
5.82889
21
-5.54946
0
LINE
8
BLACK
6
CONTINUOUS
10
5.82889
20
-5.54946
11
5.8334
21
-5.54644
0
LINE
8
BLACK
6
CONTINUOUS
10
5.8334
20
-5.54644
11
5.83842
21
-5.54437
0
LINE
8
BLACK
6
CONTINUOUS
10
5.83842
20
-5.54437
11
5.84374
21
-5.54331
0
LINE
8
BLACK
6
CONTINUOUS
10
5.84374
20
-5.54331
11
5.84917
21
-5.54331
0
LINE
8
BLACK
6
CONTINUOUS
10
5.84917
20
-5.54331
11
5.8545
21
-5.54437
0
LINE
8
BLACK
6
CONTINUOUS
10
5.70679
20
-5.43837
11
5.71324
21
-5.44104
0
LINE
8
BLACK
6
CONTINUOUS
10
5.71324
20
-5.44104
11
5.71904
21
-5.44492
0
LINE
8
BLACK
6
CONTINUOUS
10
5.71904
20
-5.44492
11
5.72398
21
-5.44985
0
LINE
8
BLACK
6
CONTINUOUS
10
5.72398
20
-5.44985
11
5.72786
21
-5.45566
0
LINE
8
BLACK
6
CONTINUOUS
10
5.72786
20
-5.45566
11
5.73053
21
-5.46211
0
LINE
8
BLACK
6
CONTINUOUS
10
5.73053
20
-5.46211
11
5.73189
21
-5.46895
0
LINE
8
BLACK
6
CONTINUOUS
10
5.73189
20
-5.46895
11
5.73189
21
-5.47593
0
LINE
8
BLACK
6
CONTINUOUS
10
5.73189
20
-5.47593
11
5.73053
21
-5.48278
0
LINE
8
BLACK
6
CONTINUOUS
10
5.73053
20
-5.48278
11
5.72786
21
-5.48922
0
LINE
8
BLACK
6
CONTINUOUS
10
5.72786
20
-5.48922
11
5.72398
21
-5.49503
0
LINE
8
BLACK
6
CONTINUOUS
10
5.72398
20
-5.49503
11
5.71904
21
-5.49996
0
LINE
8
BLACK
6
CONTINUOUS
10
5.71904
20
-5.49996
11
5.71324
21
-5.50384
0
LINE
8
BLACK
6
CONTINUOUS
10
5.71324
20
-5.50384
11
5.70679
21
-5.50651
0
LINE
8
BLACK
6
CONTINUOUS
10
5.70679
20
-5.50651
11
5.69995
21
-5.50787
0
LINE
8
BLACK
6
CONTINUOUS
10
5.69995
20
-5.50787
11
5.69297
21
-5.50787
0
LINE
8
BLACK
6
CONTINUOUS
10
5.69297
20
-5.50787
11
5.68612
21
-5.50651
0
LINE
8
BLACK
6
CONTINUOUS
10
5.68612
20
-5.50651
11
5.67967
21
-5.50384
0
LINE
8
BLACK
6
CONTINUOUS
10
5.67967
20
-5.50384
11
5.67387
21
-5.49996
0
LINE
8
BLACK
6
CONTINUOUS
10
5.67387
20
-5.49996
11
5.66893
21
-5.49503
0
LINE
8
BLACK
6
CONTINUOUS
10
5.66893
20
-5.49503
11
5.66506
21
-5.48922
0
LINE
8
BLACK
6
CONTINUOUS
10
5.66506
20
-5.48922
11
5.66239
21
-5.48278
0
LINE
8
BLACK
6
CONTINUOUS
10
5.66239
20
-5.48278
11
5.66102
21
-5.47593
0
LINE
8
BLACK
6
CONTINUOUS
10
5.66102
20
-5.47593
11
5.66102
21
-5.46895
0
LINE
8
BLACK
6
CONTINUOUS
10
5.66102
20
-5.46895
11
5.66239
21
-5.46211
0
LINE
8
BLACK
6
CONTINUOUS
10
5.66239
20
-5.46211
11
5.66506
21
-5.45566
0
LINE
8
BLACK
6
CONTINUOUS
10
5.66506
20
-5.45566
11
5.66893
21
-5.44985
0
LINE
8
BLACK
6
CONTINUOUS
10
5.66893
20
-5.44985
11
5.67387
21
-5.44492
0
LINE
8
BLACK
6
CONTINUOUS
10
5.67387
20
-5.44492
11
5.67967
21
-5.44104
0
LINE
8
BLACK
6
CONTINUOUS
10
5.67967
20
-5.44104
11
5.68612
21
-5.43837
0
LINE
8
BLACK
6
CONTINUOUS
10
5.68612
20
-5.43837
11
5.69297
21
-5.43701
0
LINE
8
BLACK
6
CONTINUOUS
10
5.69297
20
-5.43701
11
5.69995
21
-5.43701
0
LINE
8
BLACK
6
CONTINUOUS
10
5.69995
20
-5.43701
11
5.70679
21
-5.43837
0
LINE
8
BLACK
6
CONTINUOUS
10
6.00679
20
-5.43837
11
6.01324
21
-5.44104
0
LINE
8
BLACK
6
CONTINUOUS
10
6.01324
20
-5.44104
11
6.01904
21
-5.44492
0
LINE
8
BLACK
6
CONTINUOUS
10
6.01904
20
-5.44492
11
6.02398
21
-5.44985
0
LINE
8
BLACK
6
CONTINUOUS
10
6.02398
20
-5.44985
11
6.02786
21
-5.45566
0
LINE
8
BLACK
6
CONTINUOUS
10
6.02786
20
-5.45566
11
6.03053
21
-5.46211
0
LINE
8
BLACK
6
CONTINUOUS
10
6.03053
20
-5.46211
11
6.03189
21
-5.46895
0
LINE
8
BLACK
6
CONTINUOUS
10
6.03189
20
-5.46895
11
6.03189
21
-5.47593
0
LINE
8
BLACK
6
CONTINUOUS
10
6.03189
20
-5.47593
11
6.03053
21
-5.48278
0
LINE
8
BLACK
6
CONTINUOUS
10
6.03053
20
-5.48278
11
6.02786
21
-5.48922
0
LINE
8
BLACK
6
CONTINUOUS
10
6.02786
20
-5.48922
11
6.02398
21
-5.49503
0
LINE
8
BLACK
6
CONTINUOUS
10
6.02398
20
-5.49503
11
6.01904
21
-5.49996
0
LINE
8
BLACK
6
CONTINUOUS
10
6.01904
20
-5.49996
11
6.01324
21
-5.50384
0
LINE
8
BLACK
6
CONTINUOUS
10
6.01324
20
-5.50384
11
6.00679
21
-5.50651
0
LINE
8
BLACK
6
CONTINUOUS
10
6.00679
20
-5.50651
11
5.99995
21
-5.50787
0
LINE
8
BLACK
6
CONTINUOUS
10
5.99995
20
-5.50787
11
5.99297
21
-5.50787
0
LINE
8
BLACK
6
CONTINUOUS
10
5.99297
20
-5.50787
11
5.98612
21
-5.50651
0
LINE
8
BLACK
6
CONTINUOUS
10
5.98612
20
-5.50651
11
5.97967
21
-5.50384
0
LINE
8
BLACK
6
CONTINUOUS
10
5.97967
20
-5.50384
11
5.97387
21
-5.49996
0
LINE
8
BLACK
6
CONTINUOUS
10
5.97387
20
-5.49996
11
5.96893
21
-5.49503
0
LINE
8
BLACK
6
CONTINUOUS
10
5.96893
20
-5.49503
11
5.96506
21
-5.48922
0
LINE
8
BLACK
6
CONTINUOUS
10
5.96506
20
-5.48922
11
5.96239
21
-5.48278
0
LINE
8
BLACK
6
CONTINUOUS
10
5.96239
20
-5.48278
11
5.96102
21
-5.47593
0
LINE
8
BLACK
6
CONTINUOUS
10
5.96102
20
-5.47593
11
5.96102
21
-5.46895
0
LINE
8
BLACK
6
CONTINUOUS
10
5.96102
20
-5.46895
11
5.96239
21
-5.46211
0
LINE
8
BLACK
6
CONTINUOUS
10
5.96239
20
-5.46211
11
5.96506
21
-5.45566
0
LINE
8
BLACK
6
CONTINUOUS
10
5.96506
20
-5.45566
11
5.96893
21
-5.44985
0
LINE
8
BLACK
6
CONTINUOUS
10
5.96893
20
-5.44985
11
5.97387
21
-5.44492
0
LINE
8
BLACK
6
CONTINUOUS
10
5.97387
20
-5.44492
11
5.97967
21
-5.44104
0
LINE
8
BLACK
6
CONTINUOUS
10
5.97967
20
-5.44104
11
5.98612
21
-5.43837
0
LINE
8
BLACK
6
CONTINUOUS
10
5.98612
20
-5.43837
11
5.99297
21
-5.43701
0
LINE
8
BLACK
6
CONTINUOUS
10
5.99297
20
-5.43701
11
5.99995
21
-5.43701
0
LINE
8
BLACK
6
CONTINUOUS
10
5.99995
20
-5.43701
11
6.00679
21
-5.43837
0
LINE
8
BLACK
6
CONTINUOUS
10
5.70679
20
-5.32026
11
5.71324
21
-5.32293
0
LINE
8
BLACK
6
CONTINUOUS
10
5.71324
20
-5.32293
11
5.71904
21
-5.32681
0
LINE
8
BLACK
6
CONTINUOUS
10
5.71904
20
-5.32681
11
5.72398
21
-5.33174
0
LINE
8
BLACK
6
CONTINUOUS
10
5.72398
20
-5.33174
11
5.72786
21
-5.33755
0
LINE
8
BLACK
6
CONTINUOUS
10
5.72786
20
-5.33755
11
5.73053
21
-5.344
0
LINE
8
BLACK
6
CONTINUOUS
10
5.73053
20
-5.344
11
5.73189
21
-5.35084
0
LINE
8
BLACK
6
CONTINUOUS
10
5.73189
20
-5.35084
11
5.73189
21
-5.35782
0
LINE
8
BLACK
6
CONTINUOUS
10
5.73189
20
-5.35782
11
5.73053
21
-5.36467
0
LINE
8
BLACK
6
CONTINUOUS
10
5.73053
20
-5.36467
11
5.72786
21
-5.37111
0
LINE
8
BLACK
6
CONTINUOUS
10
5.72786
20
-5.37111
11
5.72398
21
-5.37692
0
LINE
8
BLACK
6
CONTINUOUS
10
5.72398
20
-5.37692
11
5.71904
21
-5.38185
0
LINE
8
BLACK
6
CONTINUOUS
10
5.71904
20
-5.38185
11
5.71324
21
-5.38573
0
LINE
8
BLACK
6
CONTINUOUS
10
5.71324
20
-5.38573
11
5.70679
21
-5.3884
0
LINE
8
BLACK
6
CONTINUOUS
10
5.70679
20
-5.3884
11
5.69995
21
-5.38976
0
LINE
8
BLACK
6
CONTINUOUS
10
5.69995
20
-5.38976
11
5.69297
21
-5.38976
0
LINE
8
BLACK
6
CONTINUOUS
10
5.69297
20
-5.38976
11
5.68612
21
-5.3884
0
LINE
8
BLACK
6
CONTINUOUS
10
5.68612
20
-5.3884
11
5.67967
21
-5.38573
0
LINE
8
BLACK
6
CONTINUOUS
10
5.67967
20
-5.38573
11
5.67387
21
-5.38185
0
LINE
8
BLACK
6
CONTINUOUS
10
5.67387
20
-5.38185
11
5.66893
21
-5.37692
0
LINE
8
BLACK
6
CONTINUOUS
10
5.66893
20
-5.37692
11
5.66506
21
-5.37111
0
LINE
8
BLACK
6
CONTINUOUS
10
5.66506
20
-5.37111
11
5.66239
21
-5.36467
0
LINE
8
BLACK
6
CONTINUOUS
10
5.66239
20
-5.36467
11
5.66102
21
-5.35782
0
LINE
8
BLACK
6
CONTINUOUS
10
5.66102
20
-5.35782
11
5.66102
21
-5.35084
0
LINE
8
BLACK
6
CONTINUOUS
10
5.66102
20
-5.35084
11
5.66239
21
-5.344
0
LINE
8
BLACK
6
CONTINUOUS
10
5.66239
20
-5.344
11
5.66506
21
-5.33755
0
LINE
8
BLACK
6
CONTINUOUS
10
5.66506
20
-5.33755
11
5.66893
21
-5.33174
0
LINE
8
BLACK
6
CONTINUOUS
10
5.66893
20
-5.33174
11
5.67387
21
-5.32681
0
LINE
8
BLACK
6
CONTINUOUS
10
5.67387
20
-5.32681
11
5.67967
21
-5.32293
0
LINE
8
BLACK
6
CONTINUOUS
10
5.67967
20
-5.32293
11
5.68612
21
-5.32026
0
LINE
8
BLACK
6
CONTINUOUS
10
5.68612
20
-5.32026
11
5.69297
21
-5.3189
0
LINE
8
BLACK
6
CONTINUOUS
10
5.69297
20
-5.3189
11
5.69995
21
-5.3189
0
LINE
8
BLACK
6
CONTINUOUS
10
5.69995
20
-5.3189
11
5.70679
21
-5.32026
0
LINE
8
BLACK
6
CONTINUOUS
10
6.00679
20
-5.32026
11
6.01324
21
-5.32293
0
LINE
8
BLACK
6
CONTINUOUS
10
6.01324
20
-5.32293
11
6.01904
21
-5.32681
0
LINE
8
BLACK
6
CONTINUOUS
10
6.01904
20
-5.32681
11
6.02398
21
-5.33174
0
LINE
8
BLACK
6
CONTINUOUS
10
6.02398
20
-5.33174
11
6.02786
21
-5.33755
0
LINE
8
BLACK
6
CONTINUOUS
10
6.02786
20
-5.33755
11
6.03053
21
-5.344
0
LINE
8
BLACK
6
CONTINUOUS
10
6.03053
20
-5.344
11
6.03189
21
-5.35084
0
LINE
8
BLACK
6
CONTINUOUS
10
6.03189
20
-5.35084
11
6.03189
21
-5.35782
0
LINE
8
BLACK
6
CONTINUOUS
10
6.03189
20
-5.35782
11
6.03053
21
-5.36467
0
LINE
8
BLACK
6
CONTINUOUS
10
6.03053
20
-5.36467
11
6.02786
21
-5.37111
0
LINE
8
BLACK
6
CONTINUOUS
10
6.02786
20
-5.37111
11
6.02398
21
-5.37692
0
LINE
8
BLACK
6
CONTINUOUS
10
6.02398
20
-5.37692
11
6.01904
21
-5.38185
0
LINE
8
BLACK
6
CONTINUOUS
10
6.01904
20
-5.38185
11
6.01324
21
-5.38573
0
LINE
8
BLACK
6
CONTINUOUS
10
6.01324
20
-5.38573
11
6.00679
21
-5.3884
0
LINE
8
BLACK
6
CONTINUOUS
10
6.00679
20
-5.3884
11
5.99995
21
-5.38976
0
LINE
8
BLACK
6
CONTINUOUS
10
5.99995
20
-5.38976
11
5.99297
21
-5.38976
0
LINE
8
BLACK
6
CONTINUOUS
10
5.99297
20
-5.38976
11
5.98612
21
-5.3884
0
LINE
8
BLACK
6
CONTINUOUS
10
5.98612
20
-5.3884
11
5.97967
21
-5.38573
0
LINE
8
BLACK
6
CONTINUOUS
10
5.97967
20
-5.38573
11
5.97387
21
-5.38185
0
LINE
8
BLACK
6
CONTINUOUS
10
5.97387
20
-5.38185
11
5.96893
21
-5.37692
0
LINE
8
BLACK
6
CONTINUOUS
10
5.96893
20
-5.37692
11
5.96506
21
-5.37111
0
LINE
8
BLACK
6
CONTINUOUS
10
5.96506
20
-5.37111
11
5.96239
21
-5.36467
0
LINE
8
BLACK
6
CONTINUOUS
10
5.96239
20
-5.36467
11
5.96102
21
-5.35782
0
LINE
8
BLACK
6
CONTINUOUS
10
5.96102
20
-5.35782
11
5.96102
21
-5.35084
0
LINE
8
BLACK
6
CONTINUOUS
10
5.96102
20
-5.35084
11
5.96239
21
-5.344
0
LINE
8
BLACK
6
CONTINUOUS
10
5.96239
20
-5.344
11
5.96506
21
-5.33755
0
LINE
8
BLACK
6
CONTINUOUS
10
5.96506
20
-5.33755
11
5.96893
21
-5.33174
0
LINE
8
BLACK
6
CONTINUOUS
10
5.96893
20
-5.33174
11
5.97387
21
-5.32681
0
LINE
8
BLACK
6
CONTINUOUS
10
5.97387
20
-5.32681
11
5.97967
21
-5.32293
0
LINE
8
BLACK
6
CONTINUOUS
10
5.97967
20
-5.32293
11
5.98612
21
-5.32026
0
LINE
8
BLACK
6
CONTINUOUS
10
5.98612
20
-5.32026
11
5.99297
21
-5.3189
0
LINE
8
BLACK
6
CONTINUOUS
10
5.99297
20
-5.3189
11
5.99995
21
-5.3189
0
LINE
8
BLACK
6
CONTINUOUS
10
5.99995
20
-5.3189
11
6.00679
21
-5.32026
0
LINE
8
BLACK
6
CONTINUOUS
10
5.59912
20
-5.19798
11
5.60357
21
-5.19933
0
LINE
8
BLACK
6
CONTINUOUS
10
5.60357
20
-5.19933
11
5.60768
21
-5.20152
0
LINE
8
BLACK
6
CONTINUOUS
10
5.60768
20
-5.20152
11
5.61127
21
-5.20448
0
LINE
8
BLACK
6
CONTINUOUS
10
5.61127
20
-5.20448
11
5.61422
21
-5.20807
0
LINE
8
BLACK
6
CONTINUOUS
10
5.61422
20
-5.20807
11
5.61642
21
-5.21218
0
LINE
8
BLACK
6
CONTINUOUS
10
5.61642
20
-5.21218
11
5.61777
21
-5.21663
0
LINE
8
BLACK
6
CONTINUOUS
10
5.61777
20
-5.21663
11
5.61822
21
-5.22126
0
LINE
8
BLACK
6
CONTINUOUS
10
5.61822
20
-5.22126
11
5.61777
21
-5.22589
0
LINE
8
BLACK
6
CONTINUOUS
10
5.61777
20
-5.22589
11
5.61642
21
-5.23034
0
LINE
8
BLACK
6
CONTINUOUS
10
5.61642
20
-5.23034
11
5.61422
21
-5.23445
0
LINE
8
BLACK
6
CONTINUOUS
10
5.61422
20
-5.23445
11
5.61127
21
-5.23804
0
LINE
8
BLACK
6
CONTINUOUS
10
5.61127
20
-5.23804
11
5.60768
21
-5.241
0
LINE
8
BLACK
6
CONTINUOUS
10
5.60768
20
-5.241
11
5.60357
21
-5.24319
0
LINE
8
BLACK
6
CONTINUOUS
10
5.60357
20
-5.24319
11
5.59912
21
-5.24454
0
LINE
8
BLACK
6
CONTINUOUS
10
5.59912
20
-5.24454
11
5.59565
21
-5.24488
0
LINE
8
BLACK
6
CONTINUOUS
10
5.59565
20
-5.24488
11
5.54608
21
-5.24488
0
LINE
8
BLACK
6
CONTINUOUS
10
5.54608
20
-5.24488
11
5.54261
21
-5.24454
0
LINE
8
BLACK
6
CONTINUOUS
10
5.54261
20
-5.24454
11
5.53816
21
-5.24319
0
LINE
8
BLACK
6
CONTINUOUS
10
5.53816
20
-5.24319
11
5.53406
21
-5.241
0
LINE
8
BLACK
6
CONTINUOUS
10
5.53406
20
-5.241
11
5.53046
21
-5.23804
0
LINE
8
BLACK
6
CONTINUOUS
10
5.53046
20
-5.23804
11
5.52751
21
-5.23445
0
LINE
8
BLACK
6
CONTINUOUS
10
5.52751
20
-5.23445
11
5.52531
21
-5.23034
0
LINE
8
BLACK
6
CONTINUOUS
10
5.52531
20
-5.23034
11
5.52396
21
-5.22589
0
LINE
8
BLACK
6
CONTINUOUS
10
5.52396
20
-5.22589
11
5.52351
21
-5.22126
0
LINE
8
BLACK
6
CONTINUOUS
10
5.52351
20
-5.22126
11
5.52396
21
-5.21663
0
LINE
8
BLACK
6
CONTINUOUS
10
5.52396
20
-5.21663
11
5.52531
21
-5.21218
0
LINE
8
BLACK
6
CONTINUOUS
10
5.52531
20
-5.21218
11
5.52751
21
-5.20807
0
LINE
8
BLACK
6
CONTINUOUS
10
5.52751
20
-5.20807
11
5.53046
21
-5.20448
0
LINE
8
BLACK
6
CONTINUOUS
10
5.53046
20
-5.20448
11
5.53406
21
-5.20152
0
LINE
8
BLACK
6
CONTINUOUS
10
5.53406
20
-5.20152
11
5.53816
21
-5.19933
0
LINE
8
BLACK
6
CONTINUOUS
10
5.53816
20
-5.19933
11
5.54261
21
-5.19798
0
LINE
8
BLACK
6
CONTINUOUS
10
5.54261
20
-5.19798
11
5.54608
21
-5.19764
0
LINE
8
BLACK
6
CONTINUOUS
10
5.54608
20
-5.19764
11
5.59565
21
-5.19764
0
LINE
8
BLACK
6
CONTINUOUS
10
5.59565
20
-5.19764
11
5.59912
21
-5.19798
0
LINE
8
BLACK
6
CONTINUOUS
10
6.02471
20
-5.19798
11
6.02916
21
-5.19933
0
LINE
8
BLACK
6
CONTINUOUS
10
6.02916
20
-5.19933
11
6.03327
21
-5.20152
0
LINE
8
BLACK
6
CONTINUOUS
10
6.03327
20
-5.20152
11
6.03686
21
-5.20448
0
LINE
8
BLACK
6
CONTINUOUS
10
6.03686
20
-5.20448
11
6.03981
21
-5.20807
0
LINE
8
BLACK
6
CONTINUOUS
10
6.03981
20
-5.20807
11
6.04201
21
-5.21218
0
LINE
8
BLACK
6
CONTINUOUS
10
6.04201
20
-5.21218
11
6.04336
21
-5.21663
0
LINE
8
BLACK
6
CONTINUOUS
10
6.04336
20
-5.21663
11
6.04382
21
-5.22126
0
LINE
8
BLACK
6
CONTINUOUS
10
6.04382
20
-5.22126
11
6.04336
21
-5.22589
0
LINE
8
BLACK
6
CONTINUOUS
10
6.04336
20
-5.22589
11
6.04201
21
-5.23034
0
LINE
8
BLACK
6
CONTINUOUS
10
6.04201
20
-5.23034
11
6.03981
21
-5.23445
0
LINE
8
BLACK
6
CONTINUOUS
10
6.03981
20
-5.23445
11
6.03686
21
-5.23804
0
LINE
8
BLACK
6
CONTINUOUS
10
6.03686
20
-5.23804
11
6.03327
21
-5.241
0
LINE
8
BLACK
6
CONTINUOUS
10
6.03327
20
-5.241
11
6.02916
21
-5.24319
0
LINE
8
BLACK
6
CONTINUOUS
10
6.02916
20
-5.24319
11
6.02471
21
-5.24454
0
LINE
8
BLACK
6
CONTINUOUS
10
6.02471
20
-5.24454
11
6.02124
21
-5.24488
0
LINE
8
BLACK
6
CONTINUOUS
10
6.02124
20
-5.24488
11
5.97167
21
-5.24488
0
LINE
8
BLACK
6
CONTINUOUS
10
5.97167
20
-5.24488
11
5.9682
21
-5.24454
0
LINE
8
BLACK
6
CONTINUOUS
10
5.9682
20
-5.24454
11
5.96375
21
-5.24319
0
LINE
8
BLACK
6
CONTINUOUS
10
5.96375
20
-5.24319
11
5.95965
21
-5.241
0
LINE
8
BLACK
6
CONTINUOUS
10
5.95965
20
-5.241
11
5.95605
21
-5.23804
0
LINE
8
BLACK
6
CONTINUOUS
10
5.95605
20
-5.23804
11
5.9531
21
-5.23445
0
LINE
8
BLACK
6
CONTINUOUS
10
5.9531
20
-5.23445
11
5.95091
21
-5.23034
0
LINE
8
BLACK
6
CONTINUOUS
10
5.95091
20
-5.23034
11
5.94955
21
-5.22589
0
LINE
8
BLACK
6
CONTINUOUS
10
5.94955
20
-5.22589
11
5.9491
21
-5.22126
0
LINE
8
BLACK
6
CONTINUOUS
10
5.9491
20
-5.22126
11
5.94955
21
-5.21663
0
LINE
8
BLACK
6
CONTINUOUS
10
5.94955
20
-5.21663
11
5.95091
21
-5.21218
0
LINE
8
BLACK
6
CONTINUOUS
10
5.95091
20
-5.21218
11
5.9531
21
-5.20807
0
LINE
8
BLACK
6
CONTINUOUS
10
5.9531
20
-5.20807
11
5.95605
21
-5.20448
0
LINE
8
BLACK
6
CONTINUOUS
10
5.95605
20
-5.20448
11
5.95965
21
-5.20152
0
LINE
8
BLACK
6
CONTINUOUS
10
5.95965
20
-5.20152
11
5.96375
21
-5.19933
0
LINE
8
BLACK
6
CONTINUOUS
10
5.96375
20
-5.19933
11
5.9682
21
-5.19798
0
LINE
8
BLACK
6
CONTINUOUS
10
5.9682
20
-5.19798
11
5.97167
21
-5.19764
0
LINE
8
BLACK
6
CONTINUOUS
10
5.97167
20
-5.19764
11
6.02124
21
-5.19764
0
LINE
8
BLACK
6
CONTINUOUS
10
6.02124
20
-5.19764
11
6.02471
21
-5.19798
0
LINE
8
BLACK
6
CONTINUOUS
10
5.72471
20
-5.19798
11
5.72916
21
-5.19933
0
LINE
8
BLACK
6
CONTINUOUS
10
5.72916
20
-5.19933
11
5.73327
21
-5.20152
0
LINE
8
BLACK
6
CONTINUOUS
10
5.73327
20
-5.20152
11
5.73686
21
-5.20448
0
LINE
8
BLACK
6
CONTINUOUS
10
5.73686
20
-5.20448
11
5.73981
21
-5.20807
0
LINE
8
BLACK
6
CONTINUOUS
10
5.73981
20
-5.20807
11
5.74201
21
-5.21218
0
LINE
8
BLACK
6
CONTINUOUS
10
5.74201
20
-5.21218
11
5.74336
21
-5.21663
0
LINE
8
BLACK
6
CONTINUOUS
10
5.74336
20
-5.21663
11
5.74382
21
-5.22126
0
LINE
8
BLACK
6
CONTINUOUS
10
5.74382
20
-5.22126
11
5.74336
21
-5.22589
0
LINE
8
BLACK
6
CONTINUOUS
10
5.74336
20
-5.22589
11
5.74201
21
-5.23034
0
LINE
8
BLACK
6
CONTINUOUS
10
5.74201
20
-5.23034
11
5.73981
21
-5.23445
0
LINE
8
BLACK
6
CONTINUOUS
10
5.73981
20
-5.23445
11
5.73686
21
-5.23804
0
LINE
8
BLACK
6
CONTINUOUS
10
5.73686
20
-5.23804
11
5.73327
21
-5.241
0
LINE
8
BLACK
6
CONTINUOUS
10
5.73327
20
-5.241
11
5.72916
21
-5.24319
0
LINE
8
BLACK
6
CONTINUOUS
10
5.72916
20
-5.24319
11
5.72471
21
-5.24454
0
LINE
8
BLACK
6
CONTINUOUS
10
5.72471
20
-5.24454
11
5.72124
21
-5.24488
0
LINE
8
BLACK
6
CONTINUOUS
10
5.72124
20
-5.24488
11
5.67167
21
-5.24488
0
LINE
8
BLACK
6
CONTINUOUS
10
5.67167
20
-5.24488
11
5.6682
21
-5.24454
0
LINE
8
BLACK
6
CONTINUOUS
10
5.6682
20
-5.24454
11
5.66375
21
-5.24319
0
LINE
8
BLACK
6
CONTINUOUS
10
5.66375
20
-5.24319
11
5.65965
21
-5.241
0
LINE
8
BLACK
6
CONTINUOUS
10
5.65965
20
-5.241
11
5.65605
21
-5.23804
0
LINE
8
BLACK
6
CONTINUOUS
10
5.65605
20
-5.23804
11
5.6531
21
-5.23445
0
LINE
8
BLACK
6
CONTINUOUS
10
5.6531
20
-5.23445
11
5.65091
21
-5.23034
0
LINE
8
BLACK
6
CONTINUOUS
10
5.65091
20
-5.23034
11
5.64955
21
-5.22589
0
LINE
8
BLACK
6
CONTINUOUS
10
5.64955
20
-5.22589
11
5.6491
21
-5.22126
0
LINE
8
BLACK
6
CONTINUOUS
10
5.6491
20
-5.22126
11
5.64955
21
-5.21663
0
LINE
8
BLACK
6
CONTINUOUS
10
5.64955
20
-5.21663
11
5.65091
21
-5.21218
0
LINE
8
BLACK
6
CONTINUOUS
10
5.65091
20
-5.21218
11
5.6531
21
-5.20807
0
LINE
8
BLACK
6
CONTINUOUS
10
5.6531
20
-5.20807
11
5.65605
21
-5.20448
0
LINE
8
BLACK
6
CONTINUOUS
10
5.65605
20
-5.20448
11
5.65965
21
-5.20152
0
LINE
8
BLACK
6
CONTINUOUS
10
5.65965
20
-5.20152
11
5.66375
21
-5.19933
0
LINE
8
BLACK
6
CONTINUOUS
10
5.66375
20
-5.19933
11
5.6682
21
-5.19798
0
LINE
8
BLACK
6
CONTINUOUS
10
5.6682
20
-5.19798
11
5.67167
21
-5.19764
0
LINE
8
BLACK
6
CONTINUOUS
10
5.67167
20
-5.19764
11
5.72124
21
-5.19764
0
LINE
8
BLACK
6
CONTINUOUS
10
5.72124
20
-5.19764
11
5.72471
21
-5.19798
0
LINE
8
BLACK
6
CONTINUOUS
10
6.14636
20
-5.07121
11
6.15082
21
-5.07256
0
LINE
8
BLACK
6
CONTINUOUS
10
6.15082
20
-5.07256
11
6.15492
21
-5.07475
0
LINE
8
BLACK
6
CONTINUOUS
10
6.15492
20
-5.07475
11
6.15852
21
-5.0777
0
LINE
8
BLACK
6
CONTINUOUS
10
6.15852
20
-5.0777
11
6.16147
21
-5.0813
0
LINE
8
BLACK
6
CONTINUOUS
10
6.16147
20
-5.0813
11
6.16366
21
-5.0854
0
LINE
8
BLACK
6
CONTINUOUS
10
6.16366
20
-5.0854
11
6.16501
21
-5.08986
0
LINE
8
BLACK
6
CONTINUOUS
10
6.16501
20
-5.08986
11
6.16535
21
-5.09333
0
LINE
8
BLACK
6
CONTINUOUS
10
6.16535
20
-5.09333
11
6.16535
21
-5.14289
0
LINE
8
BLACK
6
CONTINUOUS
10
6.16535
20
-5.14289
11
6.16501
21
-5.14636
0
LINE
8
BLACK
6
CONTINUOUS
10
6.16501
20
-5.14636
11
6.16366
21
-5.15082
0
LINE
8
BLACK
6
CONTINUOUS
10
6.16366
20
-5.15082
11
6.16147
21
-5.15492
0
LINE
8
BLACK
6
CONTINUOUS
10
6.16147
20
-5.15492
11
6.15852
21
-5.15852
0
LINE
8
BLACK
6
CONTINUOUS
10
6.15852
20
-5.15852
11
6.15492
21
-5.16147
0
LINE
8
BLACK
6
CONTINUOUS
10
6.15492
20
-5.16147
11
6.15082
21
-5.16366
0
LINE
8
BLACK
6
CONTINUOUS
10
6.15082
20
-5.16366
11
6.14636
21
-5.16501
0
LINE
8
BLACK
6
CONTINUOUS
10
6.14636
20
-5.16501
11
6.14173
21
-5.16547
0
LINE
8
BLACK
6
CONTINUOUS
10
6.14173
20
-5.16547
11
6.1371
21
-5.16501
0
LINE
8
BLACK
6
CONTINUOUS
10
6.1371
20
-5.16501
11
6.13265
21
-5.16366
0
LINE
8
BLACK
6
CONTINUOUS
10
6.13265
20
-5.16366
11
6.12855
21
-5.16147
0
LINE
8
BLACK
6
CONTINUOUS
10
6.12855
20
-5.16147
11
6.12495
21
-5.15852
0
LINE
8
BLACK
6
CONTINUOUS
10
6.12495
20
-5.15852
11
6.122
21
-5.15492
0
LINE
8
BLACK
6
CONTINUOUS
10
6.122
20
-5.15492
11
6.1198
21
-5.15082
0
LINE
8
BLACK
6
CONTINUOUS
10
6.1198
20
-5.15082
11
6.11845
21
-5.14636
0
LINE
8
BLACK
6
CONTINUOUS
10
6.11845
20
-5.14636
11
6.11811
21
-5.14289
0
LINE
8
BLACK
6
CONTINUOUS
10
6.11811
20
-5.14289
11
6.11811
21
-5.09333
0
LINE
8
BLACK
6
CONTINUOUS
10
6.11811
20
-5.09333
11
6.11845
21
-5.08986
0
LINE
8
BLACK
6
CONTINUOUS
10
6.11845
20
-5.08986
11
6.1198
21
-5.0854
0
LINE
8
BLACK
6
CONTINUOUS
10
6.1198
20
-5.0854
11
6.122
21
-5.0813
0
LINE
8
BLACK
6
CONTINUOUS
10
6.122
20
-5.0813
11
6.12495
21
-5.0777
0
LINE
8
BLACK
6
CONTINUOUS
10
6.12495
20
-5.0777
11
6.12855
21
-5.07475
0
LINE
8
BLACK
6
CONTINUOUS
10
6.12855
20
-5.07475
11
6.13265
21
-5.07256
0
LINE
8
BLACK
6
CONTINUOUS
10
6.13265
20
-5.07256
11
6.1371
21
-5.07121
0
LINE
8
BLACK
6
CONTINUOUS
10
6.1371
20
-5.07121
11
6.14173
21
-5.07075
0
LINE
8
BLACK
6
CONTINUOUS
10
6.14173
20
-5.07075
11
6.14636
21
-5.07121
0
LINE
8
BLACK
6
CONTINUOUS
10
6.25427
20
-5.07109
11
6.25649
21
-5.07177
0
LINE
8
BLACK
6
CONTINUOUS
10
6.25649
20
-5.07177
11
6.25853
21
-5.07286
0
LINE
8
BLACK
6
CONTINUOUS
10
6.25853
20
-5.07286
11
6.26032
21
-5.07433
0
LINE
8
BLACK
6
CONTINUOUS
10
6.26032
20
-5.07433
11
6.26179
21
-5.07612
0
LINE
8
BLACK
6
CONTINUOUS
10
6.26179
20
-5.07612
11
6.26288
21
-5.07816
0
LINE
8
BLACK
6
CONTINUOUS
10
6.26288
20
-5.07816
11
6.26355
21
-5.08037
0
LINE
8
BLACK
6
CONTINUOUS
10
6.26355
20
-5.08037
11
6.26378
21
-5.08268
0
LINE
8
BLACK
6
CONTINUOUS
10
6.26378
20
-5.08268
11
6.26378
21
-5.15354
0
LINE
8
BLACK
6
CONTINUOUS
10
6.26378
20
-5.15354
11
6.26355
21
-5.15585
0
LINE
8
BLACK
6
CONTINUOUS
10
6.26355
20
-5.15585
11
6.26288
21
-5.15806
0
LINE
8
BLACK
6
CONTINUOUS
10
6.26288
20
-5.15806
11
6.26179
21
-5.16011
0
LINE
8
BLACK
6
CONTINUOUS
10
6.26179
20
-5.16011
11
6.26032
21
-5.16189
0
LINE
8
BLACK
6
CONTINUOUS
10
6.26032
20
-5.16189
11
6.25853
21
-5.16336
0
LINE
8
BLACK
6
CONTINUOUS
10
6.25853
20
-5.16336
11
6.25649
21
-5.16446
0
LINE
8
BLACK
6
CONTINUOUS
10
6.25649
20
-5.16446
11
6.25427
21
-5.16513
0
LINE
8
BLACK
6
CONTINUOUS
10
6.25427
20
-5.16513
11
6.25197
21
-5.16535
0
LINE
8
BLACK
6
CONTINUOUS
10
6.25197
20
-5.16535
11
6.22835
21
-5.16535
0
LINE
8
BLACK
6
CONTINUOUS
10
6.22835
20
-5.16535
11
6.22604
21
-5.16513
0
LINE
8
BLACK
6
CONTINUOUS
10
6.22604
20
-5.16513
11
6.22383
21
-5.16446
0
LINE
8
BLACK
6
CONTINUOUS
10
6.22383
20
-5.16446
11
6.22178
21
-5.16336
0
LINE
8
BLACK
6
CONTINUOUS
10
6.22178
20
-5.16336
11
6.21999
21
-5.16189
0
LINE
8
BLACK
6
CONTINUOUS
10
6.21999
20
-5.16189
11
6.21853
21
-5.16011
0
LINE
8
BLACK
6
CONTINUOUS
10
6.21853
20
-5.16011
11
6.21743
21
-5.15806
0
LINE
8
BLACK
6
CONTINUOUS
10
6.21743
20
-5.15806
11
6.21676
21
-5.15585
0
LINE
8
BLACK
6
CONTINUOUS
10
6.21676
20
-5.15585
11
6.21654
21
-5.15354
0
LINE
8
BLACK
6
CONTINUOUS
10
6.21654
20
-5.15354
11
6.21654
21
-5.08268
0
LINE
8
BLACK
6
CONTINUOUS
10
6.21654
20
-5.08268
11
6.21676
21
-5.08037
0
LINE
8
BLACK
6
CONTINUOUS
10
6.21676
20
-5.08037
11
6.21743
21
-5.07816
0
LINE
8
BLACK
6
CONTINUOUS
10
6.21743
20
-5.07816
11
6.21853
21
-5.07612
0
LINE
8
BLACK
6
CONTINUOUS
10
6.21853
20
-5.07612
11
6.21999
21
-5.07433
0
LINE
8
BLACK
6
CONTINUOUS
10
6.21999
20
-5.07433
11
6.22178
21
-5.07286
0
LINE
8
BLACK
6
CONTINUOUS
10
6.22178
20
-5.07286
11
6.22383
21
-5.07177
0
LINE
8
BLACK
6
CONTINUOUS
10
6.22383
20
-5.07177
11
6.22604
21
-5.07109
0
LINE
8
BLACK
6
CONTINUOUS
10
6.22604
20
-5.07109
11
6.22835
21
-5.07087
0
LINE
8
BLACK
6
CONTINUOUS
10
6.22835
20
-5.07087
11
6.25197
21
-5.07087
0
LINE
8
BLACK
6
CONTINUOUS
10
6.25197
20
-5.07087
11
6.25427
21
-5.07109
0
LINE
8
BLACK
6
CONTINUOUS
10
5.6086
20
-5.09944
11
5.61082
21
-5.10011
0
LINE
8
BLACK
6
CONTINUOUS
10
5.61082
20
-5.10011
11
5.61286
21
-5.1012
0
LINE
8
BLACK
6
CONTINUOUS
10
5.61286
20
-5.1012
11
5.61465
21
-5.10267
0
LINE
8
BLACK
6
CONTINUOUS
10
5.61465
20
-5.10267
11
5.61612
21
-5.10446
0
LINE
8
BLACK
6
CONTINUOUS
10
5.61612
20
-5.10446
11
5.61721
21
-5.1065
0
LINE
8
BLACK
6
CONTINUOUS
10
5.61721
20
-5.1065
11
5.61788
21
-5.10872
0
LINE
8
BLACK
6
CONTINUOUS
10
5.61788
20
-5.10872
11
5.61811
21
-5.11102
0
LINE
8
BLACK
6
CONTINUOUS
10
5.61811
20
-5.11102
11
5.61811
21
-5.13465
0
LINE
8
BLACK
6
CONTINUOUS
10
5.61811
20
-5.13465
11
5.61788
21
-5.13695
0
LINE
8
BLACK
6
CONTINUOUS
10
5.61788
20
-5.13695
11
5.61721
21
-5.13917
0
LINE
8
BLACK
6
CONTINUOUS
10
5.61721
20
-5.13917
11
5.61612
21
-5.14121
0
LINE
8
BLACK
6
CONTINUOUS
10
5.61612
20
-5.14121
11
5.61465
21
-5.143
0
LINE
8
BLACK
6
CONTINUOUS
10
5.61465
20
-5.143
11
5.61286
21
-5.14447
0
LINE
8
BLACK
6
CONTINUOUS
10
5.61286
20
-5.14447
11
5.61082
21
-5.14556
0
LINE
8
BLACK
6
CONTINUOUS
10
5.61082
20
-5.14556
11
5.6086
21
-5.14623
0
LINE
8
BLACK
6
CONTINUOUS
10
5.6086
20
-5.14623
11
5.6063
21
-5.14646
0
LINE
8
BLACK
6
CONTINUOUS
10
5.6063
20
-5.14646
11
5.53543
21
-5.14646
0
LINE
8
BLACK
6
CONTINUOUS
10
5.53543
20
-5.14646
11
5.53313
21
-5.14623
0
LINE
8
BLACK
6
CONTINUOUS
10
5.53313
20
-5.14623
11
5.53091
21
-5.14556
0
LINE
8
BLACK
6
CONTINUOUS
10
5.53091
20
-5.14556
11
5.52887
21
-5.14447
0
LINE
8
BLACK
6
CONTINUOUS
10
5.52887
20
-5.14447
11
5.52708
21
-5.143
0
LINE
8
BLACK
6
CONTINUOUS
10
5.52708
20
-5.143
11
5.52561
21
-5.14121
0
LINE
8
BLACK
6
CONTINUOUS
10
5.52561
20
-5.14121
11
5.52452
21
-5.13917
0
LINE
8
BLACK
6
CONTINUOUS
10
5.52452
20
-5.13917
11
5.52385
21
-5.13695
0
LINE
8
BLACK
6
CONTINUOUS
10
5.52385
20
-5.13695
11
5.52362
21
-5.13465
0
LINE
8
BLACK
6
CONTINUOUS
10
5.52362
20
-5.13465
11
5.52362
21
-5.11102
0
LINE
8
BLACK
6
CONTINUOUS
10
5.52362
20
-5.11102
11
5.52385
21
-5.10872
0
LINE
8
BLACK
6
CONTINUOUS
10
5.52385
20
-5.10872
11
5.52452
21
-5.1065
0
LINE
8
BLACK
6
CONTINUOUS
10
5.52452
20
-5.1065
11
5.52561
21
-5.10446
0
LINE
8
BLACK
6
CONTINUOUS
10
5.52561
20
-5.10446
11
5.52708
21
-5.10267
0
LINE
8
BLACK
6
CONTINUOUS
10
5.52708
20
-5.10267
11
5.52887
21
-5.1012
0
LINE
8
BLACK
6
CONTINUOUS
10
5.52887
20
-5.1012
11
5.53091
21
-5.10011
0
LINE
8
BLACK
6
CONTINUOUS
10
5.53091
20
-5.10011
11
5.53313
21
-5.09944
0
LINE
8
BLACK
6
CONTINUOUS
10
5.53313
20
-5.09944
11
5.53543
21
-5.09921
0
LINE
8
BLACK
6
CONTINUOUS
10
5.53543
20
-5.09921
11
5.6063
21
-5.09921
0
LINE
8
BLACK
6
CONTINUOUS
10
5.6063
20
-5.09921
11
5.6086
21
-5.09944
0
LINE
8
BLACK
6
CONTINUOUS
10
6.02471
20
-5.09798
11
6.02916
21
-5.09933
0
LINE
8
BLACK
6
CONTINUOUS
10
6.02916
20
-5.09933
11
6.03327
21
-5.10152
0
LINE
8
BLACK
6
CONTINUOUS
10
6.03327
20
-5.10152
11
6.03686
21
-5.10448
0
LINE
8
BLACK
6
CONTINUOUS
10
6.03686
20
-5.10448
11
6.03981
21
-5.10807
0
LINE
8
BLACK
6
CONTINUOUS
10
6.03981
20
-5.10807
11
6.04201
21
-5.11218
0
LINE
8
BLACK
6
CONTINUOUS
10
6.04201
20
-5.11218
11
6.04336
21
-5.11663
0
LINE
8
BLACK
6
CONTINUOUS
10
6.04336
20
-5.11663
11
6.04382
21
-5.12126
0
LINE
8
BLACK
6
CONTINUOUS
10
6.04382
20
-5.12126
11
6.04336
21
-5.12589
0
LINE
8
BLACK
6
CONTINUOUS
10
6.04336
20
-5.12589
11
6.04201
21
-5.13034
0
LINE
8
BLACK
6
CONTINUOUS
10
6.04201
20
-5.13034
11
6.03981
21
-5.13445
0
LINE
8
BLACK
6
CONTINUOUS
10
6.03981
20
-5.13445
11
6.03686
21
-5.13804
0
LINE
8
BLACK
6
CONTINUOUS
10
6.03686
20
-5.13804
11
6.03327
21
-5.141
0
LINE
8
BLACK
6
CONTINUOUS
10
6.03327
20
-5.141
11
6.02916
21
-5.14319
0
LINE
8
BLACK
6
CONTINUOUS
10
6.02916
20
-5.14319
11
6.02471
21
-5.14454
0
LINE
8
BLACK
6
CONTINUOUS
10
6.02471
20
-5.14454
11
6.02124
21
-5.14488
0
LINE
8
BLACK
6
CONTINUOUS
10
6.02124
20
-5.14488
11
5.97167
21
-5.14488
0
LINE
8
BLACK
6
CONTINUOUS
10
5.97167
20
-5.14488
11
5.9682
21
-5.14454
0
LINE
8
BLACK
6
CONTINUOUS
10
5.9682
20
-5.14454
11
5.96375
21
-5.14319
0
LINE
8
BLACK
6
CONTINUOUS
10
5.96375
20
-5.14319
11
5.95965
21
-5.141
0
LINE
8
BLACK
6
CONTINUOUS
10
5.95965
20
-5.141
11
5.95605
21
-5.13804
0
LINE
8
BLACK
6
CONTINUOUS
10
5.95605
20
-5.13804
11
5.9531
21
-5.13445
0
LINE
8
BLACK
6
CONTINUOUS
10
5.9531
20
-5.13445
11
5.95091
21
-5.13034
0
LINE
8
BLACK
6
CONTINUOUS
10
5.95091
20
-5.13034
11
5.94955
21
-5.12589
0
LINE
8
BLACK
6
CONTINUOUS
10
5.94955
20
-5.12589
11
5.9491
21
-5.12126
0
LINE
8
BLACK
6
CONTINUOUS
10
5.9491
20
-5.12126
11
5.94955
21
-5.11663
0
LINE
8
BLACK
6
CONTINUOUS
10
5.94955
20
-5.11663
11
5.95091
21
-5.11218
0
LINE
8
BLACK
6
CONTINUOUS
10
5.95091
20
-5.11218
11
5.9531
21
-5.10807
0
LINE
8
BLACK
6
CONTINUOUS
10
5.9531
20
-5.10807
11
5.95605
21
-5.10448
0
LINE
8
BLACK
6
CONTINUOUS
10
5.95605
20
-5.10448
11
5.95965
21
-5.10152
0
LINE
8
BLACK
6
CONTINUOUS
10
5.95965
20
-5.10152
11
5.96375
21
-5.09933
0
LINE
8
BLACK
6
CONTINUOUS
10
5.96375
20
-5.09933
11
5.9682
21
-5.09798
0
LINE
8
BLACK
6
CONTINUOUS
10
5.9682
20
-5.09798
11
5.97167
21
-5.09764
0
LINE
8
BLACK
6
CONTINUOUS
10
5.97167
20
-5.09764
11
6.02124
21
-5.09764
0
LINE
8
BLACK
6
CONTINUOUS
10
6.02124
20
-5.09764
11
6.02471
21
-5.09798
0
LINE
8
BLACK
6
CONTINUOUS
10
5.72471
20
-5.09798
11
5.72916
21
-5.09933
0
LINE
8
BLACK
6
CONTINUOUS
10
5.72916
20
-5.09933
11
5.73327
21
-5.10152
0
LINE
8
BLACK
6
CONTINUOUS
10
5.73327
20
-5.10152
11
5.73686
21
-5.10448
0
LINE
8
BLACK
6
CONTINUOUS
10
5.73686
20
-5.10448
11
5.73981
21
-5.10807
0
LINE
8
BLACK
6
CONTINUOUS
10
5.73981
20
-5.10807
11
5.74201
21
-5.11218
0
LINE
8
BLACK
6
CONTINUOUS
10
5.74201
20
-5.11218
11
5.74336
21
-5.11663
0
LINE
8
BLACK
6
CONTINUOUS
10
5.74336
20
-5.11663
11
5.74382
21
-5.12126
0
LINE
8
BLACK
6
CONTINUOUS
10
5.74382
20
-5.12126
11
5.74336
21
-5.12589
0
LINE
8
BLACK
6
CONTINUOUS
10
5.74336
20
-5.12589
11
5.74201
21
-5.13034
0
LINE
8
BLACK
6
CONTINUOUS
10
5.74201
20
-5.13034
11
5.73981
21
-5.13445
0
LINE
8
BLACK
6
CONTINUOUS
10
5.73981
20
-5.13445
11
5.73686
21
-5.13804
0
LINE
8
BLACK
6
CONTINUOUS
10
5.73686
20
-5.13804
11
5.73327
21
-5.141
0
LINE
8
BLACK
6
CONTINUOUS
10
5.73327
20
-5.141
11
5.72916
21
-5.14319
0
LINE
8
BLACK
6
CONTINUOUS
10
5.72916
20
-5.14319
11
5.72471
21
-5.14454
0
LINE
8
BLACK
6
CONTINUOUS
10
5.72471
20
-5.14454
11
5.72124
21
-5.14488
0
LINE
8
BLACK
6
CONTINUOUS
10
5.72124
20
-5.14488
11
5.67167
21
-5.14488
0
LINE
8
BLACK
6
CONTINUOUS
10
5.67167
20
-5.14488
11
5.6682
21
-5.14454
0
LINE
8
BLACK
6
CONTINUOUS
10
5.6682
20
-5.14454
11
5.66375
21
-5.14319
0
LINE
8
BLACK
6
CONTINUOUS
10
5.66375
20
-5.14319
11
5.65965
21
-5.141
0
LINE
8
BLACK
6
CONTINUOUS
10
5.65965
20
-5.141
11
5.65605
21
-5.13804
0
LINE
8
BLACK
6
CONTINUOUS
10
5.65605
20
-5.13804
11
5.6531
21
-5.13445
0
LINE
8
BLACK
6
CONTINUOUS
10
5.6531
20
-5.13445
11
5.65091
21
-5.13034
0
LINE
8
BLACK
6
CONTINUOUS
10
5.65091
20
-5.13034
11
5.64955
21
-5.12589
0
LINE
8
BLACK
6
CONTINUOUS
10
5.64955
20
-5.12589
11
5.6491
21
-5.12126
0
LINE
8
BLACK
6
CONTINUOUS
10
5.6491
20
-5.12126
11
5.64955
21
-5.11663
0
LINE
8
BLACK
6
CONTINUOUS
10
5.64955
20
-5.11663
11
5.65091
21
-5.11218
0
LINE
8
BLACK
6
CONTINUOUS
10
5.65091
20
-5.11218
11
5.6531
21
-5.10807
0
LINE
8
BLACK
6
CONTINUOUS
10
5.6531
20
-5.10807
11
5.65605
21
-5.10448
0
LINE
8
BLACK
6
CONTINUOUS
10
5.65605
20
-5.10448
11
5.65965
21
-5.10152
0
LINE
8
BLACK
6
CONTINUOUS
10
5.65965
20
-5.10152
11
5.66375
21
-5.09933
0
LINE
8
BLACK
6
CONTINUOUS
10
5.66375
20
-5.09933
11
5.6682
21
-5.09798
0
LINE
8
BLACK
6
CONTINUOUS
10
5.6682
20
-5.09798
11
5.67167
21
-5.09764
0
LINE
8
BLACK
6
CONTINUOUS
10
5.67167
20
-5.09764
11
5.72124
21
-5.09764
0
LINE
8
BLACK
6
CONTINUOUS
10
5.72124
20
-5.09764
11
5.72471
21
-5.09798
0
LINE
8
BLACK
6
CONTINUOUS
10
6.02471
20
-4.99798
11
6.02916
21
-4.99933
0
LINE
8
BLACK
6
CONTINUOUS
10
6.02916
20
-4.99933
11
6.03327
21
-5.00152
0
LINE
8
BLACK
6
CONTINUOUS
10
6.03327
20
-5.00152
11
6.03686
21
-5.00448
0
LINE
8
BLACK
6
CONTINUOUS
10
6.03686
20
-5.00448
11
6.03981
21
-5.00807
0
LINE
8
BLACK
6
CONTINUOUS
10
6.03981
20
-5.00807
11
6.04201
21
-5.01218
0
LINE
8
BLACK
6
CONTINUOUS
10
6.04201
20
-5.01218
11
6.04336
21
-5.01663
0
LINE
8
BLACK
6
CONTINUOUS
10
6.04336
20
-5.01663
11
6.04382
21
-5.02126
0
LINE
8
BLACK
6
CONTINUOUS
10
6.04382
20
-5.02126
11
6.04336
21
-5.02589
0
LINE
8
BLACK
6
CONTINUOUS
10
6.04336
20
-5.02589
11
6.04201
21
-5.03034
0
LINE
8
BLACK
6
CONTINUOUS
10
6.04201
20
-5.03034
11
6.03981
21
-5.03445
0
LINE
8
BLACK
6
CONTINUOUS
10
6.03981
20
-5.03445
11
6.03686
21
-5.03804
0
LINE
8
BLACK
6
CONTINUOUS
10
6.03686
20
-5.03804
11
6.03327
21
-5.041
0
LINE
8
BLACK
6
CONTINUOUS
10
6.03327
20
-5.041
11
6.02916
21
-5.04319
0
LINE
8
BLACK
6
CONTINUOUS
10
6.02916
20
-5.04319
11
6.02471
21
-5.04454
0
LINE
8
BLACK
6
CONTINUOUS
10
6.02471
20
-5.04454
11
6.02124
21
-5.04488
0
LINE
8
BLACK
6
CONTINUOUS
10
6.02124
20
-5.04488
11
5.97167
21
-5.04488
0
LINE
8
BLACK
6
CONTINUOUS
10
5.97167
20
-5.04488
11
5.9682
21
-5.04454
0
LINE
8
BLACK
6
CONTINUOUS
10
5.9682
20
-5.04454
11
5.96375
21
-5.04319
0
LINE
8
BLACK
6
CONTINUOUS
10
5.96375
20
-5.04319
11
5.95965
21
-5.041
0
LINE
8
BLACK
6
CONTINUOUS
10
5.95965
20
-5.041
11
5.95605
21
-5.03804
0
LINE
8
BLACK
6
CONTINUOUS
10
5.95605
20
-5.03804
11
5.9531
21
-5.03445
0
LINE
8
BLACK
6
CONTINUOUS
10
5.9531
20
-5.03445
11
5.95091
21
-5.03034
0
LINE
8
BLACK
6
CONTINUOUS
10
5.95091
20
-5.03034
11
5.94955
21
-5.02589
0
LINE
8
BLACK
6
CONTINUOUS
10
5.94955
20
-5.02589
11
5.9491
21
-5.02126
0
LINE
8
BLACK
6
CONTINUOUS
10
5.9491
20
-5.02126
11
5.94955
21
-5.01663
0
LINE
8
BLACK
6
CONTINUOUS
10
5.94955
20
-5.01663
11
5.95091
21
-5.01218
0
LINE
8
BLACK
6
CONTINUOUS
10
5.95091
20
-5.01218
11
5.9531
21
-5.00807
0
LINE
8
BLACK
6
CONTINUOUS
10
5.9531
20
-5.00807
11
5.95605
21
-5.00448
0
LINE
8
BLACK
6
CONTINUOUS
10
5.95605
20
-5.00448
11
5.95965
21
-5.00152
0
LINE
8
BLACK
6
CONTINUOUS
10
5.95965
20
-5.00152
11
5.96375
21
-4.99933
0
LINE
8
BLACK
6
CONTINUOUS
10
5.96375
20
-4.99933
11
5.9682
21
-4.99798
0
LINE
8
BLACK
6
CONTINUOUS
10
5.9682
20
-4.99798
11
5.97167
21
-4.99764
0
LINE
8
BLACK
6
CONTINUOUS
10
5.97167
20
-4.99764
11
6.02124
21
-4.99764
0
LINE
8
BLACK
6
CONTINUOUS
10
6.02124
20
-4.99764
11
6.02471
21
-4.99798
0
LINE
8
BLACK
6
CONTINUOUS
10
5.72471
20
-4.99798
11
5.72916
21
-4.99933
0
LINE
8
BLACK
6
CONTINUOUS
10
5.72916
20
-4.99933
11
5.73327
21
-5.00152
0
LINE
8
BLACK
6
CONTINUOUS
10
5.73327
20
-5.00152
11
5.73686
21
-5.00448
0
LINE
8
BLACK
6
CONTINUOUS
10
5.73686
20
-5.00448
11
5.73981
21
-5.00807
0
LINE
8
BLACK
6
CONTINUOUS
10
5.73981
20
-5.00807
11
5.74201
21
-5.01218
0
LINE
8
BLACK
6
CONTINUOUS
10
5.74201
20
-5.01218
11
5.74336
21
-5.01663
0
LINE
8
BLACK
6
CONTINUOUS
10
5.74336
20
-5.01663
11
5.74382
21
-5.02126
0
LINE
8
BLACK
6
CONTINUOUS
10
5.74382
20
-5.02126
11
5.74336
21
-5.02589
0
LINE
8
BLACK
6
CONTINUOUS
10
5.74336
20
-5.02589
11
5.74201
21
-5.03034
0
LINE
8
BLACK
6
CONTINUOUS
10
5.74201
20
-5.03034
11
5.73981
21
-5.03445
0
LINE
8
BLACK
6
CONTINUOUS
10
5.73981
20
-5.03445
11
5.73686
21
-5.03804
0
LINE
8
BLACK
6
CONTINUOUS
10
5.73686
20
-5.03804
11
5.73327
21
-5.041
0
LINE
8
BLACK
6
CONTINUOUS
10
5.73327
20
-5.041
11
5.72916
21
-5.04319
0
LINE
8
BLACK
6
CONTINUOUS
10
5.72916
20
-5.04319
11
5.72471
21
-5.04454
0
LINE
8
BLACK
6
CONTINUOUS
10
5.72471
20
-5.04454
11
5.72124
21
-5.04488
0
LINE
8
BLACK
6
CONTINUOUS
10
5.72124
20
-5.04488
11
5.67167
21
-5.04488
0
LINE
8
BLACK
6
CONTINUOUS
10
5.67167
20
-5.04488
11
5.6682
21
-5.04454
0
LINE
8
BLACK
6
CONTINUOUS
10
5.6682
20
-5.04454
11
5.66375
21
-5.04319
0
LINE
8
BLACK
6
CONTINUOUS
10
5.66375
20
-5.04319
11
5.65965
21
-5.041
0
LINE
8
BLACK
6
CONTINUOUS
10
5.65965
20
-5.041
11
5.65605
21
-5.03804
0
LINE
8
BLACK
6
CONTINUOUS
10
5.65605
20
-5.03804
11
5.6531
21
-5.03445
0
LINE
8
BLACK
6
CONTINUOUS
10
5.6531
20
-5.03445
11
5.65091
21
-5.03034
0
LINE
8
BLACK
6
CONTINUOUS
10
5.65091
20
-5.03034
11
5.64955
21
-5.02589
0
LINE
8
BLACK
6
CONTINUOUS
10
5.64955
20
-5.02589
11
5.6491
21
-5.02126
0
LINE
8
BLACK
6
CONTINUOUS
10
5.6491
20
-5.02126
11
5.64955
21
-5.01663
0
LINE
8
BLACK
6
CONTINUOUS
10
5.64955
20
-5.01663
11
5.65091
21
-5.01218
0
LINE
8
BLACK
6
CONTINUOUS
10
5.65091
20
-5.01218
11
5.6531
21
-5.00807
0
LINE
8
BLACK
6
CONTINUOUS
10
5.6531
20
-5.00807
11
5.65605
21
-5.00448
0
LINE
8
BLACK
6
CONTINUOUS
10
5.65605
20
-5.00448
11
5.65965
21
-5.00152
0
LINE
8
BLACK
6
CONTINUOUS
10
5.65965
20
-5.00152
11
5.66375
21
-4.99933
0
LINE
8
BLACK
6
CONTINUOUS
10
5.66375
20
-4.99933
11
5.6682
21
-4.99798
0
LINE
8
BLACK
6
CONTINUOUS
10
5.6682
20
-4.99798
11
5.67167
21
-4.99764
0
LINE
8
BLACK
6
CONTINUOUS
10
5.67167
20
-4.99764
11
5.72124
21
-4.99764
0
LINE
8
BLACK
6
CONTINUOUS
10
5.72124
20
-4.99764
11
5.72471
21
-4.99798
0
LINE
8
BLACK
6
CONTINUOUS
10
6.03419
20
-4.89786
11
6.03641
21
-4.89854
0
LINE
8
BLACK
6
CONTINUOUS
10
6.03641
20
-4.89854
11
6.03845
21
-4.89963
0
LINE
8
BLACK
6
CONTINUOUS
10
6.03845
20
-4.89963
11
6.04024
21
-4.9011
0
LINE
8
BLACK
6
CONTINUOUS
10
6.04024
20
-4.9011
11
6.04171
21
-4.90289
0
LINE
8
BLACK
6
CONTINUOUS
10
6.04171
20
-4.90289
11
6.0428
21
-4.90493
0
LINE
8
BLACK
6
CONTINUOUS
10
6.0428
20
-4.90493
11
6.04347
21
-4.90714
0
LINE
8
BLACK
6
CONTINUOUS
10
6.04347
20
-4.90714
11
6.0437
21
-4.90945
0
LINE
8
BLACK
6
CONTINUOUS
10
6.0437
20
-4.90945
11
6.0437
21
-4.93307
0
LINE
8
BLACK
6
CONTINUOUS
10
6.0437
20
-4.93307
11
6.04347
21
-4.93538
0
LINE
8
BLACK
6
CONTINUOUS
10
6.04347
20
-4.93538
11
6.0428
21
-4.93759
0
LINE
8
BLACK
6
CONTINUOUS
10
6.0428
20
-4.93759
11
6.04171
21
-4.93963
0
LINE
8
BLACK
6
CONTINUOUS
10
6.04171
20
-4.93963
11
6.04024
21
-4.94142
0
LINE
8
BLACK
6
CONTINUOUS
10
6.04024
20
-4.94142
11
6.03845
21
-4.94289
0
LINE
8
BLACK
6
CONTINUOUS
10
6.03845
20
-4.94289
11
6.03641
21
-4.94398
0
LINE
8
BLACK
6
CONTINUOUS
10
6.03641
20
-4.94398
11
6.03419
21
-4.94465
0
LINE
8
BLACK
6
CONTINUOUS
10
6.03419
20
-4.94465
11
6.03189
21
-4.94488
0
LINE
8
BLACK
6
CONTINUOUS
10
6.03189
20
-4.94488
11
5.96102
21
-4.94488
0
LINE
8
BLACK
6
CONTINUOUS
10
5.96102
20
-4.94488
11
5.95872
21
-4.94465
0
LINE
8
BLACK
6
CONTINUOUS
10
5.95872
20
-4.94465
11
5.9565
21
-4.94398
0
LINE
8
BLACK
6
CONTINUOUS
10
5.9565
20
-4.94398
11
5.95446
21
-4.94289
0
LINE
8
BLACK
6
CONTINUOUS
10
5.95446
20
-4.94289
11
5.95267
21
-4.94142
0
LINE
8
BLACK
6
CONTINUOUS
10
5.95267
20
-4.94142
11
5.9512
21
-4.93963
0
LINE
8
BLACK
6
CONTINUOUS
10
5.9512
20
-4.93963
11
5.95011
21
-4.93759
0
LINE
8
BLACK
6
CONTINUOUS
10
5.95011
20
-4.93759
11
5.94944
21
-4.93538
0
LINE
8
BLACK
6
CONTINUOUS
10
5.94944
20
-4.93538
11
5.94921
21
-4.93307
0
LINE
8
BLACK
6
CONTINUOUS
10
5.94921
20
-4.93307
11
5.94921
21
-4.90945
0
LINE
8
BLACK
6
CONTINUOUS
10
5.94921
20
-4.90945
11
5.94944
21
-4.90714
0
LINE
8
BLACK
6
CONTINUOUS
10
5.94944
20
-4.90714
11
5.95011
21
-4.90493
0
LINE
8
BLACK
6
CONTINUOUS
10
5.95011
20
-4.90493
11
5.9512
21
-4.90289
0
LINE
8
BLACK
6
CONTINUOUS
10
5.9512
20
-4.90289
11
5.95267
21
-4.9011
0
LINE
8
BLACK
6
CONTINUOUS
10
5.95267
20
-4.9011
11
5.95446
21
-4.89963
0
LINE
8
BLACK
6
CONTINUOUS
10
5.95446
20
-4.89963
11
5.9565
21
-4.89854
0
LINE
8
BLACK
6
CONTINUOUS
10
5.9565
20
-4.89854
11
5.95872
21
-4.89786
0
LINE
8
BLACK
6
CONTINUOUS
10
5.95872
20
-4.89786
11
5.96102
21
-4.89764
0
LINE
8
BLACK
6
CONTINUOUS
10
5.96102
20
-4.89764
11
6.03189
21
-4.89764
0
LINE
8
BLACK
6
CONTINUOUS
10
6.03189
20
-4.89764
11
6.03419
21
-4.89786
0
LINE
8
BLACK
6
CONTINUOUS
10
5.72471
20
-4.89798
11
5.72916
21
-4.89933
0
LINE
8
BLACK
6
CONTINUOUS
10
5.72916
20
-4.89933
11
5.73327
21
-4.90152
0
LINE
8
BLACK
6
CONTINUOUS
10
5.73327
20
-4.90152
11
5.73686
21
-4.90448
0
LINE
8
BLACK
6
CONTINUOUS
10
5.73686
20
-4.90448
11
5.73981
21
-4.90807
0
LINE
8
BLACK
6
CONTINUOUS
10
5.73981
20
-4.90807
11
5.74201
21
-4.91218
0
LINE
8
BLACK
6
CONTINUOUS
10
5.74201
20
-4.91218
11
5.74336
21
-4.91663
0
LINE
8
BLACK
6
CONTINUOUS
10
5.74336
20
-4.91663
11
5.74382
21
-4.92126
0
LINE
8
BLACK
6
CONTINUOUS
10
5.74382
20
-4.92126
11
5.74336
21
-4.92589
0
LINE
8
BLACK
6
CONTINUOUS
10
5.74336
20
-4.92589
11
5.74201
21
-4.93034
0
LINE
8
BLACK
6
CONTINUOUS
10
5.74201
20
-4.93034
11
5.73981
21
-4.93445
0
LINE
8
BLACK
6
CONTINUOUS
10
5.73981
20
-4.93445
11
5.73686
21
-4.93804
0
LINE
8
BLACK
6
CONTINUOUS
10
5.73686
20
-4.93804
11
5.73327
21
-4.941
0
LINE
8
BLACK
6
CONTINUOUS
10
5.73327
20
-4.941
11
5.72916
21
-4.94319
0
LINE
8
BLACK
6
CONTINUOUS
10
5.72916
20
-4.94319
11
5.72471
21
-4.94454
0
LINE
8
BLACK
6
CONTINUOUS
10
5.72471
20
-4.94454
11
5.72124
21
-4.94488
0
LINE
8
BLACK
6
CONTINUOUS
10
5.72124
20
-4.94488
11
5.67167
21
-4.94488
0
LINE
8
BLACK
6
CONTINUOUS
10
5.67167
20
-4.94488
11
5.6682
21
-4.94454
0
LINE
8
BLACK
6
CONTINUOUS
10
5.6682
20
-4.94454
11
5.66375
21
-4.94319
0
LINE
8
BLACK
6
CONTINUOUS
10
5.66375
20
-4.94319
11
5.65965
21
-4.941
0
LINE
8
BLACK
6
CONTINUOUS
10
5.65965
20
-4.941
11
5.65605
21
-4.93804
0
LINE
8
BLACK
6
CONTINUOUS
10
5.65605
20
-4.93804
11
5.6531
21
-4.93445
0
LINE
8
BLACK
6
CONTINUOUS
10
5.6531
20
-4.93445
11
5.65091
21
-4.93034
0
LINE
8
BLACK
6
CONTINUOUS
10
5.65091
20
-4.93034
11
5.64955
21
-4.92589
0
LINE
8
BLACK
6
CONTINUOUS
10
5.64955
20
-4.92589
11
5.6491
21
-4.92126
0
LINE
8
BLACK
6
CONTINUOUS
10
5.6491
20
-4.92126
11
5.64955
21
-4.91663
0
LINE
8
BLACK
6
CONTINUOUS
10
5.64955
20
-4.91663
11
5.65091
21
-4.91218
0
LINE
8
BLACK
6
CONTINUOUS
10
5.65091
20
-4.91218
11
5.6531
21
-4.90807
0
LINE
8
BLACK
6
CONTINUOUS
10
5.6531
20
-4.90807
11
5.65605
21
-4.90448
0
LINE
8
BLACK
6
CONTINUOUS
10
5.65605
20
-4.90448
11
5.65965
21
-4.90152
0
LINE
8
BLACK
6
CONTINUOUS
10
5.65965
20
-4.90152
11
5.66375
21
-4.89933
0
LINE
8
BLACK
6
CONTINUOUS
10
5.66375
20
-4.89933
11
5.6682
21
-4.89798
0
LINE
8
BLACK
6
CONTINUOUS
10
5.6682
20
-4.89798
11
5.67167
21
-4.89764
0
LINE
8
BLACK
6
CONTINUOUS
10
5.67167
20
-4.89764
11
5.72124
21
-4.89764
0
LINE
8
BLACK
6
CONTINUOUS
10
5.72124
20
-4.89764
11
5.72471
21
-4.89798
0
LINE
8
BLACK
6
CONTINUOUS
10
5.92016
20
-3.55597
11
5.92019
21
-3.55596
0
LINE
8
BLACK
6
CONTINUOUS
10
5.92019
20
-3.55596
11
5.92064
21
-3.55605
0
LINE
8
BLACK
6
CONTINUOUS
10
5.92064
20
-3.55605
11
5.92109
21
-3.55613
0
LINE
8
BLACK
6
CONTINUOUS
10
5.92109
20
-3.55613
11
5.92112
21
-3.55614
0
LINE
8
BLACK
6
CONTINUOUS
10
5.92112
20
-3.55614
11
5.92115
21
-3.55614
0
LINE
8
BLACK
6
CONTINUOUS
10
5.92115
20
-3.55614
11
5.92158
21
-3.55631
0
LINE
8
BLACK
6
CONTINUOUS
10
5.92158
20
-3.55631
11
5.92201
21
-3.55648
0
LINE
8
BLACK
6
CONTINUOUS
10
5.92201
20
-3.55648
11
6.05298
21
-3.62196
0
LINE
8
BLACK
6
CONTINUOUS
10
6.05298
20
-3.62196
11
6.05304
21
-3.62199
0
LINE
8
BLACK
6
CONTINUOUS
10
6.05304
20
-3.62199
11
6.05317
21
-3.62208
0
LINE
8
BLACK
6
CONTINUOUS
10
6.05317
20
-3.62208
11
6.05331
21
-3.62215
0
LINE
8
BLACK
6
CONTINUOUS
10
6.05331
20
-3.62215
11
6.15135
21
-3.68097
0
LINE
8
BLACK
6
CONTINUOUS
10
6.15135
20
-3.68097
11
6.15141
21
-3.68101
0
LINE
8
BLACK
6
CONTINUOUS
10
6.15141
20
-3.68101
11
6.15159
21
-3.68114
0
LINE
8
BLACK
6
CONTINUOUS
10
6.15159
20
-3.68114
11
6.15178
21
-3.68126
0
LINE
8
BLACK
6
CONTINUOUS
10
6.15178
20
-3.68126
11
6.23016
21
-3.74004
0
LINE
8
BLACK
6
CONTINUOUS
10
6.23016
20
-3.74004
11
6.23022
21
-3.74009
0
LINE
8
BLACK
6
CONTINUOUS
10
6.23022
20
-3.74009
11
6.23033
21
-3.74019
0
LINE
8
BLACK
6
CONTINUOUS
10
6.23033
20
-3.74019
11
6.23046
21
-3.74028
0
LINE
8
BLACK
6
CONTINUOUS
10
6.23046
20
-3.74028
11
6.2747
21
-3.77899
0
LINE
8
BLACK
6
CONTINUOUS
10
6.2747
20
-3.77899
11
6.27558
21
-3.77882
0
LINE
8
BLACK
6
CONTINUOUS
10
6.27558
20
-3.77882
11
6.28347
21
-3.77882
0
LINE
8
BLACK
6
CONTINUOUS
10
6.28347
20
-3.77882
11
6.29122
21
-3.78036
0
LINE
8
BLACK
6
CONTINUOUS
10
6.29122
20
-3.78036
11
6.29851
21
-3.78338
0
LINE
8
BLACK
6
CONTINUOUS
10
6.29851
20
-3.78338
11
6.30508
21
-3.78777
0
LINE
8
BLACK
6
CONTINUOUS
10
6.30508
20
-3.78777
11
6.31066
21
-3.79335
0
LINE
8
BLACK
6
CONTINUOUS
10
6.31066
20
-3.79335
11
6.31504
21
-3.79991
0
LINE
8
BLACK
6
CONTINUOUS
10
6.31504
20
-3.79991
11
6.31807
21
-3.80721
0
LINE
8
BLACK
6
CONTINUOUS
10
6.31807
20
-3.80721
11
6.31961
21
-3.81495
0
LINE
8
BLACK
6
CONTINUOUS
10
6.31961
20
-3.81495
11
6.31961
21
-3.81961
0
LINE
8
BLACK
6
CONTINUOUS
10
6.31961
20
-3.81961
11
6.40723
21
-3.90723
0
LINE
8
BLACK
6
CONTINUOUS
10
6.40723
20
-3.90723
11
6.40728
21
-3.90728
0
LINE
8
BLACK
6
CONTINUOUS
10
6.40728
20
-3.90728
11
6.40748
21
-3.90753
0
LINE
8
BLACK
6
CONTINUOUS
10
6.40748
20
-3.90753
11
6.40769
21
-3.90776
0
LINE
8
BLACK
6
CONTINUOUS
10
6.40769
20
-3.90776
11
6.4665
21
-3.98617
0
LINE
8
BLACK
6
CONTINUOUS
10
6.4665
20
-3.98617
11
6.46654
21
-3.98623
0
LINE
8
BLACK
6
CONTINUOUS
10
6.46654
20
-3.98623
11
6.46655
21
-3.98625
0
LINE
8
BLACK
6
CONTINUOUS
10
6.46655
20
-3.98625
11
6.46657
21
-3.98627
0
LINE
8
BLACK
6
CONTINUOUS
10
6.46657
20
-3.98627
11
6.51563
21
-4.05496
0
LINE
8
BLACK
6
CONTINUOUS
10
6.51563
20
-4.05496
11
6.51567
21
-4.05501
0
LINE
8
BLACK
6
CONTINUOUS
10
6.51567
20
-4.05501
11
6.51575
21
-4.05516
0
LINE
8
BLACK
6
CONTINUOUS
10
6.51575
20
-4.05516
11
6.51585
21
-4.05529
0
LINE
8
BLACK
6
CONTINUOUS
10
6.51585
20
-4.05529
11
6.57475
21
-4.15346
0
LINE
8
BLACK
6
CONTINUOUS
10
6.57475
20
-4.15346
11
6.57479
21
-4.15352
0
LINE
8
BLACK
6
CONTINUOUS
10
6.57479
20
-4.15352
11
6.57481
21
-4.15358
0
LINE
8
BLACK
6
CONTINUOUS
10
6.57481
20
-4.15358
11
6.57485
21
-4.15363
0
LINE
8
BLACK
6
CONTINUOUS
10
6.57485
20
-4.15363
11
6.63368
21
-4.26148
0
LINE
8
BLACK
6
CONTINUOUS
10
6.63368
20
-4.26148
11
6.63371
21
-4.26154
0
LINE
8
BLACK
6
CONTINUOUS
10
6.63371
20
-4.26154
11
6.63384
21
-4.26186
0
LINE
8
BLACK
6
CONTINUOUS
10
6.63384
20
-4.26186
11
6.63399
21
-4.26217
0
LINE
8
BLACK
6
CONTINUOUS
10
6.63399
20
-4.26217
11
6.67303
21
-4.36953
0
LINE
8
BLACK
6
CONTINUOUS
10
6.67303
20
-4.36953
11
6.67305
21
-4.3696
0
LINE
8
BLACK
6
CONTINUOUS
10
6.67305
20
-4.3696
11
6.67307
21
-4.36965
0
LINE
8
BLACK
6
CONTINUOUS
10
6.67307
20
-4.36965
11
6.67309
21
-4.3697
0
LINE
8
BLACK
6
CONTINUOUS
10
6.67309
20
-4.3697
11
6.67318
21
-4.37013
0
LINE
8
BLACK
6
CONTINUOUS
10
6.67318
20
-4.37013
11
6.67328
21
-4.37055
0
LINE
8
BLACK
6
CONTINUOUS
10
6.67328
20
-4.37055
11
6.67328
21
-4.3706
0
LINE
8
BLACK
6
CONTINUOUS
10
6.67328
20
-4.3706
11
6.6733
21
-4.37066
0
LINE
8
BLACK
6
CONTINUOUS
10
6.6733
20
-4.37066
11
6.69167
21
-4.5273
0
LINE
8
BLACK
6
CONTINUOUS
10
6.69167
20
-4.5273
11
6.69168
21
-4.52737
0
LINE
8
BLACK
6
CONTINUOUS
10
6.69168
20
-4.52737
11
6.69168
21
-4.5276
0
LINE
8
BLACK
6
CONTINUOUS
10
6.69168
20
-4.5276
11
6.69171
21
-4.52782
0
LINE
8
BLACK
6
CONTINUOUS
10
6.69171
20
-4.52782
11
6.69291
21
-4.62546
0
LINE
8
BLACK
6
CONTINUOUS
10
6.69291
20
-4.62546
11
6.69291
21
-4.62553
0
LINE
8
BLACK
6
CONTINUOUS
10
6.69291
20
-4.62553
11
6.69291
21
-4.62553
0
LINE
8
BLACK
6
CONTINUOUS
10
6.69291
20
-4.62553
11
6.69291
21
-4.62553
0
LINE
8
BLACK
6
CONTINUOUS
10
6.69291
20
-4.62553
11
6.69286
21
-4.62599
0
LINE
8
BLACK
6
CONTINUOUS
10
6.69286
20
-4.62599
11
6.69281
21
-4.6265
0
LINE
8
BLACK
6
CONTINUOUS
10
6.69281
20
-4.6265
11
6.69281
21
-4.6265
0
LINE
8
BLACK
6
CONTINUOUS
10
6.69281
20
-4.6265
11
6.69281
21
-4.6265
0
LINE
8
BLACK
6
CONTINUOUS
10
6.69281
20
-4.6265
11
6.67336
21
-4.72375
0
LINE
8
BLACK
6
CONTINUOUS
10
6.67336
20
-4.72375
11
6.67335
21
-4.72382
0
LINE
8
BLACK
6
CONTINUOUS
10
6.67335
20
-4.72382
11
6.6733
21
-4.72396
0
LINE
8
BLACK
6
CONTINUOUS
10
6.6733
20
-4.72396
11
6.67328
21
-4.7241
0
LINE
8
BLACK
6
CONTINUOUS
10
6.67328
20
-4.7241
11
6.67315
21
-4.72442
0
LINE
8
BLACK
6
CONTINUOUS
10
6.67315
20
-4.72442
11
6.67305
21
-4.72475
0
LINE
8
BLACK
6
CONTINUOUS
10
6.67305
20
-4.72475
11
6.67298
21
-4.72488
0
LINE
8
BLACK
6
CONTINUOUS
10
6.67298
20
-4.72488
11
6.67293
21
-4.72501
0
LINE
8
BLACK
6
CONTINUOUS
10
6.67293
20
-4.72501
11
6.66917
21
-4.73252
0
LINE
8
BLACK
6
CONTINUOUS
10
6.66917
20
-4.73252
11
6.66929
21
-4.73312
0
LINE
8
BLACK
6
CONTINUOUS
10
6.66929
20
-4.73312
11
6.66929
21
-4.7401
0
LINE
8
BLACK
6
CONTINUOUS
10
6.66929
20
-4.7401
11
6.66793
21
-4.74695
0
LINE
8
BLACK
6
CONTINUOUS
10
6.66793
20
-4.74695
11
6.66526
21
-4.7534
0
LINE
8
BLACK
6
CONTINUOUS
10
6.66526
20
-4.7534
11
6.66138
21
-4.7592
0
LINE
8
BLACK
6
CONTINUOUS
10
6.66138
20
-4.7592
11
6.65645
21
-4.76414
0
LINE
8
BLACK
6
CONTINUOUS
10
6.65645
20
-4.76414
11
6.65182
21
-4.76723
0
LINE
8
BLACK
6
CONTINUOUS
10
6.65182
20
-4.76723
11
6.63431
21
-4.80225
0
LINE
8
BLACK
6
CONTINUOUS
10
6.63431
20
-4.80225
11
6.63429
21
-4.80228
0
LINE
8
BLACK
6
CONTINUOUS
10
6.63429
20
-4.80228
11
6.63429
21
-4.80228
0
LINE
8
BLACK
6
CONTINUOUS
10
6.63429
20
-4.80228
11
6.63429
21
-4.80228
0
LINE
8
BLACK
6
CONTINUOUS
10
6.63429
20
-4.80228
11
6.63428
21
-4.80231
0
LINE
8
BLACK
6
CONTINUOUS
10
6.63428
20
-4.80231
11
6.63402
21
-4.80271
0
LINE
8
BLACK
6
CONTINUOUS
10
6.63402
20
-4.80271
11
6.63377
21
-4.8031
0
LINE
8
BLACK
6
CONTINUOUS
10
6.63377
20
-4.8031
11
6.63376
21
-4.80311
0
LINE
8
BLACK
6
CONTINUOUS
10
6.63376
20
-4.80311
11
6.63375
21
-4.80313
0
LINE
8
BLACK
6
CONTINUOUS
10
6.63375
20
-4.80313
11
6.63342
21
-4.80347
0
LINE
8
BLACK
6
CONTINUOUS
10
6.63342
20
-4.80347
11
6.63309
21
-4.80381
0
LINE
8
BLACK
6
CONTINUOUS
10
6.63309
20
-4.80381
11
6.56554
21
-4.86171
0
LINE
8
BLACK
6
CONTINUOUS
10
6.56554
20
-4.86171
11
6.56549
21
-4.86175
0
LINE
8
BLACK
6
CONTINUOUS
10
6.56549
20
-4.86175
11
6.56529
21
-4.86188
0
LINE
8
BLACK
6
CONTINUOUS
10
6.56529
20
-4.86188
11
6.56511
21
-4.86204
0
LINE
8
BLACK
6
CONTINUOUS
10
6.56511
20
-4.86204
11
6.56489
21
-4.86216
0
LINE
8
BLACK
6
CONTINUOUS
10
6.56489
20
-4.86216
11
6.56468
21
-4.8623
0
LINE
8
BLACK
6
CONTINUOUS
10
6.56468
20
-4.8623
11
6.56446
21
-4.86239
0
LINE
8
BLACK
6
CONTINUOUS
10
6.56446
20
-4.86239
11
6.56426
21
-4.86251
0
LINE
8
BLACK
6
CONTINUOUS
10
6.56426
20
-4.86251
11
6.49701
21
-4.89133
0
LINE
8
BLACK
6
CONTINUOUS
10
6.49701
20
-4.89133
11
6.49694
21
-4.89136
0
LINE
8
BLACK
6
CONTINUOUS
10
6.49694
20
-4.89136
11
6.49601
21
-4.89164
0
LINE
8
BLACK
6
CONTINUOUS
10
6.49601
20
-4.89164
11
6.49532
21
-4.8917
0
LINE
8
BLACK
6
CONTINUOUS
10
6.49532
20
-4.8917
11
6.49504
21
-4.89173
0
LINE
8
BLACK
6
CONTINUOUS
10
6.49504
20
-4.89173
11
6.49504
21
-4.89173
0
LINE
8
BLACK
6
CONTINUOUS
10
6.49504
20
-4.89173
11
6.40839
21
-4.89173
0
LINE
8
BLACK
6
CONTINUOUS
10
6.40839
20
-4.89173
11
6.40832
21
-4.89173
0
LINE
8
BLACK
6
CONTINUOUS
10
6.40832
20
-4.89173
11
6.40795
21
-4.89169
0
LINE
8
BLACK
6
CONTINUOUS
10
6.40795
20
-4.89169
11
6.40757
21
-4.89167
0
LINE
8
BLACK
6
CONTINUOUS
10
6.40757
20
-4.89167
11
6.40746
21
-4.89164
0
LINE
8
BLACK
6
CONTINUOUS
10
6.40746
20
-4.89164
11
6.40735
21
-4.89162
0
LINE
8
BLACK
6
CONTINUOUS
10
6.40735
20
-4.89162
11
6.40699
21
-4.89151
0
LINE
8
BLACK
6
CONTINUOUS
10
6.40699
20
-4.89151
11
6.40663
21
-4.89141
0
LINE
8
BLACK
6
CONTINUOUS
10
6.40663
20
-4.89141
11
6.37426
21
-4.87928
0
LINE
8
BLACK
6
CONTINUOUS
10
6.37426
20
-4.87928
11
6.36996
21
-4.88106
0
LINE
8
BLACK
6
CONTINUOUS
10
6.36996
20
-4.88106
11
6.36222
21
-4.8826
0
LINE
8
BLACK
6
CONTINUOUS
10
6.36222
20
-4.8826
11
6.35432
21
-4.8826
0
LINE
8
BLACK
6
CONTINUOUS
10
6.35432
20
-4.8826
11
6.34658
21
-4.88106
0
LINE
8
BLACK
6
CONTINUOUS
10
6.34658
20
-4.88106
11
6.33928
21
-4.87804
0
LINE
8
BLACK
6
CONTINUOUS
10
6.33928
20
-4.87804
11
6.33272
21
-4.87365
0
LINE
8
BLACK
6
CONTINUOUS
10
6.33272
20
-4.87365
11
6.32714
21
-4.86807
0
LINE
8
BLACK
6
CONTINUOUS
10
6.32714
20
-4.86807
11
6.32275
21
-4.8615
0
LINE
8
BLACK
6
CONTINUOUS
10
6.32275
20
-4.8615
11
6.32076
21
-4.8567
0
LINE
8
BLACK
6
CONTINUOUS
10
6.32076
20
-4.8567
11
6.24347
21
-4.80338
0
LINE
8
BLACK
6
CONTINUOUS
10
6.24347
20
-4.80338
11
6.24342
21
-4.80334
0
LINE
8
BLACK
6
CONTINUOUS
10
6.24342
20
-4.80334
11
6.24314
21
-4.8031
0
LINE
8
BLACK
6
CONTINUOUS
10
6.24314
20
-4.8031
11
6.24285
21
-4.80287
0
LINE
8
BLACK
6
CONTINUOUS
10
6.24285
20
-4.80287
11
6.17152
21
-4.7345
0
LINE
8
BLACK
6
CONTINUOUS
10
6.17152
20
-4.7345
11
6.17147
21
-4.73446
0
LINE
8
BLACK
6
CONTINUOUS
10
6.17147
20
-4.73446
11
6.17126
21
-4.7342
0
LINE
8
BLACK
6
CONTINUOUS
10
6.17126
20
-4.7342
11
6.17104
21
-4.73396
0
LINE
8
BLACK
6
CONTINUOUS
10
6.17104
20
-4.73396
11
6.17101
21
-4.73393
0
LINE
8
BLACK
6
CONTINUOUS
10
6.17101
20
-4.73393
11
6.17056
21
-4.73397
0
LINE
8
BLACK
6
CONTINUOUS
10
6.17056
20
-4.73397
11
6.1648
21
-4.73341
0
LINE
8
BLACK
6
CONTINUOUS
10
6.1648
20
-4.73341
11
6.15926
21
-4.73173
0
LINE
8
BLACK
6
CONTINUOUS
10
6.15926
20
-4.73173
11
6.15416
21
-4.729
0
LINE
8
BLACK
6
CONTINUOUS
10
6.15416
20
-4.729
11
6.14968
21
-4.72532
0
LINE
8
BLACK
6
CONTINUOUS
10
6.14968
20
-4.72532
11
6.10792
21
-4.68357
0
LINE
8
BLACK
6
CONTINUOUS
10
6.10792
20
-4.68357
11
6.10425
21
-4.67909
0
LINE
8
BLACK
6
CONTINUOUS
10
6.10425
20
-4.67909
11
6.10152
21
-4.67399
0
LINE
8
BLACK
6
CONTINUOUS
10
6.10152
20
-4.67399
11
6.09984
21
-4.66845
0
LINE
8
BLACK
6
CONTINUOUS
10
6.09984
20
-4.66845
11
6.09928
21
-4.66269
0
LINE
8
BLACK
6
CONTINUOUS
10
6.09928
20
-4.66269
11
6.09984
21
-4.65693
0
LINE
8
BLACK
6
CONTINUOUS
10
6.09984
20
-4.65693
11
6.10152
21
-4.65139
0
LINE
8
BLACK
6
CONTINUOUS
10
6.10152
20
-4.65139
11
6.10368
21
-4.64736
0
LINE
8
BLACK
6
CONTINUOUS
10
6.10368
20
-4.64736
11
6.1026
21
-4.64597
0
LINE
8
BLACK
6
CONTINUOUS
10
6.1026
20
-4.64597
11
6.10256
21
-4.64592
0
LINE
8
BLACK
6
CONTINUOUS
10
6.10256
20
-4.64592
11
6.10237
21
-4.64562
0
LINE
8
BLACK
6
CONTINUOUS
10
6.10237
20
-4.64562
11
6.10217
21
-4.64533
0
LINE
8
BLACK
6
CONTINUOUS
10
6.10217
20
-4.64533
11
6.05325
21
-4.55727
0
LINE
8
BLACK
6
CONTINUOUS
10
6.05325
20
-4.55727
11
6.05322
21
-4.55721
0
LINE
8
BLACK
6
CONTINUOUS
10
6.05322
20
-4.55721
11
6.05315
21
-4.55705
0
LINE
8
BLACK
6
CONTINUOUS
10
6.05315
20
-4.55705
11
6.05306
21
-4.55689
0
LINE
8
BLACK
6
CONTINUOUS
10
6.05306
20
-4.55689
11
6.01389
21
-4.46981
0
LINE
8
BLACK
6
CONTINUOUS
10
6.01389
20
-4.46981
11
6.01386
21
-4.46974
0
LINE
8
BLACK
6
CONTINUOUS
10
6.01386
20
-4.46974
11
6.01379
21
-4.46953
0
LINE
8
BLACK
6
CONTINUOUS
10
6.01379
20
-4.46953
11
6.0137
21
-4.46933
0
LINE
8
BLACK
6
CONTINUOUS
10
6.0137
20
-4.46933
11
5.98709
21
-4.38901
0
LINE
8
BLACK
6
CONTINUOUS
10
5.98709
20
-4.38901
11
5.98706
21
-4.38894
0
LINE
8
BLACK
6
CONTINUOUS
10
5.98706
20
-4.38894
11
5.98704
21
-4.38881
0
LINE
8
BLACK
6
CONTINUOUS
10
5.98704
20
-4.38881
11
5.98699
21
-4.38868
0
LINE
8
BLACK
6
CONTINUOUS
10
5.98699
20
-4.38868
11
5.96457
21
-4.30119
0
LINE
8
BLACK
6
CONTINUOUS
10
5.96457
20
-4.30119
11
5.96456
21
-4.30117
0
LINE
8
BLACK
6
CONTINUOUS
10
5.96456
20
-4.30117
11
5.96456
21
-4.30117
0
LINE
8
BLACK
6
CONTINUOUS
10
5.96456
20
-4.30117
11
5.94496
21
-4.22273
0
LINE
8
BLACK
6
CONTINUOUS
10
5.94496
20
-4.22273
11
5.94494
21
-4.22267
0
LINE
8
BLACK
6
CONTINUOUS
10
5.94494
20
-4.22267
11
5.9449
21
-4.2224
0
LINE
8
BLACK
6
CONTINUOUS
10
5.9449
20
-4.2224
11
5.94484
21
-4.22214
0
LINE
8
BLACK
6
CONTINUOUS
10
5.94484
20
-4.22214
11
5.93504
21
-4.14374
0
LINE
8
BLACK
6
CONTINUOUS
10
5.93504
20
-4.14374
11
5.93503
21
-4.14367
0
LINE
8
BLACK
6
CONTINUOUS
10
5.93503
20
-4.14367
11
5.91541
21
-4.01613
0
LINE
8
BLACK
6
CONTINUOUS
10
5.91541
20
-4.01613
11
5.9154
21
-4.01606
0
LINE
8
BLACK
6
CONTINUOUS
10
5.9154
20
-4.01606
11
5.91539
21
-4.01571
0
LINE
8
BLACK
6
CONTINUOUS
10
5.91539
20
-4.01571
11
5.91535
21
-4.01537
0
LINE
8
BLACK
6
CONTINUOUS
10
5.91535
20
-4.01537
11
5.91535
21
-3.89769
0
LINE
8
BLACK
6
CONTINUOUS
10
5.91535
20
-3.89769
11
5.91535
21
-3.89758
0
LINE
8
BLACK
6
CONTINUOUS
10
5.91535
20
-3.89758
11
5.90553
21
-3.68141
0
LINE
8
BLACK
6
CONTINUOUS
10
5.90553
20
-3.68141
11
5.90552
21
-3.68134
0
LINE
8
BLACK
6
CONTINUOUS
10
5.90552
20
-3.68134
11
5.90554
21
-3.68107
0
LINE
8
BLACK
6
CONTINUOUS
10
5.90554
20
-3.68107
11
5.90554
21
-3.6808
0
LINE
8
BLACK
6
CONTINUOUS
10
5.90554
20
-3.6808
11
5.90902
21
-3.63551
0
LINE
8
BLACK
6
CONTINUOUS
10
5.90902
20
-3.63551
11
5.90679
21
-3.63643
0
LINE
8
BLACK
6
CONTINUOUS
10
5.90679
20
-3.63643
11
5.89995
21
-3.6378
0
LINE
8
BLACK
6
CONTINUOUS
10
5.89995
20
-3.6378
11
5.89297
21
-3.6378
0
LINE
8
BLACK
6
CONTINUOUS
10
5.89297
20
-3.6378
11
5.88612
21
-3.63643
0
LINE
8
BLACK
6
CONTINUOUS
10
5.88612
20
-3.63643
11
5.87967
21
-3.63376
0
LINE
8
BLACK
6
CONTINUOUS
10
5.87967
20
-3.63376
11
5.87387
21
-3.62988
0
LINE
8
BLACK
6
CONTINUOUS
10
5.87387
20
-3.62988
11
5.86893
21
-3.62495
0
LINE
8
BLACK
6
CONTINUOUS
10
5.86893
20
-3.62495
11
5.86506
21
-3.61915
0
LINE
8
BLACK
6
CONTINUOUS
10
5.86506
20
-3.61915
11
5.86239
21
-3.6127
0
LINE
8
BLACK
6
CONTINUOUS
10
5.86239
20
-3.6127
11
5.86102
21
-3.60585
0
LINE
8
BLACK
6
CONTINUOUS
10
5.86102
20
-3.60585
11
5.86102
21
-3.59887
0
LINE
8
BLACK
6
CONTINUOUS
10
5.86102
20
-3.59887
11
5.86239
21
-3.59203
0
LINE
8
BLACK
6
CONTINUOUS
10
5.86239
20
-3.59203
11
5.86506
21
-3.58558
0
LINE
8
BLACK
6
CONTINUOUS
10
5.86506
20
-3.58558
11
5.86893
21
-3.57977
0
LINE
8
BLACK
6
CONTINUOUS
10
5.86893
20
-3.57977
11
5.87387
21
-3.57484
0
LINE
8
BLACK
6
CONTINUOUS
10
5.87387
20
-3.57484
11
5.87967
21
-3.57096
0
LINE
8
BLACK
6
CONTINUOUS
10
5.87967
20
-3.57096
11
5.88612
21
-3.56829
0
LINE
8
BLACK
6
CONTINUOUS
10
5.88612
20
-3.56829
11
5.89297
21
-3.56693
0
LINE
8
BLACK
6
CONTINUOUS
10
5.89297
20
-3.56693
11
5.89995
21
-3.56693
0
LINE
8
BLACK
6
CONTINUOUS
10
5.89995
20
-3.56693
11
5.90679
21
-3.56829
0
LINE
8
BLACK
6
CONTINUOUS
10
5.90679
20
-3.56829
11
5.91324
21
-3.57096
0
LINE
8
BLACK
6
CONTINUOUS
10
5.91324
20
-3.57096
11
5.91395
21
-3.57143
0
LINE
8
BLACK
6
CONTINUOUS
10
5.91395
20
-3.57143
11
5.91478
21
-3.56056
0
LINE
8
BLACK
6
CONTINUOUS
10
5.91478
20
-3.56056
11
5.91479
21
-3.56055
0
LINE
8
BLACK
6
CONTINUOUS
10
5.91479
20
-3.56055
11
5.91479
21
-3.56055
0
LINE
8
BLACK
6
CONTINUOUS
10
5.91479
20
-3.56055
11
5.91479
21
-3.56055
0
LINE
8
BLACK
6
CONTINUOUS
10
5.91479
20
-3.56055
11
5.91479
21
-3.56049
0
LINE
8
BLACK
6
CONTINUOUS
10
5.91479
20
-3.56049
11
5.91488
21
-3.56004
0
LINE
8
BLACK
6
CONTINUOUS
10
5.91488
20
-3.56004
11
5.91496
21
-3.55959
0
LINE
8
BLACK
6
CONTINUOUS
10
5.91496
20
-3.55959
11
5.91497
21
-3.55956
0
LINE
8
BLACK
6
CONTINUOUS
10
5.91497
20
-3.55956
11
5.91497
21
-3.55954
0
LINE
8
BLACK
6
CONTINUOUS
10
5.91497
20
-3.55954
11
5.91515
21
-3.55911
0
LINE
8
BLACK
6
CONTINUOUS
10
5.91515
20
-3.55911
11
5.91531
21
-3.55868
0
LINE
8
BLACK
6
CONTINUOUS
10
5.91531
20
-3.55868
11
5.91533
21
-3.55866
0
LINE
8
BLACK
6
CONTINUOUS
10
5.91533
20
-3.55866
11
5.91534
21
-3.55863
0
LINE
8
BLACK
6
CONTINUOUS
10
5.91534
20
-3.55863
11
5.91559
21
-3.55825
0
LINE
8
BLACK
6
CONTINUOUS
10
5.91559
20
-3.55825
11
5.91584
21
-3.55786
0
LINE
8
BLACK
6
CONTINUOUS
10
5.91584
20
-3.55786
11
5.91586
21
-3.55784
0
LINE
8
BLACK
6
CONTINUOUS
10
5.91586
20
-3.55784
11
5.91587
21
-3.55781
0
LINE
8
BLACK
6
CONTINUOUS
10
5.91587
20
-3.55781
11
5.91619
21
-3.55749
0
LINE
8
BLACK
6
CONTINUOUS
10
5.91619
20
-3.55749
11
5.91651
21
-3.55715
0
LINE
8
BLACK
6
CONTINUOUS
10
5.91651
20
-3.55715
11
5.91654
21
-3.55714
0
LINE
8
BLACK
6
CONTINUOUS
10
5.91654
20
-3.55714
11
5.91656
21
-3.55712
0
LINE
8
BLACK
6
CONTINUOUS
10
5.91656
20
-3.55712
11
5.91694
21
-3.55686
0
LINE
8
BLACK
6
CONTINUOUS
10
5.91694
20
-3.55686
11
5.91731
21
-3.55659
0
LINE
8
BLACK
6
CONTINUOUS
10
5.91731
20
-3.55659
11
5.91734
21
-3.55658
0
LINE
8
BLACK
6
CONTINUOUS
10
5.91734
20
-3.55658
11
5.91736
21
-3.55657
0
LINE
8
BLACK
6
CONTINUOUS
10
5.91736
20
-3.55657
11
5.91778
21
-3.55638
0
LINE
8
BLACK
6
CONTINUOUS
10
5.91778
20
-3.55638
11
5.9182
21
-3.5562
0
LINE
8
BLACK
6
CONTINUOUS
10
5.9182
20
-3.5562
11
5.91823
21
-3.55619
0
LINE
8
BLACK
6
CONTINUOUS
10
5.91823
20
-3.55619
11
5.91826
21
-3.55618
0
LINE
8
BLACK
6
CONTINUOUS
10
5.91826
20
-3.55618
11
5.91871
21
-3.55609
0
LINE
8
BLACK
6
CONTINUOUS
10
5.91871
20
-3.55609
11
5.91916
21
-3.55598
0
LINE
8
BLACK
6
CONTINUOUS
10
5.91916
20
-3.55598
11
5.91918
21
-3.55598
0
LINE
8
BLACK
6
CONTINUOUS
10
5.91918
20
-3.55598
11
5.91921
21
-3.55598
0
LINE
8
BLACK
6
CONTINUOUS
10
5.91921
20
-3.55598
11
5.91967
21
-3.55597
0
LINE
8
BLACK
6
CONTINUOUS
10
5.91967
20
-3.55597
11
5.92013
21
-3.55596
0
LINE
8
BLACK
6
CONTINUOUS
10
5.92013
20
-3.55596
11
5.92016
21
-3.55597
0
LINE
8
BLACK
6
CONTINUOUS
10
5.76347
20
-3.55597
11
5.76393
21
-3.55599
0
LINE
8
BLACK
6
CONTINUOUS
10
5.76393
20
-3.55599
11
5.76396
21
-3.55599
0
LINE
8
BLACK
6
CONTINUOUS
10
5.76396
20
-3.55599
11
5.76398
21
-3.55599
0
LINE
8
BLACK
6
CONTINUOUS
10
5.76398
20
-3.55599
11
5.76443
21
-3.5561
0
LINE
8
BLACK
6
CONTINUOUS
10
5.76443
20
-3.5561
11
5.76488
21
-3.5562
0
LINE
8
BLACK
6
CONTINUOUS
10
5.76488
20
-3.5562
11
5.76491
21
-3.55621
0
LINE
8
BLACK
6
CONTINUOUS
10
5.76491
20
-3.55621
11
5.76493
21
-3.55622
0
LINE
8
BLACK
6
CONTINUOUS
10
5.76493
20
-3.55622
11
5.76535
21
-3.55641
0
LINE
8
BLACK
6
CONTINUOUS
10
5.76535
20
-3.55641
11
5.76577
21
-3.5566
0
LINE
8
BLACK
6
CONTINUOUS
10
5.76577
20
-3.5566
11
5.76579
21
-3.55662
0
LINE
8
BLACK
6
CONTINUOUS
10
5.76579
20
-3.55662
11
5.76582
21
-3.55663
0
LINE
8
BLACK
6
CONTINUOUS
10
5.76582
20
-3.55663
11
5.76619
21
-3.5569
0
LINE
8
BLACK
6
CONTINUOUS
10
5.76619
20
-3.5569
11
5.76657
21
-3.55716
0
LINE
8
BLACK
6
CONTINUOUS
10
5.76657
20
-3.55716
11
5.76659
21
-3.55718
0
LINE
8
BLACK
6
CONTINUOUS
10
5.76659
20
-3.55718
11
5.76661
21
-3.5572
0
LINE
8
BLACK
6
CONTINUOUS
10
5.76661
20
-3.5572
11
5.76692
21
-3.55753
0
LINE
8
BLACK
6
CONTINUOUS
10
5.76692
20
-3.55753
11
5.76724
21
-3.55787
0
LINE
8
BLACK
6
CONTINUOUS
10
5.76724
20
-3.55787
11
5.76726
21
-3.55789
0
LINE
8
BLACK
6
CONTINUOUS
10
5.76726
20
-3.55789
11
5.76728
21
-3.55791
0
LINE
8
BLACK
6
CONTINUOUS
10
5.76728
20
-3.55791
11
5.76752
21
-3.5583
0
LINE
8
BLACK
6
CONTINUOUS
10
5.76752
20
-3.5583
11
5.76776
21
-3.55869
0
LINE
8
BLACK
6
CONTINUOUS
10
5.76776
20
-3.55869
11
5.76777
21
-3.55872
0
LINE
8
BLACK
6
CONTINUOUS
10
5.76777
20
-3.55872
11
5.76779
21
-3.55874
0
LINE
8
BLACK
6
CONTINUOUS
10
5.76779
20
-3.55874
11
5.76795
21
-3.55918
0
LINE
8
BLACK
6
CONTINUOUS
10
5.76795
20
-3.55918
11
5.76812
21
-3.5596
0
LINE
8
BLACK
6
CONTINUOUS
10
5.76812
20
-3.5596
11
5.76812
21
-3.55963
0
LINE
8
BLACK
6
CONTINUOUS
10
5.76812
20
-3.55963
11
5.76813
21
-3.55966
0
LINE
8
BLACK
6
CONTINUOUS
10
5.76813
20
-3.55966
11
5.76821
21
-3.56011
0
LINE
8
BLACK
6
CONTINUOUS
10
5.76821
20
-3.56011
11
5.76829
21
-3.56056
0
LINE
8
BLACK
6
CONTINUOUS
10
5.76829
20
-3.56056
11
5.769
21
-3.56986
0
LINE
8
BLACK
6
CONTINUOUS
10
5.769
20
-3.56986
11
5.77196
21
-3.56828
0
LINE
8
BLACK
6
CONTINUOUS
10
5.77196
20
-3.56828
11
5.77528
21
-3.56727
0
LINE
8
BLACK
6
CONTINUOUS
10
5.77528
20
-3.56727
11
5.77874
21
-3.56693
0
LINE
8
BLACK
6
CONTINUOUS
10
5.77874
20
-3.56693
11
5.81417
21
-3.56693
0
LINE
8
BLACK
6
CONTINUOUS
10
5.81417
20
-3.56693
11
5.81763
21
-3.56727
0
LINE
8
BLACK
6
CONTINUOUS
10
5.81763
20
-3.56727
11
5.82095
21
-3.56828
0
LINE
8
BLACK
6
CONTINUOUS
10
5.82095
20
-3.56828
11
5.82402
21
-3.56991
0
LINE
8
BLACK
6
CONTINUOUS
10
5.82402
20
-3.56991
11
5.8267
21
-3.57212
0
LINE
8
BLACK
6
CONTINUOUS
10
5.8267
20
-3.57212
11
5.8289
21
-3.5748
0
LINE
8
BLACK
6
CONTINUOUS
10
5.8289
20
-3.5748
11
5.83054
21
-3.57787
0
LINE
8
BLACK
6
CONTINUOUS
10
5.83054
20
-3.57787
11
5.83155
21
-3.58119
0
LINE
8
BLACK
6
CONTINUOUS
10
5.83155
20
-3.58119
11
5.83189
21
-3.58465
0
LINE
8
BLACK
6
CONTINUOUS
10
5.83189
20
-3.58465
11
5.83189
21
-3.62008
0
LINE
8
BLACK
6
CONTINUOUS
10
5.83189
20
-3.62008
11
5.83155
21
-3.62354
0
LINE
8
BLACK
6
CONTINUOUS
10
5.83155
20
-3.62354
11
5.83054
21
-3.62686
0
LINE
8
BLACK
6
CONTINUOUS
10
5.83054
20
-3.62686
11
5.8289
21
-3.62992
0
LINE
8
BLACK
6
CONTINUOUS
10
5.8289
20
-3.62992
11
5.8267
21
-3.63261
0
LINE
8
BLACK
6
CONTINUOUS
10
5.8267
20
-3.63261
11
5.82402
21
-3.63481
0
LINE
8
BLACK
6
CONTINUOUS
10
5.82402
20
-3.63481
11
5.82095
21
-3.63645
0
LINE
8
BLACK
6
CONTINUOUS
10
5.82095
20
-3.63645
11
5.81763
21
-3.63745
0
LINE
8
BLACK
6
CONTINUOUS
10
5.81763
20
-3.63745
11
5.81417
21
-3.6378
0
LINE
8
BLACK
6
CONTINUOUS
10
5.81417
20
-3.6378
11
5.77874
21
-3.6378
0
LINE
8
BLACK
6
CONTINUOUS
10
5.77874
20
-3.6378
11
5.77528
21
-3.63745
0
LINE
8
BLACK
6
CONTINUOUS
10
5.77528
20
-3.63745
11
5.77418
21
-3.63712
0
LINE
8
BLACK
6
CONTINUOUS
10
5.77418
20
-3.63712
11
5.77754
21
-3.6808
0
LINE
8
BLACK
6
CONTINUOUS
10
5.77754
20
-3.6808
11
5.77754
21
-3.68087
0
LINE
8
BLACK
6
CONTINUOUS
10
5.77754
20
-3.68087
11
5.77753
21
-3.68114
0
LINE
8
BLACK
6
CONTINUOUS
10
5.77753
20
-3.68114
11
5.77755
21
-3.68141
0
LINE
8
BLACK
6
CONTINUOUS
10
5.77755
20
-3.68141
11
5.76772
21
-3.89758
0
LINE
8
BLACK
6
CONTINUOUS
10
5.76772
20
-3.89758
11
5.76772
21
-3.89769
0
LINE
8
BLACK
6
CONTINUOUS
10
5.76772
20
-3.89769
11
5.76772
21
-4.01537
0
LINE
8
BLACK
6
CONTINUOUS
10
5.76772
20
-4.01537
11
5.76772
21
-4.01544
0
LINE
8
BLACK
6
CONTINUOUS
10
5.76772
20
-4.01544
11
5.76768
21
-4.01578
0
LINE
8
BLACK
6
CONTINUOUS
10
5.76768
20
-4.01578
11
5.76766
21
-4.01613
0
LINE
8
BLACK
6
CONTINUOUS
10
5.76766
20
-4.01613
11
5.74804
21
-4.14367
0
LINE
8
BLACK
6
CONTINUOUS
10
5.74804
20
-4.14367
11
5.74803
21
-4.14374
0
LINE
8
BLACK
6
CONTINUOUS
10
5.74803
20
-4.14374
11
5.73823
21
-4.22214
0
LINE
8
BLACK
6
CONTINUOUS
10
5.73823
20
-4.22214
11
5.73822
21
-4.22221
0
LINE
8
BLACK
6
CONTINUOUS
10
5.73822
20
-4.22221
11
5.73815
21
-4.22247
0
LINE
8
BLACK
6
CONTINUOUS
10
5.73815
20
-4.22247
11
5.73812
21
-4.22273
0
LINE
8
BLACK
6
CONTINUOUS
10
5.73812
20
-4.22273
11
5.71851
21
-4.30117
0
LINE
8
BLACK
6
CONTINUOUS
10
5.71851
20
-4.30117
11
5.7185
21
-4.30119
0
LINE
8
BLACK
6
CONTINUOUS
10
5.7185
20
-4.30119
11
5.7185
21
-4.30119
0
LINE
8
BLACK
6
CONTINUOUS
10
5.7185
20
-4.30119
11
5.69608
21
-4.38868
0
LINE
8
BLACK
6
CONTINUOUS
10
5.69608
20
-4.38868
11
5.69606
21
-4.38874
0
LINE
8
BLACK
6
CONTINUOUS
10
5.69606
20
-4.38874
11
5.69602
21
-4.38887
0
LINE
8
BLACK
6
CONTINUOUS
10
5.69602
20
-4.38887
11
5.69599
21
-4.38901
0
LINE
8
BLACK
6
CONTINUOUS
10
5.69599
20
-4.38901
11
5.66937
21
-4.46933
0
LINE
8
BLACK
6
CONTINUOUS
10
5.66937
20
-4.46933
11
5.66935
21
-4.46939
0
LINE
8
BLACK
6
CONTINUOUS
10
5.66935
20
-4.46939
11
5.66926
21
-4.4696
0
LINE
8
BLACK
6
CONTINUOUS
10
5.66926
20
-4.4696
11
5.66919
21
-4.46981
0
LINE
8
BLACK
6
CONTINUOUS
10
5.66919
20
-4.46981
11
5.63001
21
-4.55689
0
LINE
8
BLACK
6
CONTINUOUS
10
5.63001
20
-4.55689
11
5.62998
21
-4.55696
0
LINE
8
BLACK
6
CONTINUOUS
10
5.62998
20
-4.55696
11
5.62989
21
-4.55711
0
LINE
8
BLACK
6
CONTINUOUS
10
5.62989
20
-4.55711
11
5.62982
21
-4.55727
0
LINE
8
BLACK
6
CONTINUOUS
10
5.62982
20
-4.55727
11
5.5809
21
-4.64533
0
LINE
8
BLACK
6
CONTINUOUS
10
5.5809
20
-4.64533
11
5.58086
21
-4.64539
0
LINE
8
BLACK
6
CONTINUOUS
10
5.58086
20
-4.64539
11
5.58066
21
-4.64568
0
LINE
8
BLACK
6
CONTINUOUS
10
5.58066
20
-4.64568
11
5.58047
21
-4.64597
0
LINE
8
BLACK
6
CONTINUOUS
10
5.58047
20
-4.64597
11
5.51203
21
-4.73396
0
LINE
8
BLACK
6
CONTINUOUS
10
5.51203
20
-4.73396
11
5.51199
21
-4.73402
0
LINE
8
BLACK
6
CONTINUOUS
10
5.51199
20
-4.73402
11
5.51176
21
-4.73425
0
LINE
8
BLACK
6
CONTINUOUS
10
5.51176
20
-4.73425
11
5.51155
21
-4.7345
0
LINE
8
BLACK
6
CONTINUOUS
10
5.51155
20
-4.7345
11
5.44022
21
-4.80287
0
LINE
8
BLACK
6
CONTINUOUS
10
5.44022
20
-4.80287
11
5.44017
21
-4.80292
0
LINE
8
BLACK
6
CONTINUOUS
10
5.44017
20
-4.80292
11
5.43988
21
-4.80314
0
LINE
8
BLACK
6
CONTINUOUS
10
5.43988
20
-4.80314
11
5.4396
21
-4.80338
0
LINE
8
BLACK
6
CONTINUOUS
10
5.4396
20
-4.80338
11
5.37434
21
-4.8484
0
LINE
8
BLACK
6
CONTINUOUS
10
5.37434
20
-4.8484
11
5.37318
21
-4.85421
0
LINE
8
BLACK
6
CONTINUOUS
10
5.37318
20
-4.85421
11
5.37016
21
-4.8615
0
LINE
8
BLACK
6
CONTINUOUS
10
5.37016
20
-4.8615
11
5.36578
21
-4.86807
0
LINE
8
BLACK
6
CONTINUOUS
10
5.36578
20
-4.86807
11
5.36019
21
-4.87365
0
LINE
8
BLACK
6
CONTINUOUS
10
5.36019
20
-4.87365
11
5.35363
21
-4.87804
0
LINE
8
BLACK
6
CONTINUOUS
10
5.35363
20
-4.87804
11
5.34634
21
-4.88106
0
LINE
8
BLACK
6
CONTINUOUS
10
5.34634
20
-4.88106
11
5.33859
21
-4.8826
0
LINE
8
BLACK
6
CONTINUOUS
10
5.33859
20
-4.8826
11
5.3307
21
-4.8826
0
LINE
8
BLACK
6
CONTINUOUS
10
5.3307
20
-4.8826
11
5.32296
21
-4.88106
0
LINE
8
BLACK
6
CONTINUOUS
10
5.32296
20
-4.88106
11
5.31566
21
-4.87804
0
LINE
8
BLACK
6
CONTINUOUS
10
5.31566
20
-4.87804
11
5.31439
21
-4.87718
0
LINE
8
BLACK
6
CONTINUOUS
10
5.31439
20
-4.87718
11
5.27644
21
-4.89141
0
LINE
8
BLACK
6
CONTINUOUS
10
5.27644
20
-4.89141
11
5.27637
21
-4.89144
0
LINE
8
BLACK
6
CONTINUOUS
10
5.27637
20
-4.89144
11
5.27601
21
-4.89153
0
LINE
8
BLACK
6
CONTINUOUS
10
5.27601
20
-4.89153
11
5.27566
21
-4.89164
0
LINE
8
BLACK
6
CONTINUOUS
10
5.27566
20
-4.89164
11
5.27554
21
-4.89165
0
LINE
8
BLACK
6
CONTINUOUS
10
5.27554
20
-4.89165
11
5.27543
21
-4.89168
0
LINE
8
BLACK
6
CONTINUOUS
10
5.27543
20
-4.89168
11
5.27505
21
-4.8917
0
LINE
8
BLACK
6
CONTINUOUS
10
5.27505
20
-4.8917
11
5.27468
21
-4.89173
0
LINE
8
BLACK
6
CONTINUOUS
10
5.27468
20
-4.89173
11
5.18803
21
-4.89173
0
LINE
8
BLACK
6
CONTINUOUS
10
5.18803
20
-4.89173
11
5.18796
21
-4.89173
0
LINE
8
BLACK
6
CONTINUOUS
10
5.18796
20
-4.89173
11
5.18699
21
-4.89162
0
LINE
8
BLACK
6
CONTINUOUS
10
5.18699
20
-4.89162
11
5.18634
21
-4.89141
0
LINE
8
BLACK
6
CONTINUOUS
10
5.18634
20
-4.89141
11
5.18606
21
-4.89133
0
LINE
8
BLACK
6
CONTINUOUS
10
5.18606
20
-4.89133
11
5.11881
21
-4.86251
0
LINE
8
BLACK
6
CONTINUOUS
10
5.11881
20
-4.86251
11
5.11875
21
-4.86248
0
LINE
8
BLACK
6
CONTINUOUS
10
5.11875
20
-4.86248
11
5.11854
21
-4.86236
0
LINE
8
BLACK
6
CONTINUOUS
10
5.11854
20
-4.86236
11
5.11833
21
-4.86227
0
LINE
8
BLACK
6
CONTINUOUS
10
5.11833
20
-4.86227
11
5.11812
21
-4.86212
0
LINE
8
BLACK
6
CONTINUOUS
10
5.11812
20
-4.86212
11
5.1179
21
-4.862
0
LINE
8
BLACK
6
CONTINUOUS
10
5.1179
20
-4.862
11
5.11772
21
-4.86184
0
LINE
8
BLACK
6
CONTINUOUS
10
5.11772
20
-4.86184
11
5.11753
21
-4.86171
0
LINE
8
BLACK
6
CONTINUOUS
10
5.11753
20
-4.86171
11
5.04998
21
-4.80381
0
LINE
8
BLACK
6
CONTINUOUS
10
5.04998
20
-4.80381
11
5.04995
21
-4.80378
0
LINE
8
BLACK
6
CONTINUOUS
10
5.04995
20
-4.80378
11
5.04995
21
-4.80378
0
LINE
8
BLACK
6
CONTINUOUS
10
5.04995
20
-4.80378
11
5.04995
21
-4.80378
0
LINE
8
BLACK
6
CONTINUOUS
10
5.04995
20
-4.80378
11
5.04993
21
-4.80376
0
LINE
8
BLACK
6
CONTINUOUS
10
5.04993
20
-4.80376
11
5.0496
21
-4.80341
0
LINE
8
BLACK
6
CONTINUOUS
10
5.0496
20
-4.80341
11
5.04928
21
-4.80307
0
LINE
8
BLACK
6
CONTINUOUS
10
5.04928
20
-4.80307
11
5.04927
21
-4.80306
0
LINE
8
BLACK
6
CONTINUOUS
10
5.04927
20
-4.80306
11
5.04926
21
-4.80305
0
LINE
8
BLACK
6
CONTINUOUS
10
5.04926
20
-4.80305
11
5.04901
21
-4.80265
0
LINE
8
BLACK
6
CONTINUOUS
10
5.04901
20
-4.80265
11
5.04876
21
-4.80225
0
LINE
8
BLACK
6
CONTINUOUS
10
5.04876
20
-4.80225
11
5.01014
21
-4.72501
0
LINE
8
BLACK
6
CONTINUOUS
10
5.01014
20
-4.72501
11
5.01011
21
-4.72495
0
LINE
8
BLACK
6
CONTINUOUS
10
5.01011
20
-4.72495
11
5.01006
21
-4.72481
0
LINE
8
BLACK
6
CONTINUOUS
10
5.01006
20
-4.72481
11
5.01
21
-4.72469
0
LINE
8
BLACK
6
CONTINUOUS
10
5.01
20
-4.72469
11
5.00989
21
-4.72436
0
LINE
8
BLACK
6
CONTINUOUS
10
5.00989
20
-4.72436
11
5.00977
21
-4.72403
0
LINE
8
BLACK
6
CONTINUOUS
10
5.00977
20
-4.72403
11
5.00975
21
-4.72389
0
LINE
8
BLACK
6
CONTINUOUS
10
5.00975
20
-4.72389
11
5.00971
21
-4.72375
0
LINE
8
BLACK
6
CONTINUOUS
10
5.00971
20
-4.72375
11
4.99026
21
-4.6265
0
LINE
8
BLACK
6
CONTINUOUS
10
4.99026
20
-4.6265
11
4.99025
21
-4.62643
0
LINE
8
BLACK
6
CONTINUOUS
10
4.99025
20
-4.62643
11
4.99025
21
-4.62643
0
LINE
8
BLACK
6
CONTINUOUS
10
4.99025
20
-4.62643
11
4.99025
21
-4.62643
0
LINE
8
BLACK
6
CONTINUOUS
10
4.99025
20
-4.62643
11
4.99022
21
-4.62608
0
LINE
8
BLACK
6
CONTINUOUS
10
4.99022
20
-4.62608
11
4.99016
21
-4.62546
0
LINE
8
BLACK
6
CONTINUOUS
10
4.99016
20
-4.62546
11
4.99016
21
-4.62546
0
LINE
8
BLACK
6
CONTINUOUS
10
4.99016
20
-4.62546
11
4.99016
21
-4.62546
0
LINE
8
BLACK
6
CONTINUOUS
10
4.99016
20
-4.62546
11
4.99137
21
-4.52782
0
LINE
8
BLACK
6
CONTINUOUS
10
4.99137
20
-4.52782
11
4.99137
21
-4.52775
0
LINE
8
BLACK
6
CONTINUOUS
10
4.99137
20
-4.52775
11
4.99139
21
-4.52753
0
LINE
8
BLACK
6
CONTINUOUS
10
4.99139
20
-4.52753
11
4.9914
21
-4.5273
0
LINE
8
BLACK
6
CONTINUOUS
10
4.9914
20
-4.5273
11
5.00977
21
-4.37066
0
LINE
8
BLACK
6
CONTINUOUS
10
5.00977
20
-4.37066
11
5.00978
21
-4.37059
0
LINE
8
BLACK
6
CONTINUOUS
10
5.00978
20
-4.37059
11
5.0098
21
-4.37053
0
LINE
8
BLACK
6
CONTINUOUS
10
5.0098
20
-4.37053
11
5.0098
21
-4.37048
0
LINE
8
BLACK
6
CONTINUOUS
10
5.0098
20
-4.37048
11
5.00991
21
-4.37006
0
LINE
8
BLACK
6
CONTINUOUS
10
5.00991
20
-4.37006
11
5.01
21
-4.36964
0
LINE
8
BLACK
6
CONTINUOUS
10
5.01
20
-4.36964
11
5.01003
21
-4.36959
0
LINE
8
BLACK
6
CONTINUOUS
10
5.01003
20
-4.36959
11
5.01004
21
-4.36953
0
LINE
8
BLACK
6
CONTINUOUS
10
5.01004
20
-4.36953
11
5.04908
21
-4.26217
0
LINE
8
BLACK
6
CONTINUOUS
10
5.04908
20
-4.26217
11
5.04911
21
-4.2621
0
LINE
8
BLACK
6
CONTINUOUS
10
5.04911
20
-4.2621
11
5.04926
21
-4.26179
0
LINE
8
BLACK
6
CONTINUOUS
10
5.04926
20
-4.26179
11
5.04939
21
-4.26148
0
LINE
8
BLACK
6
CONTINUOUS
10
5.04939
20
-4.26148
11
5.10822
21
-4.15363
0
LINE
8
BLACK
6
CONTINUOUS
10
5.10822
20
-4.15363
11
5.10825
21
-4.15357
0
LINE
8
BLACK
6
CONTINUOUS
10
5.10825
20
-4.15357
11
5.10829
21
-4.15352
0
LINE
8
BLACK
6
CONTINUOUS
10
5.10829
20
-4.15352
11
5.10832
21
-4.15346
0
LINE
8
BLACK
6
CONTINUOUS
10
5.10832
20
-4.15346
11
5.16722
21
-4.05529
0
LINE
8
BLACK
6
CONTINUOUS
10
5.16722
20
-4.05529
11
5.16726
21
-4.05523
0
LINE
8
BLACK
6
CONTINUOUS
10
5.16726
20
-4.05523
11
5.16736
21
-4.0551
0
LINE
8
BLACK
6
CONTINUOUS
10
5.16736
20
-4.0551
11
5.16744
21
-4.05496
0
LINE
8
BLACK
6
CONTINUOUS
10
5.16744
20
-4.05496
11
5.2165
21
-3.98627
0
LINE
8
BLACK
6
CONTINUOUS
10
5.2165
20
-3.98627
11
5.21654
21
-3.98621
0
LINE
8
BLACK
6
CONTINUOUS
10
5.21654
20
-3.98621
11
5.21656
21
-3.98619
0
LINE
8
BLACK
6
CONTINUOUS
10
5.21656
20
-3.98619
11
5.21657
21
-3.98617
0
LINE
8
BLACK
6
CONTINUOUS
10
5.21657
20
-3.98617
11
5.27538
21
-3.90776
0
LINE
8
BLACK
6
CONTINUOUS
10
5.27538
20
-3.90776
11
5.27542
21
-3.90771
0
LINE
8
BLACK
6
CONTINUOUS
10
5.27542
20
-3.90771
11
5.27564
21
-3.90748
0
LINE
8
BLACK
6
CONTINUOUS
10
5.27564
20
-3.90748
11
5.27584
21
-3.90723
0
LINE
8
BLACK
6
CONTINUOUS
10
5.27584
20
-3.90723
11
5.3739
21
-3.80917
0
LINE
8
BLACK
6
CONTINUOUS
10
5.3739
20
-3.80917
11
5.37395
21
-3.80912
0
LINE
8
BLACK
6
CONTINUOUS
10
5.37395
20
-3.80912
11
5.37405
21
-3.80904
0
LINE
8
BLACK
6
CONTINUOUS
10
5.37405
20
-3.80904
11
5.37414
21
-3.80895
0
LINE
8
BLACK
6
CONTINUOUS
10
5.37414
20
-3.80895
11
5.37458
21
-3.80856
0
LINE
8
BLACK
6
CONTINUOUS
10
5.37458
20
-3.80856
11
5.37485
21
-3.80721
0
LINE
8
BLACK
6
CONTINUOUS
10
5.37485
20
-3.80721
11
5.37787
21
-3.79991
0
LINE
8
BLACK
6
CONTINUOUS
10
5.37787
20
-3.79991
11
5.38225
21
-3.79335
0
LINE
8
BLACK
6
CONTINUOUS
10
5.38225
20
-3.79335
11
5.38784
21
-3.78777
0
LINE
8
BLACK
6
CONTINUOUS
10
5.38784
20
-3.78777
11
5.3944
21
-3.78338
0
LINE
8
BLACK
6
CONTINUOUS
10
5.3944
20
-3.78338
11
5.4017
21
-3.78036
0
LINE
8
BLACK
6
CONTINUOUS
10
5.4017
20
-3.78036
11
5.40832
21
-3.77904
0
LINE
8
BLACK
6
CONTINUOUS
10
5.40832
20
-3.77904
11
5.45261
21
-3.74028
0
LINE
8
BLACK
6
CONTINUOUS
10
5.45261
20
-3.74028
11
5.45267
21
-3.74024
0
LINE
8
BLACK
6
CONTINUOUS
10
5.45267
20
-3.74024
11
5.45279
21
-3.74015
0
LINE
8
BLACK
6
CONTINUOUS
10
5.45279
20
-3.74015
11
5.45291
21
-3.74004
0
LINE
8
BLACK
6
CONTINUOUS
10
5.45291
20
-3.74004
11
5.53129
21
-3.68126
0
LINE
8
BLACK
6
CONTINUOUS
10
5.53129
20
-3.68126
11
5.53135
21
-3.68122
0
LINE
8
BLACK
6
CONTINUOUS
10
5.53135
20
-3.68122
11
5.53154
21
-3.6811
0
LINE
8
BLACK
6
CONTINUOUS
10
5.53154
20
-3.6811
11
5.53172
21
-3.68097
0
LINE
8
BLACK
6
CONTINUOUS
10
5.53172
20
-3.68097
11
5.62976
21
-3.62215
0
LINE
8
BLACK
6
CONTINUOUS
10
5.62976
20
-3.62215
11
5.62982
21
-3.62211
0
LINE
8
BLACK
6
CONTINUOUS
10
5.62982
20
-3.62211
11
5.62996
21
-3.62204
0
LINE
8
BLACK
6
CONTINUOUS
10
5.62996
20
-3.62204
11
5.63009
21
-3.62196
0
LINE
8
BLACK
6
CONTINUOUS
10
5.63009
20
-3.62196
11
5.76107
21
-3.55648
0
LINE
8
BLACK
6
CONTINUOUS
10
5.76107
20
-3.55648
11
5.76108
21
-3.55647
0
LINE
8
BLACK
6
CONTINUOUS
10
5.76108
20
-3.55647
11
5.76108
21
-3.55647
0
LINE
8
BLACK
6
CONTINUOUS
10
5.76108
20
-3.55647
11
5.76108
21
-3.55647
0
LINE
8
BLACK
6
CONTINUOUS
10
5.76108
20
-3.55647
11
5.76113
21
-3.55644
0
LINE
8
BLACK
6
CONTINUOUS
10
5.76113
20
-3.55644
11
5.76156
21
-3.55628
0
LINE
8
BLACK
6
CONTINUOUS
10
5.76156
20
-3.55628
11
5.76199
21
-3.55612
0
LINE
8
BLACK
6
CONTINUOUS
10
5.76199
20
-3.55612
11
5.76202
21
-3.55612
0
LINE
8
BLACK
6
CONTINUOUS
10
5.76202
20
-3.55612
11
5.76204
21
-3.55611
0
LINE
8
BLACK
6
CONTINUOUS
10
5.76204
20
-3.55611
11
5.7625
21
-3.55604
0
LINE
8
BLACK
6
CONTINUOUS
10
5.7625
20
-3.55604
11
5.76295
21
-3.55596
0
LINE
8
BLACK
6
CONTINUOUS
10
5.76295
20
-3.55596
11
5.76298
21
-3.55596
0
LINE
8
BLACK
6
CONTINUOUS
10
5.76298
20
-3.55596
11
5.76301
21
-3.55596
0
LINE
8
BLACK
6
CONTINUOUS
10
5.76301
20
-3.55596
11
5.76347
21
-3.55597
0
LINE
8
BLACK
6
CONTINUOUS
10
5.84649
20
-4.10771
11
5.84691
21
-4.10771
0
LINE
8
BLACK
6
CONTINUOUS
10
5.84691
20
-4.10771
11
5.84698
21
-4.10772
0
LINE
8
BLACK
6
CONTINUOUS
10
5.84698
20
-4.10772
11
5.84705
21
-4.10772
0
LINE
8
BLACK
6
CONTINUOUS
10
5.84705
20
-4.10772
11
5.84746
21
-4.10781
0
LINE
8
BLACK
6
CONTINUOUS
10
5.84746
20
-4.10781
11
5.84786
21
-4.10789
0
LINE
8
BLACK
6
CONTINUOUS
10
5.84786
20
-4.10789
11
5.84793
21
-4.10792
0
LINE
8
BLACK
6
CONTINUOUS
10
5.84793
20
-4.10792
11
5.84801
21
-4.10793
0
LINE
8
BLACK
6
CONTINUOUS
10
5.84801
20
-4.10793
11
5.84839
21
-4.1081
0
LINE
8
BLACK
6
CONTINUOUS
10
5.84839
20
-4.1081
11
5.84877
21
-4.10826
0
LINE
8
BLACK
6
CONTINUOUS
10
5.84877
20
-4.10826
11
5.84883
21
-4.1083
0
LINE
8
BLACK
6
CONTINUOUS
10
5.84883
20
-4.1083
11
5.8489
21
-4.10833
0
LINE
8
BLACK
6
CONTINUOUS
10
5.8489
20
-4.10833
11
5.84924
21
-4.10856
0
LINE
8
BLACK
6
CONTINUOUS
10
5.84924
20
-4.10856
11
5.84959
21
-4.10879
0
LINE
8
BLACK
6
CONTINUOUS
10
5.84959
20
-4.10879
11
5.84964
21
-4.10884
0
LINE
8
BLACK
6
CONTINUOUS
10
5.84964
20
-4.10884
11
5.8497
21
-4.10888
0
LINE
8
BLACK
6
CONTINUOUS
10
5.8497
20
-4.10888
11
5.84999
21
-4.10918
0
LINE
8
BLACK
6
CONTINUOUS
10
5.84999
20
-4.10918
11
5.85028
21
-4.10947
0
LINE
8
BLACK
6
CONTINUOUS
10
5.85028
20
-4.10947
11
5.85033
21
-4.10953
0
LINE
8
BLACK
6
CONTINUOUS
10
5.85033
20
-4.10953
11
5.85038
21
-4.10959
0
LINE
8
BLACK
6
CONTINUOUS
10
5.85038
20
-4.10959
11
5.8506
21
-4.10993
0
LINE
8
BLACK
6
CONTINUOUS
10
5.8506
20
-4.10993
11
5.85084
21
-4.11028
0
LINE
8
BLACK
6
CONTINUOUS
10
5.85084
20
-4.11028
11
5.85087
21
-4.11034
0
LINE
8
BLACK
6
CONTINUOUS
10
5.85087
20
-4.11034
11
5.85091
21
-4.11041
0
LINE
8
BLACK
6
CONTINUOUS
10
5.85091
20
-4.11041
11
5.85106
21
-4.11079
0
LINE
8
BLACK
6
CONTINUOUS
10
5.85106
20
-4.11079
11
5.85122
21
-4.11117
0
LINE
8
BLACK
6
CONTINUOUS
10
5.85122
20
-4.11117
11
5.85124
21
-4.11125
0
LINE
8
BLACK
6
CONTINUOUS
10
5.85124
20
-4.11125
11
5.85126
21
-4.11131
0
LINE
8
BLACK
6
CONTINUOUS
10
5.85126
20
-4.11131
11
5.92517
21
-4.36998
0
LINE
8
BLACK
6
CONTINUOUS
10
5.92517
20
-4.36998
11
5.92523
21
-4.37017
0
LINE
8
BLACK
6
CONTINUOUS
10
5.92523
20
-4.37017
11
6.04077
21
-4.67828
0
LINE
8
BLACK
6
CONTINUOUS
10
6.04077
20
-4.67828
11
6.0408
21
-4.67835
0
LINE
8
BLACK
6
CONTINUOUS
10
6.0408
20
-4.67835
11
6.04089
21
-4.67873
0
LINE
8
BLACK
6
CONTINUOUS
10
6.04089
20
-4.67873
11
6.041
21
-4.6791
0
LINE
8
BLACK
6
CONTINUOUS
10
6.041
20
-4.6791
11
6.04101
21
-4.6792
0
LINE
8
BLACK
6
CONTINUOUS
10
6.04101
20
-4.6792
11
6.04104
21
-4.6793
0
LINE
8
BLACK
6
CONTINUOUS
10
6.04104
20
-4.6793
11
6.04106
21
-4.67969
0
LINE
8
BLACK
6
CONTINUOUS
10
6.04106
20
-4.67969
11
6.04109
21
-4.68007
0
LINE
8
BLACK
6
CONTINUOUS
10
6.04109
20
-4.68007
11
6.04108
21
-4.68017
0
LINE
8
BLACK
6
CONTINUOUS
10
6.04108
20
-4.68017
11
6.04109
21
-4.68027
0
LINE
8
BLACK
6
CONTINUOUS
10
6.04109
20
-4.68027
11
6.04103
21
-4.68066
0
LINE
8
BLACK
6
CONTINUOUS
10
6.04103
20
-4.68066
11
6.04099
21
-4.68104
0
LINE
8
BLACK
6
CONTINUOUS
10
6.04099
20
-4.68104
11
6.04096
21
-4.68114
0
LINE
8
BLACK
6
CONTINUOUS
10
6.04096
20
-4.68114
11
6.04095
21
-4.68124
0
LINE
8
BLACK
6
CONTINUOUS
10
6.04095
20
-4.68124
11
6.04082
21
-4.6816
0
LINE
8
BLACK
6
CONTINUOUS
10
6.04082
20
-4.6816
11
6.0407
21
-4.68198
0
LINE
8
BLACK
6
CONTINUOUS
10
6.0407
20
-4.68198
11
6.04065
21
-4.68206
0
LINE
8
BLACK
6
CONTINUOUS
10
6.04065
20
-4.68206
11
6.04062
21
-4.68216
0
LINE
8
BLACK
6
CONTINUOUS
10
6.04062
20
-4.68216
11
6.04042
21
-4.68249
0
LINE
8
BLACK
6
CONTINUOUS
10
6.04042
20
-4.68249
11
6.04024
21
-4.68284
0
LINE
8
BLACK
6
CONTINUOUS
10
6.04024
20
-4.68284
11
6.04017
21
-4.68291
0
LINE
8
BLACK
6
CONTINUOUS
10
6.04017
20
-4.68291
11
6.04012
21
-4.683
0
LINE
8
BLACK
6
CONTINUOUS
10
6.04012
20
-4.683
11
6.03986
21
-4.68329
0
LINE
8
BLACK
6
CONTINUOUS
10
6.03986
20
-4.68329
11
6.03962
21
-4.68359
0
LINE
8
BLACK
6
CONTINUOUS
10
6.03962
20
-4.68359
11
6.03954
21
-4.68365
0
LINE
8
BLACK
6
CONTINUOUS
10
6.03954
20
-4.68365
11
6.03947
21
-4.68372
0
LINE
8
BLACK
6
CONTINUOUS
10
6.03947
20
-4.68372
11
6.03916
21
-4.68396
0
LINE
8
BLACK
6
CONTINUOUS
10
6.03916
20
-4.68396
11
6.03886
21
-4.6842
0
LINE
8
BLACK
6
CONTINUOUS
10
6.03886
20
-4.6842
11
6.03877
21
-4.68425
0
LINE
8
BLACK
6
CONTINUOUS
10
6.03877
20
-4.68425
11
6.03869
21
-4.68431
0
LINE
8
BLACK
6
CONTINUOUS
10
6.03869
20
-4.68431
11
6.03834
21
-4.68448
0
LINE
8
BLACK
6
CONTINUOUS
10
6.03834
20
-4.68448
11
6.038
21
-4.68466
0
LINE
8
BLACK
6
CONTINUOUS
10
6.038
20
-4.68466
11
6.0379
21
-4.68469
0
LINE
8
BLACK
6
CONTINUOUS
10
6.0379
20
-4.68469
11
6.03781
21
-4.68473
0
LINE
8
BLACK
6
CONTINUOUS
10
6.03781
20
-4.68473
11
6.03744
21
-4.68483
0
LINE
8
BLACK
6
CONTINUOUS
10
6.03744
20
-4.68483
11
6.03706
21
-4.68494
0
LINE
8
BLACK
6
CONTINUOUS
10
6.03706
20
-4.68494
11
6.03697
21
-4.68495
0
LINE
8
BLACK
6
CONTINUOUS
10
6.03697
20
-4.68495
11
6.03687
21
-4.68498
0
LINE
8
BLACK
6
CONTINUOUS
10
6.03687
20
-4.68498
11
6.03648
21
-4.685
0
LINE
8
BLACK
6
CONTINUOUS
10
6.03648
20
-4.685
11
6.03609
21
-4.68504
0
LINE
8
BLACK
6
CONTINUOUS
10
6.03609
20
-4.68504
11
5.77684
21
-4.68504
0
LINE
8
BLACK
6
CONTINUOUS
10
5.77684
20
-4.68504
11
5.77943
21
-4.68892
0
LINE
8
BLACK
6
CONTINUOUS
10
5.77943
20
-4.68892
11
5.7821
21
-4.69537
0
LINE
8
BLACK
6
CONTINUOUS
10
5.7821
20
-4.69537
11
5.78346
21
-4.70222
0
LINE
8
BLACK
6
CONTINUOUS
10
5.78346
20
-4.70222
11
5.78346
21
-4.7092
0
LINE
8
BLACK
6
CONTINUOUS
10
5.78346
20
-4.7092
11
5.7821
21
-4.71604
0
LINE
8
BLACK
6
CONTINUOUS
10
5.7821
20
-4.71604
11
5.77943
21
-4.72249
0
LINE
8
BLACK
6
CONTINUOUS
10
5.77943
20
-4.72249
11
5.77555
21
-4.7283
0
LINE
8
BLACK
6
CONTINUOUS
10
5.77555
20
-4.7283
11
5.77062
21
-4.73323
0
LINE
8
BLACK
6
CONTINUOUS
10
5.77062
20
-4.73323
11
5.76482
21
-4.73711
0
LINE
8
BLACK
6
CONTINUOUS
10
5.76482
20
-4.73711
11
5.75837
21
-4.73978
0
LINE
8
BLACK
6
CONTINUOUS
10
5.75837
20
-4.73978
11
5.75152
21
-4.74114
0
LINE
8
BLACK
6
CONTINUOUS
10
5.75152
20
-4.74114
11
5.74454
21
-4.74114
0
LINE
8
BLACK
6
CONTINUOUS
10
5.74454
20
-4.74114
11
5.7377
21
-4.73978
0
LINE
8
BLACK
6
CONTINUOUS
10
5.7377
20
-4.73978
11
5.73125
21
-4.73711
0
LINE
8
BLACK
6
CONTINUOUS
10
5.73125
20
-4.73711
11
5.72544
21
-4.73323
0
LINE
8
BLACK
6
CONTINUOUS
10
5.72544
20
-4.73323
11
5.72051
21
-4.7283
0
LINE
8
BLACK
6
CONTINUOUS
10
5.72051
20
-4.7283
11
5.71663
21
-4.72249
0
LINE
8
BLACK
6
CONTINUOUS
10
5.71663
20
-4.72249
11
5.71396
21
-4.71604
0
LINE
8
BLACK
6
CONTINUOUS
10
5.71396
20
-4.71604
11
5.7126
21
-4.7092
0
LINE
8
BLACK
6
CONTINUOUS
10
5.7126
20
-4.7092
11
5.7126
21
-4.70222
0
LINE
8
BLACK
6
CONTINUOUS
10
5.7126
20
-4.70222
11
5.71396
21
-4.69537
0
LINE
8
BLACK
6
CONTINUOUS
10
5.71396
20
-4.69537
11
5.71663
21
-4.68892
0
LINE
8
BLACK
6
CONTINUOUS
10
5.71663
20
-4.68892
11
5.71923
21
-4.68504
0
LINE
8
BLACK
6
CONTINUOUS
10
5.71923
20
-4.68504
11
5.65682
21
-4.68504
0
LINE
8
BLACK
6
CONTINUOUS
10
5.65682
20
-4.68504
11
5.65675
21
-4.68504
0
LINE
8
BLACK
6
CONTINUOUS
10
5.65675
20
-4.68504
11
5.65636
21
-4.685
0
LINE
8
BLACK
6
CONTINUOUS
10
5.65636
20
-4.685
11
5.65597
21
-4.68497
0
LINE
8
BLACK
6
CONTINUOUS
10
5.65597
20
-4.68497
11
5.65588
21
-4.68494
0
LINE
8
BLACK
6
CONTINUOUS
10
5.65588
20
-4.68494
11
5.65578
21
-4.68493
0
LINE
8
BLACK
6
CONTINUOUS
10
5.65578
20
-4.68493
11
5.65541
21
-4.68481
0
LINE
8
BLACK
6
CONTINUOUS
10
5.65541
20
-4.68481
11
5.65503
21
-4.68471
0
LINE
8
BLACK
6
CONTINUOUS
10
5.65503
20
-4.68471
11
5.65495
21
-4.68466
0
LINE
8
BLACK
6
CONTINUOUS
10
5.65495
20
-4.68466
11
5.65485
21
-4.68464
0
LINE
8
BLACK
6
CONTINUOUS
10
5.65485
20
-4.68464
11
5.65451
21
-4.68445
0
LINE
8
BLACK
6
CONTINUOUS
10
5.65451
20
-4.68445
11
5.65416
21
-4.68427
0
LINE
8
BLACK
6
CONTINUOUS
10
5.65416
20
-4.68427
11
5.65408
21
-4.68421
0
LINE
8
BLACK
6
CONTINUOUS
10
5.65408
20
-4.68421
11
5.654
21
-4.68416
0
LINE
8
BLACK
6
CONTINUOUS
10
5.654
20
-4.68416
11
5.6537
21
-4.68391
0
LINE
8
BLACK
6
CONTINUOUS
10
5.6537
20
-4.68391
11
5.65339
21
-4.68367
0
LINE
8
BLACK
6
CONTINUOUS
10
5.65339
20
-4.68367
11
5.65332
21
-4.6836
0
LINE
8
BLACK
6
CONTINUOUS
10
5.65332
20
-4.6836
11
5.65325
21
-4.68354
0
LINE
8
BLACK
6
CONTINUOUS
10
5.65325
20
-4.68354
11
5.653
21
-4.68323
0
LINE
8
BLACK
6
CONTINUOUS
10
5.653
20
-4.68323
11
5.65275
21
-4.68294
0
LINE
8
BLACK
6
CONTINUOUS
10
5.65275
20
-4.68294
11
5.6527
21
-4.68285
0
LINE
8
BLACK
6
CONTINUOUS
10
5.6527
20
-4.68285
11
5.65264
21
-4.68278
0
LINE
8
BLACK
6
CONTINUOUS
10
5.65264
20
-4.68278
11
5.65246
21
-4.68243
0
LINE
8
BLACK
6
CONTINUOUS
10
5.65246
20
-4.68243
11
5.65226
21
-4.68209
0
LINE
8
BLACK
6
CONTINUOUS
10
5.65226
20
-4.68209
11
5.65223
21
-4.682
0
LINE
8
BLACK
6
CONTINUOUS
10
5.65223
20
-4.682
11
5.65219
21
-4.68191
0
LINE
8
BLACK
6
CONTINUOUS
10
5.65219
20
-4.68191
11
5.65208
21
-4.68154
0
LINE
8
BLACK
6
CONTINUOUS
10
5.65208
20
-4.68154
11
5.65195
21
-4.68117
0
LINE
8
BLACK
6
CONTINUOUS
10
5.65195
20
-4.68117
11
5.65194
21
-4.68107
0
LINE
8
BLACK
6
CONTINUOUS
10
5.65194
20
-4.68107
11
5.65191
21
-4.68098
0
LINE
8
BLACK
6
CONTINUOUS
10
5.65191
20
-4.68098
11
5.65187
21
-4.68059
0
LINE
8
BLACK
6
CONTINUOUS
10
5.65187
20
-4.68059
11
5.65182
21
-4.6802
0
LINE
8
BLACK
6
CONTINUOUS
10
5.65182
20
-4.6802
11
5.65183
21
-4.6801
0
LINE
8
BLACK
6
CONTINUOUS
10
5.65183
20
-4.6801
11
5.65182
21
-4.68
0
LINE
8
BLACK
6
CONTINUOUS
10
5.65182
20
-4.68
11
5.65186
21
-4.67962
0
LINE
8
BLACK
6
CONTINUOUS
10
5.65186
20
-4.67962
11
5.65189
21
-4.67923
0
LINE
8
BLACK
6
CONTINUOUS
10
5.65189
20
-4.67923
11
5.65191
21
-4.67913
0
LINE
8
BLACK
6
CONTINUOUS
10
5.65191
20
-4.67913
11
5.65192
21
-4.67903
0
LINE
8
BLACK
6
CONTINUOUS
10
5.65192
20
-4.67903
11
5.65204
21
-4.67866
0
LINE
8
BLACK
6
CONTINUOUS
10
5.65204
20
-4.67866
11
5.65214
21
-4.67828
0
LINE
8
BLACK
6
CONTINUOUS
10
5.65214
20
-4.67828
11
5.76768
21
-4.37017
0
LINE
8
BLACK
6
CONTINUOUS
10
5.76768
20
-4.37017
11
5.76774
21
-4.36998
0
LINE
8
BLACK
6
CONTINUOUS
10
5.76774
20
-4.36998
11
5.84165
21
-4.11131
0
LINE
8
BLACK
6
CONTINUOUS
10
5.84165
20
-4.11131
11
5.84167
21
-4.11125
0
LINE
8
BLACK
6
CONTINUOUS
10
5.84167
20
-4.11125
11
5.8417
21
-4.11118
0
LINE
8
BLACK
6
CONTINUOUS
10
5.8417
20
-4.11118
11
5.84171
21
-4.11111
0
LINE
8
BLACK
6
CONTINUOUS
10
5.84171
20
-4.11111
11
5.84188
21
-4.11073
0
LINE
8
BLACK
6
CONTINUOUS
10
5.84188
20
-4.11073
11
5.84204
21
-4.11035
0
LINE
8
BLACK
6
CONTINUOUS
10
5.84204
20
-4.11035
11
5.84208
21
-4.11028
0
LINE
8
BLACK
6
CONTINUOUS
10
5.84208
20
-4.11028
11
5.84211
21
-4.11021
0
LINE
8
BLACK
6
CONTINUOUS
10
5.84211
20
-4.11021
11
5.84235
21
-4.10988
0
LINE
8
BLACK
6
CONTINUOUS
10
5.84235
20
-4.10988
11
5.84258
21
-4.10953
0
LINE
8
BLACK
6
CONTINUOUS
10
5.84258
20
-4.10953
11
5.84263
21
-4.10948
0
LINE
8
BLACK
6
CONTINUOUS
10
5.84263
20
-4.10948
11
5.84267
21
-4.10942
0
LINE
8
BLACK
6
CONTINUOUS
10
5.84267
20
-4.10942
11
5.84297
21
-4.10913
0
LINE
8
BLACK
6
CONTINUOUS
10
5.84297
20
-4.10913
11
5.84327
21
-4.10884
0
LINE
8
BLACK
6
CONTINUOUS
10
5.84327
20
-4.10884
11
5.84333
21
-4.1088
0
LINE
8
BLACK
6
CONTINUOUS
10
5.84333
20
-4.1088
11
5.84338
21
-4.10875
0
LINE
8
BLACK
6
CONTINUOUS
10
5.84338
20
-4.10875
11
5.84373
21
-4.10852
0
LINE
8
BLACK
6
CONTINUOUS
10
5.84373
20
-4.10852
11
5.84407
21
-4.10829
0
LINE
8
BLACK
6
CONTINUOUS
10
5.84407
20
-4.10829
11
5.84414
21
-4.10826
0
LINE
8
BLACK
6
CONTINUOUS
10
5.84414
20
-4.10826
11
5.84421
21
-4.10822
0
LINE
8
BLACK
6
CONTINUOUS
10
5.84421
20
-4.10822
11
5.84459
21
-4.10807
0
LINE
8
BLACK
6
CONTINUOUS
10
5.84459
20
-4.10807
11
5.84497
21
-4.10791
0
LINE
8
BLACK
6
CONTINUOUS
10
5.84497
20
-4.10791
11
5.84505
21
-4.1079
0
LINE
8
BLACK
6
CONTINUOUS
10
5.84505
20
-4.1079
11
5.84512
21
-4.10787
0
LINE
8
BLACK
6
CONTINUOUS
10
5.84512
20
-4.10787
11
5.84552
21
-4.1078
0
LINE
8
BLACK
6
CONTINUOUS
10
5.84552
20
-4.1078
11
5.84593
21
-4.10772
0
LINE
8
BLACK
6
CONTINUOUS
10
5.84593
20
-4.10772
11
5.846
21
-4.10772
0
LINE
8
BLACK
6
CONTINUOUS
10
5.846
20
-4.10772
11
5.84608
21
-4.1077
0
LINE
8
BLACK
6
CONTINUOUS
10
5.84608
20
-4.1077
11
5.84649
21
-4.10771
0
LINE
8
BLACK
6
CONTINUOUS
10
5.46309
20
-3.5805
11
5.46954
21
-3.58317
0
LINE
8
BLACK
6
CONTINUOUS
10
5.46954
20
-3.58317
11
5.47534
21
-3.58704
0
LINE
8
BLACK
6
CONTINUOUS
10
5.47534
20
-3.58704
11
5.48028
21
-3.59198
0
LINE
8
BLACK
6
CONTINUOUS
10
5.48028
20
-3.59198
11
5.48416
21
-3.59778
0
LINE
8
BLACK
6
CONTINUOUS
10
5.48416
20
-3.59778
11
5.48683
21
-3.60423
0
LINE
8
BLACK
6
CONTINUOUS
10
5.48683
20
-3.60423
11
5.48819
21
-3.61108
0
LINE
8
BLACK
6
CONTINUOUS
10
5.48819
20
-3.61108
11
5.48819
21
-3.61806
0
LINE
8
BLACK
6
CONTINUOUS
10
5.48819
20
-3.61806
11
5.48683
21
-3.6249
0
LINE
8
BLACK
6
CONTINUOUS
10
5.48683
20
-3.6249
11
5.48416
21
-3.63135
0
LINE
8
BLACK
6
CONTINUOUS
10
5.48416
20
-3.63135
11
5.48028
21
-3.63715
0
LINE
8
BLACK
6
CONTINUOUS
10
5.48028
20
-3.63715
11
5.47534
21
-3.64209
0
LINE
8
BLACK
6
CONTINUOUS
10
5.47534
20
-3.64209
11
5.46954
21
-3.64597
0
LINE
8
BLACK
6
CONTINUOUS
10
5.46954
20
-3.64597
11
5.46309
21
-3.64864
0
LINE
8
BLACK
6
CONTINUOUS
10
5.46309
20
-3.64864
11
5.45625
21
-3.65
0
LINE
8
BLACK
6
CONTINUOUS
10
5.45625
20
-3.65
11
5.44927
21
-3.65
0
LINE
8
BLACK
6
CONTINUOUS
10
5.44927
20
-3.65
11
5.44242
21
-3.64864
0
LINE
8
BLACK
6
CONTINUOUS
10
5.44242
20
-3.64864
11
5.43597
21
-3.64597
0
LINE
8
BLACK
6
CONTINUOUS
10
5.43597
20
-3.64597
11
5.43017
21
-3.64209
0
LINE
8
BLACK
6
CONTINUOUS
10
5.43017
20
-3.64209
11
5.42523
21
-3.63715
0
LINE
8
BLACK
6
CONTINUOUS
10
5.42523
20
-3.63715
11
5.42136
21
-3.63135
0
LINE
8
BLACK
6
CONTINUOUS
10
5.42136
20
-3.63135
11
5.41868
21
-3.6249
0
LINE
8
BLACK
6
CONTINUOUS
10
5.41868
20
-3.6249
11
5.41732
21
-3.61806
0
LINE
8
BLACK
6
CONTINUOUS
10
5.41732
20
-3.61806
11
5.41732
21
-3.61108
0
LINE
8
BLACK
6
CONTINUOUS
10
5.41732
20
-3.61108
11
5.41868
21
-3.60423
0
LINE
8
BLACK
6
CONTINUOUS
10
5.41868
20
-3.60423
11
5.42136
21
-3.59778
0
LINE
8
BLACK
6
CONTINUOUS
10
5.42136
20
-3.59778
11
5.42523
21
-3.59198
0
LINE
8
BLACK
6
CONTINUOUS
10
5.42523
20
-3.59198
11
5.43017
21
-3.58704
0
LINE
8
BLACK
6
CONTINUOUS
10
5.43017
20
-3.58704
11
5.43597
21
-3.58317
0
LINE
8
BLACK
6
CONTINUOUS
10
5.43597
20
-3.58317
11
5.44242
21
-3.5805
0
LINE
8
BLACK
6
CONTINUOUS
10
5.44242
20
-3.5805
11
5.44927
21
-3.57913
0
LINE
8
BLACK
6
CONTINUOUS
10
5.44927
20
-3.57913
11
5.45625
21
-3.57913
0
LINE
8
BLACK
6
CONTINUOUS
10
5.45625
20
-3.57913
11
5.46309
21
-3.5805
0
LINE
8
BLACK
6
CONTINUOUS
10
6.25049
20
-3.5805
11
6.25694
21
-3.58317
0
LINE
8
BLACK
6
CONTINUOUS
10
6.25694
20
-3.58317
11
6.26274
21
-3.58704
0
LINE
8
BLACK
6
CONTINUOUS
10
6.26274
20
-3.58704
11
6.26768
21
-3.59198
0
LINE
8
BLACK
6
CONTINUOUS
10
6.26768
20
-3.59198
11
6.27156
21
-3.59778
0
LINE
8
BLACK
6
CONTINUOUS
10
6.27156
20
-3.59778
11
6.27423
21
-3.60423
0
LINE
8
BLACK
6
CONTINUOUS
10
6.27423
20
-3.60423
11
6.27559
21
-3.61108
0
LINE
8
BLACK
6
CONTINUOUS
10
6.27559
20
-3.61108
11
6.27559
21
-3.61806
0
LINE
8
BLACK
6
CONTINUOUS
10
6.27559
20
-3.61806
11
6.27423
21
-3.6249
0
LINE
8
BLACK
6
CONTINUOUS
10
6.27423
20
-3.6249
11
6.27156
21
-3.63135
0
LINE
8
BLACK
6
CONTINUOUS
10
6.27156
20
-3.63135
11
6.26768
21
-3.63715
0
LINE
8
BLACK
6
CONTINUOUS
10
6.26768
20
-3.63715
11
6.26274
21
-3.64209
0
LINE
8
BLACK
6
CONTINUOUS
10
6.26274
20
-3.64209
11
6.25694
21
-3.64597
0
LINE
8
BLACK
6
CONTINUOUS
10
6.25694
20
-3.64597
11
6.25049
21
-3.64864
0
LINE
8
BLACK
6
CONTINUOUS
10
6.25049
20
-3.64864
11
6.24365
21
-3.65
0
LINE
8
BLACK
6
CONTINUOUS
10
6.24365
20
-3.65
11
6.23667
21
-3.65
0
LINE
8
BLACK
6
CONTINUOUS
10
6.23667
20
-3.65
11
6.22982
21
-3.64864
0
LINE
8
BLACK
6
CONTINUOUS
10
6.22982
20
-3.64864
11
6.22337
21
-3.64597
0
LINE
8
BLACK
6
CONTINUOUS
10
6.22337
20
-3.64597
11
6.21757
21
-3.64209
0
LINE
8
BLACK
6
CONTINUOUS
10
6.21757
20
-3.64209
11
6.21263
21
-3.63715
0
LINE
8
BLACK
6
CONTINUOUS
10
6.21263
20
-3.63715
11
6.20876
21
-3.63135
0
LINE
8
BLACK
6
CONTINUOUS
10
6.20876
20
-3.63135
11
6.20609
21
-3.6249
0
LINE
8
BLACK
6
CONTINUOUS
10
6.20609
20
-3.6249
11
6.20472
21
-3.61806
0
LINE
8
BLACK
6
CONTINUOUS
10
6.20472
20
-3.61806
11
6.20472
21
-3.61108
0
LINE
8
BLACK
6
CONTINUOUS
10
6.20472
20
-3.61108
11
6.20609
21
-3.60423
0
LINE
8
BLACK
6
CONTINUOUS
10
6.20609
20
-3.60423
11
6.20876
21
-3.59778
0
LINE
8
BLACK
6
CONTINUOUS
10
6.20876
20
-3.59778
11
6.21263
21
-3.59198
0
LINE
8
BLACK
6
CONTINUOUS
10
6.21263
20
-3.59198
11
6.21757
21
-3.58704
0
LINE
8
BLACK
6
CONTINUOUS
10
6.21757
20
-3.58704
11
6.22337
21
-3.58317
0
LINE
8
BLACK
6
CONTINUOUS
10
6.22337
20
-3.58317
11
6.22982
21
-3.5805
0
LINE
8
BLACK
6
CONTINUOUS
10
6.22982
20
-3.5805
11
6.23667
21
-3.57913
0
LINE
8
BLACK
6
CONTINUOUS
10
6.23667
20
-3.57913
11
6.24365
21
-3.57913
0
LINE
8
BLACK
6
CONTINUOUS
10
6.24365
20
-3.57913
11
6.25049
21
-3.5805
0
LINE
8
BLACK
6
CONTINUOUS
10
5.85679
20
-3.43207
11
5.86324
21
-3.43474
0
LINE
8
BLACK
6
CONTINUOUS
10
5.86324
20
-3.43474
11
5.86904
21
-3.43862
0
LINE
8
BLACK
6
CONTINUOUS
10
5.86904
20
-3.43862
11
5.87398
21
-3.44355
0
LINE
8
BLACK
6
CONTINUOUS
10
5.87398
20
-3.44355
11
5.87786
21
-3.44936
0
LINE
8
BLACK
6
CONTINUOUS
10
5.87786
20
-3.44936
11
5.88053
21
-3.45581
0
LINE
8
BLACK
6
CONTINUOUS
10
5.88053
20
-3.45581
11
5.88189
21
-3.46265
0
LINE
8
BLACK
6
CONTINUOUS
10
5.88189
20
-3.46265
11
5.88189
21
-3.46963
0
LINE
8
BLACK
6
CONTINUOUS
10
5.88189
20
-3.46963
11
5.88053
21
-3.47648
0
LINE
8
BLACK
6
CONTINUOUS
10
5.88053
20
-3.47648
11
5.87786
21
-3.48293
0
LINE
8
BLACK
6
CONTINUOUS
10
5.87786
20
-3.48293
11
5.87398
21
-3.48873
0
LINE
8
BLACK
6
CONTINUOUS
10
5.87398
20
-3.48873
11
5.86904
21
-3.49366
0
LINE
8
BLACK
6
CONTINUOUS
10
5.86904
20
-3.49366
11
5.86324
21
-3.49754
0
LINE
8
BLACK
6
CONTINUOUS
10
5.86324
20
-3.49754
11
5.85679
21
-3.50021
0
LINE
8
BLACK
6
CONTINUOUS
10
5.85679
20
-3.50021
11
5.84995
21
-3.50157
0
LINE
8
BLACK
6
CONTINUOUS
10
5.84995
20
-3.50157
11
5.84297
21
-3.50157
0
LINE
8
BLACK
6
CONTINUOUS
10
5.84297
20
-3.50157
11
5.83612
21
-3.50021
0
LINE
8
BLACK
6
CONTINUOUS
10
5.83612
20
-3.50021
11
5.82967
21
-3.49754
0
LINE
8
BLACK
6
CONTINUOUS
10
5.82967
20
-3.49754
11
5.82387
21
-3.49366
0
LINE
8
BLACK
6
CONTINUOUS
10
5.82387
20
-3.49366
11
5.81893
21
-3.48873
0
LINE
8
BLACK
6
CONTINUOUS
10
5.81893
20
-3.48873
11
5.81506
21
-3.48293
0
LINE
8
BLACK
6
CONTINUOUS
10
5.81506
20
-3.48293
11
5.81239
21
-3.47648
0
LINE
8
BLACK
6
CONTINUOUS
10
5.81239
20
-3.47648
11
5.81102
21
-3.46963
0
LINE
8
BLACK
6
CONTINUOUS
10
5.81102
20
-3.46963
11
5.81102
21
-3.46265
0
LINE
8
BLACK
6
CONTINUOUS
10
5.81102
20
-3.46265
11
5.81239
21
-3.45581
0
LINE
8
BLACK
6
CONTINUOUS
10
5.81239
20
-3.45581
11
5.81506
21
-3.44936
0
LINE
8
BLACK
6
CONTINUOUS
10
5.81506
20
-3.44936
11
5.81893
21
-3.44355
0
LINE
8
BLACK
6
CONTINUOUS
10
5.81893
20
-3.44355
11
5.82387
21
-3.43862
0
LINE
8
BLACK
6
CONTINUOUS
10
5.82387
20
-3.43862
11
5.82967
21
-3.43474
0
LINE
8
BLACK
6
CONTINUOUS
10
5.82967
20
-3.43474
11
5.83612
21
-3.43207
0
LINE
8
BLACK
6
CONTINUOUS
10
5.83612
20
-3.43207
11
5.84297
21
-3.43071
0
LINE
8
BLACK
6
CONTINUOUS
10
5.84297
20
-3.43071
11
5.84995
21
-3.43071
0
LINE
8
BLACK
6
CONTINUOUS
10
5.84995
20
-3.43071
11
5.85679
21
-3.43207
0
LINE
8
BLACK
6
CONTINUOUS
10
5.75679
20
-3.33207
11
5.76324
21
-3.33474
0
LINE
8
BLACK
6
CONTINUOUS
10
5.76324
20
-3.33474
11
5.76904
21
-3.33862
0
LINE
8
BLACK
6
CONTINUOUS
10
5.76904
20
-3.33862
11
5.77398
21
-3.34355
0
LINE
8
BLACK
6
CONTINUOUS
10
5.77398
20
-3.34355
11
5.77786
21
-3.34936
0
LINE
8
BLACK
6
CONTINUOUS
10
5.77786
20
-3.34936
11
5.78053
21
-3.35581
0
LINE
8
BLACK
6
CONTINUOUS
10
5.78053
20
-3.35581
11
5.78189
21
-3.36265
0
LINE
8
BLACK
6
CONTINUOUS
10
5.78189
20
-3.36265
11
5.78189
21
-3.36963
0
LINE
8
BLACK
6
CONTINUOUS
10
5.78189
20
-3.36963
11
5.78053
21
-3.37648
0
LINE
8
BLACK
6
CONTINUOUS
10
5.78053
20
-3.37648
11
5.77786
21
-3.38293
0
LINE
8
BLACK
6
CONTINUOUS
10
5.77786
20
-3.38293
11
5.77398
21
-3.38873
0
LINE
8
BLACK
6
CONTINUOUS
10
5.77398
20
-3.38873
11
5.76904
21
-3.39366
0
LINE
8
BLACK
6
CONTINUOUS
10
5.76904
20
-3.39366
11
5.76324
21
-3.39754
0
LINE
8
BLACK
6
CONTINUOUS
10
5.76324
20
-3.39754
11
5.75679
21
-3.40021
0
LINE
8
BLACK
6
CONTINUOUS
10
5.75679
20
-3.40021
11
5.74995
21
-3.40157
0
LINE
8
BLACK
6
CONTINUOUS
10
5.74995
20
-3.40157
11
5.74297
21
-3.40157
0
LINE
8
BLACK
6
CONTINUOUS
10
5.74297
20
-3.40157
11
5.73612
21
-3.40021
0
LINE
8
BLACK
6
CONTINUOUS
10
5.73612
20
-3.40021
11
5.72967
21
-3.39754
0
LINE
8
BLACK
6
CONTINUOUS
10
5.72967
20
-3.39754
11
5.72387
21
-3.39366
0
LINE
8
BLACK
6
CONTINUOUS
10
5.72387
20
-3.39366
11
5.71893
21
-3.38873
0
LINE
8
BLACK
6
CONTINUOUS
10
5.71893
20
-3.38873
11
5.71506
21
-3.38293
0
LINE
8
BLACK
6
CONTINUOUS
10
5.71506
20
-3.38293
11
5.71239
21
-3.37648
0
LINE
8
BLACK
6
CONTINUOUS
10
5.71239
20
-3.37648
11
5.71102
21
-3.36963
0
LINE
8
BLACK
6
CONTINUOUS
10
5.71102
20
-3.36963
11
5.71102
21
-3.36265
0
LINE
8
BLACK
6
CONTINUOUS
10
5.71102
20
-3.36265
11
5.71239
21
-3.35581
0
LINE
8
BLACK
6
CONTINUOUS
10
5.71239
20
-3.35581
11
5.71506
21
-3.34936
0
LINE
8
BLACK
6
CONTINUOUS
10
5.71506
20
-3.34936
11
5.71893
21
-3.34355
0
LINE
8
BLACK
6
CONTINUOUS
10
5.71893
20
-3.34355
11
5.72387
21
-3.33862
0
LINE
8
BLACK
6
CONTINUOUS
10
5.72387
20
-3.33862
11
5.72967
21
-3.33474
0
LINE
8
BLACK
6
CONTINUOUS
10
5.72967
20
-3.33474
11
5.73612
21
-3.33207
0
LINE
8
BLACK
6
CONTINUOUS
10
5.73612
20
-3.33207
11
5.74297
21
-3.33071
0
LINE
8
BLACK
6
CONTINUOUS
10
5.74297
20
-3.33071
11
5.74995
21
-3.33071
0
LINE
8
BLACK
6
CONTINUOUS
10
5.74995
20
-3.33071
11
5.75679
21
-3.33207
0
LINE
8
BLACK
6
CONTINUOUS
10
5.95679
20
-3.33207
11
5.96324
21
-3.33474
0
LINE
8
BLACK
6
CONTINUOUS
10
5.96324
20
-3.33474
11
5.96904
21
-3.33862
0
LINE
8
BLACK
6
CONTINUOUS
10
5.96904
20
-3.33862
11
5.97398
21
-3.34355
0
LINE
8
BLACK
6
CONTINUOUS
10
5.97398
20
-3.34355
11
5.97786
21
-3.34936
0
LINE
8
BLACK
6
CONTINUOUS
10
5.97786
20
-3.34936
11
5.98053
21
-3.35581
0
LINE
8
BLACK
6
CONTINUOUS
10
5.98053
20
-3.35581
11
5.98189
21
-3.36265
0
LINE
8
BLACK
6
CONTINUOUS
10
5.98189
20
-3.36265
11
5.98189
21
-3.36963
0
LINE
8
BLACK
6
CONTINUOUS
10
5.98189
20
-3.36963
11
5.98053
21
-3.37648
0
LINE
8
BLACK
6
CONTINUOUS
10
5.98053
20
-3.37648
11
5.97786
21
-3.38293
0
LINE
8
BLACK
6
CONTINUOUS
10
5.97786
20
-3.38293
11
5.97398
21
-3.38873
0
LINE
8
BLACK
6
CONTINUOUS
10
5.97398
20
-3.38873
11
5.96904
21
-3.39366
0
LINE
8
BLACK
6
CONTINUOUS
10
5.96904
20
-3.39366
11
5.96324
21
-3.39754
0
LINE
8
BLACK
6
CONTINUOUS
10
5.96324
20
-3.39754
11
5.95679
21
-3.40021
0
LINE
8
BLACK
6
CONTINUOUS
10
5.95679
20
-3.40021
11
5.94995
21
-3.40157
0
LINE
8
BLACK
6
CONTINUOUS
10
5.94995
20
-3.40157
11
5.94297
21
-3.40157
0
LINE
8
BLACK
6
CONTINUOUS
10
5.94297
20
-3.40157
11
5.93612
21
-3.40021
0
LINE
8
BLACK
6
CONTINUOUS
10
5.93612
20
-3.40021
11
5.92967
21
-3.39754
0
LINE
8
BLACK
6
CONTINUOUS
10
5.92967
20
-3.39754
11
5.92387
21
-3.39366
0
LINE
8
BLACK
6
CONTINUOUS
10
5.92387
20
-3.39366
11
5.91893
21
-3.38873
0
LINE
8
BLACK
6
CONTINUOUS
10
5.91893
20
-3.38873
11
5.91506
21
-3.38293
0
LINE
8
BLACK
6
CONTINUOUS
10
5.91506
20
-3.38293
11
5.91239
21
-3.37648
0
LINE
8
BLACK
6
CONTINUOUS
10
5.91239
20
-3.37648
11
5.91102
21
-3.36963
0
LINE
8
BLACK
6
CONTINUOUS
10
5.91102
20
-3.36963
11
5.91102
21
-3.36265
0
LINE
8
BLACK
6
CONTINUOUS
10
5.91102
20
-3.36265
11
5.91239
21
-3.35581
0
LINE
8
BLACK
6
CONTINUOUS
10
5.91239
20
-3.35581
11
5.91506
21
-3.34936
0
LINE
8
BLACK
6
CONTINUOUS
10
5.91506
20
-3.34936
11
5.91893
21
-3.34355
0
LINE
8
BLACK
6
CONTINUOUS
10
5.91893
20
-3.34355
11
5.92387
21
-3.33862
0
LINE
8
BLACK
6
CONTINUOUS
10
5.92387
20
-3.33862
11
5.92967
21
-3.33474
0
LINE
8
BLACK
6
CONTINUOUS
10
5.92967
20
-3.33474
11
5.93612
21
-3.33207
0
LINE
8
BLACK
6
CONTINUOUS
10
5.93612
20
-3.33207
11
5.94297
21
-3.33071
0
LINE
8
BLACK
6
CONTINUOUS
10
5.94297
20
-3.33071
11
5.94995
21
-3.33071
0
LINE
8
BLACK
6
CONTINUOUS
10
5.94995
20
-3.33071
11
5.95679
21
-3.33207
0
LINE
8
BLACK
6
CONTINUOUS
10
6.25049
20
-3.2805
11
6.25694
21
-3.28317
0
LINE
8
BLACK
6
CONTINUOUS
10
6.25694
20
-3.28317
11
6.26274
21
-3.28704
0
LINE
8
BLACK
6
CONTINUOUS
10
6.26274
20
-3.28704
11
6.26768
21
-3.29198
0
LINE
8
BLACK
6
CONTINUOUS
10
6.26768
20
-3.29198
11
6.27156
21
-3.29778
0
LINE
8
BLACK
6
CONTINUOUS
10
6.27156
20
-3.29778
11
6.27423
21
-3.30423
0
LINE
8
BLACK
6
CONTINUOUS
10
6.27423
20
-3.30423
11
6.27559
21
-3.31108
0
LINE
8
BLACK
6
CONTINUOUS
10
6.27559
20
-3.31108
11
6.27559
21
-3.31806
0
LINE
8
BLACK
6
CONTINUOUS
10
6.27559
20
-3.31806
11
6.27423
21
-3.3249
0
LINE
8
BLACK
6
CONTINUOUS
10
6.27423
20
-3.3249
11
6.27156
21
-3.33135
0
LINE
8
BLACK
6
CONTINUOUS
10
6.27156
20
-3.33135
11
6.26768
21
-3.33715
0
LINE
8
BLACK
6
CONTINUOUS
10
6.26768
20
-3.33715
11
6.26274
21
-3.34209
0
LINE
8
BLACK
6
CONTINUOUS
10
6.26274
20
-3.34209
11
6.25694
21
-3.34597
0
LINE
8
BLACK
6
CONTINUOUS
10
6.25694
20
-3.34597
11
6.25049
21
-3.34864
0
LINE
8
BLACK
6
CONTINUOUS
10
6.25049
20
-3.34864
11
6.24365
21
-3.35
0
LINE
8
BLACK
6
CONTINUOUS
10
6.24365
20
-3.35
11
6.23667
21
-3.35
0
LINE
8
BLACK
6
CONTINUOUS
10
6.23667
20
-3.35
11
6.22982
21
-3.34864
0
LINE
8
BLACK
6
CONTINUOUS
10
6.22982
20
-3.34864
11
6.22337
21
-3.34597
0
LINE
8
BLACK
6
CONTINUOUS
10
6.22337
20
-3.34597
11
6.21757
21
-3.34209
0
LINE
8
BLACK
6
CONTINUOUS
10
6.21757
20
-3.34209
11
6.21263
21
-3.33715
0
LINE
8
BLACK
6
CONTINUOUS
10
6.21263
20
-3.33715
11
6.20876
21
-3.33135
0
LINE
8
BLACK
6
CONTINUOUS
10
6.20876
20
-3.33135
11
6.20609
21
-3.3249
0
LINE
8
BLACK
6
CONTINUOUS
10
6.20609
20
-3.3249
11
6.20472
21
-3.31806
0
LINE
8
BLACK
6
CONTINUOUS
10
6.20472
20
-3.31806
11
6.20472
21
-3.31108
0
LINE
8
BLACK
6
CONTINUOUS
10
6.20472
20
-3.31108
11
6.20609
21
-3.30423
0
LINE
8
BLACK
6
CONTINUOUS
10
6.20609
20
-3.30423
11
6.20876
21
-3.29778
0
LINE
8
BLACK
6
CONTINUOUS
10
6.20876
20
-3.29778
11
6.21263
21
-3.29198
0
LINE
8
BLACK
6
CONTINUOUS
10
6.21263
20
-3.29198
11
6.21757
21
-3.28704
0
LINE
8
BLACK
6
CONTINUOUS
10
6.21757
20
-3.28704
11
6.22337
21
-3.28317
0
LINE
8
BLACK
6
CONTINUOUS
10
6.22337
20
-3.28317
11
6.22982
21
-3.2805
0
LINE
8
BLACK
6
CONTINUOUS
10
6.22982
20
-3.2805
11
6.23667
21
-3.27913
0
LINE
8
BLACK
6
CONTINUOUS
10
6.23667
20
-3.27913
11
6.24365
21
-3.27913
0
LINE
8
BLACK
6
CONTINUOUS
10
6.24365
20
-3.27913
11
6.25049
21
-3.2805
0
LINE
8
BLACK
6
CONTINUOUS
10
5.46309
20
-3.2805
11
5.46954
21
-3.28317
0
LINE
8
BLACK
6
CONTINUOUS
10
5.46954
20
-3.28317
11
5.47534
21
-3.28704
0
LINE
8
BLACK
6
CONTINUOUS
10
5.47534
20
-3.28704
11
5.48028
21
-3.29198
0
LINE
8
BLACK
6
CONTINUOUS
10
5.48028
20
-3.29198
11
5.48416
21
-3.29778
0
LINE
8
BLACK
6
CONTINUOUS
10
5.48416
20
-3.29778
11
5.48683
21
-3.30423
0
LINE
8
BLACK
6
CONTINUOUS
10
5.48683
20
-3.30423
11
5.48819
21
-3.31108
0
LINE
8
BLACK
6
CONTINUOUS
10
5.48819
20
-3.31108
11
5.48819
21
-3.31806
0
LINE
8
BLACK
6
CONTINUOUS
10
5.48819
20
-3.31806
11
5.48683
21
-3.3249
0
LINE
8
BLACK
6
CONTINUOUS
10
5.48683
20
-3.3249
11
5.48416
21
-3.33135
0
LINE
8
BLACK
6
CONTINUOUS
10
5.48416
20
-3.33135
11
5.48028
21
-3.33715
0
LINE
8
BLACK
6
CONTINUOUS
10
5.48028
20
-3.33715
11
5.47534
21
-3.34209
0
LINE
8
BLACK
6
CONTINUOUS
10
5.47534
20
-3.34209
11
5.46954
21
-3.34597
0
LINE
8
BLACK
6
CONTINUOUS
10
5.46954
20
-3.34597
11
5.46309
21
-3.34864
0
LINE
8
BLACK
6
CONTINUOUS
10
5.46309
20
-3.34864
11
5.45625
21
-3.35
0
LINE
8
BLACK
6
CONTINUOUS
10
5.45625
20
-3.35
11
5.44927
21
-3.35
0
LINE
8
BLACK
6
CONTINUOUS
10
5.44927
20
-3.35
11
5.44242
21
-3.34864
0
LINE
8
BLACK
6
CONTINUOUS
10
5.44242
20
-3.34864
11
5.43597
21
-3.34597
0
LINE
8
BLACK
6
CONTINUOUS
10
5.43597
20
-3.34597
11
5.43017
21
-3.34209
0
LINE
8
BLACK
6
CONTINUOUS
10
5.43017
20
-3.34209
11
5.42523
21
-3.33715
0
LINE
8
BLACK
6
CONTINUOUS
10
5.42523
20
-3.33715
11
5.42136
21
-3.33135
0
LINE
8
BLACK
6
CONTINUOUS
10
5.42136
20
-3.33135
11
5.41868
21
-3.3249
0
LINE
8
BLACK
6
CONTINUOUS
10
5.41868
20
-3.3249
11
5.41732
21
-3.31806
0
LINE
8
BLACK
6
CONTINUOUS
10
5.41732
20
-3.31806
11
5.41732
21
-3.31108
0
LINE
8
BLACK
6
CONTINUOUS
10
5.41732
20
-3.31108
11
5.41868
21
-3.30423
0
LINE
8
BLACK
6
CONTINUOUS
10
5.41868
20
-3.30423
11
5.42136
21
-3.29778
0
LINE
8
BLACK
6
CONTINUOUS
10
5.42136
20
-3.29778
11
5.42523
21
-3.29198
0
LINE
8
BLACK
6
CONTINUOUS
10
5.42523
20
-3.29198
11
5.43017
21
-3.28704
0
LINE
8
BLACK
6
CONTINUOUS
10
5.43017
20
-3.28704
11
5.43597
21
-3.28317
0
LINE
8
BLACK
6
CONTINUOUS
10
5.43597
20
-3.28317
11
5.44242
21
-3.2805
0
LINE
8
BLACK
6
CONTINUOUS
10
5.44242
20
-3.2805
11
5.44927
21
-3.27913
0
LINE
8
BLACK
6
CONTINUOUS
10
5.44927
20
-3.27913
11
5.45625
21
-3.27913
0
LINE
8
BLACK
6
CONTINUOUS
10
5.45625
20
-3.27913
11
5.46309
21
-3.2805
0
LINE
8
BLACK
6
CONTINUOUS
10
5.51928
20
-3.1819
11
5.52261
21
-3.18291
0
LINE
8
BLACK
6
CONTINUOUS
10
5.52261
20
-3.18291
11
5.52567
21
-3.18455
0
LINE
8
BLACK
6
CONTINUOUS
10
5.52567
20
-3.18455
11
5.52835
21
-3.18675
0
LINE
8
BLACK
6
CONTINUOUS
10
5.52835
20
-3.18675
11
5.55341
21
-3.2118
0
LINE
8
BLACK
6
CONTINUOUS
10
5.55341
20
-3.2118
11
5.55561
21
-3.21449
0
LINE
8
BLACK
6
CONTINUOUS
10
5.55561
20
-3.21449
11
5.55725
21
-3.21755
0
LINE
8
BLACK
6
CONTINUOUS
10
5.55725
20
-3.21755
11
5.55826
21
-3.22088
0
LINE
8
BLACK
6
CONTINUOUS
10
5.55826
20
-3.22088
11
5.5586
21
-3.22433
0
LINE
8
BLACK
6
CONTINUOUS
10
5.5586
20
-3.22433
11
5.55826
21
-3.22779
0
LINE
8
BLACK
6
CONTINUOUS
10
5.55826
20
-3.22779
11
5.55725
21
-3.23111
0
LINE
8
BLACK
6
CONTINUOUS
10
5.55725
20
-3.23111
11
5.55561
21
-3.23417
0
LINE
8
BLACK
6
CONTINUOUS
10
5.55561
20
-3.23417
11
5.55341
21
-3.23686
0
LINE
8
BLACK
6
CONTINUOUS
10
5.55341
20
-3.23686
11
5.52835
21
-3.26191
0
LINE
8
BLACK
6
CONTINUOUS
10
5.52835
20
-3.26191
11
5.52567
21
-3.26412
0
LINE
8
BLACK
6
CONTINUOUS
10
5.52567
20
-3.26412
11
5.52261
21
-3.26575
0
LINE
8
BLACK
6
CONTINUOUS
10
5.52261
20
-3.26575
11
5.51928
21
-3.26676
0
LINE
8
BLACK
6
CONTINUOUS
10
5.51928
20
-3.26676
11
5.51583
21
-3.2671
0
LINE
8
BLACK
6
CONTINUOUS
10
5.51583
20
-3.2671
11
5.51237
21
-3.26676
0
LINE
8
BLACK
6
CONTINUOUS
10
5.51237
20
-3.26676
11
5.50905
21
-3.26575
0
LINE
8
BLACK
6
CONTINUOUS
10
5.50905
20
-3.26575
11
5.50598
21
-3.26412
0
LINE
8
BLACK
6
CONTINUOUS
10
5.50598
20
-3.26412
11
5.5033
21
-3.26191
0
LINE
8
BLACK
6
CONTINUOUS
10
5.5033
20
-3.26191
11
5.47824
21
-3.23686
0
LINE
8
BLACK
6
CONTINUOUS
10
5.47824
20
-3.23686
11
5.47604
21
-3.23417
0
LINE
8
BLACK
6
CONTINUOUS
10
5.47604
20
-3.23417
11
5.4744
21
-3.23111
0
LINE
8
BLACK
6
CONTINUOUS
10
5.4744
20
-3.23111
11
5.47339
21
-3.22779
0
LINE
8
BLACK
6
CONTINUOUS
10
5.47339
20
-3.22779
11
5.47305
21
-3.22433
0
LINE
8
BLACK
6
CONTINUOUS
10
5.47305
20
-3.22433
11
5.47339
21
-3.22088
0
LINE
8
BLACK
6
CONTINUOUS
10
5.47339
20
-3.22088
11
5.4744
21
-3.21755
0
LINE
8
BLACK
6
CONTINUOUS
10
5.4744
20
-3.21755
11
5.47604
21
-3.21449
0
LINE
8
BLACK
6
CONTINUOUS
10
5.47604
20
-3.21449
11
5.47824
21
-3.2118
0
LINE
8
BLACK
6
CONTINUOUS
10
5.47824
20
-3.2118
11
5.5033
21
-3.18675
0
LINE
8
BLACK
6
CONTINUOUS
10
5.5033
20
-3.18675
11
5.50598
21
-3.18455
0
LINE
8
BLACK
6
CONTINUOUS
10
5.50598
20
-3.18455
11
5.50905
21
-3.18291
0
LINE
8
BLACK
6
CONTINUOUS
10
5.50905
20
-3.18291
11
5.51237
21
-3.1819
0
LINE
8
BLACK
6
CONTINUOUS
10
5.51237
20
-3.1819
11
5.51583
21
-3.18156
0
LINE
8
BLACK
6
CONTINUOUS
10
5.51583
20
-3.18156
11
5.51928
21
-3.1819
0
LINE
8
BLACK
6
CONTINUOUS
10
6.18054
20
-3.1819
11
6.18387
21
-3.18291
0
LINE
8
BLACK
6
CONTINUOUS
10
6.18387
20
-3.18291
11
6.18693
21
-3.18455
0
LINE
8
BLACK
6
CONTINUOUS
10
6.18693
20
-3.18455
11
6.18962
21
-3.18675
0
LINE
8
BLACK
6
CONTINUOUS
10
6.18962
20
-3.18675
11
6.21467
21
-3.2118
0
LINE
8
BLACK
6
CONTINUOUS
10
6.21467
20
-3.2118
11
6.21687
21
-3.21449
0
LINE
8
BLACK
6
CONTINUOUS
10
6.21687
20
-3.21449
11
6.21851
21
-3.21755
0
LINE
8
BLACK
6
CONTINUOUS
10
6.21851
20
-3.21755
11
6.21952
21
-3.22088
0
LINE
8
BLACK
6
CONTINUOUS
10
6.21952
20
-3.22088
11
6.21986
21
-3.22433
0
LINE
8
BLACK
6
CONTINUOUS
10
6.21986
20
-3.22433
11
6.21952
21
-3.22779
0
LINE
8
BLACK
6
CONTINUOUS
10
6.21952
20
-3.22779
11
6.21851
21
-3.23111
0
LINE
8
BLACK
6
CONTINUOUS
10
6.21851
20
-3.23111
11
6.21687
21
-3.23417
0
LINE
8
BLACK
6
CONTINUOUS
10
6.21687
20
-3.23417
11
6.21467
21
-3.23686
0
LINE
8
BLACK
6
CONTINUOUS
10
6.21467
20
-3.23686
11
6.18962
21
-3.26191
0
LINE
8
BLACK
6
CONTINUOUS
10
6.18962
20
-3.26191
11
6.18693
21
-3.26412
0
LINE
8
BLACK
6
CONTINUOUS
10
6.18693
20
-3.26412
11
6.18387
21
-3.26575
0
LINE
8
BLACK
6
CONTINUOUS
10
6.18387
20
-3.26575
11
6.18054
21
-3.26676
0
LINE
8
BLACK
6
CONTINUOUS
10
6.18054
20
-3.26676
11
6.17709
21
-3.2671
0
LINE
8
BLACK
6
CONTINUOUS
10
6.17709
20
-3.2671
11
6.17363
21
-3.26676
0
LINE
8
BLACK
6
CONTINUOUS
10
6.17363
20
-3.26676
11
6.17031
21
-3.26575
0
LINE
8
BLACK
6
CONTINUOUS
10
6.17031
20
-3.26575
11
6.16724
21
-3.26412
0
LINE
8
BLACK
6
CONTINUOUS
10
6.16724
20
-3.26412
11
6.16456
21
-3.26191
0
LINE
8
BLACK
6
CONTINUOUS
10
6.16456
20
-3.26191
11
6.13951
21
-3.23686
0
LINE
8
BLACK
6
CONTINUOUS
10
6.13951
20
-3.23686
11
6.1373
21
-3.23417
0
LINE
8
BLACK
6
CONTINUOUS
10
6.1373
20
-3.23417
11
6.13566
21
-3.23111
0
LINE
8
BLACK
6
CONTINUOUS
10
6.13566
20
-3.23111
11
6.13466
21
-3.22779
0
LINE
8
BLACK
6
CONTINUOUS
10
6.13466
20
-3.22779
11
6.13432
21
-3.22433
0
LINE
8
BLACK
6
CONTINUOUS
10
6.13432
20
-3.22433
11
6.13466
21
-3.22088
0
LINE
8
BLACK
6
CONTINUOUS
10
6.13466
20
-3.22088
11
6.13566
21
-3.21755
0
LINE
8
BLACK
6
CONTINUOUS
10
6.13566
20
-3.21755
11
6.1373
21
-3.21449
0
LINE
8
BLACK
6
CONTINUOUS
10
6.1373
20
-3.21449
11
6.13951
21
-3.2118
0
LINE
8
BLACK
6
CONTINUOUS
10
6.13951
20
-3.2118
11
6.16456
21
-3.18675
0
LINE
8
BLACK
6
CONTINUOUS
10
6.16456
20
-3.18675
11
6.16724
21
-3.18455
0
LINE
8
BLACK
6
CONTINUOUS
10
6.16724
20
-3.18455
11
6.17031
21
-3.18291
0
LINE
8
BLACK
6
CONTINUOUS
10
6.17031
20
-3.18291
11
6.17363
21
-3.1819
0
LINE
8
BLACK
6
CONTINUOUS
10
6.17363
20
-3.1819
11
6.17709
21
-3.18156
0
LINE
8
BLACK
6
CONTINUOUS
10
6.17709
20
-3.18156
11
6.18054
21
-3.1819
0
LINE
8
BLACK
6
CONTINUOUS
10
5.70679
20
-3.19428
11
5.71324
21
-3.19695
0
LINE
8
BLACK
6
CONTINUOUS
10
5.71324
20
-3.19695
11
5.71904
21
-3.20082
0
LINE
8
BLACK
6
CONTINUOUS
10
5.71904
20
-3.20082
11
5.72398
21
-3.20576
0
LINE
8
BLACK
6
CONTINUOUS
10
5.72398
20
-3.20576
11
5.72786
21
-3.21156
0
LINE
8
BLACK
6
CONTINUOUS
10
5.72786
20
-3.21156
11
5.73053
21
-3.21801
0
LINE
8
BLACK
6
CONTINUOUS
10
5.73053
20
-3.21801
11
5.73189
21
-3.22486
0
LINE
8
BLACK
6
CONTINUOUS
10
5.73189
20
-3.22486
11
5.73189
21
-3.23184
0
LINE
8
BLACK
6
CONTINUOUS
10
5.73189
20
-3.23184
11
5.73053
21
-3.23868
0
LINE
8
BLACK
6
CONTINUOUS
10
5.73053
20
-3.23868
11
5.72786
21
-3.24513
0
LINE
8
BLACK
6
CONTINUOUS
10
5.72786
20
-3.24513
11
5.72398
21
-3.25093
0
LINE
8
BLACK
6
CONTINUOUS
10
5.72398
20
-3.25093
11
5.71904
21
-3.25587
0
LINE
8
BLACK
6
CONTINUOUS
10
5.71904
20
-3.25587
11
5.71324
21
-3.25975
0
LINE
8
BLACK
6
CONTINUOUS
10
5.71324
20
-3.25975
11
5.70679
21
-3.26242
0
LINE
8
BLACK
6
CONTINUOUS
10
5.70679
20
-3.26242
11
5.69995
21
-3.26378
0
LINE
8
BLACK
6
CONTINUOUS
10
5.69995
20
-3.26378
11
5.69297
21
-3.26378
0
LINE
8
BLACK
6
CONTINUOUS
10
5.69297
20
-3.26378
11
5.68612
21
-3.26242
0
LINE
8
BLACK
6
CONTINUOUS
10
5.68612
20
-3.26242
11
5.67967
21
-3.25975
0
LINE
8
BLACK
6
CONTINUOUS
10
5.67967
20
-3.25975
11
5.67387
21
-3.25587
0
LINE
8
BLACK
6
CONTINUOUS
10
5.67387
20
-3.25587
11
5.66893
21
-3.25093
0
LINE
8
BLACK
6
CONTINUOUS
10
5.66893
20
-3.25093
11
5.66506
21
-3.24513
0
LINE
8
BLACK
6
CONTINUOUS
10
5.66506
20
-3.24513
11
5.66239
21
-3.23868
0
LINE
8
BLACK
6
CONTINUOUS
10
5.66239
20
-3.23868
11
5.66102
21
-3.23184
0
LINE
8
BLACK
6
CONTINUOUS
10
5.66102
20
-3.23184
11
5.66102
21
-3.22486
0
LINE
8
BLACK
6
CONTINUOUS
10
5.66102
20
-3.22486
11
5.66239
21
-3.21801
0
LINE
8
BLACK
6
CONTINUOUS
10
5.66239
20
-3.21801
11
5.66506
21
-3.21156
0
LINE
8
BLACK
6
CONTINUOUS
10
5.66506
20
-3.21156
11
5.66893
21
-3.20576
0
LINE
8
BLACK
6
CONTINUOUS
10
5.66893
20
-3.20576
11
5.67387
21
-3.20082
0
LINE
8
BLACK
6
CONTINUOUS
10
5.67387
20
-3.20082
11
5.67967
21
-3.19695
0
LINE
8
BLACK
6
CONTINUOUS
10
5.67967
20
-3.19695
11
5.68612
21
-3.19428
0
LINE
8
BLACK
6
CONTINUOUS
10
5.68612
20
-3.19428
11
5.69297
21
-3.19291
0
LINE
8
BLACK
6
CONTINUOUS
10
5.69297
20
-3.19291
11
5.69995
21
-3.19291
0
LINE
8
BLACK
6
CONTINUOUS
10
5.69995
20
-3.19291
11
5.70679
21
-3.19428
0
LINE
8
BLACK
6
CONTINUOUS
10
6.00679
20
-3.19428
11
6.01324
21
-3.19695
0
LINE
8
BLACK
6
CONTINUOUS
10
6.01324
20
-3.19695
11
6.01904
21
-3.20082
0
LINE
8
BLACK
6
CONTINUOUS
10
6.01904
20
-3.20082
11
6.02398
21
-3.20576
0
LINE
8
BLACK
6
CONTINUOUS
10
6.02398
20
-3.20576
11
6.02786
21
-3.21156
0
LINE
8
BLACK
6
CONTINUOUS
10
6.02786
20
-3.21156
11
6.03053
21
-3.21801
0
LINE
8
BLACK
6
CONTINUOUS
10
6.03053
20
-3.21801
11
6.03189
21
-3.22486
0
LINE
8
BLACK
6
CONTINUOUS
10
6.03189
20
-3.22486
11
6.03189
21
-3.23184
0
LINE
8
BLACK
6
CONTINUOUS
10
6.03189
20
-3.23184
11
6.03053
21
-3.23868
0
LINE
8
BLACK
6
CONTINUOUS
10
6.03053
20
-3.23868
11
6.02786
21
-3.24513
0
LINE
8
BLACK
6
CONTINUOUS
10
6.02786
20
-3.24513
11
6.02398
21
-3.25093
0
LINE
8
BLACK
6
CONTINUOUS
10
6.02398
20
-3.25093
11
6.01904
21
-3.25587
0
LINE
8
BLACK
6
CONTINUOUS
10
6.01904
20
-3.25587
11
6.01324
21
-3.25975
0
LINE
8
BLACK
6
CONTINUOUS
10
6.01324
20
-3.25975
11
6.00679
21
-3.26242
0
LINE
8
BLACK
6
CONTINUOUS
10
6.00679
20
-3.26242
11
5.99995
21
-3.26378
0
LINE
8
BLACK
6
CONTINUOUS
10
5.99995
20
-3.26378
11
5.99297
21
-3.26378
0
LINE
8
BLACK
6
CONTINUOUS
10
5.99297
20
-3.26378
11
5.98612
21
-3.26242
0
LINE
8
BLACK
6
CONTINUOUS
10
5.98612
20
-3.26242
11
5.97967
21
-3.25975
0
LINE
8
BLACK
6
CONTINUOUS
10
5.97967
20
-3.25975
11
5.97387
21
-3.25587
0
LINE
8
BLACK
6
CONTINUOUS
10
5.97387
20
-3.25587
11
5.96893
21
-3.25093
0
LINE
8
BLACK
6
CONTINUOUS
10
5.96893
20
-3.25093
11
5.96506
21
-3.24513
0
LINE
8
BLACK
6
CONTINUOUS
10
5.96506
20
-3.24513
11
5.96239
21
-3.23868
0
LINE
8
BLACK
6
CONTINUOUS
10
5.96239
20
-3.23868
11
5.96102
21
-3.23184
0
LINE
8
BLACK
6
CONTINUOUS
10
5.96102
20
-3.23184
11
5.96102
21
-3.22486
0
LINE
8
BLACK
6
CONTINUOUS
10
5.96102
20
-3.22486
11
5.96239
21
-3.21801
0
LINE
8
BLACK
6
CONTINUOUS
10
5.96239
20
-3.21801
11
5.96506
21
-3.21156
0
LINE
8
BLACK
6
CONTINUOUS
10
5.96506
20
-3.21156
11
5.96893
21
-3.20576
0
LINE
8
BLACK
6
CONTINUOUS
10
5.96893
20
-3.20576
11
5.97387
21
-3.20082
0
LINE
8
BLACK
6
CONTINUOUS
10
5.97387
20
-3.20082
11
5.97967
21
-3.19695
0
LINE
8
BLACK
6
CONTINUOUS
10
5.97967
20
-3.19695
11
5.98612
21
-3.19428
0
LINE
8
BLACK
6
CONTINUOUS
10
5.98612
20
-3.19428
11
5.99297
21
-3.19291
0
LINE
8
BLACK
6
CONTINUOUS
10
5.99297
20
-3.19291
11
5.99995
21
-3.19291
0
LINE
8
BLACK
6
CONTINUOUS
10
5.99995
20
-3.19291
11
6.00679
21
-3.19428
0
LINE
8
BLACK
6
CONTINUOUS
10
5.59687
20
-3.11955
11
5.60332
21
-3.12222
0
LINE
8
BLACK
6
CONTINUOUS
10
5.60332
20
-3.12222
11
5.60912
21
-3.1261
0
LINE
8
BLACK
6
CONTINUOUS
10
5.60912
20
-3.1261
11
5.61406
21
-3.13103
0
LINE
8
BLACK
6
CONTINUOUS
10
5.61406
20
-3.13103
11
5.61794
21
-3.13684
0
LINE
8
BLACK
6
CONTINUOUS
10
5.61794
20
-3.13684
11
5.62061
21
-3.14329
0
LINE
8
BLACK
6
CONTINUOUS
10
5.62061
20
-3.14329
11
5.62197
21
-3.15013
0
LINE
8
BLACK
6
CONTINUOUS
10
5.62197
20
-3.15013
11
5.62197
21
-3.15711
0
LINE
8
BLACK
6
CONTINUOUS
10
5.62197
20
-3.15711
11
5.62061
21
-3.16396
0
LINE
8
BLACK
6
CONTINUOUS
10
5.62061
20
-3.16396
11
5.61794
21
-3.1704
0
LINE
8
BLACK
6
CONTINUOUS
10
5.61794
20
-3.1704
11
5.61406
21
-3.17621
0
LINE
8
BLACK
6
CONTINUOUS
10
5.61406
20
-3.17621
11
5.60912
21
-3.18114
0
LINE
8
BLACK
6
CONTINUOUS
10
5.60912
20
-3.18114
11
5.60332
21
-3.18502
0
LINE
8
BLACK
6
CONTINUOUS
10
5.60332
20
-3.18502
11
5.59687
21
-3.18769
0
LINE
8
BLACK
6
CONTINUOUS
10
5.59687
20
-3.18769
11
5.59003
21
-3.18905
0
LINE
8
BLACK
6
CONTINUOUS
10
5.59003
20
-3.18905
11
5.58305
21
-3.18905
0
LINE
8
BLACK
6
CONTINUOUS
10
5.58305
20
-3.18905
11
5.5762
21
-3.18769
0
LINE
8
BLACK
6
CONTINUOUS
10
5.5762
20
-3.18769
11
5.56975
21
-3.18502
0
LINE
8
BLACK
6
CONTINUOUS
10
5.56975
20
-3.18502
11
5.56395
21
-3.18114
0
LINE
8
BLACK
6
CONTINUOUS
10
5.56395
20
-3.18114
11
5.55901
21
-3.17621
0
LINE
8
BLACK
6
CONTINUOUS
10
5.55901
20
-3.17621
11
5.55514
21
-3.1704
0
LINE
8
BLACK
6
CONTINUOUS
10
5.55514
20
-3.1704
11
5.55247
21
-3.16396
0
LINE
8
BLACK
6
CONTINUOUS
10
5.55247
20
-3.16396
11
5.5511
21
-3.15711
0
LINE
8
BLACK
6
CONTINUOUS
10
5.5511
20
-3.15711
11
5.5511
21
-3.15013
0
LINE
8
BLACK
6
CONTINUOUS
10
5.5511
20
-3.15013
11
5.55247
21
-3.14329
0
LINE
8
BLACK
6
CONTINUOUS
10
5.55247
20
-3.14329
11
5.55514
21
-3.13684
0
LINE
8
BLACK
6
CONTINUOUS
10
5.55514
20
-3.13684
11
5.55901
21
-3.13103
0
LINE
8
BLACK
6
CONTINUOUS
10
5.55901
20
-3.13103
11
5.56395
21
-3.1261
0
LINE
8
BLACK
6
CONTINUOUS
10
5.56395
20
-3.1261
11
5.56975
21
-3.12222
0
LINE
8
BLACK
6
CONTINUOUS
10
5.56975
20
-3.12222
11
5.5762
21
-3.11955
0
LINE
8
BLACK
6
CONTINUOUS
10
5.5762
20
-3.11955
11
5.58305
21
-3.11819
0
LINE
8
BLACK
6
CONTINUOUS
10
5.58305
20
-3.11819
11
5.59003
21
-3.11819
0
LINE
8
BLACK
6
CONTINUOUS
10
5.59003
20
-3.11819
11
5.59687
21
-3.11955
0
LINE
8
BLACK
6
CONTINUOUS
10
6.11671
20
-3.11955
11
6.12316
21
-3.12222
0
LINE
8
BLACK
6
CONTINUOUS
10
6.12316
20
-3.12222
11
6.12896
21
-3.1261
0
LINE
8
BLACK
6
CONTINUOUS
10
6.12896
20
-3.1261
11
6.1339
21
-3.13103
0
LINE
8
BLACK
6
CONTINUOUS
10
6.1339
20
-3.13103
11
6.13778
21
-3.13684
0
LINE
8
BLACK
6
CONTINUOUS
10
6.13778
20
-3.13684
11
6.14045
21
-3.14329
0
LINE
8
BLACK
6
CONTINUOUS
10
6.14045
20
-3.14329
11
6.14181
21
-3.15013
0
LINE
8
BLACK
6
CONTINUOUS
10
6.14181
20
-3.15013
11
6.14181
21
-3.15711
0
LINE
8
BLACK
6
CONTINUOUS
10
6.14181
20
-3.15711
11
6.14045
21
-3.16396
0
LINE
8
BLACK
6
CONTINUOUS
10
6.14045
20
-3.16396
11
6.13778
21
-3.1704
0
LINE
8
BLACK
6
CONTINUOUS
10
6.13778
20
-3.1704
11
6.1339
21
-3.17621
0
LINE
8
BLACK
6
CONTINUOUS
10
6.1339
20
-3.17621
11
6.12896
21
-3.18114
0
LINE
8
BLACK
6
CONTINUOUS
10
6.12896
20
-3.18114
11
6.12316
21
-3.18502
0
LINE
8
BLACK
6
CONTINUOUS
10
6.12316
20
-3.18502
11
6.11671
21
-3.18769
0
LINE
8
BLACK
6
CONTINUOUS
10
6.11671
20
-3.18769
11
6.10987
21
-3.18905
0
LINE
8
BLACK
6
CONTINUOUS
10
6.10987
20
-3.18905
11
6.10289
21
-3.18905
0
LINE
8
BLACK
6
CONTINUOUS
10
6.10289
20
-3.18905
11
6.09604
21
-3.18769
0
LINE
8
BLACK
6
CONTINUOUS
10
6.09604
20
-3.18769
11
6.08959
21
-3.18502
0
LINE
8
BLACK
6
CONTINUOUS
10
6.08959
20
-3.18502
11
6.08379
21
-3.18114
0
LINE
8
BLACK
6
CONTINUOUS
10
6.08379
20
-3.18114
11
6.07885
21
-3.17621
0
LINE
8
BLACK
6
CONTINUOUS
10
6.07885
20
-3.17621
11
6.07498
21
-3.1704
0
LINE
8
BLACK
6
CONTINUOUS
10
6.07498
20
-3.1704
11
6.07231
21
-3.16396
0
LINE
8
BLACK
6
CONTINUOUS
10
6.07231
20
-3.16396
11
6.07094
21
-3.15711
0
LINE
8
BLACK
6
CONTINUOUS
10
6.07094
20
-3.15711
11
6.07094
21
-3.15013
0
LINE
8
BLACK
6
CONTINUOUS
10
6.07094
20
-3.15013
11
6.07231
21
-3.14329
0
LINE
8
BLACK
6
CONTINUOUS
10
6.07231
20
-3.14329
11
6.07498
21
-3.13684
0
LINE
8
BLACK
6
CONTINUOUS
10
6.07498
20
-3.13684
11
6.07885
21
-3.13103
0
LINE
8
BLACK
6
CONTINUOUS
10
6.07885
20
-3.13103
11
6.08379
21
-3.1261
0
LINE
8
BLACK
6
CONTINUOUS
10
6.08379
20
-3.1261
11
6.08959
21
-3.12222
0
LINE
8
BLACK
6
CONTINUOUS
10
6.08959
20
-3.12222
11
6.09604
21
-3.11955
0
LINE
8
BLACK
6
CONTINUOUS
10
6.09604
20
-3.11955
11
6.10289
21
-3.11819
0
LINE
8
BLACK
6
CONTINUOUS
10
6.10289
20
-3.11819
11
6.10987
21
-3.11819
0
LINE
8
BLACK
6
CONTINUOUS
10
6.10987
20
-3.11819
11
6.11671
21
-3.11955
0
LINE
8
BLACK
6
CONTINUOUS
10
5.86396
20
-2.91475
11
5.87488
21
-2.91927
0
LINE
8
BLACK
6
CONTINUOUS
10
5.87488
20
-2.91927
11
5.8847
21
-2.92584
0
LINE
8
BLACK
6
CONTINUOUS
10
5.8847
20
-2.92584
11
5.89306
21
-2.93419
0
LINE
8
BLACK
6
CONTINUOUS
10
5.89306
20
-2.93419
11
5.89963
21
-2.94402
0
LINE
8
BLACK
6
CONTINUOUS
10
5.89963
20
-2.94402
11
5.90415
21
-2.95494
0
LINE
8
BLACK
6
CONTINUOUS
10
5.90415
20
-2.95494
11
5.90646
21
-2.96653
0
LINE
8
BLACK
6
CONTINUOUS
10
5.90646
20
-2.96653
11
5.90646
21
-2.97835
0
LINE
8
BLACK
6
CONTINUOUS
10
5.90646
20
-2.97835
11
5.90415
21
-2.98994
0
LINE
8
BLACK
6
CONTINUOUS
10
5.90415
20
-2.98994
11
5.89963
21
-3.00086
0
LINE
8
BLACK
6
CONTINUOUS
10
5.89963
20
-3.00086
11
5.89306
21
-3.01069
0
LINE
8
BLACK
6
CONTINUOUS
10
5.89306
20
-3.01069
11
5.8847
21
-3.01905
0
LINE
8
BLACK
6
CONTINUOUS
10
5.8847
20
-3.01905
11
5.87488
21
-3.02561
0
LINE
8
BLACK
6
CONTINUOUS
10
5.87488
20
-3.02561
11
5.86396
21
-3.03014
0
LINE
8
BLACK
6
CONTINUOUS
10
5.86396
20
-3.03014
11
5.85237
21
-3.03244
0
LINE
8
BLACK
6
CONTINUOUS
10
5.85237
20
-3.03244
11
5.84055
21
-3.03244
0
LINE
8
BLACK
6
CONTINUOUS
10
5.84055
20
-3.03244
11
5.82896
21
-3.03014
0
LINE
8
BLACK
6
CONTINUOUS
10
5.82896
20
-3.03014
11
5.81804
21
-3.02561
0
LINE
8
BLACK
6
CONTINUOUS
10
5.81804
20
-3.02561
11
5.80821
21
-3.01905
0
LINE
8
BLACK
6
CONTINUOUS
10
5.80821
20
-3.01905
11
5.79985
21
-3.01069
0
LINE
8
BLACK
6
CONTINUOUS
10
5.79985
20
-3.01069
11
5.79329
21
-3.00086
0
LINE
8
BLACK
6
CONTINUOUS
10
5.79329
20
-3.00086
11
5.78876
21
-2.98994
0
LINE
8
BLACK
6
CONTINUOUS
10
5.78876
20
-2.98994
11
5.78646
21
-2.97835
0
LINE
8
BLACK
6
CONTINUOUS
10
5.78646
20
-2.97835
11
5.78646
21
-2.96653
0
LINE
8
BLACK
6
CONTINUOUS
10
5.78646
20
-2.96653
11
5.78876
21
-2.95494
0
LINE
8
BLACK
6
CONTINUOUS
10
5.78876
20
-2.95494
11
5.79329
21
-2.94402
0
LINE
8
BLACK
6
CONTINUOUS
10
5.79329
20
-2.94402
11
5.79985
21
-2.93419
0
LINE
8
BLACK
6
CONTINUOUS
10
5.79985
20
-2.93419
11
5.80821
21
-2.92584
0
LINE
8
BLACK
6
CONTINUOUS
10
5.80821
20
-2.92584
11
5.81804
21
-2.91927
0
LINE
8
BLACK
6
CONTINUOUS
10
5.81804
20
-2.91927
11
5.82896
21
-2.91475
0
LINE
8
BLACK
6
CONTINUOUS
10
5.82896
20
-2.91475
11
5.84055
21
-2.91244
0
LINE
8
BLACK
6
CONTINUOUS
10
5.84055
20
-2.91244
11
5.85237
21
-2.91244
0
LINE
8
BLACK
6
CONTINUOUS
10
5.85237
20
-2.91244
11
5.86396
21
-2.91475
  0
ENDSEC
  0
EOF
