%TF.GenerationSoftware,KiCad,Pcbnew,5.1.9-73d0e3b20d~88~ubuntu20.04.1*%
%TF.CreationDate,2021-09-08T01:21:10+05:30*%
%TF.ProjectId,MAP6,4d415036-2e6b-4696-9361-645f70636258,1*%
%TF.SameCoordinates,Original*%
%TF.FileFunction,Soldermask,Bot*%
%TF.FilePolarity,Negative*%
%FSLAX46Y46*%
G04 Gerber Fmt 4.6, Leading zero omitted, Abs format (unit mm)*
G04 Created by KiCad (PCBNEW 5.1.9-73d0e3b20d~88~ubuntu20.04.1) date 2021-09-08 01:21:10*
%MOMM*%
%LPD*%
G01*
G04 APERTURE LIST*
%ADD10C,1.800000*%
%ADD11C,12.000000*%
%ADD12C,3.000000*%
%ADD13R,1.450000X1.000000*%
%ADD14R,1.000000X1.450000*%
%ADD15O,2.400000X1.200000*%
%ADD16O,1.200000X2.400000*%
%ADD17C,3.048000*%
%ADD18C,2.036000*%
%ADD19C,0.050800*%
%ADD20C,1.400000*%
%ADD21O,3.900000X2.600000*%
G04 APERTURE END LIST*
%TO.C,SW1*%
G36*
G01*
X130950000Y-119900000D02*
X130050000Y-119900000D01*
G75*
G02*
X129600000Y-119450000I0J450000D01*
G01*
X129600000Y-118550000D01*
G75*
G02*
X130050000Y-118100000I450000J0D01*
G01*
X130950000Y-118100000D01*
G75*
G02*
X131400000Y-118550000I0J-450000D01*
G01*
X131400000Y-119450000D01*
G75*
G02*
X130950000Y-119900000I-450000J0D01*
G01*
G37*
D10*
X130500000Y-116500000D03*
X130500000Y-114000000D03*
%TD*%
%TO.C,M1*%
X147230000Y-90000000D03*
X149770000Y-90000000D03*
%TD*%
D11*
%TO.C,BT2*%
X148483919Y-109916081D03*
D12*
X156916168Y-118348329D03*
X140051671Y-101483832D03*
%TD*%
D10*
%TO.C,D1*%
X141500000Y-81770000D03*
G36*
G01*
X141950000Y-80130000D02*
X141050000Y-80130000D01*
G75*
G02*
X140600000Y-79680000I0J450000D01*
G01*
X140600000Y-78780000D01*
G75*
G02*
X141050000Y-78330000I450000J0D01*
G01*
X141950000Y-78330000D01*
G75*
G02*
X142400000Y-78780000I0J-450000D01*
G01*
X142400000Y-79680000D01*
G75*
G02*
X141950000Y-80130000I-450000J0D01*
G01*
G37*
%TD*%
%TO.C,D2*%
G36*
G01*
X155950000Y-80130000D02*
X155050000Y-80130000D01*
G75*
G02*
X154600000Y-79680000I0J450000D01*
G01*
X154600000Y-78780000D01*
G75*
G02*
X155050000Y-78330000I450000J0D01*
G01*
X155950000Y-78330000D01*
G75*
G02*
X156400000Y-78780000I0J-450000D01*
G01*
X156400000Y-79680000D01*
G75*
G02*
X155950000Y-80130000I-450000J0D01*
G01*
G37*
X155500000Y-81770000D03*
%TD*%
D13*
%TO.C,R2*%
X158000000Y-86050000D03*
X158000000Y-87950000D03*
D10*
X158000000Y-83190000D03*
X158000000Y-90810000D03*
%TD*%
%TO.C,Q1*%
X148500000Y-81460000D03*
X145960000Y-84000000D03*
G36*
G01*
X151940000Y-83550000D02*
X151940000Y-84450000D01*
G75*
G02*
X151490000Y-84900000I-450000J0D01*
G01*
X150590000Y-84900000D01*
G75*
G02*
X150140000Y-84450000I0J450000D01*
G01*
X150140000Y-83550000D01*
G75*
G02*
X150590000Y-83100000I450000J0D01*
G01*
X151490000Y-83100000D01*
G75*
G02*
X151940000Y-83550000I0J-450000D01*
G01*
G37*
%TD*%
D13*
%TO.C,R1*%
X139000000Y-86050000D03*
X139000000Y-87950000D03*
D10*
X139000000Y-83190000D03*
X139000000Y-90810000D03*
%TD*%
D14*
%TO.C,R3*%
X147550000Y-78500000D03*
X149450000Y-78500000D03*
D10*
X144690000Y-78500000D03*
X152310000Y-78500000D03*
%TD*%
D14*
%TO.C,R5*%
X147550000Y-87500000D03*
X149450000Y-87500000D03*
D10*
X144690000Y-87500000D03*
X152310000Y-87500000D03*
%TD*%
%TO.C,U1*%
G36*
G01*
X153510000Y-124700000D02*
X153510000Y-125300000D01*
G75*
G02*
X153210000Y-125600000I-300000J0D01*
G01*
X151410000Y-125600000D01*
G75*
G02*
X151110000Y-125300000I0J300000D01*
G01*
X151110000Y-124700000D01*
G75*
G02*
X151410000Y-124400000I300000J0D01*
G01*
X153210000Y-124400000D01*
G75*
G02*
X153510000Y-124700000I0J-300000D01*
G01*
G37*
D15*
X144690000Y-132620000D03*
X152310000Y-127540000D03*
X144690000Y-130080000D03*
X152310000Y-130080000D03*
X144690000Y-127540000D03*
X152310000Y-132620000D03*
X144690000Y-125000000D03*
%TD*%
%TO.C,C1*%
G36*
G01*
X158650000Y-129850000D02*
X156850000Y-129850000D01*
G75*
G02*
X156550000Y-129550000I0J300000D01*
G01*
X156550000Y-128950000D01*
G75*
G02*
X156850000Y-128650000I300000J0D01*
G01*
X158650000Y-128650000D01*
G75*
G02*
X158950000Y-128950000I0J-300000D01*
G01*
X158950000Y-129550000D01*
G75*
G02*
X158650000Y-129850000I-300000J0D01*
G01*
G37*
X157750000Y-126750000D03*
%TD*%
D16*
%TO.C,C2*%
X147250000Y-136500000D03*
X149750000Y-136500000D03*
%TD*%
D17*
%TO.C,G2*%
X148500000Y-75500000D03*
%TD*%
D18*
%TO.C,G3*%
X135500000Y-123000000D03*
%TD*%
%TO.C,G4*%
X137500000Y-97000000D03*
%TD*%
%TO.C,G5*%
X161500000Y-123000000D03*
%TD*%
%TO.C,G6*%
X159500000Y-97000000D03*
%TD*%
%TO.C,G7*%
X133500000Y-110000000D03*
%TD*%
%TO.C,G8*%
X163500000Y-110000000D03*
%TD*%
D19*
%TO.C,JP1*%
G36*
X172250000Y-117150000D02*
G01*
X172250000Y-117650000D01*
X172249398Y-117650000D01*
X172249398Y-117674534D01*
X172244588Y-117723365D01*
X172235016Y-117771490D01*
X172220772Y-117818445D01*
X172201995Y-117863778D01*
X172178864Y-117907051D01*
X172151604Y-117947850D01*
X172120476Y-117985779D01*
X172085779Y-118020476D01*
X172047850Y-118051604D01*
X172007051Y-118078864D01*
X171963778Y-118101995D01*
X171918445Y-118120772D01*
X171871490Y-118135016D01*
X171823365Y-118144588D01*
X171774534Y-118149398D01*
X171750000Y-118149398D01*
X171750000Y-118150000D01*
X171250000Y-118150000D01*
X171250000Y-118149398D01*
X171225466Y-118149398D01*
X171176635Y-118144588D01*
X171128510Y-118135016D01*
X171081555Y-118120772D01*
X171036222Y-118101995D01*
X170992949Y-118078864D01*
X170952150Y-118051604D01*
X170914221Y-118020476D01*
X170879524Y-117985779D01*
X170848396Y-117947850D01*
X170821136Y-117907051D01*
X170798005Y-117863778D01*
X170779228Y-117818445D01*
X170764984Y-117771490D01*
X170755412Y-117723365D01*
X170750602Y-117674534D01*
X170750602Y-117650000D01*
X170750000Y-117650000D01*
X170750000Y-117150000D01*
X172250000Y-117150000D01*
G37*
G36*
X170750602Y-116350000D02*
G01*
X170750602Y-116325466D01*
X170755412Y-116276635D01*
X170764984Y-116228510D01*
X170779228Y-116181555D01*
X170798005Y-116136222D01*
X170821136Y-116092949D01*
X170848396Y-116052150D01*
X170879524Y-116014221D01*
X170914221Y-115979524D01*
X170952150Y-115948396D01*
X170992949Y-115921136D01*
X171036222Y-115898005D01*
X171081555Y-115879228D01*
X171128510Y-115864984D01*
X171176635Y-115855412D01*
X171225466Y-115850602D01*
X171250000Y-115850602D01*
X171250000Y-115850000D01*
X171750000Y-115850000D01*
X171750000Y-115850602D01*
X171774534Y-115850602D01*
X171823365Y-115855412D01*
X171871490Y-115864984D01*
X171918445Y-115879228D01*
X171963778Y-115898005D01*
X172007051Y-115921136D01*
X172047850Y-115948396D01*
X172085779Y-115979524D01*
X172120476Y-116014221D01*
X172151604Y-116052150D01*
X172178864Y-116092949D01*
X172201995Y-116136222D01*
X172220772Y-116181555D01*
X172235016Y-116228510D01*
X172244588Y-116276635D01*
X172249398Y-116325466D01*
X172249398Y-116350000D01*
X172250000Y-116350000D01*
X172250000Y-116850000D01*
X170750000Y-116850000D01*
X170750000Y-116350000D01*
X170750602Y-116350000D01*
G37*
%TD*%
D20*
%TO.C,G9*%
X148500000Y-141500000D03*
%TD*%
D10*
%TO.C,R4*%
X138500000Y-132810000D03*
X138500000Y-125190000D03*
D13*
X138500000Y-129950000D03*
X138500000Y-128050000D03*
%TD*%
%TO.C,R6*%
X141500000Y-129550000D03*
X141500000Y-131450000D03*
D10*
X141500000Y-126690000D03*
X141500000Y-134310000D03*
%TD*%
D21*
%TO.C,BT1*%
X139450000Y-110000000D03*
X159950000Y-110000000D03*
D10*
X154199000Y-105238000D03*
X145950000Y-119525000D03*
X137701000Y-105238000D03*
%TD*%
M02*
