M48
; DRILL file {KiCad 5.1.9-73d0e3b20d~88~ubuntu20.04.1} date Wed Sep  8 01:21:15 2021
; FORMAT={-:-/ absolute / inch / decimal}
; #@! TF.CreationDate,2021-09-08T01:21:15+05:30
; #@! TF.GenerationSoftware,Kicad,Pcbnew,5.1.9-73d0e3b20d~88~ubuntu20.04.1
FMAT,2
INCH
T1C0.0315
T2C0.0354
T3C0.0401
T4C0.0512
T5C0.0728
T6C0.0802
T7C0.0709
%
G90
G05
T1
X5.4528Y-4.9287
X5.4528Y-5.2287
X5.4724Y-3.2752
X5.4724Y-3.5752
X5.5709Y-3.1193
X5.5709Y-3.2193
X5.5709Y-4.9878
X5.5709Y-5.2878
X5.6965Y-3.0906
X5.6965Y-3.4449
X5.6965Y-4.9213
X5.6965Y-5.0213
X5.6965Y-5.1213
X5.6965Y-5.2213
X5.7465Y-3.3071
X5.7965Y-3.5433
X5.7972Y-5.374
X5.8465Y-3.2071
X5.8465Y-5.5709
X5.8957Y-5.374
X5.8965Y-3.5433
X5.9465Y-3.3071
X5.9965Y-3.0906
X5.9965Y-3.4449
X5.9965Y-4.9213
X5.9965Y-5.0213
X5.9965Y-5.1213
X5.9965Y-5.2213
X6.122Y-3.1193
X6.122Y-3.2193
X6.2106Y-4.9902
X6.2106Y-5.0886
X6.2205Y-3.2752
X6.2205Y-3.5752
T2
X5.1378Y-4.4882
X5.1378Y-4.5866
X5.1378Y-4.685
T3
X5.2559Y-4.3307
X5.3346Y-4.8425
X5.4134Y-3.8189
X6.2795Y-3.8189
X6.3583Y-4.8425
X6.437Y-4.3307
T5
X5.5138Y-3.9954
X6.1778Y-4.6594
T6
X5.8465Y-2.9724
T7
X5.4213Y-4.1432
X5.7461Y-4.7057
X6.0708Y-4.1432
T4
G00X5.5157Y-4.3307
M15
G01X5.4646Y-4.3307
M16
G05
G00X6.3228Y-4.3307
M15
G01X6.2717Y-4.3307
M16
G05
T0
M30
