%TF.GenerationSoftware,KiCad,Pcbnew,5.1.9-73d0e3b20d~88~ubuntu20.04.1*%
%TF.CreationDate,2021-09-08T01:21:10+05:30*%
%TF.ProjectId,MAP6,4d415036-2e6b-4696-9361-645f70636258,1*%
%TF.SameCoordinates,Original*%
%TF.FileFunction,Copper,L1,Top*%
%TF.FilePolarity,Positive*%
%FSLAX46Y46*%
G04 Gerber Fmt 4.6, Leading zero omitted, Abs format (unit mm)*
G04 Created by KiCad (PCBNEW 5.1.9-73d0e3b20d~88~ubuntu20.04.1) date 2021-09-08 01:21:10*
%MOMM*%
%LPD*%
G01*
G04 APERTURE LIST*
%TA.AperFunction,ComponentPad*%
%ADD10C,1.800000*%
%TD*%
%TA.AperFunction,ComponentPad*%
%ADD11C,3.000000*%
%TD*%
%TA.AperFunction,ComponentPad*%
%ADD12O,2.400000X1.200000*%
%TD*%
%TA.AperFunction,ComponentPad*%
%ADD13O,1.200000X2.400000*%
%TD*%
%TA.AperFunction,ComponentPad*%
%ADD14C,3.048000*%
%TD*%
%TA.AperFunction,ComponentPad*%
%ADD15C,2.036000*%
%TD*%
%TA.AperFunction,ComponentPad*%
%ADD16C,1.400000*%
%TD*%
%TA.AperFunction,ComponentPad*%
%ADD17O,3.900000X2.600000*%
%TD*%
%TA.AperFunction,Conductor*%
%ADD18C,0.250000*%
%TD*%
%TA.AperFunction,Conductor*%
%ADD19C,1.000000*%
%TD*%
%TA.AperFunction,Conductor*%
%ADD20C,0.500000*%
%TD*%
%TA.AperFunction,NonConductor*%
%ADD21C,0.254000*%
%TD*%
%TA.AperFunction,NonConductor*%
%ADD22C,0.050800*%
%TD*%
G04 APERTURE END LIST*
%TO.P,SW1,1*%
%TO.N,/6V*%
%TA.AperFunction,ComponentPad*%
G36*
G01*
X130950000Y-119900000D02*
X130050000Y-119900000D01*
G75*
G02*
X129600000Y-119450000I0J450000D01*
G01*
X129600000Y-118550000D01*
G75*
G02*
X130050000Y-118100000I450000J0D01*
G01*
X130950000Y-118100000D01*
G75*
G02*
X131400000Y-118550000I0J-450000D01*
G01*
X131400000Y-119450000D01*
G75*
G02*
X130950000Y-119900000I-450000J0D01*
G01*
G37*
%TD.AperFunction*%
D10*
%TO.P,SW1,2*%
%TO.N,Net-(BT1-Pad1)*%
X130500000Y-116500000D03*
%TO.P,SW1,3*%
%TO.N,N/C*%
X130500000Y-114000000D03*
%TD*%
%TO.P,M1,2*%
%TO.N,/motor*%
X147230000Y-90000000D03*
%TO.P,M1,1*%
%TO.N,Net-(D1-Pad1)*%
X149770000Y-90000000D03*
%TD*%
D11*
%TO.P,BT2,2*%
%TO.N,/GND*%
X156916168Y-118348329D03*
X140051671Y-101483832D03*
%TD*%
D10*
%TO.P,D1,1*%
%TO.N,Net-(D1-Pad1)*%
X141500000Y-81770000D03*
%TO.P,D1,2*%
%TO.N,/left_eye*%
%TA.AperFunction,ComponentPad*%
G36*
G01*
X141950000Y-80130000D02*
X141050000Y-80130000D01*
G75*
G02*
X140600000Y-79680000I0J450000D01*
G01*
X140600000Y-78780000D01*
G75*
G02*
X141050000Y-78330000I450000J0D01*
G01*
X141950000Y-78330000D01*
G75*
G02*
X142400000Y-78780000I0J-450000D01*
G01*
X142400000Y-79680000D01*
G75*
G02*
X141950000Y-80130000I-450000J0D01*
G01*
G37*
%TD.AperFunction*%
%TD*%
%TO.P,D2,2*%
%TO.N,/right_eye*%
%TA.AperFunction,ComponentPad*%
G36*
G01*
X155950000Y-80130000D02*
X155050000Y-80130000D01*
G75*
G02*
X154600000Y-79680000I0J450000D01*
G01*
X154600000Y-78780000D01*
G75*
G02*
X155050000Y-78330000I450000J0D01*
G01*
X155950000Y-78330000D01*
G75*
G02*
X156400000Y-78780000I0J-450000D01*
G01*
X156400000Y-79680000D01*
G75*
G02*
X155950000Y-80130000I-450000J0D01*
G01*
G37*
%TD.AperFunction*%
%TO.P,D2,1*%
%TO.N,Net-(D1-Pad1)*%
X155500000Y-81770000D03*
%TD*%
%TO.P,R2,2*%
%TO.N,/right_eye*%
X158000000Y-83190000D03*
%TO.P,R2,1*%
%TO.N,/GND*%
X158000000Y-90810000D03*
%TD*%
%TO.P,Q1,2*%
%TO.N,Net-(JP1-Pad2)*%
X148500000Y-81460000D03*
%TO.P,Q1,3*%
%TO.N,Net-(D1-Pad1)*%
X145960000Y-84000000D03*
%TO.P,Q1,1*%
%TO.N,/6V*%
%TA.AperFunction,ComponentPad*%
G36*
G01*
X151940000Y-83550000D02*
X151940000Y-84450000D01*
G75*
G02*
X151490000Y-84900000I-450000J0D01*
G01*
X150590000Y-84900000D01*
G75*
G02*
X150140000Y-84450000I0J450000D01*
G01*
X150140000Y-83550000D01*
G75*
G02*
X150590000Y-83100000I450000J0D01*
G01*
X151490000Y-83100000D01*
G75*
G02*
X151940000Y-83550000I0J-450000D01*
G01*
G37*
%TD.AperFunction*%
%TD*%
%TO.P,R1,2*%
%TO.N,/left_eye*%
X139000000Y-83190000D03*
%TO.P,R1,1*%
%TO.N,/GND*%
X139000000Y-90810000D03*
%TD*%
%TO.P,R3,2*%
%TO.N,/motor*%
X144690000Y-78500000D03*
%TO.P,R3,1*%
%TO.N,/GND*%
X152310000Y-78500000D03*
%TD*%
%TO.P,R5,2*%
%TO.N,Net-(R5-Pad2)*%
X144690000Y-87500000D03*
%TO.P,R5,1*%
%TO.N,Net-(JP1-Pad2)*%
X152310000Y-87500000D03*
%TD*%
%TO.P,U1,1*%
%TO.N,/GND*%
%TA.AperFunction,ComponentPad*%
G36*
G01*
X153510000Y-124700000D02*
X153510000Y-125300000D01*
G75*
G02*
X153210000Y-125600000I-300000J0D01*
G01*
X151410000Y-125600000D01*
G75*
G02*
X151110000Y-125300000I0J300000D01*
G01*
X151110000Y-124700000D01*
G75*
G02*
X151410000Y-124400000I300000J0D01*
G01*
X153210000Y-124400000D01*
G75*
G02*
X153510000Y-124700000I0J-300000D01*
G01*
G37*
%TD.AperFunction*%
D12*
%TO.P,U1,5*%
%TO.N,Net-(C2-Pad1)*%
X144690000Y-132620000D03*
%TO.P,U1,2*%
%TO.N,Net-(C1-Pad1)*%
X152310000Y-127540000D03*
%TO.P,U1,6*%
X144690000Y-130080000D03*
%TO.P,U1,3*%
%TO.N,Net-(R5-Pad2)*%
X152310000Y-130080000D03*
%TO.P,U1,7*%
%TO.N,Net-(R4-Pad1)*%
X144690000Y-127540000D03*
%TO.P,U1,4*%
%TO.N,/6V*%
X152310000Y-132620000D03*
%TO.P,U1,8*%
X144690000Y-125000000D03*
%TD*%
%TO.P,C1,1*%
%TO.N,Net-(C1-Pad1)*%
%TA.AperFunction,ComponentPad*%
G36*
G01*
X158650000Y-129850000D02*
X156850000Y-129850000D01*
G75*
G02*
X156550000Y-129550000I0J300000D01*
G01*
X156550000Y-128950000D01*
G75*
G02*
X156850000Y-128650000I300000J0D01*
G01*
X158650000Y-128650000D01*
G75*
G02*
X158950000Y-128950000I0J-300000D01*
G01*
X158950000Y-129550000D01*
G75*
G02*
X158650000Y-129850000I-300000J0D01*
G01*
G37*
%TD.AperFunction*%
%TO.P,C1,2*%
%TO.N,/GND*%
X157750000Y-126750000D03*
%TD*%
D13*
%TO.P,C2,1*%
%TO.N,Net-(C2-Pad1)*%
X147250000Y-136500000D03*
%TO.P,C2,2*%
%TO.N,/GND*%
X149750000Y-136500000D03*
%TD*%
D14*
%TO.P,G2,1*%
%TO.N,N/C*%
X148500000Y-75500000D03*
%TD*%
D15*
%TO.P,G3,1*%
%TO.N,N/C*%
X135500000Y-123000000D03*
%TD*%
%TO.P,G4,1*%
%TO.N,N/C*%
X137500000Y-97000000D03*
%TD*%
%TO.P,G5,1*%
%TO.N,N/C*%
X161500000Y-123000000D03*
%TD*%
%TO.P,G6,1*%
%TO.N,N/C*%
X159500000Y-97000000D03*
%TD*%
%TO.P,G7,1*%
%TO.N,N/C*%
X133500000Y-110000000D03*
%TD*%
%TO.P,G8,1*%
%TO.N,N/C*%
X163500000Y-110000000D03*
%TD*%
D16*
%TO.P,G9,1*%
%TO.N,N/C*%
X148500000Y-141500000D03*
%TD*%
D10*
%TO.P,R4,1*%
%TO.N,Net-(R4-Pad1)*%
X138500000Y-132810000D03*
%TO.P,R4,2*%
%TO.N,/6V*%
X138500000Y-125190000D03*
%TD*%
%TO.P,R6,2*%
%TO.N,Net-(R4-Pad1)*%
X141500000Y-126690000D03*
%TO.P,R6,1*%
%TO.N,Net-(C1-Pad1)*%
X141500000Y-134310000D03*
%TD*%
D17*
%TO.P,BT1,2*%
%TO.N,/GND*%
X139450000Y-110000000D03*
%TO.P,BT1,1*%
%TO.N,Net-(BT1-Pad1)*%
X159950000Y-110000000D03*
%TD*%
D18*
%TO.N,*%
X151700000Y-96300000D02*
X151700000Y-96400000D01*
X151700000Y-96400000D02*
X153200000Y-97900000D01*
X153200000Y-97900000D02*
X153200000Y-99500000D01*
X153200000Y-99500000D02*
X152000000Y-100700000D01*
X152000000Y-100700000D02*
X152000000Y-102500000D01*
X152000000Y-102500000D02*
X152400000Y-102900000D01*
X152400000Y-102900000D02*
X152400000Y-107400000D01*
X152400000Y-107400000D02*
X154200000Y-109200000D01*
X155900000Y-109200000D02*
X156800000Y-110100000D01*
X156800000Y-110100000D02*
X156800000Y-111800000D01*
X158500000Y-113500000D02*
X158500000Y-115800000D01*
X158500000Y-115800000D02*
X160500000Y-117800000D01*
X160500000Y-117800000D02*
X162900000Y-117800000D01*
X162900000Y-117800000D02*
X163900000Y-118800000D01*
X163900000Y-118800000D02*
X163900000Y-119900000D01*
X163900000Y-119900000D02*
X163500000Y-120300000D01*
X163500000Y-120300000D02*
X163500000Y-122800000D01*
X151700000Y-94800000D02*
X152600000Y-94800000D01*
X151700000Y-93700000D02*
X151700000Y-94800000D01*
X151700000Y-94800000D02*
X151700000Y-96300000D01*
X152600000Y-94800000D02*
X153700000Y-95900000D01*
X153700000Y-95900000D02*
X155600000Y-95900000D01*
X155600000Y-95900000D02*
X157200000Y-97500000D01*
X157200000Y-98100000D02*
X158800000Y-99700000D01*
X158800000Y-99700000D02*
X158800000Y-102600000D01*
X158800000Y-102600000D02*
X159700000Y-103500000D01*
X159700000Y-103500000D02*
X160200000Y-104000000D01*
X160200000Y-104000000D02*
X162000000Y-104000000D01*
X162000000Y-104000000D02*
X163000000Y-105000000D01*
X163000000Y-105000000D02*
X163000000Y-105900000D01*
X163000000Y-105900000D02*
X162500000Y-106400000D01*
X162500000Y-106400000D02*
X162500000Y-107300000D01*
X162500000Y-107300000D02*
X163500000Y-108300000D01*
X163500000Y-108300000D02*
X165500000Y-108300000D01*
X165500000Y-108300000D02*
X167100000Y-109900000D01*
X167100000Y-109900000D02*
X167100000Y-113000000D01*
X167100000Y-113000000D02*
X168600000Y-114500000D01*
X168600000Y-114500000D02*
X168600000Y-116400000D01*
X168600000Y-116400000D02*
X167400000Y-117600000D01*
X167400000Y-117600000D02*
X167400000Y-119700000D01*
X167400000Y-119700000D02*
X165800000Y-121300000D01*
X165800000Y-121300000D02*
X165800000Y-121800000D01*
X153700000Y-95900000D02*
X153700000Y-96400000D01*
X153700000Y-96400000D02*
X154600000Y-97300000D01*
X154600000Y-97300000D02*
X154600000Y-98100000D01*
X154600000Y-98100000D02*
X155500000Y-99000000D01*
X155500000Y-99000000D02*
X155500000Y-100300000D01*
X155500000Y-100300000D02*
X154800000Y-101000000D01*
X153200000Y-99500000D02*
X153200000Y-101000000D01*
X153200000Y-101000000D02*
X154000000Y-101800000D01*
X154000000Y-101800000D02*
X154000000Y-103500000D01*
X154000000Y-103500000D02*
X154100000Y-103600000D01*
X157200000Y-97900000D02*
X157200000Y-99000000D01*
X157200000Y-97500000D02*
X157200000Y-97900000D01*
X157200000Y-97900000D02*
X157200000Y-98100000D01*
X157200000Y-99000000D02*
X156500000Y-99700000D01*
X156500000Y-102100000D02*
X155900000Y-102700000D01*
X155900000Y-102700000D02*
X155900000Y-104500000D01*
X155900000Y-104500000D02*
X155700000Y-104700000D01*
X156500000Y-100900000D02*
X157100000Y-100900000D01*
X156500000Y-99700000D02*
X156500000Y-100900000D01*
X156500000Y-100900000D02*
X156500000Y-102100000D01*
X157100000Y-100900000D02*
X157800000Y-101600000D01*
X157800000Y-101600000D02*
X157800000Y-103600000D01*
X157800000Y-103600000D02*
X157400000Y-104000000D01*
X157400000Y-104000000D02*
X157400000Y-105600000D01*
X157400000Y-105600000D02*
X156300000Y-106700000D01*
X156300000Y-106700000D02*
X155100000Y-106700000D01*
X155100000Y-106700000D02*
X154400000Y-107400000D01*
X154400000Y-107400000D02*
X154400000Y-107800000D01*
X154400000Y-107800000D02*
X155100000Y-108500000D01*
X157800000Y-103600000D02*
X157900000Y-103600000D01*
X157900000Y-103600000D02*
X159200000Y-104900000D01*
X160800000Y-104900000D02*
X161600000Y-105700000D01*
X161600000Y-105700000D02*
X161600000Y-106500000D01*
X159200000Y-104900000D02*
X159200000Y-106500000D01*
X159200000Y-106500000D02*
X159200000Y-106800000D01*
X159200000Y-106800000D02*
X158400000Y-107600000D01*
X158400000Y-107600000D02*
X157600000Y-107600000D01*
X157600000Y-107600000D02*
X156800000Y-108400000D01*
X159200000Y-104900000D02*
X160100000Y-104900000D01*
X160100000Y-104900000D02*
X160100000Y-106800000D01*
X160100000Y-104900000D02*
X160800000Y-104900000D01*
X160100000Y-106800000D02*
X161500000Y-108200000D01*
X166100000Y-109100000D02*
X166100000Y-110700000D01*
X164700000Y-112100000D02*
X163400000Y-112100000D01*
X163400000Y-112100000D02*
X162600000Y-112900000D01*
X162600000Y-112900000D02*
X162600000Y-115800000D01*
X162600000Y-115800000D02*
X162600000Y-115900000D01*
X162600000Y-115900000D02*
X163000000Y-116300000D01*
X157500000Y-112500000D02*
X159600000Y-112500000D01*
X156800000Y-111800000D02*
X157500000Y-112500000D01*
X157500000Y-112500000D02*
X158500000Y-113500000D01*
X159600000Y-112500000D02*
X159900000Y-112800000D01*
X159900000Y-112800000D02*
X159900000Y-114300000D01*
X159900000Y-114300000D02*
X161100000Y-115500000D01*
X161100000Y-115500000D02*
X161100000Y-116800000D01*
X159900000Y-112800000D02*
X160600000Y-112800000D01*
X160600000Y-112800000D02*
X161400000Y-113600000D01*
X164700000Y-112100000D02*
X164700000Y-113300000D01*
X164700000Y-113300000D02*
X164000000Y-114000000D01*
X164000000Y-114000000D02*
X164000000Y-115200000D01*
X164000000Y-115200000D02*
X164900000Y-116100000D01*
X164900000Y-116100000D02*
X164900000Y-118200000D01*
X164900000Y-118200000D02*
X164600000Y-118500000D01*
X164600000Y-118500000D02*
X164600000Y-121000000D01*
X164600000Y-121000000D02*
X164300000Y-121300000D01*
X165450000Y-111350000D02*
X165450000Y-113050000D01*
X166100000Y-110700000D02*
X165450000Y-111350000D01*
X165450000Y-111350000D02*
X164700000Y-112100000D01*
X165450000Y-113050000D02*
X166300000Y-113900000D01*
X166300000Y-115700000D02*
X165800000Y-116200000D01*
X165800000Y-116200000D02*
X165800000Y-118700000D01*
X165800000Y-118700000D02*
X166500000Y-119400000D01*
X166300000Y-114700000D02*
X167100000Y-114700000D01*
X166300000Y-113900000D02*
X166300000Y-114700000D01*
X166300000Y-114700000D02*
X166300000Y-115700000D01*
X167100000Y-114700000D02*
X167600000Y-115200000D01*
X167600000Y-115200000D02*
X167600000Y-116100000D01*
X167600000Y-116100000D02*
X166900000Y-116800000D01*
X155200000Y-109200000D02*
X155200000Y-110300000D01*
X154200000Y-109200000D02*
X155200000Y-109200000D01*
X155200000Y-109200000D02*
X155900000Y-109200000D01*
X154400000Y-111100000D02*
X154400000Y-113400000D01*
X154400000Y-113400000D02*
X155700000Y-114700000D01*
X155700000Y-114700000D02*
X155700000Y-116400000D01*
X154750000Y-110750000D02*
X154850000Y-110750000D01*
X155200000Y-110300000D02*
X154750000Y-110750000D01*
X154750000Y-110750000D02*
X154400000Y-111100000D01*
X154850000Y-110750000D02*
X155400000Y-111300000D01*
X155400000Y-111300000D02*
X155400000Y-112600000D01*
X155400000Y-112600000D02*
X157000000Y-114200000D01*
X157000000Y-114200000D02*
X157000000Y-115300000D01*
X158800000Y-99700000D02*
X160400000Y-99700000D01*
X160400000Y-99700000D02*
X161000000Y-100300000D01*
X162000000Y-104000000D02*
X163600000Y-104000000D01*
X163600000Y-104000000D02*
X164600000Y-105000000D01*
X164600000Y-105000000D02*
X164600000Y-106800000D01*
X161000000Y-101100000D02*
X160900000Y-101100000D01*
X161000000Y-100300000D02*
X161000000Y-101100000D01*
X161000000Y-101100000D02*
X161000000Y-102400000D01*
X160900000Y-101100000D02*
X160200000Y-101800000D01*
X160200000Y-101800000D02*
X160200000Y-103000000D01*
X160200000Y-103000000D02*
X160400000Y-103200000D01*
X160400000Y-103200000D02*
X162600000Y-103200000D01*
X145000000Y-93400000D02*
X145000000Y-94900000D01*
X143700000Y-96200000D02*
X143700000Y-97800000D01*
X143700000Y-97800000D02*
X145300000Y-99400000D01*
X145300000Y-103200000D02*
X143200000Y-105300000D01*
X143200000Y-105300000D02*
X143200000Y-111900000D01*
X143200000Y-111900000D02*
X139900000Y-115200000D01*
X139900000Y-115200000D02*
X139900000Y-118100000D01*
X139900000Y-118100000D02*
X138900000Y-119100000D01*
X145000000Y-93400000D02*
X144600000Y-93400000D01*
X144600000Y-93400000D02*
X143300000Y-94700000D01*
X141800000Y-94700000D02*
X141000000Y-95500000D01*
X141000000Y-95500000D02*
X141000000Y-96700000D01*
X142600000Y-94700000D02*
X142600000Y-96600000D01*
X143300000Y-94700000D02*
X142600000Y-94700000D01*
X142600000Y-94700000D02*
X141800000Y-94700000D01*
X142600000Y-96600000D02*
X141300000Y-97900000D01*
X141300000Y-97900000D02*
X141300000Y-99000000D01*
X141300000Y-99000000D02*
X142400000Y-100100000D01*
X142400000Y-100100000D02*
X142400000Y-101900000D01*
X144200000Y-98500000D02*
X143400000Y-99300000D01*
X143400000Y-99300000D02*
X143500000Y-99400000D01*
X143500000Y-99400000D02*
X143500000Y-102400000D01*
X143500000Y-102400000D02*
X141900000Y-104000000D01*
X141900000Y-104000000D02*
X140400000Y-104000000D01*
X145300000Y-100800000D02*
X144400000Y-101700000D01*
X145300000Y-99400000D02*
X145300000Y-100800000D01*
X145300000Y-100800000D02*
X145300000Y-103200000D01*
X144400000Y-101700000D02*
X144300000Y-101800000D01*
X144300000Y-101800000D02*
X144300000Y-103000000D01*
X144300000Y-103000000D02*
X142000000Y-105300000D01*
X142000000Y-105300000D02*
X141500000Y-105300000D01*
X141500000Y-105300000D02*
X140600000Y-106200000D01*
X140600000Y-106200000D02*
X140600000Y-107400000D01*
X140600000Y-107400000D02*
X142300000Y-109100000D01*
X142300000Y-109100000D02*
X142300000Y-111400000D01*
X142300000Y-111400000D02*
X141200000Y-112500000D01*
X138100000Y-112500000D02*
X137500000Y-111900000D01*
X137500000Y-111900000D02*
X136800000Y-111900000D01*
X138100000Y-112500000D02*
X136900000Y-113700000D01*
X136900000Y-113700000D02*
X136600000Y-114000000D01*
X136600000Y-114000000D02*
X136600000Y-117600000D01*
X136600000Y-117600000D02*
X137300000Y-118300000D01*
X139700000Y-112500000D02*
X139700000Y-113300000D01*
X141200000Y-112500000D02*
X139700000Y-112500000D01*
X139700000Y-112500000D02*
X138100000Y-112500000D01*
X139700000Y-113300000D02*
X138700000Y-114300000D01*
X138700000Y-114300000D02*
X138500000Y-114300000D01*
X138500000Y-114300000D02*
X137600000Y-115200000D01*
X137600000Y-115200000D02*
X137600000Y-116400000D01*
X137600000Y-116400000D02*
X138500000Y-117300000D01*
X138500000Y-117300000D02*
X138500000Y-118300000D01*
X139950000Y-104450000D02*
X139850000Y-104450000D01*
X140400000Y-104000000D02*
X139950000Y-104450000D01*
X139950000Y-104450000D02*
X139400000Y-105000000D01*
X139850000Y-104450000D02*
X138400000Y-103000000D01*
X138400000Y-103000000D02*
X137200000Y-103000000D01*
X139400000Y-106100000D02*
X139400000Y-106400000D01*
X139400000Y-105000000D02*
X139400000Y-106100000D01*
X139400000Y-106100000D02*
X139400000Y-107800000D01*
X139400000Y-106400000D02*
X138400000Y-107400000D01*
X138400000Y-107400000D02*
X137600000Y-107400000D01*
X137600000Y-107400000D02*
X136800000Y-108200000D01*
X138900000Y-98100000D02*
X138900000Y-98700000D01*
X138900000Y-98700000D02*
X137900000Y-99700000D01*
X136100000Y-99700000D02*
X133900000Y-101900000D01*
X133900000Y-101900000D02*
X133900000Y-104200000D01*
X133900000Y-104200000D02*
X132600000Y-105500000D01*
X132600000Y-106100000D02*
X133700000Y-107200000D01*
X133700000Y-107200000D02*
X133700000Y-108000000D01*
X133700000Y-108000000D02*
X133400000Y-108300000D01*
X137100000Y-99700000D02*
X137100000Y-99500000D01*
X137900000Y-99700000D02*
X137100000Y-99700000D01*
X137100000Y-99700000D02*
X136100000Y-99700000D01*
X137100000Y-99500000D02*
X136500000Y-98900000D01*
X136500000Y-98900000D02*
X135100000Y-98900000D01*
X135100000Y-98900000D02*
X133900000Y-100100000D01*
X133900000Y-101900000D02*
X133100000Y-101900000D01*
X133100000Y-101900000D02*
X132600000Y-102400000D01*
X132600000Y-102400000D02*
X132600000Y-103700000D01*
X132600000Y-103700000D02*
X131100000Y-105200000D01*
X131100000Y-105200000D02*
X131100000Y-106900000D01*
X128800000Y-109200000D02*
X128800000Y-110900000D01*
X128800000Y-110900000D02*
X129600000Y-111700000D01*
X129600000Y-111700000D02*
X129600000Y-112300000D01*
X129600000Y-112300000D02*
X128800000Y-113100000D01*
X128800000Y-113100000D02*
X128800000Y-116500000D01*
X128800000Y-116500000D02*
X128300000Y-117000000D01*
X128300000Y-117000000D02*
X128300000Y-119900000D01*
X128300000Y-119900000D02*
X131100000Y-122700000D01*
X131100000Y-122700000D02*
X131100000Y-123200000D01*
X131100000Y-105200000D02*
X129800000Y-106500000D01*
X129800000Y-106500000D02*
X129800000Y-107000000D01*
X128800000Y-110900000D02*
X127800000Y-111900000D01*
X127800000Y-111900000D02*
X127800000Y-114900000D01*
X127800000Y-114900000D02*
X128200000Y-115300000D01*
X130700000Y-107300000D02*
X130800000Y-107300000D01*
X131100000Y-106900000D02*
X130700000Y-107300000D01*
X130700000Y-107300000D02*
X128800000Y-109200000D01*
X130800000Y-107300000D02*
X131300000Y-107800000D01*
X131300000Y-107800000D02*
X131300000Y-108200000D01*
X131300000Y-108200000D02*
X130200000Y-109300000D01*
X130200000Y-109300000D02*
X130200000Y-110800000D01*
X130200000Y-110800000D02*
X130800000Y-111400000D01*
X130800000Y-111400000D02*
X130800000Y-112300000D01*
X132600000Y-105700000D02*
X132200000Y-105700000D01*
X132600000Y-105500000D02*
X132600000Y-105700000D01*
X132600000Y-105700000D02*
X132600000Y-106100000D01*
X132200000Y-105700000D02*
X131800000Y-106100000D01*
X131800000Y-106100000D02*
X131800000Y-106900000D01*
X131800000Y-106900000D02*
X132200000Y-107300000D01*
X132200000Y-107300000D02*
X132200000Y-108700000D01*
X132200000Y-108700000D02*
X131400000Y-109500000D01*
X131400000Y-109500000D02*
X131400000Y-111000000D01*
X134300000Y-113900000D02*
X134300000Y-115400000D01*
X134300000Y-115400000D02*
X133500000Y-116200000D01*
X133500000Y-118900000D02*
X132600000Y-119800000D01*
X132600000Y-119800000D02*
X132600000Y-120500000D01*
X132600000Y-120500000D02*
X133500000Y-121400000D01*
X133500000Y-121400000D02*
X133500000Y-123100000D01*
X132150000Y-111750000D02*
X132150000Y-113250000D01*
X131400000Y-111000000D02*
X132150000Y-111750000D01*
X132150000Y-111750000D02*
X134300000Y-113900000D01*
X133200000Y-114300000D02*
X133200000Y-115200000D01*
X132750000Y-113850000D02*
X132750000Y-114050000D01*
X132150000Y-113250000D02*
X132750000Y-113850000D01*
X132750000Y-113850000D02*
X133200000Y-114300000D01*
X132750000Y-114050000D02*
X132000000Y-114800000D01*
X132000000Y-114800000D02*
X132000000Y-116500000D01*
X132000000Y-116500000D02*
X132600000Y-117100000D01*
X132600000Y-117100000D02*
X132600000Y-118500000D01*
X132600000Y-118500000D02*
X131800000Y-119300000D01*
X131800000Y-119300000D02*
X131800000Y-120500000D01*
X131800000Y-120500000D02*
X131200000Y-121100000D01*
X131200000Y-121100000D02*
X131200000Y-121400000D01*
X131200000Y-121400000D02*
X132600000Y-122800000D01*
X133500000Y-117100000D02*
X133600000Y-117100000D01*
X133500000Y-116200000D02*
X133500000Y-117100000D01*
X133500000Y-117100000D02*
X133500000Y-118900000D01*
X133600000Y-117100000D02*
X134100000Y-117600000D01*
X134100000Y-117600000D02*
X134100000Y-119500000D01*
X134100000Y-119500000D02*
X135200000Y-120600000D01*
X144350000Y-95550000D02*
X144350000Y-95650000D01*
X145000000Y-94900000D02*
X144350000Y-95550000D01*
X144350000Y-95550000D02*
X143700000Y-96200000D01*
X144350000Y-95650000D02*
X145000000Y-96300000D01*
X145000000Y-96300000D02*
X145000000Y-97500000D01*
D19*
%TO.N,/GND*%
X149750000Y-136500000D02*
X149750000Y-125750000D01*
X150500000Y-125000000D02*
X152310000Y-125000000D01*
X149750000Y-125750000D02*
X150500000Y-125000000D01*
X158000000Y-90810000D02*
X154690000Y-90810000D01*
X152310000Y-78500000D02*
X152310000Y-81810000D01*
X154690000Y-84190000D02*
X154690000Y-90810000D01*
X152310000Y-81810000D02*
X154690000Y-84190000D01*
X140051671Y-101483832D02*
X140051671Y-95051671D01*
X139000000Y-94000000D02*
X139000000Y-90810000D01*
X140051671Y-95051671D02*
X139000000Y-94000000D01*
X154100000Y-125000000D02*
X152310000Y-125000000D01*
X155850000Y-126750000D02*
X154100000Y-125000000D01*
X157750000Y-126750000D02*
X155850000Y-126750000D01*
X152310000Y-123810000D02*
X151500000Y-123000000D01*
X152310000Y-125000000D02*
X152310000Y-123810000D01*
X143500000Y-123000000D02*
X140000000Y-123000000D01*
X151500000Y-123000000D02*
X143500000Y-123000000D01*
X140000000Y-123000000D02*
X135500000Y-118500000D01*
X137016168Y-101483832D02*
X140051671Y-101483832D01*
X135500000Y-103000000D02*
X137016168Y-101483832D01*
X139450000Y-110000000D02*
X135500000Y-110000000D01*
X135500000Y-110000000D02*
X135500000Y-103000000D01*
X135500000Y-118500000D02*
X135500000Y-110000000D01*
X156916168Y-122916168D02*
X156916168Y-118348329D01*
X157750000Y-123750000D02*
X156916168Y-122916168D01*
X157750000Y-126750000D02*
X157750000Y-123750000D01*
X141810000Y-90810000D02*
X139000000Y-90810000D01*
X143200000Y-92200000D02*
X141810000Y-90810000D01*
X153300000Y-92200000D02*
X143200000Y-92200000D01*
X154690000Y-90810000D02*
X153300000Y-92200000D01*
D20*
%TO.N,/motor*%
X144690000Y-81810000D02*
X144690000Y-78500000D01*
X142500000Y-84000000D02*
X144690000Y-81810000D01*
X142500000Y-88500000D02*
X142500000Y-84000000D01*
X144000000Y-90000000D02*
X142500000Y-88500000D01*
X147230000Y-90000000D02*
X144000000Y-90000000D01*
%TO.N,Net-(C1-Pad1)*%
X155750000Y-129250000D02*
X157750000Y-129250000D01*
X154040000Y-127540000D02*
X155750000Y-129250000D01*
X152310000Y-127540000D02*
X154040000Y-127540000D01*
%TO.N,Net-(D1-Pad1)*%
X145960000Y-85160000D02*
X145960000Y-84000000D01*
X149770000Y-88970000D02*
X145960000Y-85160000D01*
X149770000Y-90000000D02*
X149770000Y-88970000D01*
%TD*%
D21*
X150377288Y-111032723D02*
X150381086Y-111044593D01*
X153316739Y-118873000D01*
X147332746Y-118873000D01*
X147303210Y-118801694D01*
X147136099Y-118551594D01*
X146923406Y-118338901D01*
X146673306Y-118171790D01*
X146395410Y-118056681D01*
X146100396Y-117998000D01*
X145799604Y-117998000D01*
X145504590Y-118056681D01*
X145226694Y-118171790D01*
X144976594Y-118338901D01*
X144763901Y-118551594D01*
X144596790Y-118801694D01*
X144567254Y-118873000D01*
X143683261Y-118873000D01*
X146618914Y-111044593D01*
X146622712Y-111032723D01*
X148500000Y-103992893D01*
X150377288Y-111032723D01*
%TA.AperFunction,NonConductor*%
D22*
G36*
X150377288Y-111032723D02*
G01*
X150381086Y-111044593D01*
X153316739Y-118873000D01*
X147332746Y-118873000D01*
X147303210Y-118801694D01*
X147136099Y-118551594D01*
X146923406Y-118338901D01*
X146673306Y-118171790D01*
X146395410Y-118056681D01*
X146100396Y-117998000D01*
X145799604Y-117998000D01*
X145504590Y-118056681D01*
X145226694Y-118171790D01*
X144976594Y-118338901D01*
X144763901Y-118551594D01*
X144596790Y-118801694D01*
X144567254Y-118873000D01*
X143683261Y-118873000D01*
X146618914Y-111044593D01*
X146622712Y-111032723D01*
X148500000Y-103992893D01*
X150377288Y-111032723D01*
G37*
%TD.AperFunction*%
M02*
