M48
; DRILL file {KiCad 5.1.9-73d0e3b20d~88~ubuntu20.04.1} date Tue Aug 31 18:27:42 2021
; FORMAT={-:-/ absolute / inch / decimal}
; #@! TF.CreationDate,2021-08-31T18:27:42+05:30
; #@! TF.GenerationSoftware,Kicad,Pcbnew,5.1.9-73d0e3b20d~88~ubuntu20.04.1
FMAT,2
INCH
T1C0.0315
T2C0.0354
T3C0.0401
T4C0.0512
T5C0.0802
%
G90
G05
T1
X5.4724Y-5.0197
X5.4724Y-5.1181
X5.5118Y-3.3146
X5.5118Y-3.6146
X5.5709Y-3.1193
X5.5709Y-3.2193
X5.6965Y-3.3268
X5.6965Y-4.9213
X5.6965Y-5.0213
X5.6965Y-5.1213
X5.6965Y-5.2213
X5.6965Y-5.3543
X5.6965Y-5.4724
X5.7465Y-3.622
X5.7965Y-3.7795
X5.8465Y-3.522
X5.8465Y-5.561
X5.8965Y-3.7795
X5.9465Y-3.622
X5.9965Y-3.3268
X5.9965Y-4.9213
X5.9965Y-5.0213
X5.9965Y-5.1213
X5.9965Y-5.2213
X5.9965Y-5.3543
X5.9965Y-5.4724
X6.122Y-3.1193
X6.122Y-3.2193
X6.1811Y-3.3146
X6.1811Y-3.6146
X6.2205Y-5.0197
X6.2205Y-5.1181
X6.5157Y-4.2201
X6.5157Y-4.5201
T2
X4.9685Y-4.2717
X4.9685Y-4.3701
X4.9685Y-4.4685
X5.0984Y-4.2717
X5.0984Y-4.3701
X5.0984Y-4.4685
T3
X5.4134Y-3.6614
X5.4134Y-4.1339
X5.4134Y-4.7244
X6.2795Y-3.6614
X6.2795Y-4.1339
X6.2795Y-4.7244
T4
X5.2953Y-4.3701
X5.3819Y-4.3701
X6.1654Y-4.3701
X6.3583Y-4.3701
T5
X5.8465Y-2.9724
T0
M30
