%TF.GenerationSoftware,KiCad,Pcbnew,5.1.9-73d0e3b20d~88~ubuntu20.04.1*%
%TF.CreationDate,2021-08-18T17:43:57+05:30*%
%TF.ProjectId,MAP6,4d415036-2e6b-4696-9361-645f70636258,1*%
%TF.SameCoordinates,Original*%
%TF.FileFunction,Legend,Bot*%
%TF.FilePolarity,Positive*%
%FSLAX46Y46*%
G04 Gerber Fmt 4.6, Leading zero omitted, Abs format (unit mm)*
G04 Created by KiCad (PCBNEW 5.1.9-73d0e3b20d~88~ubuntu20.04.1) date 2021-08-18 17:43:57*
%MOMM*%
%LPD*%
G01*
G04 APERTURE LIST*
%ADD10C,0.500000*%
%ADD11C,0.250000*%
%ADD12C,0.050800*%
%ADD13C,0.120000*%
%ADD14C,0.203200*%
%ADD15C,0.127000*%
%ADD16C,0.300000*%
%ADD17C,0.101600*%
%ADD18C,0.002540*%
%ADD19C,0.075000*%
%ADD20C,0.150000*%
%ADD21C,1.800000*%
%ADD22C,2.000000*%
%ADD23C,1.900000*%
%ADD24C,2.200000*%
%ADD25C,2.900000*%
%ADD26O,2.000000X2.000000*%
%ADD27C,3.448000*%
%ADD28C,2.436000*%
G04 APERTURE END LIST*
D10*
X138900000Y-105000000D02*
G75*
G03*
X138900000Y-105000000I-1400000J0D01*
G01*
X138900000Y-93000000D02*
G75*
G03*
X138900000Y-93000000I-1400000J0D01*
G01*
X160900000Y-93000000D02*
G75*
G03*
X160900000Y-93000000I-1400000J0D01*
G01*
X160900000Y-105000000D02*
G75*
G03*
X160900000Y-105000000I-1400000J0D01*
G01*
X160900000Y-120000000D02*
G75*
G03*
X160900000Y-120000000I-1400000J0D01*
G01*
X138900000Y-120000000D02*
G75*
G03*
X138900000Y-120000000I-1400000J0D01*
G01*
D11*
X135797619Y-107517857D02*
X135500000Y-107517857D01*
X135500000Y-109303571D01*
X135797619Y-109303571D01*
X136273809Y-108410714D02*
X137226190Y-108410714D01*
X136750000Y-107934523D02*
X136750000Y-108886904D01*
X137702380Y-107517857D02*
X138000000Y-107517857D01*
X138000000Y-109303571D01*
X137702380Y-109303571D01*
X159547619Y-107517857D02*
X159250000Y-107517857D01*
X159250000Y-109303571D01*
X159547619Y-109303571D01*
X160023809Y-108410714D02*
X160976190Y-108410714D01*
X161452380Y-107517857D02*
X161750000Y-107517857D01*
X161750000Y-109303571D01*
X161452380Y-109303571D01*
D12*
%TO.C,kibuzzard-611CF906*%
G36*
X130261552Y-106839832D02*
G01*
X130926582Y-107102722D01*
X131029452Y-107136060D01*
X131164707Y-107178922D01*
X131311392Y-107224642D01*
X131448552Y-107268457D01*
X131302820Y-107316082D01*
X131158040Y-107363707D01*
X131027547Y-107405617D01*
X130926582Y-107439907D01*
X130926582Y-107634217D01*
X131078982Y-107647314D01*
X131227572Y-107659935D01*
X131373543Y-107671365D01*
X131518085Y-107680890D01*
X131662389Y-107688748D01*
X131807645Y-107695178D01*
X131955044Y-107700416D01*
X132105778Y-107704703D01*
X132105778Y-107489437D01*
X131189472Y-107500867D01*
X131688583Y-107356087D01*
X131688583Y-107184637D01*
X131189472Y-107045572D01*
X132105778Y-107055097D01*
X132105778Y-106839832D01*
X131958140Y-106845786D01*
X131804788Y-106852215D01*
X131649054Y-106859121D01*
X131494272Y-106866502D01*
X131342349Y-106874837D01*
X131195187Y-106884600D01*
X131055646Y-106895792D01*
X130926582Y-106908412D01*
X130926582Y-107102722D01*
X130261552Y-106839832D01*
X130261552Y-106327202D01*
X132938448Y-106327202D01*
X132105778Y-108432412D01*
X131833363Y-108377167D01*
X131833363Y-108062842D01*
X132105778Y-108009502D01*
X132105778Y-107765663D01*
X131968808Y-107799267D01*
X131836792Y-107833023D01*
X131709728Y-107866932D01*
X131587617Y-107900994D01*
X131470460Y-107935207D01*
X131328954Y-107977713D01*
X131191139Y-108019504D01*
X131057015Y-108060580D01*
X130926582Y-108100942D01*
X130926582Y-108356212D01*
X131058087Y-108398063D01*
X131193521Y-108439794D01*
X131332883Y-108481407D01*
X131476175Y-108522900D01*
X131594323Y-108555856D01*
X131716357Y-108588432D01*
X131842278Y-108620626D01*
X131972085Y-108652440D01*
X132105778Y-108683872D01*
X132105778Y-108432412D01*
X132938448Y-106327202D01*
X132938448Y-106839832D01*
X132111016Y-111692582D01*
X131984810Y-111638527D01*
X131883528Y-111613127D01*
X131766370Y-111597887D01*
X131633338Y-111592807D01*
X131503480Y-111597147D01*
X131388227Y-111610164D01*
X131287580Y-111631860D01*
X131160897Y-111677818D01*
X131060885Y-111737588D01*
X130986590Y-111809025D01*
X130937060Y-111889987D01*
X130909199Y-111978094D01*
X130899912Y-112070962D01*
X130923725Y-112217647D01*
X130953252Y-114661762D01*
X130842762Y-114704625D01*
X130802757Y-114808447D01*
X130842762Y-114913222D01*
X130953252Y-114957037D01*
X131061837Y-114913222D01*
X131101842Y-114808447D01*
X131061837Y-114704625D01*
X130953252Y-114661762D01*
X130923725Y-112217647D01*
X130998972Y-112337662D01*
X131058266Y-112383859D01*
X131133275Y-112419577D01*
X131224953Y-112442437D01*
X131334252Y-112450057D01*
X131750813Y-113536437D01*
X131629528Y-113526382D01*
X131494696Y-113539929D01*
X131384841Y-113580569D01*
X131299962Y-113648302D01*
X131239637Y-113739319D01*
X131203442Y-113849809D01*
X131191377Y-113979772D01*
X131196669Y-114080314D01*
X131212544Y-114186359D01*
X131239002Y-114297907D01*
X131997193Y-114297907D01*
X132130543Y-114286160D01*
X132238493Y-114250917D01*
X132321043Y-114192180D01*
X132379251Y-114107407D01*
X132414176Y-113994060D01*
X132425818Y-113852137D01*
X132421531Y-113769984D01*
X132408673Y-113691165D01*
X132368668Y-113543527D01*
X132170548Y-113587342D01*
X132209600Y-113703548D01*
X132227698Y-113855947D01*
X132213410Y-113956912D01*
X132174358Y-114019777D01*
X132116255Y-114052162D01*
X132044818Y-114061687D01*
X132008623Y-114061687D01*
X132037198Y-113971200D01*
X132046723Y-113882617D01*
X132034446Y-113775197D01*
X131997616Y-113686614D01*
X131936233Y-113616870D01*
X131853047Y-113566599D01*
X131750813Y-113536437D01*
X131334252Y-112450057D01*
X132001003Y-112450057D01*
X132032435Y-112330995D01*
X132042913Y-112213837D01*
X132021005Y-112079535D01*
X131952425Y-111971902D01*
X131830505Y-111900465D01*
X131746923Y-111881177D01*
X131646673Y-111874747D01*
X131496177Y-111889035D01*
X131373305Y-111937612D01*
X131290437Y-112026195D01*
X131259957Y-112160497D01*
X131269482Y-112250032D01*
X131239002Y-112250032D01*
X131116130Y-112204312D01*
X131065647Y-112070962D01*
X131092317Y-111951900D01*
X131185662Y-111854745D01*
X131263529Y-111818074D01*
X131363780Y-111789975D01*
X131489748Y-111772116D01*
X131644768Y-111766163D01*
X131770498Y-111771163D01*
X131880988Y-111786165D01*
X131975523Y-111813311D01*
X132053390Y-111854745D01*
X132114588Y-111911419D01*
X132159118Y-111984285D01*
X132186264Y-112075011D01*
X132195313Y-112185262D01*
X132185788Y-112326232D01*
X132170548Y-112392907D01*
X132336283Y-112413862D01*
X132348665Y-112354807D01*
X132356285Y-112301467D01*
X132361048Y-112247175D01*
X132362953Y-112185262D01*
X132354380Y-112063819D01*
X132328663Y-111950947D01*
X132281752Y-111849744D01*
X132209600Y-111763305D01*
X132111016Y-111692582D01*
X132938448Y-106839832D01*
X132938448Y-124760168D01*
X132067678Y-115305652D01*
X132114350Y-115169445D01*
X132126733Y-115052287D01*
X132120065Y-114968229D01*
X132100062Y-114898935D01*
X132022910Y-114799875D01*
X131900038Y-114747487D01*
X131822409Y-114736057D01*
X131734303Y-114732247D01*
X131404737Y-114732247D01*
X131404737Y-114484597D01*
X131210427Y-114484597D01*
X131210427Y-114966562D01*
X131404737Y-115437097D01*
X131210427Y-115437097D01*
X131210427Y-115640932D01*
X130985637Y-115640932D01*
X130947537Y-115875248D01*
X130953252Y-117519263D01*
X130842762Y-117562125D01*
X130802757Y-117665948D01*
X130842762Y-117770723D01*
X130953252Y-117814537D01*
X131061837Y-117770723D01*
X131101842Y-117665948D01*
X131061837Y-117562125D01*
X130953252Y-117519263D01*
X130947537Y-115875248D01*
X131210427Y-115875248D01*
X131210427Y-116250533D01*
X131404737Y-116250533D01*
X131900038Y-117604988D01*
X131822409Y-117593558D01*
X131734303Y-117589748D01*
X131404737Y-117589748D01*
X131404737Y-117342098D01*
X131210427Y-117342098D01*
X131210427Y-117824062D01*
X131464745Y-118312695D01*
X131384259Y-118350319D01*
X131316155Y-118400325D01*
X131261386Y-118461999D01*
X131220905Y-118534628D01*
X131195902Y-118616066D01*
X131187567Y-118704173D01*
X131195902Y-118793469D01*
X131220905Y-118874670D01*
X131261386Y-118946584D01*
X131316155Y-119008020D01*
X131384259Y-119057788D01*
X131464745Y-119094698D01*
X131555947Y-119117558D01*
X131656198Y-119125178D01*
X131757877Y-119117558D01*
X131849555Y-119094698D01*
X131930279Y-119058026D01*
X131999098Y-119008973D01*
X132054819Y-118948251D01*
X132096253Y-118876575D01*
X132121970Y-118794898D01*
X132130543Y-118704173D01*
X132121970Y-118613447D01*
X132096253Y-118531770D01*
X132054819Y-118459856D01*
X131999098Y-118398420D01*
X131930279Y-118348652D01*
X131849555Y-118311743D01*
X131757877Y-118288883D01*
X131656198Y-118281263D01*
X131555947Y-118289121D01*
X131464745Y-118312695D01*
X131210427Y-117824062D01*
X131764783Y-117824062D01*
X131883845Y-117853590D01*
X131922898Y-117951698D01*
X131914325Y-118029803D01*
X131879083Y-118132673D01*
X132067678Y-118163153D01*
X132114350Y-118026945D01*
X132126733Y-117909788D01*
X132120065Y-117825729D01*
X132100062Y-117756435D01*
X132022910Y-117657375D01*
X131900038Y-117604988D01*
X131404737Y-116250533D01*
X131404737Y-115875248D01*
X131766688Y-115875248D01*
X131846698Y-115884773D01*
X131894323Y-115911443D01*
X131917183Y-115953353D01*
X131922898Y-116008598D01*
X131920993Y-116068605D01*
X131914325Y-116121945D01*
X131900038Y-116175285D01*
X131875273Y-116235293D01*
X131955283Y-116627723D01*
X131883845Y-116642010D01*
X131831458Y-116680110D01*
X131799073Y-116734403D01*
X131787643Y-116799173D01*
X131831458Y-116917283D01*
X131955283Y-116968718D01*
X132082918Y-116917283D01*
X132126733Y-116799173D01*
X132115303Y-116734403D01*
X132081965Y-116680110D01*
X132028625Y-116642010D01*
X131955283Y-116627723D01*
X131875273Y-116235293D01*
X132077203Y-116267678D01*
X132115303Y-116127660D01*
X132126733Y-115981928D01*
X132113397Y-115837148D01*
X132061963Y-115730467D01*
X131954330Y-115663792D01*
X131874082Y-115646647D01*
X131772403Y-115640932D01*
X131404737Y-115640932D01*
X131404737Y-115437097D01*
X131210427Y-114966562D01*
X131764783Y-114966562D01*
X131883845Y-114996090D01*
X131922898Y-115094197D01*
X131914325Y-115172302D01*
X131879083Y-115275172D01*
X132067678Y-115305652D01*
X132938448Y-124760168D01*
X132938448Y-125272798D01*
X132420103Y-119511893D01*
X132420103Y-119268053D01*
X130774182Y-119801453D01*
X130774182Y-120041483D01*
X131698108Y-120729188D01*
X131120892Y-120729188D01*
X131120892Y-120334853D01*
X130926582Y-120334853D01*
X130926582Y-120965408D01*
X131711443Y-120965408D01*
X131785738Y-121176386D01*
X131659531Y-121156741D01*
X131513322Y-121150193D01*
X131368781Y-121156860D01*
X131243765Y-121176863D01*
X131138276Y-121210200D01*
X131052312Y-121256873D01*
X130967646Y-121337941D01*
X130916846Y-121438906D01*
X130899912Y-121559768D01*
X130916740Y-121682534D01*
X130967222Y-121784134D01*
X131051360Y-121864568D01*
X131137025Y-121910407D01*
X131242574Y-121943149D01*
X131368007Y-121962794D01*
X131373543Y-122097454D01*
X131249480Y-122127458D01*
X131143514Y-122174606D01*
X131056122Y-122236043D01*
X130987781Y-122310814D01*
X130938965Y-122397968D01*
X130909676Y-122494646D01*
X130899912Y-122597993D01*
X130910390Y-122720865D01*
X130934202Y-122815163D01*
X130962777Y-122880885D01*
X130985637Y-122919938D01*
X132105778Y-123091388D01*
X130941822Y-123091388D01*
X130928487Y-123168540D01*
X130919915Y-123255218D01*
X130915152Y-123340943D01*
X130913247Y-123415238D01*
X130923513Y-123553879D01*
X130954311Y-123670084D01*
X131005640Y-123763853D01*
X131080252Y-123832644D01*
X131180900Y-123873919D01*
X131307582Y-123887678D01*
X131435535Y-123873813D01*
X131537452Y-123832221D01*
X131613335Y-123762900D01*
X131665723Y-123668179D01*
X131697155Y-123550387D01*
X131707633Y-123409523D01*
X131707633Y-123325703D01*
X131910198Y-124042194D01*
X131797168Y-124006317D01*
X131663818Y-123994358D01*
X131528033Y-124004412D01*
X131412781Y-124034574D01*
X131318060Y-124084845D01*
X131247681Y-124154801D01*
X131205453Y-124244018D01*
X131191377Y-124352498D01*
X131201855Y-124445843D01*
X131231382Y-124525853D01*
X130823712Y-124525853D01*
X130783707Y-124760168D01*
X132079108Y-124760168D01*
X132098158Y-124688254D01*
X132113397Y-124602053D01*
X132123399Y-124509660D01*
X132126733Y-124419173D01*
X132112974Y-124290797D01*
X132071699Y-124185069D01*
X132002908Y-124101990D01*
X131910198Y-124042194D01*
X131707633Y-123325703D01*
X132105778Y-123325703D01*
X132105778Y-123091388D01*
X130985637Y-122919938D01*
X131172327Y-122858978D01*
X131124702Y-122756108D01*
X131103747Y-122630378D01*
X131134227Y-122489408D01*
X131219000Y-122395110D01*
X131348540Y-122341770D01*
X131427836Y-122329626D01*
X131515227Y-122325578D01*
X131643815Y-122332986D01*
X131747638Y-122355211D01*
X131826695Y-122392253D01*
X131901704Y-122474644D01*
X131926708Y-122588468D01*
X131924803Y-122634188D01*
X131919088Y-122679908D01*
X131488557Y-122679908D01*
X131488557Y-122914223D01*
X132077203Y-122914223D01*
X132111493Y-122783730D01*
X132125780Y-122685861D01*
X132130543Y-122569418D01*
X132120779Y-122464404D01*
X132091490Y-122370345D01*
X132042913Y-122288192D01*
X131975285Y-122218898D01*
X131888608Y-122163176D01*
X131782880Y-122121743D01*
X131658341Y-122096025D01*
X131515227Y-122087453D01*
X131373543Y-122097454D01*
X131368007Y-121962794D01*
X131513322Y-121969343D01*
X131659531Y-121962794D01*
X131785738Y-121943149D01*
X131891941Y-121910407D01*
X131978143Y-121864568D01*
X132062809Y-121784134D01*
X132113609Y-121682534D01*
X132130543Y-121559768D01*
X132113609Y-121437001D01*
X132062809Y-121335401D01*
X131978143Y-121254968D01*
X131891941Y-121209128D01*
X131785738Y-121176386D01*
X131711443Y-120965408D01*
X131794786Y-120959931D01*
X131873368Y-120943500D01*
X132006718Y-120871110D01*
X132057914Y-120813246D01*
X132097205Y-120740618D01*
X132122208Y-120652035D01*
X132130543Y-120546308D01*
X132122922Y-120436294D01*
X132100062Y-120346283D01*
X132025768Y-120211028D01*
X131839078Y-120300563D01*
X131898133Y-120406290D01*
X131926708Y-120525353D01*
X131914563Y-120607982D01*
X131878130Y-120672990D01*
X131808836Y-120715138D01*
X131698108Y-120729188D01*
X130774182Y-120041483D01*
X132420103Y-119511893D01*
X132938448Y-125272798D01*
X130261552Y-125272798D01*
X130913247Y-109127737D01*
X130923513Y-109266379D01*
X130954311Y-109382584D01*
X131005640Y-109476352D01*
X131080252Y-109545144D01*
X131180900Y-109586419D01*
X131307582Y-109600177D01*
X131435535Y-109586313D01*
X131537452Y-109544721D01*
X131623813Y-109741147D01*
X131462364Y-109753768D01*
X131320917Y-109791630D01*
X131199950Y-109852828D01*
X131099938Y-109935457D01*
X131021356Y-110038327D01*
X130964682Y-110160247D01*
X130930392Y-110298836D01*
X130918962Y-110451712D01*
X131118987Y-110465047D01*
X131134227Y-110316457D01*
X131178995Y-110183107D01*
X131259957Y-110077380D01*
X131383782Y-110011657D01*
X131359970Y-110082142D01*
X131351397Y-110143102D01*
X131359017Y-110238114D01*
X131381877Y-110317410D01*
X131463792Y-110434567D01*
X131583808Y-110500290D01*
X131728588Y-110520292D01*
X131867653Y-110498385D01*
X131997193Y-110430757D01*
X132093395Y-110314552D01*
X132121256Y-110237400D01*
X132130543Y-110146912D01*
X132116890Y-110025310D01*
X132075933Y-109924662D01*
X132007670Y-109844970D01*
X131910409Y-109787291D01*
X131782457Y-109752683D01*
X131623813Y-109741147D01*
X131537452Y-109544721D01*
X131613335Y-109475400D01*
X131665723Y-109380679D01*
X131697155Y-109262887D01*
X131707633Y-109122022D01*
X131707633Y-109038202D01*
X132105778Y-109038202D01*
X132105778Y-108803887D01*
X130941822Y-108803887D01*
X130928487Y-108881040D01*
X130919915Y-108967717D01*
X130915152Y-109053442D01*
X130913247Y-109127737D01*
X130261552Y-125272798D01*
X130261552Y-124760168D01*
X130261552Y-106839832D01*
G37*
G36*
X131513322Y-121757888D02*
G01*
X131494272Y-121666448D01*
X131582855Y-121636920D01*
X131620003Y-121561673D01*
X131582855Y-121483568D01*
X131494272Y-121454993D01*
X131404737Y-121483568D01*
X131366637Y-121561673D01*
X131404737Y-121636920D01*
X131494272Y-121666448D01*
X131513322Y-121757888D01*
X131389392Y-121752278D01*
X131286839Y-121735451D01*
X131205665Y-121707405D01*
X131126369Y-121645254D01*
X131099938Y-121559768D01*
X131126369Y-121475471D01*
X131205665Y-121413083D01*
X131286839Y-121384508D01*
X131389392Y-121367363D01*
X131513322Y-121361648D01*
X131638312Y-121367363D01*
X131741499Y-121384508D01*
X131822885Y-121413083D01*
X131902181Y-121475471D01*
X131928613Y-121559768D01*
X131902181Y-121645254D01*
X131822885Y-121707405D01*
X131741499Y-121735451D01*
X131638312Y-121752278D01*
X131513322Y-121757888D01*
G37*
G36*
X131658103Y-118519388D02*
G01*
X131766688Y-118530103D01*
X131852412Y-118562250D01*
X131908134Y-118618209D01*
X131926708Y-118700363D01*
X131908134Y-118780611D01*
X131852412Y-118838475D01*
X131766688Y-118873479D01*
X131658103Y-118885148D01*
X131549756Y-118874432D01*
X131464745Y-118842285D01*
X131409738Y-118786326D01*
X131391402Y-118704173D01*
X131409738Y-118623924D01*
X131464745Y-118566060D01*
X131549756Y-118531056D01*
X131658103Y-118519388D01*
G37*
G36*
X131652388Y-124232483D02*
G01*
X131761449Y-124243674D01*
X131848603Y-124277250D01*
X131905753Y-124335591D01*
X131924803Y-124421078D01*
X131922898Y-124474418D01*
X131917183Y-124525853D01*
X131429502Y-124525853D01*
X131403785Y-124464893D01*
X131393307Y-124392503D01*
X131409976Y-124320113D01*
X131459982Y-124270583D01*
X131541421Y-124242008D01*
X131652388Y-124232483D01*
G37*
G36*
X131629528Y-113764507D02*
G01*
X131726921Y-113774509D01*
X131798120Y-113804512D01*
X131856223Y-113930242D01*
X131846698Y-114001680D01*
X131821933Y-114061687D01*
X131391402Y-114061687D01*
X131383782Y-114014062D01*
X131381877Y-113970247D01*
X131409394Y-113855947D01*
X131491944Y-113787367D01*
X131629528Y-113764507D01*
G37*
G36*
X131155182Y-108222862D02*
G01*
X131281865Y-108187620D01*
X131399975Y-108157140D01*
X131517132Y-108130470D01*
X131639053Y-108106657D01*
X131639053Y-108337162D01*
X131517132Y-108314302D01*
X131399975Y-108288585D01*
X131281865Y-108258105D01*
X131155182Y-108222862D01*
G37*
G36*
X131117082Y-109154407D02*
G01*
X131118035Y-109096305D01*
X131122797Y-109038202D01*
X131503797Y-109038202D01*
X131503797Y-109133452D01*
X131492606Y-109232036D01*
X131459030Y-109302997D01*
X131398308Y-109345860D01*
X131305677Y-109360147D01*
X131217809Y-109346098D01*
X131159945Y-109303950D01*
X131127798Y-109238466D01*
X131117082Y-109154407D01*
G37*
G36*
X131117082Y-123441908D02*
G01*
X131118035Y-123383805D01*
X131122797Y-123325703D01*
X131503797Y-123325703D01*
X131503797Y-123420953D01*
X131492606Y-123519536D01*
X131459030Y-123590498D01*
X131398308Y-123633360D01*
X131305677Y-123647648D01*
X131217809Y-123633598D01*
X131159945Y-123591450D01*
X131127798Y-123525966D01*
X131117082Y-123441908D01*
G37*
G36*
X131545707Y-110112622D02*
G01*
X131553327Y-110038327D01*
X131574282Y-109975462D01*
X131608573Y-109972605D01*
X131644768Y-109971652D01*
X131750495Y-109979272D01*
X131840983Y-110005942D01*
X131904800Y-110058330D01*
X131928613Y-110141197D01*
X131909563Y-110209777D01*
X131861938Y-110256450D01*
X131799073Y-110283120D01*
X131732398Y-110291692D01*
X131594285Y-110251687D01*
X131557852Y-110196919D01*
X131545707Y-110112622D01*
G37*
G36*
X131635243Y-112074772D02*
G01*
X131709538Y-112079535D01*
X131778118Y-112097632D01*
X131828600Y-112134780D01*
X131848603Y-112196692D01*
X131842888Y-112250032D01*
X131461887Y-112250032D01*
X131456172Y-112221457D01*
X131454267Y-112194787D01*
X131470460Y-112135732D01*
X131512370Y-112099537D01*
X131570472Y-112080487D01*
X131635243Y-112074772D01*
G37*
%TO.C,kibuzzard-611CDC95*%
G36*
X139037891Y-116622055D02*
G01*
X138826833Y-117161355D01*
X138590613Y-117161355D01*
X138590613Y-118146240D01*
X138085788Y-118146240D01*
X137889573Y-118340550D01*
X137889573Y-117161355D01*
X137175197Y-117161355D01*
X137175197Y-117355665D01*
X137655258Y-117355665D01*
X137655258Y-117620460D01*
X137238062Y-117620460D01*
X137238062Y-117814770D01*
X137655258Y-117814770D01*
X137655258Y-118146240D01*
X137133287Y-118146240D01*
X137133287Y-118340550D01*
X137889573Y-118340550D01*
X138085788Y-118146240D01*
X138085788Y-118340550D01*
X138826833Y-118340550D01*
X138826833Y-117161355D01*
X139037891Y-116622055D01*
X139550521Y-116622055D01*
X139550521Y-118877945D01*
X139037891Y-118877945D01*
X135962109Y-118877945D01*
X136178882Y-118311975D01*
X136309375Y-118346265D01*
X136407244Y-118360553D01*
X136523687Y-118365315D01*
X136628701Y-118355552D01*
X136722760Y-118326263D01*
X136804913Y-118277685D01*
X136874207Y-118210058D01*
X136929929Y-118123380D01*
X136971362Y-118017653D01*
X136997080Y-117893113D01*
X137005652Y-117750000D01*
X136995651Y-117608316D01*
X136965647Y-117484252D01*
X136918499Y-117378287D01*
X136857062Y-117290895D01*
X136782291Y-117222553D01*
X136695137Y-117173737D01*
X136598459Y-117144448D01*
X136495113Y-117134685D01*
X136372240Y-117145162D01*
X136277942Y-117168975D01*
X136212220Y-117197550D01*
X136173167Y-117220410D01*
X136234127Y-117407100D01*
X136336997Y-117359475D01*
X136462727Y-117338520D01*
X136603697Y-117369000D01*
X136697995Y-117453772D01*
X136751335Y-117583312D01*
X136763479Y-117662608D01*
X136767527Y-117750000D01*
X136760119Y-117878588D01*
X136737894Y-117982410D01*
X136700852Y-118061468D01*
X136618461Y-118136477D01*
X136504637Y-118161480D01*
X136458918Y-118159575D01*
X136413197Y-118153860D01*
X136413197Y-117723330D01*
X136178882Y-117723330D01*
X136178882Y-118311975D01*
X135962109Y-118877945D01*
X135449479Y-118877945D01*
X135449479Y-116622055D01*
X135962109Y-116622055D01*
X139037891Y-116622055D01*
G37*
G36*
X161037891Y-116622055D02*
G01*
X160826833Y-117161355D01*
X160590613Y-117161355D01*
X160590613Y-118146240D01*
X160085788Y-118146240D01*
X159889573Y-118340550D01*
X159889573Y-117161355D01*
X159175197Y-117161355D01*
X159175197Y-117355665D01*
X159655258Y-117355665D01*
X159655258Y-117620460D01*
X159238062Y-117620460D01*
X159238062Y-117814770D01*
X159655258Y-117814770D01*
X159655258Y-118146240D01*
X159133287Y-118146240D01*
X159133287Y-118340550D01*
X159889573Y-118340550D01*
X160085788Y-118146240D01*
X160085788Y-118340550D01*
X160826833Y-118340550D01*
X160826833Y-117161355D01*
X161037891Y-116622055D01*
X161550521Y-116622055D01*
X161550521Y-118877945D01*
X161037891Y-118877945D01*
X157962109Y-118877945D01*
X158178882Y-118311975D01*
X158309375Y-118346265D01*
X158407244Y-118360553D01*
X158523687Y-118365315D01*
X158628701Y-118355552D01*
X158722760Y-118326263D01*
X158804913Y-118277685D01*
X158874207Y-118210058D01*
X158929929Y-118123380D01*
X158971362Y-118017653D01*
X158997080Y-117893113D01*
X159005652Y-117750000D01*
X158995651Y-117608316D01*
X158965647Y-117484252D01*
X158918499Y-117378287D01*
X158857062Y-117290895D01*
X158782291Y-117222553D01*
X158695137Y-117173737D01*
X158598459Y-117144448D01*
X158495113Y-117134685D01*
X158372240Y-117145162D01*
X158277942Y-117168975D01*
X158212220Y-117197550D01*
X158173167Y-117220410D01*
X158234127Y-117407100D01*
X158336997Y-117359475D01*
X158462727Y-117338520D01*
X158603697Y-117369000D01*
X158697995Y-117453772D01*
X158751335Y-117583312D01*
X158763479Y-117662608D01*
X158767527Y-117750000D01*
X158760119Y-117878588D01*
X158737894Y-117982410D01*
X158700852Y-118061468D01*
X158618461Y-118136477D01*
X158504637Y-118161480D01*
X158458918Y-118159575D01*
X158413197Y-118153860D01*
X158413197Y-117723330D01*
X158178882Y-117723330D01*
X158178882Y-118311975D01*
X157962109Y-118877945D01*
X157449479Y-118877945D01*
X157449479Y-116622055D01*
X157962109Y-116622055D01*
X161037891Y-116622055D01*
G37*
G36*
X139037891Y-101372055D02*
G01*
X138826833Y-101911355D01*
X138590613Y-101911355D01*
X138590613Y-102896240D01*
X138085788Y-102896240D01*
X137889573Y-103090550D01*
X137889573Y-101911355D01*
X137175197Y-101911355D01*
X137175197Y-102105665D01*
X137655258Y-102105665D01*
X137655258Y-102370460D01*
X137238062Y-102370460D01*
X137238062Y-102564770D01*
X137655258Y-102564770D01*
X137655258Y-102896240D01*
X137133287Y-102896240D01*
X137133287Y-103090550D01*
X137889573Y-103090550D01*
X138085788Y-102896240D01*
X138085788Y-103090550D01*
X138826833Y-103090550D01*
X138826833Y-101911355D01*
X139037891Y-101372055D01*
X139550521Y-101372055D01*
X139550521Y-103627945D01*
X139037891Y-103627945D01*
X135962109Y-103627945D01*
X136178882Y-103061975D01*
X136309375Y-103096265D01*
X136407244Y-103110553D01*
X136523687Y-103115315D01*
X136628701Y-103105552D01*
X136722760Y-103076263D01*
X136804913Y-103027685D01*
X136874207Y-102960058D01*
X136929929Y-102873380D01*
X136971362Y-102767653D01*
X136997080Y-102643113D01*
X137005652Y-102500000D01*
X136995651Y-102358316D01*
X136965647Y-102234252D01*
X136918499Y-102128287D01*
X136857062Y-102040895D01*
X136782291Y-101972553D01*
X136695137Y-101923737D01*
X136598459Y-101894448D01*
X136495113Y-101884685D01*
X136372240Y-101895162D01*
X136277942Y-101918975D01*
X136212220Y-101947550D01*
X136173167Y-101970410D01*
X136234127Y-102157100D01*
X136336997Y-102109475D01*
X136462727Y-102088520D01*
X136603697Y-102119000D01*
X136697995Y-102203772D01*
X136751335Y-102333312D01*
X136763479Y-102412608D01*
X136767527Y-102500000D01*
X136760119Y-102628588D01*
X136737894Y-102732410D01*
X136700852Y-102811468D01*
X136618461Y-102886477D01*
X136504637Y-102911480D01*
X136458918Y-102909575D01*
X136413197Y-102903860D01*
X136413197Y-102473330D01*
X136178882Y-102473330D01*
X136178882Y-103061975D01*
X135962109Y-103627945D01*
X135449479Y-103627945D01*
X135449479Y-101372055D01*
X135962109Y-101372055D01*
X139037891Y-101372055D01*
G37*
G36*
X161037891Y-101372055D02*
G01*
X160826833Y-101911355D01*
X160590613Y-101911355D01*
X160590613Y-102896240D01*
X160085788Y-102896240D01*
X159889573Y-103090550D01*
X159889573Y-101911355D01*
X159175197Y-101911355D01*
X159175197Y-102105665D01*
X159655258Y-102105665D01*
X159655258Y-102370460D01*
X159238062Y-102370460D01*
X159238062Y-102564770D01*
X159655258Y-102564770D01*
X159655258Y-102896240D01*
X159133287Y-102896240D01*
X159133287Y-103090550D01*
X159889573Y-103090550D01*
X160085788Y-102896240D01*
X160085788Y-103090550D01*
X160826833Y-103090550D01*
X160826833Y-101911355D01*
X161037891Y-101372055D01*
X161550521Y-101372055D01*
X161550521Y-103627945D01*
X161037891Y-103627945D01*
X157962109Y-103627945D01*
X158178882Y-103061975D01*
X158309375Y-103096265D01*
X158407244Y-103110553D01*
X158523687Y-103115315D01*
X158628701Y-103105552D01*
X158722760Y-103076263D01*
X158804913Y-103027685D01*
X158874207Y-102960058D01*
X158929929Y-102873380D01*
X158971362Y-102767653D01*
X158997080Y-102643113D01*
X159005652Y-102500000D01*
X158995651Y-102358316D01*
X158965647Y-102234252D01*
X158918499Y-102128287D01*
X158857062Y-102040895D01*
X158782291Y-101972553D01*
X158695137Y-101923737D01*
X158598459Y-101894448D01*
X158495113Y-101884685D01*
X158372240Y-101895162D01*
X158277942Y-101918975D01*
X158212220Y-101947550D01*
X158173167Y-101970410D01*
X158234127Y-102157100D01*
X158336997Y-102109475D01*
X158462727Y-102088520D01*
X158603697Y-102119000D01*
X158697995Y-102203772D01*
X158751335Y-102333312D01*
X158763479Y-102412608D01*
X158767527Y-102500000D01*
X158760119Y-102628588D01*
X158737894Y-102732410D01*
X158700852Y-102811468D01*
X158618461Y-102886477D01*
X158504637Y-102911480D01*
X158458918Y-102909575D01*
X158413197Y-102903860D01*
X158413197Y-102473330D01*
X158178882Y-102473330D01*
X158178882Y-103061975D01*
X157962109Y-103627945D01*
X157449479Y-103627945D01*
X157449479Y-101372055D01*
X157962109Y-101372055D01*
X161037891Y-101372055D01*
G37*
G36*
X139037891Y-94372055D02*
G01*
X138826833Y-94911355D01*
X138590613Y-94911355D01*
X138590613Y-95896240D01*
X138085788Y-95896240D01*
X137889573Y-96090550D01*
X137889573Y-94911355D01*
X137175197Y-94911355D01*
X137175197Y-95105665D01*
X137655258Y-95105665D01*
X137655258Y-95370460D01*
X137238062Y-95370460D01*
X137238062Y-95564770D01*
X137655258Y-95564770D01*
X137655258Y-95896240D01*
X137133287Y-95896240D01*
X137133287Y-96090550D01*
X137889573Y-96090550D01*
X138085788Y-95896240D01*
X138085788Y-96090550D01*
X138826833Y-96090550D01*
X138826833Y-94911355D01*
X139037891Y-94372055D01*
X139550521Y-94372055D01*
X139550521Y-96627945D01*
X139037891Y-96627945D01*
X135962109Y-96627945D01*
X136178882Y-96061975D01*
X136309375Y-96096265D01*
X136407244Y-96110553D01*
X136523687Y-96115315D01*
X136628701Y-96105552D01*
X136722760Y-96076263D01*
X136804913Y-96027685D01*
X136874207Y-95960058D01*
X136929929Y-95873380D01*
X136971362Y-95767653D01*
X136997080Y-95643113D01*
X137005652Y-95500000D01*
X136995651Y-95358316D01*
X136965647Y-95234252D01*
X136918499Y-95128287D01*
X136857062Y-95040895D01*
X136782291Y-94972553D01*
X136695137Y-94923737D01*
X136598459Y-94894448D01*
X136495113Y-94884685D01*
X136372240Y-94895162D01*
X136277942Y-94918975D01*
X136212220Y-94947550D01*
X136173167Y-94970410D01*
X136234127Y-95157100D01*
X136336997Y-95109475D01*
X136462727Y-95088520D01*
X136603697Y-95119000D01*
X136697995Y-95203772D01*
X136751335Y-95333312D01*
X136763479Y-95412608D01*
X136767527Y-95500000D01*
X136760119Y-95628588D01*
X136737894Y-95732410D01*
X136700852Y-95811468D01*
X136618461Y-95886477D01*
X136504637Y-95911480D01*
X136458918Y-95909575D01*
X136413197Y-95903860D01*
X136413197Y-95473330D01*
X136178882Y-95473330D01*
X136178882Y-96061975D01*
X135962109Y-96627945D01*
X135449479Y-96627945D01*
X135449479Y-94372055D01*
X135962109Y-94372055D01*
X139037891Y-94372055D01*
G37*
G36*
X161037891Y-94372055D02*
G01*
X160826833Y-94911355D01*
X160590613Y-94911355D01*
X160590613Y-95896240D01*
X160085788Y-95896240D01*
X159889573Y-96090550D01*
X159889573Y-94911355D01*
X159175197Y-94911355D01*
X159175197Y-95105665D01*
X159655258Y-95105665D01*
X159655258Y-95370460D01*
X159238062Y-95370460D01*
X159238062Y-95564770D01*
X159655258Y-95564770D01*
X159655258Y-95896240D01*
X159133287Y-95896240D01*
X159133287Y-96090550D01*
X159889573Y-96090550D01*
X160085788Y-95896240D01*
X160085788Y-96090550D01*
X160826833Y-96090550D01*
X160826833Y-94911355D01*
X161037891Y-94372055D01*
X161550521Y-94372055D01*
X161550521Y-96627945D01*
X161037891Y-96627945D01*
X157962109Y-96627945D01*
X158178882Y-96061975D01*
X158309375Y-96096265D01*
X158407244Y-96110553D01*
X158523687Y-96115315D01*
X158628701Y-96105552D01*
X158722760Y-96076263D01*
X158804913Y-96027685D01*
X158874207Y-95960058D01*
X158929929Y-95873380D01*
X158971362Y-95767653D01*
X158997080Y-95643113D01*
X159005652Y-95500000D01*
X158995651Y-95358316D01*
X158965647Y-95234252D01*
X158918499Y-95128287D01*
X158857062Y-95040895D01*
X158782291Y-94972553D01*
X158695137Y-94923737D01*
X158598459Y-94894448D01*
X158495113Y-94884685D01*
X158372240Y-94895162D01*
X158277942Y-94918975D01*
X158212220Y-94947550D01*
X158173167Y-94970410D01*
X158234127Y-95157100D01*
X158336997Y-95109475D01*
X158462727Y-95088520D01*
X158603697Y-95119000D01*
X158697995Y-95203772D01*
X158751335Y-95333312D01*
X158763479Y-95412608D01*
X158767527Y-95500000D01*
X158760119Y-95628588D01*
X158737894Y-95732410D01*
X158700852Y-95811468D01*
X158618461Y-95886477D01*
X158504637Y-95911480D01*
X158458918Y-95909575D01*
X158413197Y-95903860D01*
X158413197Y-95473330D01*
X158178882Y-95473330D01*
X158178882Y-96061975D01*
X157962109Y-96627945D01*
X157449479Y-96627945D01*
X157449479Y-94372055D01*
X157962109Y-94372055D01*
X161037891Y-94372055D01*
G37*
D13*
%TO.C,SW1*%
X129700000Y-114400000D02*
X129700000Y-115600000D01*
X129700000Y-115600000D02*
X125500000Y-115600000D01*
X125500000Y-115600000D02*
X125500000Y-114400000D01*
X129700000Y-107600000D02*
X129700000Y-106400000D01*
X129700000Y-106400000D02*
X125500000Y-106400000D01*
X125500000Y-106400000D02*
X125500000Y-107600000D01*
X130000000Y-114700000D02*
X130000000Y-115900000D01*
X130000000Y-115900000D02*
X128800000Y-115900000D01*
D12*
%TO.C,kibuzzard-611CD92E*%
G36*
X163926845Y-123333375D02*
G01*
X163852550Y-123332423D01*
X163789685Y-123327660D01*
X163789685Y-123121920D01*
X163844930Y-123115253D01*
X163903985Y-123112395D01*
X163974470Y-123117158D01*
X164034478Y-123133350D01*
X164075435Y-123165735D01*
X164090675Y-123220980D01*
X164044955Y-123307658D01*
X163926845Y-123333375D01*
G37*
G36*
X168689345Y-123333375D02*
G01*
X168615050Y-123332423D01*
X168552185Y-123327660D01*
X168552185Y-123121920D01*
X168607430Y-123115253D01*
X168666485Y-123112395D01*
X168736970Y-123117158D01*
X168796978Y-123133350D01*
X168837935Y-123165735D01*
X168853175Y-123220980D01*
X168807455Y-123307658D01*
X168689345Y-123333375D01*
G37*
G36*
X166603370Y-122967615D02*
G01*
X166612895Y-122898082D01*
X166643375Y-122838075D01*
X166696715Y-122795212D01*
X166776725Y-122779020D01*
X166855783Y-122794260D01*
X166911028Y-122836170D01*
X166945318Y-122897130D01*
X166961510Y-122967615D01*
X166603370Y-122967615D01*
G37*
G36*
X156491630Y-123053340D02*
G01*
X156480914Y-123161925D01*
X156448767Y-123247650D01*
X156392808Y-123303371D01*
X156310655Y-123321945D01*
X156230407Y-123303371D01*
X156172542Y-123247650D01*
X156137538Y-123161925D01*
X156125870Y-123053340D01*
X156136586Y-122944993D01*
X156168732Y-122859982D01*
X156224692Y-122804976D01*
X156306845Y-122786640D01*
X156387093Y-122804976D01*
X156444957Y-122859982D01*
X156479962Y-122944993D01*
X156491630Y-123053340D01*
G37*
G36*
X170189453Y-121666315D02*
G01*
X169466585Y-122596140D01*
X169344665Y-122619000D01*
X169269418Y-122687580D01*
X169232270Y-122802832D01*
X169225126Y-122878318D01*
X169222745Y-122965710D01*
X168967475Y-122811405D01*
X168999860Y-122622810D01*
X168876035Y-122595187D01*
X168794596Y-122585901D01*
X168710300Y-122582805D01*
X168609097Y-122589234D01*
X168526468Y-122608522D01*
X168409310Y-122680912D01*
X168346445Y-122795212D01*
X168327395Y-122946660D01*
X168094985Y-123501015D01*
X168094985Y-122218950D01*
X167858765Y-122178945D01*
X167858765Y-122959995D01*
X167789233Y-122875222D01*
X167720653Y-122782830D01*
X167656835Y-122690437D01*
X167603495Y-122605665D01*
X167321555Y-122605665D01*
X167399660Y-122700915D01*
X167490148Y-122805690D01*
X167583493Y-122908560D01*
X167203445Y-123060960D01*
X167194396Y-122949994D01*
X167167250Y-122853315D01*
X167125340Y-122771162D01*
X167072000Y-122703772D01*
X167008659Y-122651147D01*
X166936745Y-122613285D01*
X166859593Y-122590425D01*
X166780535Y-122582805D01*
X166659038Y-122595822D01*
X166558708Y-122634875D01*
X166479545Y-122699962D01*
X166422395Y-122790027D01*
X166388105Y-122904009D01*
X166376675Y-123041910D01*
X166377628Y-123089535D01*
X166140455Y-123501015D01*
X166140455Y-122664720D01*
X166045919Y-122633764D01*
X165949003Y-122609475D01*
X165842561Y-122593759D01*
X165719450Y-122588520D01*
X165665158Y-122590425D01*
X165589910Y-122597092D01*
X165508948Y-122608522D01*
X165435605Y-122626620D01*
X165477515Y-122843790D01*
X165531808Y-122832360D01*
X165595625Y-122821882D01*
X165658490Y-122815215D01*
X165709925Y-122813310D01*
X165807080Y-122818072D01*
X165904235Y-122836170D01*
X164923160Y-123323850D01*
X164791715Y-123311468D01*
X164745995Y-123260985D01*
X164760283Y-123219075D01*
X164800288Y-123189548D01*
X164859343Y-123165735D01*
X164928875Y-123142875D01*
X165033650Y-123107633D01*
X165130805Y-123057150D01*
X165203195Y-122979997D01*
X165231770Y-122862840D01*
X165209863Y-122755207D01*
X165141283Y-122665672D01*
X165022220Y-122604712D01*
X164942686Y-122588282D01*
X164848865Y-122582805D01*
X164764331Y-122586139D01*
X163947800Y-122582805D01*
X163846597Y-122589234D01*
X163763968Y-122608522D01*
X163646810Y-122680912D01*
X163583945Y-122795212D01*
X163564895Y-122946660D01*
X163018160Y-123323850D01*
X162886715Y-123311468D01*
X162840995Y-123260985D01*
X162855283Y-123219075D01*
X162895288Y-123189548D01*
X162954343Y-123165735D01*
X163023875Y-123142875D01*
X163128650Y-123107633D01*
X163225805Y-123057150D01*
X163298195Y-122979997D01*
X163326770Y-122862840D01*
X163304863Y-122755207D01*
X163236283Y-122665672D01*
X163117220Y-122604712D01*
X163037686Y-122588282D01*
X162943865Y-122582805D01*
X162859331Y-122586139D01*
X162780988Y-122596140D01*
X162650495Y-122634240D01*
X162394272Y-122733360D01*
X162429515Y-122605665D01*
X162185675Y-122605665D01*
X162146622Y-122756160D01*
X162124001Y-122836170D01*
X162099950Y-122916180D01*
X162074471Y-122995476D01*
X162047562Y-123073343D01*
X161991365Y-123217170D01*
X161951360Y-123073343D01*
X161930881Y-122995714D01*
X161911355Y-122917132D01*
X161892543Y-122837837D01*
X161874207Y-122758065D01*
X161840870Y-122605665D01*
X161600840Y-122605665D01*
X161636321Y-122730204D01*
X161670372Y-122852362D01*
X161704424Y-122971901D01*
X161739905Y-123088583D01*
X161777291Y-123202644D01*
X161817057Y-123314325D01*
X161859682Y-123423386D01*
X161905640Y-123529590D01*
X161060772Y-123497919D01*
X161156975Y-123425768D01*
X161212696Y-123307419D01*
X161231270Y-123144780D01*
X161231270Y-122384685D01*
X161478920Y-122384685D01*
X161478920Y-122190375D01*
X160996955Y-122190375D01*
X160996955Y-123161925D01*
X160960760Y-123285750D01*
X160869320Y-123318135D01*
X160751210Y-123299085D01*
X160688345Y-123274320D01*
X160411167Y-123404813D01*
X160467365Y-123272415D01*
X160478795Y-123192405D01*
X160482605Y-123104775D01*
X160482605Y-122605665D01*
X160248290Y-122605665D01*
X160248290Y-123074295D01*
X160240908Y-123182166D01*
X160218762Y-123258128D01*
X160103510Y-123318135D01*
X159996830Y-123308610D01*
X159996830Y-122605665D01*
X159760610Y-122605665D01*
X159760610Y-123470535D01*
X159832286Y-123487680D01*
X159917772Y-123504825D01*
X160014213Y-123517684D01*
X160118750Y-123521970D01*
X160219239Y-123514350D01*
X160299725Y-123491490D01*
X160411167Y-123404813D01*
X160688345Y-123274320D01*
X160657865Y-123462915D01*
X160683582Y-123476250D01*
X160735970Y-123496253D01*
X160815027Y-123514350D01*
X160920755Y-123521970D01*
X161060772Y-123497919D01*
X161905640Y-123529590D01*
X161977078Y-123661035D01*
X162055182Y-123751523D01*
X162150432Y-123803910D01*
X162273305Y-123821055D01*
X162380937Y-123811530D01*
X162461900Y-123786765D01*
X162418085Y-123590550D01*
X162350457Y-123614363D01*
X162286640Y-123621030D01*
X162176150Y-123575310D01*
X162109475Y-123466725D01*
X162165355Y-123349568D01*
X162221235Y-123221615D01*
X162277115Y-123082868D01*
X162318072Y-122971961D01*
X162357125Y-122855458D01*
X162394272Y-122733360D01*
X162650495Y-122634240D01*
X162686690Y-122832360D01*
X162787655Y-122800927D01*
X162941960Y-122779020D01*
X163062928Y-122800927D01*
X163094360Y-122847600D01*
X163080073Y-122884747D01*
X163041973Y-122914275D01*
X162986728Y-122939992D01*
X162919100Y-122963805D01*
X162812420Y-123001905D01*
X162712408Y-123054293D01*
X162639065Y-123134303D01*
X162610490Y-123253365D01*
X162631445Y-123358140D01*
X162700978Y-123443865D01*
X162827660Y-123501015D01*
X162914814Y-123516731D01*
X163020065Y-123521970D01*
X163127698Y-123515303D01*
X163218185Y-123495300D01*
X163349630Y-123447675D01*
X163313435Y-123251460D01*
X163171513Y-123300990D01*
X163018160Y-123323850D01*
X163564895Y-122946660D01*
X163564895Y-123480060D01*
X163717295Y-123506730D01*
X163824451Y-123518160D01*
X163943990Y-123521970D01*
X164099248Y-123506730D01*
X164218310Y-123456248D01*
X164294510Y-123364808D01*
X164321180Y-123226695D01*
X164290700Y-123095250D01*
X164208785Y-123009525D01*
X164090675Y-122962852D01*
X163951610Y-122948565D01*
X163865409Y-122952375D01*
X163789685Y-122963805D01*
X163789685Y-122935230D01*
X163831595Y-122823787D01*
X163888745Y-122790212D01*
X163976375Y-122779020D01*
X164104963Y-122788545D01*
X164204975Y-122811405D01*
X164237360Y-122622810D01*
X164113535Y-122595187D01*
X164032096Y-122585901D01*
X163947800Y-122582805D01*
X164764331Y-122586139D01*
X164685988Y-122596140D01*
X164555495Y-122634240D01*
X164591690Y-122832360D01*
X164692655Y-122800927D01*
X164846960Y-122779020D01*
X164967928Y-122800927D01*
X164999360Y-122847600D01*
X164985073Y-122884747D01*
X164946973Y-122914275D01*
X164891728Y-122939992D01*
X164824100Y-122963805D01*
X164717420Y-123001905D01*
X164617408Y-123054293D01*
X164544065Y-123134303D01*
X164515490Y-123253365D01*
X164536445Y-123358140D01*
X164605978Y-123443865D01*
X164732660Y-123501015D01*
X164819814Y-123516731D01*
X164925065Y-123521970D01*
X165032698Y-123515303D01*
X165123185Y-123495300D01*
X165254630Y-123447675D01*
X165218435Y-123251460D01*
X165076513Y-123300990D01*
X164923160Y-123323850D01*
X165904235Y-122836170D01*
X165904235Y-123501015D01*
X166140455Y-123501015D01*
X166377628Y-123089535D01*
X166380485Y-123129540D01*
X166961510Y-123129540D01*
X166943413Y-123207883D01*
X166889120Y-123267653D01*
X166806253Y-123305514D01*
X166702430Y-123318135D01*
X166568128Y-123302895D01*
X166460495Y-123272415D01*
X166428110Y-123472440D01*
X166557650Y-123507683D01*
X166711955Y-123521970D01*
X166820302Y-123514588D01*
X166916743Y-123492443D01*
X167000563Y-123455771D01*
X167071048Y-123404813D01*
X167127483Y-123339804D01*
X167169155Y-123260985D01*
X167194873Y-123168116D01*
X167203445Y-123060960D01*
X167583493Y-122908560D01*
X167668265Y-123000000D01*
X167565395Y-123109538D01*
X167510626Y-123174546D01*
X167456810Y-123241935D01*
X167405613Y-123310515D01*
X167358703Y-123379095D01*
X167287265Y-123501015D01*
X167555870Y-123501015D01*
X167615878Y-123393383D01*
X167694935Y-123275273D01*
X167779708Y-123164783D01*
X167858765Y-123078105D01*
X167858765Y-123501015D01*
X168094985Y-123501015D01*
X168327395Y-122946660D01*
X168327395Y-123480060D01*
X168479795Y-123506730D01*
X168586951Y-123518160D01*
X168706490Y-123521970D01*
X168861748Y-123506730D01*
X168980810Y-123456248D01*
X169057010Y-123364808D01*
X169083680Y-123226695D01*
X169053200Y-123095250D01*
X168971285Y-123009525D01*
X168853175Y-122962852D01*
X168714110Y-122948565D01*
X168627909Y-122952375D01*
X168552185Y-122963805D01*
X168552185Y-122935230D01*
X168594095Y-122823787D01*
X168651245Y-122790212D01*
X168738875Y-122779020D01*
X168867463Y-122788545D01*
X168967475Y-122811405D01*
X169222745Y-122965710D01*
X169222745Y-123501015D01*
X169413245Y-123501015D01*
X169413245Y-122954280D01*
X169419913Y-122868555D01*
X169437058Y-122819025D01*
X169461823Y-122796165D01*
X169491350Y-122790450D01*
X169527545Y-122793307D01*
X169561835Y-122803785D01*
X169552310Y-122883795D01*
X169548500Y-122980950D01*
X169548500Y-123160020D01*
X169739000Y-123160020D01*
X169739000Y-122954280D01*
X169757098Y-122826645D01*
X169815200Y-122790450D01*
X169842823Y-122792355D01*
X169874255Y-122798070D01*
X169874255Y-123501015D01*
X170064755Y-123501015D01*
X170064755Y-122639955D01*
X169918070Y-122607570D01*
X169790435Y-122596140D01*
X169701853Y-122608522D01*
X169634225Y-122649480D01*
X169558025Y-122612332D01*
X169466585Y-122596140D01*
X170189453Y-121666315D01*
X170702083Y-121666315D01*
X170702083Y-124333685D01*
X170189453Y-124333685D01*
X154810547Y-124333685D01*
X156849770Y-123478155D01*
X156969785Y-123509588D01*
X157046461Y-123518874D01*
X157135520Y-123521970D01*
X157262917Y-123512921D01*
X157370787Y-123485775D01*
X157460084Y-123442913D01*
X157531760Y-123386715D01*
X157586291Y-123318135D01*
X157624152Y-123238125D01*
X157646298Y-123149066D01*
X157653680Y-123053340D01*
X157646060Y-122959042D01*
X157623200Y-122870460D01*
X157584624Y-122790212D01*
X157529855Y-122720917D01*
X157458656Y-122663767D01*
X157370787Y-122619952D01*
X157265298Y-122592092D01*
X157141235Y-122582805D01*
X156996455Y-122594235D01*
X156865010Y-122632335D01*
X156916445Y-122820930D01*
X157001217Y-122797117D01*
X157120280Y-122786640D01*
X157260297Y-122806642D01*
X157350785Y-122861887D01*
X156721897Y-122951184D01*
X156698322Y-122859982D01*
X156660699Y-122779496D01*
X156610692Y-122711392D01*
X156549018Y-122656624D01*
X156476390Y-122616142D01*
X156394951Y-122591139D01*
X156306845Y-122582805D01*
X156217548Y-122591139D01*
X156136347Y-122616142D01*
X156064434Y-122656624D01*
X156002997Y-122711392D01*
X155953229Y-122779496D01*
X155916320Y-122859982D01*
X155893460Y-122951184D01*
X155885840Y-123051435D01*
X155893460Y-123153114D01*
X155916320Y-123244793D01*
X155952991Y-123325517D01*
X156002045Y-123394335D01*
X156062767Y-123450056D01*
X156134442Y-123491490D01*
X156216119Y-123517208D01*
X156306845Y-123525780D01*
X156397571Y-123517208D01*
X156479247Y-123491490D01*
X156551161Y-123450056D01*
X156612597Y-123394335D01*
X156662366Y-123325517D01*
X156699275Y-123244793D01*
X156722135Y-123153114D01*
X156729755Y-123051435D01*
X156721897Y-122951184D01*
X157350785Y-122861887D01*
X157400315Y-122946660D01*
X157415555Y-123053340D01*
X157398172Y-123163830D01*
X157346022Y-123247650D01*
X157251963Y-123300514D01*
X157108850Y-123318135D01*
X156993597Y-123310515D01*
X156884060Y-123285750D01*
X156849770Y-123478155D01*
X154810547Y-124333685D01*
X154297917Y-124333685D01*
X154935245Y-122965710D01*
X154935245Y-123501015D01*
X155125745Y-123501015D01*
X155125745Y-122954280D01*
X155132412Y-122868555D01*
X155149557Y-122819025D01*
X155174322Y-122796165D01*
X155203850Y-122790450D01*
X155240045Y-122793307D01*
X155274335Y-122803785D01*
X155264810Y-122883795D01*
X155261000Y-122980950D01*
X155261000Y-123160020D01*
X155451500Y-123160020D01*
X155451500Y-122954280D01*
X155469597Y-122826645D01*
X155527700Y-122790450D01*
X155555322Y-122792355D01*
X155586755Y-122798070D01*
X155586755Y-123501015D01*
X155777255Y-123501015D01*
X155777255Y-122639955D01*
X155630570Y-122607570D01*
X155502935Y-122596140D01*
X155414352Y-122608522D01*
X155346725Y-122649480D01*
X155270525Y-122612332D01*
X155179085Y-122596140D01*
X155057165Y-122619000D01*
X154981917Y-122687580D01*
X154944770Y-122802832D01*
X154937626Y-122878318D01*
X154935245Y-122965710D01*
X154297917Y-124333685D01*
X154297917Y-121666315D01*
X158989085Y-122596140D01*
X158867165Y-122619000D01*
X158791917Y-122687580D01*
X158754770Y-122802832D01*
X158747626Y-122878318D01*
X158745245Y-122965710D01*
X158330908Y-123226695D01*
X158276615Y-123194310D01*
X158211845Y-123182880D01*
X158093735Y-123226695D01*
X158042300Y-123350520D01*
X158093735Y-123478155D01*
X158211845Y-123521970D01*
X158276615Y-123510540D01*
X158330908Y-123477203D01*
X158369008Y-123423863D01*
X158383295Y-123350520D01*
X158369008Y-123279083D01*
X158330908Y-123226695D01*
X158745245Y-122965710D01*
X158745245Y-123501015D01*
X158935745Y-123501015D01*
X158935745Y-122954280D01*
X158942412Y-122868555D01*
X158959557Y-122819025D01*
X158984322Y-122796165D01*
X159013850Y-122790450D01*
X159050045Y-122793307D01*
X159084335Y-122803785D01*
X159074810Y-122883795D01*
X159071000Y-122980950D01*
X159071000Y-123160020D01*
X159261500Y-123160020D01*
X159261500Y-122954280D01*
X159279597Y-122826645D01*
X159337700Y-122790450D01*
X159365322Y-122792355D01*
X159396755Y-122798070D01*
X159396755Y-123501015D01*
X159587255Y-123501015D01*
X159587255Y-122639955D01*
X159440570Y-122607570D01*
X159312935Y-122596140D01*
X159224352Y-122608522D01*
X159156725Y-122649480D01*
X159080525Y-122612332D01*
X158989085Y-122596140D01*
X154297917Y-121666315D01*
X154810547Y-121666315D01*
X170189453Y-121666315D01*
G37*
D14*
%TO.C,R1*%
X141270000Y-90740000D02*
X138730000Y-90740000D01*
X138730000Y-90740000D02*
X138730000Y-85660000D01*
X138730000Y-85660000D02*
X141270000Y-85660000D01*
X141270000Y-85660000D02*
X141270000Y-90740000D01*
D15*
X139300000Y-87800000D02*
X139300000Y-88600000D01*
X140700000Y-88600000D02*
X140700000Y-87800000D01*
D14*
%TO.C,R2*%
X158270000Y-91040000D02*
X155730000Y-91040000D01*
X155730000Y-91040000D02*
X155730000Y-85960000D01*
X155730000Y-85960000D02*
X158270000Y-85960000D01*
X158270000Y-85960000D02*
X158270000Y-91040000D01*
D15*
X156300000Y-88100000D02*
X156300000Y-88900000D01*
X157700000Y-88900000D02*
X157700000Y-88100000D01*
D14*
%TO.C,R3*%
X151040000Y-88230000D02*
X151040000Y-90770000D01*
X151040000Y-90770000D02*
X145960000Y-90770000D01*
X145960000Y-90770000D02*
X145960000Y-88230000D01*
X145960000Y-88230000D02*
X151040000Y-88230000D01*
D15*
X148100000Y-90200000D02*
X148900000Y-90200000D01*
X148900000Y-88800000D02*
X148100000Y-88800000D01*
D14*
%TO.C,R4*%
X145960000Y-140270000D02*
X145960000Y-137730000D01*
X145960000Y-137730000D02*
X151040000Y-137730000D01*
X151040000Y-137730000D02*
X151040000Y-140270000D01*
X151040000Y-140270000D02*
X145960000Y-140270000D01*
D15*
X148900000Y-138300000D02*
X148100000Y-138300000D01*
X148100000Y-139700000D02*
X148900000Y-139700000D01*
D14*
%TO.C,R5*%
X166770000Y-113540000D02*
X164230000Y-113540000D01*
X164230000Y-113540000D02*
X164230000Y-108460000D01*
X164230000Y-108460000D02*
X166770000Y-108460000D01*
X166770000Y-108460000D02*
X166770000Y-113540000D01*
D15*
X164800000Y-110600000D02*
X164800000Y-111400000D01*
X166200000Y-111400000D02*
X166200000Y-110600000D01*
D14*
%TO.C,R6*%
X151040000Y-134730000D02*
X151040000Y-137270000D01*
X151040000Y-137270000D02*
X145960000Y-137270000D01*
X145960000Y-137270000D02*
X145960000Y-134730000D01*
X145960000Y-134730000D02*
X151040000Y-134730000D01*
D15*
X148100000Y-136700000D02*
X148900000Y-136700000D01*
X148900000Y-135300000D02*
X148100000Y-135300000D01*
D13*
%TO.C,Q1*%
X150440000Y-96700000D02*
X146590000Y-96700000D01*
X146197617Y-96112264D02*
G75*
G03*
X146590000Y-96700000I2302383J1112264D01*
G01*
X146163537Y-93910487D02*
G75*
G02*
X147440000Y-92650000I2336463J-1089513D01*
G01*
X150847775Y-93905214D02*
G75*
G03*
X149590000Y-92650000I-2347775J-1094786D01*
G01*
X150822631Y-96122045D02*
G75*
G02*
X150440000Y-96700000I-2322631J1122045D01*
G01*
D16*
%TO.C,D2*%
X155500000Y-81770000D02*
X153500000Y-81770000D01*
X155500000Y-79230000D02*
X154230000Y-79230000D01*
D17*
X157000000Y-78250000D02*
X154000000Y-78250000D01*
X157000780Y-78250521D02*
G75*
G02*
X154000000Y-78250000I-1500780J-2249479D01*
G01*
%TO.C,D1*%
X143000000Y-78250000D02*
X140000000Y-78250000D01*
D16*
X141500000Y-79230000D02*
X140230000Y-79230000D01*
X141500000Y-81770000D02*
X139500000Y-81770000D01*
D17*
X143000780Y-78250521D02*
G75*
G02*
X140000000Y-78250000I-1500780J-2249479D01*
G01*
%TO.C,BT1*%
X138100000Y-114800000D02*
X135100000Y-114800000D01*
X135100000Y-114800000D02*
X135100000Y-107200000D01*
X135100000Y-107200000D02*
X138100000Y-107200000D01*
X159000000Y-114500000D02*
X159000000Y-107500000D01*
X138104242Y-107201550D02*
G75*
G02*
X159000000Y-107500000I10395758J-3798450D01*
G01*
X159004284Y-114501430D02*
G75*
G02*
X138100000Y-114800000I-10504284J3501430D01*
G01*
D18*
%TO.C,LOGO1*%
G36*
X169263840Y-120245360D02*
G01*
X169238440Y-120230120D01*
X169180020Y-120194560D01*
X169096200Y-120138680D01*
X168997140Y-120072640D01*
X168898080Y-120006600D01*
X168816800Y-119953260D01*
X168760920Y-119915160D01*
X168735520Y-119902460D01*
X168722820Y-119907540D01*
X168677100Y-119930400D01*
X168608520Y-119965960D01*
X168567880Y-119986280D01*
X168506920Y-120011680D01*
X168473900Y-120019300D01*
X168468820Y-120009140D01*
X168445960Y-119960880D01*
X168410400Y-119879600D01*
X168364680Y-119770380D01*
X168308800Y-119643380D01*
X168252920Y-119508760D01*
X168194500Y-119369060D01*
X168138620Y-119234440D01*
X168090360Y-119115060D01*
X168049720Y-119018540D01*
X168024320Y-118949960D01*
X168014160Y-118922020D01*
X168016700Y-118914400D01*
X168049720Y-118883920D01*
X168103060Y-118843280D01*
X168222440Y-118746760D01*
X168339280Y-118601980D01*
X168410400Y-118436880D01*
X168433260Y-118251460D01*
X168412940Y-118081280D01*
X168346900Y-117918720D01*
X168232600Y-117771400D01*
X168092900Y-117662180D01*
X167930340Y-117593600D01*
X167750000Y-117570740D01*
X167577280Y-117591060D01*
X167409640Y-117657100D01*
X167262320Y-117768860D01*
X167198820Y-117839980D01*
X167112460Y-117989840D01*
X167064200Y-118147320D01*
X167059120Y-118187960D01*
X167066740Y-118363220D01*
X167117540Y-118533400D01*
X167211520Y-118683260D01*
X167341060Y-118807720D01*
X167356300Y-118817880D01*
X167414720Y-118863600D01*
X167455360Y-118894080D01*
X167485840Y-118919480D01*
X167262320Y-119457960D01*
X167226760Y-119541780D01*
X167165800Y-119689100D01*
X167112460Y-119816100D01*
X167069280Y-119917700D01*
X167038800Y-119983740D01*
X167026100Y-120011680D01*
X167026100Y-120014220D01*
X167005780Y-120016760D01*
X166965140Y-120001520D01*
X166888940Y-119965960D01*
X166840680Y-119940560D01*
X166782260Y-119912620D01*
X166756860Y-119902460D01*
X166734000Y-119915160D01*
X166680660Y-119950720D01*
X166599380Y-120004060D01*
X166502860Y-120067560D01*
X166411420Y-120131060D01*
X166327600Y-120186940D01*
X166266640Y-120225040D01*
X166236160Y-120242820D01*
X166231080Y-120242820D01*
X166205680Y-120227580D01*
X166157420Y-120186940D01*
X166083760Y-120118360D01*
X165979620Y-120014220D01*
X165964380Y-119998980D01*
X165878020Y-119912620D01*
X165809440Y-119838960D01*
X165763720Y-119788160D01*
X165745940Y-119765300D01*
X165761180Y-119734820D01*
X165799280Y-119673860D01*
X165855160Y-119587500D01*
X165923740Y-119488440D01*
X166101540Y-119229360D01*
X166005020Y-118985520D01*
X165974540Y-118909320D01*
X165936440Y-118820420D01*
X165908500Y-118754380D01*
X165893260Y-118726440D01*
X165867860Y-118716280D01*
X165799280Y-118701040D01*
X165702760Y-118680720D01*
X165588460Y-118660400D01*
X165476700Y-118640080D01*
X165377640Y-118619760D01*
X165306520Y-118607060D01*
X165273500Y-118599440D01*
X165265880Y-118594360D01*
X165258260Y-118579120D01*
X165255720Y-118546100D01*
X165253180Y-118485140D01*
X165250640Y-118391160D01*
X165250640Y-118251460D01*
X165250640Y-118236220D01*
X165253180Y-118106680D01*
X165255720Y-118000000D01*
X165258260Y-117933960D01*
X165263340Y-117906020D01*
X165293820Y-117898400D01*
X165364940Y-117883160D01*
X165464000Y-117865380D01*
X165583380Y-117842520D01*
X165591000Y-117839980D01*
X165707840Y-117817120D01*
X165806900Y-117796800D01*
X165878020Y-117781560D01*
X165905960Y-117771400D01*
X165913580Y-117763780D01*
X165936440Y-117718060D01*
X165969460Y-117644400D01*
X166010100Y-117555500D01*
X166048200Y-117461520D01*
X166081220Y-117377700D01*
X166104080Y-117316740D01*
X166111700Y-117288800D01*
X166109160Y-117286260D01*
X166091380Y-117258320D01*
X166050740Y-117197360D01*
X165994860Y-117113540D01*
X165926280Y-117011940D01*
X165921200Y-117004320D01*
X165852620Y-116905260D01*
X165796740Y-116818900D01*
X165761180Y-116760480D01*
X165745940Y-116732540D01*
X165745940Y-116730000D01*
X165768800Y-116699520D01*
X165819600Y-116643640D01*
X165893260Y-116567440D01*
X165979620Y-116478540D01*
X166007560Y-116453140D01*
X166106620Y-116356620D01*
X166172660Y-116295660D01*
X166215840Y-116262640D01*
X166236160Y-116255020D01*
X166266640Y-116272800D01*
X166330140Y-116313440D01*
X166413960Y-116371860D01*
X166515560Y-116440440D01*
X166523180Y-116445520D01*
X166622240Y-116514100D01*
X166706060Y-116569980D01*
X166764480Y-116610620D01*
X166792420Y-116625860D01*
X166794960Y-116625860D01*
X166835600Y-116613160D01*
X166906720Y-116587760D01*
X166995620Y-116554740D01*
X167087060Y-116516640D01*
X167170880Y-116481080D01*
X167234380Y-116453140D01*
X167264860Y-116435360D01*
X167275020Y-116399800D01*
X167292800Y-116323600D01*
X167313120Y-116222000D01*
X167338520Y-116100080D01*
X167341060Y-116079760D01*
X167363920Y-115960380D01*
X167381700Y-115861320D01*
X167396940Y-115792740D01*
X167404560Y-115764800D01*
X167419800Y-115762260D01*
X167478220Y-115757180D01*
X167567120Y-115754640D01*
X167676340Y-115754640D01*
X167788100Y-115754640D01*
X167897320Y-115757180D01*
X167991300Y-115759720D01*
X168059880Y-115764800D01*
X168087820Y-115769880D01*
X168087820Y-115772420D01*
X168097980Y-115810520D01*
X168115760Y-115884180D01*
X168136080Y-115988320D01*
X168158940Y-116110240D01*
X168164020Y-116133100D01*
X168186880Y-116249940D01*
X168207200Y-116349000D01*
X168219900Y-116415040D01*
X168227520Y-116442980D01*
X168240220Y-116448060D01*
X168288480Y-116468380D01*
X168367220Y-116501400D01*
X168466280Y-116542040D01*
X168694880Y-116633480D01*
X168976820Y-116442980D01*
X169002220Y-116425200D01*
X169103820Y-116356620D01*
X169185100Y-116300740D01*
X169243520Y-116262640D01*
X169266380Y-116249940D01*
X169268920Y-116249940D01*
X169296860Y-116275340D01*
X169352740Y-116328680D01*
X169428940Y-116402340D01*
X169517840Y-116488700D01*
X169581340Y-116554740D01*
X169660080Y-116633480D01*
X169708340Y-116686820D01*
X169736280Y-116719840D01*
X169743900Y-116740160D01*
X169741360Y-116755400D01*
X169723580Y-116783340D01*
X169682940Y-116844300D01*
X169624520Y-116930660D01*
X169555940Y-117029720D01*
X169500060Y-117113540D01*
X169439100Y-117207520D01*
X169401000Y-117273560D01*
X169385760Y-117306580D01*
X169390840Y-117319280D01*
X169408620Y-117375160D01*
X169444180Y-117458980D01*
X169484820Y-117558040D01*
X169583880Y-117779020D01*
X169728660Y-117806960D01*
X169817560Y-117824740D01*
X169939480Y-117847600D01*
X170058860Y-117870460D01*
X170241740Y-117906020D01*
X170249360Y-118581660D01*
X170221420Y-118594360D01*
X170193480Y-118601980D01*
X170124900Y-118617220D01*
X170028380Y-118637540D01*
X169911540Y-118657860D01*
X169815020Y-118675640D01*
X169715960Y-118695960D01*
X169644840Y-118708660D01*
X169614360Y-118716280D01*
X169604200Y-118726440D01*
X169581340Y-118774700D01*
X169545780Y-118850900D01*
X169505140Y-118942340D01*
X169467040Y-119036320D01*
X169431480Y-119125220D01*
X169408620Y-119191260D01*
X169398460Y-119224280D01*
X169411160Y-119252220D01*
X169449260Y-119310640D01*
X169502600Y-119391920D01*
X169571180Y-119490980D01*
X169637220Y-119587500D01*
X169695640Y-119671320D01*
X169733740Y-119732280D01*
X169751520Y-119760220D01*
X169741360Y-119778000D01*
X169703260Y-119826260D01*
X169629600Y-119902460D01*
X169517840Y-120011680D01*
X169500060Y-120029460D01*
X169413700Y-120113280D01*
X169340040Y-120181860D01*
X169286700Y-120227580D01*
X169263840Y-120245360D01*
G37*
X169263840Y-120245360D02*
X169238440Y-120230120D01*
X169180020Y-120194560D01*
X169096200Y-120138680D01*
X168997140Y-120072640D01*
X168898080Y-120006600D01*
X168816800Y-119953260D01*
X168760920Y-119915160D01*
X168735520Y-119902460D01*
X168722820Y-119907540D01*
X168677100Y-119930400D01*
X168608520Y-119965960D01*
X168567880Y-119986280D01*
X168506920Y-120011680D01*
X168473900Y-120019300D01*
X168468820Y-120009140D01*
X168445960Y-119960880D01*
X168410400Y-119879600D01*
X168364680Y-119770380D01*
X168308800Y-119643380D01*
X168252920Y-119508760D01*
X168194500Y-119369060D01*
X168138620Y-119234440D01*
X168090360Y-119115060D01*
X168049720Y-119018540D01*
X168024320Y-118949960D01*
X168014160Y-118922020D01*
X168016700Y-118914400D01*
X168049720Y-118883920D01*
X168103060Y-118843280D01*
X168222440Y-118746760D01*
X168339280Y-118601980D01*
X168410400Y-118436880D01*
X168433260Y-118251460D01*
X168412940Y-118081280D01*
X168346900Y-117918720D01*
X168232600Y-117771400D01*
X168092900Y-117662180D01*
X167930340Y-117593600D01*
X167750000Y-117570740D01*
X167577280Y-117591060D01*
X167409640Y-117657100D01*
X167262320Y-117768860D01*
X167198820Y-117839980D01*
X167112460Y-117989840D01*
X167064200Y-118147320D01*
X167059120Y-118187960D01*
X167066740Y-118363220D01*
X167117540Y-118533400D01*
X167211520Y-118683260D01*
X167341060Y-118807720D01*
X167356300Y-118817880D01*
X167414720Y-118863600D01*
X167455360Y-118894080D01*
X167485840Y-118919480D01*
X167262320Y-119457960D01*
X167226760Y-119541780D01*
X167165800Y-119689100D01*
X167112460Y-119816100D01*
X167069280Y-119917700D01*
X167038800Y-119983740D01*
X167026100Y-120011680D01*
X167026100Y-120014220D01*
X167005780Y-120016760D01*
X166965140Y-120001520D01*
X166888940Y-119965960D01*
X166840680Y-119940560D01*
X166782260Y-119912620D01*
X166756860Y-119902460D01*
X166734000Y-119915160D01*
X166680660Y-119950720D01*
X166599380Y-120004060D01*
X166502860Y-120067560D01*
X166411420Y-120131060D01*
X166327600Y-120186940D01*
X166266640Y-120225040D01*
X166236160Y-120242820D01*
X166231080Y-120242820D01*
X166205680Y-120227580D01*
X166157420Y-120186940D01*
X166083760Y-120118360D01*
X165979620Y-120014220D01*
X165964380Y-119998980D01*
X165878020Y-119912620D01*
X165809440Y-119838960D01*
X165763720Y-119788160D01*
X165745940Y-119765300D01*
X165761180Y-119734820D01*
X165799280Y-119673860D01*
X165855160Y-119587500D01*
X165923740Y-119488440D01*
X166101540Y-119229360D01*
X166005020Y-118985520D01*
X165974540Y-118909320D01*
X165936440Y-118820420D01*
X165908500Y-118754380D01*
X165893260Y-118726440D01*
X165867860Y-118716280D01*
X165799280Y-118701040D01*
X165702760Y-118680720D01*
X165588460Y-118660400D01*
X165476700Y-118640080D01*
X165377640Y-118619760D01*
X165306520Y-118607060D01*
X165273500Y-118599440D01*
X165265880Y-118594360D01*
X165258260Y-118579120D01*
X165255720Y-118546100D01*
X165253180Y-118485140D01*
X165250640Y-118391160D01*
X165250640Y-118251460D01*
X165250640Y-118236220D01*
X165253180Y-118106680D01*
X165255720Y-118000000D01*
X165258260Y-117933960D01*
X165263340Y-117906020D01*
X165293820Y-117898400D01*
X165364940Y-117883160D01*
X165464000Y-117865380D01*
X165583380Y-117842520D01*
X165591000Y-117839980D01*
X165707840Y-117817120D01*
X165806900Y-117796800D01*
X165878020Y-117781560D01*
X165905960Y-117771400D01*
X165913580Y-117763780D01*
X165936440Y-117718060D01*
X165969460Y-117644400D01*
X166010100Y-117555500D01*
X166048200Y-117461520D01*
X166081220Y-117377700D01*
X166104080Y-117316740D01*
X166111700Y-117288800D01*
X166109160Y-117286260D01*
X166091380Y-117258320D01*
X166050740Y-117197360D01*
X165994860Y-117113540D01*
X165926280Y-117011940D01*
X165921200Y-117004320D01*
X165852620Y-116905260D01*
X165796740Y-116818900D01*
X165761180Y-116760480D01*
X165745940Y-116732540D01*
X165745940Y-116730000D01*
X165768800Y-116699520D01*
X165819600Y-116643640D01*
X165893260Y-116567440D01*
X165979620Y-116478540D01*
X166007560Y-116453140D01*
X166106620Y-116356620D01*
X166172660Y-116295660D01*
X166215840Y-116262640D01*
X166236160Y-116255020D01*
X166266640Y-116272800D01*
X166330140Y-116313440D01*
X166413960Y-116371860D01*
X166515560Y-116440440D01*
X166523180Y-116445520D01*
X166622240Y-116514100D01*
X166706060Y-116569980D01*
X166764480Y-116610620D01*
X166792420Y-116625860D01*
X166794960Y-116625860D01*
X166835600Y-116613160D01*
X166906720Y-116587760D01*
X166995620Y-116554740D01*
X167087060Y-116516640D01*
X167170880Y-116481080D01*
X167234380Y-116453140D01*
X167264860Y-116435360D01*
X167275020Y-116399800D01*
X167292800Y-116323600D01*
X167313120Y-116222000D01*
X167338520Y-116100080D01*
X167341060Y-116079760D01*
X167363920Y-115960380D01*
X167381700Y-115861320D01*
X167396940Y-115792740D01*
X167404560Y-115764800D01*
X167419800Y-115762260D01*
X167478220Y-115757180D01*
X167567120Y-115754640D01*
X167676340Y-115754640D01*
X167788100Y-115754640D01*
X167897320Y-115757180D01*
X167991300Y-115759720D01*
X168059880Y-115764800D01*
X168087820Y-115769880D01*
X168087820Y-115772420D01*
X168097980Y-115810520D01*
X168115760Y-115884180D01*
X168136080Y-115988320D01*
X168158940Y-116110240D01*
X168164020Y-116133100D01*
X168186880Y-116249940D01*
X168207200Y-116349000D01*
X168219900Y-116415040D01*
X168227520Y-116442980D01*
X168240220Y-116448060D01*
X168288480Y-116468380D01*
X168367220Y-116501400D01*
X168466280Y-116542040D01*
X168694880Y-116633480D01*
X168976820Y-116442980D01*
X169002220Y-116425200D01*
X169103820Y-116356620D01*
X169185100Y-116300740D01*
X169243520Y-116262640D01*
X169266380Y-116249940D01*
X169268920Y-116249940D01*
X169296860Y-116275340D01*
X169352740Y-116328680D01*
X169428940Y-116402340D01*
X169517840Y-116488700D01*
X169581340Y-116554740D01*
X169660080Y-116633480D01*
X169708340Y-116686820D01*
X169736280Y-116719840D01*
X169743900Y-116740160D01*
X169741360Y-116755400D01*
X169723580Y-116783340D01*
X169682940Y-116844300D01*
X169624520Y-116930660D01*
X169555940Y-117029720D01*
X169500060Y-117113540D01*
X169439100Y-117207520D01*
X169401000Y-117273560D01*
X169385760Y-117306580D01*
X169390840Y-117319280D01*
X169408620Y-117375160D01*
X169444180Y-117458980D01*
X169484820Y-117558040D01*
X169583880Y-117779020D01*
X169728660Y-117806960D01*
X169817560Y-117824740D01*
X169939480Y-117847600D01*
X170058860Y-117870460D01*
X170241740Y-117906020D01*
X170249360Y-118581660D01*
X170221420Y-118594360D01*
X170193480Y-118601980D01*
X170124900Y-118617220D01*
X170028380Y-118637540D01*
X169911540Y-118657860D01*
X169815020Y-118675640D01*
X169715960Y-118695960D01*
X169644840Y-118708660D01*
X169614360Y-118716280D01*
X169604200Y-118726440D01*
X169581340Y-118774700D01*
X169545780Y-118850900D01*
X169505140Y-118942340D01*
X169467040Y-119036320D01*
X169431480Y-119125220D01*
X169408620Y-119191260D01*
X169398460Y-119224280D01*
X169411160Y-119252220D01*
X169449260Y-119310640D01*
X169502600Y-119391920D01*
X169571180Y-119490980D01*
X169637220Y-119587500D01*
X169695640Y-119671320D01*
X169733740Y-119732280D01*
X169751520Y-119760220D01*
X169741360Y-119778000D01*
X169703260Y-119826260D01*
X169629600Y-119902460D01*
X169517840Y-120011680D01*
X169500060Y-120029460D01*
X169413700Y-120113280D01*
X169340040Y-120181860D01*
X169286700Y-120227580D01*
X169263840Y-120245360D01*
D19*
X170390000Y-121040000D02*
X170340000Y-121080000D01*
X170410000Y-121010000D02*
X170390000Y-121040000D01*
X170430000Y-120950000D02*
X170410000Y-121010000D01*
X170430000Y-120750000D02*
X170430000Y-120950000D01*
X170210000Y-120660000D02*
X170260000Y-120620000D01*
X170190000Y-120690000D02*
X170210000Y-120660000D01*
X170170000Y-120750000D02*
X170190000Y-120690000D01*
X170170000Y-120950000D02*
X170170000Y-120750000D01*
X170190000Y-121020000D02*
X170170000Y-120950000D01*
X170210000Y-121050000D02*
X170190000Y-121020000D01*
X170260000Y-121080000D02*
X170210000Y-121050000D01*
X170340000Y-121080000D02*
X170260000Y-121080000D01*
X170400000Y-120680000D02*
X170430000Y-120750000D01*
X170380000Y-120650000D02*
X170400000Y-120680000D01*
X170340000Y-120620000D02*
X170380000Y-120650000D01*
X170260000Y-120620000D02*
X170340000Y-120620000D01*
X169950000Y-121320000D02*
X169950000Y-120620000D01*
X169900000Y-121080000D02*
X169950000Y-121050000D01*
X169800000Y-121080000D02*
X169900000Y-121080000D01*
X169760000Y-121050000D02*
X169800000Y-121080000D01*
X169740000Y-121020000D02*
X169760000Y-121050000D01*
X169720000Y-120960000D02*
X169740000Y-121020000D01*
X169720000Y-120740000D02*
X169720000Y-120960000D01*
X169740000Y-120680000D02*
X169720000Y-120740000D01*
X169770000Y-120650000D02*
X169740000Y-120680000D01*
X169810000Y-120620000D02*
X169770000Y-120650000D01*
X169910000Y-120620000D02*
X169810000Y-120620000D01*
X169950000Y-120650000D02*
X169910000Y-120620000D01*
X169360000Y-121080000D02*
X169310000Y-121050000D01*
X169460000Y-121080000D02*
X169360000Y-121080000D01*
X169500000Y-121050000D02*
X169460000Y-121080000D01*
X169520000Y-120980000D02*
X169500000Y-121050000D01*
X169520000Y-120710000D02*
X169520000Y-120980000D01*
X169490000Y-120650000D02*
X169520000Y-120710000D01*
X169450000Y-120620000D02*
X169490000Y-120650000D01*
X169350000Y-120620000D02*
X169450000Y-120620000D01*
X169310000Y-120660000D02*
X169350000Y-120620000D01*
X169290000Y-120730000D02*
X169310000Y-120660000D01*
X169290000Y-120850000D02*
X169290000Y-120730000D01*
X169070000Y-120620000D02*
X169070000Y-121080000D01*
X168860000Y-120710000D02*
X168860000Y-121080000D01*
X168880000Y-120650000D02*
X168860000Y-120710000D01*
X168920000Y-120620000D02*
X168880000Y-120650000D01*
X169010000Y-120620000D02*
X168920000Y-120620000D01*
X169050000Y-120650000D02*
X169010000Y-120620000D01*
X169070000Y-120680000D02*
X169050000Y-120650000D01*
X169290000Y-120850000D02*
X169520000Y-120850000D01*
X168240000Y-120380000D02*
X168240000Y-121080000D01*
X168030000Y-120710000D02*
X168030000Y-121080000D01*
X168050000Y-120650000D02*
X168030000Y-120710000D01*
X168090000Y-120620000D02*
X168050000Y-120650000D01*
X168170000Y-120620000D02*
X168090000Y-120620000D01*
X168220000Y-120650000D02*
X168170000Y-120620000D01*
X168240000Y-120690000D02*
X168220000Y-120650000D01*
X167570000Y-120710000D02*
X167570000Y-121080000D01*
X167600000Y-120650000D02*
X167570000Y-120710000D01*
X167640000Y-120620000D02*
X167600000Y-120650000D01*
X167740000Y-120620000D02*
X167640000Y-120620000D01*
X167790000Y-120650000D02*
X167740000Y-120620000D01*
X167730000Y-120810000D02*
X167780000Y-120840000D01*
X167610000Y-120810000D02*
X167730000Y-120810000D01*
X167570000Y-120780000D02*
X167610000Y-120810000D01*
X167620000Y-121080000D02*
X167570000Y-121040000D01*
X167740000Y-121080000D02*
X167620000Y-121080000D01*
X167790000Y-121040000D02*
X167740000Y-121080000D01*
X167810000Y-120980000D02*
X167790000Y-121040000D01*
X167810000Y-120910000D02*
X167810000Y-120980000D01*
X167780000Y-120840000D02*
X167810000Y-120910000D01*
X167330000Y-120620000D02*
X167330000Y-121080000D01*
X167240000Y-120620000D02*
X167190000Y-120620000D01*
X167290000Y-120650000D02*
X167240000Y-120620000D01*
X167310000Y-120670000D02*
X167290000Y-120650000D01*
X167330000Y-120740000D02*
X167310000Y-120670000D01*
X166810000Y-120380000D02*
X166810000Y-121080000D01*
X166870000Y-120610000D02*
X166810000Y-120650000D01*
X166940000Y-120610000D02*
X166870000Y-120610000D01*
X167000000Y-120650000D02*
X166940000Y-120610000D01*
X167020000Y-120680000D02*
X167000000Y-120650000D01*
X167050000Y-120750000D02*
X167020000Y-120680000D01*
X167050000Y-120950000D02*
X167050000Y-120750000D01*
X167020000Y-121020000D02*
X167050000Y-120950000D01*
X167000000Y-121050000D02*
X167020000Y-121020000D01*
X166960000Y-121080000D02*
X167000000Y-121050000D01*
X166850000Y-121080000D02*
X166960000Y-121080000D01*
X166810000Y-121050000D02*
X166850000Y-121080000D01*
X166330000Y-121080000D02*
X166230000Y-120620000D01*
X166430000Y-120740000D02*
X166330000Y-121080000D01*
X166520000Y-121080000D02*
X166430000Y-120740000D01*
X166620000Y-120620000D02*
X166520000Y-121080000D01*
X166040000Y-120840000D02*
X166070000Y-120910000D01*
X166070000Y-120910000D02*
X166070000Y-120980000D01*
X166070000Y-120980000D02*
X166050000Y-121040000D01*
X166050000Y-121040000D02*
X166000000Y-121080000D01*
X166000000Y-121080000D02*
X165880000Y-121080000D01*
X165880000Y-121080000D02*
X165830000Y-121040000D01*
X165830000Y-120780000D02*
X165870000Y-120810000D01*
X165870000Y-120810000D02*
X165990000Y-120810000D01*
X165990000Y-120810000D02*
X166040000Y-120840000D01*
X166050000Y-120650000D02*
X166000000Y-120620000D01*
X166000000Y-120620000D02*
X165900000Y-120620000D01*
X165900000Y-120620000D02*
X165860000Y-120650000D01*
X165860000Y-120650000D02*
X165830000Y-120710000D01*
X165830000Y-120710000D02*
X165830000Y-121080000D01*
X165080000Y-120850000D02*
X165310000Y-120850000D01*
X165080000Y-120850000D02*
X165080000Y-120730000D01*
X165080000Y-120730000D02*
X165100000Y-120660000D01*
X165100000Y-120660000D02*
X165140000Y-120620000D01*
X165140000Y-120620000D02*
X165240000Y-120620000D01*
X165240000Y-120620000D02*
X165280000Y-120650000D01*
X165280000Y-120650000D02*
X165310000Y-120710000D01*
X165310000Y-120710000D02*
X165310000Y-120980000D01*
X165310000Y-120980000D02*
X165290000Y-121050000D01*
X165290000Y-121050000D02*
X165250000Y-121080000D01*
X165250000Y-121080000D02*
X165150000Y-121080000D01*
X165150000Y-121080000D02*
X165100000Y-121050000D01*
X165590000Y-120740000D02*
X165570000Y-120670000D01*
X165570000Y-120670000D02*
X165550000Y-120650000D01*
X165550000Y-120650000D02*
X165500000Y-120620000D01*
X165500000Y-120620000D02*
X165450000Y-120620000D01*
X165590000Y-120620000D02*
X165590000Y-121080000D01*
D13*
%TO.C,C1*%
X160154000Y-131935241D02*
X159524000Y-131935241D01*
X159839000Y-132250241D02*
X159839000Y-131620241D01*
X158402000Y-125509000D02*
X157598000Y-125509000D01*
X158633000Y-125549000D02*
X157367000Y-125549000D01*
X158802000Y-125589000D02*
X157198000Y-125589000D01*
X158940000Y-125629000D02*
X157060000Y-125629000D01*
X159059000Y-125669000D02*
X156941000Y-125669000D01*
X159165000Y-125709000D02*
X156835000Y-125709000D01*
X159262000Y-125749000D02*
X156738000Y-125749000D01*
X159350000Y-125789000D02*
X156650000Y-125789000D01*
X159432000Y-125829000D02*
X156568000Y-125829000D01*
X159509000Y-125869000D02*
X156491000Y-125869000D01*
X159581000Y-125909000D02*
X156419000Y-125909000D01*
X159650000Y-125949000D02*
X156350000Y-125949000D01*
X159714000Y-125989000D02*
X156286000Y-125989000D01*
X159776000Y-126029000D02*
X156224000Y-126029000D01*
X159834000Y-126069000D02*
X156166000Y-126069000D01*
X159890000Y-126109000D02*
X156110000Y-126109000D01*
X159944000Y-126149000D02*
X156056000Y-126149000D01*
X159995000Y-126189000D02*
X156005000Y-126189000D01*
X160044000Y-126229000D02*
X155956000Y-126229000D01*
X160092000Y-126269000D02*
X155908000Y-126269000D01*
X160137000Y-126309000D02*
X155863000Y-126309000D01*
X160182000Y-126349000D02*
X155818000Y-126349000D01*
X160224000Y-126389000D02*
X155776000Y-126389000D01*
X160265000Y-126429000D02*
X155735000Y-126429000D01*
X156960000Y-126469000D02*
X155695000Y-126469000D01*
X160305000Y-126469000D02*
X159040000Y-126469000D01*
X156960000Y-126509000D02*
X155657000Y-126509000D01*
X160343000Y-126509000D02*
X159040000Y-126509000D01*
X156960000Y-126549000D02*
X155620000Y-126549000D01*
X160380000Y-126549000D02*
X159040000Y-126549000D01*
X156960000Y-126589000D02*
X155584000Y-126589000D01*
X160416000Y-126589000D02*
X159040000Y-126589000D01*
X156960000Y-126629000D02*
X155550000Y-126629000D01*
X160450000Y-126629000D02*
X159040000Y-126629000D01*
X156960000Y-126669000D02*
X155516000Y-126669000D01*
X160484000Y-126669000D02*
X159040000Y-126669000D01*
X156960000Y-126709000D02*
X155484000Y-126709000D01*
X160516000Y-126709000D02*
X159040000Y-126709000D01*
X156960000Y-126749000D02*
X155452000Y-126749000D01*
X160548000Y-126749000D02*
X159040000Y-126749000D01*
X156960000Y-126789000D02*
X155422000Y-126789000D01*
X160578000Y-126789000D02*
X159040000Y-126789000D01*
X156960000Y-126829000D02*
X155393000Y-126829000D01*
X160607000Y-126829000D02*
X159040000Y-126829000D01*
X156960000Y-126869000D02*
X155364000Y-126869000D01*
X160636000Y-126869000D02*
X159040000Y-126869000D01*
X156960000Y-126909000D02*
X155336000Y-126909000D01*
X160664000Y-126909000D02*
X159040000Y-126909000D01*
X156960000Y-126949000D02*
X155310000Y-126949000D01*
X160690000Y-126949000D02*
X159040000Y-126949000D01*
X156960000Y-126989000D02*
X155284000Y-126989000D01*
X160716000Y-126989000D02*
X159040000Y-126989000D01*
X156960000Y-127029000D02*
X155258000Y-127029000D01*
X160742000Y-127029000D02*
X159040000Y-127029000D01*
X156960000Y-127069000D02*
X155234000Y-127069000D01*
X160766000Y-127069000D02*
X159040000Y-127069000D01*
X156960000Y-127109000D02*
X155210000Y-127109000D01*
X160790000Y-127109000D02*
X159040000Y-127109000D01*
X156960000Y-127149000D02*
X155188000Y-127149000D01*
X160812000Y-127149000D02*
X159040000Y-127149000D01*
X156960000Y-127189000D02*
X155166000Y-127189000D01*
X160834000Y-127189000D02*
X159040000Y-127189000D01*
X156960000Y-127229000D02*
X155144000Y-127229000D01*
X160856000Y-127229000D02*
X159040000Y-127229000D01*
X156960000Y-127269000D02*
X155124000Y-127269000D01*
X160876000Y-127269000D02*
X159040000Y-127269000D01*
X156960000Y-127309000D02*
X155104000Y-127309000D01*
X160896000Y-127309000D02*
X159040000Y-127309000D01*
X156960000Y-127349000D02*
X155084000Y-127349000D01*
X160916000Y-127349000D02*
X159040000Y-127349000D01*
X156960000Y-127389000D02*
X155066000Y-127389000D01*
X160934000Y-127389000D02*
X159040000Y-127389000D01*
X156960000Y-127429000D02*
X155048000Y-127429000D01*
X160952000Y-127429000D02*
X159040000Y-127429000D01*
X156960000Y-127469000D02*
X155030000Y-127469000D01*
X160970000Y-127469000D02*
X159040000Y-127469000D01*
X156960000Y-127509000D02*
X155014000Y-127509000D01*
X160986000Y-127509000D02*
X159040000Y-127509000D01*
X156960000Y-127549000D02*
X154998000Y-127549000D01*
X161002000Y-127549000D02*
X159040000Y-127549000D01*
X156960000Y-127589000D02*
X154982000Y-127589000D01*
X161018000Y-127589000D02*
X159040000Y-127589000D01*
X156960000Y-127629000D02*
X154967000Y-127629000D01*
X161033000Y-127629000D02*
X159040000Y-127629000D01*
X156960000Y-127669000D02*
X154953000Y-127669000D01*
X161047000Y-127669000D02*
X159040000Y-127669000D01*
X156960000Y-127709000D02*
X154939000Y-127709000D01*
X161061000Y-127709000D02*
X159040000Y-127709000D01*
X156960000Y-127749000D02*
X154926000Y-127749000D01*
X161074000Y-127749000D02*
X159040000Y-127749000D01*
X156960000Y-127789000D02*
X154914000Y-127789000D01*
X161086000Y-127789000D02*
X159040000Y-127789000D01*
X156960000Y-127829000D02*
X154902000Y-127829000D01*
X161098000Y-127829000D02*
X159040000Y-127829000D01*
X156960000Y-127869000D02*
X154890000Y-127869000D01*
X161110000Y-127869000D02*
X159040000Y-127869000D01*
X156960000Y-127909000D02*
X154879000Y-127909000D01*
X161121000Y-127909000D02*
X159040000Y-127909000D01*
X156960000Y-127949000D02*
X154869000Y-127949000D01*
X161131000Y-127949000D02*
X159040000Y-127949000D01*
X156960000Y-127989000D02*
X154859000Y-127989000D01*
X161141000Y-127989000D02*
X159040000Y-127989000D01*
X156960000Y-128029000D02*
X154850000Y-128029000D01*
X161150000Y-128029000D02*
X159040000Y-128029000D01*
X156960000Y-128070000D02*
X154841000Y-128070000D01*
X161159000Y-128070000D02*
X159040000Y-128070000D01*
X156960000Y-128110000D02*
X154833000Y-128110000D01*
X161167000Y-128110000D02*
X159040000Y-128110000D01*
X156960000Y-128150000D02*
X154825000Y-128150000D01*
X161175000Y-128150000D02*
X159040000Y-128150000D01*
X156960000Y-128190000D02*
X154818000Y-128190000D01*
X161182000Y-128190000D02*
X159040000Y-128190000D01*
X156960000Y-128230000D02*
X154811000Y-128230000D01*
X161189000Y-128230000D02*
X159040000Y-128230000D01*
X156960000Y-128270000D02*
X154805000Y-128270000D01*
X161195000Y-128270000D02*
X159040000Y-128270000D01*
X156960000Y-128310000D02*
X154799000Y-128310000D01*
X161201000Y-128310000D02*
X159040000Y-128310000D01*
X156960000Y-128350000D02*
X154794000Y-128350000D01*
X161206000Y-128350000D02*
X159040000Y-128350000D01*
X156960000Y-128390000D02*
X154789000Y-128390000D01*
X161211000Y-128390000D02*
X159040000Y-128390000D01*
X156960000Y-128430000D02*
X154785000Y-128430000D01*
X161215000Y-128430000D02*
X159040000Y-128430000D01*
X156960000Y-128470000D02*
X154782000Y-128470000D01*
X161218000Y-128470000D02*
X159040000Y-128470000D01*
X156960000Y-128510000D02*
X154778000Y-128510000D01*
X161222000Y-128510000D02*
X159040000Y-128510000D01*
X161224000Y-128550000D02*
X154776000Y-128550000D01*
X161227000Y-128590000D02*
X154773000Y-128590000D01*
X161228000Y-128630000D02*
X154772000Y-128630000D01*
X161230000Y-128670000D02*
X154770000Y-128670000D01*
X161230000Y-128710000D02*
X154770000Y-128710000D01*
X161230000Y-128750000D02*
X154770000Y-128750000D01*
X161270000Y-128750000D02*
G75*
G03*
X161270000Y-128750000I-3270000J0D01*
G01*
%TO.C,C2*%
X140370000Y-126130000D02*
X137630000Y-126130000D01*
X140370000Y-131370000D02*
X137630000Y-131370000D01*
X137630000Y-131370000D02*
X137630000Y-126130000D01*
X140370000Y-131370000D02*
X140370000Y-126130000D01*
%TO.C,U1*%
X145850000Y-123670000D02*
X147500000Y-123670000D01*
X145850000Y-133950000D02*
X145850000Y-123670000D01*
X151150000Y-133950000D02*
X145850000Y-133950000D01*
X151150000Y-123670000D02*
X151150000Y-133950000D01*
X149500000Y-123670000D02*
X151150000Y-123670000D01*
X147500000Y-123670000D02*
G75*
G03*
X149500000Y-123670000I1000000J0D01*
G01*
%TO.C,JP1*%
X170400000Y-111300000D02*
X170400000Y-110700000D01*
X168300000Y-112000000D02*
X169700000Y-112000000D01*
X167600000Y-110700000D02*
X167600000Y-111300000D01*
X169700000Y-110000000D02*
X168300000Y-110000000D01*
X170400000Y-110700000D02*
G75*
G03*
X169700000Y-110000000I-700000J0D01*
G01*
X169700000Y-112000000D02*
G75*
G03*
X170400000Y-111300000I0J700000D01*
G01*
X167600000Y-111300000D02*
G75*
G03*
X168300000Y-112000000I700000J0D01*
G01*
X168300000Y-110000000D02*
G75*
G03*
X167600000Y-110700000I0J-700000D01*
G01*
%TD*%
D12*
%TO.C,D2*%
X156374600Y-81770000D02*
G75*
G03*
X156374600Y-81770000I-874600J0D01*
G01*
X156374600Y-79230000D02*
G75*
G03*
X156374600Y-79230000I-874600J0D01*
G01*
%TD*%
%TO.C,D1*%
X142374600Y-81770000D02*
G75*
G03*
X142374600Y-81770000I-874600J0D01*
G01*
X142374600Y-79230000D02*
G75*
G03*
X142374600Y-79230000I-874600J0D01*
G01*
%TD*%
%TO.C,BT1*%
X162724600Y-111000000D02*
G75*
G03*
X162724600Y-111000000I-1224600J0D01*
G01*
X135724600Y-111000000D02*
G75*
G03*
X135724600Y-111000000I-1224600J0D01*
G01*
X137924600Y-111000000D02*
G75*
G03*
X137924600Y-111000000I-1224600J0D01*
G01*
X157824600Y-111000000D02*
G75*
G03*
X157824600Y-111000000I-1224600J0D01*
G01*
%TD*%
%TO.C,SW1*%
D20*
X127950000Y-116864285D02*
X127821428Y-116907142D01*
X127607142Y-116907142D01*
X127521428Y-116864285D01*
X127478571Y-116821428D01*
X127435714Y-116735714D01*
X127435714Y-116650000D01*
X127478571Y-116564285D01*
X127521428Y-116521428D01*
X127607142Y-116478571D01*
X127778571Y-116435714D01*
X127864285Y-116392857D01*
X127907142Y-116350000D01*
X127950000Y-116264285D01*
X127950000Y-116178571D01*
X127907142Y-116092857D01*
X127864285Y-116050000D01*
X127778571Y-116007142D01*
X127564285Y-116007142D01*
X127435714Y-116050000D01*
X127135714Y-116007142D02*
X126921428Y-116907142D01*
X126750000Y-116264285D01*
X126578571Y-116907142D01*
X126364285Y-116007142D01*
X125550000Y-116907142D02*
X126064285Y-116907142D01*
X125807142Y-116907142D02*
X125807142Y-116007142D01*
X125892857Y-116135714D01*
X125978571Y-116221428D01*
X126064285Y-116264285D01*
%TO.C,R1*%
X142450000Y-87907142D02*
X142750000Y-87478571D01*
X142964285Y-87907142D02*
X142964285Y-87007142D01*
X142621428Y-87007142D01*
X142535714Y-87050000D01*
X142492857Y-87092857D01*
X142450000Y-87178571D01*
X142450000Y-87307142D01*
X142492857Y-87392857D01*
X142535714Y-87435714D01*
X142621428Y-87478571D01*
X142964285Y-87478571D01*
X141592857Y-87907142D02*
X142107142Y-87907142D01*
X141850000Y-87907142D02*
X141850000Y-87007142D01*
X141935714Y-87135714D01*
X142021428Y-87221428D01*
X142107142Y-87264285D01*
%TO.C,R2*%
X154850000Y-87907142D02*
X155150000Y-87478571D01*
X155364285Y-87907142D02*
X155364285Y-87007142D01*
X155021428Y-87007142D01*
X154935714Y-87050000D01*
X154892857Y-87092857D01*
X154850000Y-87178571D01*
X154850000Y-87307142D01*
X154892857Y-87392857D01*
X154935714Y-87435714D01*
X155021428Y-87478571D01*
X155364285Y-87478571D01*
X154507142Y-87092857D02*
X154464285Y-87050000D01*
X154378571Y-87007142D01*
X154164285Y-87007142D01*
X154078571Y-87050000D01*
X154035714Y-87092857D01*
X153992857Y-87178571D01*
X153992857Y-87264285D01*
X154035714Y-87392857D01*
X154550000Y-87907142D01*
X153992857Y-87907142D01*
%TO.C,R3*%
X148650000Y-87907142D02*
X148950000Y-87478571D01*
X149164285Y-87907142D02*
X149164285Y-87007142D01*
X148821428Y-87007142D01*
X148735714Y-87050000D01*
X148692857Y-87092857D01*
X148650000Y-87178571D01*
X148650000Y-87307142D01*
X148692857Y-87392857D01*
X148735714Y-87435714D01*
X148821428Y-87478571D01*
X149164285Y-87478571D01*
X148350000Y-87007142D02*
X147792857Y-87007142D01*
X148092857Y-87350000D01*
X147964285Y-87350000D01*
X147878571Y-87392857D01*
X147835714Y-87435714D01*
X147792857Y-87521428D01*
X147792857Y-87735714D01*
X147835714Y-87821428D01*
X147878571Y-87864285D01*
X147964285Y-87907142D01*
X148221428Y-87907142D01*
X148307142Y-87864285D01*
X148350000Y-87821428D01*
%TO.C,R4*%
X142650000Y-138907142D02*
X142950000Y-138478571D01*
X143164285Y-138907142D02*
X143164285Y-138007142D01*
X142821428Y-138007142D01*
X142735714Y-138050000D01*
X142692857Y-138092857D01*
X142650000Y-138178571D01*
X142650000Y-138307142D01*
X142692857Y-138392857D01*
X142735714Y-138435714D01*
X142821428Y-138478571D01*
X143164285Y-138478571D01*
X141878571Y-138307142D02*
X141878571Y-138907142D01*
X142092857Y-137964285D02*
X142307142Y-138607142D01*
X141750000Y-138607142D01*
%TO.C,R5*%
X165650000Y-105657142D02*
X165950000Y-105228571D01*
X166164285Y-105657142D02*
X166164285Y-104757142D01*
X165821428Y-104757142D01*
X165735714Y-104800000D01*
X165692857Y-104842857D01*
X165650000Y-104928571D01*
X165650000Y-105057142D01*
X165692857Y-105142857D01*
X165735714Y-105185714D01*
X165821428Y-105228571D01*
X166164285Y-105228571D01*
X164835714Y-104757142D02*
X165264285Y-104757142D01*
X165307142Y-105185714D01*
X165264285Y-105142857D01*
X165178571Y-105100000D01*
X164964285Y-105100000D01*
X164878571Y-105142857D01*
X164835714Y-105185714D01*
X164792857Y-105271428D01*
X164792857Y-105485714D01*
X164835714Y-105571428D01*
X164878571Y-105614285D01*
X164964285Y-105657142D01*
X165178571Y-105657142D01*
X165264285Y-105614285D01*
X165307142Y-105571428D01*
%TO.C,R6*%
X142650000Y-135907142D02*
X142950000Y-135478571D01*
X143164285Y-135907142D02*
X143164285Y-135007142D01*
X142821428Y-135007142D01*
X142735714Y-135050000D01*
X142692857Y-135092857D01*
X142650000Y-135178571D01*
X142650000Y-135307142D01*
X142692857Y-135392857D01*
X142735714Y-135435714D01*
X142821428Y-135478571D01*
X143164285Y-135478571D01*
X141878571Y-135007142D02*
X142050000Y-135007142D01*
X142135714Y-135050000D01*
X142178571Y-135092857D01*
X142264285Y-135221428D01*
X142307142Y-135392857D01*
X142307142Y-135735714D01*
X142264285Y-135821428D01*
X142221428Y-135864285D01*
X142135714Y-135907142D01*
X141964285Y-135907142D01*
X141878571Y-135864285D01*
X141835714Y-135821428D01*
X141792857Y-135735714D01*
X141792857Y-135521428D01*
X141835714Y-135435714D01*
X141878571Y-135392857D01*
X141964285Y-135350000D01*
X142135714Y-135350000D01*
X142221428Y-135392857D01*
X142264285Y-135435714D01*
X142307142Y-135521428D01*
%TO.C,Q1*%
X151585714Y-93492857D02*
X151671428Y-93450000D01*
X151757142Y-93364285D01*
X151885714Y-93235714D01*
X151971428Y-93192857D01*
X152057142Y-93192857D01*
X152014285Y-93407142D02*
X152100000Y-93364285D01*
X152185714Y-93278571D01*
X152228571Y-93107142D01*
X152228571Y-92807142D01*
X152185714Y-92635714D01*
X152100000Y-92550000D01*
X152014285Y-92507142D01*
X151842857Y-92507142D01*
X151757142Y-92550000D01*
X151671428Y-92635714D01*
X151628571Y-92807142D01*
X151628571Y-93107142D01*
X151671428Y-93278571D01*
X151757142Y-93364285D01*
X151842857Y-93407142D01*
X152014285Y-93407142D01*
X150771428Y-93407142D02*
X151285714Y-93407142D01*
X151028571Y-93407142D02*
X151028571Y-92507142D01*
X151114285Y-92635714D01*
X151200000Y-92721428D01*
X151285714Y-92764285D01*
%TO.C,D2*%
X152414285Y-80907142D02*
X152414285Y-80007142D01*
X152200000Y-80007142D01*
X152071428Y-80050000D01*
X151985714Y-80135714D01*
X151942857Y-80221428D01*
X151900000Y-80392857D01*
X151900000Y-80521428D01*
X151942857Y-80692857D01*
X151985714Y-80778571D01*
X152071428Y-80864285D01*
X152200000Y-80907142D01*
X152414285Y-80907142D01*
X151557142Y-80092857D02*
X151514285Y-80050000D01*
X151428571Y-80007142D01*
X151214285Y-80007142D01*
X151128571Y-80050000D01*
X151085714Y-80092857D01*
X151042857Y-80178571D01*
X151042857Y-80264285D01*
X151085714Y-80392857D01*
X151600000Y-80907142D01*
X151042857Y-80907142D01*
X152402380Y-79523809D02*
X152288095Y-79561904D01*
X152097619Y-79561904D01*
X152021428Y-79523809D01*
X151983333Y-79485714D01*
X151945238Y-79409523D01*
X151945238Y-79333333D01*
X151983333Y-79257142D01*
X152021428Y-79219047D01*
X152097619Y-79180952D01*
X152250000Y-79142857D01*
X152326190Y-79104761D01*
X152364285Y-79066666D01*
X152402380Y-78990476D01*
X152402380Y-78914285D01*
X152364285Y-78838095D01*
X152326190Y-78800000D01*
X152250000Y-78761904D01*
X152059523Y-78761904D01*
X151945238Y-78800000D01*
X151602380Y-79561904D02*
X151602380Y-78761904D01*
X151602380Y-79142857D02*
X151145238Y-79142857D01*
X151145238Y-79561904D02*
X151145238Y-78761904D01*
X150307142Y-79561904D02*
X150573809Y-79180952D01*
X150764285Y-79561904D02*
X150764285Y-78761904D01*
X150459523Y-78761904D01*
X150383333Y-78800000D01*
X150345238Y-78838095D01*
X150307142Y-78914285D01*
X150307142Y-79028571D01*
X150345238Y-79104761D01*
X150383333Y-79142857D01*
X150459523Y-79180952D01*
X150764285Y-79180952D01*
X150078571Y-78761904D02*
X149621428Y-78761904D01*
X149850000Y-79561904D02*
X149850000Y-78761904D01*
X152040476Y-82261904D02*
X152421428Y-82261904D01*
X152421428Y-81461904D01*
X151621428Y-81461904D02*
X151469047Y-81461904D01*
X151392857Y-81500000D01*
X151316666Y-81576190D01*
X151278571Y-81728571D01*
X151278571Y-81995238D01*
X151316666Y-82147619D01*
X151392857Y-82223809D01*
X151469047Y-82261904D01*
X151621428Y-82261904D01*
X151697619Y-82223809D01*
X151773809Y-82147619D01*
X151811904Y-81995238D01*
X151811904Y-81728571D01*
X151773809Y-81576190D01*
X151697619Y-81500000D01*
X151621428Y-81461904D01*
X150935714Y-82261904D02*
X150935714Y-81461904D01*
X150478571Y-82261904D01*
X150478571Y-81461904D01*
X149678571Y-81500000D02*
X149754761Y-81461904D01*
X149869047Y-81461904D01*
X149983333Y-81500000D01*
X150059523Y-81576190D01*
X150097619Y-81652380D01*
X150135714Y-81804761D01*
X150135714Y-81919047D01*
X150097619Y-82071428D01*
X150059523Y-82147619D01*
X149983333Y-82223809D01*
X149869047Y-82261904D01*
X149792857Y-82261904D01*
X149678571Y-82223809D01*
X149640476Y-82185714D01*
X149640476Y-81919047D01*
X149792857Y-81919047D01*
%TO.C,D1*%
X145864285Y-80907142D02*
X145864285Y-80007142D01*
X145650000Y-80007142D01*
X145521428Y-80050000D01*
X145435714Y-80135714D01*
X145392857Y-80221428D01*
X145350000Y-80392857D01*
X145350000Y-80521428D01*
X145392857Y-80692857D01*
X145435714Y-80778571D01*
X145521428Y-80864285D01*
X145650000Y-80907142D01*
X145864285Y-80907142D01*
X144492857Y-80907142D02*
X145007142Y-80907142D01*
X144750000Y-80907142D02*
X144750000Y-80007142D01*
X144835714Y-80135714D01*
X144921428Y-80221428D01*
X145007142Y-80264285D01*
X147252380Y-79523809D02*
X147138095Y-79561904D01*
X146947619Y-79561904D01*
X146871428Y-79523809D01*
X146833333Y-79485714D01*
X146795238Y-79409523D01*
X146795238Y-79333333D01*
X146833333Y-79257142D01*
X146871428Y-79219047D01*
X146947619Y-79180952D01*
X147100000Y-79142857D01*
X147176190Y-79104761D01*
X147214285Y-79066666D01*
X147252380Y-78990476D01*
X147252380Y-78914285D01*
X147214285Y-78838095D01*
X147176190Y-78800000D01*
X147100000Y-78761904D01*
X146909523Y-78761904D01*
X146795238Y-78800000D01*
X146452380Y-79561904D02*
X146452380Y-78761904D01*
X146452380Y-79142857D02*
X145995238Y-79142857D01*
X145995238Y-79561904D02*
X145995238Y-78761904D01*
X145157142Y-79561904D02*
X145423809Y-79180952D01*
X145614285Y-79561904D02*
X145614285Y-78761904D01*
X145309523Y-78761904D01*
X145233333Y-78800000D01*
X145195238Y-78838095D01*
X145157142Y-78914285D01*
X145157142Y-79028571D01*
X145195238Y-79104761D01*
X145233333Y-79142857D01*
X145309523Y-79180952D01*
X145614285Y-79180952D01*
X144928571Y-78761904D02*
X144471428Y-78761904D01*
X144700000Y-79561904D02*
X144700000Y-78761904D01*
X146890476Y-82261904D02*
X147271428Y-82261904D01*
X147271428Y-81461904D01*
X146471428Y-81461904D02*
X146319047Y-81461904D01*
X146242857Y-81500000D01*
X146166666Y-81576190D01*
X146128571Y-81728571D01*
X146128571Y-81995238D01*
X146166666Y-82147619D01*
X146242857Y-82223809D01*
X146319047Y-82261904D01*
X146471428Y-82261904D01*
X146547619Y-82223809D01*
X146623809Y-82147619D01*
X146661904Y-81995238D01*
X146661904Y-81728571D01*
X146623809Y-81576190D01*
X146547619Y-81500000D01*
X146471428Y-81461904D01*
X145785714Y-82261904D02*
X145785714Y-81461904D01*
X145328571Y-82261904D01*
X145328571Y-81461904D01*
X144528571Y-81500000D02*
X144604761Y-81461904D01*
X144719047Y-81461904D01*
X144833333Y-81500000D01*
X144909523Y-81576190D01*
X144947619Y-81652380D01*
X144985714Y-81804761D01*
X144985714Y-81919047D01*
X144947619Y-82071428D01*
X144909523Y-82147619D01*
X144833333Y-82223809D01*
X144719047Y-82261904D01*
X144642857Y-82261904D01*
X144528571Y-82223809D01*
X144490476Y-82185714D01*
X144490476Y-81919047D01*
X144642857Y-81919047D01*
%TO.C,BT1*%
X134435714Y-107592857D02*
X134478571Y-107721428D01*
X134521428Y-107764285D01*
X134607142Y-107807142D01*
X134735714Y-107807142D01*
X134821428Y-107764285D01*
X134864285Y-107721428D01*
X134907142Y-107635714D01*
X134907142Y-107292857D01*
X134007142Y-107292857D01*
X134007142Y-107592857D01*
X134050000Y-107678571D01*
X134092857Y-107721428D01*
X134178571Y-107764285D01*
X134264285Y-107764285D01*
X134350000Y-107721428D01*
X134392857Y-107678571D01*
X134435714Y-107592857D01*
X134435714Y-107292857D01*
X134007142Y-108064285D02*
X134007142Y-108578571D01*
X134907142Y-108321428D02*
X134007142Y-108321428D01*
X134907142Y-109350000D02*
X134907142Y-108835714D01*
X134907142Y-109092857D02*
X134007142Y-109092857D01*
X134135714Y-109007142D01*
X134221428Y-108921428D01*
X134264285Y-108835714D01*
%TO.C,C1*%
X158150000Y-133321428D02*
X158192857Y-133364285D01*
X158321428Y-133407142D01*
X158407142Y-133407142D01*
X158535714Y-133364285D01*
X158621428Y-133278571D01*
X158664285Y-133192857D01*
X158707142Y-133021428D01*
X158707142Y-132892857D01*
X158664285Y-132721428D01*
X158621428Y-132635714D01*
X158535714Y-132550000D01*
X158407142Y-132507142D01*
X158321428Y-132507142D01*
X158192857Y-132550000D01*
X158150000Y-132592857D01*
X157292857Y-133407142D02*
X157807142Y-133407142D01*
X157550000Y-133407142D02*
X157550000Y-132507142D01*
X157635714Y-132635714D01*
X157721428Y-132721428D01*
X157807142Y-132764285D01*
%TO.C,C2*%
X139150000Y-132821428D02*
X139192857Y-132864285D01*
X139321428Y-132907142D01*
X139407142Y-132907142D01*
X139535714Y-132864285D01*
X139621428Y-132778571D01*
X139664285Y-132692857D01*
X139707142Y-132521428D01*
X139707142Y-132392857D01*
X139664285Y-132221428D01*
X139621428Y-132135714D01*
X139535714Y-132050000D01*
X139407142Y-132007142D01*
X139321428Y-132007142D01*
X139192857Y-132050000D01*
X139150000Y-132092857D01*
X138807142Y-132092857D02*
X138764285Y-132050000D01*
X138678571Y-132007142D01*
X138464285Y-132007142D01*
X138378571Y-132050000D01*
X138335714Y-132092857D01*
X138292857Y-132178571D01*
X138292857Y-132264285D01*
X138335714Y-132392857D01*
X138850000Y-132907142D01*
X138292857Y-132907142D01*
%TO.C,U1*%
X155185714Y-124507142D02*
X155185714Y-125235714D01*
X155142857Y-125321428D01*
X155100000Y-125364285D01*
X155014285Y-125407142D01*
X154842857Y-125407142D01*
X154757142Y-125364285D01*
X154714285Y-125321428D01*
X154671428Y-125235714D01*
X154671428Y-124507142D01*
X153771428Y-125407142D02*
X154285714Y-125407142D01*
X154028571Y-125407142D02*
X154028571Y-124507142D01*
X154114285Y-124635714D01*
X154200000Y-124721428D01*
X154285714Y-124764285D01*
%TO.C,JP1*%
X169833333Y-104702380D02*
X169833333Y-105416666D01*
X169880952Y-105559523D01*
X169976190Y-105654761D01*
X170119047Y-105702380D01*
X170214285Y-105702380D01*
X169357142Y-105702380D02*
X169357142Y-104702380D01*
X168976190Y-104702380D01*
X168880952Y-104750000D01*
X168833333Y-104797619D01*
X168785714Y-104892857D01*
X168785714Y-105035714D01*
X168833333Y-105130952D01*
X168880952Y-105178571D01*
X168976190Y-105226190D01*
X169357142Y-105226190D01*
X167833333Y-105702380D02*
X168404761Y-105702380D01*
X168119047Y-105702380D02*
X168119047Y-104702380D01*
X168214285Y-104845238D01*
X168309523Y-104940476D01*
X168404761Y-104988095D01*
%TO.C,M1*%
X149228571Y-97907142D02*
X149228571Y-97007142D01*
X148928571Y-97650000D01*
X148628571Y-97007142D01*
X148628571Y-97907142D01*
X147728571Y-97907142D02*
X148242857Y-97907142D01*
X147985714Y-97907142D02*
X147985714Y-97007142D01*
X148071428Y-97135714D01*
X148157142Y-97221428D01*
X148242857Y-97264285D01*
X152685714Y-99207142D02*
X152900000Y-99207142D01*
X152900000Y-97921428D01*
X152685714Y-97921428D01*
X152342857Y-98564285D02*
X151657142Y-98564285D01*
X152000000Y-98907142D02*
X152000000Y-98221428D01*
X151314285Y-99207142D02*
X151100000Y-99207142D01*
X151100000Y-97921428D01*
X151314285Y-97921428D01*
X145685714Y-99207142D02*
X145900000Y-99207142D01*
X145900000Y-97921428D01*
X145685714Y-97921428D01*
X145342857Y-98564285D02*
X144657142Y-98564285D01*
X144314285Y-99207142D02*
X144100000Y-99207142D01*
X144100000Y-97921428D01*
X144314285Y-97921428D01*
%TD*%
%LPC*%
D21*
%TO.C,SW1*%
X125950000Y-108500000D03*
X125950000Y-111000000D03*
X125950000Y-113500000D03*
X129250000Y-108500000D03*
X129250000Y-111000000D03*
G36*
G01*
X129950000Y-114400000D02*
X128550000Y-114400000D01*
G75*
G02*
X128350000Y-114200000I0J200000D01*
G01*
X128350000Y-112800000D01*
G75*
G02*
X128550000Y-112600000I200000J0D01*
G01*
X129950000Y-112600000D01*
G75*
G02*
X130150000Y-112800000I0J-200000D01*
G01*
X130150000Y-114200000D01*
G75*
G02*
X129950000Y-114400000I-200000J0D01*
G01*
G37*
%TD*%
%TO.C,R1*%
G36*
G01*
X140725000Y-87950000D02*
X139275000Y-87950000D01*
G75*
G02*
X139075000Y-87750000I0J200000D01*
G01*
X139075000Y-86750000D01*
G75*
G02*
X139275000Y-86550000I200000J0D01*
G01*
X140725000Y-86550000D01*
G75*
G02*
X140925000Y-86750000I0J-200000D01*
G01*
X140925000Y-87750000D01*
G75*
G02*
X140725000Y-87950000I-200000J0D01*
G01*
G37*
G36*
G01*
X140725000Y-89850000D02*
X139275000Y-89850000D01*
G75*
G02*
X139075000Y-89650000I0J200000D01*
G01*
X139075000Y-88650000D01*
G75*
G02*
X139275000Y-88450000I200000J0D01*
G01*
X140725000Y-88450000D01*
G75*
G02*
X140925000Y-88650000I0J-200000D01*
G01*
X140925000Y-89650000D01*
G75*
G02*
X140725000Y-89850000I-200000J0D01*
G01*
G37*
D22*
X140000000Y-84136000D03*
X140000000Y-92264000D03*
%TD*%
%TO.C,R2*%
G36*
G01*
X157725000Y-88250000D02*
X156275000Y-88250000D01*
G75*
G02*
X156075000Y-88050000I0J200000D01*
G01*
X156075000Y-87050000D01*
G75*
G02*
X156275000Y-86850000I200000J0D01*
G01*
X157725000Y-86850000D01*
G75*
G02*
X157925000Y-87050000I0J-200000D01*
G01*
X157925000Y-88050000D01*
G75*
G02*
X157725000Y-88250000I-200000J0D01*
G01*
G37*
G36*
G01*
X157725000Y-90150000D02*
X156275000Y-90150000D01*
G75*
G02*
X156075000Y-89950000I0J200000D01*
G01*
X156075000Y-88950000D01*
G75*
G02*
X156275000Y-88750000I200000J0D01*
G01*
X157725000Y-88750000D01*
G75*
G02*
X157925000Y-88950000I0J-200000D01*
G01*
X157925000Y-89950000D01*
G75*
G02*
X157725000Y-90150000I-200000J0D01*
G01*
G37*
X157000000Y-84436000D03*
X157000000Y-92564000D03*
%TD*%
%TO.C,R3*%
G36*
G01*
X148250000Y-88775000D02*
X148250000Y-90225000D01*
G75*
G02*
X148050000Y-90425000I-200000J0D01*
G01*
X147050000Y-90425000D01*
G75*
G02*
X146850000Y-90225000I0J200000D01*
G01*
X146850000Y-88775000D01*
G75*
G02*
X147050000Y-88575000I200000J0D01*
G01*
X148050000Y-88575000D01*
G75*
G02*
X148250000Y-88775000I0J-200000D01*
G01*
G37*
G36*
G01*
X150150000Y-88775000D02*
X150150000Y-90225000D01*
G75*
G02*
X149950000Y-90425000I-200000J0D01*
G01*
X148950000Y-90425000D01*
G75*
G02*
X148750000Y-90225000I0J200000D01*
G01*
X148750000Y-88775000D01*
G75*
G02*
X148950000Y-88575000I200000J0D01*
G01*
X149950000Y-88575000D01*
G75*
G02*
X150150000Y-88775000I0J-200000D01*
G01*
G37*
X144436000Y-89500000D03*
X152564000Y-89500000D03*
%TD*%
%TO.C,R4*%
G36*
G01*
X148750000Y-139725000D02*
X148750000Y-138275000D01*
G75*
G02*
X148950000Y-138075000I200000J0D01*
G01*
X149950000Y-138075000D01*
G75*
G02*
X150150000Y-138275000I0J-200000D01*
G01*
X150150000Y-139725000D01*
G75*
G02*
X149950000Y-139925000I-200000J0D01*
G01*
X148950000Y-139925000D01*
G75*
G02*
X148750000Y-139725000I0J200000D01*
G01*
G37*
G36*
G01*
X146850000Y-139725000D02*
X146850000Y-138275000D01*
G75*
G02*
X147050000Y-138075000I200000J0D01*
G01*
X148050000Y-138075000D01*
G75*
G02*
X148250000Y-138275000I0J-200000D01*
G01*
X148250000Y-139725000D01*
G75*
G02*
X148050000Y-139925000I-200000J0D01*
G01*
X147050000Y-139925000D01*
G75*
G02*
X146850000Y-139725000I0J200000D01*
G01*
G37*
X152564000Y-139000000D03*
X144436000Y-139000000D03*
%TD*%
%TO.C,R5*%
G36*
G01*
X166225000Y-110750000D02*
X164775000Y-110750000D01*
G75*
G02*
X164575000Y-110550000I0J200000D01*
G01*
X164575000Y-109550000D01*
G75*
G02*
X164775000Y-109350000I200000J0D01*
G01*
X166225000Y-109350000D01*
G75*
G02*
X166425000Y-109550000I0J-200000D01*
G01*
X166425000Y-110550000D01*
G75*
G02*
X166225000Y-110750000I-200000J0D01*
G01*
G37*
G36*
G01*
X166225000Y-112650000D02*
X164775000Y-112650000D01*
G75*
G02*
X164575000Y-112450000I0J200000D01*
G01*
X164575000Y-111450000D01*
G75*
G02*
X164775000Y-111250000I200000J0D01*
G01*
X166225000Y-111250000D01*
G75*
G02*
X166425000Y-111450000I0J-200000D01*
G01*
X166425000Y-112450000D01*
G75*
G02*
X166225000Y-112650000I-200000J0D01*
G01*
G37*
X165500000Y-106936000D03*
X165500000Y-115064000D03*
%TD*%
%TO.C,R6*%
G36*
G01*
X148250000Y-135275000D02*
X148250000Y-136725000D01*
G75*
G02*
X148050000Y-136925000I-200000J0D01*
G01*
X147050000Y-136925000D01*
G75*
G02*
X146850000Y-136725000I0J200000D01*
G01*
X146850000Y-135275000D01*
G75*
G02*
X147050000Y-135075000I200000J0D01*
G01*
X148050000Y-135075000D01*
G75*
G02*
X148250000Y-135275000I0J-200000D01*
G01*
G37*
G36*
G01*
X150150000Y-135275000D02*
X150150000Y-136725000D01*
G75*
G02*
X149950000Y-136925000I-200000J0D01*
G01*
X148950000Y-136925000D01*
G75*
G02*
X148750000Y-136725000I0J200000D01*
G01*
X148750000Y-135275000D01*
G75*
G02*
X148950000Y-135075000I200000J0D01*
G01*
X149950000Y-135075000D01*
G75*
G02*
X150150000Y-135275000I0J-200000D01*
G01*
G37*
X144436000Y-136000000D03*
X152564000Y-136000000D03*
%TD*%
%TO.C,Q1*%
G36*
G01*
X151990000Y-94250000D02*
X151990000Y-95750000D01*
G75*
G02*
X151790000Y-95950000I-200000J0D01*
G01*
X150290000Y-95950000D01*
G75*
G02*
X150090000Y-95750000I0J200000D01*
G01*
X150090000Y-94250000D01*
G75*
G02*
X150290000Y-94050000I200000J0D01*
G01*
X151790000Y-94050000D01*
G75*
G02*
X151990000Y-94250000I0J-200000D01*
G01*
G37*
D23*
X145960000Y-95000000D03*
X148500000Y-92460000D03*
%TD*%
D24*
%TO.C,D2*%
X155500000Y-81770000D03*
X155500000Y-79230000D03*
%TD*%
%TO.C,D1*%
X141500000Y-81770000D03*
X141500000Y-79230000D03*
%TD*%
D25*
%TO.C,BT1*%
X161500000Y-111000000D03*
X134500000Y-111000000D03*
X136700000Y-111000000D03*
X156600000Y-111000000D03*
%TD*%
D22*
%TO.C,C1*%
X158000000Y-127500000D03*
G36*
G01*
X158800000Y-131000000D02*
X157200000Y-131000000D01*
G75*
G02*
X157000000Y-130800000I0J200000D01*
G01*
X157000000Y-129200000D01*
G75*
G02*
X157200000Y-129000000I200000J0D01*
G01*
X158800000Y-129000000D01*
G75*
G02*
X159000000Y-129200000I0J-200000D01*
G01*
X159000000Y-130800000D01*
G75*
G02*
X158800000Y-131000000I-200000J0D01*
G01*
G37*
%TD*%
%TO.C,C2*%
X139000000Y-127500000D03*
X139000000Y-130000000D03*
%TD*%
D26*
%TO.C,U1*%
X144690000Y-125000000D03*
X152310000Y-132620000D03*
X144690000Y-127540000D03*
X152310000Y-130080000D03*
X144690000Y-130080000D03*
X152310000Y-127540000D03*
X144690000Y-132620000D03*
G36*
G01*
X153310000Y-124200000D02*
X153310000Y-125800000D01*
G75*
G02*
X153110000Y-126000000I-200000J0D01*
G01*
X151510000Y-126000000D01*
G75*
G02*
X151310000Y-125800000I0J200000D01*
G01*
X151310000Y-124200000D01*
G75*
G02*
X151510000Y-124000000I200000J0D01*
G01*
X153110000Y-124000000D01*
G75*
G02*
X153310000Y-124200000I0J-200000D01*
G01*
G37*
%TD*%
D27*
%TO.C,P2*%
X148500000Y-75500000D03*
%TD*%
D28*
%TO.C,P3*%
X137500000Y-120000000D03*
%TD*%
%TO.C,P4*%
X137500000Y-93000000D03*
%TD*%
%TO.C,P5*%
X159500000Y-120000000D03*
%TD*%
%TO.C,P6*%
X159500000Y-93000000D03*
%TD*%
%TO.C,P7*%
X137500000Y-105000000D03*
%TD*%
%TO.C,P8*%
X159500000Y-105000000D03*
%TD*%
D12*
%TO.C,JP1*%
G36*
X169110982Y-111946157D02*
G01*
X169073463Y-111934776D01*
X169038886Y-111916294D01*
X169008579Y-111891421D01*
X168983706Y-111861114D01*
X168965224Y-111826537D01*
X168953843Y-111789018D01*
X168950000Y-111750000D01*
X168950000Y-110250000D01*
X168953843Y-110210982D01*
X168965224Y-110173463D01*
X168983706Y-110138886D01*
X169008579Y-110108579D01*
X169038886Y-110083706D01*
X169073463Y-110065224D01*
X169110982Y-110053843D01*
X169150000Y-110050000D01*
X169650000Y-110050000D01*
X169656112Y-110050602D01*
X169674534Y-110050602D01*
X169694140Y-110051565D01*
X169742971Y-110056375D01*
X169762380Y-110059254D01*
X169810505Y-110068826D01*
X169829548Y-110073596D01*
X169876503Y-110087840D01*
X169894980Y-110094451D01*
X169940313Y-110113228D01*
X169958061Y-110121623D01*
X170001334Y-110144754D01*
X170018162Y-110154840D01*
X170058961Y-110182100D01*
X170074730Y-110193795D01*
X170112659Y-110224923D01*
X170127200Y-110238103D01*
X170161897Y-110272800D01*
X170175077Y-110287341D01*
X170206205Y-110325270D01*
X170217900Y-110341039D01*
X170245160Y-110381838D01*
X170255246Y-110398666D01*
X170278377Y-110441939D01*
X170286772Y-110459687D01*
X170305549Y-110505020D01*
X170312160Y-110523497D01*
X170326404Y-110570452D01*
X170331174Y-110589495D01*
X170340746Y-110637620D01*
X170343625Y-110657029D01*
X170348435Y-110705860D01*
X170349398Y-110725466D01*
X170349398Y-110743888D01*
X170350000Y-110750000D01*
X170350000Y-111250000D01*
X170349398Y-111256112D01*
X170349398Y-111274534D01*
X170348435Y-111294140D01*
X170343625Y-111342971D01*
X170340746Y-111362380D01*
X170331174Y-111410505D01*
X170326404Y-111429548D01*
X170312160Y-111476503D01*
X170305549Y-111494980D01*
X170286772Y-111540313D01*
X170278377Y-111558061D01*
X170255246Y-111601334D01*
X170245160Y-111618162D01*
X170217900Y-111658961D01*
X170206205Y-111674730D01*
X170175077Y-111712659D01*
X170161897Y-111727200D01*
X170127200Y-111761897D01*
X170112659Y-111775077D01*
X170074730Y-111806205D01*
X170058961Y-111817900D01*
X170018162Y-111845160D01*
X170001334Y-111855246D01*
X169958061Y-111878377D01*
X169940313Y-111886772D01*
X169894980Y-111905549D01*
X169876503Y-111912160D01*
X169829548Y-111926404D01*
X169810505Y-111931174D01*
X169762380Y-111940746D01*
X169742971Y-111943625D01*
X169694140Y-111948435D01*
X169674534Y-111949398D01*
X169656112Y-111949398D01*
X169650000Y-111950000D01*
X169150000Y-111950000D01*
X169110982Y-111946157D01*
G37*
G36*
X168343888Y-111949398D02*
G01*
X168325466Y-111949398D01*
X168305860Y-111948435D01*
X168257029Y-111943625D01*
X168237620Y-111940746D01*
X168189495Y-111931174D01*
X168170452Y-111926404D01*
X168123497Y-111912160D01*
X168105020Y-111905549D01*
X168059687Y-111886772D01*
X168041939Y-111878377D01*
X167998666Y-111855246D01*
X167981838Y-111845160D01*
X167941039Y-111817900D01*
X167925270Y-111806205D01*
X167887341Y-111775077D01*
X167872800Y-111761897D01*
X167838103Y-111727200D01*
X167824923Y-111712659D01*
X167793795Y-111674730D01*
X167782100Y-111658961D01*
X167754840Y-111618162D01*
X167744754Y-111601334D01*
X167721623Y-111558061D01*
X167713228Y-111540313D01*
X167694451Y-111494980D01*
X167687840Y-111476503D01*
X167673596Y-111429548D01*
X167668826Y-111410505D01*
X167659254Y-111362380D01*
X167656375Y-111342971D01*
X167651565Y-111294140D01*
X167650602Y-111274534D01*
X167650602Y-111256112D01*
X167650000Y-111250000D01*
X167650000Y-110750000D01*
X167650602Y-110743888D01*
X167650602Y-110725466D01*
X167651565Y-110705860D01*
X167656375Y-110657029D01*
X167659254Y-110637620D01*
X167668826Y-110589495D01*
X167673596Y-110570452D01*
X167687840Y-110523497D01*
X167694451Y-110505020D01*
X167713228Y-110459687D01*
X167721623Y-110441939D01*
X167744754Y-110398666D01*
X167754840Y-110381838D01*
X167782100Y-110341039D01*
X167793795Y-110325270D01*
X167824923Y-110287341D01*
X167838103Y-110272800D01*
X167872800Y-110238103D01*
X167887341Y-110224923D01*
X167925270Y-110193795D01*
X167941039Y-110182100D01*
X167981838Y-110154840D01*
X167998666Y-110144754D01*
X168041939Y-110121623D01*
X168059687Y-110113228D01*
X168105020Y-110094451D01*
X168123497Y-110087840D01*
X168170452Y-110073596D01*
X168189495Y-110068826D01*
X168237620Y-110059254D01*
X168257029Y-110056375D01*
X168305860Y-110051565D01*
X168325466Y-110050602D01*
X168343888Y-110050602D01*
X168350000Y-110050000D01*
X168850000Y-110050000D01*
X168889018Y-110053843D01*
X168926537Y-110065224D01*
X168961114Y-110083706D01*
X168991421Y-110108579D01*
X169016294Y-110138886D01*
X169034776Y-110173463D01*
X169046157Y-110210982D01*
X169050000Y-110250000D01*
X169050000Y-111750000D01*
X169046157Y-111789018D01*
X169034776Y-111826537D01*
X169016294Y-111861114D01*
X168991421Y-111891421D01*
X168961114Y-111916294D01*
X168926537Y-111934776D01*
X168889018Y-111946157D01*
X168850000Y-111950000D01*
X168350000Y-111950000D01*
X168343888Y-111949398D01*
G37*
%TD*%
D22*
%TO.C,M1*%
X149770000Y-98500000D03*
X147230000Y-98500000D03*
%TD*%
D21*
%TO.C,P9*%
X148500000Y-141250000D03*
%TD*%
M02*
