%TF.GenerationSoftware,KiCad,Pcbnew,5.1.9-73d0e3b20d~88~ubuntu20.04.1*%
%TF.CreationDate,2021-08-18T18:14:59+05:30*%
%TF.ProjectId,MAP6,4d415036-2e6b-4696-9361-645f70636258,1*%
%TF.SameCoordinates,Original*%
%TF.FileFunction,Copper,L2,Bot*%
%TF.FilePolarity,Positive*%
%FSLAX46Y46*%
G04 Gerber Fmt 4.6, Leading zero omitted, Abs format (unit mm)*
G04 Created by KiCad (PCBNEW 5.1.9-73d0e3b20d~88~ubuntu20.04.1) date 2021-08-18 18:14:59*
%MOMM*%
%LPD*%
G01*
G04 APERTURE LIST*
%TA.AperFunction,EtchedComponent*%
%ADD10C,0.050800*%
%TD*%
%TA.AperFunction,ComponentPad*%
%ADD11C,1.400000*%
%TD*%
%TA.AperFunction,ComponentPad*%
%ADD12R,1.400000X1.400000*%
%TD*%
%TA.AperFunction,SMDPad,CuDef*%
%ADD13R,1.450000X1.000000*%
%TD*%
%TA.AperFunction,ComponentPad*%
%ADD14C,1.600000*%
%TD*%
%TA.AperFunction,SMDPad,CuDef*%
%ADD15R,1.000000X1.450000*%
%TD*%
%TA.AperFunction,ComponentPad*%
%ADD16R,1.500000X1.500000*%
%TD*%
%TA.AperFunction,ComponentPad*%
%ADD17C,1.500000*%
%TD*%
%TA.AperFunction,ComponentPad*%
%ADD18C,1.800000*%
%TD*%
%TA.AperFunction,ComponentPad*%
%ADD19C,2.500000*%
%TD*%
%TA.AperFunction,ComponentPad*%
%ADD20R,1.600000X1.600000*%
%TD*%
%TA.AperFunction,ComponentPad*%
%ADD21O,1.600000X1.600000*%
%TD*%
%TA.AperFunction,ComponentPad*%
%ADD22C,3.048000*%
%TD*%
%TA.AperFunction,ComponentPad*%
%ADD23C,2.036000*%
%TD*%
%TA.AperFunction,SMDPad,CuDef*%
%ADD24C,0.050800*%
%TD*%
%TA.AperFunction,Conductor*%
%ADD25C,1.000000*%
%TD*%
%TA.AperFunction,Conductor*%
%ADD26C,0.500000*%
%TD*%
G04 APERTURE END LIST*
D10*
%TO.C,JP1*%
G36*
X169250000Y-110400000D02*
G01*
X168750000Y-110400000D01*
X168750000Y-110800000D01*
X169250000Y-110800000D01*
X169250000Y-110400000D01*
G37*
G36*
X169250000Y-111200000D02*
G01*
X168750000Y-111200000D01*
X168750000Y-111600000D01*
X169250000Y-111600000D01*
X169250000Y-111200000D01*
G37*
%TD*%
D11*
%TO.P,SW1,6*%
%TO.N,N/C*%
X125950000Y-108500000D03*
%TO.P,SW1,5*%
X125950000Y-111000000D03*
%TO.P,SW1,4*%
X125950000Y-113500000D03*
%TO.P,SW1,3*%
X129250000Y-108500000D03*
%TO.P,SW1,2*%
%TO.N,Net-(BT1-Pad1)*%
X129250000Y-111000000D03*
D12*
%TO.P,SW1,1*%
%TO.N,/6V*%
X129250000Y-113500000D03*
%TD*%
D13*
%TO.P,R1,2*%
%TO.N,/left_eye*%
X140000000Y-87250000D03*
%TO.P,R1,1*%
%TO.N,/GND*%
X140000000Y-89150000D03*
D14*
%TO.P,R1,2*%
%TO.N,/left_eye*%
X140000000Y-84136000D03*
%TO.P,R1,1*%
%TO.N,/GND*%
X140000000Y-92264000D03*
%TD*%
D13*
%TO.P,R2,2*%
%TO.N,/right_eye*%
X157000000Y-87550000D03*
%TO.P,R2,1*%
%TO.N,/GND*%
X157000000Y-89450000D03*
D14*
%TO.P,R2,2*%
%TO.N,/right_eye*%
X157000000Y-84436000D03*
%TO.P,R2,1*%
%TO.N,/GND*%
X157000000Y-92564000D03*
%TD*%
D15*
%TO.P,R3,2*%
%TO.N,/motor*%
X147550000Y-89500000D03*
%TO.P,R3,1*%
%TO.N,/GND*%
X149450000Y-89500000D03*
D14*
%TO.P,R3,2*%
%TO.N,/motor*%
X144436000Y-89500000D03*
%TO.P,R3,1*%
%TO.N,/GND*%
X152564000Y-89500000D03*
%TD*%
D15*
%TO.P,R4,2*%
%TO.N,/6V*%
X149450000Y-139000000D03*
%TO.P,R4,1*%
%TO.N,Net-(R4-Pad1)*%
X147550000Y-139000000D03*
D14*
%TO.P,R4,2*%
%TO.N,/6V*%
X152564000Y-139000000D03*
%TO.P,R4,1*%
%TO.N,Net-(R4-Pad1)*%
X144436000Y-139000000D03*
%TD*%
D13*
%TO.P,R5,2*%
%TO.N,Net-(R5-Pad2)*%
X165500000Y-110050000D03*
%TO.P,R5,1*%
%TO.N,Net-(JP1-Pad2)*%
X165500000Y-111950000D03*
D14*
%TO.P,R5,2*%
%TO.N,Net-(R5-Pad2)*%
X165500000Y-106936000D03*
%TO.P,R5,1*%
%TO.N,Net-(JP1-Pad2)*%
X165500000Y-115064000D03*
%TD*%
D15*
%TO.P,R6,2*%
%TO.N,Net-(R4-Pad1)*%
X147550000Y-136000000D03*
%TO.P,R6,1*%
%TO.N,Net-(C1-Pad1)*%
X149450000Y-136000000D03*
D14*
%TO.P,R6,2*%
%TO.N,Net-(R4-Pad1)*%
X144436000Y-136000000D03*
%TO.P,R6,1*%
%TO.N,Net-(C1-Pad1)*%
X152564000Y-136000000D03*
%TD*%
D16*
%TO.P,Q1,1*%
%TO.N,/6V*%
X151040000Y-95000000D03*
D17*
%TO.P,Q1,3*%
%TO.N,Net-(D1-Pad1)*%
X145960000Y-95000000D03*
%TO.P,Q1,2*%
%TO.N,Net-(JP1-Pad2)*%
X148500000Y-92460000D03*
%TD*%
D18*
%TO.P,D2,1*%
%TO.N,Net-(D1-Pad1)*%
X155500000Y-81770000D03*
%TO.P,D2,2*%
%TO.N,/right_eye*%
X155500000Y-79230000D03*
%TD*%
%TO.P,D1,1*%
%TO.N,Net-(D1-Pad1)*%
X141500000Y-81770000D03*
%TO.P,D1,2*%
%TO.N,/left_eye*%
X141500000Y-79230000D03*
%TD*%
D19*
%TO.P,BT1,2*%
%TO.N,/GND*%
X161500000Y-111000000D03*
%TO.P,BT1,1*%
%TO.N,Net-(BT1-Pad1)*%
X134500000Y-111000000D03*
X136700000Y-111000000D03*
%TO.P,BT1,2*%
%TO.N,/GND*%
X156600000Y-111000000D03*
%TD*%
D14*
%TO.P,C1,2*%
%TO.N,/GND*%
X158000000Y-127500000D03*
D20*
%TO.P,C1,1*%
%TO.N,Net-(C1-Pad1)*%
X158000000Y-130000000D03*
%TD*%
D14*
%TO.P,C2,2*%
%TO.N,/GND*%
X139000000Y-127500000D03*
%TO.P,C2,1*%
%TO.N,Net-(C2-Pad1)*%
X139000000Y-130000000D03*
%TD*%
D21*
%TO.P,U1,8*%
%TO.N,/6V*%
X144690000Y-125000000D03*
%TO.P,U1,4*%
X152310000Y-132620000D03*
%TO.P,U1,7*%
%TO.N,Net-(R4-Pad1)*%
X144690000Y-127540000D03*
%TO.P,U1,3*%
%TO.N,Net-(R5-Pad2)*%
X152310000Y-130080000D03*
%TO.P,U1,6*%
%TO.N,Net-(C1-Pad1)*%
X144690000Y-130080000D03*
%TO.P,U1,2*%
X152310000Y-127540000D03*
%TO.P,U1,5*%
%TO.N,Net-(C2-Pad1)*%
X144690000Y-132620000D03*
D20*
%TO.P,U1,1*%
%TO.N,/GND*%
X152310000Y-125000000D03*
%TD*%
D22*
%TO.P,P2,1*%
%TO.N,N/C*%
X148500000Y-75500000D03*
%TD*%
D23*
%TO.P,P3,1*%
%TO.N,N/C*%
X137500000Y-120000000D03*
%TD*%
%TO.P,P4,1*%
%TO.N,N/C*%
X137500000Y-93000000D03*
%TD*%
%TO.P,P5,1*%
%TO.N,N/C*%
X159500000Y-120000000D03*
%TD*%
%TO.P,P6,1*%
%TO.N,N/C*%
X159500000Y-93000000D03*
%TD*%
%TO.P,P7,1*%
%TO.N,N/C*%
X137500000Y-105000000D03*
%TD*%
%TO.P,P8,1*%
%TO.N,N/C*%
X159500000Y-105000000D03*
%TD*%
%TA.AperFunction,SMDPad,CuDef*%
D24*
%TO.P,JP1,1*%
%TO.N,Net-(C1-Pad1)*%
G36*
X169150000Y-110250000D02*
G01*
X169650000Y-110250000D01*
X169650000Y-110250602D01*
X169674534Y-110250602D01*
X169723365Y-110255412D01*
X169771490Y-110264984D01*
X169818445Y-110279228D01*
X169863778Y-110298005D01*
X169907051Y-110321136D01*
X169947850Y-110348396D01*
X169985779Y-110379524D01*
X170020476Y-110414221D01*
X170051604Y-110452150D01*
X170078864Y-110492949D01*
X170101995Y-110536222D01*
X170120772Y-110581555D01*
X170135016Y-110628510D01*
X170144588Y-110676635D01*
X170149398Y-110725466D01*
X170149398Y-110750000D01*
X170150000Y-110750000D01*
X170150000Y-111250000D01*
X170149398Y-111250000D01*
X170149398Y-111274534D01*
X170144588Y-111323365D01*
X170135016Y-111371490D01*
X170120772Y-111418445D01*
X170101995Y-111463778D01*
X170078864Y-111507051D01*
X170051604Y-111547850D01*
X170020476Y-111585779D01*
X169985779Y-111620476D01*
X169947850Y-111651604D01*
X169907051Y-111678864D01*
X169863778Y-111701995D01*
X169818445Y-111720772D01*
X169771490Y-111735016D01*
X169723365Y-111744588D01*
X169674534Y-111749398D01*
X169650000Y-111749398D01*
X169650000Y-111750000D01*
X169150000Y-111750000D01*
X169150000Y-110250000D01*
G37*
%TD.AperFunction*%
%TA.AperFunction,SMDPad,CuDef*%
%TO.P,JP1,2*%
%TO.N,Net-(JP1-Pad2)*%
G36*
X168350000Y-111749398D02*
G01*
X168325466Y-111749398D01*
X168276635Y-111744588D01*
X168228510Y-111735016D01*
X168181555Y-111720772D01*
X168136222Y-111701995D01*
X168092949Y-111678864D01*
X168052150Y-111651604D01*
X168014221Y-111620476D01*
X167979524Y-111585779D01*
X167948396Y-111547850D01*
X167921136Y-111507051D01*
X167898005Y-111463778D01*
X167879228Y-111418445D01*
X167864984Y-111371490D01*
X167855412Y-111323365D01*
X167850602Y-111274534D01*
X167850602Y-111250000D01*
X167850000Y-111250000D01*
X167850000Y-110750000D01*
X167850602Y-110750000D01*
X167850602Y-110725466D01*
X167855412Y-110676635D01*
X167864984Y-110628510D01*
X167879228Y-110581555D01*
X167898005Y-110536222D01*
X167921136Y-110492949D01*
X167948396Y-110452150D01*
X167979524Y-110414221D01*
X168014221Y-110379524D01*
X168052150Y-110348396D01*
X168092949Y-110321136D01*
X168136222Y-110298005D01*
X168181555Y-110279228D01*
X168228510Y-110264984D01*
X168276635Y-110255412D01*
X168325466Y-110250602D01*
X168350000Y-110250602D01*
X168350000Y-110250000D01*
X168850000Y-110250000D01*
X168850000Y-111750000D01*
X168350000Y-111750000D01*
X168350000Y-111749398D01*
G37*
%TD.AperFunction*%
%TD*%
D14*
%TO.P,M1,1*%
%TO.N,Net-(D1-Pad1)*%
X149770000Y-98500000D03*
%TO.P,M1,2*%
%TO.N,/motor*%
X147230000Y-98500000D03*
%TD*%
D11*
%TO.P,P9,1*%
%TO.N,N/C*%
X148500000Y-141250000D03*
%TD*%
D25*
%TO.N,/GND*%
X157000000Y-89450000D02*
X157000000Y-92564000D01*
X152614000Y-89450000D02*
X152564000Y-89500000D01*
X157000000Y-89450000D02*
X152614000Y-89450000D01*
X152564000Y-89500000D02*
X149450000Y-89500000D01*
X140000000Y-92264000D02*
X140000000Y-89150000D01*
X161500000Y-111000000D02*
X156600000Y-111000000D01*
X158000000Y-125000000D02*
X158000000Y-127500000D01*
X152310000Y-125000000D02*
X158000000Y-125000000D01*
X152310000Y-115290000D02*
X156600000Y-111000000D01*
X152310000Y-125000000D02*
X152310000Y-115290000D01*
D26*
%TO.N,/motor*%
X144436000Y-89500000D02*
X147550000Y-89500000D01*
X147230000Y-98500000D02*
X145700000Y-98500000D01*
X145700000Y-98500000D02*
X143700000Y-96500000D01*
X143700000Y-96500000D02*
X143700000Y-92300000D01*
X144436000Y-91564000D02*
X144436000Y-89500000D01*
X143700000Y-92300000D02*
X144436000Y-91564000D01*
D25*
%TO.N,Net-(BT1-Pad1)*%
X136700000Y-111000000D02*
X134500000Y-111000000D01*
X134500000Y-111000000D02*
X129250000Y-111000000D01*
D26*
%TO.N,Net-(C1-Pad1)*%
X158000000Y-130000000D02*
X156500000Y-130000000D01*
X154040000Y-127540000D02*
X152310000Y-127540000D01*
X156500000Y-130000000D02*
X154040000Y-127540000D01*
X149450000Y-136000000D02*
X152564000Y-136000000D01*
X144690000Y-130080000D02*
X146080000Y-130080000D01*
X149450000Y-133450000D02*
X149450000Y-136000000D01*
X146080000Y-130080000D02*
X149450000Y-133450000D01*
X158000000Y-130000000D02*
X158000000Y-133000000D01*
X155000000Y-136000000D02*
X152564000Y-136000000D01*
X158000000Y-133000000D02*
X155000000Y-136000000D01*
X169650000Y-112550000D02*
X169650000Y-111000000D01*
X171100000Y-114000000D02*
X169650000Y-112550000D01*
X169000000Y-125000000D02*
X171100000Y-122900000D01*
X162500000Y-125000000D02*
X169000000Y-125000000D01*
X159500000Y-130000000D02*
X160500000Y-129000000D01*
X171100000Y-122900000D02*
X171100000Y-114000000D01*
X160500000Y-127000000D02*
X162500000Y-125000000D01*
X160500000Y-129000000D02*
X160500000Y-127000000D01*
X158000000Y-130000000D02*
X159500000Y-130000000D01*
%TO.N,Net-(C2-Pad1)*%
X141620000Y-132620000D02*
X139000000Y-130000000D01*
X144690000Y-132620000D02*
X141620000Y-132620000D01*
%TO.N,Net-(D1-Pad1)*%
X141500000Y-81770000D02*
X155500000Y-81770000D01*
X149770000Y-98500000D02*
X149770000Y-97470000D01*
X149770000Y-98500000D02*
X149770000Y-100130000D01*
X149770000Y-100130000D02*
X148400000Y-101500000D01*
X148400000Y-101500000D02*
X145300000Y-101500000D01*
X145300000Y-101500000D02*
X141900000Y-98100000D01*
X141900000Y-98100000D02*
X141900000Y-83900000D01*
X141500000Y-83500000D02*
X141500000Y-81770000D01*
X141900000Y-83900000D02*
X141500000Y-83500000D01*
X147300000Y-95000000D02*
X149770000Y-97470000D01*
X145960000Y-95000000D02*
X147300000Y-95000000D01*
%TO.N,Net-(JP1-Pad2)*%
X165500000Y-115064000D02*
X165500000Y-111950000D01*
X167400000Y-111950000D02*
X168350000Y-111000000D01*
X165500000Y-111950000D02*
X167400000Y-111950000D01*
X153460000Y-92460000D02*
X148500000Y-92460000D01*
X155250000Y-94250000D02*
X153460000Y-92460000D01*
X155250000Y-99050000D02*
X155250000Y-94250000D01*
X157000000Y-100800000D02*
X155250000Y-99050000D01*
X166100000Y-100800000D02*
X157000000Y-100800000D01*
X168350000Y-103050000D02*
X166100000Y-100800000D01*
X168350000Y-111000000D02*
X168350000Y-103050000D01*
D25*
%TO.N,/6V*%
X149450000Y-139000000D02*
X152564000Y-139000000D01*
X151120000Y-132620000D02*
X152310000Y-132620000D01*
X147000000Y-128500000D02*
X151120000Y-132620000D01*
X147000000Y-126000000D02*
X147000000Y-128500000D01*
X146000000Y-125000000D02*
X147000000Y-126000000D01*
X144690000Y-125000000D02*
X146000000Y-125000000D01*
X144690000Y-113510000D02*
X144700000Y-113500000D01*
X144690000Y-125000000D02*
X144690000Y-113510000D01*
X153000000Y-105200000D02*
X144700000Y-113500000D01*
X153000000Y-96000000D02*
X153000000Y-105200000D01*
X152000000Y-95000000D02*
X153000000Y-96000000D01*
X151040000Y-95000000D02*
X152000000Y-95000000D01*
X129250000Y-113500000D02*
X130300000Y-113500000D01*
X130300000Y-113500000D02*
X130800000Y-113000000D01*
X130800000Y-113000000D02*
X132800000Y-113000000D01*
X133310000Y-113510000D02*
X144690000Y-113510000D01*
X132800000Y-113000000D02*
X133310000Y-113510000D01*
D26*
%TO.N,Net-(R4-Pad1)*%
X147550000Y-136000000D02*
X144436000Y-136000000D01*
X147550000Y-139000000D02*
X144436000Y-139000000D01*
X144436000Y-139000000D02*
X144436000Y-136000000D01*
X144690000Y-127540000D02*
X142540000Y-127540000D01*
X142540000Y-127540000D02*
X140500000Y-125500000D01*
X140500000Y-125500000D02*
X138000000Y-125500000D01*
X138000000Y-125500000D02*
X136500000Y-127000000D01*
X136500000Y-127000000D02*
X136500000Y-130500000D01*
X142000000Y-136000000D02*
X144436000Y-136000000D01*
X136500000Y-130500000D02*
X142000000Y-136000000D01*
%TO.N,Net-(R5-Pad2)*%
X165500000Y-106936000D02*
X165500000Y-110050000D01*
X151080000Y-130080000D02*
X152310000Y-130080000D01*
X149500000Y-128500000D02*
X151080000Y-130080000D01*
X149500000Y-112500000D02*
X149500000Y-128500000D01*
X153500000Y-108500000D02*
X149500000Y-112500000D01*
X162500000Y-108500000D02*
X153500000Y-108500000D01*
X164064000Y-106936000D02*
X162500000Y-108500000D01*
X165500000Y-106936000D02*
X164064000Y-106936000D01*
%TO.N,/left_eye*%
X140000000Y-84136000D02*
X138900000Y-83036000D01*
X138900000Y-83036000D02*
X138900000Y-80700000D01*
X140370000Y-79230000D02*
X141500000Y-79230000D01*
X138900000Y-80700000D02*
X140370000Y-79230000D01*
X140000000Y-84136000D02*
X140000000Y-87250000D01*
%TO.N,/right_eye*%
X156630000Y-79230000D02*
X155500000Y-79230000D01*
X158100000Y-80700000D02*
X156630000Y-79230000D01*
X158100000Y-83336000D02*
X158100000Y-80700000D01*
X157000000Y-84436000D02*
X158100000Y-83336000D01*
X157000000Y-84436000D02*
X157000000Y-87550000D01*
%TD*%
M02*
