%TF.GenerationSoftware,KiCad,Pcbnew,5.1.9-73d0e3b20d~88~ubuntu20.04.1*%
%TF.CreationDate,2021-08-31T18:27:40+05:30*%
%TF.ProjectId,MAP6,4d415036-2e6b-4696-9361-645f70636258,1*%
%TF.SameCoordinates,Original*%
%TF.FileFunction,Copper,L1,Top*%
%TF.FilePolarity,Positive*%
%FSLAX46Y46*%
G04 Gerber Fmt 4.6, Leading zero omitted, Abs format (unit mm)*
G04 Created by KiCad (PCBNEW 5.1.9-73d0e3b20d~88~ubuntu20.04.1) date 2021-08-31 18:27:40*
%MOMM*%
%LPD*%
G01*
G04 APERTURE LIST*
%TA.AperFunction,ComponentPad*%
%ADD10C,1.800000*%
%TD*%
%TA.AperFunction,SMDPad,CuDef*%
%ADD11R,0.760000X1.940000*%
%TD*%
%TA.AperFunction,ComponentPad*%
%ADD12O,2.400000X1.200000*%
%TD*%
%TA.AperFunction,ComponentPad*%
%ADD13C,2.500000*%
%TD*%
%TA.AperFunction,ComponentPad*%
%ADD14C,3.048000*%
%TD*%
%TA.AperFunction,ComponentPad*%
%ADD15C,2.036000*%
%TD*%
%TA.AperFunction,ComponentPad*%
%ADD16C,1.400000*%
%TD*%
%TA.AperFunction,Conductor*%
%ADD17C,0.250000*%
%TD*%
%TA.AperFunction,Conductor*%
%ADD18C,1.000000*%
%TD*%
%TA.AperFunction,Conductor*%
%ADD19C,0.500000*%
%TD*%
%TA.AperFunction,NonConductor*%
%ADD20C,0.254000*%
%TD*%
%TA.AperFunction,NonConductor*%
%ADD21C,0.050800*%
%TD*%
G04 APERTURE END LIST*
D10*
%TO.P,R2,2*%
%TO.N,/right_eye*%
X157000000Y-84190000D03*
%TO.P,R2,1*%
%TO.N,/GND*%
X157000000Y-91810000D03*
%TD*%
D11*
%TO.P,M1,2*%
%TO.N,/motor*%
X147900000Y-97480000D03*
%TO.P,M1,1*%
%TO.N,Net-(JP1-Pad2)*%
X149100000Y-97480000D03*
D10*
%TO.P,M1,2*%
%TO.N,/motor*%
X147230000Y-96000000D03*
%TO.P,M1,1*%
%TO.N,Net-(JP1-Pad2)*%
X149770000Y-96000000D03*
%TD*%
%TO.P,Q1,2*%
%TO.N,Net-(JP1-Pad2)*%
X148500000Y-89460000D03*
%TO.P,Q1,3*%
%TO.N,Net-(D1-Pad1)*%
X145960000Y-92000000D03*
%TO.P,Q1,1*%
%TO.N,/6V*%
%TA.AperFunction,ComponentPad*%
G36*
G01*
X151940000Y-91550000D02*
X151940000Y-92450000D01*
G75*
G02*
X151490000Y-92900000I-450000J0D01*
G01*
X150590000Y-92900000D01*
G75*
G02*
X150140000Y-92450000I0J450000D01*
G01*
X150140000Y-91550000D01*
G75*
G02*
X150590000Y-91100000I450000J0D01*
G01*
X151490000Y-91100000D01*
G75*
G02*
X151940000Y-91550000I0J-450000D01*
G01*
G37*
%TD.AperFunction*%
%TD*%
%TO.P,R1,2*%
%TO.N,/left_eye*%
X140000000Y-84190000D03*
%TO.P,R1,1*%
%TO.N,/GND*%
X140000000Y-91810000D03*
%TD*%
%TO.P,R3,2*%
%TO.N,/motor*%
X144690000Y-84500000D03*
%TO.P,R3,1*%
%TO.N,/GND*%
X152310000Y-84500000D03*
%TD*%
%TO.P,R5,2*%
%TO.N,Net-(R5-Pad2)*%
X165500000Y-107190000D03*
%TO.P,R5,1*%
%TO.N,Net-(JP1-Pad2)*%
X165500000Y-114810000D03*
%TD*%
%TO.P,U1,1*%
%TO.N,/GND*%
%TA.AperFunction,ComponentPad*%
G36*
G01*
X153510000Y-124700000D02*
X153510000Y-125300000D01*
G75*
G02*
X153210000Y-125600000I-300000J0D01*
G01*
X151410000Y-125600000D01*
G75*
G02*
X151110000Y-125300000I0J300000D01*
G01*
X151110000Y-124700000D01*
G75*
G02*
X151410000Y-124400000I300000J0D01*
G01*
X153210000Y-124400000D01*
G75*
G02*
X153510000Y-124700000I0J-300000D01*
G01*
G37*
%TD.AperFunction*%
D12*
%TO.P,U1,5*%
%TO.N,Net-(C2-Pad1)*%
X144690000Y-132620000D03*
%TO.P,U1,2*%
%TO.N,Net-(C1-Pad1)*%
X152310000Y-127540000D03*
%TO.P,U1,6*%
X144690000Y-130080000D03*
%TO.P,U1,3*%
%TO.N,Net-(R5-Pad2)*%
X152310000Y-130080000D03*
%TO.P,U1,7*%
%TO.N,Net-(R4-Pad1)*%
X144690000Y-127540000D03*
%TO.P,U1,4*%
%TO.N,/6V*%
X152310000Y-132620000D03*
%TO.P,U1,8*%
X144690000Y-125000000D03*
%TD*%
%TO.P,C1,1*%
%TO.N,Net-(C1-Pad1)*%
%TA.AperFunction,ComponentPad*%
G36*
G01*
X158900000Y-130600000D02*
X157100000Y-130600000D01*
G75*
G02*
X156800000Y-130300000I0J300000D01*
G01*
X156800000Y-129700000D01*
G75*
G02*
X157100000Y-129400000I300000J0D01*
G01*
X158900000Y-129400000D01*
G75*
G02*
X159200000Y-129700000I0J-300000D01*
G01*
X159200000Y-130300000D01*
G75*
G02*
X158900000Y-130600000I-300000J0D01*
G01*
G37*
%TD.AperFunction*%
%TO.P,C1,2*%
%TO.N,/GND*%
X158000000Y-127500000D03*
%TD*%
%TO.P,C2,1*%
%TO.N,Net-(C2-Pad1)*%
X139000000Y-130000000D03*
%TO.P,C2,2*%
%TO.N,/GND*%
X139000000Y-127500000D03*
%TD*%
%TO.P,SW1,1*%
%TO.N,/6V*%
%TA.AperFunction,ComponentPad*%
G36*
G01*
X129950000Y-114400000D02*
X129050000Y-114400000D01*
G75*
G02*
X128600000Y-113950000I0J450000D01*
G01*
X128600000Y-113050000D01*
G75*
G02*
X129050000Y-112600000I450000J0D01*
G01*
X129950000Y-112600000D01*
G75*
G02*
X130400000Y-113050000I0J-450000D01*
G01*
X130400000Y-113950000D01*
G75*
G02*
X129950000Y-114400000I-450000J0D01*
G01*
G37*
%TD.AperFunction*%
D10*
%TO.P,SW1,2*%
%TO.N,Net-(BT1-Pad1)*%
X129500000Y-111000000D03*
%TO.P,SW1,3*%
%TO.N,N/C*%
X129500000Y-108500000D03*
%TO.P,SW1,4*%
X126200000Y-113500000D03*
%TO.P,SW1,5*%
X126200000Y-111000000D03*
%TO.P,SW1,6*%
X126200000Y-108500000D03*
%TD*%
%TO.P,D2,1*%
%TO.N,Net-(D1-Pad1)*%
X155500000Y-81770000D03*
%TO.P,D2,2*%
%TO.N,/right_eye*%
X155500000Y-79230000D03*
%TD*%
%TO.P,D1,2*%
%TO.N,/left_eye*%
X141500000Y-79230000D03*
%TO.P,D1,1*%
%TO.N,Net-(D1-Pad1)*%
X141500000Y-81770000D03*
%TD*%
D13*
%TO.P,BT1,2*%
%TO.N,/GND*%
X161500000Y-111000000D03*
%TO.P,BT1,1*%
%TO.N,Net-(BT1-Pad1)*%
X134500000Y-111000000D03*
X136700000Y-111000000D03*
%TO.P,BT1,2*%
%TO.N,/GND*%
X156600000Y-111000000D03*
%TD*%
D14*
%TO.P,G2,1*%
%TO.N,N/C*%
X148500000Y-75500000D03*
%TD*%
D15*
%TO.P,G3,1*%
%TO.N,N/C*%
X137500000Y-120000000D03*
%TD*%
%TO.P,G4,1*%
%TO.N,N/C*%
X137500000Y-93000000D03*
%TD*%
%TO.P,G5,1*%
%TO.N,N/C*%
X159500000Y-120000000D03*
%TD*%
%TO.P,G6,1*%
%TO.N,N/C*%
X159500000Y-93000000D03*
%TD*%
%TO.P,G7,1*%
%TO.N,N/C*%
X137500000Y-105000000D03*
%TD*%
%TO.P,G8,1*%
%TO.N,N/C*%
X159500000Y-105000000D03*
%TD*%
D16*
%TO.P,G9,1*%
%TO.N,N/C*%
X148500000Y-141250000D03*
%TD*%
D10*
%TO.P,R4,2*%
%TO.N,/6V*%
X152310000Y-139000000D03*
%TO.P,R4,1*%
%TO.N,Net-(R4-Pad1)*%
X144690000Y-139000000D03*
%TD*%
%TO.P,R6,2*%
%TO.N,Net-(R4-Pad1)*%
X144690000Y-136000000D03*
%TO.P,R6,1*%
%TO.N,Net-(C1-Pad1)*%
X152310000Y-136000000D03*
%TD*%
D17*
%TO.N,/GND*%
X142500000Y-98500000D02*
X142500000Y-102000000D01*
X144500000Y-96500000D02*
X143500000Y-97500000D01*
X143500000Y-97500000D02*
X143500000Y-101000000D01*
X143500000Y-97500000D02*
X142500000Y-98500000D01*
X143500000Y-101000000D02*
X144500000Y-102000000D01*
X144500000Y-106000000D02*
X143000000Y-107500000D01*
X144500000Y-103500000D02*
X141500000Y-106500000D01*
X144500000Y-102000000D02*
X144500000Y-103500000D01*
X144500000Y-103500000D02*
X144500000Y-106000000D01*
X141500000Y-106500000D02*
X141500000Y-109000000D01*
X141500000Y-109000000D02*
X142500000Y-110000000D01*
X142500000Y-110000000D02*
X142500000Y-111500000D01*
X142500000Y-111500000D02*
X142500000Y-113000000D01*
X142500000Y-113000000D02*
X140000000Y-115500000D01*
X140000000Y-115500000D02*
X140000000Y-118000000D01*
X140500000Y-111000000D02*
X140500000Y-112000000D01*
X137500000Y-115000000D02*
X135500000Y-115000000D01*
X135500000Y-115000000D02*
X135500000Y-117500000D01*
X135500000Y-117500000D02*
X133500000Y-119500000D01*
X133500000Y-119500000D02*
X133500000Y-123000000D01*
X134000000Y-116500000D02*
X130500000Y-116500000D01*
X135500000Y-115000000D02*
X134000000Y-116500000D01*
X134000000Y-116500000D02*
X130000000Y-120500000D01*
X130500000Y-116500000D02*
X129000000Y-118000000D01*
X129000000Y-118000000D02*
X129000000Y-119000000D01*
X140500000Y-96500000D02*
X140500000Y-98500000D01*
X135500000Y-103500000D02*
X135000000Y-104000000D01*
X135000000Y-104000000D02*
X135000000Y-107000000D01*
X135000000Y-107000000D02*
X132000000Y-110000000D01*
X132000000Y-110000000D02*
X132000000Y-113000000D01*
X135000000Y-104000000D02*
X132500000Y-106500000D01*
X132500000Y-106500000D02*
X132500000Y-107500000D01*
X155000000Y-98000000D02*
X155000000Y-100500000D01*
X153500000Y-102000000D02*
X153500000Y-106000000D01*
X153500000Y-106000000D02*
X154500000Y-107000000D01*
X154500000Y-107000000D02*
X154500000Y-110000000D01*
X154500000Y-110000000D02*
X154500000Y-112500000D01*
X154500000Y-112500000D02*
X156500000Y-114500000D01*
X156500000Y-114500000D02*
X157000000Y-115000000D01*
X157000000Y-115000000D02*
X157000000Y-117500000D01*
X157000000Y-117500000D02*
X158000000Y-118500000D01*
X154000000Y-97000000D02*
X154000000Y-98000000D01*
X154000000Y-97000000D02*
X155000000Y-98000000D01*
X154000000Y-98000000D02*
X152500000Y-99500000D01*
X152500000Y-99500000D02*
X152500000Y-103500000D01*
X152500000Y-103500000D02*
X152000000Y-104000000D01*
X152000000Y-104000000D02*
X152000000Y-107000000D01*
X152000000Y-107000000D02*
X153500000Y-108500000D01*
X154500000Y-101000000D02*
X154500000Y-103000000D01*
X155000000Y-100500000D02*
X154500000Y-101000000D01*
X154500000Y-101000000D02*
X153500000Y-102000000D01*
X154500000Y-103000000D02*
X155500000Y-104000000D01*
X155500000Y-104000000D02*
X155500000Y-105000000D01*
X155500000Y-105000000D02*
X155000000Y-105500000D01*
X155500000Y-94000000D02*
X159000000Y-97500000D01*
X159000000Y-101500000D02*
X159000000Y-102000000D01*
X159000000Y-102000000D02*
X158000000Y-103000000D01*
X158000000Y-103000000D02*
X158000000Y-107000000D01*
X158000000Y-107000000D02*
X159500000Y-108500000D01*
X159500000Y-108500000D02*
X159500000Y-112000000D01*
X159500000Y-112000000D02*
X159000000Y-112500000D01*
X159000000Y-112500000D02*
X159000000Y-115000000D01*
X159000000Y-115000000D02*
X161500000Y-117500000D01*
X161500000Y-117500000D02*
X163000000Y-117500000D01*
X163000000Y-117500000D02*
X164500000Y-119000000D01*
X164500000Y-119000000D02*
X164500000Y-121500000D01*
X164500000Y-121500000D02*
X163500000Y-122500000D01*
X159000000Y-98500000D02*
X159000000Y-99000000D01*
X159000000Y-97500000D02*
X159000000Y-98500000D01*
X159000000Y-98500000D02*
X159000000Y-101500000D01*
X159000000Y-99000000D02*
X161500000Y-101500000D01*
X161500000Y-101500000D02*
X162000000Y-101500000D01*
X163500000Y-103000000D02*
X163500000Y-106500000D01*
X163500000Y-106500000D02*
X163000000Y-107000000D01*
X163000000Y-107000000D02*
X163000000Y-108000000D01*
X165500000Y-110500000D02*
X165500000Y-111500000D01*
X165500000Y-111500000D02*
X167500000Y-113500000D01*
X162500000Y-102000000D02*
X162500000Y-103000000D01*
X162000000Y-101500000D02*
X162500000Y-102000000D01*
X162500000Y-102000000D02*
X163500000Y-103000000D01*
X162500000Y-103000000D02*
X161500000Y-104000000D01*
X161500000Y-104000000D02*
X161500000Y-107000000D01*
X161500000Y-107000000D02*
X160500000Y-108000000D01*
X160500000Y-108000000D02*
X160500000Y-109000000D01*
X165500000Y-110500000D02*
X167000000Y-110500000D01*
X167000000Y-110500000D02*
X168000000Y-111500000D01*
X168000000Y-111500000D02*
X168500000Y-112000000D01*
X168500000Y-112000000D02*
X168500000Y-112500000D01*
X164000000Y-109000000D02*
X164000000Y-111500000D01*
X163000000Y-108000000D02*
X164000000Y-109000000D01*
X164000000Y-109000000D02*
X165500000Y-110500000D01*
X164000000Y-111500000D02*
X164500000Y-112000000D01*
X164500000Y-112000000D02*
X164500000Y-113000000D01*
X163000000Y-114500000D02*
X163000000Y-116000000D01*
X163000000Y-116000000D02*
X164000000Y-117000000D01*
X164000000Y-117000000D02*
X166000000Y-117000000D01*
X166000000Y-117000000D02*
X167000000Y-118000000D01*
X167000000Y-118000000D02*
X167000000Y-119500000D01*
X167000000Y-119500000D02*
X167500000Y-120000000D01*
X167500000Y-120000000D02*
X167500000Y-121000000D01*
X167500000Y-121000000D02*
X166500000Y-122000000D01*
X164000000Y-113500000D02*
X162000000Y-113500000D01*
X164500000Y-113000000D02*
X164000000Y-113500000D01*
X164000000Y-113500000D02*
X163000000Y-114500000D01*
X162000000Y-113500000D02*
X161000000Y-114500000D01*
X161000000Y-114500000D02*
X161000000Y-115500000D01*
X161000000Y-115500000D02*
X162000000Y-116500000D01*
X167500000Y-113500000D02*
X167500000Y-115000000D01*
X167500000Y-115000000D02*
X167500000Y-116000000D01*
X167500000Y-116000000D02*
X168500000Y-117000000D01*
X168500000Y-117000000D02*
X168500000Y-118000000D01*
X140500000Y-106000000D02*
X139500000Y-106000000D01*
X140500000Y-106000000D02*
X140500000Y-111000000D01*
X139500000Y-106000000D02*
X138500000Y-107000000D01*
X138500000Y-107000000D02*
X138000000Y-107500000D01*
X138000000Y-107500000D02*
X137000000Y-107500000D01*
X137000000Y-107500000D02*
X136000000Y-108500000D01*
X138500000Y-107000000D02*
X139500000Y-108000000D01*
X139500000Y-108000000D02*
X139500000Y-110000000D01*
X139500000Y-110000000D02*
X139500000Y-111000000D01*
X139500000Y-111000000D02*
X139000000Y-111500000D01*
X140500000Y-101000000D02*
X140500000Y-101500000D01*
X140500000Y-101000000D02*
X140500000Y-106000000D01*
X140500000Y-101500000D02*
X142000000Y-103000000D01*
X142000000Y-103000000D02*
X142000000Y-104000000D01*
X140500000Y-100000000D02*
X139000000Y-101500000D01*
X140500000Y-98500000D02*
X140500000Y-100000000D01*
X140500000Y-100000000D02*
X140500000Y-101000000D01*
X139000000Y-101500000D02*
X139000000Y-103500000D01*
X139000000Y-103500000D02*
X139000000Y-104000000D01*
X139000000Y-104000000D02*
X139500000Y-104500000D01*
X139000000Y-101500000D02*
X137500000Y-103000000D01*
X138500000Y-114000000D02*
X134000000Y-114000000D01*
X140500000Y-112000000D02*
X138500000Y-114000000D01*
X138500000Y-114000000D02*
X137500000Y-115000000D01*
X134000000Y-114000000D02*
X133000000Y-115000000D01*
X133000000Y-115000000D02*
X132500000Y-115500000D01*
X132500000Y-115500000D02*
X131000000Y-115500000D01*
X139000000Y-100000000D02*
X136500000Y-100000000D01*
X140500000Y-98500000D02*
X139000000Y-100000000D01*
X139000000Y-100000000D02*
X135500000Y-103500000D01*
X136500000Y-100000000D02*
X135000000Y-101500000D01*
X155500000Y-94000000D02*
X155500000Y-92000000D01*
X157000000Y-115000000D02*
X158000000Y-116000000D01*
X158000000Y-116000000D02*
X159000000Y-116000000D01*
X159000000Y-116000000D02*
X159500000Y-116500000D01*
X159500000Y-116500000D02*
X160500000Y-116500000D01*
X153000000Y-96000000D02*
X154000000Y-97000000D01*
D18*
X141100000Y-86900000D02*
X140000000Y-88000000D01*
X156600000Y-96933260D02*
X154300000Y-94633260D01*
X156600000Y-111000000D02*
X156600000Y-96933260D01*
D17*
X144500000Y-93000000D02*
X144500000Y-96500000D01*
X152500000Y-94000000D02*
X153000000Y-93500000D01*
X153000000Y-93500000D02*
X153000000Y-96000000D01*
X152500000Y-94000000D02*
X151500000Y-95000000D01*
X151500000Y-95000000D02*
X151500000Y-96500000D01*
X151500000Y-96500000D02*
X151500000Y-97000000D01*
X151500000Y-97000000D02*
X152000000Y-97500000D01*
X152000000Y-97500000D02*
X152000000Y-98000000D01*
X152000000Y-98000000D02*
X151000000Y-99000000D01*
X151000000Y-99000000D02*
X151000000Y-102000000D01*
X142000000Y-95000000D02*
X140000000Y-95000000D01*
X142000000Y-95000000D02*
X140500000Y-96500000D01*
X140000000Y-95000000D02*
X138500000Y-96500000D01*
X138500000Y-96500000D02*
X138500000Y-98500000D01*
X143500000Y-95000000D02*
X142000000Y-95000000D01*
X144500000Y-94000000D02*
X143500000Y-95000000D01*
X145000000Y-94000000D02*
X152500000Y-94000000D01*
X144500000Y-93500000D02*
X145000000Y-94000000D01*
X144500000Y-93000000D02*
X144500000Y-93500000D01*
X153000000Y-93000000D02*
X153000000Y-93500000D01*
D18*
X152310000Y-84500000D02*
X150500000Y-84500000D01*
X148100000Y-86900000D02*
X141100000Y-86900000D01*
X150500000Y-84500000D02*
X148100000Y-86900000D01*
X152310000Y-84500000D02*
X152310000Y-86810000D01*
X154300000Y-88800000D02*
X154300000Y-94633260D01*
X152310000Y-86810000D02*
X154300000Y-88800000D01*
X156300000Y-88800000D02*
X154300000Y-88800000D01*
X157000000Y-89500000D02*
X156300000Y-88800000D01*
X140000000Y-91810000D02*
X140000000Y-88000000D01*
X157000000Y-91810000D02*
X157000000Y-89500000D01*
X152310000Y-124060000D02*
X152310000Y-125000000D01*
X150850000Y-122600000D02*
X152310000Y-124060000D01*
X140650000Y-122600000D02*
X150850000Y-122600000D01*
X139000000Y-124250000D02*
X140650000Y-122600000D01*
X139000000Y-127500000D02*
X139000000Y-124250000D01*
D19*
%TO.N,/motor*%
X147230000Y-96810000D02*
X147900000Y-97480000D01*
X147230000Y-96000000D02*
X147230000Y-96810000D01*
%TO.N,Net-(JP1-Pad2)*%
X149770000Y-96810000D02*
X149100000Y-97480000D01*
X149770000Y-96000000D02*
X149770000Y-96810000D01*
D18*
%TO.N,/6V*%
X152310000Y-132620000D02*
X154120000Y-132620000D01*
X154120000Y-132620000D02*
X155000000Y-133500000D01*
X155000000Y-133500000D02*
X155000000Y-138000000D01*
X155000000Y-138000000D02*
X154000000Y-139000000D01*
X153960504Y-139000000D02*
X153985837Y-138981059D01*
X152310000Y-139000000D02*
X153960504Y-139000000D01*
%TD*%
D20*
X150377288Y-111032723D02*
X150381086Y-111044593D01*
X153316739Y-118873000D01*
X143683261Y-118873000D01*
X146618914Y-111044593D01*
X146622712Y-111032723D01*
X148500000Y-103992893D01*
X150377288Y-111032723D01*
%TA.AperFunction,NonConductor*%
D21*
G36*
X150377288Y-111032723D02*
G01*
X150381086Y-111044593D01*
X153316739Y-118873000D01*
X143683261Y-118873000D01*
X146618914Y-111044593D01*
X146622712Y-111032723D01*
X148500000Y-103992893D01*
X150377288Y-111032723D01*
G37*
%TD.AperFunction*%
M02*
