M48
; DRILL file {KiCad 5.1.9-73d0e3b20d~88~ubuntu20.04.1} date Wed Sep  8 23:10:45 2021
; FORMAT={-:-/ absolute / inch / decimal}
; #@! TF.CreationDate,2021-09-08T23:10:45+05:30
; #@! TF.GenerationSoftware,Kicad,Pcbnew,5.1.9-73d0e3b20d~88~ubuntu20.04.1
FMAT,2
INCH
T1C0.0315
T2C0.0354
T3C0.0394
T4C0.0401
T5C0.0512
T6C0.0728
T7C0.0802
T8C0.0394
T9C0.0709
%
G90
G05
T1
X5.4528Y-3.3146
X5.4528Y-3.6146
X5.5158Y-3.2243
X5.5709Y-5.1228
X5.5709Y-5.2213
X5.5865Y-3.1536
X5.6965Y-3.2283
X5.6965Y-4.9213
X5.6965Y-5.0213
X5.6965Y-5.1213
X5.6965Y-5.2213
X5.6965Y-5.3543
X5.6965Y-5.4724
X5.7465Y-3.3661
X5.7965Y-3.6024
X5.8465Y-3.4661
X5.8465Y-5.5709
X5.8965Y-3.6024
X5.9465Y-3.3661
X5.9965Y-3.2283
X5.9965Y-4.9213
X5.9965Y-5.0213
X5.9965Y-5.1213
X5.9965Y-5.2213
X5.9965Y-5.3543
X5.9965Y-5.4724
X6.1064Y-3.1536
X6.1417Y-5.1181
X6.1771Y-3.2243
X6.2402Y-3.3146
X6.2402Y-3.6146
X6.2402Y-5.1181
X6.6339Y-4.4366
X6.6339Y-4.7366
T2
X5.1378Y-4.5866
T3
X6.4961Y-4.5472
X6.4961Y-4.6457
T4
X5.2559Y-4.3307
X5.3346Y-4.8425
X5.4134Y-3.8189
X6.2795Y-3.8189
X6.3583Y-4.8425
X6.437Y-4.3307
T6
X5.5066Y-3.9987
X6.1706Y-4.6627
T7
X5.8465Y-2.9724
T9
X5.4233Y-4.1432
X5.748Y-4.7057
X6.0728Y-4.1432
T2
G00X5.1378Y-4.5059
M15
G01X5.1378Y-4.4862
M16
G05
G00X5.1378Y-4.687
M15
G01X5.1378Y-4.6673
M16
G05
T5
G00X5.5177Y-4.3307
M15
G01X5.4665Y-4.3307
M16
G05
G00X6.3248Y-4.3307
M15
G01X6.2736Y-4.3307
M16
G05
T8
G00X5.1181Y-4.4252
M15
G01X5.1575Y-4.4252
M16
G05
G00X5.1181Y-4.748
M15
G01X5.1575Y-4.748
M16
G05
T0
M30
