%TF.GenerationSoftware,KiCad,Pcbnew,5.1.9-73d0e3b20d~88~ubuntu20.04.1*%
%TF.CreationDate,2021-08-18T18:14:59+05:30*%
%TF.ProjectId,MAP6,4d415036-2e6b-4696-9361-645f70636258,1*%
%TF.SameCoordinates,Original*%
%TF.FileFunction,Soldermask,Bot*%
%TF.FilePolarity,Negative*%
%FSLAX46Y46*%
G04 Gerber Fmt 4.6, Leading zero omitted, Abs format (unit mm)*
G04 Created by KiCad (PCBNEW 5.1.9-73d0e3b20d~88~ubuntu20.04.1) date 2021-08-18 18:14:59*
%MOMM*%
%LPD*%
G01*
G04 APERTURE LIST*
%ADD10C,1.800000*%
%ADD11C,2.000000*%
%ADD12C,1.900000*%
%ADD13C,2.200000*%
%ADD14C,2.900000*%
%ADD15O,2.000000X2.000000*%
%ADD16C,3.448000*%
%ADD17C,2.436000*%
%ADD18C,0.050800*%
G04 APERTURE END LIST*
D10*
%TO.C,SW1*%
X125950000Y-108500000D03*
X125950000Y-111000000D03*
X125950000Y-113500000D03*
X129250000Y-108500000D03*
X129250000Y-111000000D03*
G36*
G01*
X129950000Y-114400000D02*
X128550000Y-114400000D01*
G75*
G02*
X128350000Y-114200000I0J200000D01*
G01*
X128350000Y-112800000D01*
G75*
G02*
X128550000Y-112600000I200000J0D01*
G01*
X129950000Y-112600000D01*
G75*
G02*
X130150000Y-112800000I0J-200000D01*
G01*
X130150000Y-114200000D01*
G75*
G02*
X129950000Y-114400000I-200000J0D01*
G01*
G37*
%TD*%
%TO.C,R1*%
G36*
G01*
X140725000Y-87950000D02*
X139275000Y-87950000D01*
G75*
G02*
X139075000Y-87750000I0J200000D01*
G01*
X139075000Y-86750000D01*
G75*
G02*
X139275000Y-86550000I200000J0D01*
G01*
X140725000Y-86550000D01*
G75*
G02*
X140925000Y-86750000I0J-200000D01*
G01*
X140925000Y-87750000D01*
G75*
G02*
X140725000Y-87950000I-200000J0D01*
G01*
G37*
G36*
G01*
X140725000Y-89850000D02*
X139275000Y-89850000D01*
G75*
G02*
X139075000Y-89650000I0J200000D01*
G01*
X139075000Y-88650000D01*
G75*
G02*
X139275000Y-88450000I200000J0D01*
G01*
X140725000Y-88450000D01*
G75*
G02*
X140925000Y-88650000I0J-200000D01*
G01*
X140925000Y-89650000D01*
G75*
G02*
X140725000Y-89850000I-200000J0D01*
G01*
G37*
D11*
X140000000Y-84136000D03*
X140000000Y-92264000D03*
%TD*%
%TO.C,R2*%
G36*
G01*
X157725000Y-88250000D02*
X156275000Y-88250000D01*
G75*
G02*
X156075000Y-88050000I0J200000D01*
G01*
X156075000Y-87050000D01*
G75*
G02*
X156275000Y-86850000I200000J0D01*
G01*
X157725000Y-86850000D01*
G75*
G02*
X157925000Y-87050000I0J-200000D01*
G01*
X157925000Y-88050000D01*
G75*
G02*
X157725000Y-88250000I-200000J0D01*
G01*
G37*
G36*
G01*
X157725000Y-90150000D02*
X156275000Y-90150000D01*
G75*
G02*
X156075000Y-89950000I0J200000D01*
G01*
X156075000Y-88950000D01*
G75*
G02*
X156275000Y-88750000I200000J0D01*
G01*
X157725000Y-88750000D01*
G75*
G02*
X157925000Y-88950000I0J-200000D01*
G01*
X157925000Y-89950000D01*
G75*
G02*
X157725000Y-90150000I-200000J0D01*
G01*
G37*
X157000000Y-84436000D03*
X157000000Y-92564000D03*
%TD*%
%TO.C,R3*%
G36*
G01*
X148250000Y-88775000D02*
X148250000Y-90225000D01*
G75*
G02*
X148050000Y-90425000I-200000J0D01*
G01*
X147050000Y-90425000D01*
G75*
G02*
X146850000Y-90225000I0J200000D01*
G01*
X146850000Y-88775000D01*
G75*
G02*
X147050000Y-88575000I200000J0D01*
G01*
X148050000Y-88575000D01*
G75*
G02*
X148250000Y-88775000I0J-200000D01*
G01*
G37*
G36*
G01*
X150150000Y-88775000D02*
X150150000Y-90225000D01*
G75*
G02*
X149950000Y-90425000I-200000J0D01*
G01*
X148950000Y-90425000D01*
G75*
G02*
X148750000Y-90225000I0J200000D01*
G01*
X148750000Y-88775000D01*
G75*
G02*
X148950000Y-88575000I200000J0D01*
G01*
X149950000Y-88575000D01*
G75*
G02*
X150150000Y-88775000I0J-200000D01*
G01*
G37*
X144436000Y-89500000D03*
X152564000Y-89500000D03*
%TD*%
%TO.C,R4*%
G36*
G01*
X148750000Y-139725000D02*
X148750000Y-138275000D01*
G75*
G02*
X148950000Y-138075000I200000J0D01*
G01*
X149950000Y-138075000D01*
G75*
G02*
X150150000Y-138275000I0J-200000D01*
G01*
X150150000Y-139725000D01*
G75*
G02*
X149950000Y-139925000I-200000J0D01*
G01*
X148950000Y-139925000D01*
G75*
G02*
X148750000Y-139725000I0J200000D01*
G01*
G37*
G36*
G01*
X146850000Y-139725000D02*
X146850000Y-138275000D01*
G75*
G02*
X147050000Y-138075000I200000J0D01*
G01*
X148050000Y-138075000D01*
G75*
G02*
X148250000Y-138275000I0J-200000D01*
G01*
X148250000Y-139725000D01*
G75*
G02*
X148050000Y-139925000I-200000J0D01*
G01*
X147050000Y-139925000D01*
G75*
G02*
X146850000Y-139725000I0J200000D01*
G01*
G37*
X152564000Y-139000000D03*
X144436000Y-139000000D03*
%TD*%
%TO.C,R5*%
G36*
G01*
X166225000Y-110750000D02*
X164775000Y-110750000D01*
G75*
G02*
X164575000Y-110550000I0J200000D01*
G01*
X164575000Y-109550000D01*
G75*
G02*
X164775000Y-109350000I200000J0D01*
G01*
X166225000Y-109350000D01*
G75*
G02*
X166425000Y-109550000I0J-200000D01*
G01*
X166425000Y-110550000D01*
G75*
G02*
X166225000Y-110750000I-200000J0D01*
G01*
G37*
G36*
G01*
X166225000Y-112650000D02*
X164775000Y-112650000D01*
G75*
G02*
X164575000Y-112450000I0J200000D01*
G01*
X164575000Y-111450000D01*
G75*
G02*
X164775000Y-111250000I200000J0D01*
G01*
X166225000Y-111250000D01*
G75*
G02*
X166425000Y-111450000I0J-200000D01*
G01*
X166425000Y-112450000D01*
G75*
G02*
X166225000Y-112650000I-200000J0D01*
G01*
G37*
X165500000Y-106936000D03*
X165500000Y-115064000D03*
%TD*%
%TO.C,R6*%
G36*
G01*
X148250000Y-135275000D02*
X148250000Y-136725000D01*
G75*
G02*
X148050000Y-136925000I-200000J0D01*
G01*
X147050000Y-136925000D01*
G75*
G02*
X146850000Y-136725000I0J200000D01*
G01*
X146850000Y-135275000D01*
G75*
G02*
X147050000Y-135075000I200000J0D01*
G01*
X148050000Y-135075000D01*
G75*
G02*
X148250000Y-135275000I0J-200000D01*
G01*
G37*
G36*
G01*
X150150000Y-135275000D02*
X150150000Y-136725000D01*
G75*
G02*
X149950000Y-136925000I-200000J0D01*
G01*
X148950000Y-136925000D01*
G75*
G02*
X148750000Y-136725000I0J200000D01*
G01*
X148750000Y-135275000D01*
G75*
G02*
X148950000Y-135075000I200000J0D01*
G01*
X149950000Y-135075000D01*
G75*
G02*
X150150000Y-135275000I0J-200000D01*
G01*
G37*
X144436000Y-136000000D03*
X152564000Y-136000000D03*
%TD*%
%TO.C,Q1*%
G36*
G01*
X151990000Y-94250000D02*
X151990000Y-95750000D01*
G75*
G02*
X151790000Y-95950000I-200000J0D01*
G01*
X150290000Y-95950000D01*
G75*
G02*
X150090000Y-95750000I0J200000D01*
G01*
X150090000Y-94250000D01*
G75*
G02*
X150290000Y-94050000I200000J0D01*
G01*
X151790000Y-94050000D01*
G75*
G02*
X151990000Y-94250000I0J-200000D01*
G01*
G37*
D12*
X145960000Y-95000000D03*
X148500000Y-92460000D03*
%TD*%
D13*
%TO.C,D2*%
X155500000Y-81770000D03*
X155500000Y-79230000D03*
%TD*%
%TO.C,D1*%
X141500000Y-81770000D03*
X141500000Y-79230000D03*
%TD*%
D14*
%TO.C,BT1*%
X161500000Y-111000000D03*
X134500000Y-111000000D03*
X136700000Y-111000000D03*
X156600000Y-111000000D03*
%TD*%
D11*
%TO.C,C1*%
X158000000Y-127500000D03*
G36*
G01*
X158800000Y-131000000D02*
X157200000Y-131000000D01*
G75*
G02*
X157000000Y-130800000I0J200000D01*
G01*
X157000000Y-129200000D01*
G75*
G02*
X157200000Y-129000000I200000J0D01*
G01*
X158800000Y-129000000D01*
G75*
G02*
X159000000Y-129200000I0J-200000D01*
G01*
X159000000Y-130800000D01*
G75*
G02*
X158800000Y-131000000I-200000J0D01*
G01*
G37*
%TD*%
%TO.C,C2*%
X139000000Y-127500000D03*
X139000000Y-130000000D03*
%TD*%
D15*
%TO.C,U1*%
X144690000Y-125000000D03*
X152310000Y-132620000D03*
X144690000Y-127540000D03*
X152310000Y-130080000D03*
X144690000Y-130080000D03*
X152310000Y-127540000D03*
X144690000Y-132620000D03*
G36*
G01*
X153310000Y-124200000D02*
X153310000Y-125800000D01*
G75*
G02*
X153110000Y-126000000I-200000J0D01*
G01*
X151510000Y-126000000D01*
G75*
G02*
X151310000Y-125800000I0J200000D01*
G01*
X151310000Y-124200000D01*
G75*
G02*
X151510000Y-124000000I200000J0D01*
G01*
X153110000Y-124000000D01*
G75*
G02*
X153310000Y-124200000I0J-200000D01*
G01*
G37*
%TD*%
D16*
%TO.C,P2*%
X148500000Y-75500000D03*
%TD*%
D17*
%TO.C,P3*%
X137500000Y-120000000D03*
%TD*%
%TO.C,P4*%
X137500000Y-93000000D03*
%TD*%
%TO.C,P5*%
X159500000Y-120000000D03*
%TD*%
%TO.C,P6*%
X159500000Y-93000000D03*
%TD*%
%TO.C,P7*%
X137500000Y-105000000D03*
%TD*%
%TO.C,P8*%
X159500000Y-105000000D03*
%TD*%
D18*
%TO.C,JP1*%
G36*
X169110982Y-111946157D02*
G01*
X169073463Y-111934776D01*
X169038886Y-111916294D01*
X169008579Y-111891421D01*
X168983706Y-111861114D01*
X168965224Y-111826537D01*
X168953843Y-111789018D01*
X168950000Y-111750000D01*
X168950000Y-110250000D01*
X168953843Y-110210982D01*
X168965224Y-110173463D01*
X168983706Y-110138886D01*
X169008579Y-110108579D01*
X169038886Y-110083706D01*
X169073463Y-110065224D01*
X169110982Y-110053843D01*
X169150000Y-110050000D01*
X169650000Y-110050000D01*
X169656112Y-110050602D01*
X169674534Y-110050602D01*
X169694140Y-110051565D01*
X169742971Y-110056375D01*
X169762380Y-110059254D01*
X169810505Y-110068826D01*
X169829548Y-110073596D01*
X169876503Y-110087840D01*
X169894980Y-110094451D01*
X169940313Y-110113228D01*
X169958061Y-110121623D01*
X170001334Y-110144754D01*
X170018162Y-110154840D01*
X170058961Y-110182100D01*
X170074730Y-110193795D01*
X170112659Y-110224923D01*
X170127200Y-110238103D01*
X170161897Y-110272800D01*
X170175077Y-110287341D01*
X170206205Y-110325270D01*
X170217900Y-110341039D01*
X170245160Y-110381838D01*
X170255246Y-110398666D01*
X170278377Y-110441939D01*
X170286772Y-110459687D01*
X170305549Y-110505020D01*
X170312160Y-110523497D01*
X170326404Y-110570452D01*
X170331174Y-110589495D01*
X170340746Y-110637620D01*
X170343625Y-110657029D01*
X170348435Y-110705860D01*
X170349398Y-110725466D01*
X170349398Y-110743888D01*
X170350000Y-110750000D01*
X170350000Y-111250000D01*
X170349398Y-111256112D01*
X170349398Y-111274534D01*
X170348435Y-111294140D01*
X170343625Y-111342971D01*
X170340746Y-111362380D01*
X170331174Y-111410505D01*
X170326404Y-111429548D01*
X170312160Y-111476503D01*
X170305549Y-111494980D01*
X170286772Y-111540313D01*
X170278377Y-111558061D01*
X170255246Y-111601334D01*
X170245160Y-111618162D01*
X170217900Y-111658961D01*
X170206205Y-111674730D01*
X170175077Y-111712659D01*
X170161897Y-111727200D01*
X170127200Y-111761897D01*
X170112659Y-111775077D01*
X170074730Y-111806205D01*
X170058961Y-111817900D01*
X170018162Y-111845160D01*
X170001334Y-111855246D01*
X169958061Y-111878377D01*
X169940313Y-111886772D01*
X169894980Y-111905549D01*
X169876503Y-111912160D01*
X169829548Y-111926404D01*
X169810505Y-111931174D01*
X169762380Y-111940746D01*
X169742971Y-111943625D01*
X169694140Y-111948435D01*
X169674534Y-111949398D01*
X169656112Y-111949398D01*
X169650000Y-111950000D01*
X169150000Y-111950000D01*
X169110982Y-111946157D01*
G37*
G36*
X168343888Y-111949398D02*
G01*
X168325466Y-111949398D01*
X168305860Y-111948435D01*
X168257029Y-111943625D01*
X168237620Y-111940746D01*
X168189495Y-111931174D01*
X168170452Y-111926404D01*
X168123497Y-111912160D01*
X168105020Y-111905549D01*
X168059687Y-111886772D01*
X168041939Y-111878377D01*
X167998666Y-111855246D01*
X167981838Y-111845160D01*
X167941039Y-111817900D01*
X167925270Y-111806205D01*
X167887341Y-111775077D01*
X167872800Y-111761897D01*
X167838103Y-111727200D01*
X167824923Y-111712659D01*
X167793795Y-111674730D01*
X167782100Y-111658961D01*
X167754840Y-111618162D01*
X167744754Y-111601334D01*
X167721623Y-111558061D01*
X167713228Y-111540313D01*
X167694451Y-111494980D01*
X167687840Y-111476503D01*
X167673596Y-111429548D01*
X167668826Y-111410505D01*
X167659254Y-111362380D01*
X167656375Y-111342971D01*
X167651565Y-111294140D01*
X167650602Y-111274534D01*
X167650602Y-111256112D01*
X167650000Y-111250000D01*
X167650000Y-110750000D01*
X167650602Y-110743888D01*
X167650602Y-110725466D01*
X167651565Y-110705860D01*
X167656375Y-110657029D01*
X167659254Y-110637620D01*
X167668826Y-110589495D01*
X167673596Y-110570452D01*
X167687840Y-110523497D01*
X167694451Y-110505020D01*
X167713228Y-110459687D01*
X167721623Y-110441939D01*
X167744754Y-110398666D01*
X167754840Y-110381838D01*
X167782100Y-110341039D01*
X167793795Y-110325270D01*
X167824923Y-110287341D01*
X167838103Y-110272800D01*
X167872800Y-110238103D01*
X167887341Y-110224923D01*
X167925270Y-110193795D01*
X167941039Y-110182100D01*
X167981838Y-110154840D01*
X167998666Y-110144754D01*
X168041939Y-110121623D01*
X168059687Y-110113228D01*
X168105020Y-110094451D01*
X168123497Y-110087840D01*
X168170452Y-110073596D01*
X168189495Y-110068826D01*
X168237620Y-110059254D01*
X168257029Y-110056375D01*
X168305860Y-110051565D01*
X168325466Y-110050602D01*
X168343888Y-110050602D01*
X168350000Y-110050000D01*
X168850000Y-110050000D01*
X168889018Y-110053843D01*
X168926537Y-110065224D01*
X168961114Y-110083706D01*
X168991421Y-110108579D01*
X169016294Y-110138886D01*
X169034776Y-110173463D01*
X169046157Y-110210982D01*
X169050000Y-110250000D01*
X169050000Y-111750000D01*
X169046157Y-111789018D01*
X169034776Y-111826537D01*
X169016294Y-111861114D01*
X168991421Y-111891421D01*
X168961114Y-111916294D01*
X168926537Y-111934776D01*
X168889018Y-111946157D01*
X168850000Y-111950000D01*
X168350000Y-111950000D01*
X168343888Y-111949398D01*
G37*
%TD*%
D11*
%TO.C,M1*%
X149770000Y-98500000D03*
X147230000Y-98500000D03*
%TD*%
D10*
%TO.C,P9*%
X148500000Y-141250000D03*
%TD*%
M02*
